<?xml version="1.0" encoding="utf-8"?>
<!-- Generator: Adobe Illustrator 16.0.3, SVG Export Plug-In . SVG Version: 6.00 Build 0)  -->
<!DOCTYPE svg PUBLIC "-//W3C//DTD SVG 1.1//EN" "http://www.w3.org/Graphics/SVG/1.1/DTD/svg11.dtd">
<svg version="1.1" xmlns="http://www.w3.org/2000/svg" xmlns:xlink="http://www.w3.org/1999/xlink" x="0px" y="0px" width="238px"
	 height="100px" viewBox="0 0 238 100" enable-background="new 0 0 238 100" xml:space="preserve">
<g id="guides">
</g>
<g id="Layer_2">
	<g>
		<path fill="#231F20" d="M24.88,64.882v-7.438h2.374v-1.745H20v1.745h2.36v7.438H24.88L24.88,64.882z M31.071,64.882v-3.79h2.82
			v3.79h2.518v-9.183h-2.518v3.62h-2.82v-3.62h-2.52v9.183H31.071L31.071,64.882z M38.115,64.882h6.455v-1.705h-3.95v-2.112h2.69
			v-1.652h-2.69v-1.955h3.818v-1.758h-6.323V64.882L38.115,64.882z M50.998,65c2.4,0,3.658-1.063,3.658-2.898
			c0-1.719-0.774-2.414-2.938-2.912c-0.998-0.236-1.509-0.406-1.509-1.01c0-0.591,0.446-0.854,1.338-0.854
			c0.734,0,1.312,0.249,1.731,0.563h0.905v-1.691c-0.656-0.381-1.574-0.616-2.728-0.616c-2.021,0-3.451,0.918-3.451,2.794
			c0,1.731,0.893,2.4,2.572,2.833c1.021,0.275,1.758,0.354,1.758,1.143c0,0.576-0.487,0.903-1.431,0.903
			c-0.959,0-1.615-0.341-1.981-0.733h-0.931v1.744C48.74,64.712,49.658,65,50.998,65L50.998,65z M60.14,65
			c2.492,0,4.538-1.665,4.538-4.696c0-3.03-2.072-4.722-4.538-4.722c-2.467,0-4.526,1.691-4.526,4.722
			C55.613,63.335,57.648,65,60.14,65L60.14,65z M60.14,63.282c-1.155,0-1.968-0.892-1.968-2.952c0-2.072,0.813-2.979,1.968-2.979
			c1.154,0,1.968,0.906,1.968,2.979C62.107,62.391,61.294,63.282,60.14,63.282L60.14,63.282z M72.103,64.882V63.15h-3.606v-7.451
			h-2.52v9.183H72.103L72.103,64.882z M77.192,63.164c-1.037,0-1.587-0.407-1.587-1.785v-5.68h-2.518v5.693
			c0,2.31,1.351,3.595,3.946,3.595c2.6,0,3.74-1.272,3.74-3.595v-5.693h-2.085v5.68C78.689,62.757,78.19,63.164,77.192,63.164
			L77.192,63.164z M86.927,64.882v-7.438H89.3v-1.745h-7.254v1.745h2.361v7.438H86.927L86.927,64.882z M93.171,64.882v-9.183H90.64
			v9.183H93.171L93.171,64.882z M99.048,65c2.492,0,4.539-1.665,4.539-4.696c0-3.03-2.073-4.722-4.539-4.722
			c-2.468,0-4.526,1.691-4.526,4.722C94.521,63.335,96.555,65,99.048,65L99.048,65z M99.048,63.282
			c-1.155,0-1.968-0.892-1.968-2.952c0-2.072,0.813-2.979,1.968-2.979c1.154,0,1.968,0.906,1.968,2.979
			C101.016,62.391,100.202,63.282,99.048,63.282L99.048,63.282z M104.885,64.882h2.059v-6.021h0.039l3.425,6.021h2.283v-9.183
			h-2.073v5.313h-0.039l-3.005-5.313h-2.688V64.882L104.885,64.882z"/>
		<path fill="#231F20" d="M38.239,53.732v-4.447h5.313v4.447h0.696v-9.184h-0.696v4.159h-5.313v-4.159h-0.695v9.184H38.239
			L38.239,53.732z M46.006,53.732h0.589l1.024-2.873h3.975l1.036,2.873h0.615v-0.289l-3.187-8.895h-0.827l-3.226,8.895V53.732
			L46.006,53.732z M49.6,45.323h0.026l1.771,4.958h-3.581L49.6,45.323L49.6,45.323z M56.709,53.732h0.735l3.239-8.895v-0.289h-0.576
			l-3.005,8.344h-0.025l-3.005-8.344h-0.604v0.289L56.709,53.732L56.709,53.732z M63.162,53.732v-9.184h-0.706v9.184H63.162
			L63.162,53.732z M69.236,53.784c2.23,0,4.106-1.627,4.106-4.644c0-3.005-1.876-4.645-4.106-4.645c-2.256,0-4.132,1.64-4.132,4.645
			C65.104,52.157,66.98,53.784,69.236,53.784L69.236,53.784z M69.236,53.233c-1.929,0-3.411-1.39-3.411-4.08
			c0-2.689,1.482-4.105,3.411-4.105c1.901,0,3.384,1.416,3.384,4.105C72.62,51.844,71.138,53.233,69.236,53.233L69.236,53.233z
			 M80.808,53.732h0.602v-0.276l-2.19-4.065c1.037-0.303,1.667-1.023,1.667-2.349c0-1.837-1.286-2.493-3.148-2.493h-2.454v9.184
			h0.71v-4.159h1.744c0.275,0,0.551-0.013,0.8-0.039L80.808,53.732L80.808,53.732z M75.993,45.127h1.717
			c1.457,0,2.466,0.458,2.466,1.941c0,1.521-0.931,1.941-2.466,1.941h-1.717V45.127L75.993,45.127z M82.63,53.732h0.59l1.023-2.873
			h3.975l1.037,2.873h0.616v-0.289l-3.188-8.895h-0.826l-3.227,8.895V53.732L82.63,53.732z M86.224,45.323h0.026l1.771,4.958h-3.58
			L86.224,45.323L86.224,45.323z M97.112,53.732v-0.577h-4.788v-8.606h-0.695v9.184H97.112L97.112,53.732z M108.21,53.732h0.576
			v-0.289L107.502,52c0.538-0.892,0.943-2.047,1.114-3.121v-0.237h-0.591c-0.118,1.05-0.498,2.112-0.918,2.899l-2.61-2.925
			c-0.695-0.787-1.063-1.352-1.063-2.007c0-0.932,0.655-1.562,1.68-1.562c0.721,0,1.182,0.209,1.548,0.551h0.327v-0.512
			c-0.459-0.38-1.022-0.591-1.889-0.591c-1.404,0-2.349,0.854-2.349,2.1c0,0.827,0.354,1.365,0.708,1.797
			c-1.141,0.434-2.137,1.26-2.137,2.729c0,1.496,1.048,2.663,3.069,2.663c1.206,0,2.15-0.511,2.754-1.232L108.21,53.732
			L108.21,53.732z M104.471,53.221c-1.719,0-2.427-1.05-2.427-2.112c0-1.312,0.761-1.889,1.771-2.309l2.95,3.331
			C106.229,52.801,105.521,53.221,104.471,53.221L104.471,53.221z M115.687,53.784c1.784,0,3.044-0.801,3.044-2.584
			c0-1.6-1.023-2.06-2.873-2.545c-1.246-0.328-2.112-0.616-2.112-1.876c0-0.971,0.617-1.718,2.112-1.718
			c1.022,0,1.626,0.301,2.111,0.747h0.329v-0.591c-0.565-0.419-1.299-0.722-2.455-0.722c-1.795,0-2.767,1.011-2.767,2.336
			c0,1.495,0.944,2.021,2.585,2.453c1.324,0.354,2.388,0.616,2.388,1.968c0,1.391-0.972,1.968-2.375,1.968
			c-1.299,0-2.02-0.434-2.505-0.918h-0.315v0.615C113.457,53.391,114.323,53.784,115.687,53.784L115.687,53.784z M124.162,53.784
			c2.229,0,4.106-1.627,4.106-4.644c0-3.005-1.877-4.645-4.106-4.645c-2.258,0-4.133,1.64-4.133,4.645
			C120.029,52.157,121.904,53.784,124.162,53.784L124.162,53.784z M124.162,53.233c-1.929,0-3.412-1.39-3.412-4.08
			c0-2.689,1.483-4.105,3.412-4.105c1.9,0,3.384,1.416,3.384,4.105C127.546,51.844,126.063,53.233,124.162,53.233L124.162,53.233z
			 M133.646,53.784c1.494,0,2.399-0.538,3.029-1.129v-0.524h-0.301c-0.565,0.577-1.338,1.09-2.715,1.09
			c-1.981,0-3.256-1.43-3.256-4.133c0-2.649,1.457-4.026,3.359-4.026c1.273,0,1.916,0.406,2.427,0.917h0.327v-0.563
			c-0.68-0.551-1.336-0.919-2.793-0.919c-2.19,0-4.041,1.601-4.041,4.618C129.683,52.131,131.311,53.784,133.646,53.784
			L133.646,53.784z M139.233,53.732v-9.184h-0.708v9.184H139.233L139.233,53.732z M141.018,53.732h0.591l1.021-2.873h3.977
			l1.037,2.873h0.615v-0.289l-3.188-8.895h-0.828l-3.226,8.895V53.732L141.018,53.732z M144.611,45.323h0.027l1.771,4.958h-3.58
			L144.611,45.323L144.611,45.323z M155.5,53.732v-0.577h-4.789v-8.606h-0.694v9.184H155.5L155.5,53.732z M162.492,53.784
			c1.782,0,3.042-0.801,3.042-2.584c0-1.6-1.022-2.06-2.873-2.545c-1.247-0.328-2.112-0.616-2.112-1.876
			c0-0.971,0.618-1.718,2.112-1.718c1.023,0,1.628,0.301,2.112,0.747h0.329v-0.591c-0.564-0.419-1.299-0.722-2.454-0.722
			c-1.797,0-2.768,1.011-2.768,2.336c0,1.495,0.944,2.021,2.583,2.453c1.327,0.354,2.388,0.616,2.388,1.968
			c0,1.391-0.97,1.968-2.373,1.968c-1.299,0-2.02-0.434-2.506-0.918h-0.314v0.615C160.261,53.391,161.126,53.784,162.492,53.784
			L162.492,53.784z M170.874,53.784c1.496,0,2.4-0.538,3.03-1.129v-0.524h-0.303c-0.563,0.577-1.338,1.09-2.716,1.09
			c-1.979,0-3.252-1.43-3.252-4.133c0-2.649,1.456-4.026,3.357-4.026c1.272,0,1.916,0.406,2.427,0.917h0.329v-0.563
			c-0.684-0.551-1.34-0.919-2.795-0.919c-2.19,0-4.04,1.601-4.04,4.618C166.912,52.131,168.538,53.784,170.874,53.784
			L170.874,53.784z M176.462,53.732v-9.184h-0.708v9.184H176.462L176.462,53.732z M178.979,53.732h5.654v-0.577h-4.958v-3.87h3.607
			v-0.577h-3.607V45.14h4.774v-0.591h-5.471V53.732L178.979,53.732z M186.443,53.732h0.658V45.48h0.024l5.299,8.252h0.669v-9.184
			h-0.669v7.924h-0.011l-5.104-7.924h-0.866V53.732L186.443,53.732z M199.036,53.784c1.496,0,2.401-0.538,3.031-1.129v-0.524h-0.303
			c-0.563,0.577-1.337,1.09-2.714,1.09c-1.982,0-3.255-1.43-3.255-4.133c0-2.649,1.457-4.026,3.359-4.026
			c1.272,0,1.916,0.406,2.427,0.917h0.327v-0.563c-0.682-0.551-1.338-0.919-2.793-0.919c-2.19,0-4.041,1.601-4.041,4.618
			C195.075,52.131,196.702,53.784,199.036,53.784L199.036,53.784z M203.89,53.732h5.654v-0.577h-4.957v-3.87h3.606v-0.577h-3.606
			V45.14h4.773v-0.591h-5.471V53.732L203.89,53.732z M213.493,53.784c1.785,0,3.043-0.801,3.043-2.584c0-1.6-1.023-2.06-2.872-2.545
			c-1.247-0.328-2.113-0.616-2.113-1.876c0-0.971,0.617-1.718,2.113-1.718c1.023,0,1.626,0.301,2.112,0.747h0.327v-0.591
			c-0.564-0.419-1.299-0.722-2.453-0.722c-1.797,0-2.769,1.011-2.769,2.336c0,1.495,0.944,2.021,2.585,2.453
			c1.325,0.354,2.388,0.616,2.388,1.968c0,1.391-0.972,1.968-2.375,1.968c-1.299,0-2.02-0.434-2.505-0.918h-0.315v0.615
			C211.263,53.391,212.129,53.784,213.493,53.784L213.493,53.784z"/>
		<path fill="#231F20" d="M20.832,53.732h3.502c2.349,0,3.687-0.932,3.687-2.664c0-1.285-0.774-1.915-1.993-2.138v-0.052
			c1.009-0.237,1.651-0.801,1.651-1.929c0-1.64-1.128-2.401-3.409-2.401h-3.438V53.732L20.832,53.732z M23.299,52.104v-2.347h0.932
			c0.838,0,1.258,0.406,1.258,1.168c0,0.746-0.405,1.179-1.258,1.179H23.299L23.299,52.104z M23.299,48.223v-2.033h0.866
			c0.76,0,1.113,0.341,1.113,1.01c0,0.695-0.354,1.023-1.128,1.023H23.299L23.299,48.223z M29.294,53.732h6.453v-1.706h-3.948
			v-2.112h2.688v-1.652h-2.688v-1.955h3.816v-1.758h-6.321V53.732L29.294,53.732z"/>
		<path fill="#231F20" d="M23.274,41.965c1.122,0,1.801-0.402,2.272-0.847v-0.392H25.32c-0.421,0.432-1.002,0.815-2.036,0.815
			c-1.485,0-2.441-1.071-2.441-3.099c0-1.988,1.093-3.021,2.52-3.021c0.956,0,1.438,0.305,1.821,0.689h0.244v-0.424
			C24.917,35.275,24.426,35,23.333,35c-1.644,0-3.03,1.199-3.03,3.463S21.523,41.965,23.274,41.965L23.274,41.965z M29.58,41.965
			c1.673,0,3.079-1.22,3.079-3.482c0-2.254-1.406-3.482-3.079-3.482c-1.691,0-3.099,1.229-3.099,3.482
			C26.481,40.745,27.889,41.965,29.58,41.965L29.58,41.965z M29.58,41.553c-1.445,0-2.557-1.043-2.557-3.061s1.111-3.08,2.557-3.08
			c1.428,0,2.539,1.063,2.539,3.08S31.008,41.553,29.58,41.553L29.58,41.553z M38.208,41.926v-0.433h-3.591V35.04h-0.521v6.886
			H38.208L38.208,41.926z M43.688,41.926v-0.433h-3.591V35.04h-0.521v6.886H43.688L43.688,41.926z M45.057,41.926h4.24v-0.433
			h-3.719V38.59h2.705v-0.433h-2.705V35.48h3.58v-0.44h-4.102V41.926L45.057,41.926z M53.242,41.965c1.111,0,1.8-0.284,2.272-0.56
			v-2.854h-2.046v0.432h1.524v2.176c-0.374,0.196-0.855,0.383-1.751,0.383c-1.644,0-2.609-1.022-2.609-3.099
			s1.133-3.021,2.658-3.021c0.856,0,1.408,0.227,1.761,0.571h0.256V35.54C54.846,35.236,54.255,35,53.291,35
			c-1.792,0-3.218,1.141-3.218,3.463C50.073,40.794,51.304,41.965,53.242,41.965L53.242,41.965z M57.275,41.926h4.24v-0.433h-3.72
			V38.59h2.705v-0.433h-2.705V35.48h3.581v-0.44h-4.102V41.926L57.275,41.926z M67.91,41.965c1.673,0,3.079-1.22,3.079-3.482
			c0-2.254-1.406-3.482-3.079-3.482c-1.692,0-3.098,1.229-3.098,3.482C64.813,40.745,66.218,41.965,67.91,41.965L67.91,41.965z
			 M67.91,41.553c-1.445,0-2.559-1.043-2.559-3.061s1.113-3.08,2.559-3.08c1.428,0,2.539,1.063,2.539,3.08
			S69.338,41.553,67.91,41.553L67.91,41.553z M72.947,41.926v-3.158h2.656v-0.433h-2.656V35.48h3.583v-0.44h-4.104v6.886H72.947
			L72.947,41.926z"/>
	</g>
</g>
</svg>
