<?xml version="1.0" encoding="utf-8"?>
<!-- Generator: Adobe Illustrator 16.0.3, SVG Export Plug-In . SVG Version: 6.00 Build 0)  -->
<!DOCTYPE svg PUBLIC "-//W3C//DTD SVG 1.1//EN" "http://www.w3.org/Graphics/SVG/1.1/DTD/svg11.dtd">
<svg version="1.1" xmlns="http://www.w3.org/2000/svg" xmlns:xlink="http://www.w3.org/1999/xlink" x="0px" y="0px" width="188px"
	 height="100px" viewBox="0 0 188 100" enable-background="new 0 0 188 100" xml:space="preserve">
<g id="guides">
</g>
<g id="Layer_2">
	<g>
		<g>
			<path fill="#333333" d="M63.368,42.713c-0.586,0-1.037,0.215-1.357,0.639c-0.32,0.426-0.48,1.02-0.48,1.777
				c0,1.582,0.611,2.373,1.838,2.373c0.516,0,1.137-0.127,1.867-0.375v1.26c-0.6,0.244-1.271,0.365-2.014,0.365
				c-1.064,0-1.881-0.313-2.443-0.938c-0.564-0.629-0.848-1.523-0.848-2.695c0-0.736,0.139-1.383,0.418-1.938
				c0.275-0.553,0.674-0.979,1.193-1.275c0.52-0.293,1.127-0.443,1.826-0.443c0.711,0,1.424,0.166,2.143,0.502l-0.5,1.221
				c-0.273-0.127-0.549-0.238-0.828-0.328C63.907,42.762,63.634,42.713,63.368,42.713z"/>
			<path fill="#333333" d="M73.954,45.1c0,1.176-0.301,2.076-0.9,2.705c-0.602,0.631-1.465,0.947-2.586,0.947
				c-1.123,0-1.984-0.316-2.584-0.947c-0.602-0.629-0.902-1.533-0.902-2.715c0-1.178,0.301-2.08,0.902-2.701
				c0.604-0.623,1.469-0.936,2.594-0.936c1.127,0,1.986,0.313,2.582,0.941S73.954,43.924,73.954,45.1z M68.61,45.1
				c0,0.795,0.152,1.391,0.465,1.791c0.311,0.4,0.775,0.602,1.393,0.602c1.238,0,1.859-0.797,1.859-2.393s-0.617-2.396-1.85-2.396
				c-0.617,0-1.084,0.203-1.398,0.605C68.767,43.713,68.61,44.309,68.61,45.1z"/>
			<path fill="#333333" d="M79.085,48.654l-1.764-5.561h-0.043c0.063,1.131,0.094,1.885,0.094,2.264v3.297h-1.387v-7.09h2.113
				l1.732,5.424h0.031l1.838-5.424h2.115v7.09h-1.449v-3.355c0-0.156,0.004-0.34,0.008-0.547c0.006-0.205,0.027-0.756,0.068-1.648
				h-0.047l-1.887,5.551H79.085z"/>
			<path fill="#333333" d="M91.229,43.777c0,0.762-0.246,1.346-0.738,1.748c-0.494,0.404-1.193,0.609-2.102,0.609h-0.666v2.52
				h-1.553v-7.09h2.338c0.889,0,1.566,0.186,2.027,0.557C90.999,42.492,91.229,43.043,91.229,43.777z M87.724,44.9h0.512
				c0.477,0,0.834-0.09,1.07-0.273c0.238-0.182,0.355-0.449,0.355-0.797c0-0.352-0.098-0.611-0.297-0.781
				c-0.201-0.166-0.51-0.25-0.934-0.25h-0.707V44.9z"/>
			<path fill="#333333" d="M99.085,41.564v4.59c0,0.521-0.119,0.98-0.361,1.373c-0.244,0.398-0.592,0.701-1.051,0.908
				c-0.457,0.213-0.996,0.316-1.621,0.316c-0.943,0-1.674-0.234-2.195-0.699c-0.52-0.469-0.781-1.107-0.781-1.918v-4.57h1.547v4.34
				c0,0.547,0.115,0.947,0.342,1.203c0.229,0.254,0.604,0.385,1.127,0.385c0.508,0,0.875-0.131,1.104-0.387
				c0.23-0.258,0.344-0.662,0.344-1.209v-4.332H99.085z"/>
			<path fill="#333333" d="M104.218,48.654h-1.553v-5.836h-1.988v-1.254h5.531v1.254h-1.99V48.654z"/>
			<path fill="#333333" d="M112.063,48.654h-4.215v-7.09h4.215v1.234h-2.662v1.555h2.477v1.23h-2.477v1.83h2.662V48.654z"/>
			<path fill="#333333" d="M115.657,45.934v2.721h-1.553v-7.09h2.135c0.994,0,1.732,0.176,2.209,0.527
				c0.479,0.352,0.715,0.883,0.715,1.598c0,0.418-0.117,0.789-0.354,1.113c-0.238,0.322-0.574,0.58-1.008,0.762
				c1.102,1.596,1.82,2.625,2.156,3.09h-1.725l-1.748-2.721H115.657z M115.657,44.713h0.502c0.49,0,0.854-0.078,1.088-0.238
				c0.232-0.16,0.35-0.406,0.35-0.746c0-0.338-0.119-0.576-0.357-0.719c-0.24-0.141-0.609-0.211-1.109-0.211h-0.473V44.713z"/>
			<path fill="#EC1C24" d="M128.894,46.686c0,0.641-0.24,1.145-0.717,1.514c-0.475,0.367-1.137,0.553-1.984,0.553
				c-0.781,0-1.473-0.143-2.074-0.426V46.93c0.494,0.211,0.912,0.363,1.254,0.449c0.344,0.088,0.656,0.133,0.939,0.133
				c0.342,0,0.602-0.064,0.785-0.191c0.182-0.125,0.273-0.313,0.273-0.561c0-0.141-0.043-0.264-0.121-0.371
				c-0.08-0.111-0.199-0.215-0.354-0.313c-0.154-0.102-0.473-0.26-0.949-0.482c-0.447-0.201-0.783-0.4-1.008-0.586
				c-0.223-0.188-0.4-0.406-0.535-0.654c-0.133-0.25-0.201-0.539-0.201-0.871c0-0.629,0.221-1.121,0.658-1.482
				c0.439-0.357,1.047-0.537,1.822-0.537c0.381,0,0.742,0.043,1.09,0.131c0.346,0.088,0.707,0.211,1.084,0.371l-0.5,1.166
				c-0.391-0.154-0.713-0.262-0.971-0.322c-0.254-0.063-0.508-0.096-0.752-0.096c-0.295,0-0.521,0.068-0.678,0.199
				c-0.156,0.133-0.236,0.307-0.236,0.521c0,0.133,0.033,0.246,0.098,0.344c0.063,0.102,0.162,0.195,0.303,0.287
				c0.137,0.092,0.465,0.258,0.982,0.498c0.684,0.316,1.156,0.635,1.406,0.953C128.763,45.832,128.894,46.223,128.894,46.686z"/>
			<path fill="#EC1C24" d="M133.841,42.713c-0.582,0-1.035,0.215-1.357,0.639c-0.318,0.426-0.479,1.02-0.479,1.777
				c0,1.582,0.611,2.373,1.836,2.373c0.516,0,1.139-0.127,1.869-0.375v1.26c-0.6,0.244-1.27,0.365-2.012,0.365
				c-1.064,0-1.881-0.313-2.445-0.938c-0.566-0.629-0.846-1.523-0.846-2.695c0-0.736,0.137-1.383,0.416-1.938
				c0.277-0.553,0.674-0.979,1.195-1.275c0.518-0.293,1.127-0.443,1.822-0.443c0.713,0,1.43,0.166,2.146,0.502l-0.502,1.221
				c-0.273-0.127-0.551-0.238-0.826-0.328C134.382,42.762,134.11,42.713,133.841,42.713z"/>
			<path fill="#EC1C24" d="M137.782,48.654v-7.09h1.553v7.09H137.782z"/>
			<path fill="#EC1C24" d="M145.909,48.654h-4.217v-7.09h4.217v1.234h-2.664v1.555h2.479v1.23h-2.479v1.83h2.664V48.654z"/>
			<path fill="#EC1C24" d="M154.446,48.654h-1.973l-3.186-5.361h-0.047c0.064,0.947,0.096,1.621,0.096,2.025v3.336h-1.387v-7.09
				h1.959l3.18,5.309h0.035c-0.051-0.92-0.074-1.572-0.074-1.953v-3.355h1.396V48.654z"/>
			<path fill="#EC1C24" d="M159.913,42.713c-0.584,0-1.035,0.215-1.357,0.639c-0.32,0.426-0.48,1.02-0.48,1.777
				c0,1.582,0.613,2.373,1.838,2.373c0.514,0,1.139-0.127,1.871-0.375v1.26c-0.604,0.244-1.273,0.365-2.016,0.365
				c-1.064,0-1.881-0.313-2.445-0.938c-0.563-0.629-0.846-1.523-0.846-2.695c0-0.736,0.137-1.383,0.416-1.938
				c0.277-0.553,0.676-0.979,1.195-1.275c0.518-0.293,1.127-0.443,1.824-0.443c0.713,0,1.428,0.166,2.145,0.502l-0.502,1.221
				c-0.273-0.127-0.549-0.238-0.826-0.328C160.452,42.762,160.183,42.713,159.913,42.713z"/>
			<path fill="#EC1C24" d="M168.069,48.654h-4.215v-7.09h4.215v1.234h-2.662v1.555h2.477v1.23h-2.477v1.83h2.662V48.654z"/>
			<path fill="#EC1C24" d="M63.616,53.756v3.059c0,0.545-0.162,0.967-0.488,1.273c-0.324,0.307-0.777,0.459-1.357,0.459
				c-0.566,0-1.008-0.152-1.324-0.463c-0.318-0.305-0.477-0.732-0.477-1.281v-3.047h0.344v3.059c0,0.453,0.129,0.809,0.391,1.063
				c0.26,0.254,0.631,0.377,1.105,0.377c0.465,0,0.826-0.123,1.082-0.371c0.256-0.25,0.383-0.596,0.383-1.035v-3.092H63.616z"/>
			<path fill="#EC1C24" d="M69.726,58.482h-0.344l-2.891-4.197h-0.027c0.027,0.502,0.041,0.879,0.041,1.133v3.064h-0.33v-4.727
				h0.342l2.891,4.189h0.02c-0.02-0.389-0.031-0.756-0.031-1.104v-3.086h0.33V58.482z"/>
			<path fill="#EC1C24" d="M72.341,58.482v-4.727h0.338v4.727H72.341z"/>
			<path fill="#EC1C24" d="M78.181,53.756h0.371l-1.83,4.727h-0.299l-1.82-4.727h0.365l1.227,3.215
				c0.189,0.486,0.313,0.85,0.379,1.094c0.045-0.162,0.133-0.412,0.264-0.752L78.181,53.756z"/>
			<path fill="#EC1C24" d="M83.142,58.482h-2.67v-4.727h2.67v0.305h-2.328v1.787h2.197v0.303h-2.197v2.029h2.328V58.482z"/>
			<path fill="#EC1C24" d="M85.817,56.422v2.061h-0.34v-4.727h1.162c0.605,0,1.053,0.107,1.342,0.324
				c0.291,0.219,0.434,0.545,0.434,0.977c0,0.32-0.086,0.586-0.258,0.805s-0.436,0.375-0.787,0.469l1.328,2.152h-0.41l-1.258-2.061
				H85.817z M85.817,56.139h0.932c0.412,0,0.732-0.088,0.959-0.268c0.229-0.176,0.342-0.439,0.342-0.787
				c0-0.359-0.113-0.623-0.334-0.785c-0.223-0.162-0.586-0.244-1.088-0.244h-0.811V56.139z"/>
			<path fill="#EC1C24" d="M93.468,57.264c0,0.395-0.15,0.707-0.449,0.938c-0.301,0.229-0.697,0.346-1.193,0.346
				c-0.598,0-1.055-0.064-1.373-0.191v-0.33c0.352,0.145,0.801,0.219,1.346,0.219c0.4,0,0.719-0.092,0.953-0.268
				c0.234-0.178,0.352-0.412,0.352-0.699c0-0.18-0.037-0.328-0.115-0.445s-0.205-0.225-0.381-0.322s-0.436-0.203-0.773-0.313
				c-0.502-0.166-0.844-0.346-1.035-0.537c-0.189-0.195-0.287-0.453-0.287-0.771c0-0.355,0.145-0.643,0.43-0.867
				c0.287-0.221,0.654-0.334,1.104-0.334c0.459,0,0.889,0.084,1.293,0.254l-0.123,0.283c-0.404-0.164-0.793-0.244-1.162-0.244
				c-0.359,0-0.648,0.08-0.861,0.24c-0.215,0.162-0.32,0.381-0.32,0.66c0,0.174,0.031,0.316,0.098,0.43
				c0.066,0.111,0.174,0.213,0.322,0.303c0.148,0.088,0.406,0.195,0.768,0.32c0.381,0.129,0.668,0.25,0.859,0.371
				c0.191,0.119,0.332,0.256,0.42,0.406C93.425,56.863,93.468,57.049,93.468,57.264z"/>
			<path fill="#EC1C24" d="M95.731,58.482v-4.727h0.34v4.727H95.731z"/>
			<path fill="#EC1C24" d="M99.958,58.482h-0.346v-4.414h-1.586v-0.313h3.518v0.313h-1.586V58.482z"/>
			<path fill="#EC1C24" d="M104.622,56.344l1.43-2.588h0.367l-1.627,2.9v1.826h-0.352v-1.801l-1.631-2.926h0.391L104.622,56.344z"/>
			<path fill="#EC1C24" d="M115.452,56.111c0,0.75-0.195,1.346-0.582,1.781s-0.922,0.654-1.602,0.654s-1.215-0.219-1.6-0.654
				c-0.387-0.436-0.582-1.031-0.582-1.787c0-0.752,0.195-1.344,0.586-1.777c0.391-0.43,0.926-0.648,1.602-0.648
				c0.682,0,1.215,0.219,1.6,0.652C115.261,54.768,115.452,55.359,115.452,56.111z M111.458,56.111c0,0.678,0.156,1.201,0.469,1.57
				c0.311,0.371,0.758,0.557,1.342,0.557c0.588,0,1.035-0.186,1.348-0.551c0.309-0.367,0.465-0.893,0.465-1.576
				c0-0.68-0.156-1.201-0.465-1.564c-0.313-0.365-0.758-0.545-1.342-0.545c-0.58,0-1.029,0.184-1.344,0.547
				C111.614,54.918,111.458,55.438,111.458,56.111z"/>
			<path fill="#EC1C24" d="M118.146,58.482h-0.34v-4.727h2.676v0.305h-2.336v2.002h2.205v0.311h-2.205V58.482z"/>
			<path fill="#EC1C24" d="M127.624,58.482l-1.82-4.365h-0.025c0.016,0.27,0.025,0.543,0.025,0.822v3.543h-0.326v-4.727h0.527
				l1.729,4.156h0.021l1.73-4.156h0.514v4.727h-0.344V54.9c0-0.25,0.014-0.508,0.039-0.777h-0.025l-1.828,4.359H127.624z"/>
			<path fill="#EC1C24" d="M134.96,56.814h-1.984l-0.68,1.668h-0.379l1.963-4.746h0.219l1.924,4.746h-0.385L134.96,56.814z
				 M133.099,56.516h1.748l-0.664-1.703c-0.055-0.133-0.123-0.318-0.201-0.557c-0.059,0.209-0.127,0.395-0.195,0.564L133.099,56.516
				z"/>
			<path fill="#EC1C24" d="M138.284,56.422v2.061h-0.338v-4.727h1.158c0.609,0,1.055,0.107,1.344,0.324
				c0.291,0.219,0.434,0.545,0.434,0.977c0,0.32-0.084,0.586-0.258,0.805c-0.172,0.219-0.436,0.375-0.787,0.469l1.328,2.152h-0.41
				l-1.256-2.061H138.284z M138.284,56.139h0.932c0.412,0,0.732-0.088,0.959-0.268c0.229-0.176,0.34-0.439,0.34-0.787
				c0-0.359-0.111-0.623-0.332-0.785c-0.225-0.162-0.586-0.244-1.09-0.244h-0.809V56.139z"/>
			<path fill="#EC1C24" d="M144.362,56.344l1.43-2.588h0.367l-1.627,2.9v1.826h-0.35v-1.801l-1.635-2.926h0.391L144.362,56.344z"/>
			<path fill="#EC1C24" d="M148.079,58.482v-4.727h0.342v4.416h2.328v0.311H148.079z"/>
			<path fill="#EC1C24" d="M155.173,56.814h-1.982l-0.684,1.668h-0.377l1.965-4.746h0.215l1.924,4.746h-0.383L155.173,56.814z
				 M153.313,56.516h1.746l-0.666-1.703c-0.055-0.133-0.123-0.318-0.201-0.557c-0.059,0.209-0.123,0.395-0.195,0.564L153.313,56.516
				z"/>
			<path fill="#EC1C24" d="M161.706,58.482h-0.342l-2.895-4.197h-0.025c0.025,0.502,0.039,0.879,0.039,1.133v3.064h-0.326v-4.727
				h0.34l2.889,4.189h0.02c-0.02-0.389-0.029-0.756-0.029-1.104v-3.086h0.33V58.482z"/>
			<path fill="#EC1C24" d="M168.028,56.072c0,0.795-0.215,1.395-0.646,1.801c-0.43,0.406-1.061,0.609-1.893,0.609h-1.17v-4.727
				h1.322c0.777,0,1.371,0.197,1.777,0.592S168.028,55.318,168.028,56.072z M167.657,56.086c0-0.678-0.178-1.186-0.531-1.527
				c-0.357-0.342-0.879-0.51-1.566-0.51h-0.898v4.143h0.809C166.927,58.191,167.657,57.488,167.657,56.086z"/>
		</g>
		<g>
			<g>
				<polygon fill="#EC1C24" points="19.96,42.828 19.931,59.467 34.489,68 34.521,60.56 26.28,55.74 26.272,53.754 34.521,58.575 
					34.521,51.467 				"/>
			</g>
			<g>
				<polygon fill="#333333" points="20.081,41.783 35.163,50.64 42.515,46.615 42.515,48.237 35.772,52.172 35.772,68 49.868,58.33 
					49.868,41.331 43.831,37.552 36.653,41.892 35.243,41.236 42.509,36.714 35.71,32 				"/>
			</g>
		</g>
	</g>
</g>
</svg>
