<?xml version="1.0" encoding="utf-8"?>
<!-- Generator: Adobe Illustrator 16.0.3, SVG Export Plug-In . SVG Version: 6.00 Build 0)  -->
<!DOCTYPE svg PUBLIC "-//W3C//DTD SVG 1.1//EN" "http://www.w3.org/Graphics/SVG/1.1/DTD/svg11.dtd">
<svg version="1.1" xmlns="http://www.w3.org/2000/svg" xmlns:xlink="http://www.w3.org/1999/xlink" x="0px" y="0px" width="240px"
	 height="100px" viewBox="0 0 240 100" enable-background="new 0 0 240 100" xml:space="preserve">
<g id="guides">
</g>
<g id="Layer_2">
	<g>
		<g>
			<g>
				<path fill="#FFFFFF" d="M38.282,62.516c6.984,0,12.702-5.662,12.702-12.646s-5.948-12.598-12.702-12.591
					c-6.985,0.007-12.741,5.606-12.741,12.591S31.297,62.516,38.282,62.516z"/>
				<polygon fill-rule="evenodd" clip-rule="evenodd" fill="none" points="50.104,46.626 50.104,46.623 50.1,46.623 				"/>
				<path fill="#FFFFFF" d="M44.203,41.86c-1.635,0.25-3.828,0.394-6.125,0.393c0.029-2.514,0.072-4.329,0.121-4.878
					C40.525,37.771,42.64,39.449,44.203,41.86"/>
				<path fill="#ED171F" d="M46.932,50.89c-2.367,0.361-5.541,0.57-8.864,0.568c-0.003-3.424,0.013-6.728,0.043-9.301
					c2.295,0.003,4.485-0.142,6.119-0.392C45.829,44.234,46.852,47.471,46.932,50.89"/>
				<path fill="#FFFFFF" d="M46.724,50.872c-0.656-0.103-1.21-1.199-0.92-2.332c-0.926,0.641-1.968-0.676-1.815-1.893
					c0.08-0.646,0.502-1.218,1.239-0.951c-0.3-1.03-0.675-2.004-1.113-2.899c-0.653,0.082-1.371,0.151-2.132,0.205
					c0.677,1.021,0.014,1.971-0.93,1.82c-0.684-0.11-1.321-0.827-1.144-1.681c-0.556,0.385-1.697,0.232-1.8-0.986
					c2.096-0.012,3.939-0.082,6.125-0.39h0.001c1.765,2.912,2.523,5.466,2.705,9.108C46.875,50.873,46.788,50.883,46.724,50.872"/>
				<path fill="#FFFFFF" d="M31.545,59.404c-1.306-0.219-2.173-0.499-2.465-0.803c-0.323-0.362-0.745-0.854-1.044-1.236
					c-0.725-1.061-0.738-1.08-1.058-1.69c-0.557-1.176-0.566-1.197-0.785-1.851c-0.367-1.27-0.374-1.294-0.484-1.984
					c-0.072-0.599-0.137-1.401-0.161-2.005l0.011-0.549c-0.022,0.537,1.272,1.047,3.515,1.423c-0.005,0.178-0.007,0.356-0.007,0.535
					C29.071,54.546,30.012,57.404,31.545,59.404"/>
				<path fill="#FFFFFF" d="M38.241,62.516c-0.06,0-0.139-0.001-0.197-0.002c-0.116-0.003-0.233-0.007-0.349-0.01
					c-0.764-0.043-1.263-0.115-1.918-0.236c-1.647-0.376-3.108-1.395-4.242-2.886c1.119,0.188,2.557,0.329,4.229,0.402
					c0.79,0.033,1.585,0.051,2.369,0.051C38.162,61.529,38.199,62.514,38.241,62.516"/>
				<path fill="#ED171F" d="M38.132,59.835c-0.783,0-1.578-0.018-2.368-0.051c-1.67-0.073-3.106-0.215-4.225-0.401
					c-1.519-1.999-2.45-4.847-2.455-8.136c0-0.144,0.002-0.287,0.005-0.431c1.522,0.255,3.479,0.447,5.755,0.546
					c1.076,0.048,2.159,0.07,3.227,0.071c0,0.144,0,0.287,0,0.432C38.076,55.153,38.099,57.938,38.132,59.835"/>
				<path fill="#ED171F" d="M38.112,60.01c-0.108,0.438-0.723,0.857-1.592,0.502c0.405,0.537,0.054,1-0.661,0.87
					c-0.556-0.101-1.216-0.548-1.267-0.995c-0.688-0.053-1.316-0.118-1.875-0.195c0.531,0.615,1.122,1.119,1.761,1.493
					c0.076-0.03,0.195-0.023,0.574,0.109c0.484,0.169,0.938,0.417,1.421,0.589v0.002c-0.38-0.058-0.429-0.065-0.697-0.117
					c-0.913-0.263-2.611-0.75-4.241-2.886l0,0l0,0l0,0c1.964,0.303,3.875,0.435,6.598,0.451
					C38.127,59.886,38.125,59.958,38.112,60.01"/>
				<path fill="#FFFFFF" d="M31.535,59.382L31.535,59.382c-1.749-2.504-2.437-4.901-2.455-8.552c0.988,0.325,1.261,1.77,1.006,2.581
					c0.94-0.362,2.122,1.263,1.708,2.349c-0.19,0.501-0.686,0.641-1.204,0.339c0.28,0.948,0.644,1.815,1.078,2.584
					c0.664,0.091,1.411,0.17,2.228,0.231c-0.656-0.808-0.13-1.469,0.745-1.424c0.752,0.038,1.746,0.663,1.533,1.517
					c0.679-0.306,1.825-0.055,1.959,0.831c-0.823-0.006-2.067-0.016-3.662-0.125C33.487,59.645,32.518,59.458,31.535,59.382"/>
				<polyline fill="#ED171F" points="31.535,59.382 31.535,59.382 31.535,59.382 				"/>
				<polyline fill="#ED171F" points="31.535,59.382 31.535,59.382 31.535,59.382 				"/>
				<path fill="#ED171F" d="M31.535,59.382c-1.446-0.261-2.072-0.464-2.479-0.806c-0.293-0.331-0.682-0.776-0.955-1.123
					c0.051,0.063,0.083,0.104,0.218,0.261c-0.132-0.166-0.794-1.011-0.842-1.383c0.359-0.058,1.518,1.749,1.529,1.768
					c0.352,0.132,0.81,0.254,1.361,0.366c-0.52-0.782-0.954-1.661-1.289-2.62c-0.789,0.399-1.796-1.686-1.476-2.564
					c0.064-0.18,0.273-0.553,0.808-0.149c-0.402-0.928-0.297-2.303,0.675-2.3C29.107,53.904,29.532,56.534,31.535,59.382"/>
				<path d="M46.876,53.066l-0.016-0.023c0.056-0.565,0.083-1.149,0.082-1.747c0-0.141-0.002-0.279-0.006-0.419
					c0.007-0.001,0.013-0.002,0.02-0.003c0.003,0.14,0.005,0.279,0.005,0.419C46.962,51.9,46.933,52.492,46.876,53.066"/>
				<path d="M40.201,62.365l-0.008,0.002c3.483-0.542,6.17-4.24,6.667-9.324l0.016,0.023C46.372,58.136,43.685,61.822,40.201,62.365
					"/>
				<path d="M44.406,60.925c-0.86,0.442-1.04,0.533-1.961,0.88c-0.271,0.088-0.633,0.202-0.907,0.279
					c1.773-0.478,3.347-1.491,4.591-2.9c-0.265,0.587-0.446,0.922-1.373,1.538C44.641,60.79,44.524,60.858,44.406,60.925"/>
				<path fill="#FFD911" d="M44.756,60.722c0.763-0.528,1.085-0.84,1.373-1.538c1.822-2.065,2.936-4.98,2.931-8.31
					c0-0.14-0.002-0.278-0.006-0.418c0.575-0.152,1.038-0.318,1.364-0.496c0.005,0.14,0.007,0.278,0.007,0.419
					C50.432,54.845,48.169,58.66,44.756,60.722"/>
				<path d="M40.949,57.447c-0.843-0.847-0.843-0.847-2.87-2.767c-0.005-0.887-0.008-1.828-0.01-2.815c0-0.141,0-0.279,0-0.42
					c1.099,0.001,2.182-0.021,3.224-0.064c0.001,0.14,0.002,0.279,0.003,0.419C41.299,53.924,41.173,55.842,40.949,57.447"/>
				<path fill="#FFD911" d="M38.781,62.505l-0.08,0.003c-0.176,0.005-0.256,0.007-0.329,0.007l-0.132,0.001
					c-0.073-0.002-0.138-3.134-0.161-7.835c1.896,1.795,2.094,1.982,2.87,2.767C40.52,60.531,39.726,62.464,38.781,62.505"/>
				<path d="M39.381,62.465c-0.102,0.009-0.235,0.02-0.336,0.026c-0.079,0.004-0.186,0.01-0.264,0.014
					c0.943-0.041,1.736-1.972,2.167-5.051c0.916,0.962,1.319,1.432,1.762,2.152C41.848,61.308,40.689,62.348,39.381,62.465"/>
				<path fill="#FFD911" d="M42.71,59.606c-0.437-0.685-0.701-1.048-1.761-2.152c0.224-1.606,0.35-3.526,0.347-5.654
					c-0.001-0.14-0.002-0.279-0.003-0.419c1.043-0.044,2.047-0.108,2.985-0.191c0.003,0.139,0.004,0.279,0.004,0.42
					C44.287,54.874,43.691,57.669,42.71,59.606"/>
				<path d="M42.966,61.161c0.159-0.502,0.145-0.798-0.252-1.563c0.979-1.937,1.573-4.729,1.568-7.989
					c0-0.141-0.001-0.281-0.004-0.42c0.353-0.031,0.696-0.065,1.029-0.102c0.466,0.549,1.047,1.233,1.553,1.955
					C46.506,56.667,45.04,59.587,42.966,61.161"/>
				<path fill="#FFD911" d="M40.193,62.367c-0.095,0.014-0.221,0.032-0.314,0.044c-0.297,0.036-0.297,0.036-0.451,0.05l-0.047,0.004
					c1.31-0.117,2.471-1.159,3.333-2.866c0.343,0.684,0.453,0.995,0.252,1.563C42.13,61.796,41.194,62.212,40.193,62.367"/>
				<path fill="#FFD911" d="M41.538,62.084l-0.306,0.079c-0.509,0.113-0.509,0.113-0.785,0.162l-0.246,0.04
					c2.472-0.385,4.543-2.354,5.717-5.273c0.324,0.865,0.426,1.27,0.209,2.093C44.884,60.594,43.31,61.606,41.538,62.084"/>
				<path d="M41.232,62.163c-0.509,0.113-0.509,0.113-0.785,0.162l-0.246,0.04c0.995-0.155,1.926-0.566,2.759-1.194
					c-0.291,0.433-0.489,0.624-1.422,0.914L41.232,62.163"/>
				<path d="M46.127,59.185c0.173-0.724,0.168-1.128-0.209-2.093c0.668-1.663,1.047-3.635,1.043-5.799
					c0-0.14-0.002-0.279-0.005-0.419c0.801-0.123,1.508-0.264,2.098-0.418c0.004,0.14,0.006,0.278,0.006,0.418
					C49.064,54.203,47.95,57.12,46.127,59.185"/>
				<path fill="#FFD911" d="M44.406,60.925c0.113-0.064,0.227-0.13,0.338-0.196l-0.128,0.077L44.406,60.925"/>
				<path d="M50.484,50.346c0.007,4.537-2.341,8.409-5.863,10.456l-0.005,0.004l0.128-0.078c3.42-2.059,5.688-5.878,5.681-10.349
					c0-0.141-0.002-0.279-0.007-0.419c0.021-0.011,0.04-0.022,0.059-0.033C50.48,50.066,50.483,50.206,50.484,50.346"/>
				<path fill="#FFD911" d="M45.903,57.09c-0.448-0.911-0.751-1.396-1.775-2.654c0.104-0.893,0.156-1.838,0.154-2.826
					c0-0.141-0.001-0.281-0.004-0.42c0.962-0.085,1.856-0.19,2.658-0.313c0.004,0.14,0.006,0.278,0.006,0.419
					C46.945,53.458,46.569,55.429,45.903,57.09"/>
				<path d="M44.127,54.445c-0.733-0.841-1.101-1.264-2.833-3.064c0.979-0.049,1.754-0.087,2.984-0.197
					c0.003,0.142,0.004,0.283,0.004,0.426C44.284,52.602,44.229,53.551,44.127,54.445"/>
				<path d="M29.084,50.827c-0.007-0.001-0.012-0.001-0.018-0.002c0.016-0.744,0.08-1.479,0.187-2.2l0.014,0.029
					C29.162,49.366,29.1,50.093,29.084,50.827"/>
				<path d="M29.267,48.654l-0.014-0.029c0.776-5.212,3.819-9.642,7.628-11l-0.017,0.007C33.065,39.002,30.033,43.438,29.267,48.654
					"/>
				<path d="M36.864,37.632l0.017-0.007c0.44-0.157,0.892-0.272,1.35-0.344l0,0C37.767,37.354,37.31,37.472,36.864,37.632"/>
				<path fill="#FFD911" d="M30.631,41.354c0.442-0.991,0.766-1.487,1.706-2.291c1.749-1.051,3.757-1.69,5.894-1.782
					C35.289,37.547,32.616,39.074,30.631,41.354"/>
				<path d="M27.131,50.401c-0.515-0.15-0.913-0.311-1.181-0.479c0.141-4.576,2.684-8.637,6.387-10.859
					c-0.876,0.776-1.266,1.24-1.706,2.291C28.552,43.741,27.226,46.951,27.131,50.401"/>
				<path fill="#FFD911" d="M38.069,51.445c-1.067-0.001-2.149-0.024-3.226-0.07c-0.032-0.001-0.064-0.003-0.097-0.005
					c0.017-2.257,0.199-4.459,0.506-6.43c0.918,1.151,1.398,1.71,2.818,3.192C38.068,49.209,38.067,50.321,38.069,51.445"/>
				<path fill="#FFD911" d="M35.254,44.932c-0.859-1.195-1.228-1.816-1.582-2.921c1.179-2.488,2.786-4.255,4.559-4.729
					C36.968,37.992,35.865,41.003,35.254,44.932"/>
				<path d="M34.747,51.37c-1.105-0.049-2.135-0.12-3.074-0.211c0.054-3.395,0.809-6.638,1.999-9.148
					c0.362,1.06,0.656,1.66,1.582,2.921C34.947,46.904,34.764,49.109,34.747,51.37"/>
				<path fill="#FFD911" d="M31.673,51.159c-0.353-0.033-0.692-0.07-1.019-0.109c-0.424-0.649-0.951-1.457-1.388-2.396
					c0.543-3.69,2.22-6.992,4.5-9.092c-0.304,0.839-0.364,1.336-0.101,2.458C32.479,44.529,31.727,47.77,31.673,51.159"/>
				<path d="M33.666,42.021c-0.227-1.032-0.246-1.559,0.101-2.458c1.319-1.216,2.843-2.028,4.464-2.281
					C36.456,37.757,34.847,39.527,33.666,42.021"/>
				<path d="M30.451,44.373c-0.186-1.229-0.186-1.87,0.182-3.021c1.985-2.279,4.658-3.806,7.598-4.071l0,0
					c-0.7,0.116-0.827,0.138-1.35,0.344C34.168,38.592,31.845,41.117,30.451,44.373"/>
				<path fill="#FFD911" d="M33.775,39.546c0.426-0.738,0.706-1.095,1.775-1.657c0.857-0.316,1.756-0.524,2.68-0.607
					C36.613,37.532,35.094,38.339,33.775,39.546"/>
				<path fill="#FFD911" d="M29.066,50.825c-0.759-0.128-1.409-0.271-1.936-0.424c0.095-3.451,1.422-6.662,3.502-9.049
					c-0.323,1.069-0.399,1.686-0.182,3.021C29.617,46.32,29.117,48.53,29.066,50.825"/>
				<path d="M32.349,39.056c0.928-0.669,1.449-0.985,2.896-1.427c0.958-0.228,1.958-0.348,2.986-0.348l0,0
					C36.099,37.372,34.095,38.01,32.349,39.056"/>
				<path fill="#FFD911" d="M25.95,49.923c-0.266-0.167-0.402-0.341-0.396-0.517l0.021-0.44c0.364-5.528,4.365-10.075,9.668-11.337
					c-1.196,0.38-1.863,0.662-2.896,1.427C28.639,41.277,26.091,45.342,25.95,49.923"/>
				<path d="M31.673,51.159c-0.962-0.093-1.83-0.204-2.589-0.332c0.051-2.292,0.55-4.5,1.381-6.447
					c0.32,1.278,0.58,1.96,1.482,3.475C31.785,48.926,31.69,50.034,31.673,51.159"/>
				<path fill="#FFD911" d="M31.673,51.165c0.018-1.131,0.112-2.245,0.276-3.321c0.776,1.155,1.254,1.837,2.798,3.526
					C33.688,51.317,32.924,51.279,31.673,51.165"/>
				<path d="M35.551,37.889c0.705-0.284,1.314-0.531,2.68-0.607l0,0C37.307,37.364,36.408,37.572,35.551,37.889"/>
				<path fill="none" stroke="#000000" stroke-width="0" stroke-linecap="round" stroke-linejoin="round" d="M50.953,49.793
					c-0.013,0.682-0.031,1.712-0.396,3.176c-0.328,1.322-0.903,2.485-1.097,2.821c-0.655,1.14-1.874,3.259-4.839,5.012"/>
				<path stroke="#000000" stroke-width="0" stroke-linecap="round" stroke-linejoin="round" d="M50.501,49.915
					c0.323-0.188,0.475-0.377,0.469-0.563c0.174,5.287-2.805,9.389-6.326,11.436l-0.014,0.008l0.134-0.08
					c3.418-2.059,5.686-5.877,5.679-10.348c0-0.141-0.003-0.28-0.007-0.419c0.021-0.012,0.043-0.023,0.063-0.036
					c0.006,0.14,0.008,0.278,0.008,0.419"/>
				<polygon fill-rule="evenodd" clip-rule="evenodd" fill="none" points="50.104,46.626 50.104,46.623 50.1,46.623 				"/>
				<path fill="#ED171F" d="M44.247,41.76L44.247,41.76L44.247,41.76c0.004-0.001,0.008-0.001,0.011-0.002l0,0
					c0,0,0.002,0,0.006-0.001c0.123-0.021,0.238-0.04,0.35-0.06c0.724-0.134,2.301-0.479,2.301-0.958c0,0,0.703,0.643,1.174,1.518
					c0.057,0.097,0.104,0.194,0.142,0.296c0.041,0.1,0.069,0.192,0.085,0.276c0.004,0.005,0.007,0.011,0.011,0.017
					c0.003,0.04,0.002,0.075,0,0.108c0,0.015,0,0.028-0.002,0.041c-0.026,0.271-0.194,0.277-0.375,0.196
					c-0.02-0.008-0.038-0.014-0.059-0.023c-0.65-0.292-0.862-0.889-0.989-1.135c-0.329,0.104-0.876,0.343-1.33,0.43
					c-0.053,0.011-0.149,0.034-0.204,0.044c0.535,0.882,1.046,1.934,1.411,2.953c0.637-0.655,1.635,0.559,1.683,1.731
					c0.028,0.689-0.282,1.303-0.911,1.082c0.504,0.934,0.343,2.302-0.614,2.602c-0.158-3.069-0.679-5.793-2.699-9.109h-0.001h0.001"
					/>
				<path fill-rule="evenodd" clip-rule="evenodd" fill="#ED171F" d="M44.362,39.406c-0.003-0.001-0.006-0.003-0.009-0.005
					c0.002,0,0.005,0,0.008,0c-0.004-0.01-0.006-0.019-0.008-0.028c0.009-0.012,0.021-0.027,0.03-0.04
					c0.016-0.002,0.029-0.003,0.042-0.004l-0.003-0.004c0,0,0.092-0.386,1.544,0.617c-2.469-1.927-4.974-2.475-6.458-2.62
					c0.158,0.047,0.276,0.093,0.365,0.137c0.078,0.038,0.133,0.075,0.172,0.108c0.004,0,0.007-0.001,0.007-0.001
					c0.18,0.02,0.343,0.052,0.489,0.087l0,0l0,0c0.053,0.019,0.105,0.038,0.159,0.058c0.006,0.003,0.013,0.006,0.02,0.008
					c0.047,0.018,0.093,0.036,0.14,0.055c0.012,0.005,0.023,0.01,0.035,0.014c0.043,0.019,0.086,0.037,0.13,0.056
					c0.014,0.006,0.026,0.012,0.04,0.018c0.056,0.025,0.11,0.05,0.167,0.076l-0.001,0.003c0.447,0.218,0.808,0.462,0.81,0.65
					c-0.067,0.04-0.087,0.053-0.284-0.001c0.749,0.534,1.821,1.538,2.455,2.278c0.437-0.083,1.086-0.176,1.385-0.276
					C45.575,40.613,44.493,39.799,44.362,39.406z"/>
				<path fill-rule="evenodd" clip-rule="evenodd" fill="#FFFFFF" d="M46.906,40.749c-0.311-0.292-0.624-0.561-0.939-0.807
					c-0.588-0.406-0.952-0.585-1.18-0.653l0.004-0.003c0,0-0.726-0.232-0.315,0.321l0.002-0.001
					c0.314,0.417,1.101,1.003,1.119,0.984c-0.299,0.101-0.948,0.193-1.385,0.276c-0.634-0.74-1.706-1.744-2.455-2.278
					c0.197,0.054,0.217,0.041,0.284,0.001c-0.002-0.188-0.362-0.433-0.81-0.65l0.001-0.003c-0.057-0.026-0.111-0.051-0.167-0.076
					c-0.014-0.006-0.026-0.012-0.04-0.018c-0.044-0.019-0.087-0.037-0.13-0.056c-0.012-0.004-0.023-0.009-0.035-0.014
					c-0.047-0.019-0.093-0.037-0.14-0.055c-0.007-0.003-0.014-0.005-0.02-0.008c-0.054-0.02-0.106-0.039-0.159-0.058l0,0
					c-0.146-0.035-0.31-0.067-0.489-0.087c0,0-0.003,0.001-0.007,0.001c0.011,0.009,0.018,0.018,0.025,0.026l-0.047-0.024
					c0.009,0,0.018-0.001,0.021-0.002c-0.039-0.033-0.094-0.07-0.172-0.108c-0.089-0.044-0.207-0.09-0.365-0.137
					c-0.36-0.035-0.66-0.047-0.885-0.049c-0.17-0.006-0.307-0.007-0.336,0.003c-0.002,0.001-0.003,0.002-0.003,0.004
					c-0.052,0.001-0.082,0.004-0.082,0.004l0.057,0.018c-0.031-0.006-0.065-0.011-0.097-0.016c0.079,0.014,0.158,0.028,0.237,0.044
					c0.197,0.065,0.607,0.176,0.917,0.256c1.899,0.668,3.609,2.165,4.93,4.174c0.021-0.003,0.04-0.006,0.061-0.01
					c1.176-0.197,1.827-0.415,2.293-0.63c0.002-0.001,0.003-0.002,0.004-0.002c0.336-0.187,0.299-0.368,0.299-0.368L46.906,40.749z"
					/>
				<path fill-rule="evenodd" clip-rule="evenodd" fill="#ED171F" d="M44.235,41.766L44.235,41.766L44.235,41.766L44.235,41.766
					L44.235,41.766c-2.062-3.039-3.958-3.946-5.683-4.392c0.045,0.013,0.089,0.026,0.134,0.041c-0.08-0.021-0.162-0.044-0.234-0.063
					c-0.021-0.006-0.04-0.013-0.058-0.019c0.053,0.013,0.105,0.026,0.158,0.04c-0.061-0.018-0.12-0.034-0.183-0.049
					c-0.021-0.007-0.039-0.013-0.051-0.018c0.006,0.003,0.011,0.006,0.018,0.01c-0.04-0.009-0.08-0.018-0.121-0.026l0,0l0,0
					c0.368,0.408,0.886,0.58,1.01,0.618c-0.035,0.153-0.009,0.458,0.524,0.844c0.083,0.06,0.162,0.107,0.239,0.145
					c0.822,0.431,1.004,0.096,1.042-0.038c0.006-0.004,0.01-0.007,0.015-0.012c0.251,0.186,0.739,0.578,1.279,1.189
					c0.311,0.373,0.604,0.699,0.824,1.025c-0.508,0.063-1.181,0.124-1.847,0.172c-0.038-0.807-0.62-1.209-0.986-1.345
					c-0.801-0.299-1.064,0.645-0.717,1.308c-0.635-0.343-1.385-0.037-1.49,0.964C40.614,42.146,42.331,42.035,44.235,41.766
					L44.235,41.766L44.235,41.766"/>
				<path d="M38.071,48.133c-1.243-1.305-1.909-2.036-2.818-3.192c0.61-3.933,1.715-6.947,2.978-7.659l0,0l0,0
					C38.149,38.206,38.086,42.732,38.071,48.133"/>
			</g>
			<path d="M23.01,40.465l0.072,0.036c-0.123,0.257-0.065,0.399,0.179,0.521l1.03,0.511c0.474,0.234,0.832,0.788,0.421,1.615
				c-0.362,0.729-0.963,0.897-1.509,0.626l-1.114-0.553c-0.244-0.12-0.316-0.071-0.449,0.187l-0.072-0.036l0.487-0.98l0.072,0.036
				l-0.018,0.034c-0.104,0.21-0.092,0.33,0.129,0.44l1.061,0.525c0.516,0.256,0.975,0.107,1.256-0.461
				c0.214-0.432,0.253-0.959-0.396-1.28l-0.889-0.441c-0.366-0.182-0.46-0.157-0.632,0.152l-0.073-0.036L23.01,40.465z"/>
			<path d="M27.419,39.201l-3.187,0.2l1.397,1.177c0.234,0.198,0.327,0.188,0.561-0.09l0.063,0.053l-0.637,0.756l-0.063-0.053
				l0.012-0.013c0.171-0.202,0.156-0.324,0.007-0.451l-1.603-1.351c-0.115,0.031-0.213,0.094-0.312,0.205l-0.063-0.053l0.431-0.511
				l2.893-0.188l-1.297-1.092c-0.198-0.167-0.283-0.14-0.51,0.116l-0.062-0.053l0.642-0.762l0.063,0.052
				c-0.206,0.245-0.208,0.332-0.08,0.439l1.816,1.531L27.419,39.201z"/>
			<path d="M28.97,37.83l-0.796,0.662l-0.052-0.063c0.194-0.179,0.193-0.267,0.012-0.486l-1.159-1.396
				c-0.146-0.177-0.25-0.174-0.441-0.032l-0.052-0.062l0.796-0.661l0.052,0.062c-0.206,0.172-0.241,0.277-0.058,0.497l1.152,1.39
				c0.161,0.194,0.269,0.215,0.494,0.028L28.97,37.83z"/>
			<path d="M30.538,36.854l-1.962-1.521c-0.228-0.177-0.304-0.207-0.527-0.076l-0.042-0.069l1.011-0.592l0.041,0.069
				c-0.334,0.206-0.369,0.33-0.201,0.458l1.627,1.259l-0.309-1.857c-0.021-0.127-0.041-0.213-0.071-0.265
				c-0.064-0.11-0.183-0.101-0.432,0.046l-0.042-0.069l0.854-0.5l0.04,0.069c-0.19,0.112-0.238,0.259-0.192,0.538l0.391,2.402
				L30.538,36.854z"/>
			<path d="M33.668,34.355l-0.076,0.026c-0.132-0.275-0.219-0.28-0.384-0.224l-0.681,0.234l0.296,0.858
				c0.063,0.185,0.145,0.197,0.294,0.146l0.62-0.214c0.281-0.098,0.329-0.236,0.311-0.616l0.072-0.025l0.143,0.623l-2.139,0.737
				l-0.026-0.077l0.112-0.039c0.322-0.11,0.349-0.219,0.265-0.46l-0.586-1.7c-0.077-0.225-0.163-0.304-0.433-0.211l-0.089,0.03
				l-0.026-0.076l1.933-0.667l0.226,0.55l-0.072,0.024c-0.171-0.323-0.297-0.362-0.441-0.313l-0.85,0.293l0.342,0.991l0.721-0.249
				c0.145-0.05,0.19-0.142,0.13-0.382l0.076-0.026L33.668,34.355z"/>
			<path d="M35.284,32.297c0.074-0.018,0.129-0.024,0.21-0.033c0.651-0.078,0.865,0.205,0.912,0.599
				c0.061,0.508-0.225,0.743-0.694,0.799c-0.097,0.012-0.16,0.023-0.264,0.023L35.284,32.297z M35.459,33.765
				c0.067-0.004,0.123-0.006,0.217-0.018c0.113-0.014,0.181-0.026,0.286-0.043c0.109,0.056,0.272,0.161,0.48,0.325l0.313,0.245
				c0.421,0.332,0.631,0.471,1.367,0.349l-0.01-0.076c-0.328,0.018-0.604-0.107-0.884-0.328l-0.374-0.295
				c-0.223-0.174-0.363-0.278-0.535-0.382c0.335-0.144,0.52-0.436,0.481-0.752c-0.052-0.432-0.44-0.712-1.223-0.618
				c-0.275,0.032-0.359,0.047-0.532,0.076c-0.172,0.029-0.428,0.077-0.529,0.089l0.01,0.08l0.093-0.011
				c0.245-0.03,0.326,0.037,0.357,0.3l0.211,1.781c0.034,0.283-0.046,0.361-0.295,0.392l-0.073,0.008l0.01,0.081l1.197-0.143
				l-0.01-0.08l-0.097,0.011c-0.237,0.029-0.346-0.022-0.376-0.276L35.459,33.765z"/>
			<path d="M38.732,34.009c0.059,0.385,0.339,0.63,0.67,0.655c0.284,0.021,0.6-0.12,0.625-0.456
				c0.048-0.611-1.301-0.904-1.243-1.647c0.028-0.353,0.371-0.591,0.805-0.557c0.356,0.027,0.421,0.139,0.569,0.151
				c0.034,0.003,0.052-0.005,0.08-0.037l0.067,0.006l0.03,0.545l-0.072-0.006c-0.095-0.315-0.352-0.531-0.645-0.555
				c-0.28-0.021-0.488,0.124-0.506,0.362c-0.048,0.604,1.303,0.87,1.241,1.652c-0.032,0.416-0.426,0.697-0.923,0.658
				c-0.233-0.018-0.521-0.155-0.58-0.16c-0.039-0.004-0.07,0.016-0.09,0.04l-0.072-0.006l-0.038-0.652L38.732,34.009z"/>
			<path d="M42.007,35.126l-1.012-0.22l0.018-0.079c0.261,0.044,0.33-0.011,0.391-0.29l0.387-1.773
				c0.049-0.225-0.017-0.304-0.248-0.367l0.018-0.079l1.012,0.221l-0.017,0.079c-0.263-0.058-0.367-0.02-0.428,0.259l-0.385,1.766
				c-0.054,0.245-0.005,0.343,0.282,0.405L42.007,35.126z"/>
			<path d="M44.154,35.432c-0.085,0.214-0.044,0.317,0.198,0.413l0.146,0.058l-0.03,0.075l-1.247-0.494l0.03-0.075l0.146,0.059
				c0.242,0.095,0.344,0.049,0.429-0.166l0.774-1.956l-0.688-0.273c-0.158-0.063-0.266,0-0.463,0.325l-0.071-0.027l0.317-0.617
				l0.075,0.03c-0.006,0.025,0.005,0.048,0.024,0.064c0.021,0.018,0.047,0.032,0.075,0.043l1.904,0.756
				c0.056,0.021,0.12,0.033,0.146-0.011l0.075,0.029l-0.191,0.667l-0.071-0.028c0.079-0.371,0.044-0.491-0.114-0.555l-0.689-0.272
				L44.154,35.432z"/>
			<path d="M48.491,35.71c0.243-0.119,0.217-0.225-0.011-0.376l0.046-0.068l0.801,0.535l-0.046,0.068
				c-0.253-0.144-0.419-0.117-0.63-0.017l-1.252,0.603l-0.355,0.531c-0.126,0.188-0.108,0.308,0.108,0.451l0.046,0.03l-0.045,0.067
				l-0.974-0.65l0.044-0.067l0.067,0.045c0.22,0.147,0.338,0.108,0.454-0.065l0.333-0.499l0.028-1.406
				c0.009-0.389-0.04-0.493-0.265-0.653l0.044-0.067l0.942,0.629l-0.045,0.067c-0.276-0.184-0.339-0.129-0.342,0.105l-0.018,1.253
				L48.491,35.71z"/>
			<path d="M52.011,40.782c-0.48,0.366-1.17,0.475-1.591-0.077c-0.416-0.546-0.298-1.317,0.336-1.8
				c0.407-0.31,1.143-0.496,1.598,0.1C52.779,39.563,52.641,40.302,52.011,40.782z M52.365,41.016
				c0.609-0.466,0.628-1.347,0.14-1.987c-0.55-0.722-1.423-0.875-2.097-0.361c-0.634,0.482-0.634,1.367-0.128,2.031
				C50.781,41.355,51.681,41.537,52.365,41.016z"/>
			<path d="M53.258,43.678l-0.03-0.065c0.219-0.114,0.25-0.228,0.161-0.412l-0.339-0.712l-0.842,0.402
				c-0.216,0.103-0.274,0.187-0.137,0.476L51.999,43.4l-0.446-0.934l0.073-0.035c0.129,0.23,0.199,0.25,0.511,0.102l1.507-0.719
				c0.246-0.118,0.349-0.19,0.224-0.462l0.073-0.034l0.821,1.722l-0.453,0.217l-0.031-0.065c0.222-0.11,0.276-0.23,0.162-0.47
				l-0.348-0.73l-0.904,0.432l0.364,0.761c0.067,0.143,0.182,0.173,0.352,0.105l0.031,0.066L53.258,43.678z"/>
			<path d="M23.439,60.351l1.533-2.827l-0.006-0.009l-2.069,1.318c-0.234,0.15-0.161,0.353-0.026,0.558l-0.084,0.061l-0.665-0.917
				l0.084-0.06c0.233,0.32,0.333,0.31,0.749,0.041l1.791-1.138c0.304-0.193,0.377-0.26,0.196-0.546l0.079-0.058l0.482,0.665
				l-1.449,2.673l2.987-0.554l0.47,0.647l-0.08,0.058c-0.174-0.203-0.239-0.283-0.382-0.166l-1.894,1.59
				c-0.387,0.319-0.361,0.354-0.128,0.677l-0.084,0.061l-0.821-1.132l0.084-0.061c0.15,0.206,0.354,0.367,0.575,0.181l1.881-1.56
				l-0.006-0.009l-3.145,0.606L23.439,60.351z"/>
			<path d="M28.832,63.296l-0.759-0.559l1.124-0.748L28.832,63.296z M28.765,63.543l-0.293,1.014
				c-0.015,0.058-0.033,0.146-0.084,0.215c-0.091,0.124-0.202,0.082-0.452-0.102l-0.114-0.084l-0.062,0.083l1.206,0.888l0.062-0.084
				c-0.22-0.161-0.278-0.272-0.195-0.569l0.873-3.107l-0.382-0.281l-0.031,0.126l-2.4,1.592c-0.421,0.278-0.505,0.291-0.793,0.086
				l-0.062,0.084l1.013,0.744l0.062-0.083l-0.07-0.051c-0.241-0.179-0.323-0.306-0.236-0.424c0.046-0.062,0.2-0.151,0.291-0.212
				l0.761-0.501L28.765,63.543z"/>
			<path d="M32.257,63.466c0.095,0.022,0.163,0.047,0.26,0.081c0.79,0.28,0.874,0.727,0.705,1.202
				c-0.218,0.617-0.678,0.725-1.248,0.522c-0.118-0.042-0.196-0.063-0.314-0.122L32.257,63.466z M31.625,65.245
				c0.08,0.035,0.146,0.063,0.258,0.104c0.139,0.049,0.223,0.072,0.353,0.112c0.094,0.126,0.221,0.339,0.366,0.645l0.219,0.459
				c0.295,0.619,0.456,0.896,1.369,1.173l0.032-0.093c-0.386-0.165-0.632-0.466-0.827-0.877l-0.262-0.549
				c-0.155-0.326-0.259-0.524-0.395-0.741c0.464,0.026,0.841-0.204,0.977-0.588c0.186-0.523-0.103-1.065-1.051-1.401
				c-0.333-0.118-0.438-0.149-0.651-0.214c-0.215-0.064-0.534-0.154-0.658-0.198l-0.034,0.097l0.113,0.04
				c0.297,0.106,0.352,0.229,0.239,0.547l-0.767,2.16c-0.122,0.344-0.259,0.388-0.562,0.28l-0.087-0.03l-0.035,0.097l1.452,0.515
				l0.034-0.097l-0.118-0.043c-0.286-0.102-0.383-0.222-0.273-0.53L31.625,65.245z"/>
			<path d="M37.8,65.132c0.199-0.284,0.104-0.385-0.243-0.414l0.009-0.104l1.226,0.104l-0.009,0.104
				c-0.371-0.005-0.541,0.128-0.715,0.37l-1.029,1.446l-0.069,0.814c-0.025,0.287,0.069,0.41,0.399,0.438l0.07,0.007L37.43,68
				l-1.491-0.127l0.009-0.103l0.103,0.009c0.337,0.028,0.445-0.088,0.468-0.354l0.065-0.766l-0.837-1.589
				c-0.23-0.441-0.349-0.527-0.7-0.567l0.009-0.104l1.442,0.123l-0.009,0.103c-0.423-0.036-0.459,0.065-0.317,0.328l0.754,1.414
				L37.8,65.132z"/>
			<path d="M42.324,67.576l-2.399,0.406l-0.018-0.103l0.177-0.03c0.247-0.041,0.325-0.137,0.279-0.411l-0.402-2.377
				c-0.047-0.285-0.153-0.389-0.491-0.331l-0.075,0.013l-0.018-0.103l1.583-0.268l0.018,0.103l-0.198,0.033
				c-0.35,0.06-0.434,0.112-0.378,0.444l0.418,2.475c0.024,0.146,0.093,0.188,0.249,0.162l0.788-0.133
				c0.317-0.054,0.392-0.193,0.651-0.718l0.097-0.017L42.324,67.576z"/>
			<path d="M44.922,64.857l-0.869,0.363l-0.062-1.349L44.922,64.857z M45.1,65.043l0.718,0.772c0.042,0.043,0.108,0.104,0.142,0.184
				c0.06,0.141-0.033,0.215-0.32,0.334l-0.131,0.055l0.04,0.096l1.382-0.577l-0.04-0.096c-0.251,0.105-0.378,0.1-0.59-0.125
				l-2.214-2.349l-0.437,0.183l0.091,0.091l0.129,2.878c0.021,0.504-0.01,0.583-0.335,0.725l0.04,0.096l1.161-0.485l-0.04-0.095
				l-0.081,0.033c-0.276,0.115-0.429,0.119-0.484-0.016c-0.029-0.07-0.026-0.249-0.031-0.358l-0.038-0.91L45.1,65.043z"/>
			<path d="M50.987,62.933l-4.053-0.478l1.488,1.799c0.249,0.303,0.369,0.31,0.725,0.016l0.066,0.08l-0.974,0.804l-0.065-0.079
				l0.017-0.014c0.26-0.216,0.271-0.373,0.111-0.565l-1.705-2.064c-0.152,0.012-0.289,0.069-0.439,0.186l-0.066-0.079l0.659-0.545
				l3.679,0.428l-1.38-1.67c-0.212-0.257-0.325-0.24-0.668,0.029l-0.065-0.08l0.981-0.812l0.065,0.08
				c-0.314,0.26-0.336,0.37-0.201,0.533l1.935,2.342L50.987,62.933z"/>
			<path d="M50.191,58.742c0.031-0.058,0.097-0.189,0.218-0.377c0.414-0.641,0.784-0.86,1.13-0.936
				c0.444-0.095,0.881,0.051,1.22,0.27c0.471,0.304,0.687,0.742,0.742,1.018c0.1,0.467,0.021,0.779-0.374,1.392
				c-0.233,0.361-0.307,0.334-0.494,0.212L50.191,58.742z M52.306,60.646c0.265,0.172,0.26,0.331,0.101,0.577l-0.051,0.077
				l0.087,0.057l0.945-1.463c0.748-1.157,0.266-2.226-0.425-2.672c-0.754-0.487-1.713-0.349-2.492,0.858
				c-0.154,0.237-0.329,0.519-0.482,0.776c-0.154,0.258-0.289,0.487-0.39,0.662l0.087,0.057l0.06-0.092
				c0.175-0.27,0.297-0.3,0.594-0.108L52.306,60.646z"/>
			<path d="M20.802,48.78v2.332c0,0.121,0.024,0.153,0.149,0.153h0.225v0.073h-1.01v-0.073h0.217c0.129,0,0.152-0.037,0.152-0.157
				v-2.007c-0.128,0.113-0.354,0.262-0.502,0.33L20,49.375c0.234-0.157,0.567-0.458,0.662-0.595H20.802z"/>
			<path d="M23.129,50.771c0,0.313-0.23,0.555-0.533,0.555c-0.307,0-0.533-0.254-0.533-0.596c0-0.261,0.138-0.462,0.412-0.61
				C22.942,50.332,23.129,50.501,23.129,50.771z M23.305,49.359c0-0.321-0.323-0.578-0.726-0.578c-0.397,0-0.73,0.297-0.73,0.651
				c0,0.272,0.173,0.478,0.549,0.646c-0.395,0.157-0.586,0.378-0.586,0.66c0,0.366,0.344,0.659,0.78,0.659
				c0.448,0,0.795-0.322,0.795-0.74c0-0.31-0.182-0.522-0.605-0.711C23.135,49.806,23.305,49.616,23.305,49.359z M23.062,49.356
				c0,0.228-0.111,0.413-0.336,0.554c-0.521-0.221-0.64-0.382-0.64-0.604c0-0.252,0.215-0.453,0.492-0.453
				C22.858,48.854,23.062,49.066,23.062,49.356z"/>
			<path d="M53.066,49.069h0.951c0.072,0,0.097-0.017,0.117-0.053h0.076l-0.044,0.311H53.15l-0.032,0.721
				c0.125-0.067,0.269-0.099,0.434-0.099c0.45,0,0.824,0.375,0.824,0.828c0,0.487-0.406,0.857-0.944,0.857
				c-0.321,0-0.587-0.112-0.587-0.254c0-0.068,0.061-0.124,0.133-0.124c0.217,0,0.293,0.282,0.546,0.282
				c0.297,0,0.551-0.311,0.551-0.678c0-0.37-0.254-0.646-0.598-0.646c-0.149,0-0.307,0.059-0.427,0.161l-0.04-0.028L53.066,49.069z"
				/>
			<path d="M56.127,50.859c0,0.455-0.193,0.709-0.476,0.709c-0.253,0-0.546-0.222-0.546-0.899c0-0.136,0.008-0.192,0.02-0.249
				c0.245-0.198,0.427-0.242,0.531-0.242C55.926,50.178,56.127,50.428,56.127,50.859z M56.151,49.017
				c-0.841,0.237-1.348,0.828-1.348,1.572c0,0.617,0.346,1.046,0.841,1.046c0.43,0,0.784-0.369,0.784-0.812
				c0-0.411-0.318-0.741-0.712-0.741c-0.197,0-0.354,0.063-0.571,0.232c0.088-0.587,0.422-0.981,1.05-1.238L56.151,49.017z"/>
		</g>
		<path d="M67.031,37.193c0.078-0.006,0.255-0.026,0.522-0.026c0.916,0,1.38,0.229,1.681,0.531c0.387,0.388,0.523,0.925,0.523,1.411
			c0,0.675-0.301,1.181-0.543,1.416c-0.405,0.407-0.771,0.532-1.647,0.532c-0.517,0-0.536-0.092-0.536-0.361V37.193z M66.489,40.578
			c0,0.381-0.163,0.479-0.517,0.479h-0.111v0.12h2.092c1.654,0,2.416-1.184,2.416-2.174c0-1.082-0.762-1.957-2.488-1.957
			c-0.34,0-0.738,0.006-1.098,0.019c-0.358,0.016-0.68,0.028-0.922,0.042v0.119h0.131c0.386,0,0.497,0.104,0.497,0.531V40.578z"/>
		<path d="M75.145,39.699h-0.121c-0.052-0.466-0.177-0.519-0.445-0.519H73.47v1.396c0,0.302,0.111,0.361,0.354,0.361h1.01
			c0.455,0,0.592-0.178,0.756-0.737h0.118l-0.105,0.977H72.13v-0.12h0.184c0.523,0,0.615-0.146,0.615-0.541v-2.768
			c0-0.365-0.085-0.521-0.524-0.521h-0.144v-0.119h3.139l0.052,0.906h-0.118c-0.085-0.551-0.246-0.668-0.479-0.668H73.47v1.597
			h1.173c0.236,0,0.348-0.11,0.381-0.487h0.121V39.699z"/>
		<path d="M78.672,37.193c0.158-0.026,0.302-0.026,0.454-0.026c0.876,0,1.079,0.505,1.079,1.018c0,0.662-0.46,1.148-1.179,1.148
			c-0.124,0-0.27-0.033-0.354-0.053V37.193z M78.672,39.402c0.197,0.038,0.361,0.051,0.56,0.051c0.974,0,1.586-0.481,1.586-1.25
			c0-0.505-0.313-1.156-1.686-1.156c-0.177,0-0.493,0.006-0.813,0.019c-0.32,0.016-0.641,0.035-0.824,0.042v0.119h0.327
			c0.229,0,0.308,0.104,0.308,0.348v3.102c0,0.309-0.099,0.382-0.438,0.382H77.6v0.12h1.815v-0.12h-0.217
			c-0.415,0-0.526-0.139-0.526-0.507V39.402z"/>
		<path d="M84.561,39.083H83.43l0.556-1.526L84.561,39.083z M84.676,39.372l0.439,1.193c0.026,0.065,0.071,0.163,0.071,0.269
			c0,0.184-0.137,0.224-0.511,0.224h-0.169v0.12h1.799v-0.12c-0.327,0-0.464-0.065-0.596-0.414l-1.367-3.637h-0.569l0.06,0.145
			l-1.191,3.257c-0.212,0.57-0.284,0.643-0.707,0.649v0.12h1.507v-0.12h-0.104c-0.36,0-0.53-0.065-0.53-0.243
			c0-0.092,0.086-0.289,0.131-0.413l0.38-1.029H84.676z"/>
		<path d="M89.014,37.181c0.118-0.014,0.203-0.014,0.328-0.014c1.01,0,1.286,0.472,1.286,1.082c0,0.785-0.479,1.094-1.208,1.094
			c-0.15,0-0.249,0.006-0.406-0.013V37.181z M89.014,39.45c0.104,0.007,0.189,0.013,0.335,0.013c0.177,0,0.281-0.006,0.445-0.013
			c0.157,0.105,0.388,0.296,0.676,0.586l0.432,0.435c0.58,0.579,0.874,0.828,2.02,0.775v-0.117
			c-0.504-0.033-0.903-0.276-1.289-0.662l-0.517-0.519c-0.306-0.309-0.501-0.491-0.744-0.678c0.536-0.157,0.868-0.57,0.868-1.062
			c0-0.668-0.54-1.162-1.753-1.162c-0.427,0-0.558,0.006-0.825,0.019c-0.268,0.016-0.667,0.042-0.824,0.042v0.12h0.144
			c0.38,0,0.492,0.117,0.492,0.523v2.76c0,0.441-0.139,0.547-0.524,0.547h-0.111v0.12h1.853v-0.12h-0.151
			c-0.367,0-0.524-0.1-0.524-0.494V39.45z"/>
		<path d="M96.166,40.58c0,0.354,0.117,0.478,0.518,0.478h0.241v0.12h-2.06v-0.12h0.243c0.398,0,0.516-0.124,0.516-0.478v-3.233
			h-1.138c-0.262,0-0.38,0.15-0.479,0.719H93.89l0.105-1.059h0.124c0.007,0.039,0.032,0.065,0.072,0.081
			c0.039,0.014,0.085,0.021,0.131,0.021h3.146c0.092,0,0.189-0.021,0.203-0.102h0.124l0.104,1.066h-0.118
			c-0.098-0.576-0.216-0.727-0.478-0.727h-1.139V40.58z"/>
		<path d="M102.269,41.178l-1.669-3.492h-0.013l-0.177,2.952c-0.02,0.334,0.229,0.406,0.523,0.42v0.12h-1.361v-0.12
			c0.478,0,0.536-0.105,0.568-0.702l0.157-2.552c0.026-0.433,0.014-0.552-0.393-0.577v-0.118h0.989l1.577,3.306l1.57-3.306h0.963
			v0.118c-0.321,0.025-0.445,0.033-0.433,0.256l0.21,2.972c0.039,0.604,0.092,0.604,0.569,0.604v0.12h-1.683v-0.12
			c0.308,0,0.608-0.086,0.583-0.434l-0.189-2.938h-0.014l-1.63,3.492H102.269z"/>
		<path d="M109.898,39.699h-0.12c-0.053-0.466-0.177-0.519-0.445-0.519h-1.108v1.396c0,0.302,0.111,0.361,0.354,0.361h1.009
			c0.455,0,0.593-0.178,0.756-0.737h0.117l-0.104,0.977h-3.473v-0.12h0.183c0.523,0,0.615-0.146,0.615-0.541v-2.768
			c0-0.365-0.085-0.521-0.523-0.521h-0.144v-0.119h3.139l0.053,0.906h-0.118c-0.085-0.551-0.247-0.668-0.481-0.668h-1.383v1.597
			h1.174c0.235,0,0.347-0.11,0.38-0.487h0.12V39.699z"/>
		<path d="M116.566,41.228l-3.391-3.554v2.813c0,0.472,0.105,0.57,0.661,0.57v0.12h-1.515v-0.12h0.026
			c0.405,0,0.536-0.139,0.536-0.44v-3.226c-0.15-0.105-0.32-0.158-0.55-0.164v-0.12h1.024l3.085,3.216v-2.611
			c0-0.399-0.118-0.472-0.642-0.484v-0.12h1.527v0.12c-0.49,0-0.596,0.085-0.596,0.341v3.659H116.566z"/>
		<path d="M121.305,40.58c0,0.354,0.118,0.478,0.517,0.478h0.243v0.12h-2.061v-0.12h0.242c0.399,0,0.518-0.124,0.518-0.478v-3.233
			h-1.14c-0.262,0-0.379,0.15-0.478,0.719h-0.118l0.105-1.059h0.124c0.007,0.039,0.033,0.065,0.071,0.081
			c0.04,0.014,0.086,0.021,0.132,0.021h3.146c0.092,0,0.189-0.021,0.203-0.102h0.124l0.104,1.066h-0.118
			c-0.098-0.576-0.216-0.727-0.478-0.727h-1.139V40.58z"/>
		<path d="M132.238,39.244c0,0.931-0.51,1.874-1.575,1.874c-1.053,0-1.883-0.865-1.883-2.091c0-0.786,0.457-1.861,1.608-1.861
			C131.467,37.166,132.238,38.024,132.238,39.244z M132.85,39.027c0-1.18-1.056-2.02-2.291-2.02c-1.394,0-2.39,0.919-2.39,2.223
			c0,1.226,1.075,2.046,2.356,2.046C131.794,41.276,132.85,40.352,132.85,39.027z"/>
		<path d="M137.676,39.618h-0.11c-0.013-0.38-0.15-0.497-0.464-0.497h-1.21v1.433c0,0.365,0.078,0.504,0.568,0.504v0.12h-1.587
			v-0.12c0.405-0.026,0.477-0.112,0.477-0.642v-2.571c0-0.421-0.032-0.611-0.49-0.617v-0.119h2.927v0.774h-0.11
			c-0.006-0.379-0.137-0.536-0.542-0.536h-1.242v1.536h1.295c0.242,0,0.359-0.138,0.379-0.419h0.11V39.618z"/>
		<path d="M71.11,49.357h-0.219c-0.092-0.818-0.312-0.911-0.783-0.911h-1.946v2.457c0,0.53,0.196,0.635,0.622,0.635h1.773
			c0.807,0,1.05-0.312,1.338-1.303h0.208l-0.184,1.721h-6.126v-0.219h0.323c0.925,0,1.086-0.255,1.086-0.947v-4.869
			c0-0.646-0.149-0.922-0.924-0.922h-0.254V44.78h5.536l0.093,1.604h-0.208c-0.15-0.979-0.439-1.186-0.854-1.186h-2.43v2.831h2.062
			c0.414,0,0.61-0.196,0.668-0.863h0.219V49.357z"/>
		<path d="M78.018,51.956h-5.163v-0.219h0.381c0.531,0,0.729-0.173,0.729-0.762v-5.111c0-0.611-0.186-0.865-0.912-0.865H72.89v-0.22
			h3.407v0.22h-0.428c-0.751,0-0.946,0.081-0.946,0.795v5.317c0,0.312,0.126,0.427,0.461,0.427h1.698
			c0.682,0,0.89-0.266,1.617-1.266h0.207L78.018,51.956z"/>
		<path d="M84.347,49.357h-0.22c-0.093-0.818-0.311-0.911-0.783-0.911h-1.946v2.457c0,0.53,0.196,0.635,0.622,0.635h1.773
			c0.808,0,1.05-0.312,1.34-1.303h0.207l-0.185,1.721H79.03v-0.219h0.323c0.924,0,1.086-0.255,1.086-0.947v-4.869
			c0-0.646-0.15-0.922-0.924-0.922h-0.255V44.78h5.536l0.093,1.604h-0.208c-0.15-0.979-0.439-1.186-0.854-1.186h-2.431v2.831h2.062
			c0.415,0,0.61-0.196,0.668-0.863h0.22V49.357z"/>
		<path d="M93.302,46.676c-0.381-1.074-1.374-1.778-2.634-1.778c-1.929,0-3.129,1.396-3.129,3.336c0,2.09,1.501,3.625,3.256,3.625
			c0.913,0,2.033-0.312,2.818-1.708h0.22c-0.15,0.519-0.462,1.234-0.739,1.686c-0.739-0.104-1.248,0.3-2.61,0.3
			c-2.345,0-4.027-1.535-4.027-3.671c0-2.239,1.729-3.845,4.143-3.845c1.455,0,2.079,0.45,2.438,0.431
			c0.127,0,0.185-0.035,0.208-0.069h0.173l0.104,1.68L93.302,46.676z"/>
		<path d="M98.663,50.895c0,0.623,0.208,0.843,0.913,0.843h0.427v0.219h-3.639v-0.219h0.428c0.705,0,0.912-0.22,0.912-0.843v-5.696
			h-2.01c-0.462,0-0.67,0.266-0.843,1.281h-0.209l0.186-1.86h0.22c0.012,0.067,0.058,0.113,0.127,0.127
			c0.069,0.023,0.15,0.034,0.23,0.034h5.556c0.162,0,0.336-0.034,0.358-0.161h0.22l0.185,1.859h-0.208
			c-0.173-1.015-0.381-1.28-0.844-1.28h-2.009V50.895z"/>
		<path d="M104.396,44.922c0.207-0.023,0.356-0.023,0.575-0.023c1.771,0,2.254,0.831,2.254,1.904c0,1.384-0.84,1.927-2.115,1.927
			c-0.265,0-0.438,0.011-0.714-0.023V44.922z M104.396,48.926c0.184,0.012,0.334,0.022,0.587,0.022c0.311,0,0.494-0.011,0.782-0.022
			c0.275,0.185,0.678,0.519,1.184,1.025l0.76,0.761c1.026,1.026,1.547,1.458,3.568,1.365v-0.2c-0.891-0.058-1.595-0.484-2.276-1.164
			l-0.911-0.911c-0.542-0.542-0.887-0.864-1.313-1.199c0.944-0.276,1.532-1.004,1.532-1.869c0-1.177-0.957-2.055-3.084-2.055
			c-0.748,0-0.979,0.012-1.452,0.035c-0.474,0.019-1.178,0.065-1.455,0.065v0.22h0.254c0.67,0,0.867,0.208,0.867,0.924v4.858
			c0,0.771-0.243,0.956-0.925,0.956h-0.196v0.219h3.264v-0.219h-0.265c-0.644,0-0.92-0.173-0.92-0.864V48.926z"/>
		<path d="M114.681,51.956h-2.806v-0.219c0.716-0.034,0.866-0.22,0.866-0.993v-4.915c0-0.622-0.22-0.796-0.866-0.83v-0.22h2.806
			v0.22c-0.728,0-0.981,0.161-0.981,0.935v4.893c0,0.681,0.186,0.911,0.981,0.911V51.956z"/>
		<path d="M122.648,46.676c-0.381-1.074-1.374-1.778-2.633-1.778c-1.93,0-3.13,1.396-3.13,3.336c0,2.09,1.501,3.625,3.257,3.625
			c0.912,0,2.032-0.312,2.818-1.708h0.219c-0.15,0.519-0.461,1.234-0.738,1.686c-0.739-0.104-1.248,0.3-2.61,0.3
			c-2.345,0-4.028-1.535-4.028-3.671c0-2.239,1.729-3.845,4.144-3.845c1.455,0,2.079,0.45,2.437,0.431
			c0.127,0,0.186-0.035,0.208-0.069h0.174l0.104,1.68L122.648,46.676z"/>
		<path d="M128.188,48.268h-1.998l0.981-2.687L128.188,48.268z M128.39,48.769l0.773,2.103c0.047,0.115,0.128,0.288,0.128,0.474
			c0,0.323-0.243,0.393-0.901,0.393h-0.3v0.219h3.177v-0.219c-0.578,0-0.821-0.115-1.052-0.728l-2.414-6.391h-1.005l0.104,0.253
			l-2.103,5.722c-0.373,1.005-0.5,1.132-1.248,1.144v0.219h2.664v-0.219h-0.186c-0.635,0-0.935-0.115-0.935-0.428
			c0-0.161,0.149-0.508,0.23-0.728l0.67-1.813H128.39z"/>
		<path d="M136.727,51.956h-5.163v-0.219h0.382c0.53,0,0.728-0.173,0.728-0.762v-5.111c0-0.611-0.186-0.865-0.913-0.865h-0.161
			v-0.22h3.407v0.22h-0.428c-0.751,0-0.947,0.081-0.947,0.795v5.317c0,0.312,0.128,0.427,0.462,0.427h1.698
			c0.682,0,0.89-0.266,1.617-1.266h0.208L136.727,51.956z"/>
		<path d="M142.337,50.067c0-0.717,0.358-1.261,1.235-1.874c0.97,0.672,1.686,1.436,2.19,2.292
			c-0.494,0.602-1.359,1.053-2.028,1.053C142.902,51.538,142.337,50.947,142.337,50.067z M147.13,47.125v0.201
			c0.508,0,0.635,0.068,0.635,0.23c0,0.313-0.899,1.608-1.438,2.292c-0.552-0.834-1.253-1.539-2.003-2.049
			c0.842-0.416,1.302-0.928,1.302-1.456c0-0.655-0.609-1.122-1.464-1.122c-0.944,0-1.563,0.536-1.563,1.34
			c0,0.494,0.32,1.065,0.814,1.493c-1.454,0.59-2.018,1.203-2.018,2.152c0,1.076,0.815,1.908,1.866,1.908
			c0.82,0,1.777-0.52,2.629-1.434c0.632,1.168,0.826,1.434,1.54,1.434c0.439,0,0.924-0.208,1.421-0.6l-0.104-0.19
			c-0.381,0.266-0.67,0.394-0.9,0.394c-0.555,0-0.75-0.693-1.382-1.677c0.92-1.074,1.497-2.266,1.729-2.497
			c0.161-0.161,0.335-0.219,0.981-0.219v-0.201H147.13z M144.924,46.424c0,0.575-0.22,0.925-0.751,1.237
			c-0.564-0.425-0.854-0.893-0.854-1.376c0-0.505,0.289-0.826,0.762-0.826C144.589,45.459,144.924,45.838,144.924,46.424z"/>
		<path d="M73.205,57.455c-0.381-1.073-1.374-1.778-2.633-1.778c-1.929,0-3.13,1.397-3.13,3.337c0,2.09,1.501,3.625,3.257,3.625
			c0.912,0,2.032-0.312,2.818-1.709h0.22c-0.15,0.52-0.463,1.235-0.74,1.686c-0.739-0.104-1.247,0.301-2.61,0.301
			c-2.345,0-4.027-1.536-4.027-3.672c0-2.239,1.729-3.844,4.143-3.844c1.456,0,2.079,0.45,2.438,0.43
			c0.127,0,0.185-0.034,0.208-0.069h0.173l0.104,1.681L73.205,57.455z"/>
		<path d="M81.978,59.337c0,1.639-0.899,3.302-2.777,3.302c-1.855,0-3.318-1.523-3.318-3.683c0-1.385,0.807-3.279,2.834-3.279
			C80.617,55.677,81.978,57.189,81.978,59.337z M83.061,58.956c0-2.078-1.867-3.556-4.045-3.556c-2.454,0-4.217,1.616-4.217,3.914
			c0,2.157,1.9,3.602,4.159,3.602C81.193,62.916,83.061,61.288,83.061,58.956z"/>
		<path d="M88.597,62.736l-2.945-6.167h-0.024l-0.307,5.207c-0.034,0.591,0.399,0.717,0.92,0.741v0.219h-2.396v-0.219
			c0.844,0,0.947-0.186,1.006-1.238l0.276-4.502c0.046-0.764,0.023-0.973-0.693-1.019v-0.2h1.738l2.783,5.824l2.771-5.824h1.698v0.2
			c-0.566,0.046-0.786,0.059-0.762,0.452l0.369,5.241c0.069,1.065,0.162,1.065,1.005,1.065v0.219h-2.969v-0.219
			c0.543,0,1.074-0.15,1.028-0.765l-0.335-5.184h-0.023l-2.875,6.167H88.597z"/>
		<path d="M96.578,55.725c0.277-0.046,0.53-0.046,0.796-0.046c1.535,0,1.893,0.889,1.893,1.789c0,1.167-0.808,2.021-2.065,2.021
			c-0.22,0-0.474-0.058-0.623-0.093V55.725z M96.578,59.616c0.346,0.069,0.634,0.093,0.98,0.093c1.708,0,2.79-0.854,2.79-2.206
			c0-0.89-0.553-2.044-2.964-2.044c-0.311,0-0.864,0.012-1.431,0.034c-0.566,0.02-1.132,0.055-1.455,0.066v0.218h0.577
			c0.404,0,0.543,0.185,0.543,0.613v5.459c0,0.541-0.174,0.668-0.774,0.668h-0.161v0.219h3.197v-0.219h-0.38
			c-0.728,0-0.923-0.242-0.923-0.887V59.616z"/>
		<path d="M109.787,55.56v0.219c-0.773,0.012-1.051,0.323-1.051,1.062v3.112c0,1.431-0.903,2.965-3.413,2.965
			c-2.21,0-3.343-1.258-3.343-2.907v-3.366c0-0.738-0.207-0.854-0.992-0.865V55.56h2.97v0.219h-0.104
			c-0.636,0-0.914,0.174-0.914,0.843v3.204c0,1.558,0.914,2.491,2.638,2.491c1.308,0,2.639-0.542,2.639-2.502v-2.687
			c0-1.107-0.175-1.303-1.135-1.35V55.56H109.787z"/>
		<path d="M114.313,61.675c0,0.623,0.208,0.843,0.913,0.843h0.427v0.219h-3.639v-0.219h0.428c0.705,0,0.913-0.22,0.913-0.843v-5.697
			h-2.01c-0.463,0-0.671,0.266-0.844,1.282h-0.208l0.186-1.862h0.22c0.011,0.069,0.058,0.114,0.126,0.128
			c0.069,0.023,0.15,0.035,0.23,0.035h5.556c0.162,0,0.336-0.035,0.358-0.163h0.22l0.185,1.86h-0.207
			c-0.174-1.015-0.382-1.28-0.844-1.28h-2.01V61.675z"/>
		<path d="M123.096,60.138h-0.22c-0.092-0.819-0.312-0.911-0.783-0.911h-1.946v2.457c0,0.53,0.196,0.635,0.622,0.635h1.773
			c0.808,0,1.051-0.313,1.339-1.303h0.208l-0.186,1.721h-6.125v-0.219h0.324c0.924,0,1.085-0.255,1.085-0.947V56.7
			c0-0.646-0.149-0.922-0.924-0.922h-0.254v-0.218h5.536l0.093,1.603h-0.208c-0.15-0.979-0.439-1.186-0.854-1.186h-2.43v2.831h2.062
			c0.415,0,0.61-0.195,0.668-0.863h0.22V60.138z"/>
		<path d="M126.906,55.701c0.208-0.022,0.356-0.022,0.575-0.022c1.771,0,2.254,0.831,2.254,1.903c0,1.385-0.839,1.928-2.115,1.928
			c-0.265,0-0.438,0.011-0.714-0.024V55.701z M126.906,59.706c0.185,0.011,0.334,0.022,0.587,0.022c0.311,0,0.494-0.012,0.782-0.022
			c0.276,0.184,0.679,0.518,1.185,1.025l0.76,0.76c1.026,1.027,1.546,1.458,3.567,1.365v-0.2c-0.89-0.058-1.594-0.483-2.275-1.164
			l-0.912-0.91c-0.541-0.542-0.887-0.865-1.313-1.199c0.944-0.277,1.531-1.004,1.531-1.869c0-1.178-0.955-2.055-3.084-2.055
			c-0.747,0-0.978,0.012-1.451,0.034c-0.474,0.02-1.178,0.066-1.455,0.066v0.219h0.254c0.67,0,0.866,0.208,0.866,0.924v4.859
			c0,0.771-0.242,0.956-0.924,0.956h-0.196v0.219h3.264v-0.219h-0.265c-0.645,0-0.921-0.173-0.921-0.865V59.706z"/>
		<path d="M142.43,60.138h-0.22c-0.093-0.819-0.311-0.911-0.783-0.911h-1.946v2.457c0,0.53,0.195,0.635,0.622,0.635h1.773
			c0.808,0,1.051-0.313,1.339-1.303h0.208l-0.185,1.721h-6.126v-0.219h0.324c0.924,0,1.085-0.255,1.085-0.947V56.7
			c0-0.646-0.15-0.922-0.924-0.922h-0.254v-0.218h5.536l0.092,1.603h-0.208c-0.149-0.979-0.438-1.186-0.854-1.186h-2.43v2.831h2.062
			c0.415,0,0.61-0.195,0.668-0.863h0.22V60.138z"/>
		<path d="M151.776,62.816l-5.976-6.253v4.95c0,0.83,0.185,1.004,1.165,1.004v0.219h-2.679v-0.219h0.047
			c0.716,0,0.947-0.243,0.947-0.773v-5.677c-0.266-0.185-0.566-0.277-0.97-0.289V55.56h1.813l5.433,5.666v-4.594
			c0-0.703-0.207-0.83-1.131-0.854V55.56h2.702v0.219c-0.866,0-1.051,0.15-1.051,0.601v6.438H151.776z"/>
		<path d="M160.784,62.196c-1.144,0.587-2.609,0.72-3.093,0.72c-2.528,0-3.703-1.951-3.703-3.636c0-1.727,1.21-3.88,4.025-3.88
			c1.235,0,2.055,0.38,2.297,0.38c0.104,0,0.196-0.022,0.268-0.082h0.166v1.865l-0.237,0.002c-0.312-1.439-1.293-1.889-2.366-1.889
			c-2.031,0-3.07,1.681-3.07,3.534c0,2.37,1.662,3.428,2.989,3.428c0.53,0,1.119-0.116,1.766-0.442v-1.464
			c0-0.662-0.231-0.883-0.924-0.883h-0.427v-0.201h3.118v0.201c-0.578,0.035-0.809,0.232-0.809,0.732V62.196z"/>
		<path d="M165.199,62.736h-2.807v-0.219c0.716-0.035,0.866-0.22,0.866-0.993v-4.915c0-0.623-0.22-0.796-0.866-0.831V55.56h2.807
			v0.219c-0.728,0-0.982,0.162-0.982,0.936v4.891c0,0.682,0.186,0.913,0.982,0.913V62.736z"/>
		<path d="M173.56,62.816l-5.977-6.253v4.95c0,0.83,0.185,1.004,1.165,1.004v0.219h-2.678v-0.219h0.046
			c0.717,0,0.948-0.243,0.948-0.773v-5.677c-0.267-0.185-0.567-0.277-0.971-0.289V55.56h1.813l5.434,5.666v-4.594
			c0-0.703-0.208-0.83-1.131-0.854V55.56h2.701v0.219c-0.866,0-1.051,0.15-1.051,0.601v6.438H173.56z"/>
		<path d="M180.462,60.138h-0.219c-0.093-0.819-0.312-0.911-0.783-0.911h-1.946v2.457c0,0.53,0.195,0.635,0.621,0.635h1.774
			c0.808,0,1.049-0.313,1.339-1.303h0.208l-0.186,1.721h-6.125v-0.219h0.323c0.924,0,1.086-0.255,1.086-0.947V56.7
			c0-0.646-0.15-0.922-0.924-0.922h-0.254v-0.218h5.536l0.093,1.603h-0.209c-0.15-0.979-0.438-1.186-0.854-1.186h-2.43v2.831h2.062
			c0.414,0,0.61-0.195,0.668-0.863h0.219V60.138z"/>
		<path d="M187.323,60.138h-0.22c-0.092-0.819-0.312-0.911-0.783-0.911h-1.946v2.457c0,0.53,0.195,0.635,0.622,0.635h1.773
			c0.807,0,1.05-0.313,1.339-1.303h0.208l-0.186,1.721h-6.125v-0.219h0.323c0.925,0,1.086-0.255,1.086-0.947V56.7
			c0-0.646-0.15-0.922-0.924-0.922h-0.254v-0.218h5.536l0.092,1.603h-0.208c-0.15-0.979-0.438-1.186-0.854-1.186h-2.43v2.831h2.061
			c0.415,0,0.61-0.195,0.669-0.863h0.22V60.138z"/>
		<path d="M191.134,55.701c0.207-0.022,0.356-0.022,0.575-0.022c1.771,0,2.254,0.831,2.254,1.903c0,1.385-0.84,1.928-2.116,1.928
			c-0.265,0-0.437,0.011-0.713-0.024V55.701z M191.134,59.706c0.185,0.011,0.333,0.022,0.587,0.022c0.311,0,0.495-0.012,0.781-0.022
			c0.276,0.184,0.679,0.518,1.186,1.025l0.759,0.76c1.026,1.027,1.547,1.458,3.567,1.365v-0.2c-0.889-0.058-1.593-0.483-2.274-1.164
			l-0.912-0.91c-0.541-0.542-0.888-0.865-1.313-1.199c0.944-0.277,1.531-1.004,1.531-1.869c0-1.178-0.956-2.055-3.084-2.055
			c-0.747,0-0.978,0.012-1.451,0.034c-0.474,0.02-1.179,0.066-1.456,0.066v0.219h0.255c0.67,0,0.865,0.208,0.865,0.924v4.859
			c0,0.771-0.242,0.956-0.924,0.956h-0.196v0.219h3.264v-0.219h-0.264c-0.645,0-0.921-0.173-0.921-0.865V59.706z"/>
		<path d="M201.418,62.736h-2.807v-0.219c0.717-0.035,0.867-0.22,0.867-0.993v-4.915c0-0.623-0.22-0.796-0.867-0.831V55.56h2.807
			v0.219c-0.727,0-0.981,0.162-0.981,0.936v4.891c0,0.682,0.185,0.913,0.981,0.913V62.736z"/>
		<path d="M209.778,62.816l-5.976-6.253v4.95c0,0.83,0.185,1.004,1.165,1.004v0.219h-2.679v-0.219h0.047
			c0.716,0,0.947-0.243,0.947-0.773v-5.677c-0.267-0.185-0.566-0.277-0.971-0.289V55.56h1.813l5.433,5.666v-4.594
			c0-0.703-0.207-0.83-1.13-0.854V55.56h2.701v0.219c-0.866,0-1.051,0.15-1.051,0.601v6.438H209.778z"/>
		<path d="M218.785,62.196c-1.143,0.587-2.608,0.72-3.093,0.72c-2.527,0-3.702-1.951-3.702-3.636c0-1.727,1.21-3.88,4.025-3.88
			c1.234,0,2.055,0.38,2.297,0.38c0.104,0,0.196-0.022,0.267-0.082h0.166v1.865l-0.236,0.002c-0.312-1.439-1.293-1.889-2.366-1.889
			c-2.031,0-3.069,1.681-3.069,3.534c0,2.37,1.661,3.428,2.987,3.428c0.532,0,1.12-0.116,1.767-0.442v-1.464
			c0-0.662-0.231-0.883-0.924-0.883h-0.427v-0.201h3.118v0.201c-0.578,0.035-0.81,0.232-0.81,0.732V62.196z"/>
	</g>
</g>
</svg>
