<?xml version="1.0" encoding="utf-8"?>
<!-- Generator: Adobe Illustrator 17.0.0, SVG Export Plug-In . SVG Version: 6.00 Build 0)  -->
<!DOCTYPE svg PUBLIC "-//W3C//DTD SVG 1.1//EN" "http://www.w3.org/Graphics/SVG/1.1/DTD/svg11.dtd">
<svg version="1.1" xmlns="http://www.w3.org/2000/svg" xmlns:xlink="http://www.w3.org/1999/xlink" x="0px" y="0px" width="696px"
	 height="228px" viewBox="0 0 696 228" enable-background="new 0 0 696 228" xml:space="preserve">
<g id="Layer_1">
	<g>
		<path fill="#4DB748" stroke="#000000" stroke-width="2" stroke-miterlimit="10" d="M300.8,76.2v92.9h-18.5v-41h-24.6v41h-18.5
			V76.2h18.5v36.6h24.6V76.2H300.8z"/>
		<path fill="#4DB748" stroke="#000000" stroke-width="2" stroke-miterlimit="10" d="M345.2,169.1l-3-15h-17.3l-2.9,15h-13.4
			c3.1-12.8,6.2-24.5,9.3-35c3.1-10.5,6.2-20.5,9.1-30H341c3.1,9.5,6.1,19.6,9.2,30.3c3,10.7,6,22.2,8.9,34.7H345.2z M333.6,116.7
			c-0.7,2.5-1.3,4.8-1.9,7c-0.6,2.2-1.2,4.4-1.7,6.5c-0.5,2.1-1,4.3-1.5,6.5c-0.5,2.2-0.9,4.4-1.3,6.7h12.7
			c-0.4-2.3-0.8-4.5-1.3-6.7c-0.4-2.2-0.9-4.3-1.4-6.5c-0.5-2.1-1.1-4.3-1.7-6.5C335,121.5,334.3,119.2,333.6,116.7z"/>
		<path fill="#4DB748" stroke="#000000" stroke-width="2" stroke-miterlimit="10" d="M391.1,170.5c-9.2,0-16.2-2.9-21-8.8
			s-7.2-14.2-7.2-25.1c0-5.4,0.7-10.2,2.2-14.4c1.5-4.2,3.5-7.8,6.1-10.7c2.6-2.9,5.7-5.1,9.3-6.6c3.6-1.5,7.5-2.3,11.8-2.3
			c2.3,0,4.4,0.2,6.2,0.6c1.9,0.4,3.5,0.8,4.9,1.3c1.4,0.5,2.6,1,3.5,1.6c0.9,0.6,1.7,1,2.2,1.3l-3.4,10.3c-1.6-1-3.6-1.9-5.8-2.7
			c-2.3-0.7-4.9-1.1-7.8-1.1c-2,0-4,0.4-5.9,1.1c-1.9,0.7-3.6,2-5.1,3.7c-1.5,1.7-2.7,4-3.7,6.9c-0.9,2.9-1.4,6.4-1.4,10.7
			c0,7.4,1.3,13.1,3.8,17.1c2.6,4,6.7,5.9,12.5,5.9c3.4,0,6.1-0.4,8.3-1.2c2.2-0.8,4-1.5,5.3-2.3l3.3,10.2c-1.8,1.1-4.3,2.2-7.4,3.1
			C398.7,170,395.1,170.5,391.1,170.5z"/>
		<path fill="#4DB748" stroke="#000000" stroke-width="2" stroke-miterlimit="10" d="M449.2,169.1c-0.8-2.4-1.9-5.1-3.3-7.9
			c-1.4-2.8-3-5.6-4.8-8.3c-1.8-2.7-3.6-5.2-5.5-7.6c-1.9-2.3-3.8-4.3-5.5-5.9v29.7h-12.9v-65h12.9v27c1.5-2,3.1-4.1,4.8-6.5
			c1.7-2.4,3.3-4.8,4.8-7.1c1.5-2.4,2.9-4.7,4.1-7s2.3-4.4,3.2-6.3h14.6c-1,1.9-2.2,4-3.5,6.5c-1.4,2.4-2.9,4.9-4.7,7.6
			c-1.8,2.6-3.6,5.3-5.6,8c-2,2.7-4.1,5.4-6.2,7.9c2.2,2.1,4.4,4.5,6.6,7.2c2.2,2.7,4.4,5.7,6.4,8.8c2,3.1,3.8,6.3,5.4,9.6
			c1.6,3.3,2.9,6.4,3.9,9.5H449.2z"/>
		<path fill="#4DB748" stroke="#000000" stroke-width="2" stroke-miterlimit="10" d="M509.4,109.1c0.4,1.9,1,4.3,1.8,7
			c0.8,2.8,1.7,5.9,2.6,9.3c0.9,3.4,2,7,3.1,10.9c1.1,3.9,2.3,7.9,3.4,12c0-5.2-0.1-10.8-0.4-16.7c-0.3-5.9-0.5-12-0.8-18.2
			c-0.3-6.2-0.5-12.5-0.8-18.8c-0.3-6.3-0.4-12.5-0.4-18.4h18.6c-0.3,7.6-0.6,15.4-0.9,23.5c-0.3,8.1-0.7,16-1.1,24
			c-0.4,8-0.9,15.8-1.4,23.5c-0.6,7.7-1.2,15-1.9,21.9H516c-2.2-6.3-4.4-13.1-6.6-20.3c-2.2-7.2-4.4-14.2-6.6-20.8
			c-2.2,6.3-4.5,13.2-6.9,20.6c-2.4,7.4-4.6,14.2-6.6,20.5H474c-0.8-6.9-1.5-14.2-2.1-22c-0.6-7.7-1.1-15.6-1.6-23.5
			c-0.5-8-0.8-15.9-1.1-24c-0.3-8-0.6-15.8-0.8-23.3h17.1c-0.1,5.9-0.2,12-0.3,18.3c-0.1,6.3-0.2,12.6-0.3,18.8
			c-0.1,6.3-0.2,12.4-0.3,18.3c-0.1,6-0.2,11.5-0.2,16.7c0.9-3.2,1.9-6.7,3.1-10.5c1.1-3.8,2.2-7.5,3.3-11.2c1-3.7,2-7.1,2.9-10.2
			c0.9-3.1,1.6-5.6,2.1-7.4H509.4z"/>
		<path fill="#4DB748" stroke="#000000" stroke-width="2" stroke-miterlimit="10" d="M577.7,169.1l-3-15h-17.3l-2.9,15h-13.4
			c3.1-12.8,6.2-24.5,9.3-35c3.2-10.5,6.2-20.5,9.1-30h14.1c3.1,9.5,6.1,19.6,9.2,30.3c3,10.7,6,22.2,8.9,34.7H577.7z M566.1,116.7
			c-0.7,2.5-1.3,4.8-1.9,7s-1.2,4.4-1.7,6.5c-0.5,2.1-1,4.3-1.5,6.5c-0.5,2.2-0.9,4.4-1.3,6.7h12.7c-0.4-2.3-0.8-4.5-1.3-6.7
			c-0.4-2.2-0.9-4.3-1.4-6.5c-0.5-2.1-1.1-4.3-1.7-6.5C567.5,121.5,566.8,119.2,566.1,116.7z"/>
		<path fill="#4DB748" stroke="#000000" stroke-width="2" stroke-miterlimit="10" d="M615,103.4c3.7,0,7.1,0.4,10.1,1.3
			c3,0.8,5.6,2.1,7.8,3.9c2.2,1.8,3.8,4,5,6.7c1.2,2.7,1.7,5.9,1.7,9.5c0,3.8-0.8,7.2-2.3,10.3c-1.5,3.1-4.1,5.4-7.7,7
			c1.2,1.8,2.4,3.8,3.8,6c1.3,2.2,2.6,4.5,3.9,6.9c1.3,2.4,2.5,4.8,3.6,7.2s2.2,4.7,3,6.9h-13.5c-1.6-4.2-3.5-8.2-5.6-12.1
			c-2.1-3.9-4.4-7.8-6.9-11.8h-6.7v23.9h-12.9v-64c1.3-0.3,2.6-0.5,4.1-0.8c1.5-0.2,3-0.4,4.6-0.5c1.5-0.1,3-0.2,4.4-0.3
			C612.7,103.4,613.9,103.4,615,103.4z M626.4,124.6c0-3.4-1-5.9-3.2-7.6c-2.1-1.6-4.9-2.4-8.3-2.4c-0.5,0-1.1,0-1.8,0.1
			c-0.7,0-1.4,0.1-2.1,0.3v19.5h2.8c4.4,0,7.6-0.9,9.6-2.6C625.4,130.2,626.4,127.7,626.4,124.6z"/>
		<path fill="#4DB748" stroke="#000000" stroke-width="2" stroke-miterlimit="10" d="M651.6,169.1v-65H691v10.7h-26.5v14.6h23v10.7
			h-23v18.3h28.8v10.7H651.6z"/>
	</g>
</g>
<g id="Layer_2">
	<g>
		
			<rect x="161.6" y="33.3" transform="matrix(-0.6428 -0.766 0.766 -0.6428 237.6494 212.31)" fill="#4DB748" stroke="#000000" stroke-width="2" stroke-miterlimit="10" width="13.5" height="34.9"/>
	</g>
	<g>
		
			<rect x="181.5" y="57.1" transform="matrix(-0.6428 -0.766 0.766 -0.6428 252.1928 266.5864)" fill="#4DB748" stroke="#000000" stroke-width="2" stroke-miterlimit="10" width="13.5" height="34.9"/>
	</g>
	<g>
		
			<rect x="27.5" y="137.9" transform="matrix(-0.6428 -0.766 0.766 -0.6428 -62.7114 281.5105)" fill="#4DB748" stroke="#000000" stroke-width="2" stroke-miterlimit="10" width="13.5" height="34.9"/>
	</g>
	<g>
		
			<rect x="47.5" y="161.7" transform="matrix(-0.6428 -0.766 0.766 -0.6428 -48.1681 335.787)" fill="#4DB748" stroke="#000000" stroke-width="2" stroke-miterlimit="10" width="13.5" height="34.9"/>
	</g>
	<g>
		
			<rect x="183.9" y="142.3" transform="matrix(0.766 -0.6428 0.6428 0.766 -59.7974 160.529)" fill="#4DB748" stroke="#000000" stroke-width="2" stroke-miterlimit="10" width="13.5" height="40.2"/>
	</g>
	<g>
		
			<rect x="157.2" y="164.7" transform="matrix(0.766 -0.6428 0.6428 0.766 -80.4573 148.601)" fill="#4DB748" stroke="#000000" stroke-width="2" stroke-miterlimit="10" width="13.5" height="40.2"/>
	</g>
	<g>
		
			<rect x="130.4" y="187.1" transform="matrix(0.766 -0.6428 0.6428 0.766 -101.1171 136.6731)" fill="#4DB748" stroke="#000000" stroke-width="2" stroke-miterlimit="10" width="13.5" height="40.2"/>
	</g>
	<g>
		
			<rect x="71.8" y="5.6" transform="matrix(0.766 -0.6428 0.6428 0.766 1.8533 56.4965)" fill="#4DB748" stroke="#000000" stroke-width="2" stroke-miterlimit="10" width="13.5" height="40.2"/>
	</g>
	<g>
		
			<rect x="45.1" y="28" transform="matrix(0.766 -0.6428 0.6428 0.766 -18.8065 44.5686)" fill="#4DB748" stroke="#000000" stroke-width="2" stroke-miterlimit="10" width="13.5" height="40.2"/>
	</g>
	<g>
		
			<rect x="18.4" y="50.4" transform="matrix(0.766 -0.6428 0.6428 0.766 -39.4663 32.6406)" fill="#4DB748" stroke="#000000" stroke-width="2" stroke-miterlimit="10" width="13.5" height="40.2"/>
	</g>
	<g>
		<path fill="none" stroke="#000000" stroke-width="16" stroke-miterlimit="10" d="M188,115.3c3.6,4.3,4.2,9.7,1.3,12.2l-79.9,67.1
			c-2.9,2.4-8.2,0.9-11.8-3.4l-64.1-76.4c-3.6-4.3-4.2-9.7-1.3-12.2l79.9-67.1c2.9-2.4,8.2-0.9,11.8,3.4L188,115.3z"/>
	</g>
	<g id="Tools">
		<path d="M134.9,127.3L134.9,127.3c-0.3,0-0.5,0-0.7,0L111,100.4c-1.6-1.9-4.1-2.6-6.4-2l4.9-10.9c0.8-1.8,0.4-4.6-0.9-6.1
			l-7.5-8.8c-1.3-1.5-4.1-2.4-6-1.9L90,71.9c-0.8,0.2-1.4,0.6-1.6,1.1c-0.2,0.5,0,1.2,0.6,1.8l4.9,5.6c1.7,2,1.4,5-0.6,6.6l-6.2,5.1
			c-1,0.8-2.2,1.2-3.5,1.1c-1.3-0.1-2.5-0.7-3.3-1.7L75.4,86c-0.6-0.6-1.2-1-1.8-0.9c-0.6,0.1-1.1,0.5-1.4,1.3l-2.1,4.7
			c-0.8,1.8-0.4,4.6,0.9,6.1l7.6,8.8c1.3,1.5,4,2.4,6,1.9l11.9-2.8c-1,2.1-0.7,4.7,0.9,6.5l23.1,26.8c0,0.2-0.1,0.5-0.1,0.7
			c-0.6,7.2,4.8,13.6,12.2,14.2c7.4,0.6,13.9-4.7,14.5-11.9C147.7,134.3,142.2,127.9,134.9,127.3z M133.1,147.2
			c-3.9-0.3-6.7-3.7-6.4-7.4c0.2-1.8,1-3.5,2.5-4.6c1.4-1.2,3.2-1.7,5.1-1.6c3.9,0.3,6.7,3.7,6.4,7.4
			C140.4,144.7,137,147.5,133.1,147.2z"/>
	</g>
</g>
</svg>
