<?xml version="1.0" encoding="utf-8"?>
<!-- Generator: Adobe Illustrator 16.0.3, SVG Export Plug-In . SVG Version: 6.00 Build 0)  -->
<!DOCTYPE svg PUBLIC "-//W3C//DTD SVG 1.1//EN" "http://www.w3.org/Graphics/SVG/1.1/DTD/svg11.dtd">
<svg version="1.1" xmlns="http://www.w3.org/2000/svg" xmlns:xlink="http://www.w3.org/1999/xlink" x="0px" y="0px" width="166px"
	 height="100px" viewBox="0 0 166 100" enable-background="new 0 0 166 100" xml:space="preserve">
<g id="guides">
</g>
<g id="Layer_2">
	<g>
		<g>
			<defs>
				<rect id="SVGID_13_" x="26.95" y="26" width="111.813" height="47.732"/>
			</defs>
			<clipPath id="SVGID_1_">
				<use xlink:href="#SVGID_13_"  overflow="visible"/>
			</clipPath>
			<path clip-path="url(#SVGID_1_)" fill="#C44B13" d="M26.97,63.537c0,0.697,0.352,1.049,1.048,1.049h7.606
				c0.696,0,1.046-0.352,1.046-1.049V35.371h-9.7V63.537z M42.845,63.537c0,0.289,0.104,0.537,0.305,0.746
				c0.198,0.197,0.446,0.303,0.743,0.303h6.943c0.297,0,0.531-0.105,0.718-0.303c0.186-0.209,0.275-0.457,0.275-0.746V35.371h-8.984
				V63.537z M58.003,35.371v28.166c0,0.289,0.089,0.537,0.275,0.746c0.187,0.197,0.421,0.303,0.717,0.303h7.661
				c0.297,0,0.544-0.105,0.744-0.303c0.2-0.209,0.304-0.457,0.304-0.746V35.371H58.003"/>
			<path clip-path="url(#SVGID_1_)" fill="#2A394C" d="M84.409,27.047v37.535h-8.653c-0.7,0-1.046-0.346-1.046-1.047V27.047
				c0-0.695,0.346-1.047,1.046-1.047h7.607C84.059,26,84.409,26.352,84.409,27.047"/>
			<path clip-path="url(#SVGID_1_)" fill="#ECC10C" d="M116.342,27.047v37.535h-8.652c-0.701,0-1.047-0.346-1.047-1.047V27.047
				c0-0.695,0.346-1.047,1.047-1.047h7.605C115.993,26,116.342,26.352,116.342,27.047"/>
			<path clip-path="url(#SVGID_1_)" fill="#ECC10C" d="M139.051,27.047v37.535h-8.653c-0.7,0-1.046-0.346-1.046-1.047V27.047
				c0-0.695,0.346-1.047,1.046-1.047h7.606C138.7,26,139.051,26.352,139.051,27.047"/>
		</g>
		<path fill="#822912" d="M67.704,32.441v2.916H26.97v-8.309c0-0.701,0.354-1.047,1.05-1.047h33.234
			c0.883,0,1.716,0.174,2.509,0.523c0.793,0.346,1.468,0.807,2.041,1.377c0.57,0.563,1.024,1.242,1.376,2.035
			C67.532,30.723,67.704,31.561,67.704,32.441"/>
		<path fill="#385B7D" d="M100.559,56.262v7.273c0,0.295-0.094,0.543-0.276,0.744c-0.183,0.203-0.422,0.303-0.716,0.303H84.409
			v-9.367h15.157c0.294,0,0.533,0.1,0.716,0.299C100.465,55.719,100.559,55.965,100.559,56.262"/>
		<g>
			<rect x="116.342" y="40.439" fill="#FEE502" width="13.008" height="9.371"/>
			<path fill="#4D4C4E" d="M33.168,68.902c0.014,0.039,0.027,0.086,0.041,0.143c0.016,0.061,0.025,0.109,0.025,0.154v4.639
				c0,0.049-0.016,0.086-0.047,0.117C33.158,73.986,33.119,74,33.072,74h-1.182c-0.043,0-0.082-0.014-0.112-0.045
				c-0.028-0.031-0.04-0.068-0.04-0.117v-4.344h-0.951v4.344c0,0.049-0.015,0.086-0.046,0.117C30.714,73.986,30.677,74,30.634,74
				h-1.073c-0.043,0-0.084-0.014-0.117-0.045c-0.029-0.031-0.045-0.068-0.045-0.117v-4.344h-0.951v4.344
				c0,0.109-0.055,0.162-0.162,0.162h-1.171c-0.11,0-0.164-0.053-0.164-0.162v-5.625c0-0.043,0.016-0.08,0.047-0.111
				c0.03-0.035,0.069-0.053,0.117-0.053h4.966c0.044,0,0.095,0.01,0.153,0.027c0.061,0.014,0.109,0.027,0.148,0.045L33.168,68.902z
				 M39.468,68.893c0.018,0.041,0.031,0.092,0.045,0.152s0.021,0.109,0.021,0.154v4.639c0,0.049-0.015,0.086-0.046,0.111
				c-0.031,0.029-0.07,0.041-0.117,0.041H38.19c-0.044,0-0.081-0.012-0.112-0.041c-0.028-0.025-0.041-0.063-0.041-0.111v-1.529
				c0-0.041-0.016-0.078-0.046-0.105c-0.031-0.031-0.07-0.047-0.117-0.047h-1.681c-0.044,0-0.085,0.016-0.118,0.047
				c-0.031,0.027-0.047,0.064-0.047,0.105v1.529c0,0.049-0.012,0.086-0.039,0.111c-0.027,0.029-0.064,0.041-0.113,0.041h-1.18
				c-0.045,0-0.084-0.012-0.117-0.041c-0.031-0.025-0.045-0.063-0.045-0.111v-4.664c0.006-0.043,0.014-0.092,0.024-0.143
				c0.013-0.051,0.028-0.098,0.046-0.139l0.782-0.781c0.04-0.016,0.087-0.031,0.144-0.045s0.107-0.021,0.153-0.021h2.695
				c0.045,0,0.096,0.008,0.154,0.021c0.063,0.014,0.109,0.029,0.148,0.045L39.468,68.893z M38.037,69.379h-2.009v1.502h2.009V69.379
				z M44.738,68.049c0.048,0,0.087,0.018,0.117,0.053c0.031,0.031,0.047,0.068,0.047,0.111v4.641c0,0.045-0.008,0.1-0.021,0.158
				c-0.014,0.055-0.029,0.102-0.047,0.141l-0.786,0.781c-0.037,0.021-0.086,0.039-0.148,0.053C43.842,73.996,43.791,74,43.746,74
				h-2.247c-0.043,0-0.096-0.004-0.152-0.014c-0.055-0.014-0.102-0.031-0.143-0.053l-0.782-0.781
				c-0.025-0.039-0.041-0.086-0.051-0.141c-0.01-0.059-0.016-0.113-0.016-0.158v-1.666c0-0.045,0.016-0.084,0.047-0.113
				c0.031-0.031,0.066-0.047,0.111-0.047h1.175c0.044,0,0.081,0.016,0.112,0.047c0.03,0.029,0.046,0.068,0.046,0.113v1.215
				c0,0.045,0.016,0.084,0.047,0.117c0.032,0.031,0.071,0.047,0.117,0.047h1.23c0.047,0,0.088-0.016,0.117-0.047
				c0.031-0.033,0.048-0.072,0.048-0.117v-4.189c0-0.043,0.012-0.08,0.04-0.111c0.03-0.035,0.067-0.053,0.112-0.053H44.738z
				 M51.137,68.902c0.016,0.039,0.031,0.086,0.045,0.143c0.012,0.061,0.02,0.109,0.02,0.154v3.654c0,0.045-0.008,0.1-0.02,0.158
				c-0.014,0.055-0.029,0.102-0.045,0.141l-0.782,0.781c-0.041,0.021-0.093,0.039-0.154,0.053C50.142,73.996,50.09,74,50.048,74
				H47.35c-0.045,0-0.096-0.004-0.152-0.014c-0.056-0.014-0.103-0.031-0.143-0.053l-0.782-0.781
				c-0.025-0.039-0.041-0.086-0.052-0.141c-0.009-0.059-0.016-0.113-0.016-0.158v-3.654c0-0.045,0.007-0.094,0.016-0.154
				c0.011-0.057,0.026-0.104,0.052-0.143l0.782-0.781c0.04-0.018,0.087-0.031,0.143-0.045c0.057-0.018,0.107-0.027,0.152-0.027
				h2.698c0.042,0,0.094,0.01,0.152,0.027c0.062,0.014,0.113,0.027,0.154,0.045L51.137,68.902z M49.7,69.494h-1.997v3.072H49.7
				V69.494z M57.61,73.863c0.021,0.041,0.022,0.076,0.005,0.102C57.598,73.988,57.566,74,57.522,74H56.17
				c-0.045,0-0.09-0.012-0.137-0.035c-0.046-0.025-0.077-0.061-0.098-0.102l-0.955-1.615c-0.012-0.02-0.03-0.029-0.057-0.029h-0.96
				c-0.031,0-0.047,0.012-0.047,0.041v1.578c0,0.109-0.054,0.162-0.158,0.162h-1.175c-0.111,0-0.164-0.053-0.164-0.162v-5.625
				c0-0.043,0.016-0.08,0.045-0.111c0.035-0.035,0.074-0.053,0.119-0.053h3.684c0.043,0,0.094,0.01,0.152,0.027
				c0.062,0.014,0.113,0.027,0.154,0.045l0.78,0.781c0.017,0.039,0.032,0.086,0.047,0.143c0.012,0.061,0.02,0.109,0.02,0.154v1.855
				c0,0.033-0.01,0.074-0.025,0.121c-0.018,0.047-0.039,0.092-0.061,0.133l-0.782,0.797L57.61,73.863z M55.914,69.436H53.86v1.445
				h2.054V69.436z M65.59,72.555c0.043,0,0.079,0.016,0.107,0.047c0.031,0.031,0.046,0.07,0.046,0.117v1.119
				c0,0.049-0.015,0.086-0.046,0.117C65.669,73.986,65.633,74,65.59,74h-3.672c-0.111,0-0.164-0.053-0.164-0.162v-5.625
				c0-0.109,0.053-0.164,0.164-0.164h1.169c0.108,0,0.163,0.055,0.163,0.164v4.189c0,0.045,0.016,0.08,0.047,0.111
				c0.029,0.029,0.066,0.041,0.115,0.041H65.59z M68.062,69.436c-0.027,0-0.041,0.014-0.041,0.045v0.924
				c0,0.025,0.014,0.037,0.041,0.037h2.427c0.045,0,0.082,0.016,0.111,0.045c0.031,0.031,0.047,0.068,0.047,0.113v0.854
				c0,0.105-0.053,0.158-0.158,0.158h-2.427c-0.027,0-0.041,0.016-0.041,0.045v0.914c0,0.031,0.014,0.047,0.041,0.047h2.852
				c0.042,0,0.081,0.016,0.112,0.047c0.03,0.029,0.046,0.068,0.046,0.111v1.063c0,0.049-0.016,0.086-0.046,0.117
				C70.994,73.986,70.955,74,70.913,74h-3.239c-0.048,0-0.102-0.004-0.157-0.014c-0.056-0.014-0.103-0.031-0.14-0.053l-0.787-0.781
				c-0.019-0.039-0.037-0.086-0.05-0.141c-0.011-0.059-0.016-0.113-0.016-0.158v-3.654c0-0.045,0.005-0.094,0.016-0.154
				c0.013-0.057,0.031-0.104,0.05-0.143l0.787-0.781c0.037-0.018,0.084-0.031,0.14-0.045c0.056-0.018,0.109-0.027,0.157-0.027h3.239
				c0.042,0,0.081,0.018,0.112,0.053c0.03,0.031,0.046,0.068,0.046,0.111v1.07c0,0.047-0.016,0.084-0.046,0.111
				c-0.031,0.027-0.07,0.041-0.112,0.041H68.062z M77.329,68.893c0.018,0.041,0.033,0.092,0.048,0.152
				c0.012,0.061,0.02,0.109,0.02,0.154v4.639c0,0.049-0.016,0.086-0.047,0.111c-0.029,0.029-0.068,0.041-0.115,0.041h-1.182
				c-0.045,0-0.082-0.012-0.111-0.041c-0.029-0.025-0.041-0.063-0.041-0.111v-1.529c0-0.041-0.016-0.078-0.045-0.105
				c-0.031-0.031-0.072-0.047-0.119-0.047h-1.68c-0.046,0-0.085,0.016-0.117,0.047c-0.031,0.027-0.047,0.064-0.047,0.105v1.529
				c0,0.049-0.015,0.086-0.041,0.111c-0.028,0.029-0.066,0.041-0.113,0.041H72.56c-0.046,0-0.085-0.012-0.118-0.041
				c-0.031-0.025-0.047-0.063-0.047-0.111v-4.664c0.008-0.043,0.016-0.092,0.025-0.143c0.014-0.051,0.029-0.098,0.047-0.139
				l0.782-0.781c0.041-0.016,0.088-0.031,0.143-0.045c0.058-0.014,0.109-0.021,0.153-0.021h2.697c0.044,0,0.094,0.008,0.153,0.021
				c0.062,0.014,0.109,0.029,0.148,0.045L77.329,68.893z M75.9,69.379h-2.008v1.502H75.9V69.379z M83.528,70.752
				c0.044,0,0.082,0.02,0.113,0.053c0.031,0.029,0.045,0.068,0.045,0.111v1.938c0,0.045-0.006,0.1-0.021,0.158
				c-0.013,0.055-0.028,0.102-0.045,0.141l-0.782,0.781c-0.04,0.021-0.093,0.039-0.153,0.053C82.628,73.996,82.576,74,82.532,74
				h-2.696c-0.045,0-0.095-0.004-0.152-0.014c-0.057-0.014-0.104-0.031-0.145-0.053l-0.782-0.781
				c-0.023-0.039-0.041-0.086-0.05-0.141c-0.011-0.059-0.016-0.113-0.016-0.158v-3.654c0-0.045,0.005-0.094,0.016-0.154
				c0.009-0.057,0.026-0.104,0.05-0.143l0.782-0.781c0.041-0.018,0.088-0.031,0.145-0.045c0.058-0.018,0.107-0.027,0.152-0.027
				h3.361c0.043,0,0.081,0.018,0.112,0.053c0.031,0.031,0.046,0.068,0.046,0.111v1.119c0,0.049-0.015,0.086-0.046,0.117
				s-0.069,0.045-0.112,0.045h-2.851c-0.045,0-0.082,0.018-0.113,0.049c-0.029,0.027-0.045,0.063-0.045,0.104v2.756
				c0,0.045,0.016,0.084,0.045,0.117c0.031,0.031,0.068,0.047,0.113,0.047h1.686c0.043,0,0.08-0.016,0.107-0.047
				c0.031-0.033,0.045-0.072,0.045-0.117v-1.486c0-0.043,0.016-0.082,0.046-0.111c0.031-0.033,0.069-0.053,0.114-0.053H83.528z
				 M89.77,68.049c0.047,0,0.088,0.018,0.117,0.053c0.031,0.031,0.047,0.068,0.047,0.111v4.664h-0.01
				c0,0.049-0.006,0.098-0.016,0.15c-0.01,0.049-0.023,0.094-0.041,0.125l-0.786,0.781c-0.038,0.021-0.087,0.039-0.149,0.053
				C88.874,73.996,88.822,74,88.778,74h-2.696c-0.045,0-0.097-0.004-0.153-0.014c-0.055-0.014-0.102-0.031-0.144-0.053l-0.78-0.781
				c-0.024-0.039-0.044-0.086-0.056-0.141c-0.012-0.059-0.016-0.113-0.016-0.158v-4.641c0-0.043,0.016-0.08,0.045-0.111
				c0.033-0.035,0.073-0.053,0.117-0.053h1.174c0.045,0,0.084,0.018,0.115,0.053c0.029,0.031,0.045,0.068,0.045,0.111v4.189
				c0,0.045,0.016,0.084,0.045,0.117c0.033,0.031,0.074,0.047,0.119,0.047h1.68c0.047,0,0.084-0.016,0.113-0.047
				c0.025-0.033,0.04-0.072,0.04-0.117v-4.189c0-0.043,0.016-0.08,0.046-0.111c0.033-0.035,0.072-0.053,0.118-0.053H89.77z
				 M92.774,69.436c-0.028,0-0.041,0.014-0.041,0.045v0.924c0,0.025,0.013,0.037,0.041,0.037h2.425c0.045,0,0.084,0.016,0.113,0.045
				c0.031,0.031,0.047,0.068,0.047,0.113v0.854c0,0.105-0.055,0.158-0.16,0.158h-2.425c-0.028,0-0.041,0.016-0.041,0.045v0.914
				c0,0.031,0.013,0.047,0.041,0.047h2.851c0.043,0,0.082,0.016,0.111,0.047c0.031,0.029,0.047,0.068,0.047,0.111v1.063
				c0,0.049-0.016,0.086-0.047,0.117C95.707,73.986,95.668,74,95.625,74h-3.24c-0.049,0-0.1-0.004-0.158-0.014
				c-0.055-0.014-0.1-0.031-0.137-0.053l-0.787-0.781c-0.021-0.039-0.038-0.086-0.052-0.141c-0.01-0.059-0.014-0.113-0.014-0.158
				v-3.654c0-0.045,0.004-0.094,0.014-0.154c0.014-0.057,0.031-0.104,0.052-0.143l0.787-0.781c0.037-0.018,0.082-0.031,0.137-0.045
				c0.059-0.018,0.109-0.027,0.158-0.027h3.24c0.043,0,0.082,0.018,0.111,0.053c0.031,0.031,0.047,0.068,0.047,0.111v1.07
				c0,0.047-0.016,0.084-0.047,0.111c-0.029,0.027-0.068,0.041-0.111,0.041H92.774z M104.832,68.049
				c0.044,0,0.081,0.018,0.112,0.053c0.034,0.031,0.052,0.068,0.052,0.111v5.625c0,0.049-0.018,0.086-0.052,0.117
				c-0.031,0.031-0.068,0.045-0.112,0.045h-1.18c-0.048,0-0.087-0.014-0.117-0.045c-0.031-0.031-0.047-0.068-0.047-0.117v-1.961
				c0-0.045-0.015-0.08-0.046-0.107c-0.027-0.031-0.063-0.047-0.107-0.047h-1.68c-0.049,0-0.088,0.016-0.119,0.047
				c-0.029,0.027-0.045,0.063-0.045,0.107v1.961c0,0.109-0.055,0.162-0.162,0.162h-1.172c-0.109,0-0.162-0.053-0.162-0.162v-5.625
				c0-0.109,0.053-0.164,0.162-0.164h1.172c0.107,0,0.162,0.055,0.162,0.164v1.906c0,0.105,0.053,0.158,0.164,0.158h1.68
				c0.044,0,0.08-0.016,0.107-0.047c0.031-0.029,0.046-0.068,0.046-0.111v-1.906c0-0.043,0.016-0.08,0.047-0.111
				c0.03-0.035,0.069-0.053,0.117-0.053H104.832z M111.238,68.893c0.016,0.041,0.031,0.092,0.046,0.152
				c0.013,0.061,0.021,0.109,0.021,0.154v4.639c0,0.049-0.016,0.086-0.045,0.111c-0.031,0.029-0.07,0.041-0.118,0.041h-1.181
				c-0.045,0-0.081-0.012-0.112-0.041c-0.028-0.025-0.04-0.063-0.04-0.111v-1.529c0-0.041-0.016-0.078-0.047-0.105
				c-0.031-0.031-0.07-0.047-0.117-0.047h-1.68c-0.047,0-0.086,0.016-0.117,0.047c-0.031,0.027-0.047,0.064-0.047,0.105v1.529
				c0,0.049-0.016,0.086-0.041,0.111c-0.029,0.029-0.066,0.041-0.113,0.041h-1.179c-0.046,0-0.085-0.012-0.119-0.041
				c-0.03-0.025-0.046-0.063-0.046-0.111v-4.664c0.007-0.043,0.016-0.092,0.027-0.143s0.027-0.098,0.045-0.139l0.782-0.781
				c0.041-0.016,0.088-0.031,0.143-0.045c0.058-0.014,0.109-0.021,0.153-0.021h2.697c0.044,0,0.094,0.008,0.153,0.021
				c0.061,0.014,0.109,0.029,0.148,0.045L111.238,68.893z M109.809,69.379h-2.008v1.502h2.008V69.379z M114.249,69.494
				c-0.049,0-0.086,0.018-0.117,0.049c-0.029,0.027-0.045,0.063-0.045,0.104v2.756c0,0.045,0.016,0.084,0.045,0.117
				c0.031,0.031,0.068,0.047,0.117,0.047h2.728c0.044,0,0.083,0.014,0.113,0.041c0.031,0.027,0.047,0.064,0.047,0.111v1.119
				c0,0.049-0.016,0.086-0.047,0.117c-0.03,0.031-0.069,0.045-0.113,0.045h-3.238c-0.047,0-0.101-0.004-0.158-0.014
				c-0.055-0.014-0.1-0.031-0.138-0.053l-0.787-0.781c-0.02-0.039-0.037-0.086-0.051-0.141c-0.01-0.059-0.015-0.113-0.015-0.158
				v-3.654c0-0.045,0.005-0.094,0.015-0.154c0.014-0.057,0.031-0.104,0.051-0.143l0.787-0.781c0.038-0.018,0.077-0.031,0.117-0.045
				c0.044-0.018,0.078-0.027,0.102-0.027h3.315c0.044,0,0.083,0.018,0.113,0.053c0.031,0.031,0.047,0.068,0.047,0.111v1.119
				c0,0.049-0.016,0.086-0.047,0.117c-0.03,0.031-0.069,0.045-0.113,0.045H114.249z M121.854,70.559
				c-0.02,0.018-0.021,0.037-0.007,0.061l1.987,3.244c0.023,0.041,0.027,0.076,0.012,0.102c-0.02,0.023-0.051,0.035-0.098,0.035
				h-1.41c-0.045,0-0.091-0.012-0.139-0.035c-0.045-0.025-0.078-0.061-0.096-0.102l-1.289-2.32
				c-0.018-0.025-0.029-0.029-0.041-0.008l-0.703,0.773c-0.028,0.029-0.052,0.072-0.072,0.125c-0.021,0.055-0.031,0.104-0.031,0.148
				v1.256c0,0.109-0.055,0.162-0.163,0.162h-1.169c-0.111,0-0.164-0.053-0.164-0.162v-5.625c0-0.109,0.053-0.164,0.164-0.164h1.169
				c0.108,0,0.163,0.055,0.163,0.164v2.523l2.193-2.568c0.029-0.031,0.07-0.057,0.121-0.082c0.052-0.023,0.099-0.037,0.143-0.037
				h1.41c0.045,0,0.068,0.014,0.076,0.037c0.012,0.025,0.002,0.051-0.025,0.082L121.854,70.559z M126.419,73.838
				c0,0.109-0.055,0.162-0.164,0.162h-1.17c-0.109,0-0.162-0.053-0.162-0.162v-5.625c0-0.109,0.053-0.164,0.162-0.164h1.17
				c0.109,0,0.164,0.055,0.164,0.164V73.838z M132.68,68.902c0.018,0.039,0.031,0.086,0.045,0.143
				c0.018,0.061,0.027,0.109,0.027,0.154v4.639c0,0.049-0.02,0.086-0.053,0.117C132.67,73.986,132.631,74,132.588,74h-1.182
				c-0.047,0-0.086-0.014-0.115-0.045c-0.031-0.031-0.047-0.068-0.047-0.117v-4.191c0-0.041-0.016-0.076-0.047-0.104
				c-0.027-0.031-0.063-0.049-0.107-0.049h-1.68c-0.049,0-0.086,0.018-0.117,0.049c-0.031,0.027-0.047,0.063-0.047,0.104v4.191
				c0,0.109-0.055,0.162-0.164,0.162h-1.169c-0.109,0-0.165-0.053-0.165-0.162v-5.625c0-0.043,0.018-0.08,0.048-0.111
				c0.031-0.035,0.068-0.053,0.117-0.053h3.678c0.047,0,0.101,0.01,0.16,0.027c0.059,0.014,0.109,0.027,0.146,0.045L132.68,68.902z
				 M138.892,70.752c0.043,0,0.081,0.02,0.112,0.053c0.031,0.029,0.046,0.068,0.046,0.111v1.938c0,0.045-0.008,0.1-0.021,0.158
				c-0.014,0.055-0.029,0.102-0.045,0.141l-0.782,0.781c-0.041,0.021-0.092,0.039-0.152,0.053c-0.059,0.01-0.109,0.014-0.154,0.014
				h-2.697c-0.044,0-0.095-0.004-0.153-0.014c-0.055-0.014-0.102-0.031-0.142-0.053l-0.782-0.781
				c-0.023-0.039-0.041-0.086-0.052-0.141c-0.01-0.059-0.015-0.113-0.015-0.158v-3.654c0-0.045,0.005-0.094,0.015-0.154
				c0.011-0.057,0.028-0.104,0.052-0.143l0.782-0.781c0.04-0.018,0.087-0.031,0.142-0.045c0.059-0.018,0.109-0.027,0.153-0.027
				h3.362c0.044,0,0.082,0.018,0.111,0.053c0.031,0.031,0.047,0.068,0.047,0.111v1.119c0,0.049-0.016,0.086-0.047,0.117
				c-0.029,0.031-0.067,0.045-0.111,0.045h-2.851c-0.046,0-0.081,0.018-0.112,0.049c-0.031,0.027-0.046,0.063-0.046,0.104v2.756
				c0,0.045,0.015,0.084,0.046,0.117c0.031,0.031,0.066,0.047,0.112,0.047h1.686c0.042,0,0.08-0.016,0.108-0.047
				c0.029-0.033,0.045-0.072,0.045-0.117v-1.486c0-0.043,0.016-0.082,0.045-0.111c0.032-0.033,0.069-0.053,0.113-0.053H138.892z
				 M138.892,70.752"/>
		</g>
	</g>
</g>
</svg>
