<?xml version="1.0" encoding="utf-8"?>
<!-- Generator: Adobe Illustrator 16.0.3, SVG Export Plug-In . SVG Version: 6.00 Build 0)  -->
<!DOCTYPE svg PUBLIC "-//W3C//DTD SVG 1.1//EN" "http://www.w3.org/Graphics/SVG/1.1/DTD/svg11.dtd">
<svg version="1.1" xmlns="http://www.w3.org/2000/svg" xmlns:xlink="http://www.w3.org/1999/xlink" x="0px" y="0px" width="126px"
	 height="100px" viewBox="0 0 126 100" enable-background="new 0 0 126 100" xml:space="preserve">
<g id="guides">
</g>
<g id="Layer_2">
	<g>
		<path fill-rule="evenodd" clip-rule="evenodd" fill="#C80000" d="M105,92c-28,0-56,0-84,0c0-28,0-56,0-84c28,0,56,0,84,0
			C105,36,105,64,105,92z M63.018,35.717c-7.195,0-14.391-0.004-21.588,0.006c-0.47,0.001-0.947,0.076-1.411,0.172
			c-0.299,0.062-0.565,0.229-0.75,0.509c-0.32,0.488-0.373,1.039-0.375,1.586c-0.008,9.574-0.007,19.151-0.001,28.728
			c0,0.554,0.021,1.112,0.089,1.662c0.064,0.516,0.295,0.953,0.808,1.189c0.48,0.222,0.994,0.253,1.5,0.253
			c14.427,0.007,28.852,0.007,43.278,0c0.435,0,0.875-0.042,1.299-0.133c0.417-0.087,0.767-0.309,0.971-0.729
			c0.212-0.438,0.27-0.901,0.27-1.366c0.007-9.595,0.007-19.192,0.001-28.787c0-0.549-0.021-1.101-0.089-1.643
			c-0.065-0.514-0.297-0.951-0.81-1.189c-0.466-0.216-0.965-0.251-1.457-0.251C77.507,35.713,70.263,35.717,63.018,35.717z
			 M36.866,55.38c0-3.924,0-7.817,0-11.727c-0.092,0-0.167,0-0.243,0c-1.12,0-2.239-0.011-3.359,0.007
			c-0.44,0.007-0.886,0.044-1.316,0.133c-0.419,0.086-0.766,0.308-0.973,0.728c-0.21,0.431-0.265,0.889-0.271,1.344
			c-0.015,2.127-0.012,4.255-0.001,6.382c0.001,0.561,0.008,1.128,0.09,1.682c0.105,0.728,0.44,1.179,1.217,1.319
			c0.439,0.081,0.892,0.118,1.34,0.127c0.908,0.02,1.818,0.006,2.728,0.006C36.336,55.38,36.594,55.38,36.866,55.38z M89.13,55.38
			c1.165,0,2.305,0.007,3.446-0.004c0.414-0.004,0.833-0.033,1.244-0.085c0.673-0.085,1.161-0.432,1.337-1.108
			c0.087-0.33,0.137-0.68,0.139-1.021c0.012-2.168,0.011-4.339,0.001-6.508c-0.001-0.52-0.019-1.043-0.089-1.559
			c-0.069-0.513-0.298-0.95-0.813-1.187c-0.445-0.205-0.924-0.238-1.395-0.247c-1.225-0.023-2.448-0.009-3.674-0.009
			c-0.066,0-0.132,0-0.196,0C89.13,47.577,89.13,51.467,89.13,55.38z M58.748,26.945c0-1.192,0-2.357,0-3.527
			c-0.049-0.003-0.083-0.007-0.116-0.007c-1.351,0-2.701-0.003-4.051,0.001c-0.085,0.002-0.181,0.033-0.252,0.078
			c-0.203,0.133-0.182,0.366-0.186,0.558c-0.021,0.769-0.017,1.538-0.007,2.31c0.008,0.481,0.131,0.588,0.609,0.588
			c0.987,0,1.975,0,2.96,0C58.048,26.945,58.39,26.945,58.748,26.945z M67.33,26.945c0.09,0,0.158,0,0.227,0
			c1.261,0,2.521,0,3.779,0c0.479,0,0.599-0.092,0.609-0.567c0.017-0.783,0.017-1.567,0-2.351c-0.011-0.523-0.131-0.616-0.65-0.616
			c-1.244,0-2.491,0-3.736,0c-0.074,0-0.148,0-0.229,0C67.33,24.598,67.33,25.757,67.33,26.945z M69.846,27.67
			c-0.528,0-1.053,0-1.589,0c0,2.359,0,4.713,0,7.089c0.536,0,1.06,0,1.589,0C69.846,32.401,69.846,30.046,69.846,27.67z
			 M48.31,72.972c0,1.036,0,2.047,0,3.057c0.27,0,0.523,0,0.803,0c0-0.38,0-0.745,0-1.101c0.216-0.063,0.343,0.007,0.455,0.174
			c0.191,0.287,0.403,0.561,0.612,0.834c0.037,0.048,0.102,0.103,0.154,0.104c0.587,0.009,1.175,0.005,1.769,0.005
			c0.072-0.214,0.142-0.419,0.213-0.631c0.305,0,0.605,0.01,0.906-0.003c0.141-0.005,0.201,0.057,0.239,0.174
			c0.048,0.156,0.102,0.308,0.146,0.45c0.301,0,0.578,0,0.861,0c-0.004-0.033-0.001-0.055-0.008-0.072
			c-0.341-0.919-0.693-1.835-1.018-2.76c-0.076-0.217-0.192-0.248-0.383-0.234c-0.167,0.012-0.338-0.01-0.502,0.008
			c-0.068,0.008-0.162,0.069-0.186,0.13c-0.232,0.585-0.451,1.179-0.673,1.768c-0.14,0.371-0.276,0.742-0.424,1.135
			c-0.345-0.438-0.67-0.854-1.001-1.274c0.061-0.042,0.113-0.08,0.17-0.117c0.404-0.257,0.558-0.83,0.308-1.24
			c-0.174-0.285-0.458-0.383-0.751-0.397C49.445,72.951,48.887,72.972,48.31,72.972z M56.219,34.757c0.52,0,1.039,0,1.576,0
			c0-0.104,0-0.186,0-0.268c0-2.079,0-4.159,0-6.237c0-0.6,0-0.6-0.603-0.6c-0.32,0-0.639,0-0.974,0
			C56.219,30.036,56.219,32.388,56.219,34.757z M61.024,74.049c0.014-0.007,0.027-0.014,0.041-0.021
			c0.021,0.027,0.044,0.055,0.062,0.082c0.386,0.585,0.769,1.173,1.155,1.757c0.044,0.064,0.1,0.163,0.156,0.168
			c0.24,0.02,0.482,0.007,0.716,0.007c0-1.04,0-2.052,0-3.056c-0.242,0-0.469,0-0.705,0c0,0.561,0,1.104,0,1.684
			c-0.054-0.061-0.088-0.092-0.112-0.13c-0.324-0.478-0.646-0.959-0.972-1.434c-0.039-0.056-0.108-0.127-0.166-0.13
			c-0.291-0.012-0.582-0.005-0.879-0.005c0,1.033,0,2.044,0,3.06c0.239,0,0.466,0,0.704,0
			C61.024,75.361,61.024,74.705,61.024,74.049z M83.464,74.743c0.136-0.116,0.27-0.216,0.383-0.335
			c0.29-0.301,0.308-1.032-0.141-1.245c-0.188-0.092-0.396-0.174-0.598-0.185c-0.481-0.026-0.965-0.01-1.447-0.007
			c-0.061,0-0.119,0.007-0.167,0.011c0,1.033,0,2.044,0,3.052c0.268,0,0.517,0,0.79,0c0-0.379,0-0.745,0-1.1
			c0.226-0.076,0.355,0.01,0.469,0.177c0.195,0.284,0.403,0.561,0.611,0.834c0.033,0.044,0.092,0.093,0.14,0.094
			c0.312,0.009,0.623,0.005,0.978,0.005C84.124,75.587,83.795,75.166,83.464,74.743z M44.993,73.01c0,1.001,0,2.01,0,3.019
			c0.271,0,0.524,0,0.794,0c0-0.376,0-0.738,0-1.101c0.188-0.041,0.321-0.031,0.435,0.146c0.197,0.299,0.424,0.579,0.642,0.865
			c0.028,0.041,0.075,0.099,0.113,0.1c0.322,0.008,0.646,0.004,1.008,0.004c-0.362-0.462-0.693-0.883-1.027-1.31
			c0.063-0.042,0.118-0.079,0.174-0.117c0.354-0.242,0.488-0.594,0.407-0.996c-0.072-0.354-0.333-0.586-0.698-0.603
			C46.23,72.992,45.619,73.01,44.993,73.01z M68.198,76.035c0-1.032,0-2.041,0-3.05c-0.27,0-0.525,0-0.803,0c0,0.38,0,0.746,0,1.104
			c-0.413,0-0.801,0-1.206,0c0-0.376,0-0.737,0-1.106c-0.271,0-0.524,0-0.787,0c0,1.021,0,2.03,0,3.052c0.264,0,0.52,0,0.797,0
			c0-0.448,0-0.885,0-1.322c0.413,0,0.8,0,1.213,0c0,0.447,0,0.883,0,1.323C67.686,76.035,67.935,76.035,68.198,76.035z
			 M78.18,72.972c-0.324,0-0.602-0.006-0.88,0.001c-0.054,0.003-0.121,0.037-0.159,0.078c-0.103,0.11-0.191,0.233-0.287,0.352
			c-0.239,0.288-0.479,0.581-0.755,0.916c0-0.485,0-0.909,0-1.333c-0.271,0-0.527,0-0.783,0c0,1.023,0,2.034,0,3.043
			c0.27,0,0.525,0,0.769,0c0.103-0.388-0.115-0.816,0.177-1.189c0.31,0.402,0.588,0.761,0.866,1.118
			c0.027,0.034,0.068,0.081,0.102,0.082c0.318,0.006,0.636,0.003,0.992,0.003c-0.441-0.571-0.857-1.108-1.272-1.647
			C77.35,73.93,77.748,73.469,78.18,72.972z M84.626,75.126c0,0.259-0.004,0.472,0.004,0.688c0.002,0.043,0.044,0.105,0.082,0.119
			c0.72,0.246,1.438,0.342,2.136-0.058c0.366-0.209,0.561-0.681,0.358-1.153c-0.171-0.399-0.544-0.472-0.901-0.573
			c-0.203-0.059-0.418-0.082-0.616-0.153c-0.086-0.032-0.194-0.145-0.198-0.227c-0.004-0.078,0.109-0.165,0.182-0.238
			c0.03-0.031,0.088-0.035,0.133-0.048c0.396-0.104,0.742,0.029,1.079,0.217c0.079,0.045,0.158,0.087,0.271,0.148
			c0-0.247,0.008-0.451-0.006-0.65c-0.005-0.058-0.069-0.144-0.124-0.16c-0.594-0.178-1.193-0.253-1.784-0.011
			c-0.287,0.117-0.604,0.414-0.621,0.783c-0.021,0.455,0.191,0.759,0.584,0.898c0.314,0.11,0.643,0.186,0.967,0.274
			c0.145,0.038,0.273,0.103,0.257,0.272c-0.017,0.172-0.146,0.247-0.312,0.28c-0.451,0.085-0.854-0.037-1.23-0.273
			C84.813,75.217,84.734,75.183,84.626,75.126z M71.825,76.031c-0.014-0.041-0.021-0.064-0.03-0.089
			c-0.339-0.913-0.684-1.825-1.009-2.741c-0.069-0.198-0.171-0.25-0.361-0.235c-0.175,0.017-0.35,0.007-0.524,0.003
			c-0.102-0.001-0.152,0.023-0.193,0.136c-0.24,0.664-0.497,1.321-0.746,1.983c-0.116,0.311-0.223,0.623-0.341,0.95
			c0.294,0,0.559,0,0.83,0c0.071-0.208,0.14-0.413,0.212-0.625c0.133,0,0.259-0.001,0.383,0c0.225,0.006,0.496-0.066,0.656,0.037
			c0.15,0.096,0.182,0.379,0.267,0.581C71.244,76.031,71.527,76.031,71.825,76.031z M55.695,76.035c0-0.179,0-0.339,0-0.499
			c0-0.165,0-0.329,0-0.5c0.223,0,0.411-0.009,0.6,0.001c0.447,0.023,1.025-0.322,1.145-0.834c0.113-0.489-0.116-0.998-0.596-1.146
			c-0.167-0.052-0.348-0.079-0.525-0.085c-0.472-0.011-0.943-0.003-1.415-0.003c0,1.041,0,2.05,0,3.065
			C55.169,76.035,55.416,76.035,55.695,76.035z M44.307,75.439c-0.484,0-0.949,0-1.407,0c0-0.259,0-0.492,0-0.751
			c0.451,0,0.888,0,1.313,0c0-0.209,0-0.394,0-0.595c-0.448,0-0.879,0-1.315,0c0-0.179,0-0.343,0-0.533c0.475,0,0.939,0,1.403,0
			c0-0.206,0-0.391,0-0.575c-0.745,0-1.476,0-2.207,0c0,1.022,0,2.033,0,3.046c0.745,0,1.476,0,2.214,0
			C44.307,75.837,44.307,75.658,44.307,75.439z M78.593,72.979c0,1.03,0,2.041,0,3.052c0.742,0,1.474,0,2.205,0
			c0-0.198,0-0.383,0-0.591c-0.479,0-0.941,0-1.398,0c0-0.259,0-0.492,0-0.751c0.45,0,0.886,0,1.316,0c0-0.205,0-0.384,0-0.588
			c-0.444,0-0.882,0-1.32,0c0-0.188,0-0.352,0-0.54c0.475,0,0.938,0,1.401,0c0-0.209,0-0.393,0-0.582
			C80.059,72.979,79.332,72.979,78.593,72.979z M74.721,73.943c0-0.251-0.008-0.438,0.004-0.627c0.01-0.143-0.049-0.208-0.175-0.266
			c-0.377-0.171-0.78-0.202-1.177-0.157c-0.501,0.058-0.889,0.313-1.132,0.772c-0.194,0.366-0.21,0.765-0.164,1.152
			c0.062,0.523,0.306,0.963,0.818,1.175c0.595,0.246,1.188,0.169,1.764-0.088c0.03-0.014,0.058-0.065,0.059-0.103
			c0.006-0.226,0.003-0.452,0.003-0.725c-0.085,0.047-0.13,0.071-0.172,0.098c-0.146,0.091-0.282,0.199-0.437,0.273
			c-0.459,0.221-1.005-0.037-1.107-0.488c-0.049-0.226-0.056-0.471-0.044-0.704c0.03-0.649,0.74-1.011,1.349-0.58
			C74.427,73.762,74.554,73.837,74.721,73.943z M39.859,73.563c0,0.838,0,1.653,0,2.465c0.278,0,0.534,0,0.805,0
			c0-0.824,0-1.634,0-2.468c0.327,0,0.638,0,0.946,0c0-0.208,0-0.393,0-0.575c-0.913,0-1.812,0-2.706,0c0,0.199,0,0.384,0,0.578
			C39.221,73.563,39.52,73.563,39.859,73.563z M58.359,73.523c0,0.669,0,1.314,0,1.975c-0.168,0-0.318,0-0.476,0
			c0,0.188,0,0.358,0,0.533c0.604,0,1.195,0,1.79,0c0-0.184,0-0.353,0-0.55c-0.17,0-0.327,0-0.479,0c0-0.663,0-1.303,0-1.966
			c0.168,0,0.325,0,0.473,0c0-0.195,0-0.365,0-0.529c-0.605,0-1.196,0-1.778,0c0,0.188,0,0.358,0,0.537
			C58.051,73.523,58.197,73.523,58.359,73.523z"/>
		<path fill-rule="evenodd" clip-rule="evenodd" fill="#FFFFFF" d="M63.018,35.717c7.245,0,14.489-0.004,21.734,0.006
			c0.492,0,0.991,0.035,1.457,0.251c0.513,0.238,0.744,0.676,0.81,1.189c0.068,0.542,0.089,1.094,0.089,1.643
			c0.006,9.595,0.006,19.192-0.001,28.787c0,0.465-0.058,0.929-0.27,1.366c-0.204,0.421-0.554,0.643-0.971,0.729
			c-0.424,0.091-0.864,0.133-1.299,0.133c-14.427,0.007-28.852,0.007-43.278,0c-0.506,0-1.02-0.031-1.5-0.253
			c-0.513-0.236-0.743-0.674-0.808-1.189c-0.068-0.55-0.089-1.108-0.089-1.662c-0.006-9.576-0.007-19.153,0.001-28.728
			c0.002-0.547,0.055-1.098,0.375-1.586c0.185-0.279,0.451-0.447,0.75-0.509c0.464-0.096,0.941-0.171,1.411-0.172
			C48.627,35.713,55.822,35.717,63.018,35.717z M76.402,59.168c0,0.987,0,1.954,0,2.921c0,0.548-0.466,1.019-1.015,1.019
			c-8.245,0-16.489,0-24.736,0c-0.54,0-1.012-0.478-1.012-1.024c0-0.896,0-1.791,0-2.687c0-0.075,0-0.148,0-0.226
			c-0.584,0-1.14,0-1.714,0c0,0.089,0,0.164,0,0.239c0,1.429,0,2.856,0.001,4.285c0,0.712,0.454,1.169,1.162,1.169
			c9.289,0,18.577,0,27.866,0c0.694,0,1.16-0.461,1.162-1.151c0-1.442,0-2.885,0-4.326c0-0.073,0-0.147,0-0.219
			C77.529,59.168,76.979,59.168,76.402,59.168z M55.092,48.811c0.003-0.051,0.009-0.078,0.009-0.105
			c0-1.645,0.001-3.289-0.002-4.934c-0.001-0.547-0.501-1.031-1.066-1.031c-1.679-0.004-3.358-0.01-5.038,0
			c-0.619,0.004-1.07,0.516-1.068,1.091c0.001,1.589,0,3.178,0,4.767c0,0.066,0,0.135,0,0.213
			C50.323,48.811,52.701,48.811,55.092,48.811z M78.117,48.813c0-0.092,0-0.161,0-0.231c0-1.58,0-3.162,0-4.744
			c0-0.608-0.451-1.091-1.086-1.095c-1.672-0.014-3.344-0.011-5.018-0.003c-0.622,0.004-1.073,0.513-1.073,1.087
			c0.002,1.589,0.002,3.176,0.002,4.766c0,0.073,0,0.146,0,0.221C73.347,48.813,75.719,48.813,78.117,48.813z M61.332,55.355
			c1.136,0,2.257,0,3.37,0c0-1.035,0-2.054,0-3.069c-1.131,0-2.246,0-3.37,0C61.332,53.313,61.332,54.324,61.332,55.355z"/>
		<path fill-rule="evenodd" clip-rule="evenodd" fill="#FFFFFF" d="M36.866,55.38c-0.272,0-0.53,0-0.789,0
			c-0.909,0-1.819,0.014-2.728-0.006c-0.448-0.009-0.9-0.046-1.34-0.127c-0.776-0.141-1.111-0.592-1.217-1.319
			c-0.082-0.554-0.089-1.121-0.09-1.682c-0.011-2.127-0.014-4.255,0.001-6.382c0.006-0.455,0.061-0.913,0.271-1.344
			c0.207-0.42,0.554-0.642,0.973-0.728c0.431-0.089,0.876-0.126,1.316-0.133c1.12-0.018,2.239-0.007,3.359-0.007
			c0.076,0,0.151,0,0.243,0C36.866,47.563,36.866,51.456,36.866,55.38z"/>
		<path fill-rule="evenodd" clip-rule="evenodd" fill="#FFFFFF" d="M89.13,55.38c0-3.913,0-7.803,0-11.727c0.064,0,0.13,0,0.196,0
			c1.226,0,2.449-0.015,3.674,0.009c0.471,0.009,0.949,0.042,1.395,0.247c0.516,0.236,0.744,0.674,0.813,1.187
			c0.07,0.516,0.088,1.039,0.089,1.559c0.01,2.169,0.011,4.34-0.001,6.508c-0.002,0.341-0.052,0.69-0.139,1.021
			c-0.176,0.677-0.664,1.023-1.337,1.108c-0.411,0.052-0.83,0.081-1.244,0.085C91.435,55.387,90.295,55.38,89.13,55.38z"/>
		<path fill-rule="evenodd" clip-rule="evenodd" fill="#FFFFFF" d="M58.748,26.945c-0.358,0-0.7,0-1.042,0c-0.985,0-1.973,0-2.96,0
			c-0.479,0-0.602-0.106-0.609-0.588c-0.01-0.771-0.014-1.541,0.007-2.31c0.004-0.191-0.018-0.425,0.186-0.558
			c0.071-0.045,0.167-0.076,0.252-0.078c1.35-0.004,2.7-0.001,4.051-0.001c0.033,0,0.067,0.004,0.116,0.007
			C58.748,24.588,58.748,25.753,58.748,26.945z"/>
		<path fill-rule="evenodd" clip-rule="evenodd" fill="#FFFFFF" d="M67.33,26.945c0-1.188,0-2.348,0-3.534c0.08,0,0.154,0,0.229,0
			c1.245,0,2.492,0,3.736,0c0.52,0,0.64,0.093,0.65,0.616c0.017,0.783,0.017,1.567,0,2.351c-0.011,0.476-0.131,0.567-0.609,0.567
			c-1.258,0-2.519,0-3.779,0C67.488,26.945,67.42,26.945,67.33,26.945z"/>
		<path fill-rule="evenodd" clip-rule="evenodd" fill="#FFFFFF" d="M69.846,27.67c0,2.376,0,4.731,0,7.089c-0.529,0-1.053,0-1.589,0
			c0-2.376,0-4.729,0-7.089C68.793,27.67,69.317,27.67,69.846,27.67z"/>
		<path fill-rule="evenodd" clip-rule="evenodd" fill="#FFFFFF" d="M48.31,72.972c0.577,0,1.136-0.021,1.692,0.007
			c0.293,0.015,0.577,0.112,0.751,0.397c0.25,0.41,0.097,0.983-0.308,1.24c-0.057,0.037-0.109,0.075-0.17,0.117
			c0.331,0.42,0.656,0.837,1.001,1.274c0.147-0.393,0.284-0.764,0.424-1.135c0.222-0.589,0.44-1.183,0.673-1.768
			c0.023-0.061,0.117-0.122,0.186-0.13c0.164-0.018,0.335,0.004,0.502-0.008c0.19-0.014,0.307,0.018,0.383,0.234
			c0.324,0.925,0.677,1.841,1.018,2.76c0.007,0.018,0.004,0.039,0.008,0.072c-0.283,0-0.561,0-0.861,0
			c-0.045-0.143-0.099-0.294-0.146-0.45c-0.038-0.117-0.099-0.179-0.239-0.174c-0.301,0.013-0.602,0.003-0.906,0.003
			c-0.071,0.212-0.141,0.417-0.213,0.631c-0.594,0-1.182,0.004-1.769-0.005c-0.053-0.001-0.117-0.056-0.154-0.104
			c-0.209-0.273-0.421-0.547-0.612-0.834c-0.112-0.167-0.239-0.236-0.455-0.174c0,0.355,0,0.721,0,1.101c-0.279,0-0.533,0-0.803,0
			C48.31,75.019,48.31,74.008,48.31,72.972z M49.112,74.374c0.224-0.024,0.44-0.027,0.644-0.079c0.184-0.047,0.27-0.213,0.259-0.4
			c-0.013-0.181-0.099-0.313-0.304-0.33c-0.195-0.015-0.393-0.036-0.599-0.056C49.112,73.81,49.112,74.072,49.112,74.374z
			 M52.515,74.853c0.249,0,0.456,0,0.687,0c-0.113-0.328-0.224-0.643-0.349-0.996C52.732,74.21,52.626,74.527,52.515,74.853z"/>
		<path fill-rule="evenodd" clip-rule="evenodd" fill="#FFFFFF" d="M56.219,34.757c0-2.369,0-4.721,0-7.104c0.335,0,0.653,0,0.974,0
			c0.603,0,0.603,0,0.603,0.6c0,2.078,0,4.158,0,6.237c0,0.082,0,0.164,0,0.268C57.258,34.757,56.738,34.757,56.219,34.757z"/>
		<path fill-rule="evenodd" clip-rule="evenodd" fill="#FFFFFF" d="M61.024,74.049c0,0.656,0,1.313,0,1.982
			c-0.238,0-0.465,0-0.704,0c0-1.016,0-2.026,0-3.06c0.297,0,0.588-0.007,0.879,0.005c0.058,0.003,0.127,0.074,0.166,0.13
			c0.326,0.475,0.647,0.956,0.972,1.434c0.024,0.038,0.059,0.069,0.112,0.13c0-0.58,0-1.123,0-1.684c0.236,0,0.463,0,0.705,0
			c0,1.004,0,2.016,0,3.056c-0.233,0-0.476,0.013-0.716-0.007c-0.057-0.005-0.112-0.104-0.156-0.168
			c-0.387-0.584-0.77-1.172-1.155-1.757c-0.018-0.027-0.041-0.055-0.062-0.082C61.052,74.035,61.038,74.042,61.024,74.049z"/>
		<path fill-rule="evenodd" clip-rule="evenodd" fill="#FFFFFF" d="M83.464,74.743c0.331,0.423,0.66,0.844,1.018,1.301
			c-0.354,0-0.666,0.004-0.978-0.005c-0.048-0.001-0.106-0.05-0.14-0.094c-0.208-0.273-0.416-0.55-0.611-0.834
			c-0.113-0.167-0.243-0.253-0.469-0.177c0,0.354,0,0.721,0,1.1c-0.273,0-0.522,0-0.79,0c0-1.008,0-2.019,0-3.052
			c0.048-0.004,0.106-0.011,0.167-0.011c0.482-0.003,0.966-0.02,1.447,0.007c0.202,0.011,0.41,0.093,0.598,0.185
			c0.448,0.213,0.431,0.944,0.141,1.245C83.733,74.527,83.6,74.627,83.464,74.743z M82.294,73.506c0,0.307,0,0.567,0,0.867
			c0.216-0.023,0.425-0.026,0.623-0.071c0.188-0.044,0.279-0.201,0.277-0.389c-0.001-0.182-0.083-0.322-0.284-0.347
			C82.712,73.543,82.514,73.526,82.294,73.506z"/>
		<path fill-rule="evenodd" clip-rule="evenodd" fill="#FFFFFF" d="M44.993,73.01c0.626,0,1.237-0.018,1.847,0.007
			c0.365,0.017,0.626,0.249,0.698,0.603c0.081,0.402-0.053,0.754-0.407,0.996c-0.056,0.038-0.11,0.075-0.174,0.117
			c0.334,0.427,0.665,0.848,1.027,1.31c-0.362,0-0.686,0.004-1.008-0.004c-0.038-0.001-0.085-0.059-0.113-0.1
			c-0.218-0.286-0.444-0.566-0.642-0.865c-0.113-0.177-0.247-0.187-0.435-0.146c0,0.362,0,0.725,0,1.101c-0.27,0-0.523,0-0.794,0
			C44.993,75.02,44.993,74.011,44.993,73.01z M45.794,74.374c0.225-0.024,0.44-0.027,0.643-0.078
			c0.186-0.048,0.271-0.214,0.26-0.401c-0.011-0.181-0.099-0.313-0.304-0.33c-0.195-0.015-0.391-0.036-0.599-0.056
			C45.794,73.81,45.794,74.072,45.794,74.374z"/>
		<path fill-rule="evenodd" clip-rule="evenodd" fill="#FFFFFF" d="M68.198,76.035c-0.264,0-0.513,0-0.786,0c0-0.44,0-0.876,0-1.323
			c-0.413,0-0.8,0-1.213,0c0,0.438,0,0.874,0,1.322c-0.277,0-0.533,0-0.797,0c0-1.021,0-2.03,0-3.052c0.263,0,0.517,0,0.787,0
			c0,0.369,0,0.73,0,1.106c0.405,0,0.793,0,1.206,0c0-0.357,0-0.724,0-1.104c0.277,0,0.533,0,0.803,0
			C68.198,73.994,68.198,75.003,68.198,76.035z"/>
		<path fill-rule="evenodd" clip-rule="evenodd" fill="#FFFFFF" d="M78.18,72.972c-0.432,0.497-0.83,0.958-1.231,1.423
			c0.415,0.539,0.831,1.076,1.272,1.647c-0.356,0-0.674,0.003-0.992-0.003c-0.033-0.001-0.074-0.048-0.102-0.082
			c-0.278-0.357-0.557-0.716-0.866-1.118c-0.292,0.373-0.074,0.802-0.177,1.189c-0.243,0-0.499,0-0.769,0c0-1.009,0-2.02,0-3.043
			c0.256,0,0.512,0,0.783,0c0,0.424,0,0.848,0,1.333c0.276-0.335,0.516-0.628,0.755-0.916c0.096-0.118,0.185-0.241,0.287-0.352
			c0.038-0.041,0.105-0.075,0.159-0.078C77.578,72.966,77.855,72.972,78.18,72.972z"/>
		<path fill-rule="evenodd" clip-rule="evenodd" fill="#FFFFFF" d="M84.626,75.126c0.108,0.057,0.187,0.091,0.259,0.136
			c0.377,0.236,0.779,0.358,1.23,0.273c0.165-0.033,0.295-0.108,0.312-0.28c0.017-0.17-0.112-0.234-0.257-0.272
			c-0.324-0.089-0.652-0.164-0.967-0.274c-0.393-0.14-0.605-0.443-0.584-0.898c0.018-0.369,0.334-0.666,0.621-0.783
			c0.591-0.242,1.19-0.167,1.784,0.011c0.055,0.017,0.119,0.103,0.124,0.16c0.014,0.199,0.006,0.403,0.006,0.65
			c-0.112-0.062-0.191-0.104-0.271-0.148c-0.337-0.188-0.684-0.32-1.079-0.217c-0.045,0.013-0.103,0.017-0.133,0.048
			c-0.072,0.073-0.186,0.16-0.182,0.238c0.004,0.082,0.112,0.194,0.198,0.227c0.198,0.071,0.413,0.095,0.616,0.153
			c0.357,0.102,0.73,0.174,0.901,0.573c0.202,0.473,0.008,0.944-0.358,1.153c-0.697,0.399-1.416,0.304-2.136,0.058
			c-0.038-0.014-0.08-0.076-0.082-0.119C84.622,75.598,84.626,75.385,84.626,75.126z"/>
		<path fill-rule="evenodd" clip-rule="evenodd" fill="#FFFFFF" d="M71.825,76.031c-0.298,0-0.581,0-0.857,0
			c-0.085-0.202-0.116-0.485-0.267-0.581c-0.16-0.104-0.432-0.031-0.656-0.037c-0.124-0.001-0.25,0-0.383,0
			c-0.072,0.212-0.141,0.417-0.212,0.625c-0.271,0-0.536,0-0.83,0c0.118-0.327,0.225-0.64,0.341-0.95
			c0.249-0.662,0.506-1.319,0.746-1.983c0.041-0.112,0.092-0.137,0.193-0.136c0.175,0.004,0.35,0.014,0.524-0.003
			c0.19-0.015,0.292,0.037,0.361,0.235c0.325,0.916,0.67,1.828,1.009,2.741C71.804,75.967,71.812,75.99,71.825,76.031z
			 M70.199,73.854c-0.12,0.355-0.227,0.673-0.337,1.001c0.243,0,0.453,0,0.686,0C70.434,74.527,70.324,74.213,70.199,73.854z"/>
		<path fill-rule="evenodd" clip-rule="evenodd" fill="#FFFFFF" d="M55.695,76.035c-0.279,0-0.526,0-0.792,0
			c0-1.016,0-2.024,0-3.065c0.472,0,0.943-0.008,1.415,0.003c0.178,0.006,0.358,0.033,0.525,0.085
			c0.479,0.147,0.709,0.656,0.596,1.146c-0.119,0.512-0.697,0.857-1.145,0.834c-0.188-0.01-0.377-0.001-0.6-0.001
			c0,0.171,0,0.335,0,0.5C55.695,75.696,55.695,75.856,55.695,76.035z M55.695,73.546c0,0.183,0,0.321,0,0.459
			c0,0.144,0,0.286,0,0.454c0.215-0.023,0.393-0.038,0.568-0.062c0.201-0.027,0.328-0.178,0.348-0.399
			c0.014-0.168-0.123-0.353-0.311-0.387C56.113,73.58,55.921,73.57,55.695,73.546z"/>
		<path fill-rule="evenodd" clip-rule="evenodd" fill="#FFFFFF" d="M44.307,75.439c0,0.219,0,0.397,0,0.592
			c-0.738,0-1.469,0-2.214,0c0-1.013,0-2.023,0-3.046c0.731,0,1.462,0,2.207,0c0,0.185,0,0.369,0,0.575c-0.464,0-0.929,0-1.403,0
			c0,0.19,0,0.354,0,0.533c0.437,0,0.867,0,1.315,0c0,0.201,0,0.386,0,0.595c-0.425,0-0.861,0-1.313,0c0,0.259,0,0.492,0,0.751
			C43.357,75.439,43.822,75.439,44.307,75.439z"/>
		<path fill-rule="evenodd" clip-rule="evenodd" fill="#FFFFFF" d="M78.593,72.979c0.739,0,1.466,0,2.204,0c0,0.189,0,0.373,0,0.582
			c-0.464,0-0.927,0-1.401,0c0,0.188,0,0.353,0,0.54c0.438,0,0.876,0,1.32,0c0,0.204,0,0.383,0,0.588c-0.431,0-0.866,0-1.316,0
			c0,0.259,0,0.492,0,0.751c0.457,0,0.92,0,1.398,0c0,0.208,0,0.393,0,0.591c-0.731,0-1.463,0-2.205,0
			C78.593,75.02,78.593,74.009,78.593,72.979z"/>
		<path fill-rule="evenodd" clip-rule="evenodd" fill="#FFFFFF" d="M74.721,73.943c-0.167-0.106-0.294-0.182-0.411-0.267
			c-0.608-0.431-1.318-0.069-1.349,0.58c-0.012,0.233-0.005,0.479,0.044,0.704c0.103,0.451,0.648,0.709,1.107,0.488
			c0.154-0.074,0.291-0.183,0.437-0.273c0.042-0.026,0.087-0.051,0.172-0.098c0,0.272,0.003,0.499-0.003,0.725
			c-0.001,0.037-0.028,0.089-0.059,0.103c-0.575,0.257-1.169,0.334-1.764,0.088c-0.513-0.212-0.757-0.651-0.818-1.175
			c-0.046-0.388-0.03-0.786,0.164-1.152c0.243-0.459,0.631-0.715,1.132-0.772c0.396-0.045,0.8-0.014,1.177,0.157
			c0.126,0.058,0.185,0.123,0.175,0.266C74.713,73.505,74.721,73.692,74.721,73.943z"/>
		<path fill-rule="evenodd" clip-rule="evenodd" fill="#FFFFFF" d="M39.859,73.563c-0.34,0-0.639,0-0.955,0c0-0.194,0-0.379,0-0.578
			c0.895,0,1.793,0,2.706,0c0,0.183,0,0.367,0,0.575c-0.309,0-0.619,0-0.946,0c0,0.834,0,1.644,0,2.468c-0.271,0-0.526,0-0.805,0
			C39.859,75.217,39.859,74.401,39.859,73.563z"/>
		<path fill-rule="evenodd" clip-rule="evenodd" fill="#FFFFFF" d="M58.359,73.523c-0.162,0-0.309,0-0.47,0c0-0.179,0-0.35,0-0.537
			c0.582,0,1.173,0,1.778,0c0,0.164,0,0.334,0,0.529c-0.147,0-0.305,0-0.473,0c0,0.663,0,1.303,0,1.966c0.151,0,0.309,0,0.479,0
			c0,0.197,0,0.366,0,0.55c-0.595,0-1.186,0-1.79,0c0-0.175,0-0.346,0-0.533c0.157,0,0.308,0,0.476,0
			C58.359,74.838,58.359,74.192,58.359,73.523z"/>
		<path fill-rule="evenodd" clip-rule="evenodd" fill="#C80000" d="M76.402,59.168c0.576,0,1.127,0,1.715,0c0,0.071,0,0.146,0,0.219
			c0,1.441,0,2.884,0,4.326c-0.002,0.69-0.468,1.151-1.162,1.151c-9.289,0-18.577,0-27.866,0c-0.708,0-1.162-0.457-1.162-1.169
			c-0.001-1.429-0.001-2.856-0.001-4.285c0-0.075,0-0.15,0-0.239c0.574,0,1.13,0,1.714,0c0,0.077,0,0.15,0,0.226
			c0,0.896,0,1.791,0,2.687c0,0.547,0.472,1.024,1.012,1.024c8.247,0,16.491,0,24.736,0c0.549,0,1.015-0.471,1.015-1.019
			C76.402,61.122,76.402,60.155,76.402,59.168z"/>
		<path fill-rule="evenodd" clip-rule="evenodd" fill="#C80000" d="M55.092,48.811c-2.391,0-4.769,0-7.166,0
			c0-0.078,0-0.146,0-0.213c0-1.589,0.001-3.178,0-4.767c-0.002-0.575,0.449-1.087,1.068-1.091c1.68-0.01,3.359-0.004,5.038,0
			c0.565,0,1.065,0.484,1.066,1.031c0.003,1.645,0.002,3.289,0.002,4.934C55.101,48.732,55.095,48.76,55.092,48.811z"/>
		<path fill-rule="evenodd" clip-rule="evenodd" fill="#C80000" d="M78.117,48.813c-2.398,0-4.771,0-7.175,0
			c0-0.074,0-0.147,0-0.221c0-1.59,0-3.177-0.002-4.766c0-0.574,0.451-1.083,1.073-1.087c1.674-0.008,3.346-0.011,5.018,0.003
			c0.635,0.004,1.086,0.486,1.086,1.095c0,1.582,0,3.164,0,4.744C78.117,48.652,78.117,48.722,78.117,48.813z"/>
		<path fill-rule="evenodd" clip-rule="evenodd" fill="#C80000" d="M61.332,55.355c0-1.031,0-2.043,0-3.069c1.124,0,2.239,0,3.37,0
			c0,1.016,0,2.034,0,3.069C63.589,55.355,62.468,55.355,61.332,55.355z"/>
		<path fill-rule="evenodd" clip-rule="evenodd" fill="#C80000" d="M49.112,74.374c0-0.302,0-0.564,0-0.865
			c0.206,0.02,0.403,0.041,0.599,0.056c0.205,0.017,0.291,0.149,0.304,0.33c0.011,0.188-0.075,0.354-0.259,0.4
			C49.553,74.347,49.336,74.35,49.112,74.374z"/>
		<path fill-rule="evenodd" clip-rule="evenodd" fill="#C80000" d="M52.515,74.853c0.111-0.325,0.218-0.643,0.338-0.996
			c0.125,0.354,0.235,0.668,0.349,0.996C52.971,74.853,52.764,74.853,52.515,74.853z"/>
		<path fill-rule="evenodd" clip-rule="evenodd" fill="#C80000" d="M82.294,73.506c0.22,0.021,0.418,0.037,0.616,0.061
			c0.201,0.024,0.283,0.165,0.284,0.347c0.002,0.188-0.09,0.345-0.277,0.389c-0.198,0.045-0.407,0.048-0.623,0.071
			C82.294,74.073,82.294,73.813,82.294,73.506z"/>
		<path fill-rule="evenodd" clip-rule="evenodd" fill="#C80000" d="M45.794,74.374c0-0.302,0-0.564,0-0.865
			c0.208,0.02,0.403,0.041,0.599,0.056c0.205,0.017,0.293,0.149,0.304,0.33c0.011,0.188-0.074,0.354-0.26,0.401
			C46.234,74.347,46.019,74.35,45.794,74.374z"/>
		<path fill-rule="evenodd" clip-rule="evenodd" fill="#C80000" d="M70.199,73.854c0.125,0.358,0.234,0.673,0.349,1.001
			c-0.232,0-0.442,0-0.686,0C69.973,74.527,70.079,74.21,70.199,73.854z"/>
		<path fill-rule="evenodd" clip-rule="evenodd" fill="#C80000" d="M55.695,73.546c0.226,0.024,0.418,0.034,0.605,0.065
			c0.188,0.034,0.324,0.219,0.311,0.387c-0.02,0.222-0.146,0.372-0.348,0.399c-0.176,0.023-0.354,0.038-0.568,0.062
			c0-0.168,0-0.311,0-0.454C55.695,73.867,55.695,73.729,55.695,73.546z"/>
	</g>
</g>
</svg>
