<?xml version="1.0" encoding="iso-8859-1"?>
<!-- Generator: Adobe Illustrator 18.1.1, SVG Export Plug-In . SVG Version: 6.00 Build 0)  -->
<!DOCTYPE svg PUBLIC "-//W3C//DTD SVG 1.1//EN" "http://www.w3.org/Graphics/SVG/1.1/DTD/svg11.dtd">
<svg version="1.1" xmlns="http://www.w3.org/2000/svg" xmlns:xlink="http://www.w3.org/1999/xlink" x="0px" y="0px"
	 viewBox="0 0 389.188 40" style="enable-background:new 0 0 389.188 40;" xml:space="preserve">
<g id="Layer_1_1_">
	<g id="ibmdesign">
		<g>
			<g>
				<g>
					<path style="fill:#1A2E33;" d="M178.536,0v31.419h-4.18V0H178.536z"/>
				</g>
			</g>
			<g>
				<g>
					<path style="fill:#1A2E33;" d="M193.277,0c0.675,0,1.4,0.007,2.179,0.021c0.777,0.014,1.547,0.059,2.309,0.132
						c0.763,0.073,1.475,0.184,2.134,0.329c0.661,0.147,1.225,0.367,1.694,0.661c1.026,0.616,1.899,1.468,2.619,2.553
						c0.718,1.087,1.078,2.42,1.078,4.005c0,1.672-0.405,3.117-1.21,4.334c-0.807,1.217-1.959,2.12-3.453,2.707v0.088
						c1.937,0.412,3.418,1.291,4.445,2.641c1.026,1.35,1.54,2.992,1.54,4.929c0,1.144-0.206,2.259-0.616,3.344
						c-0.412,1.085-1.019,2.046-1.826,2.882c-0.807,0.836-1.805,1.511-2.993,2.025c-1.189,0.514-2.56,0.77-4.114,0.77H181.88V0
						H193.277z M194.421,13.509c2.376,0,4.085-0.419,5.127-1.255c1.04-0.836,1.561-2.091,1.561-3.763
						c0-1.115-0.175-1.994-0.528-2.641c-0.353-0.644-0.836-1.144-1.452-1.497c-0.616-0.353-1.327-0.578-2.134-0.682
						c-0.807-0.102-1.665-0.154-2.574-0.154h-8.361v9.99h8.361V13.509z M196.534,27.9c1.848,0,3.292-0.498,4.334-1.497
						c1.04-0.997,1.561-2.376,1.561-4.137c0-1.026-0.192-1.876-0.573-2.553c-0.381-0.675-0.888-1.21-1.518-1.606
						c-0.632-0.396-1.357-0.675-2.179-0.836c-0.822-0.161-1.672-0.242-2.553-0.242h-9.546v10.869h10.473V27.9z"/>
				</g>
			</g>
			<g>
				<g>
					<path style="fill:#1A2E33;" d="M214.138,0l9.902,26.403L233.983,0h5.722v31.419h-3.96V5.281h-0.09l-9.812,26.138h-3.564
						l-9.814-26.138h-0.088v26.138h-3.96V0H214.138z"/>
				</g>
			</g>
			<g>
				<g>
					<path style="fill:#1A2E33;" d="M266.503,0c2.025,0,3.91,0.322,5.655,0.969s3.257,1.613,4.533,2.904
						c1.276,1.291,2.274,2.904,2.992,4.841c0.718,1.937,1.078,4.211,1.078,6.821c0,2.288-0.294,4.4-0.881,6.338
						c-0.587,1.937-1.473,3.609-2.662,5.016c-1.189,1.409-2.669,2.515-4.445,3.323c-1.776,0.807-3.865,1.21-6.271,1.21h-13.552V0
						H266.503z M266.018,25.612c0.997,0,1.966-0.161,2.904-0.483c0.938-0.322,1.774-0.858,2.508-1.606
						c0.732-0.748,1.319-1.724,1.76-2.927c0.44-1.203,0.661-2.669,0.661-4.4c0-1.584-0.154-3.015-0.462-4.291
						c-0.308-1.276-0.815-2.369-1.518-3.278c-0.704-0.909-1.636-1.606-2.795-2.091c-1.16-0.483-2.589-0.727-4.291-0.727h-4.929
						V25.61h6.162V25.612z"/>
				</g>
			</g>
			<g>
				<g>
					<path style="fill:#1A2E33;" d="M290.75,25.962c0.938,0.909,2.288,1.364,4.048,1.364c1.26,0,2.347-0.315,3.257-0.945
						c0.909-0.63,1.466-1.298,1.672-2.002h5.501c-0.881,2.728-2.231,4.68-4.048,5.852c-1.819,1.174-4.019,1.76-6.601,1.76
						c-1.79,0-3.403-0.286-4.841-0.858c-1.438-0.573-2.655-1.386-3.652-2.442c-0.997-1.056-1.767-2.317-2.309-3.785
						c-0.544-1.466-0.815-3.081-0.815-4.841c0-1.701,0.277-3.285,0.836-4.753c0.557-1.466,1.348-2.736,2.376-3.806
						c1.026-1.071,2.252-1.914,3.675-2.53c1.423-0.616,2.999-0.924,4.73-0.924c1.937,0,3.624,0.374,5.061,1.122
						c1.438,0.748,2.619,1.753,3.543,3.015c0.924,1.262,1.592,2.7,2.002,4.313s0.557,3.301,0.44,5.061h-16.415
						C289.298,23.587,289.81,25.055,290.75,25.962z M297.813,13.993c-0.748-0.82-1.885-1.232-3.41-1.232
						c-0.997,0-1.826,0.17-2.487,0.507c-0.661,0.338-1.189,0.755-1.584,1.255s-0.675,1.028-0.836,1.584
						c-0.161,0.557-0.256,1.056-0.286,1.497h10.165C299.081,16.018,298.561,14.814,297.813,13.993z"/>
				</g>
			</g>
			<g>
				<g>
					<path style="fill:#1A2E33;" d="M313.741,25.766c0.277,0.483,0.637,0.881,1.078,1.189c0.44,0.308,0.945,0.535,1.518,0.682
						c0.573,0.147,1.165,0.22,1.783,0.22c0.44,0,0.902-0.05,1.386-0.154c0.483-0.102,0.924-0.263,1.319-0.483
						c0.396-0.22,0.725-0.512,0.99-0.881c0.263-0.367,0.396-0.829,0.396-1.386c0-0.938-0.625-1.642-1.871-2.113
						c-1.248-0.469-2.986-0.938-5.215-1.409c-0.909-0.204-1.797-0.448-2.662-0.727c-0.866-0.277-1.636-0.644-2.309-1.101
						c-0.675-0.455-1.217-1.026-1.629-1.717c-0.412-0.689-0.616-1.532-0.616-2.53c0-1.466,0.286-2.669,0.858-3.609
						c0.573-0.938,1.327-1.679,2.266-2.222c0.938-0.542,1.994-0.924,3.169-1.144c1.173-0.22,2.376-0.329,3.609-0.329
						c1.232,0,2.428,0.118,3.586,0.353s2.193,0.63,3.103,1.189c0.909,0.559,1.665,1.298,2.266,2.222s0.961,2.091,1.078,3.498h-5.94
						c-0.088-1.203-0.542-2.016-1.364-2.442c-0.822-0.424-1.79-0.637-2.904-0.637c-0.353,0-0.734,0.021-1.144,0.066
						c-0.412,0.045-0.786,0.14-1.122,0.286c-0.338,0.147-0.623,0.36-0.858,0.637c-0.234,0.279-0.353,0.653-0.353,1.122
						c0,0.559,0.204,1.012,0.616,1.364c0.41,0.353,0.945,0.637,1.606,0.858s1.416,0.419,2.266,0.594s1.717,0.367,2.596,0.573
						c0.909,0.206,1.797,0.455,2.662,0.748c0.865,0.294,1.635,0.682,2.309,1.165s1.217,1.087,1.629,1.805
						c0.41,0.72,0.616,1.606,0.616,2.662c0,1.497-0.301,2.75-0.902,3.763c-0.602,1.012-1.386,1.826-2.354,2.442
						s-2.075,1.049-3.323,1.298c-1.248,0.249-2.515,0.374-3.806,0.374c-1.319,0-2.612-0.132-3.872-0.396
						c-1.262-0.263-2.383-0.704-3.366-1.319c-0.983-0.616-1.79-1.43-2.42-2.442c-0.632-1.012-0.976-2.281-1.033-3.806h5.94
						C313.324,24.702,313.462,25.28,313.741,25.766z"/>
				</g>
			</g>
			<g>
				<g>
					<path style="fill:#1A2E33;" d="M331.454,5.149V0h6.25v5.149H331.454z M337.702,8.668v22.751h-6.25V8.668H337.702z"/>
				</g>
			</g>
			<g>
				<g>
					<path style="fill:#1A2E33;" d="M363.292,33.091c-0.249,1.173-0.786,2.266-1.606,3.278c-0.822,1.012-2.01,1.871-3.564,2.574
						c-1.556,0.704-3.638,1.056-6.248,1.056c-1.115,0-2.252-0.14-3.41-0.419c-1.16-0.279-2.216-0.711-3.169-1.298
						c-0.954-0.587-1.746-1.343-2.376-2.266c-0.632-0.924-0.99-2.032-1.078-3.323h6.205c0.294,1.173,0.865,1.987,1.717,2.442
						c0.85,0.455,1.833,0.682,2.949,0.682c1.76,0,3.043-0.528,3.851-1.584c0.806-1.056,1.196-2.392,1.167-4.005v-2.992h-0.088
						c-0.675,1.203-1.636,2.091-2.882,2.662c-1.248,0.573-2.56,0.858-3.939,0.858c-1.703,0-3.169-0.301-4.4-0.902
						c-1.232-0.602-2.245-1.423-3.036-2.465c-0.791-1.042-1.371-2.259-1.738-3.652s-0.55-2.866-0.55-4.422
						c0-1.466,0.213-2.882,0.637-4.247c0.424-1.364,1.049-2.567,1.871-3.609c0.822-1.04,1.84-1.871,3.058-2.487
						s2.619-0.924,4.204-0.924c1.497,0,2.809,0.279,3.939,0.836c1.13,0.559,2.075,1.497,2.838,2.816h0.088V8.668h5.94v21.299
						C363.666,30.877,363.541,31.919,363.292,33.091z M354.733,25.524c0.675-0.353,1.232-0.822,1.672-1.409
						c0.44-0.587,0.77-1.255,0.99-2.002c0.22-0.748,0.331-1.532,0.331-2.354c0-0.938-0.088-1.826-0.263-2.662
						c-0.175-0.836-0.469-1.577-0.881-2.222c-0.412-0.644-0.954-1.158-1.629-1.54s-1.525-0.573-2.553-0.573
						c-0.881,0-1.636,0.175-2.266,0.528c-0.63,0.351-1.158,0.827-1.584,1.429c-0.426,0.602-0.734,1.291-0.924,2.068
						c-0.192,0.777-0.286,1.592-0.286,2.442c0,0.822,0.081,1.636,0.242,2.442c0.161,0.807,0.44,1.534,0.836,2.179
						c0.396,0.646,0.917,1.174,1.561,1.584c0.644,0.412,1.452,0.616,2.42,0.616C353.281,26.052,354.058,25.875,354.733,25.524z"/>
				</g>
			</g>
			<g>
				<g>
					<path style="fill:#1A2E33;" d="M373.787,8.668v3.169h0.132c0.791-1.319,1.819-2.281,3.081-2.882
						c1.26-0.602,2.553-0.902,3.872-0.902c1.672,0,3.043,0.227,4.114,0.682s1.914,1.087,2.53,1.892
						c0.616,0.807,1.049,1.79,1.298,2.949c0.249,1.16,0.374,2.442,0.374,3.851v13.995h-6.248V18.572
						c0-1.878-0.294-3.278-0.881-4.202c-0.587-0.924-1.629-1.386-3.124-1.386c-1.703,0-2.934,0.507-3.697,1.518
						s-1.144,2.678-1.144,4.995v11.925h-6.248V8.668H373.787z"/>
				</g>
			</g>
		</g>
	</g>
	<g>
		<path style="fill:#1A2E33;" d="M9.47,14.859c1.718,0,3.065,0.637,4.04,1.912c1.004,1.323,1.506,3.186,1.506,5.59
			c0,2.211-0.56,4.021-1.68,5.43c-1.158,1.468-2.635,2.201-4.431,2.201c-1.796,0-3.21-0.574-4.243-1.723v4.373
			c0.029,0.01,0.292,0.062,0.79,0.159c0.497,0.097,0.784,0.154,0.861,0.174c0.29,0.058,0.435,0.236,0.435,0.536v1.245H0v-1.245
			c0-0.3,0.145-0.479,0.435-0.536l1.651-0.333V17.234c-0.927-0.184-1.477-0.294-1.651-0.333C0.145,16.843,0,16.665,0,16.365V15.12
			h2.085H3.62c0.367,0,0.599,0.179,0.695,0.536l0.217,1.737C5.922,15.704,7.568,14.859,9.47,14.859z M8.051,27.993
			c1.4,0,2.466-0.487,3.2-1.463c0.734-0.975,1.101-2.365,1.101-4.17c0-3.611-1.246-5.416-3.736-5.416
			c-1.516,0-2.833,0.738-3.953,2.215v7.096C5.522,27.414,6.651,27.993,8.051,27.993z"/>
		<path style="fill:#1A2E33;" d="M26.976,15.424c0.864,0.357,1.598,0.864,2.201,1.521c0.604,0.656,1.067,1.45,1.39,2.382
			c0.324,0.932,0.485,1.973,0.485,3.121c0,1.158-0.162,2.201-0.485,3.128c-0.323,0.927-0.787,1.718-1.39,2.375
			c-0.603,0.656-1.337,1.16-2.201,1.513c-0.864,0.353-1.832,0.528-2.904,0.528c-1.071,0-2.039-0.176-2.903-0.528
			c-0.864-0.353-1.6-0.856-2.208-1.513c-0.608-0.657-1.077-1.448-1.405-2.375s-0.492-1.97-0.492-3.128
			c0-1.148,0.164-2.189,0.492-3.121s0.796-1.726,1.405-2.382c0.608-0.657,1.344-1.163,2.208-1.521
			c0.864-0.357,1.832-0.536,2.903-0.536C25.144,14.888,26.111,15.066,26.976,15.424z M27.316,26.523
			c0.714-0.97,1.071-2.324,1.071-4.062c0-1.748-0.357-3.109-1.071-4.084c-0.715-0.975-1.796-1.462-3.244-1.462
			c-0.733,0-1.371,0.125-1.911,0.376s-0.992,0.613-1.354,1.086s-0.632,1.055-0.811,1.745s-0.268,1.47-0.268,2.339
			c0,0.868,0.089,1.646,0.268,2.331c0.179,0.686,0.449,1.263,0.811,1.73s0.813,0.828,1.354,1.079s1.178,0.376,1.912,0.376
			C25.52,27.979,26.602,27.493,27.316,26.523z"/>
		<path style="fill:#1A2E33;" d="M56.34,15.12v1.246c0,0.299-0.145,0.478-0.435,0.536c-0.106,0.02-0.353,0.068-0.738,0.145
			c-0.387,0.078-0.623,0.126-0.71,0.145l-4.069,12.599h-2.042c-0.26,0-0.434-0.164-0.521-0.492l-3.244-9.949
			c-0.087-0.222-0.155-0.456-0.203-0.702c-0.048-0.247-0.092-0.461-0.13-0.645c-0.058,0.251-0.109,0.485-0.152,0.702
			s-0.104,0.437-0.181,0.659l-3.287,9.934c-0.106,0.328-0.304,0.492-0.594,0.492h-1.94L34.011,17.19
			c-0.077-0.01-0.237-0.039-0.478-0.087c-0.56-0.116-0.883-0.184-0.97-0.203c-0.29-0.058-0.435-0.236-0.435-0.536V15.12h6.545v1.246
			c0,0.299-0.149,0.478-0.449,0.536c-0.184,0.039-0.714,0.145-1.593,0.318l2.346,7.877c0.193,0.879,0.323,1.54,0.391,1.984
			c0.087-0.387,0.275-1.048,0.565-1.984l3.099-9.499c0.106-0.338,0.342-0.507,0.709-0.507h1.115c0.376,0,0.623,0.169,0.739,0.507
			l3.026,9.499c0.125,0.416,0.294,1.072,0.507,1.97c0.106-0.666,0.256-1.322,0.449-1.97l2.375-7.863
			c-0.135-0.02-0.705-0.13-1.709-0.333c-0.299-0.058-0.449-0.236-0.449-0.536V15.12H56.34z"/>
		<path style="fill:#1A2E33;" d="M66.803,15.33c0.743,0.294,1.385,0.719,1.926,1.274s0.963,1.24,1.267,2.056
			s0.456,1.745,0.456,2.788c0,0.405-0.043,0.676-0.13,0.811s-0.251,0.203-0.492,0.203h-9.76c0.019,0.927,0.145,1.732,0.376,2.418
			c0.231,0.686,0.55,1.258,0.956,1.716c0.406,0.459,0.888,0.802,1.448,1.028s1.188,0.34,1.882,0.34c0.647,0,1.205-0.074,1.672-0.224
			c0.468-0.15,0.872-0.312,1.209-0.485s0.62-0.336,0.847-0.485c0.227-0.149,0.422-0.225,0.586-0.225
			c0.212,0,0.376,0.082,0.492,0.246l0.724,0.941c-0.319,0.387-0.7,0.722-1.144,1.007c-0.444,0.284-0.919,0.519-1.426,0.702
			s-1.031,0.321-1.571,0.412c-0.541,0.092-1.076,0.138-1.607,0.138c-1.014,0-1.948-0.171-2.802-0.514
			c-0.854-0.343-1.593-0.845-2.216-1.506c-0.623-0.661-1.107-1.479-1.455-2.455c-0.348-0.975-0.521-2.095-0.521-3.359
			c0-1.023,0.157-1.979,0.471-2.867c0.314-0.888,0.765-1.658,1.354-2.31s1.308-1.163,2.158-1.535
			c0.85-0.372,1.805-0.557,2.867-0.557C65.249,14.888,66.06,15.035,66.803,15.33z M61.489,17.864
			c-0.714,0.719-1.158,1.716-1.332,2.991h7.979c0-0.599-0.082-1.147-0.246-1.644s-0.405-0.927-0.724-1.289
			c-0.318-0.362-0.707-0.642-1.166-0.84c-0.458-0.198-0.982-0.297-1.571-0.297C63.183,16.785,62.203,17.145,61.489,17.864z"/>
		<path style="fill:#1A2E33;" d="M81.129,14.859c0.753,0,1.424,0.174,2.013,0.521l-0.333,1.926
			c-0.068,0.242-0.193,0.362-0.376,0.362c-0.184,0-0.416-0.046-0.695-0.138s-0.671-0.138-1.173-0.138
			c-1.68,0-2.935,1.019-3.765,3.056v7.226c0.242,0.048,0.792,0.159,1.651,0.333c0.29,0.058,0.435,0.236,0.435,0.536v1.245h-6.748
			v-1.245c0-0.3,0.145-0.479,0.435-0.536l1.65-0.333V17.234c-0.927-0.184-1.477-0.294-1.65-0.333
			c-0.29-0.058-0.435-0.236-0.435-0.536V15.12h2.085h1.477c0.28,0,0.473,0.053,0.58,0.159c0.106,0.106,0.178,0.29,0.217,0.55
			l0.173,2.288C77.741,15.945,79.228,14.859,81.129,14.859z"/>
		<path style="fill:#1A2E33;" d="M93.051,15.33c0.743,0.294,1.385,0.719,1.926,1.274s0.963,1.24,1.267,2.056
			s0.456,1.745,0.456,2.788c0,0.405-0.043,0.676-0.13,0.811c-0.086,0.135-0.251,0.203-0.492,0.203h-9.76
			c0.019,0.927,0.145,1.732,0.376,2.418c0.231,0.686,0.55,1.258,0.956,1.716c0.406,0.459,0.888,0.802,1.448,1.028
			s1.188,0.34,1.882,0.34c0.647,0,1.205-0.074,1.672-0.224c0.468-0.15,0.872-0.312,1.209-0.485s0.62-0.336,0.847-0.485
			c0.227-0.149,0.422-0.225,0.586-0.225c0.212,0,0.376,0.082,0.492,0.246l0.724,0.941c-0.319,0.387-0.7,0.722-1.144,1.007
			c-0.444,0.284-0.919,0.519-1.426,0.702s-1.031,0.321-1.571,0.412c-0.541,0.092-1.076,0.138-1.607,0.138
			c-1.014,0-1.948-0.171-2.802-0.514c-0.854-0.343-1.593-0.845-2.216-1.506c-0.623-0.661-1.107-1.479-1.455-2.455
			c-0.348-0.975-0.521-2.095-0.521-3.359c0-1.023,0.157-1.979,0.471-2.867c0.314-0.888,0.765-1.658,1.354-2.31
			s1.308-1.163,2.158-1.535c0.85-0.372,1.805-0.557,2.867-0.557C91.497,14.888,92.308,15.035,93.051,15.33z M87.736,17.864
			c-0.714,0.719-1.158,1.716-1.332,2.991h7.979c0-0.599-0.082-1.147-0.246-1.644s-0.405-0.927-0.724-1.289
			c-0.318-0.362-0.707-0.642-1.166-0.84c-0.458-0.198-0.982-0.297-1.571-0.297C89.431,16.785,88.451,17.145,87.736,17.864z"/>
		<path style="fill:#1A2E33;" d="M109.144,16.597v-6.024c-0.985-0.154-1.627-0.263-1.926-0.326
			c-0.299-0.063-0.449-0.244-0.449-0.543V8.458h4.953v19.216c0.927,0.184,1.477,0.294,1.65,0.333
			c0.29,0.058,0.435,0.236,0.435,0.536v1.245h-3.62c-0.367,0-0.599-0.179-0.695-0.536l-0.231-1.781
			c-1.38,1.68-3.021,2.52-4.923,2.52c-1.718,0-3.065-0.637-4.04-1.911c-1.004-1.304-1.506-3.161-1.506-5.575
			c0-2.22,0.564-4.035,1.694-5.445c1.159-1.467,2.708-2.201,4.648-2.201C106.754,14.859,108.091,15.438,109.144,16.597z
			 M109.144,25.69v-7.095c-0.85-1.149-1.977-1.723-3.381-1.723s-2.474,0.487-3.208,1.462c-0.733,0.975-1.101,2.366-1.101,4.17
			c0,2.771,0.714,4.47,2.143,5.098c0.463,0.202,0.995,0.304,1.593,0.304C106.715,27.906,108.033,27.168,109.144,25.69z"/>
		<path style="fill:#1A2E33;" d="M136.419,22.4c0,0.015,0,0.028,0,0.043c0,1.197-0.167,2.264-0.5,3.2s-0.789,1.726-1.369,2.367
			c-0.579,0.643-1.262,1.132-2.049,1.47s-1.639,0.507-2.556,0.507c-2.614,0-6.473-0.807-6.473-0.807v-0.245V26.84V10.554
			c-0.342-0.057-1.629-0.27-1.849-0.314c-0.254-0.05-0.441-0.279-0.441-0.535v-1.25h2.29h0.083h2.508v8.775
			c0.609-0.705,1.306-1.272,2.093-1.701c0.787-0.43,1.687-0.645,2.701-0.645c0.85,0,1.617,0.159,2.302,0.478
			c0.686,0.318,1.27,0.793,1.752,1.426c0.482,0.633,0.854,1.415,1.115,2.346c0.261,0.933,0.391,2.006,0.391,3.223
			C136.419,22.371,136.419,22.386,136.419,22.4z M133.466,24.812c0.192-0.654,0.276-1.397,0.287-2.229
			c0.001-0.075,0.003-0.149,0.003-0.227c0-0.956-0.084-1.776-0.254-2.462c-0.168-0.685-0.413-1.247-0.731-1.687
			c-0.318-0.439-0.709-0.76-1.173-0.962c-0.463-0.203-0.99-0.305-1.579-0.305c-0.84,0-1.576,0.193-2.208,0.579
			c-0.632,0.386-1.214,0.932-1.745,1.637v3.427v3.669v1.254c0.382,0.096,1.626,0.389,2.89,0.462
			c0.185,0.011,0.371,0.017,0.554,0.017h0.183c0.579-0.021,1.106-0.143,1.579-0.364c0.526-0.246,0.972-0.604,1.339-1.071
			C132.978,26.08,133.263,25.501,133.466,24.812z"/>
		<path style="fill:#1A2E33;" d="M153.8,15.12v1.246c0,0.299-0.145,0.478-0.434,0.536c-0.087,0.02-0.343,0.072-0.768,0.159
			s-0.676,0.135-0.753,0.145l-7.284,16.913c-0.193,0.425-0.502,0.638-0.927,0.638h-1.912l2.679-5.821l-5.155-11.773
			c-0.705-0.135-1.144-0.222-1.318-0.261c-0.29-0.058-0.435-0.236-0.435-0.536V15.12h6.574v1.246c0,0.299-0.145,0.478-0.434,0.536
			c-0.155,0.039-0.686,0.145-1.593,0.318l3.258,7.675c0.154,0.386,0.285,0.815,0.391,1.289c0.174-0.57,0.318-1.005,0.434-1.304
			l3.171-7.661c-0.782-0.154-1.311-0.261-1.585-0.318c-0.275-0.058-0.413-0.236-0.413-0.536V15.12h5.444H153.8z"/>
	</g>
</g>
<g id="Layer_1">
</g>
</svg>
