<?xml version="1.0" encoding="utf-8"?>
<!-- Generator: Adobe Illustrator 16.0.3, SVG Export Plug-In . SVG Version: 6.00 Build 0)  -->
<!DOCTYPE svg PUBLIC "-//W3C//DTD SVG 1.1//EN" "http://www.w3.org/Graphics/SVG/1.1/DTD/svg11.dtd">
<svg version="1.1" xmlns="http://www.w3.org/2000/svg" xmlns:xlink="http://www.w3.org/1999/xlink" x="0px" y="0px" width="230px"
	 height="100px" viewBox="0 0 230 100" enable-background="new 0 0 230 100" xml:space="preserve">
<g id="guides">
</g>
<g id="Layer_2">
	<g>
		<g>
			<g>
				<g>
					<circle fill="#FFFFFF" cx="38.832" cy="49.843" r="12.646"/>
				</g>
				<path fill="#FFD420" d="M51.477,49.561c0,0.057-0.225,0.245-0.465,0.391c-0.006,0.003-0.012,0.008-0.018,0.012
					c-0.328,0.177-0.789,0.343-1.365,0.494c-0.59,0.156-1.318,0.296-2.119,0.42c-0.803,0.122-1.693,0.215-2.656,0.299
					c0-0.001,0,0.002,0,0c-1.23,0.11-2.004,0.158-2.986,0.206c-1.041,0.043-2.125,0.066-3.223,0.064c0,0.141,0,0.28,0,0.419
					c0.002,0.989,0.004,1.931,0.01,2.817c0.025,4.854,0.031,4.853,0.178,7.805c6.984,0,12.646-5.662,12.646-12.645
					C51.479,49.843,51.477,49.659,51.477,49.561z"/>
				<polygon fill="#231F20" points="43.539,61.179 43.539,61.178 43.539,61.179 				"/>
				<g>
					<path fill="#231F20" d="M38.645,51.865c0.002,0.989,0.004,1.931,0.01,2.817c2.027,1.92,2.027,1.92,2.871,2.766
						c0.225-1.606,0.348-3.523,0.346-5.647c-0.002-0.141-0.002-0.279-0.004-0.419c-1.279,0.051-2.125,0.066-3.223,0.064
						C38.645,51.587,38.645,51.727,38.645,51.865z"/>
					<path fill="#231F20" d="M43.285,59.607c-0.443-0.721-0.848-1.189-1.762-2.151c-0.43,3.079-1.197,4.976-2.141,5.016
						c0.078-0.004,0.203-0.011,0.281-0.016c0.102-0.007,0.225-0.018,0.326-0.024C41.299,62.314,42.424,61.31,43.285,59.607z"/>
					<path fill="#231F20" d="M44.703,54.447c0-0.02-0.729,3.797-1.418,5.16c0.396,0.765,0.414,1.069,0.254,1.57
						c1.229-0.931,2.24-2.338,2.938-4.077C46.031,56.188,45.725,55.704,44.703,54.447z"/>
					<path fill="#231F20" d="M41.082,62.29c0.275-0.048,0.26-0.055,0.768-0.168l0.305-0.089c0.934-0.289,1.098-0.436,1.389-0.868
						c-0.834,0.627-1.725,1.013-2.721,1.167L41.082,62.29z"/>
					<path fill="#231F20" d="M46.701,59.188c1.824-2.066,2.938-4.983,2.934-8.311c0-0.142-0.002-0.279-0.006-0.42
						c-0.59,0.156-1.318,0.296-2.119,0.42c0.012,0.139,0.016,0.282,0.016,0.422c0.006,2.164-0.363,4.131-1.033,5.794
						C46.869,58.057,46.877,58.462,46.701,59.188z"/>
					<path fill="#231F20" d="M44.854,51.176c-1.23,0.11-2.004,0.158-2.986,0.206c1.734,1.802,2.104,2.225,2.836,3.065
						c0.102-0.896,0.156-1.845,0.156-2.837C44.857,51.468,44.855,51.318,44.854,51.176z"/>
				</g>
				<path fill="#231F20" d="M36.059,37.85c0.705-0.285,1.383-0.581,2.746-0.657l0,0C37.881,37.275,36.918,37.534,36.059,37.85"/>
				<g>
					<path fill="#E03A3E" d="M47.299,50.875c-0.658-0.088-1.209-1.2-0.92-2.333c-0.926,0.64-1.969-0.676-1.814-1.893
						c0.078-0.645,0.5-1.216,1.238-0.952c-0.299-1.028-0.674-2.002-1.113-2.898c-0.652,0.083-1.369,0.151-2.131,0.205
						c0.676,1.021,0.014,1.972-0.932,1.82c-0.682-0.11-1.32-0.827-1.143-1.681c-0.555,0.385-1.691,0.233-1.799-0.979
						c-0.029,2.571-0.045,5.86-0.041,9.281c3.359,0.034,7.299-0.325,8.865-0.569c0,0,0,0.004,0,0
						C47.445,50.881,47.361,50.882,47.299,50.875z"/>
				</g>
				<g>
					<path fill="#E03A3E" d="M30.66,53.413c0.941-0.363,2.123,1.263,1.709,2.348c-0.191,0.502-0.686,0.642-1.203,0.34
						c0.279,0.948,0.643,1.815,1.076,2.582c0.664,0.093,1.412,0.172,2.229,0.232c-0.656-0.807-0.129-1.468,0.746-1.424
						c0.75,0.037,1.746,0.663,1.531,1.517c0.678-0.306,1.82-0.057,1.959,0.825c-0.033-1.896-0.055-4.681-0.061-7.968
						c0-0.143-0.002-0.275-0.002-0.419c-1.066,0.003-2.148-0.038-3.225-0.081c-2.287-0.095-3.842-0.227-5.756-0.553
						c0,0.006,0.002-0.006,0,0C30.645,51.145,30.914,52.604,30.66,53.413z"/>
				</g>
				<path fill="#E03A3E" d="M44.824,41.763L44.824,41.763L44.824,41.763c0.002-0.001,0.006-0.001,0.01-0.001h-0.002
					c0,0,0.004-0.001,0.008-0.002c0.123-0.021,0.236-0.04,0.348-0.061c0.725-0.133,2.367-0.525,2.367-1.005
					c0,0,0.643,0.646,1.115,1.543c0.057,0.098,0.094,0.188,0.145,0.328c0.055,0.159,0.09,0.343,0.084,0.431
					c-0.02,0.273-0.193,0.277-0.375,0.198c-0.02-0.007-0.037-0.014-0.059-0.023c-0.648-0.293-0.863-0.89-0.988-1.135
					c-0.33,0.104-0.877,0.342-1.33,0.43c-0.055,0.01-0.15,0.033-0.205,0.043c0.537,0.883,1.045,1.935,1.412,2.953
					c0.637-0.655,1.635,0.56,1.682,1.732c0.029,0.689-0.281,1.303-0.912,1.081c0.504,0.933,0.344,2.302-0.613,2.602
					c-0.16-3.069-0.68-5.792-2.701-9.108l0,0l0,0"/>
				<path fill="#E03A3E" d="M44.809,41.769L44.809,41.769L44.809,41.769L44.809,41.769L44.809,41.769
					c-1.609-2.461-2.881-3.355-4.514-4c-0.326-0.128-1.432-0.562-1.49-0.576l0.006,0.011l0,0c0.289,0.421,0.865,0.67,0.99,0.708
					c-0.035,0.153-0.008,0.458,0.523,0.845c0.082,0.059,0.164,0.106,0.242,0.144c0.82,0.43,1,0.096,1.041-0.038
					c0.004-0.004,0.01-0.007,0.014-0.011c0.252,0.185,0.74,0.579,1.279,1.189c0.311,0.373,0.604,0.698,0.826,1.025
					c-0.508,0.064-1.182,0.124-1.85,0.171c-0.037-0.807-0.619-1.209-0.984-1.345c-0.803-0.298-1.064,0.645-0.719,1.307
					c-0.633-0.342-1.385-0.037-1.488,0.966C41.189,42.149,42.906,42.038,44.809,41.769L44.809,41.769L44.809,41.769"/>
				<path fill="#E03A3E" d="M44.967,39.476c-0.006-0.011-0.014-0.054-0.004-0.088c0.008-0.033,0.035-0.061,0.035-0.061
					s0.014-0.031,0.061-0.06c0.129-0.074,0.512-0.112,1.57,0.619c-2.193-1.726-4.555-2.433-6.559-2.631
					c-0.283-0.031-0.807-0.053-0.807-0.053c0.639,0.057,1.07,0.226,1.172,0.262c0.082,0.027,0.146,0.07,0.186,0.105
					c0.004-0.001,0.006-0.001,0.006-0.001c0.127,0.014,0.273,0.04,0.451,0.091c0.197,0.057,0.523,0.176,0.813,0.313
					c0.293,0.138,0.725,0.445,0.727,0.619c-0.066,0.04-0.088,0.052-0.283,0c0.746,0.532,1.82,1.536,2.453,2.277
					c0.436-0.083,1.084-0.176,1.387-0.277C46.152,40.614,45.184,39.888,44.967,39.476z"/>
				<path fill="#E03A3E" d="M32.111,59.383c-1.086-0.195-1.709-0.359-2.125-0.571c-0.068-0.036-0.09-0.036-0.105-0.039
					c-0.012-0.003-0.619-0.627-1.154-1.319c-0.389-0.504-0.715-1.074-0.75-1.126c0.004,0.005,0.088,0,0.139,0.017
					c0.568,0.188,1.455,1.739,1.465,1.757c0.354,0.13,0.811,0.253,1.363,0.366c-0.52-0.783-0.955-1.662-1.289-2.62
					c-0.789,0.397-1.795-1.687-1.477-2.564c0.064-0.181,0.273-0.554,0.809-0.15c-0.404-0.928-0.293-2.321,0.678-2.319
					C29.686,53.887,30.107,56.536,32.111,59.383"/>
				<path fill="#E03A3E" d="M38.689,60.01c-0.111,0.439-0.725,0.858-1.594,0.503c0.406,0.536,0.053,1-0.66,0.871
					c-0.557-0.101-1.217-0.548-1.268-0.995c-0.688-0.054-1.314-0.118-1.875-0.197c0.531,0.617,1.123,1.121,1.762,1.494
					c0.076-0.032,0.193-0.025,0.572,0.109c0.486,0.17,0.949,0.397,1.432,0.57l-0.102-0.017c-0.369-0.055-0.457-0.075-0.664-0.117
					c-0.93-0.183-2.553-0.713-4.182-2.849l0,0l0,0l0,0c1.963,0.304,3.875,0.436,6.596,0.452
					C38.701,59.887,38.701,59.96,38.689,60.01"/>
				<path fill="#FFD420" d="M38.805,37.192c-6.779,0-12.486,5.534-12.617,12.407l0.004,0.011c0.006,0.021,0.068,0.147,0.334,0.313
					l0,0l0,0c0.268,0.168,0.662,0.346,1.18,0.479c0.645,0.166,1.318,0.301,1.947,0.408l0.012,0.002
					c1.914,0.326,3.469,0.458,5.756,0.553c1.076,0.043,2.158,0.084,3.225,0.081c-0.002-0.645-0.006-4.318,0.025-7.865
					c0.002-0.457,0.008-0.936,0.016-1.416C38.713,39.854,38.762,37.501,38.805,37.192L38.805,37.192z"/>
				<path fill="#231F20" d="M44.863,60.96c-0.715,0.4-0.854,0.41-1.814,0.807c-0.266,0.11-0.518,0.174-0.793,0.253
					c1.705-0.459,4.039-2.37,4.449-2.834c-0.207,0.46-0.363,0.765-0.867,1.171C45.699,60.468,45.096,60.83,44.863,60.96z"/>
				<path fill="#231F20" d="M27.705,50.402c-0.525-0.128-0.912-0.311-1.18-0.479c0.141-4.574,2.684-8.634,6.387-10.858
					c-0.875,0.777-1.266,1.241-1.707,2.291C29.127,43.743,27.799,46.953,27.705,50.402"/>
				<path fill="#231F20" d="M32.924,39.059c0.93-0.67,1.455-1.156,2.926-1.509c1.031-0.249,1.936-0.355,2.955-0.357l0,0
					C36.674,37.282,34.67,38.012,32.924,39.059"/>
				<path fill="#231F20" d="M32.248,51.16c-0.924-0.089-1.799-0.211-2.584-0.348c0.053-2.292,0.531-4.49,1.361-6.438
					c0.322,1.278,0.594,1.967,1.498,3.482C32.361,48.927,32.266,50.035,32.248,51.16"/>
				<path fill="#231F20" d="M38.686,42.165c-0.016,1.393-0.023,2.824-0.027,3.93c-0.008,1.095-0.012,1.888-0.012,2.041
					c-1.244-1.305-1.91-2.037-2.818-3.192c0.609-3.933,1.715-7.039,2.977-7.751l0,0l0,0C38.76,37.565,38.713,39.799,38.686,42.165z"
					/>
				<g>
					<path fill="#231F20" d="M34.246,42.015c-0.795,1.676-1.389,3.683-1.715,5.841c0.771,1.148,1.25,1.82,2.789,3.505
						c0.02-2.261,0.201-4.454,0.508-6.426C34.904,43.673,34.609,43.072,34.246,42.015z"/>
				</g>
				<path fill="#231F20" stroke="#231F20" stroke-width="0" stroke-linecap="round" stroke-linejoin="round" d="M50.994,49.963
					c0.004,0.138,0.008,0.277,0.008,0.418c0.006,4.47-2.176,8.19-5.594,10.249l-0.092,0.068c1.607-0.986,3.637-2.652,4.928-5.411
					c1.383-2.72,1.232-5.727,1.232-5.727C51.408,49.684,51.203,49.84,50.994,49.963z"/>
				<g>
					<path fill="#231F20" d="M36.059,37.85c-1.844,0.724-3.506,1.962-4.85,3.506c-0.369,1.149-0.367,1.791-0.184,3.02
						c0.82-1.917,1.967-3.579,3.322-4.82C34.766,38.832,35.027,38.399,36.059,37.85z"/>
				</g>
				<path fill="#231F20" d="M34.242,42.022c-0.229-1.032-0.246-1.558,0.1-2.457c1.32-1.216,2.842-2.119,4.463-2.373
					C37.031,37.668,35.422,39.529,34.242,42.022"/>
				<path fill="#231F20" d="M23.586,40.465l0.072,0.035c-0.123,0.258-0.064,0.4,0.18,0.521l1.029,0.512
					c0.473,0.235,0.832,0.788,0.42,1.616c-0.361,0.728-0.961,0.896-1.508,0.626l-1.115-0.554c-0.242-0.12-0.316-0.07-0.449,0.187
					l-0.072-0.035l0.486-0.981l0.074,0.036l-0.018,0.034c-0.104,0.211-0.094,0.33,0.129,0.439l1.061,0.526
					c0.516,0.256,0.975,0.107,1.256-0.462c0.215-0.431,0.252-0.957-0.396-1.279l-0.889-0.442c-0.367-0.181-0.459-0.156-0.633,0.153
					l-0.072-0.036L23.586,40.465z"/>
				<path fill="#231F20" d="M27.996,39.201l-3.188,0.2l1.396,1.177c0.234,0.198,0.328,0.186,0.561-0.091l0.063,0.053l-0.637,0.757
					l-0.063-0.053l0.012-0.014c0.17-0.2,0.156-0.323,0.006-0.45l-1.602-1.351c-0.115,0.031-0.213,0.094-0.313,0.204l-0.063-0.053
					l0.432-0.51l2.893-0.188l-1.297-1.093c-0.199-0.166-0.283-0.139-0.51,0.117l-0.063-0.053l0.643-0.762l0.063,0.052
					c-0.207,0.244-0.207,0.332-0.08,0.438l1.816,1.532L27.996,39.201z"/>
				<path fill="#231F20" d="M29.547,37.83l-0.797,0.661l-0.053-0.063c0.195-0.178,0.195-0.266,0.014-0.485l-1.16-1.396
					c-0.146-0.177-0.25-0.174-0.441-0.032l-0.053-0.063l0.797-0.661l0.051,0.063c-0.205,0.172-0.24,0.277-0.057,0.498l1.154,1.39
					c0.16,0.192,0.266,0.215,0.494,0.026L29.547,37.83z"/>
				<path fill="#231F20" d="M31.115,36.854l-1.963-1.521c-0.227-0.179-0.305-0.208-0.527-0.077l-0.041-0.069l1.01-0.593l0.041,0.069
					c-0.334,0.206-0.369,0.331-0.201,0.458l1.627,1.26l-0.309-1.857c-0.02-0.127-0.041-0.215-0.07-0.265
					c-0.064-0.11-0.182-0.102-0.434,0.046l-0.039-0.071l0.852-0.499l0.041,0.069c-0.191,0.112-0.238,0.258-0.193,0.538l0.391,2.403
					L31.115,36.854z"/>
				<path fill="#231F20" d="M34.244,34.355l-0.076,0.025c-0.131-0.274-0.219-0.28-0.385-0.223l-0.68,0.234L33.4,35.25
					c0.063,0.186,0.145,0.198,0.293,0.146l0.621-0.213c0.281-0.098,0.328-0.234,0.311-0.617l0.072-0.023l0.141,0.621l-2.137,0.737
					l-0.027-0.076l0.113-0.04c0.322-0.11,0.348-0.218,0.264-0.459l-0.586-1.7c-0.076-0.226-0.162-0.305-0.434-0.211l-0.088,0.03
					l-0.027-0.077l1.934-0.667l0.227,0.549l-0.074,0.026c-0.17-0.324-0.295-0.362-0.439-0.313l-0.85,0.294l0.342,0.991l0.721-0.249
					c0.145-0.05,0.189-0.142,0.129-0.384l0.076-0.025L34.244,34.355z"/>
				<path fill="#231F20" d="M35.861,32.296c0.074-0.017,0.129-0.023,0.209-0.033c0.652-0.077,0.867,0.206,0.912,0.601
					c0.061,0.506-0.225,0.742-0.693,0.797c-0.098,0.012-0.16,0.024-0.264,0.023L35.861,32.296z M36.035,33.764
					c0.068-0.003,0.123-0.006,0.217-0.018c0.113-0.013,0.182-0.024,0.287-0.043c0.109,0.058,0.271,0.162,0.479,0.325l0.313,0.247
					c0.422,0.331,0.633,0.47,1.367,0.347l-0.008-0.076c-0.33,0.019-0.605-0.107-0.885-0.327l-0.375-0.295
					c-0.221-0.176-0.361-0.278-0.533-0.383c0.336-0.143,0.518-0.435,0.48-0.752c-0.051-0.431-0.439-0.711-1.223-0.616
					c-0.275,0.031-0.359,0.045-0.531,0.075c-0.172,0.028-0.428,0.076-0.529,0.088l0.008,0.08l0.094-0.011
					c0.246-0.029,0.326,0.039,0.357,0.301l0.213,1.781c0.033,0.282-0.047,0.36-0.297,0.392l-0.072,0.009l0.01,0.079l1.197-0.143
					l-0.01-0.079l-0.098,0.011c-0.236,0.028-0.346-0.023-0.375-0.277L36.035,33.764z"/>
				<path fill="#231F20" d="M39.309,34.009c0.061,0.385,0.34,0.629,0.672,0.654c0.283,0.022,0.598-0.119,0.625-0.455
					c0.047-0.611-1.301-0.905-1.244-1.648c0.027-0.352,0.371-0.59,0.805-0.557c0.357,0.028,0.42,0.141,0.568,0.152
					c0.033,0.002,0.053-0.004,0.08-0.037l0.068,0.006l0.031,0.544l-0.074-0.006c-0.094-0.314-0.352-0.53-0.645-0.554
					c-0.279-0.022-0.488,0.124-0.506,0.362c-0.047,0.602,1.303,0.871,1.242,1.653c-0.031,0.415-0.426,0.697-0.924,0.657
					c-0.232-0.019-0.521-0.156-0.58-0.161c-0.039-0.003-0.07,0.017-0.09,0.041l-0.072-0.006l-0.037-0.652L39.309,34.009z"/>
				<path fill="#231F20" d="M42.584,35.126l-1.012-0.22l0.018-0.079c0.26,0.044,0.33-0.012,0.389-0.29l0.387-1.773
					c0.049-0.225-0.016-0.305-0.246-0.367l0.016-0.079l1.014,0.22l-0.018,0.079c-0.262-0.057-0.367-0.019-0.428,0.261l-0.385,1.764
					c-0.053,0.247-0.004,0.345,0.283,0.406L42.584,35.126z"/>
				<path fill="#231F20" d="M44.73,35.432c-0.086,0.214-0.043,0.316,0.199,0.413l0.145,0.059l-0.029,0.075l-1.246-0.495l0.029-0.074
					l0.146,0.057c0.24,0.097,0.342,0.049,0.428-0.164l0.775-1.956l-0.689-0.274c-0.158-0.063-0.266,0-0.463,0.326l-0.072-0.029
					l0.318-0.616l0.076,0.03c-0.006,0.025,0.004,0.049,0.025,0.064c0.02,0.018,0.045,0.032,0.074,0.044l1.904,0.755
					c0.055,0.021,0.119,0.033,0.146-0.01l0.076,0.028l-0.193,0.666l-0.07-0.027c0.08-0.372,0.045-0.491-0.115-0.555l-0.688-0.272
					L44.73,35.432z"/>
				<path fill="#231F20" d="M49.068,35.709c0.244-0.119,0.217-0.224-0.01-0.374l0.045-0.068l0.801,0.535l-0.047,0.067
					c-0.252-0.144-0.418-0.117-0.627-0.017l-1.254,0.604l-0.355,0.53c-0.125,0.188-0.107,0.307,0.107,0.451l0.047,0.031
					l-0.047,0.066l-0.971-0.65l0.043-0.067l0.068,0.046c0.219,0.146,0.338,0.107,0.453-0.066l0.334-0.499l0.027-1.406
					c0.01-0.389-0.039-0.493-0.266-0.653l0.047-0.067l0.941,0.63l-0.045,0.066c-0.277-0.184-0.34-0.128-0.342,0.105l-0.018,1.254
					L49.068,35.709z"/>
				<path fill="#231F20" d="M52.588,40.782c-0.48,0.366-1.17,0.475-1.592-0.077c-0.414-0.545-0.295-1.316,0.336-1.799
					c0.408-0.311,1.143-0.497,1.598,0.1C53.357,39.564,53.219,40.303,52.588,40.782z M52.943,41.016
					c0.609-0.465,0.627-1.346,0.139-1.987c-0.549-0.722-1.424-0.875-2.098-0.361c-0.633,0.483-0.633,1.367-0.127,2.031
					C51.357,41.355,52.258,41.537,52.943,41.016z"/>
				<path fill="#231F20" d="M53.836,43.678l-0.031-0.064c0.219-0.115,0.25-0.228,0.162-0.413l-0.34-0.712l-0.842,0.402
					c-0.217,0.103-0.275,0.188-0.135,0.477l-0.074,0.034l-0.447-0.935l0.074-0.034c0.129,0.23,0.199,0.249,0.51,0.101l1.508-0.72
					c0.246-0.116,0.35-0.19,0.223-0.46l0.074-0.035l0.822,1.723l-0.453,0.217l-0.031-0.066c0.221-0.108,0.275-0.23,0.162-0.468
					l-0.348-0.73l-0.904,0.43l0.363,0.761c0.068,0.143,0.182,0.174,0.354,0.106l0.031,0.064L53.836,43.678z"/>
				<path fill="#231F20" d="M24.016,60.349l1.533-2.827l-0.006-0.009l-2.07,1.32c-0.234,0.149-0.16,0.353-0.025,0.557l-0.084,0.061
					l-0.666-0.917l0.086-0.06c0.232,0.321,0.332,0.31,0.748,0.04l1.791-1.137c0.303-0.193,0.377-0.26,0.195-0.546l0.078-0.058
					l0.484,0.666l-1.449,2.672l2.986-0.554l0.469,0.647l-0.078,0.06c-0.174-0.204-0.24-0.285-0.383-0.167l-1.895,1.588
					c-0.385,0.321-0.359,0.356-0.127,0.677l-0.084,0.063l-0.82-1.134l0.084-0.061c0.15,0.208,0.354,0.369,0.574,0.183l1.881-1.562
					l-0.006-0.008l-3.145,0.607L24.016,60.349z"/>
				<path fill="#231F20" d="M29.408,63.295l-0.76-0.559l1.125-0.747L29.408,63.295z M29.34,63.541l-0.293,1.016
					c-0.014,0.058-0.031,0.146-0.084,0.215c-0.09,0.124-0.201,0.082-0.451-0.103l-0.113-0.084l-0.063,0.083l1.207,0.888l0.061-0.084
					c-0.219-0.16-0.279-0.271-0.195-0.568l0.873-3.108l-0.381-0.28l-0.033,0.125l-2.4,1.592c-0.42,0.279-0.504,0.292-0.791,0.086
					l-0.063,0.084l1.012,0.743l0.063-0.082l-0.07-0.052c-0.24-0.176-0.322-0.305-0.236-0.422c0.045-0.063,0.199-0.152,0.291-0.213
					l0.762-0.501L29.34,63.541z"/>
				<path fill="#231F20" d="M32.832,63.465c0.096,0.023,0.162,0.046,0.26,0.08c0.791,0.282,0.875,0.727,0.705,1.205
					c-0.217,0.615-0.678,0.722-1.246,0.521c-0.119-0.04-0.197-0.063-0.314-0.123L32.832,63.465z M32.201,65.246
					c0.08,0.033,0.145,0.063,0.258,0.103c0.139,0.05,0.223,0.073,0.354,0.112c0.094,0.127,0.219,0.339,0.365,0.646l0.219,0.459
					c0.295,0.616,0.457,0.895,1.369,1.173l0.031-0.094c-0.385-0.165-0.631-0.467-0.826-0.876l-0.262-0.549
					c-0.154-0.326-0.258-0.525-0.395-0.741c0.463,0.026,0.84-0.205,0.977-0.589c0.186-0.524-0.102-1.064-1.051-1.401
					c-0.334-0.118-0.439-0.149-0.65-0.214c-0.215-0.064-0.537-0.154-0.658-0.198l-0.035,0.099l0.113,0.039
					c0.297,0.106,0.352,0.229,0.238,0.547l-0.766,2.16c-0.123,0.343-0.258,0.387-0.561,0.279l-0.088-0.031l-0.035,0.099l1.453,0.514
					l0.033-0.096l-0.119-0.043c-0.285-0.102-0.381-0.223-0.273-0.53L32.201,65.246z"/>
				<path fill="#231F20" d="M38.377,65.131c0.199-0.284,0.104-0.385-0.244-0.414l0.008-0.103l1.229,0.104l-0.01,0.103
					c-0.371-0.005-0.541,0.13-0.715,0.371l-1.029,1.448l-0.07,0.813c-0.025,0.288,0.068,0.411,0.4,0.438l0.07,0.006L38.006,68
					l-1.492-0.127l0.01-0.104l0.102,0.009c0.338,0.027,0.447-0.087,0.469-0.353l0.064-0.765l-0.836-1.591
					c-0.23-0.439-0.35-0.526-0.701-0.568l0.01-0.104l1.443,0.125l-0.01,0.103c-0.422-0.038-0.459,0.065-0.316,0.328l0.754,1.414
					L38.377,65.131z"/>
				<path fill="#231F20" d="M42.9,67.575l-2.4,0.406l-0.016-0.103l0.176-0.028c0.248-0.044,0.326-0.14,0.279-0.412l-0.402-2.378
					c-0.049-0.284-0.154-0.388-0.492-0.331l-0.074,0.013l-0.018-0.102l1.584-0.269l0.018,0.103l-0.199,0.034
					c-0.35,0.059-0.434,0.112-0.377,0.445l0.418,2.475c0.023,0.143,0.092,0.188,0.248,0.161l0.789-0.133
					c0.314-0.055,0.393-0.193,0.65-0.718l0.098-0.017L42.9,67.575z"/>
				<path fill="#231F20" d="M45.498,64.855l-0.869,0.364l-0.063-1.348L45.498,64.855z M45.676,65.042l0.719,0.773
					c0.041,0.042,0.107,0.103,0.141,0.184c0.059,0.14-0.033,0.215-0.32,0.334l-0.131,0.055l0.039,0.094l1.383-0.575l-0.039-0.096
					c-0.252,0.104-0.379,0.098-0.59-0.125l-2.215-2.35l-0.436,0.183l0.09,0.092l0.131,2.876c0.02,0.506-0.012,0.584-0.336,0.726
					l0.039,0.095l1.16-0.484l-0.039-0.096l-0.082,0.034c-0.275,0.114-0.426,0.12-0.484-0.016c-0.027-0.069-0.025-0.25-0.029-0.358
					l-0.039-0.911L45.676,65.042z"/>
				<path fill="#231F20" d="M51.564,62.933l-4.053-0.479l1.488,1.8c0.248,0.302,0.367,0.31,0.725,0.016l0.066,0.079l-0.975,0.804
					l-0.064-0.079l0.016-0.014c0.26-0.216,0.271-0.373,0.111-0.565l-1.703-2.063c-0.154,0.012-0.291,0.067-0.439,0.186l-0.068-0.08
					l0.66-0.544l3.678,0.427l-1.379-1.671c-0.211-0.256-0.326-0.237-0.668,0.03l-0.066-0.08l0.982-0.812l0.066,0.08
					c-0.316,0.261-0.338,0.37-0.203,0.535l1.936,2.34L51.564,62.933z"/>
				<path fill="#231F20" d="M50.768,58.741c0.031-0.059,0.098-0.189,0.221-0.377c0.412-0.64,0.781-0.86,1.127-0.935
					c0.445-0.096,0.883,0.05,1.221,0.269c0.471,0.304,0.688,0.742,0.742,1.018c0.1,0.466,0.021,0.779-0.375,1.391
					c-0.232,0.361-0.305,0.335-0.494,0.212L50.768,58.741z M52.883,60.646c0.264,0.172,0.26,0.33,0.1,0.574l-0.051,0.08l0.088,0.056
					l0.945-1.464c0.748-1.156,0.266-2.226-0.424-2.672c-0.754-0.485-1.715-0.348-2.494,0.858c-0.154,0.239-0.328,0.521-0.482,0.777
					c-0.152,0.258-0.289,0.487-0.389,0.663l0.088,0.056l0.057-0.092c0.176-0.27,0.299-0.3,0.596-0.108L52.883,60.646z"/>
				<path fill="#231F20" d="M21.377,48.779v2.331c0,0.122,0.025,0.154,0.148,0.154h0.227v0.074H20.74v-0.074h0.219
					c0.129,0,0.152-0.037,0.152-0.157v-2.006c-0.129,0.113-0.355,0.261-0.504,0.33l-0.031-0.057
					c0.234-0.157,0.566-0.459,0.662-0.596H21.377z"/>
				<path fill="#231F20" d="M23.705,50.769c0,0.314-0.23,0.556-0.533,0.556c-0.307,0-0.533-0.253-0.533-0.595
					c0-0.262,0.139-0.463,0.412-0.611C23.52,50.331,23.705,50.5,23.705,50.769z M23.881,49.359c0-0.32-0.324-0.58-0.727-0.58
					c-0.398,0-0.73,0.299-0.73,0.652c0,0.273,0.174,0.478,0.549,0.646c-0.393,0.156-0.584,0.377-0.584,0.658
					c0,0.366,0.344,0.66,0.779,0.66c0.447,0,0.795-0.321,0.795-0.739c0-0.31-0.182-0.522-0.605-0.711
					C23.711,49.804,23.881,49.616,23.881,49.359z M23.639,49.354c0,0.229-0.113,0.415-0.338,0.555
					c-0.518-0.221-0.639-0.381-0.639-0.603c0-0.253,0.215-0.452,0.492-0.452C23.434,48.854,23.639,49.065,23.639,49.354z"/>
				<path fill="#231F20" d="M53.762,49.067h0.951c0.072,0,0.098-0.015,0.117-0.051h0.076l-0.045,0.311h-1.016l-0.031,0.721
					c0.123-0.068,0.27-0.1,0.432-0.1c0.451,0,0.824,0.375,0.824,0.828c0,0.487-0.404,0.857-0.943,0.857
					c-0.32,0-0.586-0.112-0.586-0.253c0-0.068,0.061-0.125,0.133-0.125c0.217,0,0.293,0.282,0.545,0.282
					c0.297,0,0.551-0.311,0.551-0.677c0-0.371-0.254-0.647-0.6-0.647c-0.146,0-0.305,0.06-0.424,0.162l-0.041-0.028L53.762,49.067z"
					/>
				<path fill="#231F20" d="M56.822,50.858c0,0.455-0.193,0.71-0.475,0.71c-0.254,0-0.547-0.223-0.547-0.899
					c0-0.137,0.008-0.193,0.02-0.25c0.246-0.197,0.428-0.241,0.531-0.241C56.621,50.178,56.822,50.428,56.822,50.858z
					 M56.848,49.017c-0.842,0.237-1.35,0.827-1.35,1.571c0,0.617,0.346,1.046,0.844,1.046c0.428,0,0.783-0.369,0.783-0.812
					c0-0.411-0.318-0.741-0.713-0.741c-0.197,0-0.354,0.063-0.57,0.233c0.086-0.588,0.422-0.981,1.047-1.239L56.848,49.017z"/>
			</g>
		</g>
		<path fill="#231F20" d="M70.443,51.74h-3.668v-0.287c0.936-0.046,1.131-0.287,1.131-1.299v-6.433c0-0.815-0.287-1.042-1.131-1.088
			v-0.286h3.668v0.286c-0.951,0-1.283,0.212-1.283,1.224v6.402c0,0.892,0.242,1.193,1.283,1.193V51.74z"/>
		<path fill="#231F20" d="M81.377,51.845l-7.822-8.184v6.479c0,1.087,0.24,1.313,1.525,1.313v0.287h-3.504v-0.287h0.061
			c0.936,0,1.238-0.317,1.238-1.012v-7.43c-0.348-0.242-0.74-0.362-1.268-0.378v-0.286h2.371l7.111,7.414v-6.01
			c0-0.921-0.271-1.087-1.48-1.118v-0.286h3.533v0.286c-1.131,0-1.373,0.197-1.373,0.786v8.425H81.377z"/>
		<path fill="#231F20" d="M92.52,51.845l-7.82-8.184v6.479c0,1.087,0.242,1.313,1.525,1.313v0.287h-3.504v-0.287h0.061
			c0.936,0,1.238-0.317,1.238-1.012v-7.43c-0.348-0.242-0.74-0.362-1.268-0.378v-0.286h2.369l7.113,7.414v-6.01
			c0-0.921-0.271-1.087-1.48-1.118v-0.286h3.533v0.286c-1.133,0-1.373,0.197-1.373,0.786v8.425H92.52z"/>
		<path fill="#231F20" d="M100.041,51.981c-2.961,0-5.451-1.903-5.451-4.727c0-3.005,2.311-5.134,5.525-5.134
			c2.855,0,5.301,1.947,5.301,4.666C105.416,49.837,102.971,51.981,100.041,51.981z M99.725,42.499
			c-2.658,0-3.715,2.476-3.715,4.288c0,2.823,1.916,4.816,4.348,4.816c2.463,0,3.641-2.174,3.641-4.318
			C103.998,44.477,102.215,42.499,99.725,42.499z"/>
		<path fill="#231F20" d="M110.131,51.981l-3.277-8.169c-0.377-0.951-0.559-1.179-1.479-1.179v-0.286h4.152v0.286
			c-1.389,0.031-1.721,0.348-1.434,1.043l2.717,6.765l2.387-6.236c0.166-0.424,0.256-0.726,0.256-0.937
			c0-0.453-0.377-0.635-1.404-0.635v-0.286h3.504v0.286c-0.785,0-1.193,0.363-1.557,1.299l-3.109,8.049H110.131z"/>
		<path fill="#231F20" d="M116.506,47.572l-0.875,2.37c-0.107,0.287-0.303,0.74-0.303,0.952c0,0.407,0.393,0.559,1.223,0.559h0.242
			v0.287h-3.488v-0.287c0.982-0.016,1.146-0.182,1.631-1.496l2.748-7.504l-0.137-0.332h1.314l3.156,8.38
			c0.303,0.801,0.619,0.952,1.373,0.952v0.287h-4.152v-0.287h0.393c0.861,0,1.18-0.091,1.18-0.514c0-0.241-0.107-0.469-0.168-0.619
			l-1.012-2.748H116.506z M118.047,43.39l-1.285,3.519h2.613L118.047,43.39z"/>
		<path fill="#231F20" d="M127.123,50.351c0,0.815,0.27,1.103,1.191,1.103h0.559v0.287h-4.756v-0.287h0.559
			c0.922,0,1.193-0.287,1.193-1.103v-7.46h-2.629c-0.604,0-0.875,0.348-1.102,1.677h-0.271l0.24-2.446h0.287
			c0.016,0.091,0.076,0.151,0.166,0.181c0.092,0.03,0.197,0.046,0.303,0.046h7.264c0.211,0,0.438-0.046,0.467-0.227h0.287
			l0.242,2.446h-0.271c-0.227-1.329-0.498-1.677-1.102-1.677h-2.627V50.351z"/>
		<path fill="#231F20" d="M135.955,51.74h-3.668v-0.287c0.936-0.046,1.133-0.287,1.133-1.299v-6.433
			c0-0.815-0.287-1.042-1.133-1.088v-0.286h3.668v0.286c-0.951,0-1.283,0.212-1.283,1.224v6.402c0,0.892,0.242,1.193,1.283,1.193
			V51.74z"/>
		<path fill="#231F20" d="M142.133,51.981c-2.961,0-5.451-1.903-5.451-4.727c0-3.005,2.311-5.134,5.525-5.134
			c2.854,0,5.301,1.947,5.301,4.666C147.508,49.837,145.061,51.981,142.133,51.981z M141.814,42.499
			c-2.656,0-3.713,2.476-3.713,4.288c0,2.823,1.916,4.816,4.348,4.816c2.461,0,3.639-2.174,3.639-4.318
			C146.088,44.477,144.307,42.499,141.814,42.499z"/>
		<path fill="#231F20" d="M157.807,51.845l-7.822-8.184v6.479c0,1.087,0.242,1.313,1.525,1.313v0.287h-3.504v-0.287h0.061
			c0.938,0,1.238-0.317,1.238-1.012v-7.43c-0.346-0.242-0.74-0.362-1.268-0.378v-0.286h2.371l7.111,7.414v-6.01
			c0-0.921-0.271-1.087-1.48-1.118v-0.286h3.533v0.286c-1.131,0-1.373,0.197-1.373,0.786v8.425H157.807z"/>
		<path fill="#231F20" d="M69.395,32.173l1.68,4.56c0.209,0.589,0.246,0.687,0.883,0.724v0.221h-2.563v-0.221
			c0.418-0.013,0.834-0.025,0.834-0.368c0-0.184-0.086-0.441-0.172-0.674l-0.379-1.03h-1.766l-0.283,0.711
			c-0.084,0.221-0.232,0.589-0.232,0.896c0,0.38,0.406,0.417,0.848,0.466v0.221h-2.109v-0.221c0.625-0.123,0.699-0.331,0.98-1.03
			l1.52-3.898l-0.123-0.354H69.395z M68.047,35.029h1.508l-0.736-1.999L68.047,35.029z"/>
		<path fill="#231F20" d="M78.871,33.741h-0.184c-0.232-0.453-0.711-1.336-1.924-1.336c-1.25,0-2.047,1.25-2.047,2.709
			c0,1.643,1.041,2.477,1.924,2.477c1.201,0,1.912-0.883,2.182-1.226h0.209c-0.184,0.502-0.295,0.723-0.686,1.36
			c-0.27-0.024-0.404-0.024-0.699,0c-0.711,0.061-0.846,0.073-1.055,0.073c-1.789,0-2.844-1.152-2.844-2.733
			c0-1.827,1.545-2.918,2.941-2.918c0.932,0,1.398,0.43,1.68,0.43c0.148,0,0.197-0.05,0.258-0.11h0.195L78.871,33.741z"/>
		<path fill="#231F20" d="M83.561,32.173l1.68,4.56c0.209,0.589,0.244,0.687,0.883,0.724v0.221h-2.563v-0.221
			c0.416-0.013,0.834-0.025,0.834-0.368c0-0.184-0.086-0.441-0.172-0.674l-0.381-1.03h-1.764l-0.283,0.711
			c-0.084,0.221-0.232,0.589-0.232,0.896c0,0.38,0.404,0.417,0.846,0.466v0.221h-2.107v-0.221c0.625-0.123,0.697-0.331,0.98-1.03
			l1.52-3.898l-0.123-0.354H83.561z M82.213,35.029h1.508l-0.736-1.999L82.213,35.029z"/>
		<path fill="#231F20" d="M87.994,37.456c0.822-0.037,0.957-0.111,0.957-0.797V33.41c0-0.637-0.074-0.748-0.957-0.76V32.43
			c0.908-0.098,1.9-0.146,2.674-0.146c0.697,0,3.395,0.135,3.395,2.647c0,1.581-1.262,2.402-2.035,2.574
			c-0.625,0.135-1.287,0.172-1.887,0.172h-2.146V37.456z M89.834,36.843c0,0.221,0,0.331,0.037,0.417
			c0.086,0.147,0.539,0.159,0.723,0.159c2.182,0,2.512-1.63,2.512-2.488c0-0.539-0.135-1.654-1.188-2.121
			c-0.613-0.27-1.398-0.257-2.084-0.245V36.843z"/>
		<path fill="#231F20" d="M98.012,34.82h1.324c0.441,0,0.588,0,0.637-0.662h0.246v1.655h-0.246
			c-0.023-0.675-0.123-0.724-0.723-0.724h-1.238v1.753c0,0.527,0.025,0.527,0.553,0.527h0.93c0.553,0,0.834-0.073,1.066-0.993h0.234
			l-0.111,1.3h-4.426v-0.209c0.785,0.024,0.871-0.208,0.871-0.711v-3.48c0-0.626-0.184-0.724-0.871-0.712v-0.221h4.193l0.049,1.165
			h-0.221c-0.135-0.809-0.33-0.895-0.932-0.895h-1.336V34.82z"/>
		<path fill="#231F20" d="M110.342,32.344v0.221c-0.6,0-0.783,0.05-0.771,0.355c0,0.086,0.012,0.43,0.023,0.699l0.184,2.905
			c0.051,0.735,0.063,0.956,0.871,0.932v0.221H108.1v-0.221c0.525-0.037,0.871-0.073,0.871-0.454c0-0.135-0.014-0.404-0.025-0.552
			l-0.221-3.407l-2.023,4.634h-0.232l-1.961-4.634l-0.307,3.665c-0.012,0.123-0.025,0.294-0.025,0.368
			c0,0.281,0.307,0.38,0.748,0.38v0.221h-2.059v-0.221c0.27-0.013,0.699-0.037,0.82-0.196c0.111-0.135,0.137-0.564,0.16-0.858
			l0.27-3.248c0.037-0.516-0.049-0.539-0.748-0.589v-0.221h1.752l1.729,4.058l1.766-4.058H110.342z"/>
		<path fill="#231F20" d="M114.904,32.344v0.221c-0.49,0.024-0.527,0.024-0.588,0.073c-0.049,0.037-0.074,0.099-0.074,0.147
			c0,0.099,0.172,0.38,0.281,0.564l1.152,1.74l0.957-1.654c0.135-0.233,0.281-0.491,0.281-0.65c0-0.208-0.281-0.221-0.65-0.221
			v-0.221h1.951v0.221c-0.664,0.013-0.699,0.086-1.055,0.674l-1.313,2.269v1.078c0,0.712,0.061,0.871,0.602,0.871h0.342v0.221
			h-2.758v-0.221h0.27c0.662,0,0.676-0.086,0.676-0.834v-1.115l-1.582-2.391c-0.33-0.502-0.369-0.552-1.092-0.552v-0.221H114.904z"
			/>
		<path fill="#231F20" d="M129.086,32.344v1.079h-0.221c-0.086-0.576-0.135-0.625-0.197-0.687c-0.061-0.062-0.244-0.11-0.588-0.11
			h-1.227v2.084h1.35c0.441,0,0.648-0.11,0.662-0.576h0.221v1.496h-0.221c-0.037-0.553-0.16-0.65-0.613-0.65h-1.398v1.888
			c0,0.466,0,0.527,0.809,0.589v0.221h-2.389v-0.221c0.637-0.062,0.699-0.159,0.699-0.638v-3.506c0-0.612-0.051-0.675-0.699-0.748
			v-0.221H129.086z"/>
		<path fill="#231F20" d="M134.467,32.136c1.408,0,2.916,0.919,2.916,2.807c0,2.06-1.58,2.881-2.93,2.881
			c-1.336,0-2.93-0.821-2.93-2.881C131.523,33.055,133.105,32.136,134.467,32.136z M134.43,32.344c-1.264,0-1.949,1.214-1.949,2.501
			c0,1.349,0.33,1.888,0.674,2.231c0.367,0.367,0.809,0.539,1.287,0.539c0.932,0,1.986-0.699,1.986-2.66
			C136.428,33.067,135.484,32.344,134.43,32.344z"/>
		<path fill="#231F20" d="M144.613,36.782l-0.678-0.678c-0.404-0.403-0.66-0.644-0.977-0.892c0.4-0.139,1.131-0.418,1.131-1.398
			c0-1.287-1.299-1.531-2.379-1.531c-0.869,0-1.641,0.098-2.156,0.146v0.221c0.613,0.037,0.686,0.037,0.785,0.172
			c0.098,0.122,0.098,0.318,0.098,0.454v3.469c0,0.465-0.074,0.711-0.674,0.711h-0.197v0.221h2.709v-0.221h-0.355
			c-0.527,0-0.6-0.147-0.6-0.871v-1.226h0.783c0.205,0.138,0.605,0.479,0.982,0.856l0.566,0.566c0.764,0.764,1.148,1.089,2.65,1.021
			v-0.154C145.643,37.605,145.119,37.288,144.613,36.782z M141.871,35.139h-0.551v-2.586c0.121-0.013,0.33-0.025,0.539-0.025
			c0.539,0,1.311,0.282,1.311,1.312C143.17,34.845,142.521,35.139,141.871,35.139z"/>
		<g>
			<path fill="#231F20" d="M174.967,44.889v0.298c-0.924,0-1.172,0.082-1.404,0.313c-0.33,0.33-1.156,2.031-2.477,3.568
				c0.908,1.404,1.189,2.395,1.98,2.395c0.332,0,0.744-0.182,1.289-0.562l0.148,0.265c-0.709,0.562-1.402,0.858-2.031,0.858
				c-1.023,0-1.305-0.379-2.213-2.047c-1.223,1.304-2.594,2.047-3.766,2.047c-1.504,0-2.678-1.188-2.678-2.726
				c0-1.354,0.811-2.229,2.891-3.072c-0.709-0.61-1.172-1.437-1.172-2.147c0-1.156,0.893-1.916,2.246-1.916
				c1.223,0,2.098,0.661,2.098,1.603c0,0.76-0.66,1.503-1.867,2.098c1.074,0.727,2.082,1.734,2.875,2.925
				c0.777-0.975,2.066-2.825,2.066-3.271c0-0.231-0.184-0.331-0.91-0.331v-0.298H174.967z M167.17,51.198
				c0.959,0,2.197-0.644,2.908-1.503c-0.727-1.222-1.752-2.313-3.139-3.271c-1.256,0.876-1.768,1.652-1.768,2.677
				C165.172,50.356,165.98,51.198,167.17,51.198z M167.666,42.494c-0.678,0-1.09,0.463-1.09,1.189c0,0.693,0.412,1.371,1.223,1.981
				c0.76-0.445,1.072-0.958,1.072-1.784C168.871,43.039,168.393,42.494,167.666,42.494z"/>
		</g>
		<g>
			<path fill="#231F20" d="M113.42,63.577c-0.379,1.299-0.695,1.706-1.752,1.706h-2.326c-0.559,0-0.814-0.136-0.814-0.83v-3.217
				h2.553c0.617,0,0.904,0.121,1.025,1.193h0.287v-2.869h-0.287c-0.076,0.876-0.332,1.132-0.875,1.132h-2.703v-3.714h3.186
				c0.545,0,0.922,0.271,1.117,1.556h0.271l-0.119-2.1h-7.248v0.287h0.33c1.012,0,1.209,0.362,1.209,1.208v6.372
				c0,0.898-0.211,1.231-1.393,1.237c-0.547-0.007-1.037-0.343-1.727-1.393l-1.777-2.699c1.842-0.634,1.979-2.037,1.979-2.445
				c0-1.254-0.891-1.933-1.512-2.234c-0.648-0.318-1.328-0.454-2.521-0.454c-1.283,0-2.566,0.061-3.834,0.167v0.271
				c1.236,0,1.465,0.286,1.465,1.042v6.07c0,1.299,0,1.691-1.451,1.691v0.271h4.32v-0.271c-1.512,0-1.617-0.348-1.617-1.661V61.87
				h2.008c0.213,0.242,1.059,1.586,1.254,1.888c1.314,2.023,2.268,2.068,3.355,2.069l0,0h7.627l0.242-2.25H113.42z M101.486,61.433
				c-0.529,0.151-1.012,0.167-1.676,0.167h-0.605v-4.984c0.83-0.015,1.783-0.045,2.508,0.303c1.012,0.483,1.207,1.54,1.207,2.145
				C102.92,59.968,102.527,61.131,101.486,61.433z"/>
			<path fill="#231F20" d="M138.627,63.577c-0.379,1.299-0.695,1.706-1.752,1.706h-2.326c-0.559,0-0.814-0.136-0.814-0.83v-3.217
				h2.553c0.617,0,0.904,0.121,1.025,1.193h0.287v-2.869h-0.287c-0.076,0.876-0.332,1.132-0.875,1.132h-2.703v-3.714h3.186
				c0.545,0,0.922,0.271,1.117,1.556h0.273l-0.121-2.1h-7.248v0.287h0.33c1.012,0,1.209,0.362,1.209,1.208v6.372
				c0,0.898-0.211,1.231-1.393,1.237c-0.547-0.007-1.037-0.343-1.727-1.393l-1.777-2.699c1.842-0.634,1.979-2.037,1.979-2.445
				c0-1.254-0.891-1.933-1.512-2.234c-0.648-0.318-1.328-0.454-2.521-0.454c-1.281,0-2.566,0.061-3.834,0.167v0.271
				c1.238,0,1.465,0.286,1.465,1.042v6.07c0,1.299,0,1.691-1.451,1.691v0.271h4.32v-0.271c-1.512,0-1.615-0.348-1.615-1.661V61.87
				h2.006c0.213,0.242,1.059,1.586,1.254,1.888c1.314,2.023,2.268,2.068,3.355,2.069l0,0h7.627l0.242-2.25H138.627z M126.693,61.433
				c-0.529,0.151-1.012,0.167-1.676,0.167h-0.604v-4.984c0.828-0.015,1.781-0.045,2.506,0.303c1.012,0.483,1.207,1.54,1.207,2.145
				C128.127,59.968,127.734,61.131,126.693,61.433z"/>
			<g>
				<path fill="#231F20" d="M179.746,65.822c-1.123,0-2.102,0-3.451-2.077c-0.195-0.302-1.045-1.651-1.258-1.894h-2.014v2.031
					c0,1.318,0.104,1.666,1.621,1.666v0.273h-4.336v-0.273c1.455,0,1.455-0.394,1.455-1.696V57.76c0-0.757-0.227-1.045-1.469-1.045
					v-0.272c1.273-0.106,2.561-0.168,3.848-0.168c1.197,0,1.881,0.137,2.531,0.455c0.621,0.304,1.516,0.984,1.516,2.243
					c0,0.408-0.137,1.817-1.986,2.455l1.85,2.803c0.697,1.062,1.162,1.243,1.662,1.318L179.746,65.822z M173.023,61.579h0.605
					c0.666,0,1.15-0.016,1.682-0.166c1.045-0.304,1.439-1.471,1.439-2.38c0-0.606-0.197-1.667-1.213-2.152
					c-0.727-0.349-1.682-0.317-2.514-0.303V61.579z"/>
				<path fill="#231F20" d="M179.676,63.52c0.318,1.349,1.379,2.136,2.561,2.136c1.016,0,2.092-0.591,2.092-1.788
					c0-2.182-4.865-2.849-4.865-5.501c0-1.258,1.152-2.197,2.697-2.197c1.273,0,1.531,0.379,2.061,0.379
					c0.121,0,0.184-0.03,0.275-0.152h0.24l0.26,1.925h-0.26c-0.424-1.091-1.395-1.788-2.439-1.788c-1,0-1.697,0.576-1.697,1.426
					c0,2.151,5.307,2.789,5.307,5.577c0,1.484-1.76,2.529-3.535,2.529c-0.83,0-1.893-0.409-2.105-0.409
					c-0.135,0-0.242,0.075-0.303,0.167h-0.258l-0.318-2.303H179.676z"/>
			</g>
			<path fill="#231F20" d="M73.1,62.435h-0.287c-0.121-1.072-0.408-1.192-1.027-1.192h-2.553v3.216c0,0.695,0.258,0.831,0.816,0.831
				h2.324c1.059,0,1.375-0.408,1.752-1.707h0.273l-0.242,2.25h-8.02v-0.287h0.424c1.207,0,1.42-0.332,1.42-1.237v-6.373
				c0-0.845-0.197-1.208-1.209-1.208h-0.332v-0.287h7.248l0.121,2.1h-0.271c-0.197-1.283-0.574-1.556-1.119-1.556h-3.186v3.715
				h2.703c0.543,0,0.801-0.256,0.877-1.132H73.1V62.435z"/>
			<path fill="#231F20" d="M84.535,65.938l-7.822-8.184v6.478c0,1.088,0.242,1.313,1.525,1.313v0.287h-3.502v-0.287h0.061
				c0.936,0,1.238-0.317,1.238-1.011v-7.43c-0.348-0.242-0.74-0.362-1.27-0.378v-0.287h2.371l7.111,7.415v-6.01
				c0-0.921-0.271-1.088-1.479-1.118v-0.287h3.533v0.287c-1.133,0-1.375,0.197-1.375,0.786v8.425H84.535z"/>
			<path fill="#231F20" d="M92.02,64.443c0,0.814,0.273,1.102,1.195,1.102h0.557v0.287h-4.756v-0.287h0.559
				c0.922,0,1.193-0.287,1.193-1.102v-7.46h-2.627c-0.605,0-0.877,0.348-1.104,1.676h-0.271l0.242-2.445h0.287
				c0.014,0.09,0.076,0.151,0.166,0.181c0.09,0.03,0.195,0.045,0.301,0.045h7.264c0.211,0,0.438-0.045,0.469-0.226h0.287l0.24,2.445
				H95.75c-0.227-1.328-0.498-1.676-1.102-1.676H92.02V64.443z"/>
			<path fill="#231F20" d="M116.723,64.383c0,0.845,0.258,1.162,1.209,1.162h0.498v0.287h-4.184v-0.287h0.213
				c0.785,0,1.012-0.166,1.012-0.876v-7.142c0-0.559-0.182-0.801-0.711-0.801h-0.754v-0.287c0.422-0.015,1.162-0.06,1.902-0.09
				c0.74-0.031,1.465-0.046,1.871-0.046c3.156,0,3.883,1.511,3.883,2.674c0,1.767-1.42,2.883-3.654,2.883
				c-0.453,0-0.832-0.029-1.285-0.121V64.383z M116.723,61.454c0.197,0.045,0.529,0.12,0.816,0.12c1.646,0,2.703-1.117,2.703-2.643
				c0-1.178-0.469-2.341-2.477-2.341c-0.348,0-0.68,0-1.043,0.061V61.454z"/>
			<path fill="#231F20" d="M149.064,65.938l-7.82-8.184v6.478c0,1.088,0.24,1.313,1.523,1.313v0.287h-3.502v-0.287h0.059
				c0.938,0,1.24-0.317,1.24-1.011v-7.43c-0.348-0.242-0.74-0.362-1.27-0.378v-0.287h2.371l7.111,7.415v-6.01
				c0-0.921-0.271-1.088-1.479-1.118v-0.287h3.533v0.287c-1.133,0-1.373,0.197-1.373,0.786v8.425H149.064z"/>
			<path fill="#231F20" d="M157.311,62.435h-0.287c-0.121-1.072-0.408-1.192-1.027-1.192h-2.551v3.216
				c0,0.695,0.256,0.831,0.814,0.831h2.326c1.057,0,1.373-0.408,1.75-1.707h0.273l-0.242,2.25h-8.018v-0.287h0.422
				c1.209,0,1.42-0.332,1.42-1.237v-6.373c0-0.845-0.197-1.208-1.209-1.208h-0.33v-0.287h7.246l0.121,2.1h-0.271
				c-0.195-1.283-0.574-1.556-1.117-1.556h-3.186v3.715h2.701c0.545,0,0.801-0.256,0.877-1.132h0.287V62.435z"/>
			<path fill="#231F20" d="M170.293,56.439v0.287c-1.012,0.016-1.373,0.423-1.373,1.39v4.077c0,1.872-1.195,3.881-4.471,3.881
				c-2.885,0-4.363-1.646-4.363-3.806v-4.409c0-0.967-0.273-1.117-1.299-1.133v-0.287h3.881v0.287h-0.137
				c-0.83,0-1.193,0.228-1.193,1.103v4.197c0,2.039,1.193,3.263,3.443,3.263c1.707,0,3.443-0.71,3.443-3.277v-3.519
				c0-1.449-0.227-1.705-1.48-1.767v-0.287H170.293z"/>
			<path fill="#231F20" d="M188.348,61.348v2.868c0,0.982,0.197,1.329,1.209,1.329h0.045v0.287h-3.789v-0.287h0.09
				c0.891,0,1.193-0.241,1.193-1.102V57.8c0-0.786-0.258-1.012-1.088-1.073v-0.287h3.594v0.287c-1.072,0-1.254,0.287-1.254,1.45
				v2.627h5.92v-2.975c0-0.801-0.256-1.103-1.193-1.103h-0.285v-0.287h3.879v0.287c-0.906,0.03-1.146,0.302-1.146,1.239v6.266
				c0,1.072,0.301,1.313,1.207,1.313h0.152v0.287h-4.275v-0.287h0.469c0.982,0,1.193-0.347,1.193-1.132v-3.065H188.348z"/>
			<path fill="#231F20" d="M201.164,65.832h-3.67v-0.287c0.936-0.045,1.133-0.287,1.133-1.298v-6.433
				c0-0.815-0.287-1.042-1.133-1.088v-0.287h3.67v0.287c-0.951,0-1.283,0.212-1.283,1.224v6.402c0,0.891,0.24,1.192,1.283,1.192
				V65.832z"/>
			<path fill="#231F20" d="M204.486,64.383c0,0.845,0.256,1.162,1.207,1.162h0.498v0.287h-4.182v-0.287h0.211
				c0.785,0,1.012-0.166,1.012-0.876v-7.142c0-0.559-0.182-0.801-0.709-0.801h-0.756v-0.287c0.424-0.015,1.164-0.06,1.902-0.09
				c0.74-0.031,1.465-0.046,1.873-0.046c3.156,0,3.881,1.511,3.881,2.674c0,1.767-1.42,2.883-3.654,2.883
				c-0.453,0-0.83-0.029-1.283-0.121V64.383z M204.486,61.454c0.195,0.045,0.527,0.12,0.814,0.12c1.646,0,2.703-1.117,2.703-2.643
				c0-1.178-0.469-2.341-2.477-2.341c-0.348,0-0.68,0-1.041,0.061V61.454z"/>
		</g>
	</g>
</g>
</svg>
