<?xml version="1.0" encoding="utf-8"?>
<!-- Generator: Adobe Illustrator 18.1.1, SVG Export Plug-In . SVG Version: 6.00 Build 0)  -->
<svg version="1.1" id="Layer_1" xmlns="http://www.w3.org/2000/svg" xmlns:xlink="http://www.w3.org/1999/xlink" x="0px" y="0px"
	 width="188.8px" height="36px" viewBox="-343.4 343 188.8 36" enable-background="new -343.4 343 188.8 36" xml:space="preserve">
<g id="guides">
</g>
<g id="Layer_2">
	<g>
		<g>
			<g>
				<g>
					<circle fill="#FFFFFF" cx="-325.2" cy="360.8" r="12.6"/>
				</g>
				<path fill="#FFD420" d="M-312.5,360.6c0,0.1-0.2,0.2-0.5,0.4c0,0,0,0,0,0c-0.3,0.2-0.8,0.3-1.4,0.5c-0.6,0.2-1.3,0.3-2.1,0.4
					c-0.8,0.1-1.7,0.2-2.7,0.3c0,0,0,0,0,0c-1.2,0.1-2,0.2-3,0.2c-1,0-2.1,0.1-3.2,0.1c0,0.1,0,0.3,0,0.4c0,1,0,1.9,0,2.8
					c0,4.9,0,4.9,0.2,7.8c7,0,12.6-5.7,12.6-12.6C-312.5,360.8-312.5,360.7-312.5,360.6z"/>
				<path fill="#231F20" d="M-320.5,372.2L-320.5,372.2L-320.5,372.2z"/>
				<g>
					<path fill="#231F20" d="M-325.4,362.9c0,1,0,1.9,0,2.8c2,1.9,2,1.9,2.9,2.8c0.2-1.6,0.3-3.5,0.3-5.6c0-0.1,0-0.3,0-0.4
						c-1.3,0.1-2.1,0.1-3.2,0.1C-325.4,362.6-325.4,362.7-325.4,362.9z"/>
					<path fill="#231F20" d="M-320.7,370.6c-0.4-0.7-0.8-1.2-1.8-2.2c-0.4,3.1-1.2,5-2.1,5c0.1,0,0.2,0,0.3,0c0.1,0,0.2,0,0.3,0
						C-322.7,373.3-321.6,372.3-320.7,370.6z"/>
					<path fill="#231F20" d="M-319.3,365.4c0,0-0.7,3.8-1.4,5.2c0.4,0.8,0.4,1.1,0.3,1.6c1.2-0.9,2.2-2.3,2.9-4.1
						C-318,367.2-318.3,366.7-319.3,365.4z"/>
					<path fill="#231F20" d="M-322.9,373.3c0.3,0,0.3-0.1,0.8-0.2l0.3-0.1c0.9-0.3,1.1-0.4,1.4-0.9c-0.8,0.6-1.7,1-2.7,1.2
						L-322.9,373.3z"/>
					<path fill="#231F20" d="M-317.3,370.2c1.8-2.1,2.9-5,2.9-8.3c0-0.1,0-0.3,0-0.4c-0.6,0.2-1.3,0.3-2.1,0.4c0,0.1,0,0.3,0,0.4
						c0,2.2-0.4,4.1-1,5.8C-317.1,369.1-317.1,369.5-317.3,370.2z"/>
					<path fill="#231F20" d="M-319.1,362.2c-1.2,0.1-2,0.2-3,0.2c1.7,1.8,2.1,2.2,2.8,3.1c0.1-0.9,0.2-1.8,0.2-2.8
						C-319.1,362.5-319.1,362.3-319.1,362.2z"/>
				</g>
				<path fill="#231F20" d="M-327.9,348.8c0.7-0.3,1.4-0.6,2.7-0.7l0,0C-326.1,348.3-327.1,348.5-327.9,348.8"/>
				<g>
					<path fill="#E03A3E" d="M-316.7,361.9c-0.7-0.1-1.2-1.2-0.9-2.3c-0.9,0.6-2-0.7-1.8-1.9c0.1-0.6,0.5-1.2,1.2-1
						c-0.3-1-0.7-2-1.1-2.9c-0.7,0.1-1.4,0.2-2.1,0.2c0.7,1,0,2-0.9,1.8c-0.7-0.1-1.3-0.8-1.1-1.7c-0.6,0.4-1.7,0.2-1.8-1
						c0,2.6,0,5.9,0,9.3c3.4,0,7.3-0.3,8.9-0.6c0,0,0,0,0,0C-316.6,361.9-316.6,361.9-316.7,361.9z"/>
				</g>
				<g>
					<path fill="#E03A3E" d="M-333.3,364.4c0.9-0.4,2.1,1.3,1.7,2.3c-0.2,0.5-0.7,0.6-1.2,0.3c0.3,0.9,0.6,1.8,1.1,2.6
						c0.7,0.1,1.4,0.2,2.2,0.2c-0.7-0.8-0.1-1.5,0.7-1.4c0.8,0,1.7,0.7,1.5,1.5c0.7-0.3,1.8-0.1,2,0.8c0-1.9-0.1-4.7-0.1-8
						c0-0.1,0-0.3,0-0.4c-1.1,0-2.1,0-3.2-0.1c-2.3-0.1-3.8-0.2-5.8-0.6c0,0,0,0,0,0C-333.4,362.1-333.1,363.6-333.3,364.4z"/>
				</g>
				<path fill="#E03A3E" d="M-319.2,352.8L-319.2,352.8L-319.2,352.8C-319.2,352.8-319.2,352.8-319.2,352.8L-319.2,352.8
					C-319.2,352.8-319.2,352.8-319.2,352.8c0.1,0,0.3,0,0.4-0.1c0.7-0.1,2.4-0.5,2.4-1c0,0,0.6,0.6,1.1,1.5c0.1,0.1,0.1,0.2,0.1,0.3
					c0.1,0.2,0.1,0.3,0.1,0.4c0,0.3-0.2,0.3-0.4,0.2c0,0,0,0-0.1,0c-0.6-0.3-0.9-0.9-1-1.1c-0.3,0.1-0.9,0.3-1.3,0.4
					c-0.1,0-0.2,0-0.2,0c0.5,0.9,1,1.9,1.4,3c0.6-0.7,1.6,0.6,1.7,1.7c0,0.7-0.3,1.3-0.9,1.1c0.5,0.9,0.3,2.3-0.6,2.6
					C-316.6,358.8-317.2,356.1-319.2,352.8L-319.2,352.8L-319.2,352.8"/>
				<path fill="#E03A3E" d="M-319.2,352.8L-319.2,352.8L-319.2,352.8L-319.2,352.8L-319.2,352.8c-1.6-2.5-2.9-3.4-4.5-4
					c-0.3-0.1-1.4-0.6-1.5-0.6l0,0l0,0c0.3,0.4,0.9,0.7,1,0.7c0,0.2,0,0.5,0.5,0.8c0.1,0.1,0.2,0.1,0.2,0.1c0.8,0.4,1,0.1,1,0
					c0,0,0,0,0,0c0.3,0.2,0.7,0.6,1.3,1.2c0.3,0.4,0.6,0.7,0.8,1c-0.5,0.1-1.2,0.1-1.9,0.2c0-0.8-0.6-1.2-1-1.3
					c-0.8-0.3-1.1,0.6-0.7,1.3c-0.6-0.3-1.4,0-1.5,1C-322.8,353.1-321.1,353-319.2,352.8L-319.2,352.8L-319.2,352.8"/>
				<path fill="#E03A3E" d="M-319,350.5C-319,350.5-319,350.4-319,350.5c0-0.1,0-0.1,0-0.1s0,0,0.1-0.1c0.1-0.1,0.5-0.1,1.6,0.6
					c-2.2-1.7-4.6-2.4-6.6-2.6c-0.3,0-0.8-0.1-0.8-0.1c0.6,0.1,1.1,0.2,1.2,0.3c0.1,0,0.1,0.1,0.2,0.1c0,0,0,0,0,0
					c0.1,0,0.3,0,0.5,0.1c0.2,0.1,0.5,0.2,0.8,0.3c0.3,0.1,0.7,0.4,0.7,0.6c-0.1,0-0.1,0.1-0.3,0c0.7,0.5,1.8,1.5,2.5,2.3
					c0.4-0.1,1.1-0.2,1.4-0.3C-317.8,351.6-318.8,350.9-319,350.5z"/>
				<path fill="#E03A3E" d="M-331.9,370.4c-1.1-0.2-1.7-0.4-2.1-0.6c-0.1,0-0.1,0-0.1,0c0,0-0.6-0.6-1.2-1.3
					c-0.4-0.5-0.7-1.1-0.8-1.1c0,0,0.1,0,0.1,0c0.6,0.2,1.5,1.7,1.5,1.8c0.4,0.1,0.8,0.3,1.4,0.4c-0.5-0.8-1-1.7-1.3-2.6
					c-0.8,0.4-1.8-1.7-1.5-2.6c0.1-0.2,0.3-0.6,0.8-0.1c-0.4-0.9-0.3-2.3,0.7-2.3C-334.3,364.9-333.9,367.5-331.9,370.4"/>
				<path fill="#E03A3E" d="M-325.3,371c-0.1,0.4-0.7,0.9-1.6,0.5c0.4,0.5,0.1,1-0.7,0.9c-0.6-0.1-1.2-0.5-1.3-1
					c-0.7-0.1-1.3-0.1-1.9-0.2c0.5,0.6,1.1,1.1,1.8,1.5c0.1,0,0.2,0,0.6,0.1c0.5,0.2,0.9,0.4,1.4,0.6l-0.1,0
					c-0.4-0.1-0.5-0.1-0.7-0.1c-0.9-0.2-2.6-0.7-4.2-2.8l0,0l0,0l0,0c2,0.3,3.9,0.4,6.6,0.5C-325.3,370.9-325.3,371-325.3,371"/>
				<path fill="#FFD420" d="M-325.2,348.2c-6.8,0-12.5,5.5-12.6,12.4l0,0c0,0,0.1,0.1,0.3,0.3l0,0l0,0c0.3,0.2,0.7,0.3,1.2,0.5
					c0.6,0.2,1.3,0.3,1.9,0.4l0,0c1.9,0.3,3.5,0.5,5.8,0.6c1.1,0,2.2,0.1,3.2,0.1c0-0.6,0-4.3,0-7.9c0-0.5,0-0.9,0-1.4
					C-325.3,350.9-325.2,348.5-325.2,348.2L-325.2,348.2z"/>
				<path fill="#231F20" d="M-319.1,372c-0.7,0.4-0.9,0.4-1.8,0.8c-0.3,0.1-0.5,0.2-0.8,0.3c1.7-0.5,4-2.4,4.4-2.8
					c-0.2,0.5-0.4,0.8-0.9,1.2C-318.3,371.5-318.9,371.8-319.1,372z"/>
				<path fill="#231F20" d="M-336.3,361.4c-0.5-0.1-0.9-0.3-1.2-0.5c0.1-4.6,2.7-8.6,6.4-10.9c-0.9,0.8-1.3,1.2-1.7,2.3
					C-334.9,354.7-336.2,358-336.3,361.4"/>
				<path fill="#231F20" d="M-331.1,350.1c0.9-0.7,1.5-1.2,2.9-1.5c1-0.2,1.9-0.4,3-0.4l0,0C-327.3,348.3-329.3,349-331.1,350.1"/>
				<path fill="#231F20" d="M-331.8,362.2c-0.9-0.1-1.8-0.2-2.6-0.3c0.1-2.3,0.5-4.5,1.4-6.4c0.3,1.3,0.6,2,1.5,3.5
					C-331.6,359.9-331.7,361-331.8,362.2"/>
				<path fill="#231F20" d="M-325.3,353.2c0,1.4,0,2.8,0,3.9c0,1.1,0,1.9,0,2c-1.2-1.3-1.9-2-2.8-3.2c0.6-3.9,1.7-7,3-7.8l0,0l0,0
					C-325.2,348.6-325.3,350.8-325.3,353.2z"/>
				<g>
					<path fill="#231F20" d="M-329.8,353c-0.8,1.7-1.4,3.7-1.7,5.8c0.8,1.1,1.3,1.8,2.8,3.5c0-2.3,0.2-4.5,0.5-6.4
						C-329.1,354.7-329.4,354.1-329.8,353z"/>
				</g>
				<path fill="#231F20" d="M-313,361c0,0.1,0,0.3,0,0.4c0,4.5-2.2,8.2-5.6,10.2l-0.1,0.1c1.6-1,3.6-2.7,4.9-5.4
					c1.4-2.7,1.2-5.7,1.2-5.7C-312.6,360.7-312.8,360.8-313,361z"/>
				<g>
					<path fill="#231F20" d="M-327.9,348.8c-1.8,0.7-3.5,2-4.9,3.5c-0.4,1.1-0.4,1.8-0.2,3c0.8-1.9,2-3.6,3.3-4.8
						C-329.2,349.8-329,349.4-327.9,348.8z"/>
				</g>
				<path fill="#231F20" d="M-329.8,353c-0.2-1-0.2-1.6,0.1-2.5c1.3-1.2,2.8-2.1,4.5-2.4C-327,348.7-328.6,350.5-329.8,353"/>
				<path fill="#231F20" d="M-340.4,351.5L-340.4,351.5c-0.1,0.3,0,0.4,0.3,0.6l1,0.5c0.5,0.2,0.8,0.8,0.4,1.6
					c-0.4,0.7-1,0.9-1.5,0.6l-1.1-0.6c-0.2-0.1-0.3-0.1-0.4,0.2l-0.1,0l0.5-1l0.1,0l0,0c-0.1,0.2-0.1,0.3,0.1,0.4l1.1,0.5
					c0.5,0.3,1,0.1,1.3-0.5c0.2-0.4,0.3-1-0.4-1.3l-0.9-0.4c-0.4-0.2-0.5-0.2-0.6,0.2l-0.1,0L-340.4,351.5z"/>
				<path fill="#231F20" d="M-336,350.2l-3.2,0.2l1.4,1.2c0.2,0.2,0.3,0.2,0.6-0.1l0.1,0.1l-0.6,0.8l-0.1-0.1l0,0
					c0.2-0.2,0.2-0.3,0-0.4l-1.6-1.4c-0.1,0-0.2,0.1-0.3,0.2l-0.1-0.1l0.4-0.5l2.9-0.2l-1.3-1.1c-0.2-0.2-0.3-0.1-0.5,0.1l-0.1-0.1
					l0.6-0.8l0.1,0.1c-0.2,0.2-0.2,0.3-0.1,0.4L-336,350.2L-336,350.2z"/>
				<path fill="#231F20" d="M-334.5,348.8l-0.8,0.7l-0.1-0.1c0.2-0.2,0.2-0.3,0-0.5l-1.2-1.4c-0.1-0.2-0.3-0.2-0.4,0l-0.1-0.1
					l0.8-0.7l0.1,0.1c-0.2,0.2-0.2,0.3-0.1,0.5l1.2,1.4C-334.8,348.9-334.7,349-334.5,348.8L-334.5,348.8z"/>
				<path fill="#231F20" d="M-332.9,347.9l-2-1.5c-0.2-0.2-0.3-0.2-0.5-0.1l0-0.1l1-0.6l0,0.1c-0.3,0.2-0.4,0.3-0.2,0.5l1.6,1.3
					l-0.3-1.9c0-0.1,0-0.2-0.1-0.3c-0.1-0.1-0.2-0.1-0.4,0l0-0.1l0.9-0.5l0,0.1c-0.2,0.1-0.2,0.3-0.2,0.5l0.4,2.4L-332.9,347.9z"/>
				<path fill="#231F20" d="M-329.8,345.4L-329.8,345.4c-0.2-0.2-0.3-0.3-0.5-0.2l-0.7,0.2l0.3,0.9c0.1,0.2,0.1,0.2,0.3,0.1l0.6-0.2
					c0.3-0.1,0.3-0.2,0.3-0.6l0.1,0l0.1,0.6l-2.1,0.7l0-0.1l0.1,0c0.3-0.1,0.3-0.2,0.3-0.5l-0.6-1.7c-0.1-0.2-0.2-0.3-0.4-0.2
					l-0.1,0l0-0.1l1.9-0.7l0.2,0.5l-0.1,0c-0.2-0.3-0.3-0.4-0.4-0.3l-0.9,0.3l0.3,1l0.7-0.2c0.1-0.1,0.2-0.1,0.1-0.4l0.1,0
					L-329.8,345.4z"/>
				<path fill="#231F20" d="M-328.1,343.3c0.1,0,0.1,0,0.2,0c0.7-0.1,0.9,0.2,0.9,0.6c0.1,0.5-0.2,0.7-0.7,0.8c-0.1,0-0.2,0-0.3,0
					L-328.1,343.3z M-328,344.8c0.1,0,0.1,0,0.2,0c0.1,0,0.2,0,0.3,0c0.1,0.1,0.3,0.2,0.5,0.3l0.3,0.2c0.4,0.3,0.6,0.5,1.4,0.3
					l0-0.1c-0.3,0-0.6-0.1-0.9-0.3l-0.4-0.3c-0.2-0.2-0.4-0.3-0.5-0.4c0.3-0.1,0.5-0.4,0.5-0.8c-0.1-0.4-0.4-0.7-1.2-0.6
					c-0.3,0-0.4,0-0.5,0.1c-0.2,0-0.4,0.1-0.5,0.1l0,0.1l0.1,0c0.2,0,0.3,0,0.4,0.3l0.2,1.8c0,0.3,0,0.4-0.3,0.4l-0.1,0l0,0.1
					l1.2-0.1l0-0.1l-0.1,0c-0.2,0-0.3,0-0.4-0.3L-328,344.8z"/>
				<path fill="#231F20" d="M-324.7,345c0.1,0.4,0.3,0.6,0.7,0.7c0.3,0,0.6-0.1,0.6-0.5c0-0.6-1.3-0.9-1.2-1.6
					c0-0.4,0.4-0.6,0.8-0.6c0.4,0,0.4,0.1,0.6,0.2c0,0,0.1,0,0.1,0l0.1,0l0,0.5l-0.1,0c-0.1-0.3-0.4-0.5-0.6-0.6
					c-0.3,0-0.5,0.1-0.5,0.4c0,0.6,1.3,0.9,1.2,1.7c0,0.4-0.4,0.7-0.9,0.7c-0.2,0-0.5-0.2-0.6-0.2c0,0-0.1,0-0.1,0l-0.1,0
					L-324.7,345L-324.7,345z"/>
				<path fill="#231F20" d="M-321.4,346.1l-1-0.2l0-0.1c0.3,0,0.3,0,0.4-0.3l0.4-1.8c0-0.2,0-0.3-0.2-0.4l0-0.1l1,0.2l0,0.1
					c-0.3-0.1-0.4,0-0.4,0.3l-0.4,1.8C-321.7,345.9-321.7,346-321.4,346.1L-321.4,346.1z"/>
				<path fill="#231F20" d="M-319.3,346.4c-0.1,0.2,0,0.3,0.2,0.4l0.1,0.1l0,0.1l-1.2-0.5l0-0.1l0.1,0.1c0.2,0.1,0.3,0,0.4-0.2
					l0.8-2l-0.7-0.3c-0.2-0.1-0.3,0-0.5,0.3l-0.1,0l0.3-0.6l0.1,0c0,0,0,0,0,0.1c0,0,0,0,0.1,0l1.9,0.8c0.1,0,0.1,0,0.1,0l0.1,0
					l-0.2,0.7l-0.1,0c0.1-0.4,0-0.5-0.1-0.6l-0.7-0.3L-319.3,346.4z"/>
				<path fill="#231F20" d="M-314.9,346.7c0.2-0.1,0.2-0.2,0-0.4l0-0.1l0.8,0.5l0,0.1c-0.3-0.1-0.4-0.1-0.6,0l-1.3,0.6l-0.4,0.5
					c-0.1,0.2-0.1,0.3,0.1,0.5l0,0l0,0.1l-1-0.6l0-0.1l0.1,0c0.2,0.1,0.3,0.1,0.5-0.1l0.3-0.5l0-1.4c0-0.4,0-0.5-0.3-0.7l0-0.1
					l0.9,0.6l0,0.1c-0.3-0.2-0.3-0.1-0.3,0.1l0,1.3L-314.9,346.7z"/>
				<path fill="#231F20" d="M-311.4,351.8c-0.5,0.4-1.2,0.5-1.6-0.1c-0.4-0.5-0.3-1.3,0.3-1.8c0.4-0.3,1.1-0.5,1.6,0.1
					C-310.6,350.6-310.8,351.3-311.4,351.8z M-311.1,352c0.6-0.5,0.6-1.3,0.1-2c-0.5-0.7-1.4-0.9-2.1-0.4c-0.6,0.5-0.6,1.4-0.1,2
					C-312.6,352.4-311.7,352.5-311.1,352z"/>
				<path fill="#231F20" d="M-310.2,354.7L-310.2,354.7c0.2-0.2,0.2-0.3,0.1-0.5l-0.3-0.7l-0.8,0.4c-0.2,0.1-0.3,0.2-0.1,0.5l-0.1,0
					l-0.4-0.9l0.1,0c0.1,0.2,0.2,0.2,0.5,0.1l1.5-0.7c0.2-0.1,0.4-0.2,0.2-0.5l0.1,0l0.8,1.7l-0.5,0.2l0-0.1
					c0.2-0.1,0.3-0.2,0.2-0.5l-0.3-0.7l-0.9,0.4l0.4,0.8c0.1,0.1,0.2,0.2,0.4,0.1l0,0.1L-310.2,354.7z"/>
				<path fill="#231F20" d="M-340,371.3l1.5-2.8l0,0l-2.1,1.3c-0.2,0.1-0.2,0.4,0,0.6l-0.1,0.1l-0.7-0.9l0.1-0.1
					c0.2,0.3,0.3,0.3,0.7,0l1.8-1.1c0.3-0.2,0.4-0.3,0.2-0.5l0.1-0.1l0.5,0.7l-1.4,2.7l3-0.6l0.5,0.6l-0.1,0.1
					c-0.2-0.2-0.2-0.3-0.4-0.2l-1.9,1.6c-0.4,0.3-0.4,0.4-0.1,0.7l-0.1,0.1l-0.8-1.1l0.1-0.1c0.1,0.2,0.4,0.4,0.6,0.2l1.9-1.6l0,0
					l-3.1,0.6L-340,371.3z"/>
				<path fill="#231F20" d="M-334.6,374.3l-0.8-0.6l1.1-0.7L-334.6,374.3z M-334.7,374.5l-0.3,1c0,0.1,0,0.1-0.1,0.2
					c-0.1,0.1-0.2,0.1-0.5-0.1l-0.1-0.1l-0.1,0.1l1.2,0.9l0.1-0.1c-0.2-0.2-0.3-0.3-0.2-0.6l0.9-3.1l-0.4-0.3l0,0.1l-2.4,1.6
					c-0.4,0.3-0.5,0.3-0.8,0.1l-0.1,0.1l1,0.7l0.1-0.1l-0.1-0.1c-0.2-0.2-0.3-0.3-0.2-0.4c0-0.1,0.2-0.2,0.3-0.2l0.8-0.5
					L-334.7,374.5z"/>
				<path fill="#231F20" d="M-331.2,374.5c0.1,0,0.2,0,0.3,0.1c0.8,0.3,0.9,0.7,0.7,1.2c-0.2,0.6-0.7,0.7-1.2,0.5
					c-0.1,0-0.2-0.1-0.3-0.1L-331.2,374.5z M-331.8,376.2c0.1,0,0.1,0.1,0.3,0.1c0.1,0,0.2,0.1,0.4,0.1c0.1,0.1,0.2,0.3,0.4,0.6
					l0.2,0.5c0.3,0.6,0.5,0.9,1.4,1.2l0-0.1c-0.4-0.2-0.6-0.5-0.8-0.9l-0.3-0.5c-0.2-0.3-0.3-0.5-0.4-0.7c0.5,0,0.8-0.2,1-0.6
					c0.2-0.5-0.1-1.1-1.1-1.4c-0.3-0.1-0.4-0.1-0.6-0.2c-0.2-0.1-0.5-0.2-0.7-0.2l0,0.1l0.1,0c0.3,0.1,0.4,0.2,0.2,0.5l-0.8,2.2
					c-0.1,0.3-0.3,0.4-0.6,0.3l-0.1,0l0,0.1l1.5,0.5l0-0.1l-0.1,0c-0.3-0.1-0.4-0.2-0.3-0.5L-331.8,376.2z"/>
				<path fill="#231F20" d="M-325.6,376.1c0.2-0.3,0.1-0.4-0.2-0.4l0-0.1l1.2,0.1l0,0.1c-0.4,0-0.5,0.1-0.7,0.4l-1,1.4l-0.1,0.8
					c0,0.3,0.1,0.4,0.4,0.4l0.1,0l0,0.1l-1.5-0.1l0-0.1l0.1,0c0.3,0,0.4-0.1,0.5-0.4l0.1-0.8l-0.8-1.6c-0.2-0.4-0.4-0.5-0.7-0.6
					l0-0.1l1.4,0.1l0,0.1c-0.4,0-0.5,0.1-0.3,0.3l0.8,1.4L-325.6,376.1z"/>
				<path fill="#231F20" d="M-321.1,378.6l-2.4,0.4l0-0.1l0.2,0c0.2,0,0.3-0.1,0.3-0.4l-0.4-2.4c0-0.3-0.2-0.4-0.5-0.3l-0.1,0l0-0.1
					l1.6-0.3l0,0.1l-0.2,0c-0.4,0.1-0.4,0.1-0.4,0.4l0.4,2.5c0,0.1,0.1,0.2,0.2,0.2l0.8-0.1c0.3-0.1,0.4-0.2,0.6-0.7l0.1,0
					L-321.1,378.6z"/>
				<path fill="#231F20" d="M-318.5,375.9l-0.9,0.4l-0.1-1.3L-318.5,375.9z M-318.3,376l0.7,0.8c0,0,0.1,0.1,0.1,0.2
					c0.1,0.1,0,0.2-0.3,0.3l-0.1,0.1l0,0.1l1.4-0.6l0-0.1c-0.3,0.1-0.4,0.1-0.6-0.1l-2.2-2.4l-0.4,0.2l0.1,0.1l0.1,2.9
					c0,0.5,0,0.6-0.3,0.7l0,0.1l1.2-0.5l0-0.1l-0.1,0c-0.3,0.1-0.4,0.1-0.5,0c0-0.1,0-0.3,0-0.4l0-0.9L-318.3,376z"/>
				<path fill="#231F20" d="M-312.4,373.9l-4.1-0.5l1.5,1.8c0.2,0.3,0.4,0.3,0.7,0l0.1,0.1l-1,0.8l-0.1-0.1l0,0
					c0.3-0.2,0.3-0.4,0.1-0.6l-1.7-2.1c-0.2,0-0.3,0.1-0.4,0.2l-0.1-0.1l0.7-0.5l3.7,0.4l-1.4-1.7c-0.2-0.3-0.3-0.2-0.7,0l-0.1-0.1
					l1-0.8l0.1,0.1c-0.3,0.3-0.3,0.4-0.2,0.5l1.9,2.3L-312.4,373.9z"/>
				<path fill="#231F20" d="M-313.2,369.7c0-0.1,0.1-0.2,0.2-0.4c0.4-0.6,0.8-0.9,1.1-0.9c0.4-0.1,0.9,0.1,1.2,0.3
					c0.5,0.3,0.7,0.7,0.7,1c0.1,0.5,0,0.8-0.4,1.4c-0.2,0.4-0.3,0.3-0.5,0.2L-313.2,369.7z M-311.1,371.6c0.3,0.2,0.3,0.3,0.1,0.6
					l-0.1,0.1l0.1,0.1l0.9-1.5c0.7-1.2,0.3-2.2-0.4-2.7c-0.8-0.5-1.7-0.3-2.5,0.9c-0.2,0.2-0.3,0.5-0.5,0.8
					c-0.2,0.3-0.3,0.5-0.4,0.7l0.1,0.1l0.1-0.1c0.2-0.3,0.3-0.3,0.6-0.1L-311.1,371.6z"/>
				<path fill="#231F20" d="M-342.6,359.8v2.3c0,0.1,0,0.2,0.1,0.2h0.2v0.1h-1v-0.1h0.2c0.1,0,0.2,0,0.2-0.2v-2
					c-0.1,0.1-0.4,0.3-0.5,0.3l0-0.1c0.2-0.2,0.6-0.5,0.7-0.6L-342.6,359.8L-342.6,359.8z"/>
				<path fill="#231F20" d="M-340.3,361.8c0,0.3-0.2,0.6-0.5,0.6c-0.3,0-0.5-0.3-0.5-0.6c0-0.3,0.1-0.5,0.4-0.6
					C-340.5,361.3-340.3,361.5-340.3,361.8z M-340.1,360.4c0-0.3-0.3-0.6-0.7-0.6c-0.4,0-0.7,0.3-0.7,0.7c0,0.3,0.2,0.5,0.5,0.6
					c-0.4,0.2-0.6,0.4-0.6,0.7c0,0.4,0.3,0.7,0.8,0.7c0.4,0,0.8-0.3,0.8-0.7c0-0.3-0.2-0.5-0.6-0.7
					C-340.3,360.8-340.1,360.6-340.1,360.4z M-340.4,360.4c0,0.2-0.1,0.4-0.3,0.6c-0.5-0.2-0.6-0.4-0.6-0.6c0-0.3,0.2-0.5,0.5-0.5
					C-340.6,359.9-340.4,360.1-340.4,360.4z"/>
				<path fill="#231F20" d="M-310.2,360.1h1c0.1,0,0.1,0,0.1-0.1h0.1l0,0.3h-1l0,0.7c0.1-0.1,0.3-0.1,0.4-0.1c0.5,0,0.8,0.4,0.8,0.8
					c0,0.5-0.4,0.9-0.9,0.9c-0.3,0-0.6-0.1-0.6-0.3c0-0.1,0.1-0.1,0.1-0.1c0.2,0,0.3,0.3,0.5,0.3c0.3,0,0.6-0.3,0.6-0.7
					c0-0.4-0.3-0.6-0.6-0.6c-0.1,0-0.3,0.1-0.4,0.2l0,0L-310.2,360.1z"/>
				<path fill="#231F20" d="M-307.2,361.9c0,0.5-0.2,0.7-0.5,0.7c-0.3,0-0.5-0.2-0.5-0.9c0-0.1,0-0.2,0-0.3c0.2-0.2,0.4-0.2,0.5-0.2
					C-307.4,361.2-307.2,361.4-307.2,361.9z M-307.2,360c-0.8,0.2-1.4,0.8-1.4,1.6c0,0.6,0.3,1,0.8,1c0.4,0,0.8-0.4,0.8-0.8
					c0-0.4-0.3-0.7-0.7-0.7c-0.2,0-0.4,0.1-0.6,0.2C-308.1,360.7-307.7,360.3-307.2,360L-307.2,360z"/>
			</g>
		</g>
		<path fill="#231F20" d="M-293.6,362.7h-3.7v-0.3c0.9,0,1.1-0.3,1.1-1.3v-6.4c0-0.8-0.3-1-1.1-1.1v-0.3h3.7v0.3
			c-1,0-1.3,0.2-1.3,1.2v6.4c0,0.9,0.2,1.2,1.3,1.2V362.7z"/>
		<path fill="#231F20" d="M-282.6,362.8l-7.8-8.2v6.5c0,1.1,0.2,1.3,1.5,1.3v0.3h-3.5v-0.3h0.1c0.9,0,1.2-0.3,1.2-1V354
			c-0.3-0.2-0.7-0.4-1.3-0.4v-0.3h2.4l7.1,7.4v-6c0-0.9-0.3-1.1-1.5-1.1v-0.3h3.5v0.3c-1.1,0-1.4,0.2-1.4,0.8v8.4L-282.6,362.8
			L-282.6,362.8z"/>
		<path fill="#231F20" d="M-271.5,362.8l-7.8-8.2v6.5c0,1.1,0.2,1.3,1.5,1.3v0.3h-3.5v-0.3h0.1c0.9,0,1.2-0.3,1.2-1V354
			c-0.3-0.2-0.7-0.4-1.3-0.4v-0.3h2.4l7.1,7.4v-6c0-0.9-0.3-1.1-1.5-1.1v-0.3h3.5v0.3c-1.1,0-1.4,0.2-1.4,0.8v8.4L-271.5,362.8
			L-271.5,362.8z"/>
		<path fill="#231F20" d="M-264,363c-3,0-5.5-1.9-5.5-4.7c0-3,2.3-5.1,5.5-5.1c2.9,0,5.3,1.9,5.3,4.7C-258.6,360.8-261,363-264,363z
			 M-264.3,353.5c-2.7,0-3.7,2.5-3.7,4.3c0,2.8,1.9,4.8,4.3,4.8c2.5,0,3.6-2.2,3.6-4.3C-260,355.5-261.8,353.5-264.3,353.5z"/>
		<path fill="#231F20" d="M-253.9,363l-3.3-8.2c-0.4-1-0.6-1.2-1.5-1.2v-0.3h4.2v0.3c-1.4,0-1.7,0.3-1.4,1l2.7,6.8l2.4-6.2
			c0.2-0.4,0.3-0.7,0.3-0.9c0-0.5-0.4-0.6-1.4-0.6v-0.3h3.5v0.3c-0.8,0-1.2,0.4-1.6,1.3l-3.1,8H-253.9z"/>
		<path fill="#231F20" d="M-247.5,358.6l-0.9,2.4c-0.1,0.3-0.3,0.7-0.3,1c0,0.4,0.4,0.6,1.2,0.6h0.2v0.3h-3.5v-0.3
			c1,0,1.1-0.2,1.6-1.5l2.7-7.5l-0.1-0.3h1.3l3.2,8.4c0.3,0.8,0.6,1,1.4,1v0.3h-4.2v-0.3h0.4c0.9,0,1.2-0.1,1.2-0.5
			c0-0.2-0.1-0.5-0.2-0.6l-1-2.7C-244.4,358.6-247.5,358.6-247.5,358.6z M-246,354.4l-1.3,3.5h2.6L-246,354.4z"/>
		<path fill="#231F20" d="M-236.9,361.4c0,0.8,0.3,1.1,1.2,1.1h0.6v0.3h-4.8v-0.3h0.6c0.9,0,1.2-0.3,1.2-1.1v-7.5h-2.6
			c-0.6,0-0.9,0.3-1.1,1.7h-0.3l0.2-2.4h0.3c0,0.1,0.1,0.2,0.2,0.2c0.1,0,0.2,0,0.3,0h7.3c0.2,0,0.4,0,0.5-0.2h0.3l0.2,2.4h-0.3
			c-0.2-1.3-0.5-1.7-1.1-1.7h-2.6L-236.9,361.4L-236.9,361.4z"/>
		<path fill="#231F20" d="M-228,362.7h-3.7v-0.3c0.9,0,1.1-0.3,1.1-1.3v-6.4c0-0.8-0.3-1-1.1-1.1v-0.3h3.7v0.3c-1,0-1.3,0.2-1.3,1.2
			v6.4c0,0.9,0.2,1.2,1.3,1.2V362.7z"/>
		<path fill="#231F20" d="M-221.9,363c-3,0-5.5-1.9-5.5-4.7c0-3,2.3-5.1,5.5-5.1c2.9,0,5.3,1.9,5.3,4.7
			C-216.5,360.8-218.9,363-221.9,363z M-222.2,353.5c-2.7,0-3.7,2.5-3.7,4.3c0,2.8,1.9,4.8,4.3,4.8c2.5,0,3.6-2.2,3.6-4.3
			C-217.9,355.5-219.7,353.5-222.2,353.5z"/>
		<path fill="#231F20" d="M-206.2,362.8l-7.8-8.2v6.5c0,1.1,0.2,1.3,1.5,1.3v0.3h-3.5v-0.3h0.1c0.9,0,1.2-0.3,1.2-1V354
			c-0.3-0.2-0.7-0.4-1.3-0.4v-0.3h2.4l7.1,7.4v-6c0-0.9-0.3-1.1-1.5-1.1v-0.3h3.5v0.3c-1.1,0-1.4,0.2-1.4,0.8v8.4L-206.2,362.8
			L-206.2,362.8z"/>
		<path fill="#231F20" d="M-294.6,343.2l1.7,4.6c0.2,0.6,0.2,0.7,0.9,0.7v0.2h-2.6v-0.2c0.4,0,0.8,0,0.8-0.4c0-0.2-0.1-0.4-0.2-0.7
			l-0.4-1h-1.8l-0.3,0.7c-0.1,0.2-0.2,0.6-0.2,0.9c0,0.4,0.4,0.4,0.8,0.5v0.2h-2.1v-0.2c0.6-0.1,0.7-0.3,1-1l1.5-3.9l-0.1-0.4
			L-294.6,343.2L-294.6,343.2z M-296,346h1.5l-0.7-2L-296,346z"/>
		<path fill="#231F20" d="M-285.1,344.7h-0.2c-0.2-0.5-0.7-1.3-1.9-1.3c-1.3,0-2,1.3-2,2.7c0,1.6,1,2.5,1.9,2.5
			c1.2,0,1.9-0.9,2.2-1.2h0.2c-0.2,0.5-0.3,0.7-0.7,1.4c-0.3,0-0.4,0-0.7,0c-0.7,0.1-0.8,0.1-1.1,0.1c-1.8,0-2.8-1.2-2.8-2.7
			c0-1.8,1.5-2.9,2.9-2.9c0.9,0,1.4,0.4,1.7,0.4c0.1,0,0.2,0,0.3-0.1h0.2L-285.1,344.7z"/>
		<path fill="#231F20" d="M-280.4,343.2l1.7,4.6c0.2,0.6,0.2,0.7,0.9,0.7v0.2h-2.6v-0.2c0.4,0,0.8,0,0.8-0.4c0-0.2-0.1-0.4-0.2-0.7
			l-0.4-1h-1.8l-0.3,0.7c-0.1,0.2-0.2,0.6-0.2,0.9c0,0.4,0.4,0.4,0.8,0.5v0.2h-2.1v-0.2c0.6-0.1,0.7-0.3,1-1l1.5-3.9l-0.1-0.4
			L-280.4,343.2L-280.4,343.2z M-281.8,346h1.5l-0.7-2L-281.8,346z"/>
		<path fill="#231F20" d="M-276,348.5c0.8,0,1-0.1,1-0.8v-3.2c0-0.6-0.1-0.7-1-0.8v-0.2c0.9-0.1,1.9-0.1,2.7-0.1
			c0.7,0,3.4,0.1,3.4,2.6c0,1.6-1.3,2.4-2,2.6c-0.6,0.1-1.3,0.2-1.9,0.2h-2.1L-276,348.5L-276,348.5z M-274.2,347.8
			c0,0.2,0,0.3,0,0.4c0.1,0.1,0.5,0.2,0.7,0.2c2.2,0,2.5-1.6,2.5-2.5c0-0.5-0.1-1.7-1.2-2.1c-0.6-0.3-1.4-0.3-2.1-0.2V347.8z"/>
		<path fill="#231F20" d="M-266,345.8h1.3c0.4,0,0.6,0,0.6-0.7h0.2v1.7h-0.2c0-0.7-0.1-0.7-0.7-0.7h-1.2v1.8c0,0.5,0,0.5,0.6,0.5
			h0.9c0.6,0,0.8-0.1,1.1-1h0.2l-0.1,1.3h-4.4v-0.2c0.8,0,0.9-0.2,0.9-0.7v-3.5c0-0.6-0.2-0.7-0.9-0.7v-0.2h4.2l0,1.2h-0.2
			c-0.1-0.8-0.3-0.9-0.9-0.9h-1.3L-266,345.8L-266,345.8z"/>
		<path fill="#231F20" d="M-253.7,343.3v0.2c-0.6,0-0.8,0-0.8,0.4c0,0.1,0,0.4,0,0.7l0.2,2.9c0.1,0.7,0.1,1,0.9,0.9v0.2h-2.5v-0.2
			c0.5,0,0.9-0.1,0.9-0.5c0-0.1,0-0.4,0-0.6l-0.2-3.4l-2,4.6h-0.2l-2-4.6l-0.3,3.7c0,0.1,0,0.3,0,0.4c0,0.3,0.3,0.4,0.7,0.4v0.2
			h-2.1v-0.2c0.3,0,0.7,0,0.8-0.2c0.1-0.1,0.1-0.6,0.2-0.9l0.3-3.2c0-0.5,0-0.5-0.7-0.6v-0.2h1.8l1.7,4.1l1.8-4.1H-253.7z"/>
		<path fill="#231F20" d="M-249.1,343.3v0.2c-0.5,0-0.5,0-0.6,0.1c0,0-0.1,0.1-0.1,0.1c0,0.1,0.2,0.4,0.3,0.6l1.2,1.7l1-1.7
			c0.1-0.2,0.3-0.5,0.3-0.6c0-0.2-0.3-0.2-0.7-0.2v-0.2h2v0.2c-0.7,0-0.7,0.1-1.1,0.7l-1.3,2.3v1.1c0,0.7,0.1,0.9,0.6,0.9h0.3v0.2
			h-2.8v-0.2h0.3c0.7,0,0.7-0.1,0.7-0.8v-1.1l-1.6-2.4c-0.3-0.5-0.4-0.6-1.1-0.6v-0.2L-249.1,343.3L-249.1,343.3z"/>
		<path fill="#231F20" d="M-234.9,343.3v1.1h-0.2c-0.1-0.6-0.1-0.6-0.2-0.7c-0.1-0.1-0.2-0.1-0.6-0.1h-1.2v2.1h1.3
			c0.4,0,0.6-0.1,0.7-0.6h0.2v1.5h-0.2c0-0.6-0.2-0.6-0.6-0.6h-1.4v1.9c0,0.5,0,0.5,0.8,0.6v0.2h-2.4v-0.2c0.6-0.1,0.7-0.2,0.7-0.6
			v-3.5c0-0.6-0.1-0.7-0.7-0.7v-0.2C-238.7,343.3-234.9,343.3-234.9,343.3z"/>
		<path fill="#231F20" d="M-229.5,343.1c1.4,0,2.9,0.9,2.9,2.8c0,2.1-1.6,2.9-2.9,2.9c-1.3,0-2.9-0.8-2.9-2.9
			C-232.5,344.1-230.9,343.1-229.5,343.1z M-229.6,343.3c-1.3,0-1.9,1.2-1.9,2.5c0,1.3,0.3,1.9,0.7,2.2c0.4,0.4,0.8,0.5,1.3,0.5
			c0.9,0,2-0.7,2-2.7C-227.6,344.1-228.5,343.3-229.6,343.3z"/>
		<path fill="#231F20" d="M-219.4,347.8l-0.7-0.7c-0.4-0.4-0.7-0.6-1-0.9c0.4-0.1,1.1-0.4,1.1-1.4c0-1.3-1.3-1.5-2.4-1.5
			c-0.9,0-1.6,0.1-2.2,0.1v0.2c0.6,0,0.7,0,0.8,0.2c0.1,0.1,0.1,0.3,0.1,0.5v3.5c0,0.5-0.1,0.7-0.7,0.7h-0.2v0.2h2.7v-0.2h-0.4
			c-0.5,0-0.6-0.1-0.6-0.9v-1.2h0.8c0.2,0.1,0.6,0.5,1,0.9l0.6,0.6c0.8,0.8,1.1,1.1,2.6,1v-0.2
			C-218.4,348.6-218.9,348.3-219.4,347.8z M-222.1,346.1h-0.6v-2.6c0.1,0,0.3,0,0.5,0c0.5,0,1.3,0.3,1.3,1.3
			C-220.8,345.8-221.5,346.1-222.1,346.1z"/>
		<g>
			<path fill="#231F20" d="M-189,355.9v0.3c-0.9,0-1.2,0.1-1.4,0.3c-0.3,0.3-1.2,2-2.5,3.6c0.9,1.4,1.2,2.4,2,2.4
				c0.3,0,0.7-0.2,1.3-0.6l0.1,0.3c-0.7,0.6-1.4,0.9-2,0.9c-1,0-1.3-0.4-2.2-2c-1.2,1.3-2.6,2-3.8,2c-1.5,0-2.7-1.2-2.7-2.7
				c0-1.4,0.8-2.2,2.9-3.1c-0.7-0.6-1.2-1.4-1.2-2.1c0-1.2,0.9-1.9,2.2-1.9c1.2,0,2.1,0.7,2.1,1.6c0,0.8-0.7,1.5-1.9,2.1
				c1.1,0.7,2.1,1.7,2.9,2.9c0.8-1,2.1-2.8,2.1-3.3c0-0.2-0.2-0.3-0.9-0.3v-0.3H-189z M-196.8,362.2c1,0,2.2-0.6,2.9-1.5
				c-0.7-1.2-1.8-2.3-3.1-3.3c-1.3,0.9-1.8,1.7-1.8,2.7C-198.8,361.4-198,362.2-196.8,362.2z M-196.3,353.5c-0.7,0-1.1,0.5-1.1,1.2
				c0,0.7,0.4,1.4,1.2,2c0.8-0.4,1.1-1,1.1-1.8C-195.1,354-195.6,353.5-196.3,353.5z"/>
		</g>
		<g>
			<path fill="#231F20" d="M-250.6,374.6c-0.4,1.3-0.7,1.7-1.8,1.7h-2.3c-0.6,0-0.8-0.1-0.8-0.8v-3.2h2.6c0.6,0,0.9,0.1,1,1.2h0.3
				v-2.9h-0.3c-0.1,0.9-0.3,1.1-0.9,1.1h-2.7V368h3.2c0.5,0,0.9,0.3,1.1,1.6h0.3l-0.1-2.1h-7.2v0.3h0.3c1,0,1.2,0.4,1.2,1.2v6.4
				c0,0.9-0.2,1.2-1.4,1.2c-0.5,0-1-0.3-1.7-1.4l-1.8-2.7c1.8-0.6,2-2,2-2.4c0-1.3-0.9-1.9-1.5-2.2c-0.6-0.3-1.3-0.5-2.5-0.5
				c-1.3,0-2.6,0.1-3.8,0.2v0.3c1.2,0,1.5,0.3,1.5,1v6.1c0,1.3,0,1.7-1.5,1.7v0.3h4.3v-0.3c-1.5,0-1.6-0.3-1.6-1.7v-2h2
				c0.2,0.2,1.1,1.6,1.3,1.9c1.3,2,2.3,2.1,3.4,2.1l0,0h7.6l0.2-2.3C-250.3,374.6-250.6,374.6-250.6,374.6z M-262.5,372.4
				c-0.5,0.2-1,0.2-1.7,0.2h-0.6v-5c0.8,0,1.8,0,2.5,0.3c1,0.5,1.2,1.5,1.2,2.1C-261.1,371-261.5,372.1-262.5,372.4z"/>
			<path fill="#231F20" d="M-225.4,374.6c-0.4,1.3-0.7,1.7-1.8,1.7h-2.3c-0.6,0-0.8-0.1-0.8-0.8v-3.2h2.6c0.6,0,0.9,0.1,1,1.2h0.3
				v-2.9h-0.3c-0.1,0.9-0.3,1.1-0.9,1.1h-2.7V368h3.2c0.5,0,0.9,0.3,1.1,1.6h0.3l-0.1-2.1h-7.2v0.3h0.3c1,0,1.2,0.4,1.2,1.2v6.4
				c0,0.9-0.2,1.2-1.4,1.2c-0.5,0-1-0.3-1.7-1.4l-1.8-2.7c1.8-0.6,2-2,2-2.4c0-1.3-0.9-1.9-1.5-2.2c-0.6-0.3-1.3-0.5-2.5-0.5
				c-1.3,0-2.6,0.1-3.8,0.2v0.3c1.2,0,1.5,0.3,1.5,1v6.1c0,1.3,0,1.7-1.5,1.7v0.3h4.3v-0.3c-1.5,0-1.6-0.3-1.6-1.7v-2h2
				c0.2,0.2,1.1,1.6,1.3,1.9c1.3,2,2.3,2.1,3.4,2.1l0,0h7.6l0.2-2.3C-225.1,374.6-225.4,374.6-225.4,374.6z M-237.3,372.4
				c-0.5,0.2-1,0.2-1.7,0.2h-0.6v-5c0.8,0,1.8,0,2.5,0.3c1,0.5,1.2,1.5,1.2,2.1C-235.9,371-236.3,372.1-237.3,372.4z"/>
			<g>
				<path fill="#231F20" d="M-184.3,376.8c-1.1,0-2.1,0-3.5-2.1c-0.2-0.3-1-1.7-1.3-1.9h-2v2c0,1.3,0.1,1.7,1.6,1.7v0.3h-4.3v-0.3
					c1.5,0,1.5-0.4,1.5-1.7v-6.1c0-0.8-0.2-1-1.5-1v-0.3c1.3-0.1,2.6-0.2,3.8-0.2c1.2,0,1.9,0.1,2.5,0.5c0.6,0.3,1.5,1,1.5,2.2
					c0,0.4-0.1,1.8-2,2.5l1.9,2.8c0.7,1.1,1.2,1.2,1.7,1.3L-184.3,376.8z M-191,372.6h0.6c0.7,0,1.1,0,1.7-0.2
					c1-0.3,1.4-1.5,1.4-2.4c0-0.6-0.2-1.7-1.2-2.2c-0.7-0.3-1.7-0.3-2.5-0.3L-191,372.6L-191,372.6z"/>
				<path fill="#231F20" d="M-184.3,374.5c0.3,1.3,1.4,2.1,2.6,2.1c1,0,2.1-0.6,2.1-1.8c0-2.2-4.9-2.8-4.9-5.5
					c0-1.3,1.2-2.2,2.7-2.2c1.3,0,1.5,0.4,2.1,0.4c0.1,0,0.2,0,0.3-0.2h0.2l0.3,1.9h-0.3c-0.4-1.1-1.4-1.8-2.4-1.8
					c-1,0-1.7,0.6-1.7,1.4c0,2.2,5.3,2.8,5.3,5.6c0,1.5-1.8,2.5-3.5,2.5c-0.8,0-1.9-0.4-2.1-0.4c-0.1,0-0.2,0.1-0.3,0.2h-0.3
					l-0.3-2.3L-184.3,374.5L-184.3,374.5z"/>
			</g>
			<path fill="#231F20" d="M-290.9,373.4h-0.3c-0.1-1.1-0.4-1.2-1-1.2h-2.6v3.2c0,0.7,0.3,0.8,0.8,0.8h2.3c1.1,0,1.4-0.4,1.8-1.7
				h0.3l-0.2,2.3h-8v-0.3h0.4c1.2,0,1.4-0.3,1.4-1.2v-6.4c0-0.8-0.2-1.2-1.2-1.2h-0.3v-0.3h7.2l0.1,2.1h-0.3
				c-0.2-1.3-0.6-1.6-1.1-1.6h-3.2v3.7h2.7c0.5,0,0.8-0.3,0.9-1.1h0.3V373.4z"/>
			<path fill="#231F20" d="M-279.5,376.9l-7.8-8.2v6.5c0,1.1,0.2,1.3,1.5,1.3v0.3h-3.5v-0.3h0.1c0.9,0,1.2-0.3,1.2-1v-7.4
				c-0.3-0.2-0.7-0.4-1.3-0.4v-0.3h2.4l7.1,7.4v-6c0-0.9-0.3-1.1-1.5-1.1v-0.3h3.5v0.3c-1.1,0-1.4,0.2-1.4,0.8v8.4L-279.5,376.9
				L-279.5,376.9z"/>
			<path fill="#231F20" d="M-272,375.4c0,0.8,0.3,1.1,1.2,1.1h0.6v0.3h-4.8v-0.3h0.6c0.9,0,1.2-0.3,1.2-1.1V368h-2.6
				c-0.6,0-0.9,0.3-1.1,1.7h-0.3l0.2-2.4h0.3c0,0.1,0.1,0.2,0.2,0.2c0.1,0,0.2,0,0.3,0h7.3c0.2,0,0.4,0,0.5-0.2h0.3l0.2,2.4h-0.3
				c-0.2-1.3-0.5-1.7-1.1-1.7h-2.6V375.4z"/>
			<path fill="#231F20" d="M-247.3,375.4c0,0.8,0.3,1.2,1.2,1.2h0.5v0.3h-4.2v-0.3h0.2c0.8,0,1-0.2,1-0.9v-7.1
				c0-0.6-0.2-0.8-0.7-0.8h-0.8v-0.3c0.4,0,1.2-0.1,1.9-0.1c0.7,0,1.5,0,1.9,0c3.2,0,3.9,1.5,3.9,2.7c0,1.8-1.4,2.9-3.7,2.9
				c-0.5,0-0.8,0-1.3-0.1C-247.3,372.7-247.3,375.4-247.3,375.4z M-247.3,372.5c0.2,0,0.5,0.1,0.8,0.1c1.6,0,2.7-1.1,2.7-2.6
				c0-1.2-0.5-2.3-2.5-2.3c-0.3,0-0.7,0-1,0.1L-247.3,372.5L-247.3,372.5z"/>
			<path fill="#231F20" d="M-214.9,376.9l-7.8-8.2v6.5c0,1.1,0.2,1.3,1.5,1.3v0.3h-3.5v-0.3h0.1c0.9,0,1.2-0.3,1.2-1v-7.4
				c-0.3-0.2-0.7-0.4-1.3-0.4v-0.3h2.4l7.1,7.4v-6c0-0.9-0.3-1.1-1.5-1.1v-0.3h3.5v0.3c-1.1,0-1.4,0.2-1.4,0.8v8.4L-214.9,376.9
				L-214.9,376.9z"/>
			<path fill="#231F20" d="M-206.7,373.4h-0.3c-0.1-1.1-0.4-1.2-1-1.2h-2.6v3.2c0,0.7,0.3,0.8,0.8,0.8h2.3c1.1,0,1.4-0.4,1.8-1.7
				h0.3l-0.2,2.3h-8v-0.3h0.4c1.2,0,1.4-0.3,1.4-1.2v-6.4c0-0.8-0.2-1.2-1.2-1.2h-0.3v-0.3h7.2l0.1,2.1h-0.3
				c-0.2-1.3-0.6-1.6-1.1-1.6h-3.2v3.7h2.7c0.5,0,0.8-0.3,0.9-1.1h0.3L-206.7,373.4L-206.7,373.4z"/>
			<path fill="#231F20" d="M-193.7,367.4v0.3c-1,0-1.4,0.4-1.4,1.4v4.1c0,1.9-1.2,3.9-4.5,3.9c-2.9,0-4.4-1.6-4.4-3.8v-4.4
				c0-1-0.3-1.1-1.3-1.1v-0.3h3.9v0.3h-0.1c-0.8,0-1.2,0.2-1.2,1.1v4.2c0,2,1.2,3.3,3.4,3.3c1.7,0,3.4-0.7,3.4-3.3v-3.5
				c0-1.4-0.2-1.7-1.5-1.8v-0.3C-197.3,367.4-193.7,367.4-193.7,367.4z"/>
			<path fill="#231F20" d="M-175.7,372.3v2.9c0,1,0.2,1.3,1.2,1.3h0v0.3h-3.8v-0.3h0.1c0.9,0,1.2-0.2,1.2-1.1v-6.6
				c0-0.8-0.3-1-1.1-1.1v-0.3h3.6v0.3c-1.1,0-1.3,0.3-1.3,1.5v2.6h5.9v-3c0-0.8-0.3-1.1-1.2-1.1h-0.3v-0.3h3.9v0.3
				c-0.9,0-1.1,0.3-1.1,1.2v6.3c0,1.1,0.3,1.3,1.2,1.3h0.2v0.3h-4.3v-0.3h0.5c1,0,1.2-0.3,1.2-1.1v-3.1L-175.7,372.3L-175.7,372.3z"
				/>
			<path fill="#231F20" d="M-162.8,376.8h-3.7v-0.3c0.9,0,1.1-0.3,1.1-1.3v-6.4c0-0.8-0.3-1-1.1-1.1v-0.3h3.7v0.3
				c-1,0-1.3,0.2-1.3,1.2v6.4c0,0.9,0.2,1.2,1.3,1.2V376.8z"/>
			<path fill="#231F20" d="M-159.5,375.4c0,0.8,0.3,1.2,1.2,1.2h0.5v0.3h-4.2v-0.3h0.2c0.8,0,1-0.2,1-0.9v-7.1
				c0-0.6-0.2-0.8-0.7-0.8h-0.8v-0.3c0.4,0,1.2-0.1,1.9-0.1c0.7,0,1.5,0,1.9,0c3.2,0,3.9,1.5,3.9,2.7c0,1.8-1.4,2.9-3.7,2.9
				c-0.5,0-0.8,0-1.3-0.1L-159.5,375.4L-159.5,375.4z M-159.5,372.5c0.2,0,0.5,0.1,0.8,0.1c1.6,0,2.7-1.1,2.7-2.6
				c0-1.2-0.5-2.3-2.5-2.3c-0.3,0-0.7,0-1,0.1L-159.5,372.5L-159.5,372.5z"/>
		</g>
	</g>
</g>
</svg>
