<?xml version="1.0" encoding="iso-8859-1"?>
<!-- Generator: Adobe Illustrator 18.1.1, SVG Export Plug-In . SVG Version: 6.00 Build 0)  -->
<!DOCTYPE svg PUBLIC "-//W3C//DTD SVG 1.1//EN" "http://www.w3.org/Graphics/SVG/1.1/DTD/svg11.dtd">
<svg version="1.1" xmlns="http://www.w3.org/2000/svg" xmlns:xlink="http://www.w3.org/1999/xlink" x="0px" y="0px"
	 viewBox="0 0 80 85.694" style="enable-background:new 0 0 80 85.694;" xml:space="preserve">
<g id="appcow">
	<g>
		<g>
			<path style="fill:#010202;" d="M40.769,22.56c17.051,0,30.876,9.411,30.876,21.039c0,11.606-13.825,21.039-30.876,21.039
				S9.893,55.228,9.893,43.599C9.871,31.971,23.696,22.56,40.769,22.56z"/>
			<path style="fill:#FFFFFF;" d="M40.769,23.434c16.581,0,30.024,9.03,30.024,20.166S57.35,63.765,40.769,63.765
				s-30.024-9.03-30.024-20.166C10.745,32.463,24.189,23.434,40.769,23.434z"/>
			<path style="fill:#010202;" d="M60.756,33.853c-0.493,2.935-2.218,5.31-4.75,7.08c-4.1,2.868-10.397,4.257-15.348,4.257
				c-4.952,0.022-11.046-1.255-15.169-4.056c-2.913-1.994-4.84-4.705-5.288-8.178c-0.157-1.277-0.09-2.241-0.067-3.585
				c0.022-1.949,0.045-3.876,0.067-5.826c-2.353-0.874-4.683-1.793-6.924-2.958c-1.031-0.538-4.504-2.285-4.548-3.495
				c-0.022-0.538,0.291-0.986,0.762-1.412c5.87-4.324,12.503-6.05,19.718-5.781c3.675-0.627,7.394-0.919,11.114-0.919
				c3.809,0,7.596,0.314,11.36,0.941c3.831-0.09,7.663,0.202,11.315,1.456c2.689,0.919,5.109,2.308,7.304,4.123
				c0.583,0.291,1.165,0.739,1.188,1.456c0.022,1.143-2.554,2.577-3.473,3.092c-2.196,1.277-4.593,2.241-6.924,3.249
				c0,1.434-0.022,2.89-0.022,4.324c0,1.053,0,2.129-0.022,3.182C61.002,31.702,60.913,33.001,60.756,33.853z"/>
			<path style="fill:#F9D4E4;" d="M20.962,31.971c0.202,3.831,2.241,6.565,4.997,8.447c4.414,3.002,10.71,3.921,14.699,3.921
				c4.011-0.022,10.486-1.053,14.833-4.1c2.778-1.949,4.683-4.705,4.526-8.537c-6.453-0.851-12.951-1.277-19.471-1.232
				C34.07,30.514,27.527,31.029,20.962,31.971z"/>
			<path style="fill:#010202;" d="M50.695,35.466c0.583,0.941-0.403,2.241-1.636,3.025c-1.232,0.784-2.98,0.65-3.428-0.045
				c-0.448-0.672,0.134-2.173,1.367-2.958C48.231,34.704,50.09,34.525,50.695,35.466z"/>
			<path style="fill:#010202;" d="M31.09,35.466c-0.583,0.941,0.403,2.241,1.636,3.025c1.232,0.784,2.98,0.65,3.428-0.045
				c0.448-0.672-0.134-2.173-1.367-2.958C33.554,34.704,31.672,34.525,31.09,35.466z"/>
			<path style="fill:#C493A8;" d="M24.704,31.478c4.145,11.606,22.093,13.332,33.363,6.386c-0.717,0.896-1.591,1.68-2.554,2.375
				c-4.347,3.047-10.845,4.1-14.833,4.1c-3.966,0.022-10.284-0.896-14.699-3.921c-2.778-1.905-4.795-4.616-4.997-8.447
				C22.217,31.791,23.449,31.634,24.704,31.478z"/>
			<path style="fill:#FFFFFF;" d="M20.962,31.097c0.022-2.711,0.067-5.422,0.09-8.133c-2.487-0.941-4.974-1.882-7.394-3.137
				c-0.605-0.314-4.056-2.196-4.078-2.756c0-0.202,0.134-0.426,0.403-0.672c5.848-4.302,12.346-5.893,19.269-5.624
				c3.697-0.627,7.394-0.941,11.069-0.941c3.764,0,7.529,0.314,11.293,0.941c3.809-0.09,7.551,0.202,11.091,1.412
				c2.465,0.851,4.84,2.129,7.103,4.033c0.471,0.224,0.784,0.471,0.784,0.739c0.022,0.515-2.554,2.039-3.047,2.33
				c-2.285,1.322-4.862,2.33-7.349,3.428c-0.022,2.689-0.022,5.378-0.045,8.089c-6.498-0.874-13.04-1.277-19.583-1.232
				C34.003,29.663,27.46,30.156,20.962,31.097z"/>
			<path style="fill:#444545;" d="M14.688,13.575c0.157,0.157,0.358,0.269,0.605,0.336c0.358,0.09,0.762,0.09,1.412,0.067
				c0.65-0.022,1.524-0.045,2.106-0.067c0.583-0.022,0.829-0.022,1.098,0.09c0.269,0.112,0.538,0.314,0.807,0.583
				c0.269,0.269,0.538,0.605,0.919,0.919c0.381,0.314,0.874,0.605,1.3,0.762c0.426,0.157,0.762,0.157,1.031,0.067
				c0.269-0.09,0.471-0.291,0.672-0.605c0.179-0.314,0.359-0.717,0.471-1.188c0.112-0.448,0.179-0.963,0.224-1.524
				c0.045-0.583,0.09-1.21,0.022-1.837c-0.022-0.09-0.022-0.202-0.045-0.291C21.612,11.11,18.072,11.984,14.688,13.575z"/>
			<path style="fill:#444545;" d="M60.98,22.425l-0.022-0.09c-0.157-0.605-0.336-1.277-0.717-2.285s-0.941-2.33-1.546-3.473
				c-0.605-1.143-1.255-2.084-1.815-2.711c-0.583-0.65-1.075-0.986-1.524-1.12c-0.448-0.134-0.829-0.067-1.232,0.09
				c-0.381,0.157-0.762,0.426-1.143,0.762c-0.381,0.336-0.784,0.717-1.613,1.188c-0.829,0.471-2.129,1.053-3.697,1.524
				c-1.568,0.493-3.428,0.896-4.683,1.3c-1.255,0.426-1.905,0.829-2.465,1.434c-0.56,0.605-1.053,1.367-1.456,2.129
				c-0.403,0.762-0.717,1.501-1.12,2.33c-0.426,0.807-0.941,1.703-1.389,2.487c-0.471,0.807-0.874,1.524-0.896,2.375
				c-0.022,0.426,0.067,0.896,0.269,1.367c1.546-0.067,3.092-0.09,4.638-0.112c6.543-0.045,13.085,0.359,19.583,1.232
				c0.022-2.689,0.022-5.378,0.045-8.089L60.98,22.425z"/>
			<path style="fill:#010202;" d="M31.538,18.325c5.019,0,9.097,3.204,9.097,7.17c0,1.546-0.605,2.958-1.658,4.123
				c-4.638,0.09-9.276,0.403-13.892,0.941c-1.636-1.3-2.644-3.092-2.644-5.064C22.441,21.529,26.519,18.325,31.538,18.325z"/>
			<path style="fill:#FFFFFF;" d="M31.538,18.997c4.616,0,8.38,2.958,8.38,6.61c0,1.524-0.65,2.935-1.748,4.056
				c-4.1,0.09-8.178,0.381-12.256,0.829c-1.68-1.21-2.711-2.935-2.711-4.885C23.158,21.955,26.922,18.997,31.538,18.997z"/>
			<path style="fill:#010202;" d="M34.159,24.397c1.255,0,2.263,0.739,2.263,1.68c0,0.919-1.008,1.68-2.263,1.68
				c-1.255,0-2.263-0.739-2.263-1.68C31.874,25.137,32.905,24.397,34.159,24.397z"/>
			<path style="fill:#010202;" d="M49.239,18.325c-5.019,0-9.097,3.204-9.097,7.17c0,1.524,0.605,2.935,1.636,4.1
				c4.75,0,9.478,0.246,14.183,0.739c1.479-1.277,2.375-2.98,2.375-4.84C58.336,21.529,54.258,18.325,49.239,18.325z"/>
			<path style="fill:#FFFFFF;" d="M49.239,18.997c-4.616,0-8.358,2.958-8.358,6.61c0,1.501,0.65,2.89,1.725,4.011
				c4.19,0.022,8.402,0.246,12.57,0.65c1.501-1.188,2.442-2.846,2.442-4.661C57.596,21.955,53.855,18.997,49.239,18.997z"/>
			<ellipse style="fill:#010202;" cx="46.057" cy="26.078" rx="2.263" ry="1.68"/>
			<path style="fill:#010202;" d="M32.367,0.31c1.994,2.666,6.296,7.372,6.453,10.733c0.022,0.672-0.202,1.434-0.605,1.972
				c-1.143,1.524-3.675,2.106-5.49,1.748c-3.63-0.739-3.428-3.451-3.092-6.363c0.291-2.622,0.851-5.176,1.344-7.775
				c0.067-0.314,0.269-0.538,0.583-0.605C31.874-0.048,32.188,0.064,32.367,0.31L32.367,0.31z M49.911,0.624
				c0.493,2.577,1.053,5.153,1.344,7.775c0.336,2.913,0.56,5.624-3.092,6.363c-1.815,0.358-4.347-0.224-5.49-1.748
				c-0.403-0.538-0.627-1.3-0.605-1.972c0.157-3.361,4.459-8.066,6.453-10.733c0.179-0.246,0.493-0.358,0.784-0.291
				C49.642,0.086,49.866,0.333,49.911,0.624z"/>
			<path style="fill:#1A1A1B;" d="M31.762,0.781c1.344,1.77,6.139,7.192,6.296,10.307c0.022,0.538-0.179,1.098-0.448,1.456
				c-0.963,1.277-3.227,1.748-4.728,1.456c-3.182-0.65-2.756-3.092-2.465-5.512C30.709,5.822,31.269,3.313,31.762,0.781
				L31.762,0.781z M49.172,0.781c-1.344,1.77-6.139,7.192-6.296,10.307c-0.022,0.538,0.179,1.098,0.448,1.456
				c0.963,1.277,3.226,1.748,4.728,1.456c3.182-0.65,2.756-3.092,2.465-5.512C50.202,5.822,49.642,3.313,49.172,0.781z"/>
			<path style="fill:#444545;" d="M10.745,43.779c0.314-0.134,0.627-0.246,0.941-0.359c0.986-0.336,1.815-0.583,2.554-0.672
				c0.739-0.112,1.367-0.067,1.949,0.045c0.583,0.112,1.12,0.314,1.568,0.695c0.471,0.359,0.851,0.896,1.412,1.68
				c0.538,0.784,1.255,1.837,2.061,2.577c0.807,0.739,1.725,1.188,2.734,1.456s2.129,0.336,3.092,0.314c0.963,0,1.77-0.09,2.42-0.09
				c0.65,0,1.12,0.09,1.412,0.269c0.291,0.179,0.403,0.426,0.448,0.739c0.045,0.291,0,0.627-0.157,1.053
				c-0.157,0.426-0.426,0.941-1.053,1.613c-0.627,0.672-1.613,1.524-2.666,2.196s-2.173,1.188-3.361,1.524
				c-1.165,0.336-2.397,0.493-3.473,0.583c-0.538,0.045-1.053,0.09-1.636,0.067C13.927,53.884,10.812,49.067,10.745,43.779z"/>
			<path style="fill:#444545;" d="M25.802,41.336c-0.112,0.224-0.157,0.515-0.112,0.941c0.045,0.471,0.179,1.076,0.583,1.658
				c0.381,0.583,1.008,1.165,1.882,1.748c0.874,0.583,2.017,1.165,3.361,1.568c1.344,0.403,2.89,0.605,4.123,0.65
				c1.232,0.045,2.151-0.045,3.07-0.202c0.896-0.157,1.792-0.403,2.532-0.695c0.739-0.291,1.344-0.627,1.77-1.008
				c0.314-0.291,0.56-0.583,0.695-0.941c-1.031,0.112-2.039,0.157-3.002,0.157C35.818,45.213,29.902,44.025,25.802,41.336z"/>
			<path style="fill:#444545;" d="M70.637,45.616l-0.493-0.179c-1.21-0.426-2.106-0.762-3.114-0.851
				c-0.986-0.09-2.084,0.067-3.07,0.314c-0.986,0.269-1.882,0.627-2.622,1.076c-0.739,0.448-1.322,1.008-2.106,1.479
				c-0.784,0.471-1.793,0.896-3.002,1.098c-1.21,0.202-2.622,0.224-3.742,0.381c-1.12,0.157-1.972,0.471-2.397,0.986
				c-0.426,0.493-0.448,1.188-0.246,1.882c0.202,0.695,0.65,1.389,1.591,2.129c0.941,0.762,2.353,1.568,4.123,2.285
				c1.77,0.717,3.899,1.322,6.117,1.793l0.09,0.022C66.649,54.78,69.92,50.456,70.637,45.616z"/>
			<path style="fill:#444545;" d="M67.455,34.368c-0.56,0-1.12,0.045-1.636,0.134c-1.12,0.179-2.039,0.493-2.734,0.784
				c-0.695,0.291-1.21,0.583-1.389,1.12c-0.179,0.538-0.022,1.344,0.336,1.949c0.336,0.627,0.874,1.053,1.725,1.479
				c0.851,0.426,2.017,0.807,3.585,1.322c1.031,0.336,2.263,0.717,3.339,1.12C70.435,39.432,69.292,36.765,67.455,34.368z"/>
			<path style="opacity:0.5;fill:#010202;enable-background:new    ;" d="M70.077,47.946c-20.614,19.337-53.708,7.999-57.875-10.553
				c-0.941,1.949-1.456,4.033-1.456,6.207c0,11.136,13.444,20.166,30.024,20.166C55.109,63.765,67.119,56.998,70.077,47.946z"/>
			<path style="fill:#010202;" d="M38.081,69.389c-0.538,0.426-0.986,0.65-1.658,0.807c-2.106,0.471-3.764,0.134-5.826-0.336
				c-0.134-0.022-0.381,0.022-0.493,0.045c-1.68,0.336-3.092,0.426-4.75-0.09c-0.896-0.269-1.837-0.739-2.42-1.501
				c-0.65-0.851-0.695-1.837-0.448-2.846c0.784-3.047,3.406-4.638,6.319-5.243c1.367-0.291,2.823-0.336,4.212-0.112
				c1.12,0.179,2.129,0.538,3.092,1.143c0.851,0.515,1.591,1.188,2.196,1.972c0.515,0.695,0.963,1.546,1.232,2.397
				C40.03,67.372,39.403,68.336,38.081,69.389z"/>
			<path style="fill:#1A1A1B;" d="M37.543,68.694c1.053-0.829,1.546-1.434,1.12-2.801c-0.202-0.65-0.583-1.434-1.098-2.129
				c-0.515-0.695-1.165-1.277-1.949-1.748c-0.762-0.471-1.658-0.829-2.778-1.008c-1.12-0.179-2.487-0.202-3.899,0.112
				c-2.577,0.538-4.952,1.882-5.646,4.593c-0.224,0.896-0.134,1.568,0.291,2.106c0.426,0.538,1.165,0.941,1.994,1.21
				c1.546,0.471,2.801,0.359,4.347,0.067c0.426-0.09,0.627-0.09,0.851-0.045c1.882,0.426,3.451,0.784,5.445,0.336
				C36.826,69.21,37.139,69.008,37.543,68.694z"/>
			<path style="fill:#010202;" d="M42.383,69.389c0.538,0.426,0.986,0.65,1.658,0.807c2.106,0.471,3.764,0.134,5.826-0.336
				c0.134-0.022,0.381,0.022,0.493,0.045c1.68,0.336,3.092,0.426,4.75-0.09c0.896-0.269,1.837-0.739,2.42-1.501
				c0.65-0.851,0.695-1.837,0.448-2.846c-0.762-3.047-3.406-4.638-6.319-5.243c-1.367-0.291-2.823-0.336-4.212-0.112
				c-1.12,0.179-2.129,0.538-3.092,1.143c-0.851,0.515-1.591,1.188-2.196,1.972c-0.515,0.695-0.963,1.546-1.232,2.397
				C40.433,67.372,41.038,68.336,42.383,69.389z"/>
			<path style="fill:#1A1A1B;" d="M42.92,68.694c-1.053-0.829-1.546-1.434-1.12-2.801c0.202-0.65,0.583-1.434,1.098-2.129
				c0.515-0.695,1.165-1.277,1.949-1.748c0.762-0.471,1.658-0.829,2.778-1.008c1.12-0.179,2.487-0.202,3.899,0.112
				c2.577,0.538,4.952,1.882,5.646,4.593c0.224,0.896,0.134,1.568-0.291,2.106c-0.426,0.538-1.165,0.941-1.994,1.21
				c-1.546,0.471-2.801,0.359-4.347,0.067c-0.426-0.09-0.627-0.09-0.851-0.045c-1.882,0.426-3.451,0.784-5.445,0.336
				C43.637,69.21,43.324,69.008,42.92,68.694z"/>
		</g>
		<path style="fill-rule:evenodd;clip-rule:evenodd;fill:#1A1A1B;" d="M0,85.597h3.025l0.793-1.561h5.49l0.842,1.561h3.013
			l-4.855-8.832H4.782L0,85.597L0,85.597z M6.538,78.814l1.757,3.318H4.831L6.538,78.814L6.538,78.814z M14.126,85.597h2.708v-2.22
			h5.379c0.48,0,0.879-0.085,1.196-0.256c0.317-0.171,0.571-0.393,0.762-0.665c0.191-0.272,0.327-0.576,0.408-0.909
			c0.081-0.333,0.122-0.667,0.122-1V79.79c0-0.431-0.047-0.831-0.14-1.201c-0.094-0.37-0.258-0.689-0.494-0.958
			c-0.236-0.269-0.561-0.48-0.976-0.634c-0.415-0.155-0.944-0.232-1.586-0.232h-7.38V85.597L14.126,85.597z M16.834,78.961h3.977
			c0.415,0,0.703,0.081,0.866,0.244c0.163,0.163,0.244,0.394,0.244,0.695v0.341c0,0.26-0.067,0.482-0.201,0.665
			c-0.134,0.183-0.36,0.274-0.677,0.274h-4.209V78.961L16.834,78.961z M26.167,85.597h2.708v-2.22h5.38
			c0.48,0,0.878-0.085,1.196-0.256c0.317-0.171,0.571-0.393,0.762-0.665c0.191-0.272,0.327-0.576,0.408-0.909
			c0.082-0.333,0.122-0.667,0.122-1V79.79c0-0.431-0.046-0.831-0.14-1.201c-0.093-0.37-0.258-0.689-0.494-0.958
			c-0.236-0.269-0.561-0.48-0.976-0.634c-0.415-0.155-0.944-0.232-1.586-0.232h-7.38V85.597L26.167,85.597z M28.875,78.961h3.977
			c0.415,0,0.703,0.081,0.866,0.244c0.163,0.163,0.244,0.394,0.244,0.695v0.341c0,0.26-0.067,0.482-0.201,0.665
			c-0.134,0.183-0.36,0.274-0.677,0.274h-4.209V78.961L28.875,78.961z M38.012,82.498c0,0.65,0.087,1.181,0.262,1.592
			c0.175,0.411,0.431,0.736,0.768,0.976c0.337,0.24,0.746,0.404,1.226,0.494c0.479,0.089,1.025,0.134,1.634,0.134h4.367
			c0.683,0,1.236-0.069,1.659-0.207c0.423-0.138,0.752-0.327,0.988-0.567c0.236-0.24,0.397-0.521,0.482-0.842
			c0.086-0.322,0.128-0.669,0.128-1.043v-0.829h-2.708c0,0.277-0.026,0.494-0.079,0.653c-0.053,0.159-0.14,0.28-0.262,0.366
			c-0.122,0.085-0.285,0.14-0.488,0.164c-0.203,0.025-0.456,0.037-0.756,0.037h-2.891c-0.317,0-0.577-0.033-0.781-0.098
			c-0.203-0.065-0.362-0.167-0.476-0.305c-0.114-0.138-0.191-0.321-0.232-0.549c-0.041-0.228-0.061-0.5-0.061-0.817v-0.951
			c0-0.277,0.023-0.523,0.067-0.738c0.044-0.215,0.128-0.401,0.25-0.555c0.122-0.154,0.293-0.272,0.512-0.354
			c0.22-0.081,0.508-0.122,0.866-0.122h2.952c0.407,0,0.72,0.057,0.94,0.171c0.22,0.114,0.329,0.33,0.329,0.647v0.244h2.708
			c0.008-0.626-0.033-1.151-0.122-1.574c-0.089-0.423-0.284-0.764-0.585-1.025c-0.301-0.26-0.74-0.447-1.318-0.561
			c-0.577-0.114-1.346-0.171-2.306-0.171h-3.184c-0.61,0-1.155,0.045-1.634,0.134c-0.48,0.09-0.889,0.254-1.226,0.494
			c-0.337,0.24-0.594,0.567-0.768,0.982c-0.175,0.414-0.262,0.943-0.262,1.586V82.498L38.012,82.498z M50.967,82.498
			c0,0.65,0.087,1.181,0.262,1.592c0.175,0.411,0.431,0.736,0.768,0.976c0.337,0.24,0.746,0.404,1.226,0.494
			c0.479,0.089,1.025,0.134,1.634,0.134h4.343c0.61,0,1.155-0.045,1.635-0.134c0.48-0.09,0.888-0.254,1.226-0.494
			c0.337-0.24,0.594-0.565,0.769-0.976c0.175-0.411,0.262-0.941,0.262-1.592v-2.635c0-0.643-0.087-1.171-0.262-1.586
			c-0.175-0.415-0.431-0.742-0.769-0.982c-0.337-0.24-0.746-0.404-1.226-0.494c-0.48-0.089-1.025-0.134-1.635-0.134h-4.343
			c-0.61,0-1.155,0.045-1.634,0.134c-0.48,0.09-0.889,0.254-1.226,0.494c-0.337,0.24-0.594,0.567-0.768,0.982
			c-0.175,0.414-0.262,0.943-0.262,1.586V82.498L50.967,82.498z M53.748,80.705c0-0.277,0.023-0.523,0.067-0.738
			c0.045-0.215,0.128-0.401,0.25-0.555c0.122-0.154,0.293-0.272,0.512-0.354c0.22-0.081,0.508-0.122,0.866-0.122h3.172
			c0.358,0,0.647,0.041,0.866,0.122c0.219,0.082,0.391,0.199,0.512,0.354c0.122,0.154,0.205,0.34,0.25,0.555
			c0.045,0.215,0.067,0.461,0.067,0.738v0.951c0,0.317-0.02,0.59-0.061,0.817c-0.041,0.228-0.118,0.411-0.232,0.549
			c-0.114,0.138-0.272,0.24-0.476,0.305c-0.203,0.065-0.464,0.098-0.781,0.098h-3.464c-0.317,0-0.577-0.033-0.781-0.098
			c-0.203-0.065-0.362-0.167-0.476-0.305c-0.114-0.138-0.191-0.321-0.232-0.549c-0.041-0.228-0.061-0.5-0.061-0.817V80.705
			L53.748,80.705z M66.764,85.597h3.111l2.062-5.831h0.024l2.062,5.831h3.111L80,76.765h-2.647l-1.879,6.49H75.45l-2.245-6.49
			h-2.513l-2.244,6.49h-0.025l-1.879-6.49h-2.647L66.764,85.597z"/>
	</g>
</g>
<g id="Layer_1">
</g>
</svg>
