<?xml version="1.0" encoding="utf-8"?>
<!-- Generator: Adobe Illustrator 18.1.1, SVG Export Plug-In . SVG Version: 6.00 Build 0)  -->
<svg version="1.1" id="Layer_1" xmlns="http://www.w3.org/2000/svg" xmlns:xlink="http://www.w3.org/1999/xlink" x="0px" y="0px"
	 width="134px" height="60px" viewBox="-372 331 134 60" enable-background="new -372 331 134 60" xml:space="preserve">
<g id="guides">
</g>
<g id="Layer_2">
	<g>
		<g>
			<g>
				<g>
					<path d="M-250.4,371.5l-3.8-3.9c-0.1-0.1-0.2-0.3-0.1-0.4l2.9-4.9c0.1-0.1,0.1-0.2,0.1-0.3c0-0.3-0.3-0.6-0.6-0.6h-2.1
						c-0.2,0-0.4,0.1-0.5,0.3l-1.8,3.2c-0.1,0.1-0.3,0.1-0.4,0.1l-3-3l-0.1-0.2l0.1-0.2l0,0c1.7-1,3.6-2.4,3.6-4.9
						c0-2.9-2.1-4.8-5.2-4.8c-3,0-5.4,2-5.4,5.1c0,1.3,0.6,2.7,1.7,4.1l0,0l0.1,0.2c0,0.1,0,0.1-0.1,0.2c-2.5,1.4-3.8,3.3-3.8,5.7
						c0,3.9,3.3,6,6.6,6c2.2,0,4-0.9,5.7-2.8l0,0c0.1-0.1,0.3-0.1,0.4,0l2,2.1l0.1,0.1c0.1,0.1,0.3,0.2,0.4,0.2l2.5,0h0.2
						c0.3,0,0.6-0.3,0.6-0.6C-250.2,371.8-250.3,371.6-250.4,371.5 M-261.2,354.7c1.3,0,2,0.9,2,1.9c0,1.3-1.1,2-2.5,2.7l-0.1,0
						c-0.1,0.1-0.2,0-0.3-0.1l0,0c-0.6-0.6-1.3-1.7-1.3-2.4C-263.4,355.7-262.5,354.7-261.2,354.7 M-258.4,368.1L-258.4,368.1
						c-1,1.2-2.1,2-3.6,2c-1.9,0-3.3-1.3-3.3-3c0-1.5,0.6-2.4,2.6-3.6c0.1-0.1,0.3-0.1,0.4,0l4,4.2c0.1,0.1,0.1,0.1,0.1,0.2l0,0
						L-258.4,368.1z"/>
				</g>
				<g>
					<path d="M-271.2,370l-0.1,0c-3.1,0-4.6-1.6-4.6-4.8v-9.4c0-0.2,0.1-0.3,0.3-0.3h4.8c0.3,0,0.6-0.3,0.6-0.6v-2.1
						c0-0.3-0.3-0.6-0.6-0.6h-4.8c-0.2,0-0.3-0.1-0.3-0.3v-4.3c0-0.3-0.2-0.6-0.5-0.6h-0.1l-2.5,0.2c-0.3,0-0.6,0.3-0.6,0.6v4.1
						c0,0.2-0.1,0.3-0.3,0.3l-3,0c-0.3,0-0.6,0.3-0.6,0.6l0,2.1c0,0.2,0.1,0.3,0.2,0.4c0.1,0.1,0.3,0.2,0.4,0.2h3
						c0.2,0,0.3,0.1,0.3,0.3l0,10c0,5.4,4.1,7.3,7.6,7.3c0,0,0.4,0,0.7,0c0.3,0,0.6-0.3,0.6-0.6v-2
						C-270.7,370.2-270.9,370-271.2,370"/>
				</g>
				<g>
					<path d="M-285,371.7c-0.2-0.5-0.2-1.1-0.3-1.4c0-0.2,0-1,0-1v-9.9c0-5.2-3.7-7.1-7.2-7.1c-2.8,0-5.3,0.7-6.9,1.8
						c-0.1,0.1-0.2,0.2-0.3,0.4c0,0.1,0,0.3,0.1,0.4l1.3,1.7c0.2,0.2,0.5,0.3,0.8,0.1l0.2-0.1c1.3-0.8,2.8-1.2,4.3-1.2
						c4.3,0,4.2,3.3,4.2,3.8c0,0.2-0.1,0.3-0.3,0.3l-0.7,0c-3.3-0.1-11.8,1-11.8,7.7c0,3.9,3.3,5.9,6.3,5.9c3,0,5.4-1.2,6.5-2.6l0,0
						l0.1,0l0.1,0.1c0,0.2,0,0.6,0,1c0,0.3,0.1,0.6,0.1,0.7c0,0.2,0.2,0.3,0.3,0.4c0.1,0,0.2,0.1,0.2,0.1l2.4,0
						c0.3,0,0.6-0.2,0.6-0.5C-284.9,371.9-285,371.7-285,371.7 M-288.7,363.9c-0.5,3.4-2.2,5.4-5.3,5.9c-2.2,0.4-4.2-0.5-4.3-2.9
						c-0.1-2.6,2.9-4.7,8.4-4.5c0,0,0.4,0,0.7,0.1c0.2,0,0.4,0.1,0.5,0.2C-288.6,362.9-288.5,363.2-288.7,363.9"/>
				</g>
				<g>
					<path d="M-238.9,370l-0.1,0c-3.1,0-4.6-1.6-4.6-4.8v-9.4c0-0.2,0.1-0.3,0.3-0.3h4.8c0.3,0,0.6-0.3,0.6-0.6v-2.1
						c0-0.3-0.3-0.6-0.6-0.6h-4.8c-0.2,0-0.3-0.1-0.3-0.3v-4.3c0-0.3-0.2-0.6-0.5-0.6h-0.1l-2.5,0.2c-0.3,0-0.6,0.3-0.6,0.6v4.1
						c0,0.2-0.1,0.3-0.3,0.3l-3,0c-0.3,0-0.6,0.3-0.6,0.6l0,2.1c0,0.2,0.1,0.3,0.2,0.4c0.1,0.1,0.3,0.2,0.4,0.2h3
						c0.2,0,0.3,0.1,0.3,0.3v10c0,5.4,4.1,7.3,7.6,7.3c0,0,0.4,0,0.7,0c0.3,0,0.6-0.3,0.6-0.6v-2C-238.4,370.2-238.6,370-238.9,370"
						/>
				</g>
				<g>
					<path fill="#309DD2" d="M-370.9,352.9c0.5-1.7,1.1-3.4,1.9-4.9c-0.3,0.8-0.5,1.7-0.5,3c0,7.3,15.9,14.5,35.4,9.2
						c7.6-2.1,18.9-6,18.9-12.1c0-0.3,0.1-1-0.9-2.7c1.3,2,2.3,4.2,3,6.6c0.4,1.2,0.3,2.1,0.3,2.4c0,1.5-1.9,10.6-20.1,12.2
						c-1.6,0.1-13.2,0.3-23.3-2.2c-6.7-1.7-13.5-5-14.7-9.5C-371.1,354.1-371,353.5-370.9,352.9 M-342.5,381.9
						c-3.8,0.4-25.9,1.4-29.1-16c0.5,2.8,1.3,5.4,2.5,7.9c1.4,2.5,4.8,5.9,9.8,8c25.9,10.7,41.9-2,44.9-8.3c1.2-2.7,2.1-5.6,2.5-8.7
						C-312.3,367-314.7,378.8-342.5,381.9 M-343.1,387.9c-4.6,0-14.6-0.7-21.1-6.8c5.5,6.1,13.5,9.9,22.4,9.9
						c11.5,0,21.6-6.5,26.7-16C-316.8,377.8-323.7,387.9-343.1,387.9 M-360.9,373.3c6.5,2.7,16.9,4.7,22.8,4.5
						c21.2-0.8,25.9-11.4,26.4-14.5c0-0.7,0.1-1.5,0.1-2.2c0-2.5-0.3-4.8-0.9-7.1c0.2,1,0.3,2,0.3,2.4c0,1,0.2,10.2-21,14.9
						c-12.7,2.8-18,2.7-26.8,0c-7.6-2.4-11.8-8-11.9-12.7c-0.1,0.8-0.1,1.6-0.1,2.5c0,0.7,0,1.4,0.1,2
						C-371.4,367-366.2,371.1-360.9,373.3 M-351.1,353.2c3.2,0.4,11.6,1.5,18.1,1c13.1-1.1,16.1-5.6,16.1-8.6c0-0.8-0.4-2-0.9-2.7
						c-1.2-1.5-2.5-3-3.9-4.2c0.4,0.4,0.5,0.9,0.5,1.2c0.1,2-3.2,4.7-9.9,7c-4.2,1.4-9.7,2.7-16.6,2.7c-11.6,0-15.6-4.4-15.6-7.1
						c0-0.3-0.1-2.6,2.6-4.8c-2.5,2-4.6,4.3-6.3,6.9c-0.2,0.3-0.3,0.7-0.3,1.1C-367.3,348.4-360.5,352-351.1,353.2 M-359.7,338.3
						c0.2,3,8.2,5.4,17.9,5.1c9.7-0.3,17.1-3,17.1-6c0-0.9-0.6-1.6-1.8-2.3c-4.5-2.6-9.7-4.1-15.3-4.1c-5.8,0-11.2,1.6-15.8,4.5
						C-359.1,336.3-359.8,337.3-359.7,338.3"/>
				</g>
			</g>
		</g>
	</g>
</g>
</svg>
