<?xml version="1.0" encoding="utf-8"?>
<!-- Generator: Adobe Illustrator 18.1.1, SVG Export Plug-In . SVG Version: 6.00 Build 0)  -->
<svg version="1.1" id="Layer_1" xmlns="http://www.w3.org/2000/svg" xmlns:xlink="http://www.w3.org/1999/xlink" x="0px" y="0px"
	 viewBox="0 0 593.3 135.2" enable-background="new 0 0 593.3 135.2" xml:space="preserve">
<rect x="-27.4" y="-19.9" display="none" fill="#1C3749" width="353.4" height="104.6"/>
<g>
	<g>
		<g>
			<path fill="#1C3649" d="M170,40.1h5.2v54.2H170V40.1z"/>
			<path fill="#1C3649" d="M181.6,40.1h22.9c9.1,0,17.4,3.2,17.4,13.3c0,5.7-3.8,10.9-9.4,12.1v0.2c7,0.9,11.5,6.1,11.5,13.2
				c0,5.2-1.8,15.4-19.4,15.4h-22.9V40.1z M186.7,63.9h17.8c8.2,0,12.2-4.1,12.2-9.2c0-6.8-4.1-10.2-12.2-10.2h-17.8V63.9z
				 M186.7,89.9h17.8c7.7,0,14.3-2.4,14.3-11.2c0-7-5.2-10.5-14.3-10.5h-17.8V89.9z"/>
			<path fill="#1C3649" d="M228.9,40.1h7.6l18.8,47.5l18.7-47.5h7.6v54.2h-5.2V47.5h-0.2l-18.5,46.8h-4.9l-18.6-46.8H234v46.8h-5.2
				V40.1z"/>
		</g>
		<path fill="#1C3649" d="M304.2,40.1h25.5c10.3,0,17.3,3.3,17.3,13.4c0,5.4-2.6,9-7.4,11.3c6.7,1.9,9.9,7,9.9,13.7
			c0,11-9.3,15.7-19.1,15.7h-26.3V40.1z M316.1,62h12.1c4.3,0,7.3-1.9,7.3-6.5c0-5.1-3.9-6.2-8.2-6.2h-11.2V62z M316.1,85h12.8
			c4.6,0,8.8-1.5,8.8-7.1c0-5.5-3.4-7.7-8.6-7.7h-13V85z"/>
		<path fill="#1C3649" d="M354.8,40.1h10.8v54.2h-10.8V40.1z"/>
		<path fill="#1C3649" d="M408.8,94.3h-10.2v-5.5h-0.2c-2.7,4.5-7.4,6.5-12,6.5c-11.5,0-14.3-6.5-14.3-16.2V55h10.8v22.2
			c0,6.5,1.8,9.6,6.9,9.6c5.8,0,8.4-3.3,8.4-11.2V55h10.8V94.3z"/>
		<path fill="#1C3649" d="M424.6,77.3c0.3,6.9,3.6,9.9,9.6,9.9c4.3,0,7.8-2.7,8.5-5.1h9.5c-3,9.3-9.5,13.2-18.4,13.2
			c-12.4,0-20-8.5-20-20.6c0-11.8,8.1-20.7,20-20.7c13.4,0,19.9,11.2,19.1,23.3H424.6z M442.2,70.4c-1-5.5-3.3-8.4-8.6-8.4
			c-7,0-8.7,5.3-9,8.4H442.2z"/>
		<path fill="#1C3649" d="M458.5,55h10.2v5.3h0.2c2.8-4,6.8-6.4,12-6.4c4.9,0,9.3,1.7,11.5,6.5c2.4-3.4,6.4-6.5,11.8-6.5
			c8.4,0,14.3,3.9,14.3,14v26.3h-10.8V72c0-5.2-0.5-9.6-6.6-9.6c-6.1,0-7.2,5.1-7.2,9.9v21.9h-10.8v-22c0-4.6,0.3-9.8-6.5-9.8
			c-2.1,0-7.3,1.4-7.3,9v22.8h-10.8V55z"/>
		<path fill="#1C3649" d="M535.8,49h-10.8v-8.9h10.8V49z M525.1,55h10.8v39.2h-10.8V55z"/>
		<path fill="#1C3649" d="M553.8,73.6L540.9,55h12.3l6.9,10.2L567,55h11.9L566,73.4l14.5,20.9h-12.3L560,81.9l-8.2,12.4h-12.1
			L553.8,73.6z"/>
	</g>
	<g>
		<path fill="#1C3649" d="M581.9,55.1h4.7V56h-1.8v4.9h-1V56h-1.8V55.1z"/>
		<path fill="#1C3649" d="M587.3,55.1h1.4l1.6,4.5h0l1.6-4.5h1.4v5.8h-1v-4.5h0l-1.6,4.5h-0.8l-1.6-4.5h0v4.5h-1V55.1z"/>
	</g>
	<g>
		<g>
			<path fill="#1C3649" d="M286.3,42.5h2.1c1,0,1.5,0.4,1.5,1.2c0,0.9-0.6,1.1-0.7,1.1v0c0.3,0,0.7,0.2,0.7,0.9c0,0.5,0.1,1,0.2,1.2
				h-0.8c-0.1-0.2-0.1-0.4-0.1-0.7c0-0.8-0.2-1.2-0.9-1.2h-1.1V47h-0.8V42.5z M287.1,44.6h1.3c0.5,0,0.8-0.2,0.8-0.7
				c0-0.6-0.4-0.7-0.8-0.7h-1.3V44.6z"/>
		</g>
		<g>
			<path fill="#1C3649" d="M288.1,49.2c-2.5,0-4.5-2-4.5-4.5c0-2.5,2-4.5,4.5-4.5s4.5,2,4.5,4.5C292.6,47.2,290.6,49.2,288.1,49.2z
				 M288.1,40.9c-2.1,0-3.9,1.7-3.9,3.9s1.7,3.9,3.9,3.9s3.9-1.7,3.9-3.9S290.3,40.9,288.1,40.9z"/>
		</g>
	</g>
</g>
<g>
	<path fill="#1C3649" d="M41.1,67.6c0,5,1,9.9,2.9,14.4c1.9,4.4,4.5,8.4,7.9,11.8c0.7,0.7,1.5,1.5,2.3,2.1l0-56.7
		c-0.8,0.7-1.6,1.4-2.3,2.1c-3.4,3.4-6.1,7.4-7.9,11.8C42,57.8,41.1,62.6,41.1,67.6z"/>
	<path fill="#1C3649" d="M104.3,41.4c-3.4-3.4-7.4-6.1-11.8-7.9c-4.6-1.9-9.4-2.9-14.4-2.9c-4.4,0-8.6,0.7-12.7,2.2l49.1,28.4
		c-0.5-2.7-1.3-5.4-2.4-8C110.4,48.8,107.7,44.8,104.3,41.4z"/>
	<path fill="#1C3649" d="M60.9,34.8C60.9,34.8,60.9,34.8,60.9,34.8l18,31.3h36.2c0-0.4,0-0.8-0.1-1.2L62,34.2
		C61.6,34.4,61.2,34.6,60.9,34.8z"/>
	<path fill="#1C3649" d="M115.1,69.1L115.1,69.1l-36.2,0v0l-18,31.3c0,0,0,0,0,0c0.4,0.2,0.7,0.4,1.1,0.5L115,70.3
		C115.1,69.9,115.1,69.5,115.1,69.1z"/>
	<path fill="#1C3649" d="M92.5,101.7c4.4-1.9,8.4-4.5,11.8-7.9c3.4-3.4,6.1-7.4,7.9-11.8c1.1-2.6,1.9-5.3,2.4-8l-49.2,28.4
		c4,1.5,8.3,2.2,12.7,2.2C83.1,104.6,87.9,103.7,92.5,101.7z"/>
	<path fill="#1C3649" d="M76.3,67.6L76.3,67.6L76.3,67.6l-18-31.3c0,0,0,0,0,0c-0.1,0.1-1,0.7-1,0.7l0,61.2c0.3,0.2,0.7,0.4,1,0.7
		l0,0L76.3,67.6z"/>
	<polygon fill="#1C3649" points="78.9,69.1 78.9,69.1 78.9,69.1 	"/>
	<path fill="#1C3649" d="M78.1,27.7c20.5,0,37.3,15.4,39.6,35.3c0.1,0.6,0.1,1.1,0.2,1.7c0,0,0,0,0,0L136.1,33L117.1,0H78.9
		L60.6,31.7c0.6-0.3,1.1-0.5,1.7-0.8C67.1,28.9,72.5,27.7,78.1,27.7z"/>
	<rect x="61" y="103.4" fill="#1C3649" width="0" height="1.4"/>
	<path fill="#1C3649" d="M117.9,70.5C117.9,70.5,117.9,70.5,117.9,70.5c0,0.6-0.1,1.2-0.2,1.8c-2.3,19.9-19.2,35.3-39.6,35.3
		c-5.6,0-11-1.2-15.8-3.3c-0.5-0.2-1.1-0.5-1.6-0.7L79,135.2h38.2l19.1-33L117.9,70.5z"/>
	<path fill="#1C3649" d="M55.8,34.5H19.1L0,67.6l19.1,33h36.6c0,0,0,0,0,0c-0.5-0.3-0.9-0.7-1.4-1c-9.7-7.3-16-18.9-16-32
		c0-13.1,6.3-24.7,16-32C54.8,35.2,55.3,34.9,55.8,34.5z"/>
</g>
</svg>
