<?xml version="1.0" encoding="utf-8"?>
<!-- Generator: Adobe Illustrator 18.1.1, SVG Export Plug-In . SVG Version: 6.00 Build 0)  -->
<svg version="1.1" id="Layer_1" xmlns="http://www.w3.org/2000/svg" xmlns:xlink="http://www.w3.org/1999/xlink" x="0px" y="0px"
	 width="228.2px" height="24px" viewBox="-325 349 228.2 24" enable-background="new -325 349 228.2 24" xml:space="preserve">
<g id="guides">
</g>
<g id="Layer_2">
	<g>
		<path fill="#262626" d="M-325,349h13.7c2.3,0,4,0.6,5.2,1.7c1.2,1.1,1.8,2.5,1.8,4.2c0,1.4-0.4,2.6-1.3,3.6
			c-0.6,0.7-1.4,1.2-2.5,1.6c1.7,0.4,2.9,1.1,3.7,2.1c0.8,1,1.2,2.2,1.2,3.7c0,1.2-0.3,2.3-0.9,3.3c-0.6,1-1.3,1.8-2.3,2.3
			c-0.6,0.4-1.5,0.6-2.8,0.8c-1.6,0.2-2.7,0.3-3.3,0.3H-325V349z M-317.6,358.3h3.2c1.1,0,1.9-0.2,2.4-0.6c0.4-0.4,0.7-1,0.7-1.7
			c0-0.7-0.2-1.2-0.7-1.6c-0.4-0.4-1.2-0.6-2.3-0.6h-3.2C-317.6,353.8-317.6,358.3-317.6,358.3z M-317.6,367.5h3.7
			c1.3,0,2.1-0.2,2.7-0.7c0.5-0.4,0.8-1,0.8-1.8c0-0.7-0.3-1.3-0.8-1.7c-0.5-0.4-1.4-0.6-2.7-0.6h-3.7L-317.6,367.5L-317.6,367.5z"
			/>
		<path fill="#262626" d="M-300.6,364.1c0-2.6,0.9-4.8,2.6-6.5c1.8-1.7,4.1-2.5,7.1-2.5c3.4,0,6,1,7.8,3c1.4,1.6,2.1,3.6,2.1,5.9
			c0,2.6-0.9,4.8-2.6,6.5s-4.2,2.5-7.2,2.5c-2.7,0-5-0.7-6.7-2.1C-299.6,369.2-300.6,366.9-300.6,364.1z M-294,364.1
			c0,1.5,0.3,2.7,0.9,3.4c0.6,0.7,1.4,1.1,2.3,1.1c0.9,0,1.7-0.4,2.3-1.1c0.6-0.7,0.9-1.9,0.9-3.5c0-1.5-0.3-2.6-0.9-3.3
			c-0.6-0.7-1.4-1.1-2.3-1.1c-1,0-1.7,0.4-2.4,1.1C-293.7,361.5-294,362.6-294,364.1z"/>
		<path fill="#262626" d="M-278.6,364.1c0-2.6,0.9-4.8,2.6-6.5c1.8-1.7,4.1-2.5,7.1-2.5c3.4,0,6,1,7.8,3c1.4,1.6,2.1,3.6,2.1,5.9
			c0,2.6-0.9,4.8-2.6,6.5c-1.7,1.7-4.2,2.5-7.2,2.5c-2.7,0-5-0.7-6.7-2.1C-277.6,369.2-278.6,366.9-278.6,364.1z M-272,364.1
			c0,1.5,0.3,2.7,0.9,3.4c0.6,0.7,1.4,1.1,2.3,1.1c0.9,0,1.7-0.4,2.3-1.1c0.6-0.7,0.9-1.9,0.9-3.5c0-1.5-0.3-2.6-0.9-3.3
			c-0.6-0.7-1.4-1.1-2.3-1.1c-1,0-1.7,0.4-2.4,1.1C-271.7,361.5-272,362.6-272,364.1z"/>
		<path fill="#262626" d="M-255.8,349h6.7v12.2l4.9-5.7h8.1l-6.1,6l6.5,11.1h-7.4l-3.5-6.9l-2.5,2.4v4.4h-6.7L-255.8,349L-255.8,349
			z"/>
		<path fill="#E21E28" d="M-233.3,349h7.3v8.3h8V349h7.3v23.6h-7.3v-9.6h-8v9.6h-7.3V349z"/>
		<path fill="#E21E28" d="M-207.1,364.1c0-2.6,0.9-4.8,2.6-6.5c1.8-1.7,4.1-2.5,7.1-2.5c3.4,0,6,1,7.8,3c1.4,1.6,2.1,3.6,2.1,5.9
			c0,2.6-0.9,4.8-2.6,6.5c-1.7,1.7-4.2,2.5-7.2,2.5c-2.8,0-5-0.7-6.7-2.1C-206.1,369.2-207.1,366.9-207.1,364.1z M-200.5,364.1
			c0,1.5,0.3,2.7,0.9,3.4c0.6,0.7,1.4,1.1,2.3,1.1c0.9,0,1.7-0.4,2.3-1.1s0.9-1.9,0.9-3.5c0-1.5-0.3-2.6-0.9-3.3
			c-0.6-0.7-1.4-1.1-2.3-1.1c-1,0-1.7,0.4-2.4,1.1C-200.2,361.5-200.5,362.6-200.5,364.1z"/>
		<path fill="#E21E28" d="M-184.1,349h6.6v23.6h-6.6V349z"/>
		<path fill="#E21E28" d="M-155.3,349v23.6h-6.1v-2.5c-0.9,1.1-1.6,1.8-2.4,2.2c-0.9,0.5-2,0.7-3.2,0.7c-2.3,0-4.1-0.9-5.3-2.7
			c-1.2-1.8-1.8-3.9-1.8-6.5c0-2.8,0.7-5,2-6.5c1.4-1.5,3.1-2.3,5.2-2.3c1,0,1.9,0.2,2.8,0.5c0.8,0.3,1.6,0.9,2.2,1.5V349H-155.3z
			 M-161.9,364c0-1.3-0.3-2.3-0.9-3s-1.3-1-2.2-1c-0.8,0-1.4,0.3-1.9,0.9c-0.5,0.6-0.8,1.7-0.8,3.2c0,1.4,0.3,2.4,0.8,3.1
			c0.5,0.6,1.2,1,2,1c0.8,0,1.5-0.3,2.1-1C-162.2,366.6-161.9,365.5-161.9,364z"/>
		<path fill="#E21E28" d="M-132.3,365.7h-13.1c0.1,1.1,0.4,1.8,0.9,2.4c0.6,0.7,1.5,1.1,2.5,1.1c0.6,0,1.3-0.2,1.8-0.5
			c0.4-0.2,0.7-0.6,1.1-1.1l6.5,0.6c-1,1.7-2.2,3-3.6,3.7c-1.4,0.7-3.4,1.1-6,1.1c-2.3,0-4-0.3-5.3-1c-1.3-0.6-2.4-1.7-3.2-3
			c-0.9-1.4-1.3-3-1.3-4.9c0-2.7,0.9-4.8,2.6-6.5c1.7-1.7,4.1-2.5,7.1-2.5c2.4,0,4.4,0.4,5.8,1.1c1.4,0.7,2.5,1.8,3.2,3.2
			c0.7,1.4,1.1,3.2,1.1,5.5L-132.3,365.7L-132.3,365.7z M-139,362.5c-0.1-1.3-0.5-2.2-1-2.7c-0.6-0.5-1.3-0.8-2.2-0.8
			c-1,0-1.9,0.4-2.5,1.2c-0.4,0.5-0.6,1.3-0.8,2.3H-139z"/>
		<path fill="#E21E28" d="M-129.3,355.5h6.1v2.8c0.6-1.2,1.2-2,1.8-2.5c0.6-0.5,1.4-0.7,2.3-0.7c1,0,2,0.3,3.2,0.9l-2,4.7
			c-0.8-0.3-1.4-0.5-1.8-0.5c-0.9,0-1.5,0.4-2,1.1c-0.7,1-1,2.9-1,5.6v5.7h-6.6L-129.3,355.5L-129.3,355.5z"/>
		<path fill="#E21E28" d="M-115,367.9l6.5-0.6c0.3,0.8,0.6,1.3,1.1,1.7c0.5,0.3,1.1,0.5,1.9,0.5c0.9,0,1.6-0.2,2-0.6
			c0.4-0.3,0.6-0.6,0.6-1c0-0.5-0.2-0.8-0.7-1.1c-0.4-0.2-1.3-0.4-2.8-0.7c-2.3-0.4-3.9-0.8-4.7-1.1c-0.9-0.3-1.6-0.9-2.2-1.7
			c-0.6-0.8-0.9-1.7-0.9-2.8c0-1.1,0.3-2.1,1-2.9c0.7-0.8,1.6-1.4,2.7-1.8c1.1-0.4,2.7-0.6,4.6-0.6c2,0,3.5,0.2,4.5,0.5
			c1,0.3,1.8,0.8,2.4,1.4c0.6,0.7,1.2,1.5,1.6,2.7l-6.2,0.6c-0.2-0.5-0.4-1-0.8-1.2c-0.5-0.3-1.1-0.5-1.9-0.5
			c-0.7,0-1.3,0.1-1.6,0.4c-0.3,0.3-0.5,0.6-0.5,1c0,0.4,0.2,0.7,0.6,0.9c0.4,0.2,1.4,0.4,2.8,0.6c2.2,0.2,3.8,0.6,4.9,1
			c1.1,0.4,1.9,1.1,2.4,1.9c0.6,0.8,0.8,1.7,0.8,2.7c0,1-0.3,1.9-0.9,2.9c-0.6,0.9-1.5,1.7-2.8,2.2c-1.3,0.6-3,0.8-5.2,0.8
			c-3.1,0-5.4-0.4-6.7-1.3C-113.8,370.8-114.6,369.5-115,367.9z"/>
	</g>
</g>
</svg>
