<?xml version="1.0" encoding="utf-8"?>
<!-- Generator: Adobe Illustrator 18.1.1, SVG Export Plug-In . SVG Version: 6.00 Build 0)  -->
<!DOCTYPE svg PUBLIC "-//W3C//DTD SVG 1.1//EN" "http://www.w3.org/Graphics/SVG/1.1/DTD/svg11.dtd">
<svg version="1.1" id="Layer_1" xmlns="http://www.w3.org/2000/svg" xmlns:xlink="http://www.w3.org/1999/xlink" x="0px" y="0px"
	 viewBox="-367 289 64 24" enable-background="new -367 289 64 24" xml:space="preserve">
<g>
	<path fill="#CDCCCC" d="M-308.6,298.4c0,0.7-0.3,0.8-0.7,0.8c-0.4,0-0.7-0.1-0.7-0.8v-2.7h-1v2.7c0,1.5,1.1,1.7,1.7,1.7
		s1.7-0.2,1.7-1.7v-2.7h-1V298.4z M-304.6,297.8l1.1-2.1h-1.1l-0.6,1.1l-0.6-1.1h-1.1l1.1,2.1l-1.2,2.2h1.1l0.6-1.3l0.6,1.3h1.1
		L-304.6,297.8z"/>
</g>
<path fill="#CDCCCC" d="M-331.4,295.7l2.6,6.4l2.6-6.4h2.8l-4.5,10.6h-1.8l-4.5-10.6H-331.4z M-313.7,298.1h-4.6v1.8h3.6v2.3h-3.6
	v1.8h4.6v2.3h-7.2v-10.6h7.2C-313.7,295.7-313.7,298.1-313.7,298.1z M-336.9,306.3h2.8l-4.5-10.6h-1.8l-4.5,10.6h2.8l0.7-1.8h3.7
	L-336.9,306.3L-336.9,306.3z M-340.5,302.3l1.1-2.8l1.1,2.8H-340.5L-340.5,302.3z M-360.6,300.9c0.7-0.4,1.5-1.2,1.5-2.4
	c0-1.6-1.5-2.8-3.3-2.8h-4.7v10.6h4.9c1.8,0,3.3-1.2,3.3-2.9C-358.8,302-359.8,301.3-360.6,300.9L-360.6,300.9z M-364.6,297.9h2
	c0.6,0,1.1,0.4,1.1,1c0,0.6-0.5,1.1-1.1,1.1h-2V297.9z M-362.4,304.2h-2.2V302h2.1c0.6,0,1.2,0.5,1.2,1.1
	C-361.3,303.7-361.8,304.2-362.4,304.2z M-347,306.3l-2.7-4c1.4-0.6,2.1-1.7,2.1-3.2c0-1.9-1.3-3.4-3.2-3.4h-5.2v10.6h2.4v-3.9h1.2
	l2.6,3.8L-347,306.3L-347,306.3z M-353.5,298h2.5c0.6,0,1.2,0.5,1.2,1.2c0,0.7-0.6,1.3-1.2,1.3h-2.5
	C-353.5,300.5-353.5,298-353.5,298z"/>
</svg>
