<?xml version="1.0" encoding="utf-8"?>
<!-- Generator: Adobe Illustrator 18.1.1, SVG Export Plug-In . SVG Version: 6.00 Build 0)  -->
<svg version="1.1" id="Layer_1" xmlns="http://www.w3.org/2000/svg" xmlns:xlink="http://www.w3.org/1999/xlink" x="0px" y="0px"
	 width="644.6px" height="95.3px" viewBox="158.9 302.7 644.6 95.3" enable-background="new 158.9 302.7 644.6 95.3"
	 xml:space="preserve">
<g>
	<circle fill="#FFDC00" cx="202.8" cy="346.6" r="24.8"/>
	<polygon fill="#FF0000" points="246.6,317.5 231.9,302.7 217.3,317.3 202.8,302.7 202.8,346.6 246.6,346.6 232.1,332 	"/>
	<polygon fill="#0096E1" points="202.8,346.6 158.9,346.6 173.5,361.1 158.9,375.7 173.7,390.4 188.2,375.9 202.8,390.4 	"/>
	<path fill="#FF7D00" d="M227.6,346.6c0-6.4-2.4-12.7-7.3-17.5c-4.8-4.8-11.2-7.3-17.5-7.3v6.2v18.6h18.6l0,0H227.6z"/>
	<path d="M178,346.6c0,6.3,2.4,12.7,7.3,17.5c4.8,4.8,11.2,7.3,17.5,7.3l0-6.2v-18.6h-18.6l0,0H178z"/>
	<g>
		<path fill="#0096E1" d="M655.2,319.6h20.6c15,0,18.8,9,18.8,16.4c0,7.4-3.8,16.4-18.8,16.4h-12.7v25.8h-7.9V319.6z M663.1,345.4
			h10.4c6.3,0,12.6-1.5,12.6-9.4c0-7.9-6.3-9.4-12.6-9.4h-10.4V345.4z"/>
		<path fill="#0096E1" d="M716.1,338c11.7,0,20.8,9.2,20.8,20.6c0,11.4-9.2,20.6-20.8,20.6c-11.7,0-20.8-9.2-20.8-20.6
			C695.3,347.2,704.5,338,716.1,338z M716.1,372.2c7.9,0,12.9-5.7,12.9-13.6c0-7.9-5-13.6-12.9-13.6c-7.9,0-12.9,5.7-12.9,13.6
			C703.2,366.5,708.2,372.2,716.1,372.2z"/>
		<path fill="#0096E1" d="M765.6,348.8c-1.7-2.1-4.3-3.9-8-3.9c-3.5,0-6.5,1.6-6.5,4.4c0,4.7,6.7,5.4,10,6.1
			c6.5,1.6,11.4,4.1,11.4,11.4c0,8.9-8.1,12.3-15.9,12.3c-6.4,0-11.2-1.7-15.1-6.9l5.6-4.6c2.4,2.4,5.2,4.6,9.5,4.6
			c3.8,0,7.9-1.6,7.9-5c0-4.5-6.2-5.3-9.4-6c-6.4-1.6-12-3.6-12-11.2c0-8.2,7.5-12.1,14.9-12.1c5.2,0,10.6,1.8,13.4,6.4L765.6,348.8
			z"/>
		<path fill="#0096E1" d="M803.2,345.4h-10.7v17.8c0,4.4,0,9,5.6,9c1.7,0,3.8-0.2,5.3-1.2v6.8c-1.7,1-5.2,1.3-6.7,1.3
			c-11.5,0-11.7-7-11.7-13.3v-20.4h-8.6V339h8.6v-17.1h7.4V339h10.7V345.4L803.2,345.4z"/>
	</g>
	<g>
		<path d="M336,319.6h7.4V345h0.2c1.9-4.1,6.9-7,12.9-7c7.6,0,14.2,4.5,14.2,15v25.2h-7.4V355c0-7.4-4.2-10.1-8.9-10.1
			c-6.2,0-10.9,4-10.9,13.1v20.2H336V319.6z"/>
		<path d="M380.8,343.8c4.1-3.9,10.1-5.8,15.6-5.8c11.6,0,16.4,6.3,16.4,13.1v20c0,2.7,0.1,5,0.3,7.1h-6.6c-0.2-2-0.2-4-0.2-6H406
			c-3.3,5-7.8,6.9-13.7,6.9c-7.3,0-13.6-4.1-13.6-11.7c0-10.1,9.7-13.6,21.6-13.6h5.5v-1.7c0-4.1-3-8.3-9.3-8.3
			c-5.7,0-8.4,2.4-11.2,4.5L380.8,343.8z M401.8,359.3c-7,0-15.6,1.2-15.6,7.5c0,4.5,3.3,6.4,8.4,6.4c8.3,0,11.2-6.1,11.2-11.4v-2.5
			H401.8z"/>
		<path d="M424.9,319.6h7.4v58.6h-7.4V319.6z"/>
		<path d="M445.5,319.6h7.4v58.6h-7.4V319.6z"/>
		<path d="M471.1,361.3c0,6.9,6.4,11.4,13.2,11.4c4.5,0,7.9-2.3,10.7-5.9l5.6,4.3c-4.1,5.4-9.8,8-17.4,8c-12.4,0-20.2-8.9-20.2-20.6
			c0-11.7,8.5-20.6,20.3-20.6c13.8,0,19.1,10.6,19.1,20.7v2.6H471.1z M494.6,355.4c-0.2-6.5-3.8-11.4-11.3-11.4
			c-7.4,0-12.2,6.2-12.2,11.4H494.6z"/>
		<path d="M511.1,339h7.4v6h0.2c1.9-4.1,6.9-7,12.9-7c7.6,0,14.2,4.5,14.2,15v25.2h-7.5V355c0-7.4-4.2-10.1-8.9-10.1
			c-6.2,0-10.9,4-10.9,13.1v20.2h-7.4L511.1,339L511.1,339z"/>
		<path d="M594.1,377.9c0,11.8-8.6,20.2-21.4,20.2c-7.4,0-13.7-1.9-19.2-7l5-6.3c3.9,4.1,8.3,6.4,14,6.4c11.1,0,14.1-6.9,14.1-13.6
			v-5.8h-0.2c-2.8,4.7-8.2,6.9-13.6,6.9c-11.5,0-20-8.7-19.9-20.1c0-11.6,7.8-20.6,19.9-20.6c5.3,0,10.8,2.4,13.7,6.6h0.2V339h7.4
			L594.1,377.9L594.1,377.9z M560.8,358.6c0,7.9,5,13.2,12.9,13.2c7.9,0,12.9-5.2,12.9-13.2c0-7.9-5-13.6-12.9-13.6
			C565.8,344.9,560.8,350.6,560.8,358.6z"/>
		<path d="M610.5,361.3c0,6.9,6.4,11.4,13.2,11.4c4.6,0,7.9-2.3,10.8-5.9l5.6,4.3c-4.1,5.4-9.8,8-17.4,8c-12.4,0-20.2-8.9-20.2-20.6
			c0-11.7,8.5-20.6,20.3-20.6c13.8,0,19.1,10.6,19.1,20.7v2.6H610.5z M634,355.4c-0.2-6.5-3.8-11.4-11.3-11.4
			c-7.4,0-12.2,6.2-12.2,11.4H634z"/>
		<path d="M322.5,364.6c-4.3,4.7-10.4,7.6-17.2,7.6c-12.9,0-23.3-10.4-23.3-23.3s10.4-23.3,23.3-23.3c6.2,0,11.9,2.5,16,6.4l6-4.6
			c-5.6-5.7-13.4-9.3-22-9.3c-17,0-30.8,13.8-30.8,30.8c0,17,13.8,30.8,30.8,30.8c9.2,0,17.5-4.1,23.2-10.5L322.5,364.6z"/>
	</g>
</g>
</svg>
