<?xml version="1.0" encoding="iso-8859-1"?>
<!-- Generator: Adobe Illustrator 18.1.1, SVG Export Plug-In . SVG Version: 6.00 Build 0)  -->
<!DOCTYPE svg PUBLIC "-//W3C//DTD SVG 1.1//EN" "http://www.w3.org/Graphics/SVG/1.1/DTD/svg11.dtd">
<svg version="1.1" id="Layer_1" xmlns="http://www.w3.org/2000/svg" xmlns:xlink="http://www.w3.org/1999/xlink" x="0px" y="0px"
	 viewBox="0 0 292.5 121.494" style="enable-background:new 0 0 292.5 121.494;" xml:space="preserve">
<circle style="fill:#FFDC00;" cx="61.778" cy="56.651" r="7.555"/>
<polygon style="fill:#FF0000;" points="75.135,47.788 70.644,43.295 66.211,47.727 61.779,43.295 61.779,56.651 75.135,56.651 
	70.703,52.218 "/>
<polygon style="fill:#0096E1;" points="61.779,56.651 48.421,56.651 52.853,61.082 48.421,65.516 52.913,70.008 57.345,65.577 
	61.779,70.008 "/>
<path style="fill:#FF7D00;" d="M69.333,56.651c0-1.935-0.736-3.866-2.213-5.342c-1.474-1.475-3.409-2.214-5.341-2.214v1.89v5.666
	h5.666l0,0H69.333z"/>
<path d="M54.223,56.651c0,1.934,0.737,3.867,2.213,5.344c1.476,1.475,3.408,2.213,5.341,2.213l0.002-1.891v-5.666h-5.668l0,0H54.223
	z"/>
<g>
	<path style="fill:#0096E1;" d="M199.633,48.446h6.275c4.564,0,5.72,2.746,5.72,4.99c0,2.242-1.156,4.991-5.72,4.991h-3.857v7.862
		h-2.418V48.446z M202.051,56.307h3.177c1.915,0,3.83-0.451,3.83-2.871c0-2.419-1.915-2.873-3.83-2.873h-3.177V56.307z"/>
	<path style="fill:#0096E1;" d="M218.201,54.04c3.556,0,6.35,2.798,6.35,6.275c0,3.478-2.794,6.275-6.35,6.275
		c-3.553,0-6.352-2.798-6.352-6.275C211.85,56.838,214.648,54.04,218.201,54.04z M218.201,64.474c2.418,0,3.932-1.74,3.932-4.158
		c0-2.419-1.514-4.158-3.932-4.158c-2.42,0-3.931,1.739-3.931,4.158C214.27,62.734,215.781,64.474,218.201,64.474z"/>
	<path style="fill:#0096E1;" d="M233.262,57.342c-0.528-0.655-1.309-1.185-2.443-1.185c-1.057,0-1.993,0.479-1.993,1.337
		c0,1.436,2.042,1.635,3.051,1.864c1.967,0.477,3.478,1.234,3.478,3.479c0,2.697-2.469,3.754-4.84,3.754
		c-1.964,0-3.425-0.505-4.608-2.117l1.71-1.41c0.733,0.729,1.59,1.41,2.898,1.41c1.162,0,2.42-0.479,2.42-1.51
		c0-1.362-1.888-1.614-2.873-1.841c-1.94-0.479-3.652-1.108-3.652-3.403c0-2.494,2.292-3.68,4.534-3.68
		c1.59,0,3.227,0.554,4.084,1.965L233.262,57.342z"/>
	<path style="fill:#0096E1;" d="M244.734,56.307h-3.251v5.421c0,1.336,0,2.746,1.715,2.746c0.528,0,1.16-0.076,1.612-0.353v2.067
		c-0.53,0.301-1.589,0.402-2.04,0.402c-3.502,0-3.555-2.142-3.555-4.059v-6.226h-2.619v-1.965h2.619v-5.213h2.268v5.213h3.251
		V56.307z"/>
</g>
<g>
	<path d="M102.366,48.445h2.268v7.739h0.051c0.58-1.262,2.092-2.144,3.932-2.144c2.317,0,4.335,1.386,4.335,4.562v7.688h-2.269
		v-7.059c0-2.241-1.286-3.073-2.722-3.073c-1.89,0-3.327,1.21-3.327,3.98v6.151h-2.268V48.445z"/>
	<path d="M116.013,55.806c1.259-1.186,3.074-1.766,4.738-1.766c3.529,0,4.99,1.916,4.99,3.983v6.098
		c0,0.832,0.025,1.537,0.101,2.168h-2.016c-0.05-0.603-0.075-1.211-0.075-1.815H123.7c-1.008,1.538-2.37,2.117-4.185,2.117
		c-2.216,0-4.132-1.26-4.132-3.578c0-3.073,2.948-4.134,6.578-4.134h1.663v-0.503c0-1.235-0.906-2.521-2.848-2.521
		c-1.739,0-2.572,0.729-3.402,1.358L116.013,55.806z M122.415,60.544c-2.142,0-4.763,0.376-4.763,2.293
		c0,1.359,1.008,1.938,2.57,1.938c2.52,0,3.402-1.865,3.402-3.476v-0.755H122.415z"/>
	<path d="M129.451,48.445h2.268v17.844h-2.268V48.445z"/>
	<path d="M135.734,48.445h2.267v17.844h-2.267V48.445z"/>
	<path d="M143.553,61.147c0,2.094,1.941,3.478,4.033,3.478c1.384,0,2.394-0.705,3.275-1.788l1.715,1.31
		c-1.26,1.638-2.999,2.443-5.293,2.443c-3.78,0-6.149-2.722-6.149-6.275c0-3.577,2.596-6.275,6.175-6.275
		c4.207,0,5.822,3.227,5.822,6.301v0.806H143.553z M150.709,59.332c-0.049-1.99-1.159-3.477-3.453-3.477
		c-2.241,0-3.703,1.89-3.703,3.477H150.709z"/>
	<path d="M155.725,54.342h2.266v1.842h0.053c0.579-1.262,2.092-2.144,3.932-2.144c2.317,0,4.335,1.386,4.335,4.562v7.688h-2.27
		v-7.059c0-2.241-1.285-3.073-2.72-3.073c-1.892,0-3.329,1.21-3.329,3.98v6.151h-2.266V54.342z"/>
	<path d="M181.002,66.189c0,3.604-2.619,6.147-6.525,6.147c-2.267,0-4.161-0.579-5.847-2.14l1.537-1.917
		c1.185,1.259,2.52,1.941,4.259,1.941c3.377,0,4.309-2.115,4.309-4.134v-1.763h-0.075c-0.857,1.435-2.495,2.117-4.134,2.117
		c-3.503,0-6.098-2.647-6.073-6.125c0-3.528,2.368-6.275,6.073-6.275c1.616,0,3.277,0.731,4.16,2.016h0.049v-1.714h2.268V66.189z
		 M170.872,60.316c0,2.418,1.512,4.008,3.932,4.008c2.418,0,3.931-1.59,3.931-4.008c0-2.419-1.513-4.158-3.931-4.158
		C172.384,56.158,170.872,57.897,170.872,60.316z"/>
	<path d="M186.017,61.147c0,2.094,1.942,3.478,4.033,3.478c1.389,0,2.395-0.705,3.276-1.788l1.714,1.31
		c-1.26,1.638-2.999,2.443-5.294,2.443c-3.78,0-6.149-2.722-6.149-6.275c0-3.577,2.596-6.275,6.176-6.275
		c4.209,0,5.819,3.227,5.819,6.301v0.806H186.017z M193.172,59.332c-0.047-1.99-1.156-3.477-3.451-3.477
		c-2.243,0-3.704,1.89-3.704,3.477H193.172z"/>
	<path d="M98.274,62.161c-1.3,1.418-3.162,2.313-5.237,2.313c-3.926,0-7.107-3.181-7.107-7.106c0-3.925,3.181-7.107,7.107-7.107
		c1.896,0,3.613,0.747,4.889,1.956l1.821-1.39c-1.702-1.745-4.079-2.834-6.71-2.834c-5.178,0-9.375,4.198-9.375,9.375
		c0,5.179,4.198,9.374,9.375,9.374c2.815,0,5.336-1.245,7.054-3.211L98.274,62.161z"/>
</g>
</svg>
