<?xml version="1.0" encoding="utf-8"?>
<!-- Generator: Adobe Illustrator 18.1.1, SVG Export Plug-In . SVG Version: 6.00 Build 0)  -->
<svg version="1.1" id="Layer_1" xmlns="http://www.w3.org/2000/svg" xmlns:xlink="http://www.w3.org/1999/xlink" x="0px" y="0px"
	 width="160px" height="40px" viewBox="-359 341 160 40" enable-background="new -359 341 160 40" xml:space="preserve">
<g id="guides">
</g>
<g id="Layer_2">
	<g>
		<g>
			<polygon fill="#231F20" points="-234.3,341 -239.9,361.6 -274.2,370.9 			"/>
			<polygon fill="#231F20" points="-324.2,341 -318.6,361.6 -284.3,370.9 			"/>
			<g>
				<path fill="#231F20" d="M-353.7,376.1h-3.9v3.8h3.9v-1.3l1.4,0.3v0.7c0,0.5-0.1,0.9-0.3,1.1c-0.2,0.2-0.6,0.3-1.2,0.3h-3.7
					c-0.6,0-1-0.1-1.2-0.3c-0.2-0.2-0.3-0.6-0.3-1.1v-3.2c0-0.5,0.1-0.9,0.3-1.1c0.2-0.2,0.6-0.3,1.2-0.3h3.7c0.6,0,1,0.1,1.2,0.3
					c0.2,0.2,0.3,0.6,0.3,1.1v0.6l-1.4,0.2V376.1z"/>
				<path fill="#231F20" d="M-350.5,381v-6h1.4v6H-350.5z"/>
				<path fill="#231F20" d="M-347,381v-6h5.3c0.5,0,0.8,0.1,1.1,0.3c0.2,0.2,0.3,0.5,0.3,0.9v1.3c0,0.4-0.1,0.7-0.3,0.9
					c-0.2,0.2-0.6,0.3-1.1,0.3h-3.9v2.4H-347z M-342.3,376h-3.3v1.6h3.3c0.2,0,0.4,0,0.5-0.1c0.1-0.1,0.1-0.2,0.1-0.4v-0.6
					c0-0.2,0-0.3-0.1-0.4C-341.9,376-342,376-342.3,376z"/>
				<path fill="#231F20" d="M-338.8,381v-6h1.4v2.3h4.5V375h1.4v6h-1.4v-2.5h-4.5v2.5H-338.8z"/>
				<path fill="#231F20" d="M-329.4,381v-6h6.3v1.1h-4.9v1.3h2.8v1h-2.8v1.5h4.9v1.1H-329.4z"/>
				<path fill="#231F20" d="M-321.5,381v-6h5.3c0.5,0,0.8,0.1,1.1,0.3c0.2,0.2,0.3,0.5,0.3,0.9v1.4c0,0.4-0.1,0.7-0.3,0.9
					c-0.2,0.2-0.6,0.3-1.1,0.3h-0.8l2.8,2.3h-2.1l-2.5-2.3h-1.4v2.3H-321.5z M-316.8,376h-3.3v1.7h3.3c0.2,0,0.4,0,0.5-0.1
					c0.1-0.1,0.1-0.2,0.1-0.4v-0.7c0-0.2,0-0.3-0.1-0.4C-316.4,376-316.6,376-316.8,376z"/>
				<path fill="#231F20" d="M-304.7,376v5h-1.4v-5h-2.8V375h7.1v1.1H-304.7z"/>
				<path fill="#231F20" d="M-300.5,381v-6h6.3v1.1h-4.9v1.3h2.8v1h-2.8v1.5h4.9v1.1H-300.5z"/>
				<path fill="#231F20" d="M-287.5,376.1h-3.9v3.8h3.9v-1.3l1.4,0.3v0.7c0,0.5-0.1,0.9-0.3,1.1c-0.2,0.2-0.6,0.3-1.2,0.3h-3.7
					c-0.6,0-1-0.1-1.2-0.3c-0.2-0.2-0.3-0.6-0.3-1.1v-3.2c0-0.5,0.1-0.9,0.3-1.1c0.2-0.2,0.6-0.3,1.2-0.3h3.7c0.6,0,1,0.1,1.2,0.3
					c0.2,0.2,0.3,0.6,0.3,1.1v0.6l-1.4,0.2V376.1z"/>
				<path fill="#231F20" d="M-284.3,381v-6h1.4v2.3h4.5V375h1.4v6h-1.4v-2.5h-4.5v2.5H-284.3z"/>
				<path fill="#231F20" d="M-264.6,376h-4v1.3h3.8c0.6,0,1,0.1,1.2,0.3c0.2,0.2,0.3,0.6,0.3,1.1v0.8c0,0.6-0.1,0.9-0.3,1.1
					c-0.2,0.2-0.6,0.3-1.2,0.3h-3.8c-0.6,0-1-0.1-1.2-0.3c-0.2-0.2-0.3-0.6-0.3-1.1v-0.2l1.3-0.2v0.7h4.3v-1.4h-3.8
					c-0.6,0-1-0.1-1.2-0.3c-0.2-0.2-0.3-0.6-0.3-1.1v-0.7c0-0.5,0.1-0.9,0.3-1.1c0.2-0.2,0.6-0.3,1.2-0.3h3.5c0.6,0,1,0.1,1.2,0.3
					c0.2,0.2,0.3,0.5,0.3,1v0.1l-1.2,0.3L-264.6,376L-264.6,376z"/>
				<path fill="#231F20" d="M-261.5,376.4c0-0.5,0.1-0.9,0.3-1.1c0.2-0.2,0.6-0.3,1.2-0.3h4.5c0.6,0,1,0.1,1.2,0.3
					c0.2,0.2,0.3,0.6,0.3,1.1v3.2c0,0.6-0.1,0.9-0.3,1.1c-0.2,0.2-0.6,0.3-1.2,0.3h-4.5c-0.6,0-1-0.1-1.2-0.3
					c-0.2-0.2-0.3-0.6-0.3-1.1L-261.5,376.4L-261.5,376.4z M-260.1,379.8h4.7v-3.8h-4.7V379.8z"/>
				<path fill="#231F20" d="M-252,381v-6h1.4v4.9h4.6v1.1H-252z"/>
				<path fill="#231F20" d="M-243.2,375v4.9h4.1V375h1.4v4.6c0,0.5-0.1,0.9-0.3,1.1c-0.2,0.2-0.6,0.3-1.2,0.3h-3.9
					c-0.6,0-1-0.1-1.2-0.3c-0.2-0.2-0.3-0.6-0.3-1.1V375H-243.2z"/>
				<path fill="#231F20" d="M-232.1,376v5h-1.4v-5h-2.8V375h7.1v1.1H-232.1z"/>
				<path fill="#231F20" d="M-227.9,381v-6h1.4v6H-227.9z"/>
				<path fill="#231F20" d="M-224.6,376.4c0-0.5,0.1-0.9,0.3-1.1c0.2-0.2,0.6-0.3,1.2-0.3h4.5c0.6,0,1,0.1,1.2,0.3
					c0.2,0.2,0.3,0.6,0.3,1.1v3.2c0,0.6-0.1,0.9-0.3,1.1c-0.2,0.2-0.6,0.3-1.2,0.3h-4.5c-0.6,0-1-0.1-1.2-0.3
					c-0.2-0.2-0.3-0.6-0.3-1.1L-224.6,376.4L-224.6,376.4z M-223.2,379.8h4.7v-3.8h-4.7L-223.2,379.8L-223.2,379.8z"/>
				<path fill="#231F20" d="M-215.1,381v-6h1l5,4v-4h1.3v6h-1l-5-4.1v4.1H-215.1z"/>
				<path fill="#231F20" d="M-200.3,376h-4v1.3h3.8c0.6,0,1,0.1,1.2,0.3c0.2,0.2,0.3,0.6,0.3,1.1v0.8c0,0.6-0.1,0.9-0.3,1.1
					c-0.2,0.2-0.6,0.3-1.2,0.3h-3.8c-0.6,0-1-0.1-1.2-0.3c-0.2-0.2-0.3-0.6-0.3-1.1v-0.2l1.3-0.2v0.7h4.3v-1.4h-3.8
					c-0.6,0-1-0.1-1.2-0.3c-0.2-0.2-0.3-0.6-0.3-1.1v-0.7c0-0.5,0.1-0.9,0.3-1.1c0.2-0.2,0.6-0.3,1.2-0.3h3.5c0.6,0,1,0.1,1.2,0.3
					c0.2,0.2,0.3,0.5,0.3,1v0.1l-1.2,0.3L-200.3,376L-200.3,376z"/>
			</g>
		</g>
	</g>
</g>
</svg>
