<?xml version="1.0" encoding="utf-8"?>
<!-- Generator: Adobe Illustrator 18.1.1, SVG Export Plug-In . SVG Version: 6.00 Build 0)  -->
<svg version="1.1" id="Layer_1" xmlns="http://www.w3.org/2000/svg" xmlns:xlink="http://www.w3.org/1999/xlink" x="0px" y="0px"
	 width="878.2px" height="208.4px" viewBox="-671.7 503.7 878.2 208.4" enable-background="new -671.7 503.7 878.2 208.4"
	 xml:space="preserve">
<g id="guides">
</g>
<g id="Layer_2">
	<g>
		<g>
			<g>
				<path fill="#FFFFFF" d="M-565.7,680.4c40.5,0,73.6-32.8,73.6-73.3s-34.5-73-73.6-73c-40.5,0-73.8,32.5-73.8,73
					S-606.2,680.4-565.7,680.4z"/>
				<polygon fill="none" points="-497.2,588.4 -497.2,588.3 -497.3,588.3 				"/>
				<path fill="#FFFFFF" d="M-531.5,560.8c-9.5,1.4-22.2,2.3-35.5,2.3c0.2-14.6,0.4-25.1,0.7-28.3
					C-552.7,537-540.4,546.8-531.5,560.8"/>
				<path fill="#EE3E42" d="M-515.6,613c-13.7,2.1-32.1,3.3-51.4,3.3c0-19.8,0.1-39,0.3-53.9c13.3,0,26-0.9,35.4-2.3
					C-522,574.5-516.1,593.2-515.6,613"/>
				<path fill="#FFFFFF" d="M-516.8,612.9c-3.8-0.6-7.1-7-5.3-13.5c-5.4,3.7-11.4-4-10.5-11c0.5-3.8,2.9-7.1,7.1-5.5
					c-1.7-6-3.9-11.6-6.5-16.8c-3.8,0.5-7.9,0.9-12.4,1.2c4,5.9,0.1,11.4-5.4,10.5c-4-0.7-7.6-4.8-6.7-9.8
					c-3.2,2.2-9.9,1.4-10.4-5.7c12.2-0.1,22.8-0.5,35.5-2.2l0,0c10.2,16.9,14.6,31.7,15.6,52.7C-515.9,612.9-516.4,613-516.8,612.9"
					/>
				<path fill="#FFFFFF" d="M-604.8,662.4c-7.5-1.3-12.6-2.9-14.3-4.6c-1.8-2.1-4.3-4.9-6.1-7.1c-4.2-6.2-4.2-6.3-6.1-9.8
					c-3.2-6.9-3.3-7-4.5-10.7c-2.1-7.3-2.1-7.5-2.8-11.5c-0.4-3.5-0.8-8.1-1-11.6l0.1-3.2c-0.1,3.1,7.3,6.1,20.4,8.2
					c0,1.1,0,2,0,3.1C-619.1,634.3-613.6,650.8-604.8,662.4"/>
				<path fill="#FFFFFF" d="M-565.9,680.4c-0.4,0-0.8,0-1.2,0c-0.7,0-1.4,0-2-0.1c-4.4-0.3-7.3-0.7-11.1-1.4
					c-9.6-2.2-18-8.1-24.6-16.7c6.5,1.1,14.8,1.9,24.5,2.3c4.5,0.2,9.2,0.3,13.7,0.3C-566.4,674.7-566.2,680.4-565.9,680.4"/>
				<path fill="#EE3E42" d="M-566.6,664.9c-4.5,0-9.2-0.1-13.7-0.3c-9.7-0.4-18-1.3-24.4-2.3c-8.8-11.6-14.2-28.1-14.2-47.1
					c0-0.9,0-1.6,0-2.5c8.8,1.4,20.2,2.6,33.3,3.2c6.3,0.3,12.6,0.4,18.7,0.4c0,0.9,0,1.6,0,2.5
					C-566.9,637.7-566.8,653.9-566.6,664.9"/>
				<path fill="#EE3E42" d="M-566.7,665.9c-0.6,2.5-4.2,4.9-9.3,2.9c2.3,3.1,0.3,5.8-3.9,5c-3.2-0.6-7.1-3.2-7.3-5.8
					c-4-0.3-7.6-0.7-10.8-1.2c3.1,3.6,6.5,6.5,10.2,8.7c0.5-0.2,1.2-0.1,3.3,0.6c2.8,1,5.4,2.4,8.2,3.4l0,0
					c-2.2-0.4-2.5-0.4-4.1-0.7c-5.3-1.5-15.2-4.3-24.5-16.7l0,0l0,0l0,0c11.4,1.7,22.5,2.5,38.2,2.6
					C-566.6,665.2-566.6,665.6-566.7,665.9"/>
				<path fill="#FFFFFF" d="M-604.9,662.3L-604.9,662.3c-10.1-14.5-14.1-28.4-14.2-49.5c5.7,1.9,7.3,10.2,5.8,15
					c5.4-2.1,12.3,7.3,9.9,13.6c-1.1,2.9-4,3.7-7,1.9c1.6,5.5,3.8,10.5,6.3,15c3.9,0.6,8.2,1,12.9,1.4c-3.8-4.6-0.8-8.5,4.3-8.2
					c4.3,0.2,10.1,3.9,8.9,8.8c4-1.7,10.6-0.3,11.4,4.8c-4.7,0-12-0.1-21.2-0.8C-593.5,663.8-599.2,662.8-604.9,662.3"/>
				<polyline fill="#E03A3E" points="-604.9,662.3 -604.9,662.3 -604.9,662.3 				"/>
				<polyline fill="#E03A3E" points="-604.9,662.3 -604.9,662.3 -604.9,662.3 				"/>
				<path fill="#EE3E42" d="M-604.9,662.3c-8.4-1.5-12-2.7-14.4-4.6c-1.7-1.9-4-4.5-5.5-6.5c0.3,0.4,0.5,0.6,1.3,1.5
					c-0.8-1-4.6-5.9-4.9-8c2.1-0.3,8.8,10.1,8.9,10.2c2,0.8,4.7,1.4,7.9,2.1c-3-4.5-5.5-9.7-7.4-15.2c-4.5,2.3-10.4-9.8-8.6-14.9
					c0.4-1.1,1.5-3.2,4.7-0.9c-2.3-5.4-1.7-13.3,3.9-13.3C-618.9,630.5-616.4,645.8-604.9,662.3"/>
				<path d="M-515.9,625.7L-515.9,625.7c0.2-3.4,0.4-6.8,0.4-10.2c0-0.8,0-1.6,0-2.4h0.1c0,0.8,0,1.6,0,2.4
					C-515.4,618.9-515.6,622.3-515.9,625.7"/>
				<path d="M-554.6,679.6L-554.6,679.6c20.2-3.1,35.7-24.5,38.6-54l0.1,0.1C-518.8,655-534.5,676.4-554.6,679.6"/>
				<path fill="#231F20" d="M-530.2,671.2c-5,2.6-6,3.1-11.4,5.1c-1.5,0.5-3.7,1.2-5.2,1.6c10.2-2.8,19.4-8.6,26.6-16.8
					c-1.5,3.4-2.6,5.3-7.9,8.9C-528.8,670.4-529.5,670.9-530.2,671.2"/>
				<path fill="#FFD420" d="M-528.2,670c4.4-3.1,6.3-4.8,7.9-8.9c10.5-12,17-28.9,17-48.2c0-0.8,0-1.6,0-2.4c3.4-0.9,6-1.8,7.9-2.9
					c0,0.8,0,1.6,0,2.4C-495.3,636-508.5,658.1-528.2,670"/>
				<path fill="#231F20" d="M-550.3,651.1c-4.9-4.9-4.9-4.9-16.6-16c0-5.1,0-10.6-0.1-16.3c0-0.8,0-1.6,0-2.4
					c6.4,0,12.7-0.1,18.7-0.4c0,0.8,0,1.6,0,2.4C-548.3,630.6-548.9,641.7-550.3,651.1"/>
				<path fill="#FFD420" d="M-562.8,680.3h-0.5c-1,0-1.4,0-1.9,0h-0.8c-0.4,0-0.8-18.2-1-45.4c11,10.4,12.2,11.5,16.6,16
					C-552.8,668.9-557.3,680.1-562.8,680.3"/>
				<path fill="#231F20" d="M-559.4,680.1c-0.6,0.1-1.4,0.1-1.9,0.2c-0.5,0-1.1,0.1-1.5,0.1c5.5-0.2,10-11.4,12.6-29.3
					c5.3,5.6,7.6,8.3,10.2,12.5C-545.1,673.5-551.7,679.5-559.4,680.1"/>
				<path fill="#FFD420" d="M-540.1,663.5c-2.5-4-4.1-6.1-10.2-12.5c1.3-9.3,2-20.5,2-32.7c0-0.8,0-1.6,0-2.4
					c6.1-0.3,11.9-0.6,17.3-1.1c0,0.8,0,1.6,0,2.4C-530.9,636.1-534.4,652.3-540.1,663.5"/>
				<path fill="#231F20" d="M-538.6,672.6c1-2.9,0.9-4.6-1.4-9.1c5.7-11.2,9.1-27.4,9.1-46.3c0-0.8,0-1.6,0-2.4c2-0.2,4.1-0.4,6-0.6
					c2.7,3.2,6.1,7.1,9,11.3C-518,646.5-526.5,663.4-538.6,672.6"/>
				<path fill="#FFD420" d="M-554.6,679.6c-0.6,0.1-1.3,0.2-1.8,0.3c-1.7,0.2-1.7,0.2-2.6,0.3h-0.3c7.6-0.7,14.3-6.8,19.3-16.6
					c2,4,2.6,5.8,1.4,9.1C-543.4,676.3-548.8,678.7-554.6,679.6"/>
				<path fill="#FFD420" d="M-546.8,677.9l-1.7,0.5c-2.9,0.7-2.9,0.7-4.5,1l-1.4,0.2c14.3-2.2,26.4-13.6,33.1-30.5
					c1.8,5,2.5,7.3,1.3,12.2C-527.5,669.3-536.6,675.1-546.8,677.9"/>
				<path fill="#231F20" d="M-548.6,678.4c-2.9,0.7-2.9,0.7-4.5,1l-1.4,0.2c5.8-0.9,11.2-3.3,16-7c-1.6,2.5-2.8,3.6-8.2,5.3
					L-548.6,678.4"/>
				<path fill="#231F20" d="M-520.3,661.1c1-4.2,1-6.6-1.3-12.2c3.9-9.7,6.1-21.1,6.1-33.6c0-0.8,0-1.6,0-2.4
					c4.6-0.7,8.7-1.5,12.2-2.4c0,0.8,0,1.6,0,2.4C-503.3,632.2-509.7,649.1-520.3,661.1"/>
				<path fill="#FFD520" d="M-530.2,671.2c0.7-0.4,1.4-0.8,1.9-1.2l-0.8,0.5L-530.2,671.2"/>
				<path fill="#231F20" d="M-495,609.9c0,26.3-13.5,48.8-34,60.6l0,0l0.8-0.5c19.8-12,32.9-34.1,32.9-60c0-0.8,0-1.6,0-2.4
					c0.1-0.1,0.2-0.1,0.4-0.2C-495,608.3-495,609.1-495,609.9"/>
				<path fill="#FFD420" d="M-521.6,648.9c-2.6-5.3-4.3-8.1-10.3-15.4c0.6-5.2,0.9-10.6,0.9-16.4c0-0.8,0-1.6,0-2.4
					c5.6-0.5,10.7-1.1,15.4-1.8c0,0.8,0,1.6,0,2.4C-515.5,628-517.7,639.4-521.6,648.9"/>
				<path fill="#231F20" d="M-531.8,633.7c-4.2-4.8-6.4-7.3-16.4-17.8c5.7-0.3,10.1-0.5,17.3-1.2c0,0.9,0,1.6,0,2.5
					C-531,623-531.3,628.5-531.8,633.7"/>
				<path fill="#231F20" d="M-619.1,612.7L-619.1,612.7c0-4.3,0.4-8.6,1-12.7l0.1,0.2C-618.6,604.2-619,608.5-619.1,612.7"/>
				<path fill="#231F20" d="M-618,600.1l-0.1-0.2c4.5-30.2,22.1-55.9,44.2-63.7h-0.1C-596,544.2-613.5,569.9-618,600.1"/>
				<path fill="#231F20" d="M-574,536.2L-574,536.2c2.6-1,5.3-1.6,7.9-2l0,0C-568.7,534.6-571.3,535.3-574,536.2"/>
				<path fill="#FFD420" d="M-610.1,557.8c2.6-5.8,4.4-8.6,9.9-13.3c10.1-6.1,21.7-9.8,34.2-10.3
					C-583,535.8-598.6,544.5-610.1,557.8"/>
				<path fill="#231F20" d="M-630.4,610.2c-3-0.9-5.3-1.8-6.9-2.8c0.8-26.6,15.5-50,37-63c-5.1,4.5-7.3,7.1-9.9,13.3
					C-622.1,571.6-629.8,590.2-630.4,610.2"/>
				<path fill="#FFD420" d="M-567,616.3c-6.2,0-12.5-0.1-18.6-0.4c-0.2,0-0.4,0-0.6,0c0.1-13,1.2-25.9,2.9-37.3
					c5.3,6.7,8.1,9.9,16.3,18.5C-567,603.4-567,609.7-567,616.3"/>
				<path fill="#FFD420" d="M-583.2,578.5c-5-7-7.1-10.5-9.2-16.9c6.9-14.4,16.1-24.6,26.5-27.4
					C-573.4,538.4-579.7,555.8-583.2,578.5"/>
				<path fill="#231F20" d="M-586.2,615.8c-6.4-0.3-12.4-0.7-17.8-1.3c0.3-19.7,4.6-38.4,11.6-53c2.1,6.2,3.8,9.7,9.2,16.9
					C-585.1,589.9-586.1,602.8-586.2,615.8"/>
				<path fill="#FFD420" d="M-604,614.7c-2-0.2-4.1-0.4-5.9-0.7c-2.4-3.8-5.5-8.4-8-13.9c3.2-21.4,12.8-40.6,26.1-52.7
					c-1.7,4.8-2.1,7.7-0.6,14.2C-599.4,576.2-603.7,595-604,614.7"/>
				<path fill="#231F20" d="M-592.5,561.6c-1.4-6-1.4-9.1,0.6-14.2c7.6-7.1,16.5-11.8,25.9-13.2
					C-576.3,536.9-585.6,547.3-592.5,561.6"/>
				<path fill="#231F20" d="M-611.1,575.3c-1.1-7.1-1.1-10.8,1.1-17.5c11.5-13.2,26.9-22,44-23.6l0,0c-4.1,0.7-4.8,0.8-7.8,2
					C-589.6,541.8-603,556.4-611.1,575.3"/>
				<path fill="#FFD420" d="M-591.8,547.3c2.5-4.2,4.1-6.4,10.2-9.6c4.9-1.8,10.1-3,15.5-3.5C-575.4,535.7-584.2,540.3-591.8,547.3"
					/>
				<path fill="#FFD420" d="M-619.2,612.7c-4.3-0.8-8.1-1.5-11.2-2.4c0.6-20,8.2-38.6,20.3-52.4c-1.8,6.2-2.3,9.8-1.1,17.5
					C-616,586.6-618.9,599.4-619.2,612.7"/>
				<path fill="#231F20" d="M-600.1,544.5c5.4-3.9,8.4-5.7,16.8-8.3c5.5-1.4,11.3-2,17.3-2l0,0C-578.4,534.7-590,538.5-600.1,544.5"
					/>
				<path fill="#FFD420" d="M-637.2,607.4c-1.5-1-2.3-1.9-2.3-3l0.1-2.5c2.1-32.1,25.3-58.4,56-65.7c-7,2.2-10.8,3.9-16.8,8.3
					C-621.6,557.4-636.3,581-637.2,607.4"/>
				<path fill="#231F20" d="M-604,614.7c-5.6-0.6-10.6-1.2-15-1.9c0.3-13.3,3.2-26.1,8-37.4c1.8,7.4,3.4,11.4,8.6,20.2
					C-603.4,601.7-603.9,608.1-604,614.7"/>
				<path fill="#FFD420" d="M-604,614.7c0.1-6.6,0.7-13,1.6-19.2c4.5,6.7,7.2,10.6,16.2,20.5C-592.3,615.5-596.7,615.3-604,614.7"/>
				<path fill="#231F20" d="M-581.6,537.7c4.1-1.6,7.6-3.1,15.5-3.5l0,0C-571.3,534.7-576.6,535.9-581.6,537.7"/>
				<path fill="none" d="M-492.2,606.7c-0.1,4-0.2,9.9-2.3,18.4c-1.9,7.6-5.2,14.4-6.4,16.3c-3.8,6.6-10.8,18.8-28,29.1"/>
				<path fill="#231F20" d="M-494.9,607.4c1.8-1.1,2.8-2.2,2.7-3.3c1,30.6-16.2,54.4-36.7,66.3h-0.1l0.8-0.5
					c19.8-12,32.9-34.1,32.9-60c0-0.8,0-1.6,0-2.4C-495.1,607.5-495,607.4-494.9,607.4c0,0.8,0,1.6,0,2.4"/>
				<polygon fill="none" points="-497.2,588.4 -497.2,588.3 -497.3,588.3 				"/>
				<path fill="#EE3E42" d="M-531.2,560.2L-531.2,560.2L-531.2,560.2C-531.2,560.2-531.1,560.2-531.2,560.2L-531.2,560.2
					C-531.1,560.2-531.1,560.1-531.2,560.2c0.8-0.1,1.4-0.3,2.1-0.4c4.2-0.8,13.3-2.8,13.3-5.5c0,0,4.1,3.8,6.8,8.8
					c0.3,0.6,0.6,1.2,0.9,1.7s0.4,1.2,0.5,1.6c0,0,0,0.1,0.1,0.1c0,0.2,0,0.5,0,0.7c0,0.1,0,0.2,0,0.2c-0.2,1.5-1.2,1.6-2.2,1.2
					c-0.1,0-0.2-0.1-0.4-0.1c-3.8-1.7-5-5.1-5.7-6.6c-1.9,0.6-5.1,1.9-7.7,2.5c-0.3,0.1-0.9,0.2-1.2,0.3c3.1,5.1,6.1,11.2,8.2,17.1
					c3.7-3.8,9.5,3.3,9.8,10c0.2,4-1.6,7.5-5.3,6.3c2.9,5.4,2,13.3-3.6,15.1C-516.5,595.2-519.5,579.4-531.2,560.2L-531.2,560.2
					L-531.2,560.2"/>
				<path fill="#EE3E42" d="M-530.5,546.5L-530.5,546.5L-530.5,546.5c0-0.1,0-0.1-0.1-0.2c0.1-0.1,0.1-0.2,0.2-0.2
					c0.1,0,0.2,0,0.3,0l0,0c0,0,0.6-2.2,9,3.6c-14.3-11.2-28.8-14.4-37.4-15.2c0.9,0.3,1.6,0.6,2.1,0.8s0.8,0.4,1,0.6l0,0
					c1.1,0.1,2,0.3,2.8,0.5l0,0l0,0c0.3,0.1,0.6,0.2,1,0.3h0.1c0.3,0.1,0.6,0.2,0.8,0.3c0.1,0,0.1,0.1,0.2,0.1
					c0.3,0.1,0.5,0.2,0.8,0.3c0.1,0,0.2,0.1,0.2,0.1c0.3,0.2,0.7,0.3,1,0.5l0,0c2.6,1.3,4.6,2.7,4.7,3.8c-0.4,0.2-0.5,0.3-1.6,0
					c4.3,3.1,10.5,8.9,14.2,13.2c2.5-0.5,6.3-1.1,8-1.6C-523.4,553.5-529.7,548.8-530.5,546.5z"/>
				<path fill="#FFFFFF" d="M-515.7,554.3c-1.8-1.7-3.7-3.3-5.4-4.6c-3.4-2.3-5.5-3.4-6.9-3.8l0,0c0,0-4.2-1.4-1.8,1.8l0,0
					c1.8,2.4,6.4,5.8,6.5,5.7c-1.7,0.6-5.5,1.2-8,1.5c-3.7-4.2-9.9-10.1-14.2-13.2c1.2,0.3,1.3,0.2,1.6,0c0-1.1-2.1-2.5-4.7-3.8l0,0
					c-0.3-0.2-0.7-0.3-1-0.5c-0.1,0-0.2-0.1-0.2-0.1c-0.3-0.1-0.5-0.2-0.8-0.3c-0.1,0-0.1-0.1-0.2-0.1c-0.3-0.1-0.6-0.2-0.8-0.3
					h-0.1c-0.3-0.1-0.6-0.2-1-0.3l0,0c-0.9-0.2-1.8-0.4-2.8-0.5l0,0c0.1,0.1,0.1,0.1,0.2,0.2l-0.3-0.1c0.1,0,0.1,0,0.1,0
					c-0.2-0.2-0.6-0.4-1-0.6c-0.5-0.3-1.2-0.5-2.1-0.8c-2.1-0.2-3.9-0.3-5.1-0.3c-1,0-1.7,0-1.9,0l0,0c-0.3,0-0.5,0-0.5,0l0.3,0.1
					c-0.2,0-0.4-0.1-0.6-0.1c0.5,0.1,0.9,0.2,1.4,0.3c1.2,0.4,3.5,1,5.3,1.4c11,3.9,21,12.6,28.6,24.1c0.1,0,0.2,0,0.4-0.1
					c6.9-1.2,10.6-2.4,13.3-3.7l0,0C-515.5,555.4-515.8,554.3-515.7,554.3L-515.7,554.3L-515.7,554.3z"/>
				<path fill="#EE3E42" d="M-531.3,560.2L-531.3,560.2L-531.3,560.2L-531.3,560.2L-531.3,560.2c-12-17.6-22.9-22.9-32.9-25.5
					c0.3,0.1,0.5,0.2,0.8,0.2c-0.5-0.1-1-0.3-1.4-0.4c-0.1,0-0.2-0.1-0.3-0.1c0.3,0.1,0.6,0.1,0.9,0.2c-0.4-0.1-0.7-0.2-1.1-0.3
					c-0.1,0-0.2-0.1-0.3-0.1c0,0,0.1,0,0.1,0.1c-0.2-0.1-0.5-0.1-0.7-0.2l0,0l0,0c2.1,2.3,5.1,3.4,5.9,3.6c-0.2,0.9-0.1,2.6,3,4.9
					c0.5,0.4,1,0.6,1.4,0.9c4.7,2.5,5.8,0.6,6.1-0.2c0,0,0.1,0,0.1-0.1c1.4,1.1,4.2,3.4,7.4,6.9c1.8,2.1,3.5,4.1,4.8,6
					c-2.9,0.4-6.9,0.7-10.7,1c-0.2-4.6-3.6-7.1-5.7-7.8c-4.6-1.7-6.2,3.8-4.2,7.5c-3.7-2-8-0.2-8.6,5.6
					C-552.2,562.4-542.3,561.7-531.3,560.2L-531.3,560.2L-531.3,560.2"/>
				<path fill="#231F20" d="M-566.9,597.1c-7.2-7.5-11.1-11.8-16.3-18.5c3.6-22.8,9.9-40.3,17.3-44.4l0,0l0,0
					C-566.5,539.5-566.9,565.8-566.9,597.1"/>
			</g>
			<path fill="#231F20" d="M-654.2,552.7l0.4,0.2c-0.7,1.4-0.4,2.3,1.1,3l6,3c2.7,1.4,4.8,4.5,2.4,9.4c-2.1,4.2-5.6,5.2-8.7,3.7
				l-6.5-3.2c-1.4-0.7-1.8-0.4-2.6,1.1l-0.4-0.2l2.8-5.7l0.4,0.2l-0.1,0.2c-0.6,1.3-0.6,1.9,0.8,2.5l6.2,3.1c3,1.4,5.6,0.6,7.2-2.7
				c1.3-2.5,1.4-5.6-2.3-7.4l-5.1-2.5c-2.1-1.1-2.7-0.9-3.7,0.9l-0.4-0.2L-654.2,552.7z"/>
			<path fill="#231F20" d="M-628.6,545.3l-18.4,1.2l8.1,6.9c1.4,1.2,1.9,1.1,3.3-0.5l0.4,0.3l-3.7,4.3l-0.4-0.3l0.1-0.1
				c1-1.2,0.9-1.9,0-2.6l-9.3-7.8c-0.7,0.2-1.3,0.6-1.8,1.2l-0.4-0.3l2.5-3l16.8-1.1l-7.5-6.4c-1.2-1-1.6-0.8-3,0.7l-0.4-0.3
				l3.8-4.4l0.4,0.3c-1.2,1.4-1.2,1.9-0.5,2.5l10.5,8.9L-628.6,545.3z"/>
			<path fill="#231F20" d="M-619.6,537.4l-4.6,3.9l-0.3-0.4c1.2-1.1,1.2-1.5,0.1-2.8l-6.8-8.1c-0.9-1.1-1.4-1.1-2.5-0.2l-0.3-0.4
				l4.6-3.9l0.3,0.4c-1.2,1-1.4,1.6-0.4,2.9l6.7,8c1,1.2,1.5,1.3,2.9,0.2L-619.6,537.4z"/>
			<path fill="#231F20" d="M-610.6,531.7l-11.4-8.8c-1.4-1.1-1.7-1.2-3.1-0.5l-0.2-0.4l5.9-3.5l0.2,0.4c-1.9,1.2-2.1,1.9-1.2,2.6
				l9.5,7.2l-1.8-10.7c-0.1-0.8-0.2-1.3-0.4-1.5c-0.4-0.7-1.1-0.6-2.5,0.3l-0.2-0.4l4.9-2.9l0.2,0.4c-1.1,0.7-1.4,1.4-1.2,3.1
				l2.2,13.9L-610.6,531.7z"/>
			<path fill="#231F20" d="M-592.5,517.2l-0.5,0.2c-0.8-1.5-1.3-1.6-2.2-1.3l-4,1.4l1.7,4.9c0.4,1.1,0.9,1.2,1.7,0.9l3.6-1.3
				c1.6-0.6,1.9-1.4,1.8-3.6l0.4-0.1l0.9,3.6l-12.4,4.2l-0.2-0.5l0.7-0.2c1.8-0.7,2-1.3,1.5-2.7l-3.4-9.9c-0.5-1.4-1-1.7-2.5-1.3
				l-0.5,0.2l-0.1-0.5l11.2-3.9l1.4,3.2l-0.4,0.1c-1-1.8-1.7-2.1-2.5-1.8l-4.9,1.7l2,5.7l4.2-1.4c0.9-0.3,1.1-0.9,0.8-2.2l0.5-0.2
				L-592.5,517.2z"/>
			<path fill="#231F20" d="M-583.1,505.3c0.5-0.1,0.8-0.1,1.3-0.2c3.8-0.5,5,1.2,5.3,3.5c0.4,2.9-1.4,4.3-4.1,4.6
				c-0.6,0.1-1,0.1-1.5,0.1L-583.1,505.3z M-582.1,513.8c0.4,0,0.7,0,1.3-0.1c0.7-0.1,1.1-0.2,1.6-0.3c0.7,0.3,1.5,1,2.8,1.8
				l1.8,1.4c2.4,1.9,3.7,2.7,7.9,2l-0.1-0.5c-1.9,0.1-3.5-0.6-5.1-1.9l-2.1-1.7c-1.3-1-2.1-1.6-3.1-2.2c1.9-0.9,3-2.5,2.8-4.3
				c-0.3-2.5-2.5-4.2-7.1-3.6c-1.5,0.2-2.1,0.3-3.1,0.5c-1,0.2-2.5,0.5-3.1,0.5l0.1,0.5l0.6-0.1c1.4-0.2,1.9,0.2,2,1.7l1.3,10.3
				c0.2,1.6-0.3,2.1-1.7,2.3l-0.4,0.1l0.1,0.5l7-0.9l-0.1-0.5l-0.6,0.1c-1.4,0.2-2-0.1-2.2-1.6L-582.1,513.8z"/>
			<path fill="#231F20" d="M-563.1,515.3c0.4,2.2,1.9,3.7,3.9,3.8c1.6,0.1,3.5-0.7,3.7-2.6c0.3-3.6-7.5-5.2-7.2-9.6
				c0.2-2,2.1-3.4,4.6-3.2c2,0.2,2.4,0.8,3.3,0.9c0.2,0,0.3,0,0.5-0.2h0.4l0.2,3.2h-0.4c-0.6-1.8-2-3.1-3.8-3.2
				c-1.6-0.1-2.8,0.7-2.9,2.1c-0.3,3.5,7.5,5,7.2,9.6c-0.2,2.4-2.5,4.1-5.3,3.8c-1.4-0.1-3-0.9-3.4-1c-0.2,0-0.4,0.1-0.5,0.2h-0.4
				l-0.2-3.8H-563.1z"/>
			<path fill="#231F20" d="M-544.1,521.8l-5.9-1.3l0.1-0.5c1.5,0.3,1.9-0.1,2.2-1.6l2.2-10.2c0.3-1.4-0.1-1.7-1.4-2.1l0.1-0.5
				l5.9,1.3l-0.1,0.5c-1.5-0.3-2.1-0.1-2.5,1.5l-2.2,10.2c-0.3,1.4,0,2,1.6,2.3V521.8z"/>
			<path fill="#231F20" d="M-531.6,523.5c-0.5,1.3-0.3,1.8,1.2,2.4l0.9,0.4l-0.2,0.5l-7.2-2.9l0.2-0.5l0.9,0.4c1.4,0.6,2,0.3,2.5-1
				l4.5-11.3l-4-1.5c-0.9-0.4-1.5,0-2.7,1.8l-0.4-0.2l1.8-3.6l0.5,0.2c0,0.1,0,0.3,0.1,0.4s0.3,0.2,0.4,0.3l11,4.3
				c0.3,0.1,0.7,0.2,0.9-0.1l0.5,0.2l-1.1,3.9l-0.4-0.2c0.5-2.1,0.3-2.9-0.7-3.2l-4-1.5L-531.6,523.5z"/>
			<path fill="#231F20" d="M-506.5,525.1c1.4-0.7,1.3-1.3-0.1-2.2l0.3-0.4l4.6,3.1l-0.3,0.4c-1.4-0.9-2.4-0.7-3.7-0.1l-7.2,3.5
				l-2,3.1c-0.8,1.1-0.6,1.7,0.6,2.6l0.3,0.2l-0.3,0.4l-5.7-3.8l0.3-0.4l0.4,0.3c1.3,0.9,1.9,0.6,2.6-0.4l1.9-2.9l0.2-8.1
				c0.1-2.2-0.2-2.9-1.5-3.8l0.3-0.4l5.4,3.7l-0.3,0.4c-1.6-1.1-1.9-0.8-2,0.6l-0.1,7.2L-506.5,525.1z"/>
			<path fill="#231F20" d="M-486.2,554.5c-2.8,2.1-6.8,2.8-9.2-0.5c-2.4-3.2-1.7-7.6,1.9-10.4c2.3-1.8,6.7-2.9,9.3,0.6
				C-481.7,547.4-482.5,551.7-486.2,554.5z M-484.1,555.8c3.6-2.7,3.7-7.8,0.8-11.5c-3.2-4.2-8.2-5.1-12.2-2.1
				c-3.7,2.8-3.7,7.9-0.8,11.8C-493.3,557.8-488.1,558.8-484.1,555.8z"/>
			<path fill="#231F20" d="M-478.9,571.3l-0.2-0.4c1.3-0.7,1.4-1.4,1-2.4l-1.9-4.2l-4.9,2.3c-1.3,0.6-1.5,1.1-0.8,2.8l-0.4,0.2
				l-2.6-5.4l0.4-0.2c0.8,1.4,1.2,1.4,3,0.6l8.7-4.2c1.4-0.7,2-1.1,1.4-2.7l0.4-0.2l4.7,9.9l-2.6,1.3l-0.2-0.4
				c1.3-0.7,1.6-1.4,1-2.7l-2-4.2l-5.2,2.5l2.1,4.4c0.4,0.9,1.1,1,2,0.6l0.2,0.4L-478.9,571.3z"/>
			<path fill="#231F20" d="M-651.7,667.9l8.9-16.4v-0.1l-12,7.6c-1.4,0.9-1,2-0.2,3.2l-0.5,0.4l-3.9-5.3l0.5-0.4
				c1.4,1.8,1.9,1.8,4.3,0.2l10.3-6.6c1.7-1.2,2.2-1.5,1.2-3.2l0.5-0.3l2.8,3.9l-8.4,15.5l17.3-3.2l2.7,3.8l-0.5,0.3
				c-1-1.2-1.4-1.6-2.2-1l-11,9.2c-2.2,1.8-2.1,2-0.8,4l-0.5,0.4l-4.7-6.6l0.5-0.4c0.9,1.2,2,2.1,3.3,1.1l10.9-9.1v-0.1l-18.3,3.5
				L-651.7,667.9z"/>
			<path fill="#231F20" d="M-620.5,685l-4.4-3.2l6.5-4.3L-620.5,685z M-620.9,686.4l-1.7,5.9c-0.1,0.3-0.2,0.9-0.5,1.3
				c-0.5,0.7-1.2,0.5-2.6-0.6l-0.7-0.5l-0.4,0.5l7,5.1l0.4-0.5c-1.3-1-1.6-1.5-1.2-3.3l5-18l-2.2-1.6l-0.2,0.8l-13.9,9.3
				c-2.4,1.6-2.9,1.6-4.6,0.5l-0.4,0.5l5.9,4.3l0.4-0.5l-0.4-0.3c-1.4-1.1-1.8-1.7-1.4-2.4c0.3-0.4,1.2-0.9,1.6-1.3l4.4-2.9
				L-620.9,686.4z"/>
			<path fill="#231F20" d="M-600.6,685.9c0.6,0.1,1,0.3,1.5,0.5c4.5,1.6,5,4.2,4.1,7c-1.3,3.6-4,4.2-7.2,3c-0.7-0.2-1.2-0.4-1.8-0.7
				L-600.6,685.9z M-604.3,696.3c0.5,0.2,0.9,0.4,1.4,0.6c0.8,0.3,1.3,0.4,2,0.7c0.6,0.8,1.3,1.9,2.1,3.8l1.3,2.6
				c1.7,3.6,2.6,5.2,7.9,6.8l0.2-0.6c-2.2-1-3.7-2.7-4.8-5.1l-1.5-3.2c-0.9-1.9-1.5-3-2.3-4.2c2.7,0.1,4.8-1.2,5.7-3.4
				c1.1-3-0.6-6.2-6.1-8.1c-1.9-0.7-2.5-0.9-3.8-1.3c-1.3-0.4-3.1-0.9-3.8-1.2l-0.2,0.6l0.7,0.2c1.7,0.6,2,1.4,1.4,3.2l-4.4,12.6
				c-0.7,2-1.5,2.2-3.3,1.6l-0.5-0.2l-0.2,0.6l8.4,3l0.2-0.6l-0.7-0.3c-1.6-0.6-2.2-1.3-1.5-3.1L-604.3,696.3z"/>
			<path fill="#231F20" d="M-568.5,695.6c1.2-1.6,0.6-2.2-1.4-2.4l0.1-0.6l7.1,0.6v0.6c-2.1,0-3.2,0.8-4.2,2.1l-6,8.4l-0.4,4.7
				c-0.1,1.6,0.4,2.4,2.3,2.5h0.4l-0.1,0.6l-8.6-0.8l0.1-0.6h0.6c1.9,0.2,2.6-0.5,2.7-2l0.4-4.4l-4.8-9.2c-1.4-2.5-2-3.1-4.1-3.3
				l0.1-0.6l8.4,0.7l-0.1,0.6c-2.4-0.2-2.7,0.4-1.8,1.9l4.3,8.2L-568.5,695.6z"/>
			<path fill="#231F20" d="M-542.3,709.8l-13.9,2.3l-0.1-0.6l1.1-0.2c1.4-0.2,1.9-0.8,1.6-2.4l-2.3-13.8c-0.3-1.6-0.9-2.2-2.9-1.9
				l-0.5,0.1l-0.1-0.6l9.2-1.5l0.1,0.6l-1.2,0.2c-2,0.4-2.5,0.7-2.2,2.6l2.4,14.3c0.1,0.9,0.6,1.1,1.4,1l4.5-0.8
				c1.8-0.3,2.3-1.2,3.8-4.2l0.6-0.1L-542.3,709.8z"/>
			<path fill="#231F20" d="M-527.2,694l-5,2.1l-0.4-7.8L-527.2,694z M-526.2,695.1l4.2,4.4c0.2,0.2,0.6,0.6,0.8,1.1
				c0.4,0.8-0.2,1.3-1.8,1.9l-0.8,0.3l0.2,0.6l8-3.4l-0.2-0.6c-1.4,0.6-2.2,0.6-3.4-0.8l-12.8-13.6l-2.5,1.1l0.5,0.6l0.8,16.7
				c0.1,2.9-0.1,3.4-1.9,4.2l0.2,0.6l6.8-2.8l-0.2-0.6l-0.5,0.2c-1.6,0.7-2.5,0.7-2.8-0.1c-0.2-0.4-0.2-1.4-0.2-2l-0.2-5.3
				L-526.2,695.1z"/>
			<path fill="#231F20" d="M-492.1,682.8l-23.5-2.8l8.6,10.4c1.4,1.7,2.1,1.8,4.2,0.1l0.4,0.5l-5.6,4.6l-0.4-0.5l0.1-0.1
				c1.5-1.3,1.5-2.1,0.7-3.3l-9.9-12c-0.9,0.1-1.6,0.4-2.5,1.1l-0.4-0.5l3.9-3.2l21.3,2.5l-8-9.7c-1.3-1.4-1.9-1.4-3.9,0.2l-0.4-0.5
				l5.7-4.7l0.4,0.5c-1.8,1.5-1.9,2.1-1.2,3.1l11.2,13.6L-492.1,682.8z"/>
			<path fill="#231F20" d="M-496.7,658.6c0.2-0.4,0.6-1.1,1.3-2.2c2.4-3.7,4.5-5,6.6-5.4c2.6-0.6,5.1,0.3,7.1,1.5
				c2.7,1.7,4,4.3,4.3,5.9c0.6,2.7,0.1,4.5-2.1,8c-1.4,2.1-1.7,1.9-2.9,1.3L-496.7,658.6z M-484.4,669.6c1.5,1,1.5,1.9,0.6,3.4
				l-0.3,0.5l0.5,0.3l5.5-8.5c4.3-6.7,1.5-12.9-2.4-15.5c-4.3-2.8-9.9-2-14.5,4.9c-0.9,1.4-1.9,3-2.8,4.5c-0.9,1.5-1.6,2.8-2.2,3.9
				l0.5,0.3l0.4-0.5c1-1.5,1.7-1.7,3.5-0.6L-484.4,669.6z"/>
			<path fill="#231F20" d="M-667.1,600.9v13.5c0,0.7,0.1,0.9,0.9,0.9h1.4v0.4h-5.9v-0.4h1.3c0.8,0,0.9-0.2,0.9-0.9v-11.6
				c-0.8,0.7-2,1.5-2.9,1.9l-0.2-0.3c1.4-0.9,3.3-2.6,3.9-3.5L-667.1,600.9L-667.1,600.9z"/>
			<path fill="#231F20" d="M-653.5,612.3c0,1.8-1.4,3.2-3.1,3.2c-1.7,0-3.1-1.4-3.1-3.5c0-1.5,0.8-2.7,2.4-3.6
				C-654.6,609.8-653.5,610.8-653.5,612.3z M-652.5,604.2c0-1.8-1.8-3.4-4.2-3.4c-2.3,0-4.2,1.7-4.2,3.8c0,1.5,1,2.8,3.2,3.8
				c-2.3,0.9-3.4,2.2-3.4,3.9c0,2.1,2,3.9,4.5,3.9c2.6,0,4.6-1.8,4.6-4.2c0-1.8-1.1-3-3.5-4.2C-653.5,606.7-652.5,605.7-652.5,604.2
				z M-653.9,604.1c0,1.4-0.7,2.4-1.9,3.2c-3-1.3-3.7-2.2-3.7-3.5c0-1.4,1.3-2.6,2.9-2.6C-655.1,601.2-653.9,602.5-653.9,604.1z"/>
			<path fill="#231F20" d="M-480.1,602.5h5.5c0.4,0,0.6-0.1,0.7-0.3h0.5l-0.3,1.8h-5.9l-0.2,4.2c0.8-0.4,1.5-0.6,2.5-0.6
				c2.6,0,4.7,2.2,4.7,4.8c0,2.8-2.3,4.9-5.5,4.9c-1.8,0-3.4-0.7-3.4-1.4c0-0.4,0.4-0.8,0.8-0.8c1.3,0,1.7,1.6,3.2,1.6
				c1.7,0,3.2-1.8,3.2-4s-1.4-3.8-3.5-3.8c-0.9,0-1.7,0.4-2.4,1l-0.2-0.2L-480.1,602.5z"/>
			<path fill="#231F20" d="M-462.3,612.9c0,2.6-1.2,4.1-2.8,4.1c-1.4,0-3.2-1.3-3.2-5.2c0-0.8,0.1-1.2,0.1-1.4
				c1.4-1.2,2.5-1.4,3.1-1.4C-463.5,609-462.3,610.4-462.3,612.9z M-462.2,602.2c-4.8,1.4-7.8,4.8-7.8,9.1c0,3.6,2,6.1,4.8,6.1
				c2.5,0,4.5-2.1,4.5-4.7c0-2.4-1.8-4.2-4.2-4.2c-1.2,0-2,0.4-3.3,1.4c0.5-3.4,2.4-5.7,6.1-7.1L-462.2,602.2z"/>
		</g>
		<path d="M-372.6,579.5h-13.7l6.8-18.4L-372.6,579.5z M-371.2,582.9l5.3,14.5c0.3,0.8,0.9,2,0.9,3.3c0,2.2-1.6,2.7-6.2,2.7h-2v1.4
			h21.8v-1.4c-4,0-5.6-0.8-7.2-5l-16.5-43.9h-6.9l0.7,1.7l-14.4,39.4c-2.5,7-3.4,7.8-8.5,7.8v1.4h18.4v-1.4h-1.3
			c-4.3,0-6.4-0.8-6.4-2.9c0-1.2,1.1-3.5,1.5-5l4.6-12.5L-371.2,582.9L-371.2,582.9z"/>
		<path d="M-338.3,601.9c0,2.4-1.8,3.8-4.1,3.8c-2.3,0-4.1-1.5-4.1-3.8s1.7-3.8,4.1-3.8C-340.1,598.2-338.3,599.6-338.3,601.9z"/>
		<path d="M-293,596.6c0,15.9-6.5,26.6-16.4,26.6c-4.3,0-7.7-1.8-7.7-4.2c0-1.6,1.3-3.2,2.9-3.2c2.7,0,4.8,3.8,8.1,3.8
			c3.8,0,6.5-2.9,6.5-11.7v-42.3c0-7-0.7-8.6-6.4-8.6h-0.9v-1.4h20.1v1.4c-5.1,0.2-6.2,1.5-6.2,5.8V596.6L-293,596.6z"/>
		<path d="M-250.7,579.5h-13.7l6.8-18.4L-250.7,579.5z M-249.4,582.9l5.3,14.5c0.3,0.8,0.9,2,0.9,3.3c0,2.2-1.6,2.7-6.2,2.7h-2v1.4
			h21.8v-1.4c-4,0-5.6-0.8-7.2-5l-16.5-43.9h-6.9l0.7,1.7l-14.4,39.4c-2.5,7-3.4,7.8-8.6,7.8v1.4h18.4v-1.4h-1.3
			c-4.3,0-6.4-0.8-6.4-2.9c0-1.2,1.1-3.5,1.5-5l4.6-12.5L-249.4,582.9L-249.4,582.9z"/>
		<path d="M-197.2,604.8l-20.2-42.2h-0.2l-2.1,35.7c-0.2,4.1,2.7,4.9,6.3,5.1v1.4h-16.4v-1.4c5.8,0,6.5-1.3,6.9-8.5l1.9-30.9
			c0.3-5.2,0.2-6.7-4.7-7v-1.4h11.9l19.1,40l19-40h11.7v1.4c-3.9,0.3-5.4,0.4-5.2,3.1l2.5,35.9c0.5,7.3,1.1,7.3,6.9,7.3v1.4h-20.3
			v-1.4c3.8,0,7.3-1.1,7.1-5.2l-2.3-35.5h-0.2l-19.7,42.2C-195.4,604.8-197.2,604.8-197.2,604.8z"/>
		<path d="M-123,586.9h-1.4c-0.7-5.6-2.1-6.3-5.4-6.3h-13.4v16.9c0,3.7,1.4,4.3,4.2,4.3h12.3c5.5,0,7.1-2.1,9.2-8.9h1.4l-1.3,11.8
			h-42.1v-1.4h2.2c6.4,0,7.4-1.7,7.4-6.6v-33.5c0-4.4-1.1-6.4-6.4-6.4h-1.7v-1.4h38.1l0.7,11h-1.4c-1.1-6.7-3-8.1-5.8-8.1h-16.8
			v19.4h14.2c2.9,0,4.2-1.4,4.6-5.9h1.4L-123,586.9L-123,586.9z"/>
		<path d="M-109.2,592.7c1.6,7.1,7.2,11.2,13.4,11.2c5.3,0,10.9-3.1,10.9-9.4c0-11.4-25.4-14.9-25.4-28.8c0-6.6,6-11.4,14.1-11.4
			c6.7,0,8,1.9,10.8,1.9c0.7,0,1-0.2,1.4-0.8h1.3l1.4,10h-1.4c-2.2-5.7-7.2-9.4-12.7-9.4c-5.2,0-8.9,3-8.9,7.4
			c0,11.2,25.4,14.3,25.4,28.8c0,7.7-6.9,13.5-16.1,13.5c-4.3,0-9.9-2.1-11-2.1c-0.7,0-1.3,0.4-1.5,0.9h-1.4l-1.6-12.1L-109.2,592.7
			L-109.2,592.7z"/>
		<path d="M-8.6,568.4c-2.6-7.3-9.5-12.2-18.1-12.2c-13.2,0-21.4,9.7-21.4,23c0,14.4,10.3,24.9,22.3,24.9c6.3,0,13.9-2.1,19.3-11.8
			h1.5c-1.1,3.6-3.2,8.5-5.1,11.6c-5.1-0.7-8.6,2-17.9,2c-16.1,0-27.7-10.5-27.7-25.2c0-15.5,11.9-26.4,28.5-26.4
			c9.9,0,14.3,3,16.7,3.1c0.9,0,1.3-0.2,1.4-0.5h1.2l0.7,11.5L-8.6,568.4z"/>
		<path d="M35.1,604.8H-0.3v-1.4h2.6c3.7,0,5-1.2,5-5.2V563c0-4.2-1.3-6-6.3-6H0v-1.4h23.4v1.4h-2.9c-5.1,0-6.5,0.6-6.5,5.5V599
			c0,2.1,0.9,2.9,3.2,2.9h11.7c4.6,0,6.1-1.8,11.1-8.6h1.4L35.1,604.8z"/>
		<path d="M74,579.5H60.3l6.8-18.4L74,579.5z M75.3,582.9l5.3,14.5c0.3,0.8,0.9,2,0.9,3.3c0,2.2-1.6,2.7-6.2,2.7h-2v1.4h21.8v-1.4
			c-4,0-5.6-0.8-7.2-5l-16.5-43.9h-6.9l0.7,1.7l-14.5,39.3c-2.5,7-3.4,7.8-8.6,7.8v1.4h18.4v-1.4h-1.3c-4.3,0-6.4-0.8-6.4-2.9
			c0-1.2,1.1-3.5,1.5-5l4.6-12.5H75.3L75.3,582.9z"/>
		<path d="M109.7,556.3c1.4-0.2,2.4-0.2,4-0.2c12.2,0,15.5,5.7,15.5,13.1c0,9.6-5.8,13.3-14.6,13.3c-1.8,0-3,0.1-4.9-0.2V556.3z
			 M109.7,584c1.3,0.1,2.3,0.2,4.1,0.2c2.1,0,3.4-0.1,5.4-0.2c1.9,1.3,4.6,3.6,8.2,7.1l5.2,5.2c7.1,7.1,10.6,10,24.5,9.5v-1.4
			c-6.1-0.4-10.9-3.4-15.6-8l-6.3-6.3c-3.8-3.8-6.1-6-9.1-8.2c6.5-1.9,10.5-7,10.5-12.9c0-8.1-6.6-14.1-21.2-14.1
			c-5.1,0-6.8,0.1-9.9,0.2c-3.3,0.3-8.1,0.6-10,0.6v1.4h1.7c4.6,0,6,1.4,6,6.4v33.4c0,5.3-1.6,6.6-6.4,6.6h-1.4v1.4h22.4v-1.4H116
			c-4.4,0-6.4-1.2-6.4-6L109.7,584L109.7,584z"/>
		<path d="M183.2,604.8v-1.4c3.7-0.1,5.1-0.7,5.1-2.2c0-1.4-1.7-4.1-9.8-12.1c-6.4-6.4-8.2-7.5-11.7-7.1v14.9c0,5,1.4,6.6,6.4,6.6
			h1.1v1.4h-21.7v-1.4h1.4c5.1,0,6.4-1.7,6.4-5.8v-34.9c0-4.7-2.1-5.7-6.4-5.7h-1.4v-1.4h21.4v1.4h-0.8c-4.7,0-6.4,1.5-6.4,6.3v17.2
			c3.1-0.3,5.5-1.7,8.9-5.1c6.2-6.2,11-13.3,11-15.9c0-1.8-1.2-2.4-5.5-2.4v-1.4h20.9v1.4c-5.6,0.1-8.1,0.9-10.4,3.3
			c-2.5,2.4-7.4,12.4-15.7,18.7c1.4,0.2,2.9,1.4,6.4,4.8c8.3,8.3,12.7,14.6,15.4,17.2c1.4,1.4,3.4,2.3,8.8,2.3v1.4
			C206.5,604.8,183.2,604.8,183.2,604.8z"/>
		<path d="M-403.7,656.5c0.9,3.8,3.9,5.9,7.1,5.9c2.8,0,5.8-1.6,5.8-4.9c0-6.1-13.5-7.9-13.5-15.3c0-3.5,3.2-6.1,7.4-6.1
			c3.6,0,4.2,1.1,5.7,1.1c0.4,0,0.5-0.1,0.8-0.5h0.7l0.7,5.3h-0.7c-1.2-3-3.9-4.9-6.8-4.9c-2.8,0-4.7,1.6-4.7,4
			c0,6,13.5,7.5,13.5,15.3c0,4.2-3.7,7.1-8.6,7.1c-2.3,0-5.2-1.2-5.9-1.2c-0.4,0-0.7,0.2-0.9,0.5h-0.7l-0.9-6.4L-403.7,656.5
			L-403.7,656.5z"/>
		<path d="M-355.9,643.6c-1.4-4-5-6.5-9.6-6.5c-7.1,0-11.4,5.1-11.4,12.2c0,7.6,5.5,13.2,11.9,13.2c3.3,0,7.4-1.2,10.2-6.3h0.8
			c-0.6,1.9-1.6,4.5-2.7,6.2c-2.7-0.4-4.5,1.1-9.5,1.1c-8.5,0-14.7-5.6-14.7-13.4c0-8.2,6.3-14,15.1-14c5.3,0,7.5,1.6,8.9,1.6
			c0.5,0,0.7-0.1,0.8-0.3h0.7l0.4,6.1L-355.9,643.6z"/>
		<path d="M-341.3,650.3v8c0,2.7,0.6,3.7,3.4,3.7h0.1v0.8h-10.5v-0.7h0.3c2.5,0,3.3-0.7,3.3-3.1v-18.5c0-2.2-0.7-2.8-3-3v-0.8h10
			v0.8c-3,0-3.5,0.8-3.5,4.1v7.3h16.5v-8.3c0-2.2-0.7-3.1-3.3-3.1h-0.8v-0.8h10.8v0.8c-2.5,0.1-3.2,0.9-3.2,3.5v17.5
			c0,3,0.9,3.7,3.4,3.7h0.4v0.8h-11.9v-0.8h1.4c2.7,0,3.3-1,3.3-3.2v-8.6H-341.3L-341.3,650.3z"/>
		<path d="M-285.2,650.5c0,6-3.3,12.1-10.1,12.1c-6.8,0-12.1-5.6-12.1-13.4c0-5,2.9-12,10.3-12
			C-290.1,637.1-285.2,642.6-285.2,650.5z M-281.2,649c0-7.6-6.9-12.9-14.8-12.9c-9,0-15.4,5.9-15.4,14.3c0,7.9,7,13.1,15.2,13.1
			C-288,663.5-281.2,657.5-281.2,649z"/>
		<path d="M-247.8,650.5c0,6-3.3,12.1-10.1,12.1c-6.8,0-12.1-5.6-12.1-13.4c0-5,2.9-12,10.3-12
			C-252.7,637.1-247.8,642.6-247.8,650.5z M-243.8,649c0-7.6-6.9-12.9-14.8-12.9c-9,0-15.4,5.9-15.4,14.3c0,7.9,7,13.1,15.2,13.1
			C-250.7,663.5-243.8,657.5-243.8,649z"/>
		<path d="M-219.3,662.9h-18.8v-0.8h1.4c1.9,0,2.6-0.6,2.6-2.8v-18.6c0-2.2-0.7-3.2-3.3-3.2h-0.6v-0.8h12.4v0.8h-1.5
			c-2.7,0-3.5,0.3-3.5,2.9v19.4c0,1.2,0.5,1.5,1.6,1.5h6.2c2.5,0,3.3-1,5.9-4.6h0.8L-219.3,662.9z"/>
		<path d="M-170.2,650.5c0,6-3.3,12.1-10.1,12.1c-6.8,0-12.1-5.6-12.1-13.4c0-5,3-12,10.3-12C-175.1,637.1-170.2,642.6-170.2,650.5z
			 M-166.2,649c0-7.6-6.9-12.9-14.8-12.9c-9,0-15.4,5.9-15.4,14.3c0,7.9,7,13.1,15.2,13.1S-166.2,657.5-166.2,649z"/>
		<path d="M-141.3,652.8h-0.7c-0.1-2.4-1-3.2-3-3.2h-7.8v9.2c0,2.3,0.5,3.3,3.7,3.3v0.8h-10.2v-0.8c2.6-0.2,3.1-0.7,3.1-4.2v-16.5
			c0-2.7-0.2-3.9-3.2-4v-0.8h18.8v4.9h-0.7c0-2.4-0.9-3.5-3.5-3.5h-8v9.9h8.4c1.5,0,2.3-0.9,2.4-2.7h0.7V652.8L-141.3,652.8z"/>
		<path d="M-102.3,653.4h-0.8c-0.3-3-1.2-3.3-2.9-3.3h-7.1v9c0,1.9,0.7,2.3,2.3,2.3h6.5c2.9,0,3.8-1.2,4.8-4.7h0.8l-0.7,6.3h-22.3
			v-0.9h1.2c3.4,0,4-1,4-3.5v-17.8c0-2.3-0.6-3.4-3.4-3.4h-1v-0.8h20.2l0.3,5.8h-0.8c-0.6-3.6-1.6-4.3-3.1-4.3h-8.9v10.4h7.5
			c1.5,0,2.2-0.7,2.4-3.2h0.8L-102.3,653.4L-102.3,653.4z"/>
		<path d="M-65.6,663.1l-21.7-22.8v18.1c0,3,0.7,3.7,4.2,3.7v0.8h-9.8v-0.8h0.2c2.6,0,3.5-0.9,3.5-2.8v-20.7c-1-0.7-2-1.1-3.6-1.1
			v-0.8h6.6l19.8,20.7v-16.7c0-2.6-0.8-3-4.2-3.1v-0.8h9.9v0.8c-3.2,0-3.9,0.6-3.9,2.2v23.5L-65.6,663.1L-65.6,663.1z"/>
		<path d="M-30,660.9c-4.2,2.1-9.5,2.6-11.2,2.6c-9.2,0-13.5-7.1-13.5-13.2c0-6.4,4.4-14.2,14.7-14.2c4.5,0,7.5,1.4,8.4,1.4
			c0.4,0,0.7-0.1,1-0.3h0.6v6.8H-31c-1.2-5.3-4.7-7-8.6-7c-7.4,0-11.2,6.2-11.2,12.9c0,8.6,6.1,12.5,10.9,12.5
			c1.9,0,4.1-0.4,6.5-1.6v-5.3c0-2.4-0.9-3.2-3.4-3.2h-1.5v-0.8H-27v0.8c-2.1,0.1-2.9,0.9-2.9,2.7L-30,660.9L-30,660.9z"/>
		<path d="M-11.2,662.9h-10.2v-0.8c2.6-0.1,3.2-0.8,3.2-3.6v-18c0-2.2-0.8-2.9-3.2-3v-0.8h10.2v0.8c-2.6,0-3.6,0.6-3.6,3.4v17.9
			c0,2.5,0.7,3.3,3.6,3.3V662.9z"/>
		<path d="M21.9,663.1L0.2,640.4v18.1c0,3,0.7,3.7,4.2,3.7v0.8h-9.9v-0.8h0.2c2.6,0,3.5-0.9,3.5-2.8v-20.7c-1-0.7-2-1-3.6-1.1v-0.8
			h6.7l19.8,20.7v-16.7c0-2.6-0.8-3-4.2-3.1v-0.8h9.9v0.8c-3.2,0-3.9,0.6-3.9,2.2v23.5L21.9,663.1L21.9,663.1z"/>
		<path d="M49.8,653.4H49c-0.3-3-1.2-3.3-2.9-3.3H39v9c0,1.9,0.7,2.3,2.2,2.3h6.5c2.9,0,3.8-1.2,4.8-4.7h0.8l-0.7,6.3H30.4v-0.9h1.2
			c3.4,0,4-1,4-3.5v-17.8c0-2.3-0.6-3.4-3.4-3.4h-1v-0.8h20.2l0.3,5.8h-0.8c-0.6-3.6-1.5-4.3-3.1-4.3H39v10.4h7.5
			c1.5,0,2.2-0.7,2.4-3.2h0.8L49.8,653.4L49.8,653.4z"/>
		<path d="M77.5,653.4h-0.8c-0.4-3-1.2-3.3-2.9-3.3h-7.1v9c0,1.9,0.7,2.3,2.2,2.3h6.5c2.9,0,3.8-1.2,4.8-4.7h0.8l-0.7,6.3H58.2v-0.9
			h1.2c3.4,0,4-1,4-3.5v-17.8c0-2.3-0.6-3.4-3.4-3.4h-1v-0.8h20.2l0.4,5.8h-0.8c-0.6-3.6-1.5-4.3-3.1-4.3h-8.9v10.4h7.5
			c1.5,0,2.2-0.7,2.4-3.2h0.8L77.5,653.4L77.5,653.4z"/>
		<path d="M94.1,637.2c0.8-0.1,1.4-0.1,2.1-0.1c6.5,0,8.2,3,8.2,7c0,5-3.1,7.1-7.7,7.1c-1,0-1.6,0-2.6-0.1V637.2z M94.1,651.8
			c0.7,0,1.3,0.1,2.1,0.1c1.2,0,1.8,0,2.9-0.1c1,0.7,2.5,1.9,4.3,3.8l2.8,2.8c3.8,3.8,5.6,5.3,12.9,5v-0.8c-3.3-0.2-5.8-1.7-8.3-4.2
			l-3.3-3.4c-1.9-2-3.2-3.2-4.8-4.3c3.5-1,5.6-3.7,5.6-6.8c0-4.2-3.5-7.4-11.3-7.4c-2.7,0-3.6,0-5.3,0.1c-1.7,0.1-4.2,0.3-5.3,0.3
			v0.8h1c2.4,0,3.2,0.8,3.2,3.4v17.7c0,2.8-0.9,3.5-3.4,3.5h-0.7v0.8h11.9v-0.8h-1c-2.3,0-3.4-0.6-3.4-3.2V651.8L94.1,651.8z"/>
		<path d="M134.3,662.9H124v-0.8c2.6-0.1,3.2-0.8,3.2-3.6v-18c0-2.2-0.8-2.9-3.2-3v-0.8h10.2v0.8c-2.6,0-3.6,0.6-3.6,3.4v17.9
			c0,2.5,0.7,3.3,3.6,3.3V662.9z"/>
		<path d="M167.4,663.1l-21.7-22.8v18.1c0,3,0.7,3.7,4.2,3.7v0.8h-9.8v-0.8h0.2c2.6,0,3.5-0.9,3.5-2.8v-20.7c-1-0.7-2-1-3.6-1.1
			v-0.8h6.6l19.8,20.7v-16.7c0-2.6-0.8-3-4.2-3.1v-0.8h9.9v0.8c-3.2,0-3.9,0.6-3.9,2.2v23.5L167.4,663.1L167.4,663.1z"/>
		<path d="M202.9,660.9c-4.2,2.1-9.5,2.6-11.3,2.6c-9.2,0-13.5-7.1-13.5-13.2c0-6.4,4.4-14.2,14.7-14.2c4.5,0,7.5,1.4,8.4,1.4
			c0.4,0,0.7-0.1,1-0.3h0.6v6.8h-0.9c-1.2-5.3-4.7-7-8.6-7c-7.4,0-11.2,6.2-11.2,12.9c0,8.6,6.1,12.5,10.9,12.5
			c1.9,0,4.1-0.4,6.5-1.6v-5.3c0-2.4-0.9-3.2-3.4-3.2h-1.5v-0.8h11.3v0.8c-2.1,0.1-2.9,0.9-2.9,2.7V660.9L202.9,660.9z"/>
	</g>
</g>
</svg>
