<?xml version="1.0" encoding="utf-8"?>
<!-- Generator: Adobe Illustrator 18.1.1, SVG Export Plug-In . SVG Version: 6.00 Build 0)  -->
<svg version="1.1" id="Layer_1" xmlns="http://www.w3.org/2000/svg" xmlns:xlink="http://www.w3.org/1999/xlink" x="0px" y="0px"
	 viewBox="-694 248 994 356" enable-background="new -694 248 994 356" xml:space="preserve">
<g id="guides">
</g>
<g id="Layer_2">
	<g>
		<g>
			<g>
				<path fill="#FFFFFF" d="M-561.2,501c41.9,0,76.2-34,76.2-75.9s-35.7-75.6-76.2-75.6c-41.9,0-76.4,33.6-76.4,75.6
					S-603.1,501-561.2,501z"/>
				<polygon fill="none" points="-490.2,405.7 -490.2,405.6 -490.3,405.6 				"/>
				<path fill="#FFFFFF" d="M-525.7,377.1c-9.8,1.5-23,2.4-36.8,2.4c0.2-15.1,0.4-26,0.7-29.3C-547.7,352.5-535,362.6-525.7,377.1"
					/>
				<path fill="#EE3E42" d="M-509.3,431.2c-14.2,2.2-33.2,3.4-53.2,3.4c0-20.5,0.1-40.4,0.3-55.8c13.8,0,26.9-0.9,36.7-2.4
					C-515.9,391.3-509.8,410.7-509.3,431.2"/>
				<path fill="#FFFFFF" d="M-510.5,431.1c-3.9-0.6-7.3-7.2-5.5-14c-5.6,3.8-11.8-4.1-10.9-11.4c0.5-3.9,3-7.3,7.4-5.7
					c-1.8-6.2-4-12-6.7-17.4c-3.9,0.5-8.2,0.9-12.8,1.2c4.1,6.1,0.1,11.8-5.6,10.9c-4.1-0.7-7.9-5-6.9-10.1
					c-3.3,2.3-10.2,1.4-10.8-5.9c12.6-0.1,23.6-0.5,36.8-2.3l0,0c10.6,17.5,15.1,32.8,16.2,54.6
					C-509.6,431.1-510.1,431.2-510.5,431.1"/>
				<path fill="#FFFFFF" d="M-601.6,482.3c-7.8-1.3-13-3-14.8-4.8c-1.9-2.2-4.5-5.1-6.3-7.4c-4.3-6.4-4.4-6.5-6.3-10.1
					c-3.3-7.1-3.4-7.2-4.7-11.1c-2.2-7.6-2.2-7.8-2.9-11.9c-0.4-3.6-0.8-8.4-1-12l0.1-3.3c-0.1,3.2,7.6,6.3,21.1,8.5
					c0,1.1,0,2.1,0,3.2C-616.4,453.2-610.8,470.3-601.6,482.3"/>
				<path fill="#FFFFFF" d="M-561.4,501c-0.4,0-0.8,0-1.2,0c-0.7,0-1.4,0-2.1-0.1c-4.6-0.3-7.6-0.7-11.5-1.4
					c-9.9-2.3-18.6-8.4-25.5-17.3c6.7,1.1,15.3,2,25.4,2.4c4.7,0.2,9.5,0.3,14.2,0.3C-561.9,495.1-561.7,501-561.4,501"/>
				<path fill="#EE3E42" d="M-562.1,484.9c-4.7,0-9.5-0.1-14.2-0.3c-10-0.4-18.6-1.3-25.3-2.4c-9.1-12-14.7-29.1-14.7-48.8
					c0-0.9,0-1.7,0-2.6c9.1,1.5,20.9,2.7,34.5,3.3c6.5,0.3,13,0.4,19.4,0.4c0,0.9,0,1.7,0,2.6C-562.4,456.8-562.3,473.5-562.1,484.9
					"/>
				<path fill="#EE3E42" d="M-562.2,486c-0.6,2.6-4.3,5.1-9.6,3c2.4,3.2,0.3,6-4,5.2c-3.3-0.6-7.3-3.3-7.6-6
					c-4.1-0.3-7.9-0.7-11.2-1.2c3.2,3.7,6.7,6.7,10.6,9c0.5-0.2,1.2-0.1,3.4,0.6c2.9,1,5.6,2.5,8.5,3.5c0,0,0,0,0,0
					c-2.3-0.4-2.6-0.4-4.2-0.7c-5.5-1.6-15.7-4.5-25.4-17.3h0h0l0,0c11.8,1.8,23.3,2.6,39.6,2.7C-562.1,485.2-562.1,485.6-562.2,486
					"/>
				<path fill="#FFFFFF" d="M-601.7,482.2L-601.7,482.2c-10.5-15-14.6-29.4-14.7-51.3c5.9,2,7.6,10.6,6,15.5
					c5.6-2.2,12.7,7.6,10.2,14.1c-1.1,3-4.1,3.8-7.2,2c1.7,5.7,3.9,10.9,6.5,15.5c4,0.6,8.5,1,13.4,1.4c-3.9-4.8-0.8-8.8,4.5-8.5
					c4.5,0.2,10.5,4,9.2,9.1c4.1-1.8,11-0.3,11.8,5c-4.9,0-12.4-0.1-22-0.8C-589.9,483.8-595.8,482.7-601.7,482.2"/>
				<polyline fill="#E03A3E" points="-601.7,482.2 -601.7,482.2 -601.7,482.2 				"/>
				<polyline fill="#E03A3E" points="-601.7,482.2 -601.7,482.2 -601.7,482.2 				"/>
				<path fill="#EE3E42" d="M-601.7,482.2c-8.7-1.6-12.4-2.8-14.9-4.8c-1.8-2-4.1-4.7-5.7-6.7c0.3,0.4,0.5,0.6,1.3,1.6
					c-0.8-1-4.8-6.1-5.1-8.3c2.2-0.3,9.1,10.5,9.2,10.6c2.1,0.8,4.9,1.5,8.2,2.2c-3.1-4.7-5.7-10-7.7-15.7
					c-4.7,2.4-10.8-10.1-8.9-15.4c0.4-1.1,1.6-3.3,4.9-0.9c-2.4-5.6-1.8-13.8,4-13.8C-616.2,449.3-613.7,465.1-601.7,482.2"/>
				<path d="M-509.6,444.3l-0.1-0.1c0.3-3.4,0.5-6.9,0.5-10.5c0-0.8,0-1.7,0-2.5c0,0,0.1,0,0.1,0c0,0.8,0,1.7,0,2.5
					C-509.1,437.3-509.3,440.8-509.6,444.3"/>
				<path d="M-549.7,500.1L-549.7,500.1c20.9-3.2,37-25.4,40-55.9l0.1,0.1C-512.6,474.7-528.8,496.8-549.7,500.1"/>
				<path fill="#231F20" d="M-524.4,491.4c-5.2,2.7-6.2,3.2-11.8,5.3c-1.6,0.5-3.8,1.2-5.4,1.7c10.6-2.9,20.1-8.9,27.5-17.4
					c-1.6,3.5-2.7,5.5-8.2,9.2C-523,490.6-523.7,491.1-524.4,491.4"/>
				<path fill="#FFD420" d="M-522.3,490.2c4.6-3.2,6.5-5,8.2-9.2c10.9-12.4,17.6-29.9,17.6-49.9c0-0.8,0-1.7,0-2.5
					c3.5-0.9,6.2-1.9,8.2-3c0,0.8,0,1.7,0,2.5C-488.3,455-501.9,477.9-522.3,490.2"/>
				<path fill="#231F20" d="M-545.2,470.6c-5.1-5.1-5.1-5.1-17.2-16.6c0-5.3,0-11-0.1-16.9c0-0.8,0-1.7,0-2.5
					c6.6,0,13.1-0.1,19.4-0.4c0,0.8,0,1.7,0,2.5C-543.1,449.4-543.8,460.9-545.2,470.6"/>
				<path fill="#FFD420" d="M-558.2,500.9l-0.5,0c-1,0-1.5,0-2,0l-0.8,0c-0.4,0-0.8-18.8-1-47c11.4,10.8,12.6,11.9,17.2,16.6
					C-547.8,489.1-552.5,500.7-558.2,500.9"/>
				<path fill="#231F20" d="M-554.6,500.7c-0.6,0.1-1.4,0.1-2,0.2c-0.5,0-1.1,0.1-1.6,0.1c5.7-0.2,10.4-11.8,13-30.3
					c5.5,5.8,7.9,8.6,10.6,12.9C-539.8,493.8-546.7,500-554.6,500.7"/>
				<path fill="#FFD420" d="M-534.6,483.5c-2.6-4.1-4.2-6.3-10.6-12.9c1.3-9.6,2.1-21.2,2.1-33.9c0-0.8,0-1.7,0-2.5
					c6.3-0.3,12.3-0.6,17.9-1.1c0,0.8,0,1.7,0,2.5C-525.1,455.1-528.7,471.9-534.6,483.5"/>
				<path fill="#231F20" d="M-533.1,492.9c1-3,0.9-4.8-1.5-9.4c5.9-11.6,9.4-28.4,9.4-47.9c0-0.8,0-1.7,0-2.5
					c2.1-0.2,4.2-0.4,6.2-0.6c2.8,3.3,6.3,7.4,9.3,11.7C-511.8,465.9-520.6,483.4-533.1,492.9"/>
				<path fill="#FFD420" d="M-549.7,500.1c-0.6,0.1-1.3,0.2-1.9,0.3c-1.8,0.2-1.8,0.2-2.7,0.3l-0.3,0c7.9-0.7,14.8-7,20-17.2
					c2.1,4.1,2.7,6,1.5,9.4C-538.1,496.7-543.7,499.2-549.7,500.1"/>
				<path fill="#FFD420" d="M-541.6,498.4l-1.8,0.5c-3,0.7-3,0.7-4.7,1l-1.5,0.2c14.8-2.3,27.3-14.1,34.3-31.6
					c1.9,5.2,2.6,7.6,1.3,12.6C-521.6,489.5-531,495.5-541.6,498.4"/>
				<path fill="#231F20" d="M-543.5,498.9c-3,0.7-3,0.7-4.7,1l-1.5,0.2c6-0.9,11.6-3.4,16.6-7.2c-1.7,2.6-2.9,3.7-8.5,5.5
					L-543.5,498.9"/>
				<path fill="#231F20" d="M-514.1,481c1-4.3,1-6.8-1.3-12.6c4-10,6.3-21.8,6.3-34.8c0-0.8,0-1.7,0-2.5c4.8-0.7,9-1.6,12.6-2.5
					c0,0.8,0,1.7,0,2.5C-496.5,451.1-503.2,468.6-514.1,481"/>
				<path fill="#FFD520" d="M-524.4,491.4c0.7-0.4,1.4-0.8,2-1.2l-0.8,0.5L-524.4,491.4"/>
				<path fill="#231F20" d="M-488,428c0,27.2-14,50.5-35.2,62.7l0,0l0.8-0.5c20.5-12.4,34.1-35.3,34.1-62.1c0-0.8,0-1.7,0-2.5
					c0.1-0.1,0.2-0.1,0.4-0.2C-488,426.3-488,427.1-488,428"/>
				<path fill="#FFD420" d="M-515.5,468.4c-2.7-5.5-4.5-8.4-10.7-15.9c0.6-5.4,0.9-11,0.9-17c0-0.8,0-1.7,0-2.5
					c5.8-0.5,11.1-1.1,15.9-1.9c0,0.8,0,1.7,0,2.5C-509.2,446.7-511.5,458.5-515.5,468.4"/>
				<path fill="#231F20" d="M-526.1,452.6c-4.4-5-6.6-7.6-17-18.4c5.9-0.3,10.5-0.5,17.9-1.2c0,0.9,0,1.7,0,2.6
					C-525.2,441.5-525.5,447.2-526.1,452.6"/>
				<path fill="#231F20" d="M-616.4,430.9c0,0-0.1,0-0.1,0c0.1-4.5,0.5-8.9,1.1-13.2l0.1,0.2C-615.9,422.1-616.3,426.5-616.4,430.9"
					/>
				<path fill="#231F20" d="M-615.3,417.8l-0.1-0.2c4.7-31.3,22.9-57.9,45.8-66l-0.1,0C-592.5,359.9-610.7,386.5-615.3,417.8"/>
				<path fill="#231F20" d="M-569.7,351.7L-569.7,351.7c2.7-1,5.5-1.7,8.2-2.1l0,0C-564.3,350-567,350.7-569.7,351.7"/>
				<path fill="#FFD420" d="M-607.1,374c2.7-6,4.6-8.9,10.2-13.8c10.5-6.3,22.5-10.1,35.4-10.7C-579.1,351.2-595.2,360.3-607.1,374"
					/>
				<path fill="#231F20" d="M-628.1,428.3c-3.1-0.9-5.5-1.9-7.1-2.9c0.8-27.5,16.1-51.8,38.3-65.2c-5.3,4.7-7.6,7.4-10.2,13.8
					C-619.6,388.3-627.5,407.6-628.1,428.3"/>
				<path fill="#FFD420" d="M-562.5,434.6c-6.4,0-12.9-0.1-19.3-0.4c-0.2,0-0.4,0-0.6,0c0.1-13.5,1.2-26.8,3-38.6
					c5.5,6.9,8.4,10.3,16.9,19.2C-562.5,421.2-562.5,427.8-562.5,434.6"/>
				<path fill="#FFD420" d="M-579.3,395.5c-5.2-7.2-7.4-10.9-9.5-17.5c7.1-14.9,16.7-25.5,27.4-28.4
					C-569.1,353.9-575.7,371.9-579.3,395.5"/>
				<path fill="#231F20" d="M-582.4,434.1c-6.6-0.3-12.8-0.7-18.4-1.3c0.3-20.4,4.8-39.8,12-54.9c2.2,6.4,3.9,10,9.5,17.5
					C-581.2,407.3-582.3,420.6-582.4,434.1"/>
				<path fill="#FFD420" d="M-600.8,432.9c-2.1-0.2-4.2-0.4-6.1-0.7c-2.5-3.9-5.7-8.7-8.3-14.4c3.3-22.2,13.3-42,27-54.6
					c-1.8,5-2.2,8-0.6,14.7C-596,393.1-600.5,412.5-600.8,432.9"/>
				<path fill="#231F20" d="M-588.9,378c-1.4-6.2-1.5-9.4,0.6-14.7c7.9-7.3,17.1-12.2,26.8-13.7C-572.1,352.4-581.8,363.1-588.9,378
					"/>
				<path fill="#231F20" d="M-608.2,392.1c-1.1-7.4-1.1-11.2,1.1-18.1c11.9-13.7,27.9-22.8,45.6-24.4l0,0c-4.2,0.7-5,0.8-8.1,2.1
					C-585.9,357.5-599.8,372.6-608.2,392.1"/>
				<path fill="#FFD420" d="M-588.2,363.2c2.6-4.4,4.2-6.6,10.6-9.9c5.1-1.9,10.5-3.1,16.1-3.6
					C-571.2,351.1-580.3,355.9-588.2,363.2"/>
				<path fill="#FFD420" d="M-616.5,430.9c-4.5-0.8-8.4-1.6-11.6-2.5c0.6-20.7,8.5-40,21-54.3c-1.9,6.4-2.4,10.1-1.1,18.1
					C-613.2,403.8-616.2,417.1-616.5,430.9"/>
				<path fill="#231F20" d="M-596.8,360.2c5.6-4,8.7-5.9,17.4-8.6c5.7-1.4,11.7-2.1,17.9-2.1l0,0
					C-574.3,350.1-586.3,354-596.8,360.2"/>
				<path fill="#FFD420" d="M-635.2,425.4c-1.6-1-2.4-2-2.4-3.1l0.1-2.6c2.2-33.2,26.2-60.5,58-68c-7.2,2.3-11.2,4-17.4,8.6
					C-619,373.6-634.3,398-635.2,425.4"/>
				<path fill="#231F20" d="M-600.8,432.9c-5.8-0.6-11-1.2-15.5-2c0.3-13.8,3.3-27,8.3-38.7c1.9,7.7,3.5,11.8,8.9,20.9
					C-600.2,419.5-600.7,426.1-600.8,432.9"/>
				<path fill="#FFD420" d="M-600.8,432.9c0.1-6.8,0.7-13.5,1.7-19.9c4.7,6.9,7.5,11,16.8,21.2
					C-588.7,433.8-593.3,433.6-600.8,432.9"/>
				<path fill="#231F20" d="M-577.6,353.2c4.2-1.7,7.9-3.2,16.1-3.6l0,0C-567,350.1-572.4,351.3-577.6,353.2"/>
				<path fill="none" d="M-485.1,424.7c-0.1,4.1-0.2,10.3-2.4,19.1c-2,7.9-5.4,14.9-6.6,16.9c-3.9,6.8-11.2,19.5-29,30.1"/>
				<path fill="#231F20" d="M-487.9,425.4c1.9-1.1,2.9-2.3,2.8-3.4c1,31.7-16.8,56.3-38,68.6l-0.1,0l0.8-0.5
					c20.5-12.4,34.1-35.3,34.1-62.1c0-0.8,0-1.7,0-2.5C-488.1,425.5-488,425.4-487.9,425.4c0,0.8,0,1.7,0,2.5"/>
				<polygon fill="none" points="-490.2,405.7 -490.2,405.6 -490.3,405.6 				"/>
				<path fill="#EE3E42" d="M-525.4,376.5L-525.4,376.5L-525.4,376.5C-525.4,376.5-525.3,376.5-525.4,376.5L-525.4,376.5
					C-525.3,376.5-525.3,376.4-525.4,376.5c0.8-0.1,1.5-0.3,2.2-0.4c4.3-0.8,13.8-2.9,13.8-5.7c0,0,4.2,3.9,7,9.1
					c0.3,0.6,0.6,1.2,0.9,1.8c0.3,0.6,0.4,1.2,0.5,1.7c0,0,0,0.1,0.1,0.1c0,0.2,0,0.5,0,0.7c0,0.1,0,0.2,0,0.2
					c-0.2,1.6-1.2,1.7-2.3,1.2c-0.1,0-0.2-0.1-0.4-0.1c-3.9-1.8-5.2-5.3-5.9-6.8c-2,0.6-5.3,2-8,2.6c-0.3,0.1-0.9,0.2-1.2,0.3
					c3.2,5.3,6.3,11.6,8.5,17.7c3.8-3.9,9.8,3.4,10.1,10.4c0.2,4.1-1.7,7.8-5.5,6.5c3,5.6,2.1,13.8-3.7,15.6
					C-510.2,412.7-513.3,396.4-525.4,376.5L-525.4,376.5L-525.4,376.5"/>
				<path fill="#EE3E42" d="M-524.7,362.3C-524.7,362.3-524.7,362.3-524.7,362.3C-524.7,362.3-524.7,362.3-524.7,362.3
					c0-0.1,0-0.1-0.1-0.2c0.1-0.1,0.1-0.2,0.2-0.2c0.1,0,0.2,0,0.3,0l0,0c0,0,0.6-2.3,9.3,3.7c-14.8-11.6-29.8-14.9-38.7-15.7
					c0.9,0.3,1.7,0.6,2.2,0.8c0.5,0.2,0.8,0.4,1,0.6c0,0,0,0,0,0c1.1,0.1,2.1,0.3,2.9,0.5l0,0l0,0c0.3,0.1,0.6,0.2,1,0.3
					c0,0,0.1,0,0.1,0c0.3,0.1,0.6,0.2,0.8,0.3c0.1,0,0.1,0.1,0.2,0.1c0.3,0.1,0.5,0.2,0.8,0.3c0.1,0,0.2,0.1,0.2,0.1
					c0.3,0.2,0.7,0.3,1,0.5v0c2.7,1.3,4.8,2.8,4.9,3.9c-0.4,0.2-0.5,0.3-1.7,0c4.5,3.2,10.9,9.2,14.7,13.7c2.6-0.5,6.5-1.1,8.3-1.7
					C-517.4,369.6-523.9,364.7-524.7,362.3z"/>
				<path fill="#FFFFFF" d="M-509.4,370.4c-1.9-1.8-3.8-3.4-5.6-4.8c-3.5-2.4-5.7-3.5-7.1-3.9l0,0c0,0-4.3-1.4-1.9,1.9l0,0
					c1.9,2.5,6.6,6,6.7,5.9c-1.8,0.6-5.7,1.2-8.3,1.6c-3.8-4.4-10.2-10.5-14.7-13.7c1.2,0.3,1.3,0.2,1.7,0c0-1.1-2.2-2.6-4.9-3.9v0
					c-0.3-0.2-0.7-0.3-1-0.5c-0.1,0-0.2-0.1-0.2-0.1c-0.3-0.1-0.5-0.2-0.8-0.3c-0.1,0-0.1-0.1-0.2-0.1c-0.3-0.1-0.6-0.2-0.8-0.3
					c0,0-0.1,0-0.1,0c-0.3-0.1-0.6-0.2-1-0.3l0,0c-0.9-0.2-1.9-0.4-2.9-0.5c0,0,0,0,0,0c0.1,0.1,0.1,0.1,0.2,0.2l-0.3-0.1
					c0.1,0,0.1,0,0.1,0c-0.2-0.2-0.6-0.4-1-0.6c-0.5-0.3-1.2-0.5-2.2-0.8c-2.2-0.2-4-0.3-5.3-0.3c-1,0-1.8,0-2,0c0,0,0,0,0,0
					c-0.3,0-0.5,0-0.5,0l0.3,0.1c-0.2,0-0.4-0.1-0.6-0.1c0.5,0.1,0.9,0.2,1.4,0.3c1.2,0.4,3.6,1,5.5,1.5c11.4,4,21.7,13,29.6,25
					c0.1,0,0.2,0,0.4-0.1c7.1-1.2,11-2.5,13.8-3.8c0,0,0,0,0,0C-509.2,371.5-509.5,370.4-509.4,370.4L-509.4,370.4L-509.4,370.4z"/>
				<path fill="#EE3E42" d="M-525.5,376.5L-525.5,376.5L-525.5,376.5L-525.5,376.5L-525.5,376.5c-12.4-18.2-23.7-23.7-34.1-26.4
					c0.3,0.1,0.5,0.2,0.8,0.2c-0.5-0.1-1-0.3-1.4-0.4c-0.1,0-0.2-0.1-0.3-0.1c0.3,0.1,0.6,0.1,0.9,0.2c-0.4-0.1-0.7-0.2-1.1-0.3
					c-0.1,0-0.2-0.1-0.3-0.1c0,0,0.1,0,0.1,0.1c-0.2-0.1-0.5-0.1-0.7-0.2l0,0l0,0c2.2,2.4,5.3,3.5,6.1,3.7c-0.2,0.9-0.1,2.7,3.1,5.1
					c0.5,0.4,1,0.6,1.4,0.9c4.9,2.6,6,0.6,6.3-0.2c0,0,0.1,0,0.1-0.1c1.5,1.1,4.4,3.5,7.7,7.1c1.9,2.2,3.6,4.2,5,6.2
					c-3,0.4-7.1,0.7-11.1,1c-0.2-4.8-3.7-7.3-5.9-8.1c-4.8-1.8-6.4,3.9-4.3,7.8c-3.8-2.1-8.3-0.2-8.9,5.8
					C-547.2,378.8-536.9,378.1-525.5,376.5L-525.5,376.5L-525.5,376.5"/>
				<path fill="#231F20" d="M-562.4,414.7c-7.5-7.8-11.5-12.2-16.9-19.2c3.7-23.6,10.3-41.7,17.9-46l0,0l0,0
					C-562,355.1-562.4,382.3-562.4,414.7"/>
			</g>
			<path fill="#231F20" d="M-652.8,368.7l0.4,0.2c-0.7,1.5-0.4,2.4,1.1,3.1l6.2,3.1c2.8,1.4,5,4.7,2.5,9.7c-2.2,4.4-5.8,5.4-9,3.8
				l-6.7-3.3c-1.5-0.7-1.9-0.4-2.7,1.1l-0.4-0.2l2.9-5.9l0.4,0.2l-0.1,0.2c-0.6,1.3-0.6,2,0.8,2.6l6.4,3.2c3.1,1.5,5.8,0.6,7.5-2.8
				c1.3-2.6,1.5-5.8-2.4-7.7l-5.3-2.6c-2.2-1.1-2.8-0.9-3.8,0.9l-0.4-0.2L-652.8,368.7z"/>
			<path fill="#231F20" d="M-626.3,361.1l-19.1,1.2l8.4,7.1c1.4,1.2,2,1.1,3.4-0.5l0.4,0.3l-3.8,4.5l-0.4-0.3l0.1-0.1
				c1-1.2,0.9-2,0-2.7l-9.6-8.1c-0.7,0.2-1.3,0.6-1.9,1.2l-0.4-0.3l2.6-3.1l17.4-1.1l-7.8-6.6c-1.2-1-1.7-0.8-3.1,0.7l-0.4-0.3
				l3.9-4.6l0.4,0.3c-1.2,1.5-1.2,2-0.5,2.6l10.9,9.2L-626.3,361.1z"/>
			<path fill="#231F20" d="M-617,352.9l-4.8,4l-0.3-0.4c1.2-1.1,1.2-1.6,0.1-2.9l-7-8.4c-0.9-1.1-1.5-1.1-2.6-0.2l-0.3-0.4l4.8-4
				l0.3,0.4c-1.2,1-1.4,1.7-0.4,3l6.9,8.3c1,1.2,1.6,1.3,3,0.2L-617,352.9z"/>
			<path fill="#231F20" d="M-607.6,347l-11.8-9.1c-1.4-1.1-1.8-1.2-3.2-0.5l-0.2-0.4l6.1-3.6l0.2,0.4c-2,1.2-2.2,2-1.2,2.7l9.8,7.5
				l-1.9-11.1c-0.1-0.8-0.2-1.3-0.4-1.6c-0.4-0.7-1.1-0.6-2.6,0.3l-0.2-0.4l5.1-3l0.2,0.4c-1.1,0.7-1.4,1.5-1.2,3.2l2.3,14.4
				L-607.6,347z"/>
			<path fill="#231F20" d="M-588.9,332l-0.5,0.2c-0.8-1.6-1.3-1.7-2.3-1.3l-4.1,1.4l1.8,5.1c0.4,1.1,0.9,1.2,1.8,0.9l3.7-1.3
				c1.7-0.6,2-1.4,1.9-3.7l0.4-0.1l0.9,3.7l-12.8,4.4l-0.2-0.5l0.7-0.2c1.9-0.7,2.1-1.3,1.6-2.8l-3.5-10.2c-0.5-1.4-1-1.8-2.6-1.3
				l-0.5,0.2l-0.1-0.5l11.6-4l1.4,3.3l-0.4,0.1c-1-1.9-1.8-2.2-2.6-1.9l-5.1,1.8l2.1,5.9l4.3-1.5c0.9-0.3,1.1-0.9,0.8-2.3l0.5-0.2
				L-588.9,332z"/>
			<path fill="#231F20" d="M-579.2,319.7c0.5-0.1,0.8-0.1,1.3-0.2c3.9-0.5,5.2,1.2,5.5,3.6c0.4,3-1.4,4.5-4.2,4.8
				c-0.6,0.1-1,0.1-1.6,0.1L-579.2,319.7z M-578.1,328.5c0.4,0,0.7,0,1.3-0.1c0.7-0.1,1.1-0.2,1.7-0.3c0.7,0.3,1.6,1,2.9,1.9
				l1.9,1.5c2.5,2,3.8,2.8,8.2,2.1l-0.1-0.5c-2,0.1-3.6-0.6-5.3-2l-2.2-1.8c-1.3-1-2.2-1.7-3.2-2.3c2-0.9,3.1-2.6,2.9-4.5
				c-0.3-2.6-2.6-4.3-7.3-3.7c-1.6,0.2-2.2,0.3-3.2,0.5c-1,0.2-2.6,0.5-3.2,0.5l0.1,0.5l0.6-0.1c1.5-0.2,2,0.2,2.1,1.8l1.3,10.7
				c0.2,1.7-0.3,2.2-1.8,2.4l-0.4,0.1l0.1,0.5l7.2-0.9l-0.1-0.5l-0.6,0.1c-1.4,0.2-2.1-0.1-2.3-1.7L-578.1,328.5z"/>
			<path fill="#231F20" d="M-558.5,330c0.4,2.3,2,3.8,4,3.9c1.7,0.1,3.6-0.7,3.8-2.7c0.3-3.7-7.8-5.4-7.5-9.9
				c0.2-2.1,2.2-3.5,4.8-3.3c2.1,0.2,2.5,0.8,3.4,0.9c0.2,0,0.3,0,0.5-0.2l0.4,0l0.2,3.3l-0.4,0c-0.6-1.9-2.1-3.2-3.9-3.3
				c-1.7-0.1-2.9,0.7-3,2.2c-0.3,3.6,7.8,5.2,7.5,9.9c-0.2,2.5-2.6,4.2-5.5,3.9c-1.4-0.1-3.1-0.9-3.5-1c-0.2,0-0.4,0.1-0.5,0.2
				l-0.4,0l-0.2-3.9L-558.5,330z"/>
			<path fill="#231F20" d="M-538.8,336.7l-6.1-1.3l0.1-0.5c1.6,0.3,2-0.1,2.3-1.7l2.3-10.6c0.3-1.4-0.1-1.8-1.5-2.2l0.1-0.5l6.1,1.3
				l-0.1,0.5c-1.6-0.3-2.2-0.1-2.6,1.6l-2.3,10.6c-0.3,1.5,0,2.1,1.7,2.4L-538.8,336.7z"/>
			<path fill="#231F20" d="M-525.9,338.5c-0.5,1.3-0.3,1.9,1.2,2.5l0.9,0.4l-0.2,0.5l-7.5-3l0.2-0.5l0.9,0.4c1.5,0.6,2.1,0.3,2.6-1
				l4.7-11.7l-4.1-1.6c-0.9-0.4-1.6,0-2.8,1.9l-0.4-0.2l1.9-3.7l0.5,0.2c0,0.1,0,0.3,0.1,0.4c0.1,0.1,0.3,0.2,0.4,0.3l11.4,4.5
				c0.3,0.1,0.7,0.2,0.9-0.1l0.5,0.2l-1.1,4l-0.4-0.2c0.5-2.2,0.3-3-0.7-3.3l-4.1-1.6L-525.9,338.5z"/>
			<path fill="#231F20" d="M-499.9,340.2c1.5-0.7,1.3-1.3-0.1-2.3l0.3-0.4l4.8,3.2l-0.3,0.4c-1.5-0.9-2.5-0.7-3.8-0.1l-7.5,3.6
				l-2.1,3.2c-0.8,1.1-0.6,1.8,0.6,2.7l0.3,0.2l-0.3,0.4l-5.9-3.9l0.3-0.4l0.4,0.3c1.3,0.9,2,0.6,2.7-0.4l2-3l0.2-8.4
				c0.1-2.3-0.2-3-1.6-3.9l0.3-0.4l5.6,3.8l-0.3,0.4c-1.7-1.1-2-0.8-2.1,0.6l-0.1,7.5L-499.9,340.2z"/>
			<path fill="#231F20" d="M-478.8,370.6c-2.9,2.2-7,2.9-9.5-0.5c-2.5-3.3-1.8-7.9,2-10.8c2.4-1.9,6.9-3,9.6,0.6
				C-474.2,363.3-475,367.7-478.8,370.6z M-476.7,372c3.7-2.8,3.8-8.1,0.8-11.9c-3.3-4.3-8.5-5.3-12.6-2.2
				c-3.8,2.9-3.8,8.2-0.8,12.2C-486.2,374-480.8,375.1-476.7,372z"/>
			<path fill="#231F20" d="M-471.3,388l-0.2-0.4c1.3-0.7,1.5-1.4,1-2.5l-2-4.3l-5.1,2.4c-1.3,0.6-1.6,1.1-0.8,2.9l-0.4,0.2l-2.7-5.6
				l0.4-0.2c0.8,1.4,1.2,1.5,3.1,0.6l9-4.3c1.5-0.7,2.1-1.1,1.4-2.8l0.4-0.2l4.9,10.3l-2.7,1.3l-0.2-0.4c1.3-0.7,1.7-1.4,1-2.8
				l-2.1-4.4l-5.4,2.6l2.2,4.6c0.4,0.9,1.1,1,2.1,0.6l0.2,0.4L-471.3,388z"/>
			<path fill="#231F20" d="M-650.2,488l9.2-17l0-0.1l-12.4,7.9c-1.4,0.9-1,2.1-0.2,3.3l-0.5,0.4l-4-5.5l0.5-0.4
				c1.4,1.9,2,1.9,4.5,0.2l10.7-6.8c1.8-1.2,2.3-1.6,1.2-3.3l0.5-0.3l2.9,4l-8.7,16l17.9-3.3l2.8,3.9l-0.5,0.3c-1-1.2-1.4-1.7-2.3-1
				l-11.4,9.5c-2.3,1.9-2.2,2.1-0.8,4.1l-0.5,0.4l-4.9-6.8l0.5-0.4c0.9,1.2,2.1,2.2,3.4,1.1l11.3-9.4l0-0.1l-18.9,3.6L-650.2,488z"
				/>
			<path fill="#231F20" d="M-617.9,505.7l-4.6-3.3l6.7-4.5L-617.9,505.7z M-618.3,507.2l-1.8,6.1c-0.1,0.3-0.2,0.9-0.5,1.3
				c-0.5,0.7-1.2,0.5-2.7-0.6l-0.7-0.5l-0.4,0.5l7.2,5.3l0.4-0.5c-1.3-1-1.7-1.6-1.2-3.4l5.2-18.6l-2.3-1.7l-0.2,0.8l-14.4,9.6
				c-2.5,1.7-3,1.7-4.8,0.5l-0.4,0.5l6.1,4.5l0.4-0.5l-0.4-0.3c-1.4-1.1-1.9-1.8-1.4-2.5c0.3-0.4,1.2-0.9,1.7-1.3l4.6-3
				L-618.3,507.2z"/>
			<path fill="#231F20" d="M-597.3,506.7c0.6,0.1,1,0.3,1.6,0.5c4.7,1.7,5.2,4.4,4.2,7.2c-1.3,3.7-4.1,4.3-7.5,3.1
				c-0.7-0.2-1.2-0.4-1.9-0.7L-597.3,506.7z M-601.1,517.4c0.5,0.2,0.9,0.4,1.5,0.6c0.8,0.3,1.3,0.4,2.1,0.7c0.6,0.8,1.3,2,2.2,3.9
				l1.3,2.7c1.8,3.7,2.7,5.4,8.2,7l0.2-0.6c-2.3-1-3.8-2.8-5-5.3l-1.6-3.3c-0.9-2-1.6-3.1-2.4-4.4c2.8,0.1,5-1.2,5.9-3.5
				c1.1-3.1-0.6-6.4-6.3-8.4c-2-0.7-2.6-0.9-3.9-1.3c-1.3-0.4-3.2-0.9-3.9-1.2l-0.2,0.6l0.7,0.2c1.8,0.6,2.1,1.4,1.4,3.3l-4.6,13
				c-0.7,2.1-1.6,2.3-3.4,1.7l-0.5-0.2l-0.2,0.6l8.7,3.1l0.2-0.6l-0.7-0.3c-1.7-0.6-2.3-1.3-1.6-3.2L-601.1,517.4z"/>
			<path fill="#231F20" d="M-564.1,516.7c1.2-1.7,0.6-2.3-1.5-2.5l0.1-0.6l7.4,0.6l0,0.6c-2.2,0-3.3,0.8-4.3,2.2l-6.2,8.7l-0.4,4.9
				c-0.1,1.7,0.4,2.5,2.4,2.6l0.4,0l-0.1,0.6l-8.9-0.8l0.1-0.6l0.6,0c2,0.2,2.7-0.5,2.8-2.1l0.4-4.6l-5-9.5
				c-1.4-2.6-2.1-3.2-4.2-3.4l0.1-0.6l8.7,0.7l-0.1,0.6c-2.5-0.2-2.8,0.4-1.9,2l4.5,8.5L-564.1,516.7z"/>
			<path fill="#231F20" d="M-536.9,531.4l-14.4,2.4l-0.1-0.6l1.1-0.2c1.5-0.2,2-0.8,1.7-2.5l-2.4-14.3c-0.3-1.7-0.9-2.3-3-2
				l-0.5,0.1l-0.1-0.6l9.5-1.6l0.1,0.6l-1.2,0.2c-2.1,0.4-2.6,0.7-2.3,2.7l2.5,14.8c0.1,0.9,0.6,1.1,1.5,1l4.7-0.8
				c1.9-0.3,2.4-1.2,3.9-4.3l0.6-0.1L-536.9,531.4z"/>
			<path fill="#231F20" d="M-521.3,515l-5.2,2.2l-0.4-8.1L-521.3,515z M-520.3,516.2l4.3,4.6c0.2,0.2,0.6,0.6,0.8,1.1
				c0.4,0.8-0.2,1.3-1.9,2l-0.8,0.3l0.2,0.6l8.3-3.5l-0.2-0.6c-1.5,0.6-2.3,0.6-3.5-0.8l-13.3-14.1l-2.6,1.1l0.5,0.6l0.8,17.3
				c0.1,3-0.1,3.5-2,4.3l0.2,0.6l7-2.9l-0.2-0.6l-0.5,0.2c-1.7,0.7-2.6,0.7-2.9-0.1c-0.2-0.4-0.2-1.5-0.2-2.1l-0.2-5.5L-520.3,516.2
				z"/>
			<path fill="#231F20" d="M-484.9,503.5l-24.3-2.9l8.9,10.8c1.5,1.8,2.2,1.9,4.4,0.1l0.4,0.5l-5.8,4.8l-0.4-0.5l0.1-0.1
				c1.6-1.3,1.6-2.2,0.7-3.4l-10.2-12.4c-0.9,0.1-1.7,0.4-2.6,1.1l-0.4-0.5l4-3.3l22.1,2.6l-8.3-10c-1.3-1.5-2-1.4-4,0.2l-0.4-0.5
				l5.9-4.9l0.4,0.5c-1.9,1.6-2,2.2-1.2,3.2l11.6,14.1L-484.9,503.5z"/>
			<path fill="#231F20" d="M-489.7,478.4c0.2-0.4,0.6-1.1,1.3-2.3c2.5-3.8,4.7-5.2,6.8-5.6c2.7-0.6,5.3,0.3,7.3,1.6
				c2.8,1.8,4.1,4.5,4.5,6.1c0.6,2.8,0.1,4.7-2.2,8.3c-1.4,2.2-1.8,2-3,1.3L-489.7,478.4z M-477,489.8c1.6,1,1.6,2,0.6,3.5l-0.3,0.5
				l0.5,0.3l5.7-8.8c4.5-6.9,1.6-13.4-2.5-16c-4.5-2.9-10.3-2.1-15,5.1c-0.9,1.4-2,3.1-2.9,4.7s-1.7,2.9-2.3,4l0.5,0.3l0.4-0.5
				c1-1.6,1.8-1.8,3.6-0.6L-477,489.8z"/>
			<path fill="#231F20" d="M-666.1,418.6v14c0,0.7,0.1,0.9,0.9,0.9h1.4v0.4h-6.1v-0.4h1.3c0.8,0,0.9-0.2,0.9-0.9v-12
				c-0.8,0.7-2.1,1.6-3,2l-0.2-0.3c1.4-0.9,3.4-2.7,4-3.6H-666.1z"/>
			<path fill="#231F20" d="M-652.1,430.5c0,1.9-1.4,3.3-3.2,3.3c-1.8,0-3.2-1.5-3.2-3.6c0-1.6,0.8-2.8,2.5-3.7
				C-653.2,427.9-652.1,428.9-652.1,430.5z M-651,422.1c0-1.9-1.9-3.5-4.4-3.5c-2.4,0-4.4,1.8-4.4,3.9c0,1.6,1,2.9,3.3,3.9
				c-2.4,0.9-3.5,2.3-3.5,4c0,2.2,2.1,4,4.7,4c2.7,0,4.8-1.9,4.8-4.4c0-1.9-1.1-3.1-3.6-4.3C-652.1,424.7-651,423.6-651,422.1z
				 M-652.5,422c0,1.4-0.7,2.5-2,3.3c-3.1-1.3-3.8-2.3-3.8-3.6c0-1.5,1.3-2.7,3-2.7C-653.7,419-652.5,420.3-652.5,422z"/>
			<path fill="#231F20" d="M-472.5,420.3h5.7c0.4,0,0.6-0.1,0.7-0.3h0.5l-0.3,1.9h-6.1l-0.2,4.3c0.8-0.4,1.6-0.6,2.6-0.6
				c2.7,0,4.9,2.3,4.9,5c0,2.9-2.4,5.1-5.7,5.1c-1.9,0-3.5-0.7-3.5-1.5c0-0.4,0.4-0.8,0.8-0.8c1.3,0,1.8,1.7,3.3,1.7
				c1.8,0,3.3-1.9,3.3-4.1c0-2.2-1.5-3.9-3.6-3.9c-0.9,0-1.8,0.4-2.5,1l-0.2-0.2L-472.5,420.3z"/>
			<path fill="#231F20" d="M-454.1,431.1c0,2.7-1.2,4.2-2.9,4.2c-1.5,0-3.3-1.3-3.3-5.4c0-0.8,0.1-1.2,0.1-1.5
				c1.5-1.2,2.6-1.5,3.2-1.5C-455.3,427-454.1,428.5-454.1,431.1z M-454,420c-5,1.4-8.1,5-8.1,9.4c0,3.7,2.1,6.3,5,6.3
				c2.6,0,4.7-2.2,4.7-4.9c0-2.5-1.9-4.4-4.3-4.4c-1.2,0-2.1,0.4-3.4,1.4c0.5-3.5,2.5-5.9,6.3-7.4L-454,420z"/>
		</g>
		<path d="M-361.2,396.5h-14.2l7-19.1L-361.2,396.5z M-359.8,400l5.5,15c0.3,0.8,0.9,2.1,0.9,3.4c0,2.3-1.7,2.8-6.4,2.8h-2.1v1.5
			h22.6v-1.5c-4.1,0-5.8-0.8-7.5-5.2l-17.1-45.5h-7.1l0.7,1.8l-14.9,40.8c-2.6,7.2-3.5,8.1-8.8,8.1v1.5h19v-1.5h-1.3
			c-4.5,0-6.6-0.8-6.6-3c0-1.2,1.1-3.6,1.6-5.2l4.8-12.9L-359.8,400L-359.8,400z"/>
		<path d="M-325.7,419.7c0,2.5-1.9,3.9-4.2,3.9c-2.4,0-4.2-1.6-4.2-3.9c0-2.3,1.8-3.9,4.2-3.9C-327.6,415.9-325.7,417.3-325.7,419.7
			z"/>
		<path d="M-278.8,414.2c0,16.5-6.7,27.5-17,27.5c-4.5,0-8-1.9-8-4.4c0-1.7,1.3-3.3,3-3.3c2.8,0,5,3.9,8.4,3.9c3.9,0,6.7-3,6.7-12.1
			V382c0-7.2-0.7-8.9-6.6-8.9h-0.9v-1.5h20.8v1.5c-5.3,0.2-6.4,1.6-6.4,6L-278.8,414.2L-278.8,414.2z"/>
		<path d="M-235,396.5h-14.2l7-19.1L-235,396.5z M-233.7,400l5.5,15c0.3,0.8,0.9,2.1,0.9,3.4c0,2.3-1.7,2.8-6.4,2.8h-2.1v1.5h22.6
			v-1.5c-4.1,0-5.8-0.8-7.5-5.2l-17.1-45.5h-7.1l0.7,1.8l-14.9,40.8c-2.6,7.2-3.5,8.1-8.9,8.1v1.5h19v-1.5h-1.3
			c-4.5,0-6.6-0.8-6.6-3c0-1.2,1.1-3.6,1.6-5.2l4.8-12.9L-233.7,400L-233.7,400z"/>
		<path d="M-179.6,422.7l-20.9-43.7h-0.2l-2.2,37c-0.2,4.2,2.8,5.1,6.5,5.3v1.5h-17v-1.5c6,0,6.7-1.3,7.1-8.8l2-32
			c0.3-5.4,0.2-6.9-4.9-7.2v-1.5h12.3l19.8,41.4l19.7-41.4h12.1v1.5c-4,0.3-5.6,0.4-5.4,3.2l2.6,37.2c0.5,7.6,1.1,7.6,7.1,7.6v1.5
			H-162v-1.5c3.9,0,7.6-1.1,7.3-5.4l-2.4-36.8h-0.2l-20.4,43.7C-177.7,422.7-179.6,422.7-179.6,422.7z"/>
		<path d="M-102.8,404.2h-1.5c-0.7-5.8-2.2-6.5-5.6-6.5h-13.9v17.5c0,3.8,1.4,4.5,4.4,4.5h12.7c5.7,0,7.4-2.2,9.5-9.2h1.5l-1.3,12.2
			h-43.6v-1.5h2.3c6.6,0,7.7-1.8,7.7-6.8v-34.7c0-4.6-1.1-6.6-6.6-6.6h-1.8v-1.5h39.4l0.7,11.4h-1.5c-1.1-6.9-3.1-8.4-6-8.4h-17.4
			v20.1h14.7c3,0,4.4-1.4,4.8-6.1h1.5L-102.8,404.2L-102.8,404.2z"/>
		<path d="M-88.5,410.2c1.7,7.3,7.5,11.6,13.9,11.6c5.5,0,11.3-3.2,11.3-9.7c0-11.8-26.3-15.4-26.3-29.8c0-6.8,6.2-11.8,14.6-11.8
			c6.9,0,8.3,2,11.2,2c0.7,0,1-0.2,1.5-0.8h1.3l1.4,10.4h-1.4c-2.3-5.9-7.5-9.7-13.2-9.7c-5.4,0-9.2,3.1-9.2,7.7
			c0,11.6,26.3,14.8,26.3,29.8c0,8-7.1,14-16.7,14c-4.5,0-10.3-2.2-11.4-2.2c-0.7,0-1.3,0.4-1.6,0.9h-1.4l-1.7-12.5L-88.5,410.2
			L-88.5,410.2z"/>
		<path d="M15.7,385C13,377.4,5.9,372.4-3,372.4c-13.7,0-22.2,10-22.2,23.8c0,14.9,10.7,25.8,23.1,25.8c6.5,0,14.4-2.2,20-12.2h1.6
			c-1.1,3.7-3.3,8.8-5.3,12c-5.3-0.7-8.9,2.1-18.5,2.1C-21,423.9-33,413-33,397.8c0-16,12.3-27.3,29.5-27.3
			c10.3,0,14.8,3.1,17.3,3.2c0.9,0,1.3-0.2,1.5-0.5h1.2l0.7,11.9L15.7,385z"/>
		<path d="M60.9,422.7H24.3v-1.5H27c3.8,0,5.2-1.2,5.2-5.4v-36.4c0-4.4-1.3-6.2-6.5-6.2h-1.1v-1.5h24.2v1.5h-3
			c-5.3,0-6.7,0.6-6.7,5.7v37.8c0,2.2,0.9,3,3.3,3h12.1c4.8,0,6.3-1.9,11.5-8.9h1.5L60.9,422.7z"/>
		<path d="M101.2,396.5H87l7-19.1L101.2,396.5z M102.5,400l5.5,15c0.3,0.8,0.9,2.1,0.9,3.4c0,2.3-1.7,2.8-6.4,2.8h-2.1v1.5H123v-1.5
			c-4.1,0-5.8-0.8-7.5-5.2l-17.1-45.5h-7.1l0.7,1.8L77,413c-2.6,7.2-3.5,8.1-8.9,8.1v1.5h19v-1.5h-1.3c-4.5,0-6.6-0.8-6.6-3
			c0-1.2,1.1-3.6,1.6-5.2l4.8-12.9L102.5,400L102.5,400z"/>
		<path d="M138.2,372.5c1.5-0.2,2.5-0.2,4.1-0.2c12.6,0,16.1,5.9,16.1,13.6c0,9.9-6,13.8-15.1,13.8c-1.9,0-3.1,0.1-5.1-0.2V372.5z
			 M138.2,401.1c1.3,0.1,2.4,0.2,4.2,0.2c2.2,0,3.5-0.1,5.6-0.2c2,1.3,4.8,3.7,8.5,7.3l5.4,5.4c7.3,7.3,11,10.4,25.4,9.8v-1.5
			c-6.3-0.4-11.3-3.5-16.2-8.3l-6.5-6.5c-3.9-3.9-6.3-6.2-9.4-8.5c6.7-2,10.9-7.2,10.9-13.4c0-8.4-6.8-14.6-22-14.6
			c-5.3,0-7,0.1-10.3,0.2c-3.4,0.3-8.4,0.6-10.4,0.6v1.5h1.8c4.8,0,6.2,1.5,6.2,6.6v34.6c0,5.5-1.7,6.8-6.6,6.8h-1.4v1.5h23.2v-1.5
			h-1.9c-4.6,0-6.6-1.2-6.6-6.2L138.2,401.1L138.2,401.1z"/>
		<path d="M214.3,422.7v-1.5c3.8-0.1,5.3-0.7,5.3-2.3c0-1.4-1.8-4.2-10.1-12.5c-6.6-6.6-8.5-7.8-12.1-7.4v15.4
			c0,5.2,1.5,6.8,6.6,6.8h1.1v1.5h-22.5v-1.5h1.5c5.3,0,6.6-1.8,6.6-6v-36.1c0-4.9-2.2-5.9-6.6-5.9h-1.5v-1.5h22.2v1.5H204
			c-4.9,0-6.6,1.6-6.6,6.5v17.8c3.2-0.3,5.7-1.8,9.2-5.3c6.4-6.4,11.4-13.8,11.4-16.5c0-1.9-1.2-2.5-5.7-2.5v-1.5h21.6v1.5
			c-5.8,0.1-8.4,0.9-10.8,3.4c-2.6,2.5-7.7,12.8-16.3,19.4c1.5,0.2,3,1.5,6.6,5c8.6,8.6,13.2,15.1,15.9,17.8
			c1.4,1.4,3.5,2.4,9.1,2.4v1.5C238.4,422.7,214.3,422.7,214.3,422.7z"/>
		<path d="M-393.4,476.2c0.9,3.9,4,6.1,7.4,6.1c2.9,0,6-1.7,6-5.1c0-6.3-14-8.2-14-15.8c0-3.6,3.3-6.3,7.7-6.3
			c3.7,0,4.4,1.1,5.9,1.1c0.4,0,0.5-0.1,0.8-0.5h0.7l0.7,5.5h-0.7c-1.2-3.1-4-5.1-7-5.1c-2.9,0-4.9,1.7-4.9,4.1
			c0,6.2,14,7.8,14,15.8c0,4.3-3.8,7.4-8.9,7.4c-2.4,0-5.4-1.2-6.1-1.2c-0.4,0-0.7,0.2-0.9,0.5h-0.7l-0.9-6.6L-393.4,476.2
			L-393.4,476.2z"/>
		<path d="M-343.9,462.9c-1.4-4.1-5.2-6.7-9.9-6.7c-7.3,0-11.8,5.3-11.8,12.6c0,7.9,5.7,13.7,12.3,13.7c3.4,0,7.7-1.2,10.6-6.5h0.8
			c-0.6,2-1.7,4.7-2.8,6.4c-2.8-0.4-4.7,1.1-9.8,1.1c-8.8,0-15.2-5.8-15.2-13.9c0-8.5,6.5-14.5,15.6-14.5c5.5,0,7.8,1.7,9.2,1.7
			c0.5,0,0.7-0.1,0.8-0.3h0.7l0.4,6.3L-343.9,462.9z"/>
		<path d="M-328.8,469.8v8.3c0,2.8,0.6,3.8,3.5,3.8h0.1v0.8h-10.9V482h0.3c2.6,0,3.4-0.7,3.4-3.2v-19.2c0-2.3-0.7-2.9-3.1-3.1v-0.8
			h10.4v0.8c-3.1,0-3.6,0.8-3.6,4.2v7.6h17.1v-8.6c0-2.3-0.7-3.2-3.4-3.2h-0.8v-0.8h11.2v0.8c-2.6,0.1-3.3,0.9-3.3,3.6v18.1
			c0,3.1,0.9,3.8,3.5,3.8h0.4v0.8h-12.3V482h1.4c2.8,0,3.4-1,3.4-3.3v-8.9L-328.8,469.8L-328.8,469.8z"/>
		<path d="M-270.7,470c0,6.2-3.4,12.5-10.5,12.5c-7,0-12.5-5.8-12.5-13.9c0-5.2,3-12.4,10.7-12.4
			C-275.8,456.1-270.7,461.8-270.7,470z M-266.6,468.5c0-7.9-7.1-13.4-15.3-13.4c-9.3,0-15.9,6.1-15.9,14.8
			c0,8.2,7.2,13.6,15.7,13.6C-273.6,483.5-266.6,477.3-266.6,468.5z"/>
		<path d="M-232,470c0,6.2-3.4,12.5-10.5,12.5c-7,0-12.5-5.8-12.5-13.9c0-5.2,3-12.4,10.7-12.4C-237.1,456.1-232,461.8-232,470z
			 M-227.9,468.5c0-7.9-7.1-13.4-15.3-13.4c-9.3,0-15.9,6.1-15.9,14.8c0,8.2,7.2,13.6,15.7,13.6C-235,483.5-227.9,477.3-227.9,468.5
			z"/>
		<path d="M-202.5,482.8h-19.5V482h1.4c2,0,2.7-0.6,2.7-2.9v-19.3c0-2.3-0.7-3.3-3.4-3.3h-0.6v-0.8h12.8v0.8h-1.6
			c-2.8,0-3.6,0.3-3.6,3v20.1c0,1.2,0.5,1.6,1.7,1.6h6.4c2.6,0,3.4-1,6.1-4.8h0.8L-202.5,482.8z"/>
		<path d="M-151.6,470c0,6.2-3.4,12.5-10.5,12.5c-7,0-12.5-5.8-12.5-13.9c0-5.2,3.1-12.4,10.7-12.4
			C-156.7,456.1-151.6,461.8-151.6,470z M-147.5,468.5c0-7.9-7.1-13.4-15.3-13.4c-9.3,0-15.9,6.1-15.9,14.8
			c0,8.2,7.2,13.6,15.7,13.6C-154.5,483.5-147.5,477.3-147.5,468.5z"/>
		<path d="M-121.7,472.4h-0.7c-0.1-2.5-1-3.3-3.1-3.3h-8.1v9.5c0,2.4,0.5,3.4,3.8,3.4v0.8h-10.6V482c2.7-0.2,3.2-0.7,3.2-4.3v-17.1
			c0-2.8-0.2-4-3.3-4.1v-0.8h19.5v5.1h-0.7c0-2.5-0.9-3.6-3.6-3.6h-8.3v10.2h8.7c1.6,0,2.4-0.9,2.5-2.8h0.7L-121.7,472.4
			L-121.7,472.4z"/>
		<path d="M-81.3,473h-0.8c-0.3-3.1-1.2-3.4-3-3.4h-7.3v9.3c0,2,0.7,2.4,2.4,2.4h6.7c3,0,3.9-1.2,5-4.9h0.8l-0.7,6.5h-23.1V482h1.2
			c3.5,0,4.1-1,4.1-3.6V460c0-2.4-0.6-3.5-3.5-3.5h-1v-0.8h20.9l0.3,6h-0.8c-0.6-3.7-1.7-4.5-3.2-4.5h-9.2V468h7.8
			c1.6,0,2.3-0.7,2.5-3.3h0.8L-81.3,473L-81.3,473z"/>
		<path d="M-43.3,483.1l-22.5-23.6v18.7c0,3.1,0.7,3.8,4.4,3.8v0.8h-10.1V482h0.2c2.7,0,3.6-0.9,3.6-2.9v-21.4
			c-1-0.7-2.1-1.1-3.7-1.1v-0.8h6.8l20.5,21.4v-17.3c0-2.7-0.8-3.1-4.3-3.2v-0.8h10.2v0.8c-3.3,0-4,0.6-4,2.3v24.3L-43.3,483.1
			L-43.3,483.1z"/>
		<path d="M-6.5,480.8c-4.3,2.2-9.8,2.7-11.6,2.7c-9.5,0-14-7.3-14-13.7c0-6.6,4.6-14.7,15.2-14.7c4.7,0,7.8,1.4,8.7,1.4
			c0.4,0,0.7-0.1,1-0.3h0.6v7l-0.9,0c-1.2-5.5-4.9-7.2-8.9-7.2c-7.7,0-11.6,6.4-11.6,13.4c0,8.9,6.3,12.9,11.3,12.9
			c2,0,4.2-0.4,6.7-1.7v-5.5c0-2.5-0.9-3.3-3.5-3.3h-1.6v-0.8h11.7v0.8c-2.2,0.1-3,0.9-3,2.8L-6.5,480.8L-6.5,480.8z"/>
		<path d="M13,482.8H2.4V482c2.7-0.1,3.3-0.8,3.3-3.7v-18.6c0-2.3-0.8-3-3.3-3.1v-0.8H13v0.8c-2.7,0-3.7,0.6-3.7,3.5v18.5
			c0,2.6,0.7,3.4,3.7,3.4V482.8z"/>
		<path d="M47.3,483.1l-22.5-23.6v18.7c0,3.1,0.7,3.8,4.4,3.8v0.8H19V482h0.2c2.7,0,3.6-0.9,3.6-2.9v-21.4c-1-0.7-2.1-1-3.7-1.1
			v-0.8H26l20.5,21.4v-17.3c0-2.7-0.8-3.1-4.3-3.2v-0.8h10.2v0.8c-3.3,0-4,0.6-4,2.3v24.3L47.3,483.1L47.3,483.1z"/>
		<path d="M76.1,473h-0.8c-0.3-3.1-1.2-3.4-3-3.4H65v9.3c0,2,0.7,2.4,2.3,2.4H74c3,0,3.9-1.2,5-4.9h0.8l-0.7,6.5H56.1V482h1.2
			c3.5,0,4.1-1,4.1-3.6V460c0-2.4-0.6-3.5-3.5-3.5h-1v-0.8h20.9l0.3,6h-0.8c-0.6-3.7-1.6-4.5-3.2-4.5H65V468h7.8
			c1.6,0,2.3-0.7,2.5-3.3h0.8L76.1,473L76.1,473z"/>
		<path d="M104.8,473H104c-0.4-3.1-1.2-3.4-3-3.4h-7.3v9.3c0,2,0.7,2.4,2.3,2.4h6.7c3,0,3.9-1.2,5-4.9h0.8l-0.7,6.5H84.8V482H86
			c3.5,0,4.1-1,4.1-3.6V460c0-2.4-0.6-3.5-3.5-3.5h-1v-0.8h20.9l0.4,6h-0.8c-0.6-3.7-1.6-4.5-3.2-4.5h-9.2V468h7.8
			c1.6,0,2.3-0.7,2.5-3.3h0.8L104.8,473L104.8,473z"/>
		<path d="M122,456.2c0.8-0.1,1.4-0.1,2.2-0.1c6.7,0,8.5,3.1,8.5,7.2c0,5.2-3.2,7.3-8,7.3c-1,0-1.7,0-2.7-0.1V456.2z M122,471.3
			c0.7,0,1.3,0.1,2.2,0.1c1.2,0,1.9,0,3-0.1c1,0.7,2.6,2,4.5,3.9l2.9,2.9c3.9,3.9,5.8,5.5,13.4,5.2v-0.8c-3.4-0.2-6-1.8-8.6-4.4
			l-3.4-3.5c-2-2.1-3.3-3.3-5-4.5c3.6-1,5.8-3.8,5.8-7c0-4.4-3.6-7.7-11.7-7.7c-2.8,0-3.7,0-5.5,0.1c-1.8,0.1-4.4,0.3-5.5,0.3v0.8h1
			c2.5,0,3.3,0.8,3.3,3.5v18.3c0,2.9-0.9,3.6-3.5,3.6h-0.7v0.8h12.3V482h-1c-2.4,0-3.5-0.6-3.5-3.3L122,471.3L122,471.3z"/>
		<path d="M163.6,482.8H153V482c2.7-0.1,3.3-0.8,3.3-3.7v-18.6c0-2.3-0.8-3-3.3-3.1v-0.8h10.6v0.8c-2.7,0-3.7,0.6-3.7,3.5v18.5
			c0,2.6,0.7,3.4,3.7,3.4V482.8z"/>
		<path d="M197.9,483.1l-22.5-23.6v18.7c0,3.1,0.7,3.8,4.4,3.8v0.8h-10.1V482h0.2c2.7,0,3.6-0.9,3.6-2.9v-21.4c-1-0.7-2.1-1-3.7-1.1
			v-0.8h6.8l20.5,21.4v-17.3c0-2.7-0.8-3.1-4.3-3.2v-0.8H203v0.8c-3.3,0-4,0.6-4,2.3v24.3L197.9,483.1L197.9,483.1z"/>
		<path d="M234.7,480.8c-4.3,2.2-9.8,2.7-11.7,2.7c-9.5,0-14-7.3-14-13.7c0-6.6,4.6-14.7,15.2-14.7c4.7,0,7.8,1.4,8.7,1.4
			c0.4,0,0.7-0.1,1-0.3h0.6v7l-0.9,0c-1.2-5.5-4.9-7.2-8.9-7.2c-7.7,0-11.6,6.4-11.6,13.4c0,8.9,6.3,12.9,11.3,12.9
			c2,0,4.2-0.4,6.7-1.7v-5.5c0-2.5-0.9-3.3-3.5-3.3h-1.6v-0.8h11.7v0.8c-2.2,0.1-3,0.9-3,2.8L234.7,480.8L234.7,480.8z"/>
	</g>
</g>
</svg>
