<?xml version="1.0" encoding="utf-8"?>
<!-- Generator: Adobe Illustrator 18.1.1, SVG Export Plug-In . SVG Version: 6.00 Build 0)  -->
<svg version="1.1" id="Layer_1" xmlns="http://www.w3.org/2000/svg" xmlns:xlink="http://www.w3.org/1999/xlink" x="0px" y="0px"
	 width="218px" height="30px" viewBox="-329 346 218 30" enable-background="new -329 346 218 30" xml:space="preserve">
<g id="guides">
</g>
<g id="Layer_2">
	<g>
		<path fill="#231F20" d="M-286.8,348.4c-0.2-0.7-0.9-1.1-1.6-1.1c-1.2,0-1.9,0.9-1.9,2.1c0,1.3,0.9,2.2,2,2.2
			c0.6,0,1.3-0.2,1.7-1.1h0.1c-0.1,0.3-0.3,0.8-0.5,1c-0.5-0.1-0.8,0.2-1.6,0.2c-1.4,0-2.5-1-2.5-2.3c0-1.4,1.1-2.4,2.6-2.4
			c0.9,0,1.3,0.3,1.5,0.3c0.1,0,0.1,0,0.1,0h0.1l0.1,1L-286.8,348.4L-286.8,348.4z"/>
		<path fill="#231F20" d="M-281.8,351.8c-1.4,0-2.6-0.9-2.6-2.2c0-1.4,1.1-2.4,2.6-2.4c1.3,0,2.5,0.9,2.5,2.2
			C-279.2,350.8-280.4,351.8-281.8,351.8z M-281.9,347.3c-1.3,0-1.8,1.2-1.8,2c0,1.3,0.9,2.3,2.1,2.3c1.2,0,1.7-1,1.7-2
			C-279.9,348.3-280.7,347.3-281.9,347.3z"/>
		<path fill="#231F20" d="M-274,351.7h-3.2v-0.1h0.2c0.3,0,0.4-0.1,0.4-0.5v-3.2c0-0.4-0.1-0.5-0.6-0.5h-0.1v-0.1h2.1v0.1h-0.3
			c-0.5,0-0.6,0.1-0.6,0.5v3.3c0,0.2,0.1,0.3,0.3,0.3h1.1c0.4,0,0.5-0.2,1-0.8h0.1L-274,351.7z"/>
		<path fill="#231F20" d="M-268.6,351.7h-3.2v-0.1h0.2c0.3,0,0.4-0.1,0.4-0.5v-3.2c0-0.4-0.1-0.5-0.6-0.5h-0.1v-0.1h2.1v0.1h-0.3
			c-0.5,0-0.6,0.1-0.6,0.5v3.3c0,0.2,0.1,0.3,0.3,0.3h1c0.4,0,0.6-0.2,1-0.8h0.1L-268.6,351.7z"/>
		<path fill="#231F20" d="M-263.2,350.1h-0.1c-0.1-0.5-0.2-0.6-0.5-0.6h-1.2v1.5c0,0.3,0.1,0.4,0.4,0.4h1.1c0.5,0,0.6-0.2,0.8-0.8
			h0.1l-0.1,1.1h-3.8v-0.1h0.2c0.6,0,0.7-0.2,0.7-0.6v-3c0-0.4-0.1-0.6-0.6-0.6h-0.2v-0.1h3.4l0.1,1h-0.1c-0.1-0.6-0.3-0.7-0.5-0.7
			h-1.5v1.8h1.3c0.3,0,0.4-0.1,0.4-0.5h0.1L-263.2,350.1L-263.2,350.1z"/>
		<path fill="#231F20" d="M-256.1,351.4c-0.7,0.4-1.6,0.5-1.9,0.5c-1.6,0-2.3-1.2-2.3-2.3c0-1.1,0.8-2.4,2.5-2.4
			c0.8,0,1.3,0.2,1.4,0.2c0.1,0,0.1,0,0.2,0h0.1v1.2h-0.1c-0.2-0.9-0.8-1.2-1.5-1.2c-1.3,0-1.9,1-1.9,2.2c0,1.5,1,2.1,1.8,2.1
			c0.3,0,0.7-0.1,1.1-0.3v-0.9c0-0.4-0.1-0.5-0.6-0.5h-0.3v-0.1h1.9v0.1c-0.4,0-0.5,0.1-0.5,0.5L-256.1,351.4L-256.1,351.4z"/>
		<path fill="#231F20" d="M-250.7,350.1h-0.1c-0.1-0.5-0.2-0.6-0.5-0.6h-1.2v1.5c0,0.3,0.1,0.4,0.4,0.4h1.1c0.5,0,0.6-0.2,0.8-0.8
			h0.1l-0.1,1.1h-3.8v-0.1h0.2c0.6,0,0.7-0.2,0.7-0.6v-3c0-0.4-0.1-0.6-0.6-0.6h-0.2v-0.1h3.4l0.1,1h-0.1c-0.1-0.6-0.3-0.7-0.5-0.7
			h-1.5v1.8h1.3c0.3,0,0.4-0.1,0.4-0.5h0.1L-250.7,350.1L-250.7,350.1z"/>
		<path fill="#231F20" d="M-241.8,351.8c-1.4,0-2.6-0.9-2.6-2.2c0-1.4,1.1-2.4,2.6-2.4c1.3,0,2.5,0.9,2.5,2.2
			C-239.3,350.8-240.4,351.8-241.8,351.8z M-242,347.3c-1.3,0-1.8,1.2-1.8,2c0,1.3,0.9,2.3,2.1,2.3c1.2,0,1.7-1,1.7-2
			C-239.9,348.3-240.8,347.3-242,347.3z"/>
		<path fill="#231F20" d="M-234,350h-0.1c0-0.4-0.2-0.5-0.5-0.5h-1.3v1.6c0,0.4,0.1,0.5,0.6,0.5v0.1h-1.7v-0.1
			c0.4,0,0.5-0.1,0.5-0.7v-2.8c0-0.5,0-0.7-0.5-0.7v-0.1h3.2v0.8h-0.1c0-0.4-0.2-0.6-0.6-0.6h-1.4v1.7h1.4c0.3,0,0.4-0.2,0.4-0.5
			h0.1V350z"/>
		<path fill="#231F20" d="M-283.9,357.7c-0.4-1.2-1.5-1.9-2.9-1.9c-2.1,0-3.4,1.5-3.4,3.6c0,2.3,1.6,4,3.5,4c1,0,2.2-0.3,3.1-1.9
			h0.2c-0.2,0.6-0.5,1.3-0.8,1.8c-0.8-0.1-1.4,0.3-2.8,0.3c-2.6,0-4.4-1.7-4.4-4c0-2.4,1.9-4.2,4.5-4.2c1.6,0,2.3,0.5,2.7,0.5
			c0.1,0,0.2,0,0.2-0.1h0.2l0.1,1.8H-283.9z"/>
		<path fill="#231F20" d="M-278.2,363.6c-2.5,0-4.5-1.6-4.5-3.9c0-2.5,1.9-4.3,4.6-4.3c2.4,0,4.4,1.6,4.4,3.9
			C-273.7,361.9-275.8,363.6-278.2,363.6z M-278.5,355.7c-2.2,0-3.1,2.1-3.1,3.6c0,2.4,1.6,4,3.6,4c2.1,0,3-1.8,3-3.6
			C-274.9,357.4-276.4,355.7-278.5,355.7z"/>
		<path fill="#231F20" d="M-268.1,363.4l-3.2-6.7h0l-0.3,5.7c0,0.6,0.4,0.8,1,0.8v0.2h-2.6v-0.2c0.9,0,1-0.2,1.1-1.3l0.3-4.9
			c0.1-0.8,0-1.1-0.8-1.1v-0.2h1.9l3,6.3l3-6.3h1.9v0.2c-0.6,0-0.9,0.1-0.8,0.5l0.4,5.7c0.1,1.2,0.2,1.2,1.1,1.2v0.2h-3.2v-0.2
			c0.6,0,1.2-0.2,1.1-0.8l-0.4-5.6h0l-3.1,6.7L-268.1,363.4L-268.1,363.4z"/>
		<path fill="#231F20" d="M-259.3,362.2c0,0.7,0.2,1,1,1h0.4v0.2h-3.5v-0.2h0.2c0.7,0,0.8-0.1,0.8-0.7v-6c0-0.5-0.1-0.7-0.6-0.7
			h-0.6v-0.2c0.4,0,1-0.1,1.6-0.1c0.6,0,1.2,0,1.6,0c2.6,0,3.2,1.3,3.2,2.2c0,1.5-1.2,2.4-3,2.4c-0.4,0-0.7,0-1.1-0.1L-259.3,362.2
			L-259.3,362.2z M-259.3,359.8c0.2,0,0.4,0.1,0.7,0.1c1.4,0,2.3-0.9,2.3-2.2c0-1-0.4-2-2.1-2c-0.3,0-0.6,0-0.9,0.1L-259.3,359.8
			L-259.3,359.8z"/>
		<path fill="#231F20" d="M-244.8,355.6v0.2c-0.8,0-1.1,0.4-1.1,1.2v3.4c0,1.6-1,3.2-3.7,3.2c-2.4,0-3.6-1.4-3.6-3.2v-3.7
			c0-0.8-0.2-0.9-1.1-0.9v-0.2h3.2v0.2h-0.1c-0.7,0-1,0.2-1,0.9v3.5c0,1.7,1,2.7,2.9,2.7c1.4,0,2.9-0.6,2.9-2.7v-2.9
			c0-1.2-0.2-1.4-1.2-1.5v-0.2L-244.8,355.6L-244.8,355.6z"/>
		<path fill="#231F20" d="M-239.6,362.3c0,0.7,0.2,0.9,1,0.9h0.5v0.2h-4v-0.2h0.5c0.8,0,1-0.2,1-0.9v-6.2h-2.2
			c-0.5,0-0.7,0.3-0.9,1.4h-0.2l0.2-2h0.2c0,0.1,0.1,0.1,0.1,0.2c0.1,0,0.2,0,0.3,0h6.1c0.2,0,0.4,0,0.4-0.2h0.2l0.2,2h-0.2
			c-0.2-1.1-0.4-1.4-0.9-1.4h-2.2V362.3z"/>
		<path fill="#231F20" d="M-229.9,360.6h-0.2c-0.1-0.9-0.3-1-0.9-1h-2.1v2.7c0,0.6,0.2,0.7,0.7,0.7h1.9c0.9,0,1.1-0.3,1.5-1.4h0.2
			l-0.2,1.9h-6.7v-0.2h0.4c1,0,1.2-0.3,1.2-1v-5.3c0-0.7-0.2-1-1-1h-0.3v-0.2h6l0.1,1.7h-0.2c-0.2-1.1-0.5-1.3-0.9-1.3h-2.7v3.1h2.3
			c0.5,0,0.7-0.2,0.7-0.9h0.2L-229.9,360.6L-229.9,360.6z"/>
		<path fill="#231F20" d="M-225.5,362.3c0,0.8,0.3,0.9,1,0.9h0.3v0.2h-3.6v-0.2h0.2c0.7,0,1-0.2,1-1v-5.3c0-0.8-0.2-1-0.9-1h-0.3
			v-0.2c0.3,0,1.1-0.1,1.6-0.1c0.5,0,0.8,0,1.6,0c2.3,0,3.4,1,3.4,2.2c0,0.9-0.6,1.7-1.7,2c0.5,0.4,0.8,0.7,1.4,1.3l1,1
			c0.7,0.7,1.5,1.2,2.5,1.3v0.2c-2.2,0.1-2.8-0.4-3.9-1.5l-0.8-0.8c-0.6-0.6-1-0.9-1.3-1.1c-0.3,0-0.5,0-0.9,0c-0.3,0-0.4,0-0.6,0
			L-225.5,362.3L-225.5,362.3z M-225.5,359.9c0.3,0,0.5,0,0.8,0c1.4,0,2.3-0.6,2.3-2.1c0-1.2-0.5-2.1-2.5-2.1c-0.2,0-0.4,0-0.6,0
			L-225.5,359.9L-225.5,359.9z"/>
		<path fill="#231F20" d="M-217.3,365.1c0.6-0.4,1-0.8,1-1.3c0-0.2-0.1-0.3-0.2-0.3c-0.1,0-0.2,0-0.3,0c-0.3,0-0.6-0.2-0.6-0.6
			c0-0.3,0.3-0.6,0.7-0.6c0.5,0,0.9,0.4,0.9,1c0,0.8-0.6,1.5-1.4,1.9L-217.3,365.1z"/>
		<path fill="#231F20" d="M-112.5,365.1c0.6-0.4,1-0.8,1-1.3c0-0.2-0.1-0.3-0.2-0.3c-0.1,0-0.2,0-0.3,0c-0.3,0-0.6-0.2-0.6-0.6
			c0-0.3,0.3-0.6,0.7-0.6c0.5,0,0.9,0.4,0.9,1c0,0.8-0.6,1.5-1.4,1.9L-112.5,365.1z"/>
		<path fill="#231F20" d="M-208.2,363.4l-3.2-6.7h0l-0.3,5.7c0,0.6,0.4,0.8,1,0.8v0.2h-2.6v-0.2c0.9,0,1-0.2,1.1-1.3l0.3-4.9
			c0.1-0.8,0-1.1-0.8-1.1v-0.2h1.9l3,6.3l3-6.3h1.9v0.2c-0.6,0-0.9,0.1-0.8,0.5l0.4,5.7c0.1,1.2,0.2,1.2,1.1,1.2v0.2h-3.2v-0.2
			c0.6,0,1.2-0.2,1.1-0.8l-0.4-5.6h0l-3.1,6.7L-208.2,363.4L-208.2,363.4z"/>
		<path fill="#231F20" d="M-199.6,360l-0.7,2c-0.1,0.2-0.3,0.6-0.3,0.8c0,0.3,0.3,0.5,1,0.5h0.2v0.2h-2.9v-0.2c0.8,0,1-0.2,1.4-1.3
			l2.3-6.3l-0.1-0.3h1.1l2.6,7c0.3,0.7,0.5,0.8,1.1,0.8v0.2h-3.5v-0.2h0.3c0.7,0,1-0.1,1-0.4c0-0.2-0.1-0.4-0.1-0.5l-0.8-2.3H-199.6
			z M-198.3,356.5l-1.1,2.9h2.2L-198.3,356.5z"/>
		<path fill="#231F20" d="M-190.1,362.3c0,0.7,0.2,0.9,1,0.9h0.5v0.2h-4v-0.2h0.5c0.8,0,1-0.2,1-0.9v-6.2h-2.2
			c-0.5,0-0.7,0.3-0.9,1.4h-0.2l0.2-2h0.2c0,0.1,0.1,0.1,0.1,0.2c0.1,0,0.2,0,0.3,0h6.1c0.2,0,0.4,0,0.4-0.2h0.2l0.2,2h-0.2
			c-0.2-1.1-0.4-1.4-0.9-1.4h-2.2L-190.1,362.3L-190.1,362.3z"/>
		<path fill="#231F20" d="M-183.6,359.7v2.4c0,0.8,0.2,1.1,1,1.1h0v0.2h-3.2v-0.2h0.1c0.7,0,1-0.2,1-0.9v-5.5c0-0.7-0.2-0.8-0.9-0.9
			v-0.2h3v0.2c-0.9,0-1,0.2-1,1.2v2.2h4.9v-2.5c0-0.7-0.2-0.9-1-0.9h-0.2v-0.2h3.2v0.2c-0.8,0-1,0.3-1,1v5.2c0,0.9,0.3,1.1,1,1.1
			h0.1v0.2h-3.6v-0.2h0.4c0.8,0,1-0.3,1-0.9v-2.6C-178.7,359.7-183.6,359.7-183.6,359.7z"/>
		<path fill="#231F20" d="M-169.9,360.6h-0.2c-0.1-0.9-0.3-1-0.9-1h-2.1v2.7c0,0.6,0.2,0.7,0.7,0.7h1.9c0.9,0,1.1-0.3,1.5-1.4h0.2
			l-0.2,1.9h-6.7v-0.2h0.4c1,0,1.2-0.3,1.2-1v-5.3c0-0.7-0.2-1-1-1h-0.3v-0.2h6l0.1,1.7h-0.2c-0.2-1.1-0.5-1.3-0.9-1.3h-2.7v3.1h2.3
			c0.5,0,0.7-0.2,0.7-0.9h0.2L-169.9,360.6L-169.9,360.6z"/>
		<path fill="#231F20" d="M-162.7,363.4l-3.2-6.7h0l-0.3,5.7c0,0.6,0.4,0.8,1,0.8v0.2h-2.6v-0.2c0.9,0,1-0.2,1.1-1.3l0.3-4.9
			c0-0.8,0-1.1-0.8-1.1v-0.2h1.9l3,6.3l3-6.3h1.9v0.2c-0.6,0-0.9,0.1-0.8,0.5l0.4,5.7c0.1,1.2,0.2,1.2,1.1,1.2v0.2h-3.2v-0.2
			c0.6,0,1.2-0.2,1.1-0.8l-0.4-5.6h0l-3.1,6.7L-162.7,363.4L-162.7,363.4z"/>
		<path fill="#231F20" d="M-154.1,360l-0.7,2c-0.1,0.2-0.3,0.6-0.3,0.8c0,0.3,0.3,0.5,1,0.5h0.2v0.2h-2.9v-0.2c0.8,0,1-0.2,1.4-1.3
			l2.3-6.3l-0.1-0.3h1.1l2.6,7c0.3,0.7,0.5,0.8,1.1,0.8v0.2h-3.5v-0.2h0.3c0.7,0,1-0.1,1-0.4c0-0.2-0.1-0.4-0.1-0.5l-0.8-2.3H-154.1
			z M-152.8,356.5l-1.1,2.9h2.2L-152.8,356.5z"/>
		<path fill="#231F20" d="M-144.8,362.3c0,0.7,0.2,0.9,1,0.9h0.5v0.2h-4v-0.2h0.5c0.8,0,1-0.2,1-0.9v-6.2h-2.2
			c-0.5,0-0.7,0.3-0.9,1.4h-0.2l0.2-2h0.2c0,0.1,0.1,0.1,0.1,0.2c0.1,0,0.2,0,0.3,0h6.1c0.2,0,0.4,0,0.4-0.2h0.2l0.2,2h-0.2
			c-0.2-1.1-0.4-1.4-0.9-1.4h-2.2L-144.8,362.3L-144.8,362.3z"/>
		<path fill="#231F20" d="M-137.6,363.4h-3.1v-0.2c0.8,0,0.9-0.2,0.9-1.1v-5.4c0-0.7-0.2-0.9-0.9-0.9v-0.2h3.1v0.2
			c-0.8,0-1.1,0.2-1.1,1v5.3c0,0.7,0.2,1,1.1,1V363.4z"/>
		<path fill="#231F20" d="M-129.1,357.7c-0.4-1.2-1.5-1.9-2.9-1.9c-2.1,0-3.4,1.5-3.4,3.6c0,2.3,1.6,4,3.5,4c1,0,2.2-0.3,3.1-1.9
			h0.2c-0.2,0.6-0.5,1.3-0.8,1.8c-0.8-0.1-1.4,0.3-2.8,0.3c-2.6,0-4.4-1.7-4.4-4c0-2.4,1.9-4.2,4.5-4.2c1.6,0,2.3,0.5,2.7,0.5
			c0.1,0,0.2,0,0.2-0.1h0.2l0.1,1.8H-129.1z"/>
		<path fill="#231F20" d="M-125.7,360l-0.7,2c-0.1,0.2-0.3,0.6-0.3,0.8c0,0.3,0.3,0.5,1,0.5h0.2v0.2h-2.9v-0.2c0.8,0,1-0.2,1.4-1.3
			l2.3-6.3l-0.1-0.3h1.1l2.6,7c0.3,0.7,0.5,0.8,1.1,0.8v0.2h-3.5v-0.2h0.3c0.7,0,1-0.1,1-0.4c0-0.2-0.1-0.4-0.1-0.5l-0.8-2.3H-125.7
			z M-124.4,356.5l-1.1,2.9h2.2L-124.4,356.5z"/>
		<path fill="#231F20" d="M-114.4,363.4h-5.6v-0.2h0.4c0.6,0,0.8-0.2,0.8-0.8v-5.6c0-0.7-0.2-0.9-1-0.9h-0.2v-0.2h3.7v0.2h-0.5
			c-0.8,0-1,0.1-1,0.9v5.8c0,0.3,0.1,0.5,0.5,0.5h1.9c0.7,0,1-0.3,1.8-1.4h0.2L-114.4,363.4z"/>
		<path fill="#231F20" d="M-282.1,369.9v0.2c-0.7,0-0.9,0.1-1.1,0.2c-0.3,0.3-0.9,1.6-1.9,2.7c0.7,1.1,0.9,1.8,1.5,1.8
			c0.3,0,0.6-0.1,1-0.4l0.1,0.2c-0.5,0.4-1.1,0.7-1.5,0.7c-0.8,0-1-0.3-1.7-1.6c-0.9,1-2,1.6-2.9,1.6c-1.1,0-2-0.9-2-2.1
			c0-1,0.6-1.7,2.2-2.3c-0.5-0.5-0.9-1.1-0.9-1.6c0-0.9,0.7-1.5,1.7-1.5c0.9,0,1.6,0.5,1.6,1.2c0,0.6-0.5,1.1-1.4,1.6
			c0.8,0.6,1.6,1.3,2.2,2.2c0.6-0.7,1.6-2.2,1.6-2.5c0-0.2-0.1-0.3-0.7-0.3v-0.2H-282.1z M-288,374.7c0.7,0,1.7-0.5,2.2-1.1
			c-0.6-0.9-1.3-1.8-2.4-2.5c-1,0.7-1.3,1.3-1.3,2C-289.5,374.1-288.9,374.7-288,374.7z M-287.6,368.1c-0.5,0-0.8,0.4-0.8,0.9
			c0,0.5,0.3,1,0.9,1.5c0.6-0.3,0.8-0.7,0.8-1.4C-286.7,368.5-287.1,368.1-287.6,368.1z"/>
		<path fill="#231F20" d="M-211.3,373.3c0.3,1.1,1.1,1.8,2.1,1.8c0.8,0,1.7-0.5,1.7-1.5c0-1.8-4-2.4-4-4.6c0-1,1-1.8,2.2-1.8
			c1.1,0,1.3,0.3,1.7,0.3c0.1,0,0.1,0,0.2-0.1h0.2l0.2,1.6h-0.2c-0.4-0.9-1.2-1.5-2-1.5c-0.8,0-1.4,0.5-1.4,1.2c0,1.8,4,2.3,4,4.6
			c0,1.2-1.1,2.2-2.6,2.2c-0.7,0-1.6-0.3-1.8-0.3c-0.1,0-0.2,0.1-0.3,0.1h-0.2l-0.3-1.9L-211.3,373.3L-211.3,373.3z"/>
		<path fill="#231F20" d="M-198,369.4c-0.4-1.2-1.5-1.9-2.9-1.9c-2.1,0-3.4,1.5-3.4,3.6c0,2.3,1.6,4,3.5,4c1,0,2.2-0.3,3.1-1.9h0.2
			c-0.2,0.6-0.5,1.3-0.8,1.8c-0.8-0.1-1.4,0.3-2.8,0.3c-2.6,0-4.4-1.7-4.4-4c0-2.4,1.9-4.2,4.5-4.2c1.6,0,2.3,0.5,2.7,0.5
			c0.1,0,0.2,0,0.2-0.1h0.2l0.1,1.8C-197.8,369.4-198,369.4-198,369.4z"/>
		<path fill="#231F20" d="M-193.4,375.2h-3.1v-0.2c0.8,0,0.9-0.2,0.9-1.1v-5.4c0-0.7-0.2-0.9-0.9-0.9v-0.2h3.1v0.2
			c-0.8,0-1.1,0.2-1.1,1v5.3c0,0.7,0.2,1,1.1,1V375.2z"/>
		<path fill="#231F20" d="M-186.6,372.4h-0.2c-0.1-0.9-0.3-1-0.9-1h-2.1v2.7c0,0.6,0.2,0.7,0.7,0.7h1.9c0.9,0,1.1-0.3,1.5-1.4h0.2
			l-0.2,1.9h-6.7v-0.2h0.4c1,0,1.2-0.3,1.2-1v-5.3c0-0.7-0.2-1-1-1h-0.3v-0.2h6l0.1,1.7h-0.2c-0.2-1.1-0.5-1.3-0.9-1.3h-2.7v3.1h2.3
			c0.5,0,0.7-0.2,0.7-0.9h0.2L-186.6,372.4L-186.6,372.4z"/>
		<path fill="#231F20" d="M-176.1,375.3l-6.5-6.8v5.4c0,0.9,0.2,1.1,1.3,1.1v0.2h-2.9v-0.2h0.1c0.8,0,1-0.3,1-0.8v-6.2
			c-0.3-0.2-0.6-0.3-1.1-0.3v-0.2h2l5.9,6.2v-5c0-0.8-0.2-0.9-1.2-0.9v-0.2h2.9v0.2c-0.9,0-1.1,0.2-1.1,0.7v7H-176.1z"/>
		<path fill="#231F20" d="M-166.7,369.4c-0.4-1.2-1.5-1.9-2.9-1.9c-2.1,0-3.4,1.5-3.4,3.6c0,2.3,1.6,4,3.6,4c1,0,2.2-0.3,3.1-1.9
			h0.2c-0.2,0.6-0.5,1.3-0.8,1.8c-0.8-0.1-1.4,0.3-2.8,0.3c-2.6,0-4.4-1.7-4.4-4c0-2.4,1.9-4.2,4.5-4.2c1.6,0,2.3,0.5,2.7,0.5
			c0.1,0,0.2,0,0.2-0.1h0.2l0.1,1.8C-166.5,369.4-166.7,369.4-166.7,369.4z"/>
		<path fill="#231F20" d="M-159.8,372.4h-0.2c-0.1-0.9-0.3-1-0.9-1h-2.1v2.7c0,0.6,0.2,0.7,0.7,0.7h1.9c0.9,0,1.1-0.3,1.5-1.4h0.2
			l-0.2,1.9h-6.7v-0.2h0.4c1,0,1.2-0.3,1.2-1v-5.3c0-0.7-0.2-1-1-1h-0.3v-0.2h6l0.1,1.7h-0.2c-0.2-1.1-0.5-1.3-0.9-1.3h-2.7v3.1h2.3
			c0.5,0,0.7-0.2,0.7-0.9h0.2L-159.8,372.4L-159.8,372.4z"/>
		<path fill="#231F20" d="M-157.5,373.3c0.3,1.1,1.1,1.8,2.1,1.8c0.8,0,1.7-0.5,1.7-1.5c0-1.8-4-2.4-4-4.6c0-1,1-1.8,2.2-1.8
			c1.1,0,1.3,0.3,1.7,0.3c0.1,0,0.1,0,0.2-0.1h0.2l0.2,1.6h-0.2c-0.4-0.9-1.2-1.5-2-1.5c-0.8,0-1.4,0.5-1.4,1.2c0,1.8,4,2.3,4,4.6
			c0,1.2-1.1,2.2-2.6,2.2c-0.7,0-1.6-0.3-1.7-0.3c-0.1,0-0.2,0.1-0.3,0.1h-0.2l-0.3-1.9L-157.5,373.3L-157.5,373.3z"/>
		<g>
			<g>
				<g>
					<path fill="#FFFFFF" d="M-324.3,360.9c0,5.8,4.7,10.5,10.5,10.5c5.8,0,10.5-4.7,10.5-10.5c0-5.8-4.7-10.5-10.5-10.5
						C-319.6,350.3-324.3,355-324.3,360.9z"/>
				</g>
				<path fill="#FFD420" d="M-303.3,360.6c0,0-0.2,0.2-0.4,0.3c0,0,0,0,0,0c-0.3,0.1-0.7,0.3-1.1,0.4c-0.5,0.1-1.1,0.2-1.8,0.4
					c-0.7,0.1-1.4,0.2-2.2,0.3l0,0c-1,0.1-1.7,0.1-2.5,0.2c-0.9,0-1.8,0.1-2.7,0.1c0,0.1,0,0.2,0,0.4c0,0.8,0,1.6,0,2.3
					c0,4,0,4,0.1,6.5c5.8,0,10.5-4.7,10.5-10.5C-303.3,360.9-303.3,360.7-303.3,360.6z"/>
				<path fill="#231F20" d="M-309.9,370.3L-309.9,370.3L-309.9,370.3z"/>
				<g>
					<path fill="#231F20" d="M-313.9,362.6c0,0.8,0,1.6,0,2.4c1.7,1.6,1.7,1.6,2.4,2.3c0.2-1.3,0.3-2.9,0.3-4.7c0-0.1,0-0.2,0-0.3
						c-1.1,0-1.8,0.1-2.7,0.1C-313.9,362.3-313.9,362.4-313.9,362.6z"/>
					<path fill="#231F20" d="M-310.1,369c-0.4-0.6-0.7-1-1.5-1.8c-0.4,2.6-1,4.1-1.8,4.2c0.1,0,0.2,0,0.2,0c0.1,0,0.2,0,0.3,0
						C-311.7,371.3-310.8,370.4-310.1,369z"/>
					<path fill="#231F20" d="M-308.9,364.7c0,0-0.6,3.2-1.2,4.3c0.3,0.6,0.3,0.9,0.2,1.3c1-0.8,1.9-1.9,2.4-3.4
						C-307.8,366.2-308,365.8-308.9,364.7z"/>
					<path fill="#231F20" d="M-311.9,371.2c0.2,0,0.2,0,0.6-0.1l0.3-0.1c0.8-0.2,0.9-0.4,1.2-0.7c-0.7,0.5-1.4,0.8-2.3,1
						L-311.9,371.2z"/>
					<path fill="#231F20" d="M-307.2,368.7c1.5-1.7,2.4-4.2,2.4-6.9c0-0.1,0-0.2,0-0.3c-0.5,0.1-1.1,0.2-1.8,0.3c0,0.1,0,0.2,0,0.4
						c0,1.8-0.3,3.4-0.9,4.8C-307.1,367.7-307.1,368.1-307.2,368.7z"/>
					<path fill="#231F20" d="M-308.8,362c-1,0.1-1.7,0.1-2.5,0.2c1.4,1.5,1.8,1.9,2.4,2.6c0.1-0.7,0.1-1.5,0.1-2.4
						C-308.8,362.2-308.8,362.1-308.8,362z"/>
				</g>
				<path fill="#231F20" d="M-316.1,350.9c0.6-0.2,1.1-0.5,2.3-0.5l0,0C-314.6,350.4-315.4,350.6-316.1,350.9"/>
				<g>
					<path fill="#E03A3E" d="M-306.7,361.7c-0.5-0.1-1-1-0.8-1.9c-0.8,0.5-1.6-0.6-1.5-1.6c0.1-0.5,0.4-1,1-0.8
						c-0.3-0.9-0.6-1.7-0.9-2.4c-0.5,0.1-1.1,0.1-1.8,0.2c0.6,0.9,0,1.6-0.8,1.5c-0.6-0.1-1.1-0.7-0.9-1.4c-0.5,0.3-1.4,0.2-1.5-0.8
						c0,2.1,0,4.9,0,7.7c2.8,0,6.1-0.3,7.4-0.5c0,0,0,0,0,0C-306.6,361.7-306.7,361.7-306.7,361.7z"/>
				</g>
				<g>
					<path fill="#E03A3E" d="M-320.6,363.8c0.8-0.3,1.8,1.1,1.4,2c-0.2,0.4-0.6,0.5-1,0.3c0.2,0.8,0.5,1.5,0.9,2.2
						c0.6,0.1,1.2,0.1,1.9,0.2c-0.5-0.7-0.1-1.2,0.6-1.2c0.6,0,1.5,0.6,1.3,1.3c0.6-0.3,1.5-0.1,1.6,0.7c0-1.6,0-3.9-0.1-6.6
						c0-0.1,0-0.2,0-0.3c-0.9,0-1.8,0-2.7-0.1c-1.9-0.1-3.2-0.2-4.8-0.5c0,0,0,0,0,0C-320.6,362-320.4,363.2-320.6,363.8z"/>
				</g>
				<path fill="#E03A3E" d="M-308.8,354.1L-308.8,354.1L-308.8,354.1C-308.8,354.1-308.8,354.1-308.8,354.1L-308.8,354.1
					C-308.8,354.1-308.8,354.1-308.8,354.1c0.1,0,0.2,0,0.3-0.1c0.6-0.1,2-0.4,2-0.8c0,0,0.5,0.5,0.9,1.3c0,0.1,0.1,0.2,0.1,0.3
					c0,0.1,0.1,0.3,0.1,0.4c0,0.2-0.2,0.2-0.3,0.2c0,0,0,0,0,0c-0.5-0.2-0.7-0.7-0.8-0.9c-0.3,0.1-0.7,0.3-1.1,0.4c0,0-0.1,0-0.2,0
					c0.4,0.7,0.9,1.6,1.2,2.5c0.5-0.5,1.4,0.5,1.4,1.4c0,0.6-0.2,1.1-0.8,0.9c0.4,0.8,0.3,1.9-0.5,2.2
					C-306.7,359.2-307.1,356.9-308.8,354.1L-308.8,354.1L-308.8,354.1"/>
				<path fill="#E03A3E" d="M-308.8,354.1L-308.8,354.1L-308.8,354.1L-308.8,354.1L-308.8,354.1c-1.3-2.1-2.4-2.8-3.8-3.3
					c-0.3-0.1-1.2-0.5-1.2-0.5l0,0l0,0c0.2,0.4,0.7,0.6,0.8,0.6c0,0.1,0,0.4,0.4,0.7c0.1,0,0.1,0.1,0.2,0.1c0.7,0.4,0.8,0.1,0.9,0
					c0,0,0,0,0,0c0.2,0.2,0.6,0.5,1.1,1c0.3,0.3,0.5,0.6,0.7,0.9c-0.4,0.1-1,0.1-1.5,0.1c0-0.7-0.5-1-0.8-1.1
					c-0.7-0.2-0.9,0.5-0.6,1.1c-0.5-0.3-1.2,0-1.2,0.8C-311.8,354.5-310.4,354.4-308.8,354.1L-308.8,354.1L-308.8,354.1"/>
				<path fill="#E03A3E" d="M-308.7,352.2C-308.7,352.2-308.7,352.2-308.7,352.2c0-0.1,0-0.1,0-0.1s0,0,0.1-0.1
					c0.1-0.1,0.4-0.1,1.3,0.5c-1.8-1.4-3.8-2-5.5-2.2c-0.2,0-0.7,0-0.7,0c0.5,0,0.9,0.2,1,0.2c0.1,0,0.1,0.1,0.2,0.1c0,0,0,0,0,0
					c0.1,0,0.2,0,0.4,0.1c0.2,0,0.4,0.1,0.7,0.3c0.2,0.1,0.6,0.4,0.6,0.5c-0.1,0-0.1,0-0.2,0c0.6,0.4,1.5,1.3,2,1.9
					c0.4-0.1,0.9-0.1,1.2-0.2C-307.7,353.2-308.5,352.6-308.7,352.2z"/>
				<path fill="#E03A3E" d="M-319.4,368.8c-0.9-0.2-1.4-0.3-1.8-0.5c-0.1,0-0.1,0-0.1,0c0,0-0.5-0.5-1-1.1c-0.3-0.4-0.6-0.9-0.6-0.9
					c0,0,0.1,0,0.1,0c0.5,0.2,1.2,1.4,1.2,1.5c0.3,0.1,0.7,0.2,1.1,0.3c-0.4-0.7-0.8-1.4-1.1-2.2c-0.7,0.3-1.5-1.4-1.2-2.1
					c0.1-0.2,0.2-0.5,0.7-0.1c-0.3-0.8-0.2-1.9,0.6-1.9C-321.4,364.2-321.1,366.4-319.4,368.8"/>
				<path fill="#E03A3E" d="M-313.9,369.3c-0.1,0.4-0.6,0.7-1.3,0.4c0.3,0.4,0,0.8-0.5,0.7c-0.5-0.1-1-0.5-1.1-0.8
					c-0.6,0-1.1-0.1-1.6-0.2c0.4,0.5,0.9,0.9,1.5,1.2c0.1,0,0.2,0,0.5,0.1c0.4,0.1,0.8,0.3,1.2,0.5c0,0-0.1,0-0.1,0
					c-0.3-0.1-0.4-0.1-0.6-0.1c-0.8-0.2-2.1-0.6-3.5-2.4l0,0l0,0l0,0c1.6,0.3,3.2,0.4,5.5,0.4C-313.9,369.2-313.9,369.3-313.9,369.3
					"/>
				<path fill="#FFD420" d="M-313.8,350.3c-5.7,0-10.4,4.6-10.5,10.3l0,0c0,0,0.1,0.1,0.3,0.3l0,0l0,0c0.2,0.1,0.6,0.3,1,0.4
					c0.5,0.1,1.1,0.3,1.6,0.3l0,0c1.6,0.3,2.9,0.4,4.8,0.5c0.9,0,1.8,0.1,2.7,0.1c0-0.5,0-3.6,0-6.6c0-0.4,0-0.8,0-1.2
					C-313.9,352.5-313.8,350.6-313.8,350.3L-313.8,350.3z"/>
				<path fill="#231F20" d="M-308.8,370.1c-0.6,0.3-0.7,0.3-1.5,0.7c-0.2,0.1-0.4,0.1-0.7,0.2c1.4-0.4,3.4-2,3.7-2.4
					c-0.2,0.4-0.3,0.6-0.7,1C-308.1,369.7-308.6,370-308.8,370.1z"/>
				<path fill="#231F20" d="M-323.1,361.3c-0.4-0.1-0.8-0.3-1-0.4c0.1-3.8,2.2-7.2,5.3-9c-0.7,0.6-1.1,1-1.4,1.9
					C-321.9,355.8-323,358.5-323.1,361.3"/>
				<path fill="#231F20" d="M-318.7,351.9c0.8-0.6,1.2-1,2.4-1.3c0.9-0.2,1.6-0.3,2.5-0.3l0,0C-315.6,350.4-317.3,351-318.7,351.9"
					/>
				<path fill="#231F20" d="M-319.3,362c-0.8-0.1-1.5-0.2-2.1-0.3c0-1.9,0.4-3.7,1.1-5.4c0.3,1.1,0.5,1.6,1.2,2.9
					C-319.2,360.1-319.3,361-319.3,362"/>
				<path fill="#231F20" d="M-313.9,354.5c0,1.2,0,2.4,0,3.3c0,0.9,0,1.6,0,1.7c-1-1.1-1.6-1.7-2.4-2.7c0.5-3.3,1.4-5.9,2.5-6.5l0,0
					l0,0C-313.8,350.6-313.9,352.5-313.9,354.5z"/>
				<g>
					<path fill="#231F20" d="M-317.6,354.3c-0.7,1.4-1.2,3.1-1.4,4.9c0.6,1,1,1.5,2.3,2.9c0-1.9,0.2-3.7,0.4-5.4
						C-317.1,355.7-317.3,355.2-317.6,354.3z"/>
				</g>
				<path fill="#231F20" d="M-303.6,361c0,0.1,0,0.2,0,0.3c0,3.7-1.8,6.8-4.7,8.5l-0.1,0.1c1.3-0.8,3-2.2,4.1-4.5
					c1.2-2.3,1-4.8,1-4.8C-303.3,360.7-303.5,360.9-303.6,361z"/>
				<g>
					<path fill="#231F20" d="M-316.1,350.9c-1.5,0.6-2.9,1.6-4,2.9c-0.3,1-0.3,1.5-0.2,2.5c0.7-1.6,1.6-3,2.8-4
						C-317.2,351.7-317,351.3-316.1,350.9z"/>
				</g>
				<path fill="#231F20" d="M-317.6,354.4c-0.2-0.9-0.2-1.3,0.1-2c1.1-1,2.4-1.8,3.7-2C-315.3,350.7-316.6,352.3-317.6,354.4"/>
				<path fill="#231F20" d="M-326.5,353.1L-326.5,353.1c0,0.2,0,0.4,0.2,0.5l0.9,0.4c0.4,0.2,0.7,0.7,0.4,1.3
					c-0.3,0.6-0.8,0.7-1.3,0.5l-0.9-0.5c-0.2-0.1-0.3-0.1-0.4,0.2l-0.1,0l0.4-0.8l0.1,0l0,0c-0.1,0.2-0.1,0.3,0.1,0.4l0.9,0.4
					c0.4,0.2,0.8,0.1,1-0.4c0.2-0.4,0.2-0.8-0.3-1.1l-0.7-0.4c-0.3-0.2-0.4-0.1-0.5,0.1l-0.1,0L-326.5,353.1z"/>
				<path fill="#231F20" d="M-322.8,352l-2.7,0.2l1.2,1c0.2,0.2,0.3,0.2,0.5-0.1l0.1,0l-0.5,0.6l0,0l0,0c0.1-0.2,0.1-0.3,0-0.4
					l-1.3-1.1c-0.1,0-0.2,0.1-0.3,0.2l0,0l0.4-0.4l2.4-0.2l-1.1-0.9c-0.2-0.1-0.2-0.1-0.4,0.1l-0.1,0l0.5-0.6l0,0
					c-0.2,0.2-0.2,0.3-0.1,0.4L-322.8,352L-322.8,352z"/>
				<path fill="#231F20" d="M-321.5,350.9l-0.7,0.5l0-0.1c0.2-0.1,0.2-0.2,0-0.4l-1-1.2c-0.1-0.1-0.2-0.1-0.4,0l0-0.1l0.7-0.6l0,0.1
					c-0.2,0.1-0.2,0.2-0.1,0.4l1,1.2C-321.8,350.9-321.8,351-321.5,350.9L-321.5,350.9z"/>
				<path fill="#231F20" d="M-320.2,350l-1.6-1.3c-0.2-0.1-0.3-0.2-0.4-0.1l0-0.1l0.8-0.5l0,0.1c-0.3,0.2-0.3,0.3-0.2,0.4l1.4,1
					l-0.3-1.5c0-0.1,0-0.2-0.1-0.2c-0.1-0.1-0.2-0.1-0.4,0l0-0.1l0.7-0.4l0,0.1c-0.2,0.1-0.2,0.2-0.2,0.4l0.3,2L-320.2,350z"/>
				<path fill="#231F20" d="M-317.6,348L-317.6,348c-0.2-0.2-0.2-0.2-0.4-0.2l-0.6,0.2l0.2,0.7c0.1,0.2,0.1,0.2,0.2,0.1l0.5-0.2
					c0.2-0.1,0.3-0.2,0.3-0.5l0.1,0l0.1,0.5l-1.8,0.6l0-0.1l0.1,0c0.3-0.1,0.3-0.2,0.2-0.4l-0.5-1.4c-0.1-0.2-0.1-0.3-0.4-0.2
					l-0.1,0l0-0.1l1.6-0.6l0.2,0.5l-0.1,0c-0.1-0.3-0.2-0.3-0.4-0.3l-0.7,0.2l0.3,0.8l0.6-0.2c0.1,0,0.2-0.1,0.1-0.3l0.1,0
					L-317.6,348z"/>
				<path fill="#231F20" d="M-316.3,346.2c0.1,0,0.1,0,0.2,0c0.5-0.1,0.7,0.2,0.8,0.5c0.1,0.4-0.2,0.6-0.6,0.7c-0.1,0-0.1,0-0.2,0
					L-316.3,346.2z M-316.1,347.5c0.1,0,0.1,0,0.2,0c0.1,0,0.2,0,0.2,0c0.1,0,0.2,0.1,0.4,0.3l0.3,0.2c0.4,0.3,0.5,0.4,1.1,0.3
					l0-0.1c-0.3,0-0.5-0.1-0.7-0.3l-0.3-0.2c-0.2-0.1-0.3-0.2-0.4-0.3c0.3-0.1,0.4-0.4,0.4-0.6c0-0.4-0.4-0.6-1-0.5
					c-0.2,0-0.3,0-0.4,0.1c-0.1,0-0.4,0.1-0.4,0.1l0,0.1l0.1,0c0.2,0,0.3,0,0.3,0.3l0.2,1.5c0,0.2,0,0.3-0.2,0.3l-0.1,0l0,0.1l1-0.1
					l0-0.1l-0.1,0c-0.2,0-0.3,0-0.3-0.2L-316.1,347.5z"/>
				<path fill="#231F20" d="M-313.4,347.7c0.1,0.3,0.3,0.5,0.6,0.5c0.2,0,0.5-0.1,0.5-0.4c0-0.5-1.1-0.8-1-1.4
					c0-0.3,0.3-0.5,0.7-0.5c0.3,0,0.4,0.1,0.5,0.1c0,0,0,0,0.1,0l0.1,0l0,0.5l-0.1,0c-0.1-0.3-0.3-0.4-0.5-0.5
					c-0.2,0-0.4,0.1-0.4,0.3c0,0.5,1.1,0.7,1,1.4c0,0.3-0.4,0.6-0.8,0.5c-0.2,0-0.4-0.1-0.5-0.1c0,0-0.1,0-0.1,0l-0.1,0
					L-313.4,347.7L-313.4,347.7z"/>
				<path fill="#231F20" d="M-310.7,348.6l-0.8-0.2l0-0.1c0.2,0,0.3,0,0.3-0.2l0.3-1.5c0-0.2,0-0.3-0.2-0.3l0-0.1l0.8,0.2l0,0.1
					c-0.2,0-0.3,0-0.4,0.2l-0.3,1.5C-310.9,348.4-310.9,348.5-310.7,348.6L-310.7,348.6z"/>
				<path fill="#231F20" d="M-308.9,348.9c-0.1,0.2,0,0.3,0.2,0.3l0.1,0l0,0.1l-1-0.4l0-0.1l0.1,0c0.2,0.1,0.3,0,0.4-0.1l0.6-1.6
					l-0.6-0.2c-0.1-0.1-0.2,0-0.4,0.3l-0.1,0l0.3-0.5l0.1,0c0,0,0,0,0,0.1c0,0,0,0,0.1,0l1.6,0.6c0,0,0.1,0,0.1,0l0.1,0l-0.2,0.6
					l-0.1,0c0.1-0.3,0-0.4-0.1-0.5l-0.6-0.2L-308.9,348.9z"/>
				<path fill="#231F20" d="M-305.3,349.1c0.2-0.1,0.2-0.2,0-0.3l0-0.1l0.7,0.4l0,0.1c-0.2-0.1-0.3-0.1-0.5,0l-1,0.5l-0.3,0.4
					c-0.1,0.2-0.1,0.3,0.1,0.4l0,0l0,0.1l-0.8-0.5l0-0.1l0.1,0c0.2,0.1,0.3,0.1,0.4-0.1l0.3-0.4l0-1.2c0-0.3,0-0.4-0.2-0.5l0-0.1
					l0.8,0.5l0,0.1c-0.2-0.1-0.3-0.1-0.3,0.1l0,1L-305.3,349.1z"/>
				<path fill="#231F20" d="M-302.3,353.3c-0.4,0.3-1,0.4-1.3-0.1c-0.3-0.5-0.3-1.1,0.3-1.5c0.3-0.3,1-0.4,1.3,0.1
					C-301.7,352.3-301.8,352.9-302.3,353.3z M-302,353.5c0.5-0.4,0.5-1.1,0.1-1.7c-0.5-0.6-1.2-0.7-1.7-0.3
					c-0.5,0.4-0.5,1.1-0.1,1.7C-303.4,353.8-302.6,353.9-302,353.5z"/>
				<path fill="#231F20" d="M-301.3,355.7L-301.3,355.7c0.2-0.2,0.2-0.2,0.1-0.4l-0.3-0.6l-0.7,0.3c-0.2,0.1-0.2,0.2-0.1,0.4l-0.1,0
					l-0.4-0.8l0.1,0c0.1,0.2,0.2,0.2,0.4,0.1l1.3-0.6c0.2-0.1,0.3-0.2,0.2-0.4l0.1,0l0.7,1.4l-0.4,0.2l0-0.1
					c0.2-0.1,0.2-0.2,0.1-0.4l-0.3-0.6l-0.8,0.4l0.3,0.6c0.1,0.1,0.2,0.1,0.3,0.1l0,0.1L-301.3,355.7z"/>
				<path fill="#231F20" d="M-326.1,369.6l1.3-2.4l0,0l-1.7,1.1c-0.2,0.1-0.1,0.3,0,0.5l-0.1,0l-0.6-0.8l0.1,0
					c0.2,0.3,0.3,0.3,0.6,0l1.5-0.9c0.3-0.2,0.3-0.2,0.2-0.5l0.1-0.1l0.4,0.6l-1.2,2.2l2.5-0.5l0.4,0.5l-0.1,0
					c-0.1-0.2-0.2-0.2-0.3-0.1l-1.6,1.3c-0.3,0.3-0.3,0.3-0.1,0.6l-0.1,0.1l-0.7-0.9l0.1,0c0.1,0.2,0.3,0.3,0.5,0.1l1.6-1.3l0,0
					L-326.1,369.6L-326.1,369.6z"/>
				<path fill="#231F20" d="M-321.6,372.1l-0.6-0.5l0.9-0.6L-321.6,372.1z M-321.7,372.3l-0.2,0.8c0,0,0,0.1-0.1,0.2
					c-0.1,0.1-0.2,0.1-0.4-0.1l-0.1-0.1l-0.1,0.1l1,0.7l0-0.1c-0.2-0.1-0.2-0.2-0.2-0.5l0.7-2.6l-0.3-0.2l0,0.1l-2,1.3
					c-0.3,0.2-0.4,0.2-0.7,0.1l-0.1,0.1l0.8,0.6l0.1-0.1l-0.1,0c-0.2-0.1-0.3-0.3-0.2-0.4c0-0.1,0.2-0.1,0.2-0.2l0.6-0.4
					L-321.7,372.3z"/>
				<path fill="#231F20" d="M-318.8,372.2c0.1,0,0.1,0,0.2,0.1c0.7,0.2,0.7,0.6,0.6,1c-0.2,0.5-0.6,0.6-1,0.4
					c-0.1,0-0.2-0.1-0.3-0.1L-318.8,372.2z M-319.3,373.7c0.1,0,0.1,0.1,0.2,0.1c0.1,0,0.2,0.1,0.3,0.1c0.1,0.1,0.2,0.3,0.3,0.5
					l0.2,0.4c0.2,0.5,0.4,0.7,1.1,1l0-0.1c-0.3-0.1-0.5-0.4-0.7-0.7l-0.2-0.5c-0.1-0.3-0.2-0.4-0.3-0.6c0.4,0,0.7-0.2,0.8-0.5
					c0.2-0.4-0.1-0.9-0.9-1.2c-0.3-0.1-0.4-0.1-0.5-0.2c-0.2-0.1-0.4-0.1-0.5-0.2l0,0.1l0.1,0c0.2,0.1,0.3,0.2,0.2,0.5l-0.6,1.8
					c-0.1,0.3-0.2,0.3-0.5,0.2l-0.1,0l0,0.1l1.2,0.4l0-0.1l-0.1,0c-0.2-0.1-0.3-0.2-0.2-0.4L-319.3,373.7z"/>
				<path fill="#231F20" d="M-314.2,373.6c0.2-0.2,0.1-0.3-0.2-0.3l0-0.1l1,0.1l0,0.1c-0.3,0-0.5,0.1-0.6,0.3l-0.9,1.2l-0.1,0.7
					c0,0.2,0.1,0.3,0.3,0.4l0.1,0l0,0.1l-1.2-0.1l0-0.1l0.1,0c0.3,0,0.4-0.1,0.4-0.3l0.1-0.6l-0.7-1.3c-0.2-0.4-0.3-0.4-0.6-0.5
					l0-0.1l1.2,0.1l0,0.1c-0.4,0-0.4,0.1-0.3,0.3l0.6,1.2L-314.2,373.6z"/>
				<path fill="#231F20" d="M-310.4,375.6l-2,0.3l0-0.1l0.1,0c0.2,0,0.3-0.1,0.2-0.3l-0.3-2c0-0.2-0.1-0.3-0.4-0.3l-0.1,0l0-0.1
					l1.3-0.2l0,0.1l-0.2,0c-0.3,0.1-0.4,0.1-0.3,0.4l0.3,2.1c0,0.1,0.1,0.2,0.2,0.1l0.7-0.1c0.3,0,0.3-0.2,0.5-0.6l0.1,0
					L-310.4,375.6z"/>
				<path fill="#231F20" d="M-308.2,373.4l-0.7,0.3l-0.1-1.1L-308.2,373.4z M-308.1,373.5l0.6,0.6c0,0,0.1,0.1,0.1,0.2
					c0,0.1,0,0.2-0.3,0.3l-0.1,0l0,0.1l1.1-0.5l0-0.1c-0.2,0.1-0.3,0.1-0.5-0.1l-1.8-2l-0.4,0.1l0.1,0.1l0.1,2.4
					c0,0.4,0,0.5-0.3,0.6l0,0.1l1-0.4l0-0.1l-0.1,0c-0.2,0.1-0.4,0.1-0.4,0c0-0.1,0-0.2,0-0.3l0-0.8L-308.1,373.5z"/>
				<path fill="#231F20" d="M-303.2,371.8l-3.4-0.4l1.2,1.5c0.2,0.3,0.3,0.3,0.6,0l0.1,0.1l-0.8,0.7l-0.1-0.1l0,0
					c0.2-0.2,0.2-0.3,0.1-0.5l-1.4-1.7c-0.1,0-0.2,0.1-0.4,0.2l-0.1-0.1l0.5-0.5l3.1,0.4l-1.1-1.4c-0.2-0.2-0.3-0.2-0.6,0l-0.1-0.1
					l0.8-0.7l0.1,0.1c-0.3,0.2-0.3,0.3-0.2,0.4L-303.2,371.8L-303.2,371.8z"/>
				<path fill="#231F20" d="M-303.8,368.3c0,0,0.1-0.2,0.2-0.3c0.3-0.5,0.7-0.7,0.9-0.8c0.4-0.1,0.7,0,1,0.2
					c0.4,0.3,0.6,0.6,0.6,0.8c0.1,0.4,0,0.7-0.3,1.2c-0.2,0.3-0.3,0.3-0.4,0.2L-303.8,368.3z M-302.1,369.9c0.2,0.1,0.2,0.3,0.1,0.5
					l0,0.1l0.1,0l0.8-1.2c0.6-1,0.2-1.9-0.4-2.2c-0.6-0.4-1.4-0.3-2.1,0.7c-0.1,0.2-0.3,0.4-0.4,0.7c-0.1,0.2-0.2,0.4-0.3,0.6
					l0.1,0.1l0-0.1c0.1-0.2,0.2-0.2,0.5-0.1L-302.1,369.9z"/>
				<path fill="#231F20" d="M-328.3,360v1.9c0,0.1,0,0.1,0.1,0.1h0.2v0.1h-0.8v-0.1h0.2c0.1,0,0.1,0,0.1-0.1v-1.7
					c-0.1,0.1-0.3,0.2-0.4,0.3l0,0c0.2-0.1,0.5-0.4,0.6-0.5H-328.3z"/>
				<path fill="#231F20" d="M-326.4,361.6c0,0.3-0.2,0.5-0.4,0.5c-0.3,0-0.4-0.2-0.4-0.5c0-0.2,0.1-0.4,0.3-0.5
					C-326.6,361.3-326.4,361.4-326.4,361.6z M-326.2,360.5c0-0.3-0.3-0.5-0.6-0.5c-0.3,0-0.6,0.2-0.6,0.5c0,0.2,0.1,0.4,0.5,0.5
					c-0.3,0.1-0.5,0.3-0.5,0.5c0,0.3,0.3,0.5,0.6,0.5c0.4,0,0.7-0.3,0.7-0.6c0-0.3-0.2-0.4-0.5-0.6
					C-326.4,360.8-326.2,360.7-326.2,360.5z M-326.4,360.5c0,0.2-0.1,0.3-0.3,0.5c-0.4-0.2-0.5-0.3-0.5-0.5c0-0.2,0.2-0.4,0.4-0.4
					C-326.6,360-326.4,360.2-326.4,360.5z"/>
				<path fill="#231F20" d="M-301.3,360.2h0.8c0.1,0,0.1,0,0.1,0h0.1l0,0.3h-0.8l0,0.6c0.1-0.1,0.2-0.1,0.4-0.1
					c0.4,0,0.7,0.3,0.7,0.7c0,0.4-0.3,0.7-0.8,0.7c-0.3,0-0.5-0.1-0.5-0.2c0-0.1,0.1-0.1,0.1-0.1c0.2,0,0.2,0.2,0.5,0.2
					c0.3,0,0.5-0.3,0.5-0.6c0-0.3-0.2-0.5-0.5-0.5c-0.1,0-0.3,0-0.4,0.1l0,0L-301.3,360.2z"/>
				<path fill="#231F20" d="M-298.8,361.7c0,0.4-0.2,0.6-0.4,0.6c-0.2,0-0.5-0.2-0.5-0.7c0-0.1,0-0.2,0-0.2c0.2-0.2,0.4-0.2,0.4-0.2
					C-299,361.1-298.8,361.4-298.8,361.7z M-298.8,360.2c-0.7,0.2-1.1,0.7-1.1,1.3c0,0.5,0.3,0.9,0.7,0.9c0.4,0,0.7-0.3,0.7-0.7
					c0-0.3-0.3-0.6-0.6-0.6c-0.2,0-0.3,0.1-0.5,0.2C-299.5,360.8-299.3,360.4-298.8,360.2L-298.8,360.2z"/>
			</g>
		</g>
		<g>
			<path fill="#231F20" d="M-271.3,375.3l-6.5-6.8v5.4c0,0.9,0.2,1.1,1.3,1.1v0.2h-2.9v-0.2h0.1c0.8,0,1-0.3,1-0.8v-6.2
				c-0.3-0.2-0.6-0.3-1.1-0.3v-0.2h2l5.9,6.2v-5c0-0.8-0.2-0.9-1.2-0.9v-0.2h2.9v0.2c-0.9,0-1.1,0.2-1.1,0.7v7H-271.3z"/>
			<path fill="#231F20" d="M-267.1,371.7l-0.7,2c-0.1,0.2-0.3,0.6-0.3,0.8c0,0.3,0.3,0.5,1,0.5h0.2v0.2h-2.9v-0.2
				c0.8,0,1-0.2,1.4-1.2l2.3-6.3l-0.1-0.3h1.1l2.6,7c0.3,0.7,0.5,0.8,1.1,0.8v0.2h-3.5v-0.2h0.3c0.7,0,1-0.1,1-0.4
				c0-0.2-0.1-0.4-0.1-0.5l-0.8-2.3C-264.5,371.7-267.1,371.7-267.1,371.7z M-265.9,368.2l-1.1,2.9h2.2L-265.9,368.2z"/>
			<path fill="#231F20" d="M-257.3,374c0,0.7,0.2,0.9,1,0.9h0.5v0.2h-4v-0.2h0.5c0.8,0,1-0.2,1-0.9v-6.2h-2.2
				c-0.5,0-0.7,0.3-0.9,1.4h-0.2l0.2-2h0.2c0,0.1,0.1,0.1,0.1,0.2c0.1,0,0.2,0,0.3,0h6.1c0.2,0,0.4,0,0.4-0.2h0.2l0.2,2h-0.2
				c-0.2-1.1-0.4-1.4-0.9-1.4h-2.2C-257.3,367.8-257.3,374-257.3,374z"/>
			<path fill="#231F20" d="M-243.7,367.4v0.2c-0.8,0-1.1,0.4-1.1,1.2v3.4c0,1.6-1,3.2-3.7,3.2c-2.4,0-3.6-1.4-3.6-3.2v-3.7
				c0-0.8-0.2-0.9-1.1-0.9v-0.2h3.2v0.2h-0.1c-0.7,0-1,0.2-1,0.9v3.5c0,1.7,1,2.7,2.9,2.7c1.4,0,2.9-0.6,2.9-2.7v-2.9
				c0-1.2-0.2-1.4-1.2-1.5v-0.2L-243.7,367.4L-243.7,367.4z"/>
			<path fill="#231F20" d="M-240.7,374c0,0.8,0.3,0.9,1,0.9h0.3v0.2h-3.6v-0.2h0.2c0.7,0,1-0.2,1-1v-5.3c0-0.8-0.2-1-0.9-1h-0.3
				v-0.2c0.3,0,1.1,0,1.6-0.1c0.5,0,0.8,0,1.6,0c2.3,0,3.4,1,3.4,2.2c0,0.9-0.6,1.7-1.7,2c0.5,0.4,0.8,0.7,1.4,1.3l1,1
				c0.7,0.7,1.5,1.2,2.5,1.3v0.2c-2.2,0.1-2.8-0.4-3.9-1.5l-0.8-0.8c-0.6-0.6-1-0.9-1.3-1.1c-0.3,0-0.5,0-0.9,0c-0.3,0-0.4,0-0.6,0
				V374z M-240.7,371.6c0.3,0,0.5,0,0.8,0c1.4,0,2.3-0.6,2.3-2.1c0-1.2-0.5-2.1-2.5-2.1c-0.2,0-0.4,0-0.6,0L-240.7,371.6
				L-240.7,371.6z"/>
			<path fill="#231F20" d="M-230,371.7l-0.7,2c-0.1,0.2-0.3,0.6-0.3,0.8c0,0.3,0.3,0.5,1,0.5h0.2v0.2h-2.9v-0.2c0.8,0,1-0.2,1.4-1.2
				l2.3-6.3l-0.1-0.3h1.1l2.6,7c0.3,0.7,0.5,0.8,1.1,0.8v0.2h-3.5v-0.2h0.3c0.7,0,1-0.1,1-0.4c0-0.2-0.1-0.4-0.1-0.5l-0.8-2.3
				C-227.4,371.7-230,371.7-230,371.7z M-228.7,368.2l-1.1,2.9h2.2L-228.7,368.2z"/>
			<path fill="#231F20" d="M-218,375.2h-5.6v-0.2h0.4c0.6,0,0.8-0.2,0.8-0.8v-5.6c0-0.7-0.2-0.9-1-0.9h-0.2v-0.2h3.7v0.2h-0.5
				c-0.8,0-1,0.1-1,0.9v5.8c0,0.3,0.1,0.5,0.5,0.5h1.9c0.7,0,1-0.3,1.8-1.4h0.2L-218,375.2z"/>
		</g>
	</g>
</g>
</svg>
