<?xml version="1.0" encoding="utf-8"?>
<!-- Generator: Adobe Illustrator 18.1.1, SVG Export Plug-In . SVG Version: 6.00 Build 0)  -->
<svg version="1.1" id="Layer_1" xmlns="http://www.w3.org/2000/svg" xmlns:xlink="http://www.w3.org/1999/xlink" x="0px" y="0px"
	 width="575.8px" height="116.8px" viewBox="-46.7 291.1 575.8 116.8" enable-background="new -46.7 291.1 575.8 116.8"
	 xml:space="preserve">
<g>
	<g>
		<path fill="#ED1C24" d="M19.7,334.7L19.7,334.7c-5.8-4.4-12.5-6.7-20.1-6.7c-9.2,0-17,3.2-23.5,9.7s-9.7,14.3-9.7,23.5
			c0,9.2,3.2,17,9.7,23.5s14.3,9.7,23.5,9.7c7.6,0,14.3-2.2,20-6.7l0.1,0.1l0.1-0.1c1.3-1.3,2.8-1.9,4.7-1.9c1.8,0,3.4,0.6,4.7,1.9
			s1.9,2.8,1.9,4.7c0,1.8-0.6,3.4-1.9,4.7l-0.1,0.1l0.1,0.1c-8.4,7-18.2,10.5-29.5,10.5c-12.8,0-23.8-4.5-32.8-13.6
			c-9.1-9.1-13.6-20-13.6-32.8c0-12.8,4.5-23.8,13.6-32.8s20-13.6,32.8-13.6c11.3,0,21.1,3.5,29.5,10.5l-0.1,0.1l0.1,0.1
			c1.3,1.3,1.9,2.8,1.9,4.7c0,1.8-0.6,3.4-1.9,4.7c-1.3,1.3-2.8,1.9-4.7,1.9c-1.8,0-3.4-0.6-4.7-1.9
			C19.8,334.8,19.8,334.8,19.7,334.7z"/>
		<path fill="#ED1C24" d="M76.2,342.9c1.8,0,3.4,0.6,4.7,1.9c1.3,1.3,1.9,2.8,1.9,4.7c0,1.8-0.6,3.4-1.9,4.7
			c-1.3,1.3-2.8,1.9-4.7,1.9h-0.1c-5.3,0-9.8,1.9-13.6,5.6c-3.5,3.4-5.3,7.5-5.6,12.2c0,0.4,0.1,0.8,0.1,1.2v25
			c0,2.4-0.6,4.3-1.9,5.6c-1.3,1.3-2.8,1.9-4.7,1.9s-3.4-0.6-4.7-1.9c-1.3-1.3-1.9-3.2-1.9-5.7v-25c0.1-8.8,3.2-16.3,9.5-22.5
			C59.2,346.6,66.9,343.4,76.2,342.9z"/>
		<path fill="#ED1C24" d="M149.9,401.3c0,2.5-0.6,4.2-1.9,5c-1.3,0.9-2.8,1.3-4.7,1.3c-1.8,0-3.4-0.4-4.7-1.3
			c-1.3-0.9-1.9-2.5-1.9-4.9c-5.5,4.1-11.9,6.2-19.1,6.2c-8.9,0-16.6-3.2-22.9-9.5c-6.3-6.3-9.5-13.9-9.5-22.9
			c0-8.9,3.2-16.6,9.5-22.9s13.9-9.5,22.9-9.5c8.9,0,16.6,3.2,22.9,9.5c6.2,6.2,9.4,13.7,9.5,22.5L149.9,401.3L149.9,401.3z
			 M131.2,361.8c-3.8-3.8-8.3-5.6-13.6-5.6s-9.8,1.9-13.6,5.6c-3.7,3.7-5.6,8.3-5.6,13.6c0,5.3,1.9,9.8,5.6,13.6
			c3.7,3.8,8.3,5.6,13.6,5.6s9.8-1.9,13.6-5.6c3.2-3.2,5-6.9,5.5-11.3v-2.5c0-0.4,0-0.8,0.1-1.2
			C136.5,369.3,134.7,365.2,131.2,361.8z"/>
		<path fill="#ED1C24" d="M263.3,375.3c0-1.8,0.6-3.3,1.9-4.6c1.3-1.3,2.8-1.9,4.6-1.9c1.8,0,3.3,0.6,4.6,1.9
			c1.3,1.3,1.9,2.8,1.9,4.6c0,5.4,1.9,9.9,5.7,13.7c3.8,3.8,8.4,5.7,13.8,5.7s9.9-1.9,13.7-5.7c3.8-3.8,5.7-8.4,5.7-13.7
			c0-5.4-1.9-9.9-5.7-13.7c-3.8-3.8-8.4-5.7-13.7-5.7c-5.7,0-10.5-2-14.4-6c-4-4-6-8.8-6-14.4c0-5.7,2-10.5,6-14.4c4-4,8.8-6,14.4-6
			c5.2,0,9.8,1.7,13.6,5.2c0.2,0.2,0.5,0.4,0.7,0.6c1.3,1.3,1.9,2.8,1.9,4.6c0,1.8-0.6,3.3-1.9,4.6s-2.8,1.9-4.6,1.9
			c-1.8,0-3.3-0.6-4.6-1.9c-0.2-0.2-0.3-0.3-0.5-0.5l-0.1,0.1c-1.3-1.1-2.9-1.6-4.6-1.6c-2.1,0-3.8,0.7-5.3,2.2
			c-1.4,1.4-2.2,3.2-2.2,5.3s0.7,3.8,2.2,5.3c1.4,1.4,3.2,2.2,5.3,2.2c8.9,0,16.6,3.2,22.9,9.5c6.3,6.3,9.5,14,9.5,22.9
			s-3.2,16.6-9.5,22.9c-6.3,6.3-14,9.5-22.9,9.5c-9,0-16.6-3.2-22.9-9.5C266.5,391.9,263.3,384.2,263.3,375.3z"/>
		<path fill="#ED1C24" d="M341.1,330.5c0-1.8,0.6-3.4,1.9-4.7c1.3-1.3,2.8-1.9,4.7-1.9c1.8,0,3.4,0.6,4.7,1.9
			c1.3,1.3,1.9,2.8,1.9,4.7v18.8c5.2-3.8,11.5-5.9,18.7-6.3h1c9.1,0.5,16.6,3.7,22.5,9.6c6.2,6.2,9.4,13.7,9.5,22.5v26.3
			c0,2.1-0.6,3.6-1.9,4.7c-1.3,1.1-2.8,1.6-4.7,1.6s-3.4-0.5-4.7-1.6s-1.9-2.6-1.9-4.6v-26.3c0-0.4,0-0.8,0.1-1.2
			c-0.3-4.7-2.1-8.8-5.6-12.2c-3.8-3.8-8.3-5.6-13.6-5.6h-0.3c-5.3,0-9.8,1.9-13.6,5.6c-3.2,3.2-5.1,7-5.5,11.4v28.3
			c0,2-0.6,3.5-1.9,4.6s-2.8,1.6-4.7,1.6c-1.8,0-3.4-0.5-4.7-1.6c-1.3-1.1-1.9-2.7-1.9-4.7L341.1,330.5L341.1,330.5z"/>
		<path fill="#ED1C24" d="M459.1,357.8c-2.4-1.1-5-1.6-7.8-1.6c-5.3,0-9.8,1.9-13.6,5.6c-3.8,3.7-5.6,8.3-5.6,13.6
			c0,5.3,1.9,9.8,5.6,13.6c3.8,3.8,8.3,5.6,13.6,5.6s9.8-1.9,13.5-5.6l0.1-0.1c1.3-1.3,2.8-1.9,4.6-1.9s3.4,0.6,4.7,1.9
			s1.9,2.8,1.9,4.6c0,1.8-0.6,3.4-1.9,4.7l-0.1,0.1c-6.3,6.3-13.9,9.4-22.8,9.4c-8.9,0-16.6-3.2-22.9-9.5
			c-6.3-6.3-9.5-13.9-9.5-22.9c0-8.9,3.2-16.6,9.5-22.9s13.9-9.5,22.9-9.5c8.9,0,16.5,3.1,22.8,9.4l-0.1,0.1c0,0,0,0.1,0.1,0.1
			c1.3,1.3,1.9,2.8,1.9,4.6c0,1.8-0.6,3.3-1.9,4.5L455.6,380c-1.3,1.3-2.8,1.9-4.7,1.9s-3.4-0.6-4.7-1.9s-1.9-2.9-1.9-4.7
			c0-1.8,0.6-3.4,1.9-4.7L459.1,357.8z"/>
		<path fill="#ED1C24" d="M501.3,325.8c1.3,1.3,1.9,2.8,1.9,4.7v70.6c0,1.8-0.6,3.4-1.9,4.7c-1.3,1.3-2.8,1.9-4.7,1.9
			c-1.8,0-3.4-0.6-4.7-1.9c-1.3-1.3-1.9-2.8-1.9-4.7v-70.6c0-1.8,0.6-3.4,1.9-4.7c1.3-1.3,2.8-1.9,4.7-1.9
			C498.4,323.9,500,324.6,501.3,325.8z"/>
		<path fill="#ED1C24" d="M527.2,325.8c1.3,1.3,1.9,2.8,1.9,4.7v70.6c0,1.8-0.6,3.4-1.9,4.7c-1.3,1.3-2.8,1.9-4.7,1.9
			c-1.8,0-3.4-0.6-4.7-1.9c-1.3-1.3-1.9-2.8-1.9-4.7v-70.6c0-1.8,0.6-3.4,1.9-4.7c1.3-1.3,2.8-1.9,4.7-1.9
			C524.4,323.9,525.9,324.6,527.2,325.8z"/>
	</g>
	<g>
		<path fill="#ED1C24" d="M252.3,372.5c-0.7-3.5-2-6.8-3.9-9.7c-3.8-6-9.6-10.4-16.1-13.2c0-0.1,0.1-0.1,0.1-0.2
			c11.2-18.2,0-40.9-12.1-51.2c-1.5-1.3-2.5-0.5-2.2,0.5c6.5,23.1-4.7,41.3-6,43.4c-0.3,0.5-0.6,1-0.9,1.6
			c-6.3-2.8-12-7.3-15.7-13.3c-1.8-3-3.1-6.2-3.7-9.7c-0.3-1.8-0.4-3.5-0.4-5.3c0.1-1.7,0.3-3.5,0.6-5.1c1.4-6.9,5.2-13.1,10.7-17.5
			s-12.3-0.4-23.7,11c-11.4,11.4-17.8,26.9-17.8,43s6.4,31.6,17.8,43s26.9,17.8,43,17.9c7.1,0,14-2.4,19.5-6.9s9.3-10.8,10.6-17.7
			c0.3-1.7,0.5-3.4,0.6-5.1C252.7,376.1,252.6,374.3,252.3,372.5z M222,394.6c-9.6,0-17.4-7.8-17.4-17.4c0-9.6,7.8-17.4,17.4-17.4
			s17.4,7.8,17.4,17.4C239.4,386.8,231.6,394.6,222,394.6z"/>
	</g>
</g>
</svg>
