<?xml version="1.0" encoding="utf-8"?>
<!-- Generator: Adobe Illustrator 18.1.1, SVG Export Plug-In . SVG Version: 6.00 Build 0)  -->
<svg version="1.1" id="Layer_1" xmlns="http://www.w3.org/2000/svg" xmlns:xlink="http://www.w3.org/1999/xlink" x="0px" y="0px"
	 width="720px" height="288px" viewBox="0 0 720 288" enable-background="new 0 0 720 288" xml:space="preserve">
<g>
	<path fill="#ED1C24" d="M138.7,117.7L138.7,117.7c-5.8-4.4-12.5-6.7-20.1-6.7c-9.2,0-17,3.2-23.5,9.7c-6.5,6.5-9.7,14.3-9.7,23.5
		c0,9.2,3.2,17,9.7,23.5s14.3,9.7,23.5,9.7c7.6,0,14.3-2.2,20-6.7l0.1,0.1c0,0,0.1-0.1,0.1-0.1c1.3-1.3,2.8-1.9,4.7-1.9
		c1.8,0,3.4,0.6,4.7,1.9c1.3,1.3,1.9,2.8,1.9,4.7c0,1.8-0.6,3.4-1.9,4.7c0,0-0.1,0.1-0.1,0.1l0.1,0.1c-8.4,7-18.2,10.5-29.5,10.5
		c-12.8,0-23.8-4.5-32.8-13.6c-9.1-9.1-13.6-20-13.6-32.8s4.5-23.8,13.6-32.8s20-13.6,32.8-13.6c11.3,0,21.1,3.5,29.5,10.5l-0.1,0.1
		c0,0,0.1,0.1,0.1,0.1c1.3,1.3,1.9,2.8,1.9,4.7c0,1.8-0.6,3.4-1.9,4.7c-1.3,1.3-2.8,1.9-4.7,1.9c-1.8,0-3.4-0.6-4.7-1.9
		C138.8,117.8,138.8,117.8,138.7,117.7z"/>
	<path fill="#ED1C24" d="M195.2,125.9c1.8,0,3.4,0.6,4.7,1.9c1.3,1.3,1.9,2.8,1.9,4.7c0,1.8-0.6,3.4-1.9,4.7
		c-1.3,1.3-2.8,1.9-4.7,1.9h-0.1c-5.3,0-9.8,1.9-13.6,5.6c-3.5,3.4-5.3,7.5-5.6,12.2c0,0.4,0.1,0.8,0.1,1.2v25
		c0,2.4-0.6,4.3-1.9,5.6c-1.3,1.3-2.8,1.9-4.7,1.9s-3.4-0.6-4.7-1.9c-1.3-1.3-1.9-3.2-1.9-5.7v-25c0.1-8.8,3.2-16.3,9.5-22.5
		C178.2,129.6,185.9,126.4,195.2,125.9z"/>
	<path fill="#ED1C24" d="M268.9,184.3c0,2.5-0.6,4.2-1.9,5c-1.3,0.9-2.8,1.3-4.7,1.3c-1.8,0-3.4-0.4-4.7-1.3s-1.9-2.5-1.9-4.9
		c-5.5,4.1-11.9,6.2-19.1,6.2c-8.9,0-16.6-3.2-22.9-9.5c-6.3-6.3-9.5-13.9-9.5-22.9c0-8.9,3.2-16.6,9.5-22.9
		c6.3-6.3,13.9-9.5,22.9-9.5c8.9,0,16.6,3.2,22.9,9.5c6.2,6.2,9.4,13.7,9.5,22.5V184.3z M250.2,144.8c-3.8-3.8-8.3-5.6-13.6-5.6
		s-9.8,1.9-13.6,5.6c-3.7,3.7-5.6,8.3-5.6,13.6s1.9,9.8,5.6,13.6c3.7,3.8,8.3,5.6,13.6,5.6s9.8-1.9,13.6-5.6c3.2-3.2,5-6.9,5.5-11.3
		v-2.5c0-0.4,0-0.8,0.1-1.2C255.5,152.3,253.7,148.2,250.2,144.8z"/>
	<path fill="#ED1C24" d="M382.3,158.3c0-1.8,0.6-3.3,1.9-4.6c1.3-1.3,2.8-1.9,4.6-1.9c1.8,0,3.3,0.6,4.6,1.9
		c1.3,1.3,1.9,2.8,1.9,4.6c0,5.4,1.9,9.9,5.7,13.7c3.8,3.8,8.4,5.7,13.8,5.7c5.4,0,9.9-1.9,13.7-5.7c3.8-3.8,5.7-8.4,5.7-13.7
		c0-5.4-1.9-9.9-5.7-13.7c-3.8-3.8-8.4-5.7-13.7-5.7c-5.7,0-10.5-2-14.4-6c-4-4-6-8.8-6-14.4c0-5.7,2-10.5,6-14.4c4-4,8.8-6,14.4-6
		c5.2,0,9.8,1.7,13.6,5.2c0.2,0.2,0.5,0.4,0.7,0.6c1.3,1.3,1.9,2.8,1.9,4.6c0,1.8-0.6,3.3-1.9,4.6c-1.3,1.3-2.8,1.9-4.6,1.9
		c-1.8,0-3.3-0.6-4.6-1.9c-0.2-0.2-0.3-0.3-0.5-0.5l-0.1,0.1c-1.3-1.1-2.9-1.6-4.6-1.6c-2.1,0-3.8,0.7-5.3,2.2
		c-1.4,1.4-2.2,3.2-2.2,5.3c0,2.1,0.7,3.8,2.2,5.3c1.4,1.4,3.2,2.2,5.3,2.2c8.9,0,16.6,3.2,22.9,9.5c6.3,6.3,9.5,14,9.5,22.9
		c0,8.9-3.2,16.6-9.5,22.9c-6.3,6.3-14,9.5-22.9,9.5c-9,0-16.6-3.2-22.9-9.5C385.5,174.9,382.3,167.2,382.3,158.3z"/>
	<path fill="#ED1C24" d="M460.1,113.5c0-1.8,0.6-3.4,1.9-4.7c1.3-1.3,2.8-1.9,4.7-1.9c1.8,0,3.4,0.6,4.7,1.9
		c1.3,1.3,1.9,2.8,1.9,4.7v18.8c5.2-3.8,11.5-5.9,18.7-6.3h1c9.1,0.5,16.6,3.7,22.5,9.6c6.2,6.2,9.4,13.7,9.5,22.5v26.3
		c0,2.1-0.6,3.6-1.9,4.7c-1.3,1.1-2.8,1.6-4.7,1.6s-3.4-0.5-4.7-1.6c-1.3-1.1-1.9-2.6-1.9-4.6v-26.3c0-0.4,0-0.8,0.1-1.2
		c-0.3-4.7-2.1-8.8-5.6-12.2c-3.8-3.8-8.3-5.6-13.6-5.6h-0.3c-5.3,0-9.8,1.9-13.6,5.6c-3.2,3.2-5.1,7-5.5,11.4v28.3
		c0,2-0.6,3.5-1.9,4.6c-1.3,1.1-2.8,1.6-4.7,1.6c-1.8,0-3.4-0.5-4.7-1.6c-1.3-1.1-1.9-2.7-1.9-4.7V113.5z"/>
	<path fill="#ED1C24" d="M578.1,140.8c-2.4-1.1-5-1.6-7.8-1.6c-5.3,0-9.8,1.9-13.6,5.6c-3.8,3.7-5.6,8.3-5.6,13.6s1.9,9.8,5.6,13.6
		c3.8,3.8,8.3,5.6,13.6,5.6c5.3,0,9.8-1.9,13.5-5.6c0,0,0.1-0.1,0.1-0.1c1.3-1.3,2.8-1.9,4.6-1.9c1.8,0,3.4,0.6,4.7,1.9
		c1.3,1.3,1.9,2.8,1.9,4.6s-0.6,3.4-1.9,4.7c0,0-0.1,0.1-0.1,0.1c-6.3,6.3-13.9,9.4-22.8,9.4c-8.9,0-16.6-3.2-22.9-9.5
		c-6.3-6.3-9.5-13.9-9.5-22.9c0-8.9,3.2-16.6,9.5-22.9c6.3-6.3,13.9-9.5,22.9-9.5c8.9,0,16.5,3.1,22.8,9.4l-0.1,0.1
		c0,0,0,0.1,0.1,0.1c1.3,1.3,1.9,2.8,1.9,4.6c0,1.8-0.6,3.3-1.9,4.5l-18.5,18.4c-1.3,1.3-2.8,1.9-4.7,1.9c-1.9,0-3.4-0.6-4.7-1.9
		c-1.3-1.3-1.9-2.9-1.9-4.7c0-1.8,0.6-3.4,1.9-4.7L578.1,140.8z"/>
	<path fill="#ED1C24" d="M620.3,108.8c1.3,1.3,1.9,2.8,1.9,4.7v70.6c0,1.8-0.6,3.4-1.9,4.7c-1.3,1.3-2.8,1.9-4.7,1.9
		c-1.8,0-3.4-0.6-4.7-1.9c-1.3-1.3-1.9-2.8-1.9-4.7v-70.6c0-1.8,0.6-3.4,1.9-4.7c1.3-1.3,2.8-1.9,4.7-1.9
		C617.4,106.9,619,107.6,620.3,108.8z"/>
	<path fill="#ED1C24" d="M646.2,108.8c1.3,1.3,1.9,2.8,1.9,4.7v70.6c0,1.8-0.6,3.4-1.9,4.7c-1.3,1.3-2.8,1.9-4.7,1.9
		c-1.8,0-3.4-0.6-4.7-1.9c-1.3-1.3-1.9-2.8-1.9-4.7v-70.6c0-1.8,0.6-3.4,1.9-4.7c1.3-1.3,2.8-1.9,4.7-1.9
		C643.4,106.9,644.9,107.6,646.2,108.8z"/>
</g>
<g>
	<path fill="#ED1C24" d="M371.3,155.5c-0.7-3.5-2-6.8-3.9-9.7c-3.8-6-9.6-10.4-16.1-13.2c0-0.1,0.1-0.1,0.1-0.2
		c11.2-18.2,0-40.9-12.1-51.2c-1.5-1.3-2.5-0.5-2.2,0.5c6.5,23.1-4.7,41.3-6,43.4c-0.3,0.5-0.6,1-0.9,1.6c-6.3-2.8-12-7.3-15.7-13.3
		c-1.8-3-3.1-6.2-3.7-9.7c-0.3-1.8-0.4-3.5-0.4-5.3c0.1-1.7,0.3-3.5,0.6-5.1c1.4-6.9,5.2-13.1,10.7-17.5c5.5-4.4-12.3-0.4-23.7,11
		c-11.4,11.4-17.8,26.9-17.8,43c0,16.1,6.4,31.6,17.8,43c11.4,11.4,26.9,17.8,43,17.9c7.1,0,14-2.4,19.5-6.9
		c5.5-4.5,9.3-10.8,10.6-17.7c0.3-1.7,0.5-3.4,0.6-5.1C371.7,159.1,371.6,157.3,371.3,155.5z M341,177.6c-9.6,0-17.4-7.8-17.4-17.4
		s7.8-17.4,17.4-17.4s17.4,7.8,17.4,17.4S350.6,177.6,341,177.6z"/>
</g>
</svg>
