<?xml version="1.0" encoding="utf-8"?>
<!-- Generator: Adobe Illustrator 18.1.1, SVG Export Plug-In . SVG Version: 6.00 Build 0)  -->
<svg version="1.1" id="new_slogan" xmlns="http://www.w3.org/2000/svg" xmlns:xlink="http://www.w3.org/1999/xlink" x="0px" y="0px"
	 width="1185.6px" height="339px" viewBox="0 0 1185.6 339" enable-background="new 0 0 1185.6 339" xml:space="preserve">
<g>
	<g>
		<g>
			<path fill="#5087C7" d="M137.9,254C60.2,254,3,195.8,3,129c0-64.5,59.5-126,134.6-126c37.9,0,69.2,14.1,94.1,38.8l-17.1,11.8
				c-19-21.4-46.1-35.5-77.3-35.5C73.6,18.1,32.3,76.3,32.3,128c0,52.6,39.8,109.6,104.8,109.6c43.5,0,65.1-15.5,91.8-44.1l13,9.5
				C219,232.9,179.6,254,137.9,254z"/>
			<path fill="#5087C7" d="M342.8,123c0,29.3-16,51.3-51.3,52.3V94.4c0-6.9,0-14.2,0.4-21.1C327.9,75.3,342.8,91.8,342.8,123z
				 M381.5,250c-17.1-22.7-34.2-45.4-50.2-68.8c24.5-12.2,38.3-37.2,38.3-61.5c0-39.8-35.3-61.9-77.7-61.9h-25.7
				c1.1,17.5,1.9,35.2,1.9,52.7v44.7c0,31.6-0.4,63.2-1.5,94.8c4.8-0.7,9.7-1,14.5-1c4.5,0,8.9,0.3,13.4,1
				c-0.7-20.1-1.9-40.5-2.2-60.5c5.6,0,11.2-0.7,16.7-2c15.6,19.8,29.7,40.5,40.9,62.5C360.3,249.1,371,249.4,381.5,250z"/>
			<path fill="#5087C7" d="M499.3,250c-30.5-0.7-61-0.3-91.5,0c0.4-22.1,0.7-44.1,0.7-66.2v-20.4c0-35.2-0.7-70.4-1.5-105.6
				c30.9,0.3,61.4,0.3,92.2-0.3c1.1,2.3,9.7,19.4,9.7,21.4c0,1.6-2.2,2-3.7,2c-1.9,0-3.7-0.3-5.6-1c-12.3-3.6-40.1-6.9-52.8-6.9
				c-4.8,0-9.3,0.3-14.1,0.7c-1.1,21.7-0.7,43.4-0.7,65.1h30.1c9.3,0,19-1,28.3-1.6v17.1c-8.9-0.3-17.8-0.7-26.8-0.7H432
				c0,27-0.4,53.6,0.7,80.6c4.8,0.3,9.7,0.7,14.5,0.7c12.6,0,40.2-3.3,52.4-6.9c1.9-0.7,3.7-1,5.6-1c1.5,0,3.7,0.3,3.7,2
				C509,231,500.4,247.7,499.3,250z"/>
			<path fill="#5087C7" d="M666.6,151.7c0,46.7-26.8,82.6-83.3,82.6c-4.5,0-8.5-0.7-13-1.3c-2.6-25.7-2.2-51.7-2.2-77.6
				c0-27.3,0-55,1.9-82.3C625.4,73.3,666.6,99.7,666.6,151.7z M693.4,151.3c0-59.6-58.7-93.5-121.2-93.5h-29.8
				c2.2,41.5,2.6,82.6,2.6,124.1c0,22.1-0.4,43.8-1.5,65.8c9.7,1.3,19.7,2.6,29.8,2.6C641.7,250.4,693.4,214.5,693.4,151.3z"/>
			<path fill="#5087C7" d="M752.1,153.6c0,32.2,0.4,64.5,1.5,96.4c-4.8-0.3-9.3-0.7-14.1-0.7c-4.5,0-8.9,0.3-13.4,0.7
				c1.1-30.6,1.5-61.5,1.5-92.1c0-33.2-0.4-66.8-2.6-100c4.8,0.7,10,1,14.9,1c4.8,0,9.7-0.3,14.5-1
				C752.1,89.8,752.1,121.7,752.1,153.6z"/>
			<path fill="#5087C7" d="M877.8,107.6c0,18.1-18.2,37.5-39.4,37.5h-16.7l0.4-72.4c4.4-0.7,9.3-0.7,13.8-0.7c3.3,0,7.1,0,10.4,0.3
				C865.2,74.3,877.8,91.4,877.8,107.6z M924.3,197.7c0-30.6-22.3-44.4-53.5-49.4c18.6-10.2,30.8-24.7,30.8-44.4
				c0-34.2-31.2-46.4-65.4-46.4c-13,0-26.4,0.7-39.4,0.7c2.2,35.9,3,71.4,3,107.3c0,28.3-0.4,56.3-1.1,84.6
				c16.7,0,33.1,0.6,49.8,0.6C887.1,250.7,924.3,236.9,924.3,197.7z M902,199c0,28.9-32.3,36.5-59.1,36.5c-6.7,0-13.4-0.3-19.7-1.3
				c-0.4-24.4-1.1-48.4-1.1-72.7v-1.6h15.6C867,159.9,902,166.8,902,199z"/>
			<path fill="#5087C7" d="M1046.6,250c-30.5-0.7-61.4-0.3-91.8,0c0.4-16.1,0.4-32.3,0.4-48.4v-26.3c0-39.2,0-78.3-2.6-117.1
				c4.5,0.3,9.3,0.7,14.1,0.7c5.2,0,10-0.3,15.2-0.7c-1.5,41.8-2.2,83.9-2.2,125.7c0,16.8,0.4,33.9,1.1,50.4
				c4.8,0.3,9.7,0.7,14.5,0.7c12.6,0,40.2-3.3,52.4-6.9c1.9-0.7,3.3-1,5.2-1c1.5,0,3.3,0.3,3.3,2
				C1056.3,231,1047.7,247.7,1046.6,250z"/>
			<path fill="#5087C7" d="M1173,250c-30.5-0.7-61-0.3-91.4,0c0.4-22.1,0.7-44.1,0.7-66.2v-20.4c0-35.2-0.7-70.4-1.5-105.6
				c30.9,0.3,61.3,0.3,92.2-0.3c1.1,2.3,9.7,19.4,9.7,21.4c0,1.6-2.2,2-3.7,2c-1.9,0-3.7-0.3-5.6-1c-12.3-3.6-40.2-6.9-52.8-6.9
				c-4.8,0-9.3,0.3-14.1,0.7c-1.1,21.7-0.7,43.4-0.7,65.1h30.1c9.3,0,18.9-1,28.3-1.6v17.1c-8.9-0.3-17.8-0.7-26.8-0.7h-31.6
				c0,27-0.4,53.6,0.7,80.6c4.8,0.3,9.7,0.7,14.5,0.7c12.6,0,40.2-3.3,52.4-6.9c1.9-0.7,3.7-1,5.6-1c1.5,0,3.7,0.3,3.7,2
				C1182.7,231,1174.1,247.7,1173,250z"/>
		</g>
		<g>
			<path fill="#003974" d="M0,129c0,70.6,61.9,128,137.9,128c40.9,0,81.7-20,106.4-52.1l1.8-2.4l-17.6-12.9l-1.8,1.9
				c-26.8,28.6-48,43.2-89.7,43.2c-62.9,0-101.9-55.4-101.9-106.6C35.3,76.3,76.2,21,137.2,21c28.7,0,55.4,12.3,75.1,34.5l1.7,2
				l22.2-15.3l-2.5-2.5C207.1,13.3,174.8,0,137.5,0C64.3,0,0,60.2,0,129z M5.9,129C5.9,63.4,67.4,5.9,137.5,5.9
				c34.4,0,64.4,12,89.3,35.6c-3.5,2.4-9.5,6.6-12,8.3c-20.7-22.3-48.1-34.6-77.7-34.6C72.7,15.1,29.4,73.5,29.4,128
				c0,54.1,41.2,112.5,107.8,112.5c42.9,0,65.1-14.6,92.1-43.2c2.2,1.6,5.7,4.2,8.4,6.2C213.9,232.8,176,251,137.9,251
				C65.1,251,5.9,196.3,5.9,129z"/>
			<path fill="#003974" d="M288.9,73.2l-0.4,21.2v84l3-0.1c33.9-1,54.2-21.6,54.2-55.3c0-33.9-17.1-50.6-53.7-52.6l-3-0.2
				L288.9,73.2z M294.4,94.4c0,0,0.2-13.3,0.3-17.8c31,2.6,45.1,16.9,45.1,46.4c0,29.4-16.6,47.1-45.4,49
				C294.4,166.1,294.4,94.4,294.4,94.4z"/>
			<path fill="#003974" d="M266.2,54.9h-3.1l0.2,3.1c1.2,19.5,1.8,36.7,1.8,52.5v44.7c0,35.4-0.5,66.3-1.5,94.7l-0.1,3.5l3.5-0.5
				c4.7-0.6,9.4-1,14.1-1c4.3,0,8.7,0.3,13,1l3.5,0.5l-1-23.4c0,0-1.1-32.9-1.3-37.8c4.2-0.2,8.3-0.7,12.4-1.5
				c16.7,21.2,29.6,41.1,39.5,60.6l0.9,1.8l2-0.2c11-1,22.4-0.5,31.1,0l6.4,0.4l-3.8-5.1c-16.2-21.5-32.8-43.7-48.3-66.1
				c22.5-12.6,37-36.6,37-62.4c0-38.8-32.4-64.8-80.6-64.8H266.2z M291.8,60.8c37.2,0,74.8,18.2,74.8,58.9
				c0,24.7-14.4,47.8-36.7,58.9l-3,1.5l1.9,2.8c14.8,21.7,30.8,43,46.5,63.8c-7.2-0.3-15.5-0.4-23.8,0.3
				c-10.2-19.8-23.3-39.9-40.3-61.3l-1.2-1.5l-1.8,0.4c-5.3,1.3-10.7,1.9-16.1,1.9h-3l1.5,43.8c0,0,0.5,12,0.7,16.5
				c-3.4-0.4-6.9-0.7-10.3-0.7c-3.8,0-7.6,0.4-11.5,0.8c0.9-27.5,1.4-57.5,1.4-91.6v-44.7c0-15.1-0.6-31.4-1.7-49.7
				C274.1,60.8,291.8,60.8,291.8,60.8z"/>
			<path fill="#003974" d="M499.2,54.6c-27.9,0.6-57.2,0.7-92.1,0.3l-3,0l0.1,3c0.7,34.6,1.5,70.4,1.5,105.6v20.4l-0.8,69.1l3,0
				c30-0.3,60.9-0.7,91.4,0l1.9,0l1.8-3.7c8.3-16.7,9-19,9-20.4c0-2.4-1.8-4.9-6.7-4.9c-2.2,0-4.4,0.4-6.6,1.1
				c-11.7,3.5-39,6.7-51.4,6.7c0,0-8.1-0.4-11.6-0.5c-0.6-15.2-0.7-30.6-0.7-45.7c0-5.3,0-10.6,0-15.9c0,0,0-9.3,0-13.3
				c4.8,0,28.7,0,28.7,0l29.7,0.7l0-3V134l-9.9,0.8c-7.1,0.6-14.4,1.1-21.4,1.1c0,0-22.4,0-27.2,0c0-3.5,0-10.1,0-10.1
				c0-4.3,0-8.6,0-12.9c0-12.1,0.2-24.3,0.7-36.4c2.5-0.1,11.3-0.5,11.3-0.5c12.6,0,40.1,3.3,52,6.8c2,0.7,4.2,1.1,6.4,1.1
				c4.9,0,6.7-2.6,6.7-4.9c0-1.4-0.7-3.8-9.3-21.3l-1.5-3.1L499.2,54.6z M497.5,60.5c5.2,10.7,7.3,15.4,8.1,17.4
				c-0.2,0-0.2,0.1-0.4,0.1c-1.5,0-3.1-0.3-4.6-0.8c-12.4-3.7-40.8-7.1-53.8-7.1l-13.3,0.6l-3.6,0.3l-0.1,2.6
				c-0.9,17.5-0.8,35.1-0.8,52.3l0,16l2.9,0h30.1c7.2,0,14.6-0.6,21.8-1.1c0,0,1.8-0.1,3.5-0.3c0,3.3,0,7.7,0,10.9
				c-4.8-0.1-23.8-0.6-23.8-0.6h-34.5l0,19.1c-0.1,21.1-0.1,42.9,0.8,64.6l0.1,2.7l17.3,0.8c13,0,40.6-3.3,53.3-7
				c1.7-0.6,3.2-0.9,4.7-0.9c0.2,0,0.2,0,0.4,0c-0.9,2.2-3.5,7.7-8,16.7c0,0-0.1,0.3-0.2,0.4c-28.9-0.6-58.2-0.3-86.7,0
				c0-5.5,0.7-63.2,0.7-63.2v-20.4c0-34.2-0.7-69-1.4-102.6C442.9,61.2,470.9,61.1,497.5,60.5z"/>
			<path fill="#003974" d="M567,72.8c-1.9,27.4-1.9,55.4-1.9,82.5l0,8.7c0,22.8-0.1,46.3,2.3,69.3l0.2,2.3l3.2,0.5
				c4.2,0.6,8.1,1.2,12.5,1.2c53.2,0,86.2-32.8,86.2-85.5c0-50-38.2-81.2-99.6-81.6l-2.8,0L567,72.8z M571,172.5
				c0-2.9,0-17.2,0-17.2c0-26,0-52.9,1.7-79.2c57,1.2,90.9,29.3,90.9,75.6c0,49.9-30,79.6-80.3,79.6c-3.4,0-6.8-0.5-10.2-1
				C571.3,211.2,571,191.7,571,172.5z"/>
			<path fill="#003974" d="M542.4,54.9h-3.1l0.2,3.1c2.3,42.4,2.6,84.6,2.6,123.9c0,24.8-0.5,45.7-1.5,65.7l-0.2,2.7l2.7,0.4
				c8.7,1.2,19.6,2.7,30.2,2.7c74.7,0,123-40,123-102c0-63.3-62.5-96.4-124.1-96.4H542.4z M572.2,60.8c58.8,0,118.2,31.1,118.2,90.5
				c0,58.4-46,96.1-117.1,96.1c-9.2,0-18.7-1.2-26.7-2.3c0.9-19.3,1.4-39.5,1.4-63.2c0-38.4-0.3-79.6-2.5-121.1
				C550.5,60.8,572.2,60.8,572.2,60.8z"/>
			<path fill="#003974" d="M754,55c-4.7,0.6-9.4,1-14.1,1c-4.8,0-9.9-0.3-14.5-1l-3.6-0.5l0.2,3.6c2.3,34,2.6,68.1,2.6,99.8
				c0,34.5-0.5,64.6-1.5,92l-0.1,3.2l16.5-0.8l13,0.6l4.2,0.3l-0.1-3.3c-1-28.6-1.5-60.1-1.5-96.3c0-31.3,0-63.7,2.2-95.5l0.2-3.6
				L754,55z M751.3,61c-2,30.9-2.1,62.3-2.1,92.6c0,35,0.5,65.5,1.4,93.3c-3.1-0.1-11.1-0.5-11.1-0.5s-6.6,0.3-10.3,0.5
				c0.9-26.6,1.4-55.7,1.4-89c0-30.8-0.3-63.8-2.4-96.8c3.9,0.4,7.8,0.7,11.7,0.7C743.6,61.8,747.5,61.4,751.3,61z"/>
			<path fill="#003974" d="M821.6,69.8l-2.5,0.4l-0.4,77.9h19.7c23.9,0,42.4-21.7,42.4-40.5c0-16.6-13.1-35.9-34.3-38.1
				c0,0-10.7-0.3-10.7-0.3C831.3,69.1,826.3,69.1,821.6,69.8z M835.8,75l10.1,0.3c17.9,1.9,28.9,18.2,28.9,32.3
				c0,15.7-16.3,34.6-36.5,34.6c0,0-9.7,0-13.8,0c0-5.3,0.3-62,0.3-66.8C828.5,75.1,832.2,75,835.8,75z"/>
			<path fill="#003974" d="M816.4,54.9l-22.7,0.4l0.1,3.1c2,32.5,3,66.6,3,107.1c0,28.3-0.4,56-1.1,84.5l-0.1,3l52.8,0.7
				c49.3,0,78.8-20.9,78.8-55.9c0-26.8-16.5-43.7-48.6-50.7c17.2-11.3,25.9-25.7,25.9-43.1c0-31.3-24.9-49.3-68.4-49.3L816.4,54.9z
				 M816.5,60.8l19.6-0.3c18.8,0,62.5,4.2,62.5,43.5c0,17.1-9.9,31.2-29.3,41.8l-7.6,4.2l8.5,1.3c34.4,5.4,51,20.6,51,46.4
				c0,45.2-51,50-72.9,50c0,0-42.2-0.5-46.8-0.6c0.7-27.5,1.1-54.3,1.1-81.7c0-39.4-0.9-72.6-2.8-104.4
				C804.3,61,816.5,60.8,816.5,60.8z"/>
			<path fill="#003974" d="M822,157h-3v4.6l0.7,48.3l0.5,26.9l2.5,0.4c5.8,0.9,12.4,1.3,20.2,1.3c18.7,0,62.1-3.9,62.1-39.5
				c0-27.5-23.3-42.1-67.3-42.1H822z M837.7,162.8c28,0,61.4,6.3,61.4,36.2c0,30.3-39.3,33.6-56.2,33.6c-6.4,0-11.9-0.4-16.8-1
				c-0.1-4.2-0.4-21.9-0.4-21.9s-0.6-44.4-0.6-46.9C828.9,162.8,837.7,162.8,837.7,162.8z"/>
			<path fill="#003974" d="M981.7,55.3l-1,0.1l-14.1,0.6l-17.2-0.8l0.2,3.3c2.6,38.7,2.6,78.5,2.6,116.9v26.3l-0.4,51.3l3,0
				c30.1-0.3,61.2-0.7,91.7,0l1.9,0l1.8-3.7c8.3-16.7,9-19,9-20.4c0-0.8-0.3-4.9-6.3-4.9c-2.1,0-3.9,0.3-6.2,1.1
				c-11.7,3.5-39,6.7-51.4,6.7c0,0-8.1-0.4-11.6-0.5c-0.7-15.5-1-31.5-1-47.5c0-41.7,0.7-84,2.2-125.6l0.1-3.3L981.7,55.3z
				 M958.1,201.7v-26.3c0-37.5,0-76.2-2.4-114c3.9,0.2,11,0.5,11,0.5s9-0.4,12.2-0.5c-1.4,40.6-2.1,81.8-2.1,122.6
				c0,17,0.4,34,1.1,50.5l0.1,2.7l17.3,0.8c13,0,40.7-3.3,53.3-7c1.8-0.6,3-0.9,4.4-0.9h0c-0.8,2.1-3.4,7.7-8,16.8
				c0,0-0.1,0.3-0.2,0.4c-29-0.6-58.5-0.3-87,0C957.8,241.7,958.1,201.7,958.1,201.7z"/>
			<path fill="#003974" d="M1173,54.6c-27.9,0.6-57.2,0.7-92.1,0.3l-3,0l0.1,3c0.7,34.6,1.5,70.4,1.5,105.6v20.4l-0.7,66.1l-0.1,3
				l3,0c30-0.3,60.9-0.7,91.4,0l1.9,0l1.8-3.7c8.3-16.7,9-19,9-20.4c0-2.4-1.8-4.9-6.7-4.9c-2.2,0-4.4,0.4-6.6,1.1
				c-11.7,3.5-39,6.7-51.4,6.7c0,0-8.1-0.4-11.6-0.5c-0.6-15.3-0.7-30.7-0.7-45.8c0-5.3,0-10.6,0-15.8c0,0,0-9.3,0-13.2
				c4.8,0,28.7,0,28.7,0l29.7,0.7l0-3V134l-9.9,0.8c-7,0.6-14.4,1.1-21.3,1.1c0,0-22.4,0-27.2,0c0-3.5,0-10.1,0-10.1
				c0-4.3,0-8.5,0-12.9c0-12.1,0.2-24.4,0.7-36.5c2.5-0.1,11.3-0.5,11.3-0.5c12.6,0,40.1,3.3,52,6.8c2,0.7,4.2,1.1,6.4,1.1
				c4.9,0,6.7-2.6,6.7-4.9c0-1.4-0.7-3.8-9.3-21.3l-1.5-3.1L1173,54.6z M1171.2,60.5c5.2,10.7,7.3,15.4,8.1,17.4
				c-0.2,0-0.1,0.1-0.4,0.1c-1.5,0-3.1-0.3-4.6-0.8c-12.4-3.7-40.8-7.1-53.8-7.1l-13.3,0.6l-3.6,0.3l-0.2,2.6
				c-0.9,17.5-0.8,35.2-0.8,52.3l0,15.9l3,0h30.1c7.2,0,14.6-0.6,21.8-1.1c0,0,1.8-0.1,3.5-0.3c0,3.3,0,7.7,0,10.9
				c-4.8-0.1-23.8-0.6-23.8-0.6h-34.6l0,19.1c-0.1,21.1-0.1,42.9,0.8,64.6l0.1,2.7l17.3,0.8c13,0,40.6-3.3,53.3-7
				c1.7-0.6,3.2-0.9,4.7-0.9c0.2,0,0.2,0,0.4,0c-0.9,2.2-3.5,7.7-8,16.7c0,0-0.1,0.3-0.2,0.4c-28.9-0.6-58.2-0.3-86.7,0
				c0.1-4.7,0.7-63.2,0.7-63.2v-20.4c0-34.2-0.7-69-1.4-102.6C1116.7,61.2,1144.6,61.1,1171.2,60.5z"/>
		</g>
	</g>
	<g>
		<path fill="#003974" d="M169.2,301.5c-0.1-2.8-0.2-5.7-0.4-8.5c0.7,0.1,1.6,0.2,2.4,0.2c0.9,0.1,1.9,0.1,3,0.1
			c1.9,0,3.9-0.1,5.9-0.2c2.1-0.1,4-0.2,5.9-0.2c2,0,3.8,0.2,5.4,0.6c1.6,0.4,3,1,4.2,1.8c1.2,0.8,2.1,1.9,2.7,3.2
			c0.6,1.3,1,2.8,1,4.6c0,1.8-0.4,3.3-1.1,4.6c-0.7,1.3-1.7,2.4-2.7,3.2c-1.1,0.9-2.2,1.5-3.5,2c-1.3,0.5-2.4,0.8-3.4,1v0.1
			c1,0,2.2,0.3,3.5,0.7c1.4,0.4,2.6,1.1,3.9,1.9c1.2,0.9,2.3,2,3.1,3.4c0.9,1.4,1.3,3.1,1.3,5c0,2.4-0.4,4.4-1.3,6
			c-0.9,1.7-2,3-3.4,4.1c-1.4,1.1-3,1.8-4.9,2.2c-1.8,0.4-3.7,0.6-5.7,0.6c-1.8,0-3.4,0-4.9-0.1c-1.5,0-3.1-0.1-4.8-0.1
			c-1.2,0-2.4,0-3.6,0c-1.2,0-2.2,0-3,0.1c0.2-2.7,0.3-5.5,0.4-8.3c0.1-2.8,0.1-6.1,0.1-9.7v-8.9
			C169.4,307.6,169.3,304.3,169.2,301.5z M189.2,301.4c-0.2-0.9-0.6-1.8-1.2-2.4c-0.6-0.7-1.3-1.2-2.2-1.6c-0.9-0.4-2-0.6-3.3-0.6
			c-1,0-1.6,0-2,0c-0.4,0-0.8,0.1-1.2,0.2c-0.1,1.6-0.2,3.3-0.2,4.9c0,1.7-0.1,3.1-0.1,4.2c0,1.2,0,2.3,0,3.4c0,1.1,0,2.2,0,3.3h3
			c0.9,0,1.8-0.2,2.7-0.5c0.9-0.4,1.7-0.9,2.4-1.5c0.7-0.7,1.3-1.5,1.7-2.6c0.4-1,0.7-2.3,0.7-3.7
			C189.6,303.4,189.4,302.4,189.2,301.4z M188,318.8c-1.4-1.5-3.4-2.3-6-2.3c-0.6,0-1.1,0-1.6,0c-0.4,0-0.9,0-1.2,0
			c0,0.9,0,1.9,0,2.9c0,1,0,2.2,0,3.5c0,1.1,0,2.1,0,3.2c0,1.1,0,2.2,0,3.2c0,1.1,0,2,0,2.9c0,0.9,0,1.6,0,2.2
			c0.6,0,1.2,0.1,1.7,0.1c0.5,0,1.2,0,1.9,0c1,0,1.9-0.2,2.8-0.6c0.9-0.4,1.6-1,2.3-1.7c0.7-0.8,1.2-1.7,1.6-2.8
			c0.4-1.1,0.6-2.4,0.6-3.8C190,322.6,189.3,320.3,188,318.8z"/>
		<path fill="#003974" d="M218.6,327.4c0.4,1.5,0.9,2.9,1.6,4c0.7,1.1,1.6,2,2.8,2.6c1.1,0.6,2.4,1,3.9,1c3,0,5.7-1,8.1-3l0.8,0.6
			l-1.4,3.7c-1.1,0.8-2.4,1.5-3.9,2c-1.5,0.5-3.6,0.8-6.1,0.8c-2.1,0-4.2-0.3-6.1-0.9c-1.9-0.6-3.6-1.6-5.1-2.9
			c-1.5-1.4-2.6-3.1-3.5-5.2c-0.9-2.1-1.3-4.6-1.3-7.5c0-2.8,0.4-5.3,1.1-7.4c0.8-2.1,1.8-3.9,3.2-5.3c1.4-1.4,3-2.5,4.8-3.2
			c1.9-0.7,3.9-1,6.1-1c4.3,0,7.7,1.3,10,3.8c2.3,2.5,3.5,6.1,3.5,10.8v1.4c0,0.4,0,0.7-0.1,0.8h-18.9
			C218.1,324.2,218.3,325.8,218.6,327.4z M227,311.6c-0.7-2-1.9-3-3.6-3c-1,0-1.8,0.3-2.4,1c-0.7,0.7-1.2,1.5-1.6,2.5
			c-0.4,1-0.7,2.2-0.9,3.5c-0.2,1.3-0.3,2.6-0.4,3.8h10.1C228.1,316.2,227.7,313.6,227,311.6z"/>
		<path fill="#003974" d="M245.5,299.5c-0.1-3.6-0.2-7.2-0.4-10.9c0.6,0.1,1.3,0.2,2.2,0.2c0.9,0.1,1.8,0.1,2.8,0.1
			c1,0,1.9,0,2.8-0.1c0.9-0.1,1.6-0.1,2.2-0.2c-0.2,3.7-0.3,7.3-0.4,10.9c-0.1,3.6-0.1,7.5-0.1,11.8l0.1,0.1
			c1.1-1.8,2.5-3.3,4.2-4.3c1.6-1,3.5-1.5,5.6-1.5c3.3,0,5.8,1,7.6,2.9c1.8,1.9,2.7,5,2.7,9.2c0,2.2,0,4.2-0.1,5.9
			c-0.1,1.7-0.1,3.4-0.1,5.1c0,1.4,0,2.9,0.1,4.6c0.1,1.6,0.1,3.2,0.2,4.8c-0.6-0.1-1.3-0.1-2.2-0.1c-0.9,0-1.8,0-2.8,0
			c-1,0-1.9,0-2.8,0c-0.9,0-1.6,0-2.2,0.1c0.3-2.3,0.5-5,0.6-8.1c0.1-3.1,0.1-6.6,0.1-10.6c0-2.8-0.5-4.8-1.4-6.1
			c-0.9-1.3-2.3-1.9-4-1.9c-2,0-3.4,0.9-4.3,2.6c-0.9,1.7-1.4,4.1-1.4,7.1v2.6c0,0.6,0,1.5,0,2.7c0,1.2,0.1,2.4,0.1,3.8
			c0,1.4,0.1,2.8,0.2,4.2c0.1,1.4,0.1,2.7,0.2,3.7c-0.6-0.1-1.3-0.1-2.2-0.1c-0.9,0-1.8,0-2.8,0c-1,0-1.9,0-2.8,0
			c-0.9,0-1.6,0-2.2,0.1c0.2-3.6,0.3-7.1,0.4-10.7c0.1-3.6,0.1-7.5,0.1-11.8v-4.3C245.6,307,245.6,303.1,245.5,299.5z"/>
		<path fill="#003974" d="M290.5,306.9c2.1-0.8,4.2-1.2,6.3-1.2c1.8,0,3.4,0.2,4.8,0.6c1.5,0.4,2.7,1,3.8,1.9c1.1,0.9,1.9,2,2.5,3.3
			c0.6,1.4,0.9,3,0.9,4.9c0,2.8,0,5.4-0.1,7.8c-0.1,2.4-0.1,4.8-0.1,7.1c0,1,0.1,1.9,0.2,2.5c0.2,0.6,0.4,1,0.7,1.3
			c0.3,0.3,0.7,0.5,1.2,0.6c0.5,0.1,1.1,0.1,1.7,0.1v1.6c-1.3,0.5-2.3,0.9-3.2,1.2c-0.9,0.3-1.8,0.4-2.8,0.4c-1.6,0-2.9-0.4-3.9-1.2
			c-1-0.8-1.8-1.9-2.3-3.4c-1,1.4-2.2,2.5-3.5,3.4c-1.3,0.8-3,1.2-5,1.2c-1.7,0-3.1-0.2-4.3-0.7c-1.2-0.4-2.2-1.1-2.9-1.9
			c-0.8-0.8-1.3-1.7-1.7-2.8c-0.4-1-0.5-2.1-0.5-3.1c0-1.4,0.2-2.7,0.7-3.8c0.5-1.1,1.1-1.9,2-2.7c0.9-0.7,1.9-1.4,3.1-1.9
			c1.2-0.5,2.5-0.9,4-1.3c1.8-0.4,3.3-0.8,4.4-1.1c1.1-0.3,1.9-0.7,2.4-1c0.5-0.3,0.9-0.7,1-1.1c0.2-0.4,0.2-0.9,0.2-1.4
			c0-1.6-0.6-2.9-1.7-4c-1.1-1.1-2.7-1.7-4.6-1.7c-0.7,0-1.5,0.1-2.3,0.3c-0.8,0.2-1.5,0.5-2.3,0.8c-0.7,0.4-1.4,0.7-2,1.1
			c-0.6,0.4-1,0.9-1.3,1.3h-0.5l-0.9-3.9C286.4,308.8,288.3,307.6,290.5,306.9z M300.1,323.8c0-1,0-1.8,0-2.6
			c-0.9,0.5-1.9,1-2.9,1.3c-1,0.3-2,0.7-2.8,1.2c-0.9,0.5-1.6,1.2-2.1,2.1c-0.5,0.9-0.8,2.1-0.8,3.8c0,1.6,0.3,2.9,1,3.7
			c0.7,0.9,1.6,1.3,2.7,1.3c1.4,0,2.6-0.5,3.5-1.6c0.9-1.1,1.3-2.7,1.3-4.9C300.1,326.3,300.1,324.8,300.1,323.8z"/>
		<path fill="#003974" d="M337.1,318c1.3-3.8,2.6-7.7,3.8-11.5c0.5,0.1,0.9,0.2,1.4,0.2c0.4,0.1,0.9,0.1,1.3,0.1
			c0.4,0,0.9,0,1.3-0.1c0.4-0.1,0.9-0.1,1.4-0.2c-0.7,1.7-1.6,3.7-2.6,5.9c-1,2.3-2.1,4.7-3.2,7.4c-1.1,2.7-2.3,5.6-3.4,8.7
			c-1.2,3.1-2.2,6.3-3.3,9.6c-0.6-0.1-1.2-0.1-1.8-0.1c-0.6,0-1.2,0-1.8,0c-0.6,0-1.2,0-1.8,0s-1.2,0-1.8,0.1
			c-0.9-2.5-1.9-5.3-2.9-8.3c-1.1-3-2.1-6-3.2-8.9c-1.1-2.9-2-5.6-3-8.2c-0.9-2.5-1.7-4.6-2.3-6.2c0.9,0.1,1.8,0.2,2.7,0.2
			c0.9,0.1,1.7,0.1,2.5,0.1c0.8,0,1.7,0,2.5-0.1c0.8-0.1,1.6-0.1,2.5-0.2c1.2,3.9,2.4,7.7,3.6,11.5c1.2,3.8,2.4,7.7,3.7,11.5h0.1
			C334.5,325.7,335.8,321.8,337.1,318z"/>
		<path fill="#003974" d="M355.2,290.4c1-1,2.2-1.5,3.7-1.5c1.4,0,2.7,0.5,3.7,1.5c1,1,1.5,2.2,1.5,3.7c0,1.4-0.5,2.7-1.5,3.7
			c-1,1-2.2,1.5-3.7,1.5c-1.4,0-2.7-0.5-3.7-1.5c-1-1-1.5-2.2-1.5-3.7C353.7,292.7,354.2,291.4,355.2,290.4z M354.3,313.6
			c-0.1-2.3-0.2-4.7-0.4-7.1c0.6,0.1,1.3,0.2,2.2,0.2c0.8,0.1,1.8,0.1,2.8,0.1c2.1,0,3.7-0.1,4.9-0.3c-0.2,2.4-0.4,4.7-0.4,7.1
			c-0.1,2.3-0.1,4.9-0.1,7.5v2.6c0,2.7,0,5.2,0.1,7.6c0.1,2.4,0.2,4.6,0.4,6.8c-0.6-0.1-1.3-0.1-2.1-0.1c-0.9,0-1.8,0-2.8,0
			c-1,0-1.9,0-2.8,0s-1.6,0-2.2,0.1c0.2-2.2,0.4-4.5,0.4-6.8c0.1-2.4,0.1-4.9,0.1-7.6v-2.6C354.4,318.4,354.4,315.9,354.3,313.6z"/>
		<path fill="#003974" d="M373.6,315.5c0.9-2.2,2.1-4,3.6-5.5c1.5-1.5,3.2-2.6,5.2-3.3c1.9-0.7,4-1.1,6-1.1c5.1,0,9.1,1.4,11.9,4.3
			c2.8,2.9,4.2,6.8,4.2,11.8c0,2.7-0.4,5.1-1.2,7.2c-0.8,2.1-1.9,4-3.3,5.5c-1.4,1.5-3.1,2.6-5.1,3.4c-2,0.7-4.1,1.1-6.5,1.1
			c-2,0-3.9-0.3-5.8-0.8c-1.9-0.5-3.6-1.4-5.2-2.7c-1.5-1.2-2.8-2.9-3.7-4.9c-0.9-2-1.4-4.5-1.4-7.4S372.7,317.7,373.6,315.5z
			 M393.3,311.8c-1-2.1-2.6-3.2-4.8-3.2c-2,0-3.6,1.2-4.8,3.5c-1.2,2.4-1.7,6.1-1.7,11.1c0,1.8,0.1,3.6,0.3,5.1
			c0.2,1.6,0.6,2.9,1.1,4.1c0.5,1.2,1.2,2.1,2,2.7c0.8,0.7,1.8,1,3.1,1c4.2,0,6.3-5.1,6.3-15.5C394.8,316.9,394.3,313.9,393.3,311.8
			z"/>
		<path fill="#003974" d="M421.9,314.7c1.1-3,2.5-5.2,4.1-6.7c1.6-1.4,3.6-2.1,5.8-2.1c0.2,0,0.4,0,0.6,0c0.2,0,0.3,0,0.5,0
			c-0.1,0.7-0.2,1.4-0.3,2.1c-0.1,0.7-0.1,1.6-0.1,2.6v2.1c0,0.4,0,0.7,0,1.1c0,0.4,0,0.8,0.1,1.1l-0.6,0.5
			c-0.4-0.3-0.9-0.5-1.5-0.7c-0.5-0.2-1.2-0.3-1.9-0.3c-2,0-3.5,0.6-4.7,1.9c-1.1,1.3-1.7,2.8-1.7,4.6v2.6c0,2.7,0,5.2,0.1,7.6
			c0.1,2.4,0.2,4.6,0.4,6.8c-0.6-0.1-1.3-0.1-2.1-0.1c-0.8,0-1.8,0-2.8,0s-1.9,0-2.7,0c-0.8,0-1.5,0-2.2,0.1
			c0.2-2.2,0.3-4.5,0.4-6.8c0.1-2.4,0.1-4.9,0.1-7.6v-2.6c0-2.7,0-5.2-0.1-7.5c-0.1-2.3-0.2-4.7-0.4-7.1c0.7,0.1,1.5,0.2,2.3,0.2
			c0.8,0.1,1.5,0.1,2.3,0.1c0.7,0,1.5,0,2.3-0.1c0.8-0.1,1.5-0.1,2.3-0.2l-0.2,8L421.9,314.7z"/>
		<path fill="#003974" d="M446.4,306.9c2.1-0.8,4.2-1.2,6.3-1.2c1.8,0,3.4,0.2,4.8,0.6c1.5,0.4,2.7,1,3.8,1.9c1.1,0.9,1.9,2,2.5,3.3
			c0.6,1.4,0.9,3,0.9,4.9c0,2.8,0,5.4-0.1,7.8c-0.1,2.4-0.1,4.8-0.1,7.1c0,1,0.1,1.9,0.2,2.5c0.2,0.6,0.4,1,0.7,1.3
			c0.3,0.3,0.7,0.5,1.2,0.6c0.5,0.1,1.1,0.1,1.7,0.1v1.6c-1.3,0.5-2.3,0.9-3.2,1.2c-0.9,0.3-1.8,0.4-2.8,0.4c-1.6,0-2.9-0.4-3.9-1.2
			c-1-0.8-1.8-1.9-2.3-3.4c-1,1.4-2.2,2.5-3.5,3.4c-1.3,0.8-3,1.2-5,1.2c-1.7,0-3.1-0.2-4.3-0.7c-1.2-0.4-2.2-1.1-2.9-1.9
			c-0.8-0.8-1.3-1.7-1.7-2.8c-0.4-1-0.5-2.1-0.5-3.1c0-1.4,0.2-2.7,0.7-3.8c0.5-1.1,1.1-1.9,2-2.7c0.9-0.7,1.9-1.4,3.1-1.9
			c1.2-0.5,2.5-0.9,4-1.3c1.8-0.4,3.3-0.8,4.4-1.1c1.1-0.3,1.9-0.7,2.4-1c0.5-0.3,0.9-0.7,1-1.1c0.2-0.4,0.2-0.9,0.2-1.4
			c0-1.6-0.6-2.9-1.7-4c-1.1-1.1-2.7-1.7-4.6-1.7c-0.7,0-1.5,0.1-2.3,0.3c-0.8,0.2-1.5,0.5-2.3,0.8c-0.7,0.4-1.4,0.7-2,1.1
			c-0.6,0.4-1,0.9-1.3,1.3h-0.5l-0.9-3.9C442.2,308.8,444.2,307.6,446.4,306.9z M456,323.8c0-1,0-1.8,0-2.6c-0.9,0.5-1.9,1-2.9,1.3
			c-1,0.3-2,0.7-2.8,1.2c-0.9,0.5-1.6,1.2-2.1,2.1c-0.5,0.9-0.8,2.1-0.8,3.8c0,1.6,0.3,2.9,1,3.7c0.7,0.9,1.6,1.3,2.7,1.3
			c1.4,0,2.6-0.5,3.5-1.6c0.9-1.1,1.3-2.7,1.3-4.9C456,326.3,456,324.8,456,323.8z"/>
		<path fill="#003974" d="M476.4,299.5c-0.1-3.6-0.2-7.2-0.4-10.9c0.6,0.1,1.3,0.2,2.2,0.2c0.9,0.1,1.8,0.1,2.8,0.1
			c1,0,1.9,0,2.8-0.1c0.9-0.1,1.6-0.1,2.2-0.2c-0.2,3.7-0.3,7.3-0.4,10.9c-0.1,3.6-0.1,7.5-0.1,11.8v4.3c0,4.3,0,8.2,0.1,11.8
			c0.1,3.6,0.2,7.2,0.4,10.7c-0.6-0.1-1.3-0.1-2.2-0.1c-0.9,0-1.8,0-2.8,0c-1,0-1.9,0-2.8,0c-0.9,0-1.6,0-2.2,0.1
			c0.2-3.6,0.3-7.1,0.4-10.7c0.1-3.6,0.1-7.5,0.1-11.8v-4.3C476.5,307,476.5,303.1,476.4,299.5z"/>
		<path fill="#003974" d="M545.5,316.2c-1.7-0.1-3.3-0.1-5-0.1c-1.7,0-3.3,0-5,0.1c-1.7,0-3.3,0.1-5,0.2v3.7c0,3.6,0,6.9,0.1,9.7
			c0.1,2.8,0.2,5.6,0.4,8.3c-0.7-0.1-1.6-0.1-2.4-0.1c-0.9,0-1.9,0-3,0c-1.1,0-2.1,0-3,0c-0.9,0-1.7,0-2.4,0.1
			c0.2-2.7,0.3-5.5,0.4-8.3c0.1-2.8,0.1-6.1,0.1-9.7v-8.9c0-3.6,0-6.9-0.1-9.7c-0.1-2.8-0.2-5.7-0.4-8.5c0.7,0.1,1.6,0.2,2.4,0.2
			c0.9,0.1,1.9,0.1,3,0.1c1.1,0,2.1,0,3-0.1c0.9-0.1,1.7-0.1,2.4-0.2c-0.2,2.9-0.4,5.7-0.4,8.4c-0.1,2.8-0.1,6-0.1,9.6
			c1.1,0,2.5,0.1,4.1,0.1c1.6,0,3.6,0,6,0s4.3,0,5.8,0c1.5,0,2.9-0.1,4.1-0.1c0-3.6,0-6.8-0.1-9.6c-0.1-2.8-0.2-5.6-0.4-8.4
			c0.7,0.1,1.6,0.2,2.4,0.2c0.9,0.1,1.9,0.1,3,0.1c1.1,0,2.1,0,3-0.1c0.9-0.1,1.7-0.1,2.4-0.2c-0.2,2.9-0.3,5.7-0.4,8.5
			c-0.1,2.8-0.1,6.1-0.1,9.7v8.9c0,3.6,0,6.9,0.1,9.7c0.1,2.8,0.2,5.6,0.4,8.3c-0.7-0.1-1.6-0.1-2.4-0.1c-0.9,0-1.9,0-3,0
			c-1.1,0-2.1,0-3,0c-0.9,0-1.7,0-2.4,0.1c0.2-2.7,0.3-5.5,0.4-8.3c0.1-2.8,0.1-6.1,0.1-9.7v-3.7
			C548.8,316.3,547.1,316.3,545.5,316.2z"/>
		<path fill="#003974" d="M580.8,327.4c0.4,1.5,0.9,2.9,1.6,4c0.7,1.1,1.6,2,2.8,2.6c1.1,0.6,2.4,1,3.9,1c3,0,5.7-1,8.1-3l0.8,0.6
			l-1.4,3.7c-1.1,0.8-2.4,1.5-3.9,2c-1.5,0.5-3.6,0.8-6,0.8c-2.1,0-4.2-0.3-6.1-0.9c-1.9-0.6-3.6-1.6-5.1-2.9
			c-1.5-1.4-2.6-3.1-3.5-5.2c-0.9-2.1-1.3-4.6-1.3-7.5c0-2.8,0.4-5.3,1.1-7.4c0.8-2.1,1.8-3.9,3.2-5.3c1.4-1.4,3-2.5,4.8-3.2
			c1.9-0.7,3.9-1,6.1-1c4.3,0,7.7,1.3,10,3.8c2.3,2.5,3.5,6.1,3.5,10.8v1.4c0,0.4,0,0.7-0.1,0.8h-18.9
			C580.2,324.2,580.4,325.8,580.8,327.4z M589.1,311.6c-0.7-2-1.9-3-3.6-3c-1,0-1.8,0.3-2.4,1c-0.7,0.7-1.2,1.5-1.6,2.5
			c-0.4,1-0.7,2.2-0.9,3.5c-0.2,1.3-0.3,2.6-0.4,3.8h10.1C590.3,316.2,589.9,313.6,589.1,311.6z"/>
		<path fill="#003974" d="M613.5,306.9c2.1-0.8,4.2-1.2,6.3-1.2c1.8,0,3.4,0.2,4.8,0.6c1.5,0.4,2.7,1,3.8,1.9c1.1,0.9,1.9,2,2.5,3.3
			c0.6,1.4,0.9,3,0.9,4.9c0,2.8,0,5.4-0.1,7.8c-0.1,2.4-0.1,4.8-0.1,7.1c0,1,0.1,1.9,0.2,2.5c0.2,0.6,0.4,1,0.7,1.3
			c0.3,0.3,0.7,0.5,1.2,0.6c0.5,0.1,1.1,0.1,1.7,0.1v1.6c-1.3,0.5-2.3,0.9-3.2,1.2c-0.9,0.3-1.8,0.4-2.8,0.4c-1.6,0-2.9-0.4-3.9-1.2
			c-1-0.8-1.8-1.9-2.3-3.4c-1,1.4-2.2,2.5-3.5,3.4c-1.3,0.8-3,1.2-5,1.2c-1.7,0-3.1-0.2-4.3-0.7c-1.2-0.4-2.2-1.1-2.9-1.9
			c-0.8-0.8-1.3-1.7-1.7-2.8c-0.4-1-0.5-2.1-0.5-3.1c0-1.4,0.2-2.7,0.7-3.8c0.5-1.1,1.1-1.9,2-2.7c0.9-0.7,1.9-1.4,3.1-1.9
			c1.2-0.5,2.5-0.9,4-1.3c1.8-0.4,3.3-0.8,4.4-1.1c1.1-0.3,1.9-0.7,2.4-1c0.5-0.3,0.9-0.7,1-1.1c0.2-0.4,0.2-0.9,0.2-1.4
			c0-1.6-0.6-2.9-1.7-4c-1.1-1.1-2.7-1.7-4.6-1.7c-0.7,0-1.5,0.1-2.3,0.3c-0.8,0.2-1.5,0.5-2.3,0.8c-0.7,0.4-1.4,0.7-2,1.1
			c-0.6,0.4-1,0.9-1.3,1.3h-0.5l-0.9-3.9C609.4,308.8,611.4,307.6,613.5,306.9z M623.2,323.8c0-1,0-1.8,0-2.6
			c-0.9,0.5-1.9,1-2.9,1.3c-1,0.3-2,0.7-2.8,1.2c-0.9,0.5-1.6,1.2-2.1,2.1c-0.5,0.9-0.8,2.1-0.8,3.8c0,1.6,0.3,2.9,1,3.7
			c0.7,0.9,1.6,1.3,2.7,1.3c1.4,0,2.6-0.5,3.5-1.6c0.9-1.1,1.3-2.7,1.3-4.9C623.1,326.3,623.1,324.8,623.2,323.8z"/>
		<path fill="#003974" d="M643.5,299.5c-0.1-3.6-0.2-7.2-0.4-10.9c0.6,0.1,1.3,0.2,2.2,0.2c0.9,0.1,1.8,0.1,2.8,0.1
			c1,0,1.9,0,2.8-0.1c0.9-0.1,1.6-0.1,2.2-0.2c-0.2,3.7-0.3,7.3-0.4,10.9c-0.1,3.6-0.1,7.5-0.1,11.8v4.3c0,4.3,0,8.2,0.1,11.8
			c0.1,3.6,0.2,7.2,0.4,10.7c-0.6-0.1-1.3-0.1-2.2-0.1c-0.9,0-1.8,0-2.8,0c-1,0-1.9,0-2.8,0c-0.9,0-1.6,0-2.2,0.1
			c0.2-3.6,0.3-7.1,0.4-10.7c0.1-3.6,0.1-7.5,0.1-11.8v-4.3C643.6,307,643.6,303.1,643.5,299.5z"/>
		<path fill="#003974" d="M679.5,308.6c0,0.6,0.1,1.1,0.2,1.6l-5.8-0.1c-0.1,1-0.2,2.2-0.2,3.5c-0.1,1.3-0.1,2.7-0.1,4
			c0,1.4,0,2.7-0.1,3.9c0,1.3,0,2.3,0,3.2c0,2.3,0.1,4.1,0.2,5.5c0.1,1.4,0.3,2.5,0.6,3.2c0.3,0.7,0.6,1.2,1.1,1.5
			c0.5,0.3,1.1,0.4,1.8,0.4c0.8,0,1.4-0.1,1.8-0.2c0.4-0.1,0.8-0.3,1.2-0.5v2.7c-0.9,0.4-2,0.7-3.3,1.1c-1.3,0.3-2.6,0.5-3.9,0.5
			c-5.6,0-8.3-3.3-8.3-10c0-1.3,0-2.7,0.1-4.3c0-1.6,0.1-3.2,0.2-4.9c0.1-1.7,0.1-3.4,0.2-5c0-1.6,0.1-3.2,0.1-4.6l-4.6,0.1
			c0.1-0.5,0.2-1.1,0.2-1.6c0-0.5-0.1-1.1-0.2-1.8l4.6,0.2c0-1.4,0-2.6-0.1-3.8c0-1.2-0.1-2.6-0.2-4.3c1.5-0.6,3-1.3,4.5-1.9
			c1.5-0.7,3-1.4,4.5-2.1l0.7,0.5c-0.1,0.7-0.2,1.5-0.2,2.5c-0.1,0.9-0.1,1.9-0.2,3c-0.1,1-0.1,2.1-0.1,3.2c0,1.1,0,2.1,0,3.1
			l5.8-0.1C679.6,307.5,679.5,308.1,679.5,308.6z"/>
		<path fill="#003974" d="M687.6,299.5c-0.1-3.6-0.2-7.2-0.4-10.9c0.6,0.1,1.3,0.2,2.2,0.2c0.9,0.1,1.8,0.1,2.8,0.1
			c1,0,1.9,0,2.8-0.1c0.9-0.1,1.6-0.1,2.2-0.2c-0.2,3.7-0.3,7.3-0.4,10.9c-0.1,3.6-0.1,7.5-0.1,11.8l0.1,0.1
			c1.1-1.8,2.5-3.3,4.2-4.3c1.6-1,3.5-1.5,5.6-1.5c3.3,0,5.8,1,7.6,2.9c1.8,1.9,2.7,5,2.7,9.2c0,2.2,0,4.2-0.1,5.9
			c-0.1,1.7-0.1,3.4-0.1,5.1c0,1.4,0,2.9,0.1,4.6c0.1,1.6,0.1,3.2,0.2,4.8c-0.6-0.1-1.3-0.1-2.2-0.1c-0.9,0-1.8,0-2.8,0
			c-1,0-1.9,0-2.8,0c-0.9,0-1.6,0-2.2,0.1c0.3-2.3,0.5-5,0.6-8.1c0.1-3.1,0.1-6.6,0.1-10.6c0-2.8-0.5-4.8-1.4-6.1
			c-0.9-1.3-2.3-1.9-4-1.9c-2,0-3.4,0.9-4.3,2.6c-0.9,1.7-1.4,4.1-1.4,7.1v2.6c0,0.6,0,1.5,0,2.7c0,1.2,0.1,2.4,0.1,3.8
			c0,1.4,0.1,2.8,0.2,4.2c0.1,1.4,0.1,2.7,0.2,3.7c-0.6-0.1-1.3-0.1-2.2-0.1c-0.9,0-1.8,0-2.8,0c-1,0-1.9,0-2.8,0
			c-0.9,0-1.6,0-2.2,0.1c0.2-3.6,0.3-7.1,0.4-10.7c0.1-3.6,0.1-7.5,0.1-11.8v-4.3C687.7,307,687.7,303.1,687.6,299.5z"/>
		<path fill="#003974" d="M762.4,296.2c-2,0-3.7,0.6-4.9,1.8c-1.3,1.2-1.9,2.6-1.9,4.1c0,1.6,0.5,2.9,1.5,4c1,1,2.2,2,3.7,2.8
			c1.5,0.8,3.1,1.6,4.8,2.4c1.7,0.8,3.3,1.7,4.8,2.8c1.5,1.1,2.7,2.5,3.7,4.1c1,1.6,1.5,3.7,1.5,6.1c0,2.2-0.4,4.2-1.2,6
			s-2,3.4-3.5,4.7c-1.5,1.3-3.4,2.3-5.5,3c-2.1,0.7-4.5,1-7.1,1c-2.4,0-4.5-0.3-6.3-0.8c-1.9-0.5-3.3-1.1-4.2-1.9
			c0.4-1.5,0.8-2.9,1.1-4.2c0.3-1.3,0.6-2.7,0.8-4.1h1.3c0.2,1,0.5,1.9,1,2.7c0.5,0.9,1.1,1.6,1.8,2.3c0.7,0.7,1.6,1.2,2.7,1.5
			c1.1,0.4,2.2,0.6,3.6,0.6c2.6,0,4.6-0.7,5.8-2c1.2-1.3,1.9-2.9,1.9-4.7c0-1.7-0.5-3-1.4-4.1c-1-1.1-2.2-2-3.6-2.8
			c-1.4-0.8-3-1.6-4.7-2.4c-1.7-0.8-3.3-1.7-4.7-2.8c-1.4-1.1-2.7-2.4-3.6-4c-1-1.6-1.4-3.6-1.4-6.1c0-2.3,0.4-4.3,1.2-6
			c0.8-1.8,1.9-3.2,3.3-4.4c1.4-1.2,2.9-2.1,4.7-2.7c1.8-0.6,3.7-0.9,5.6-0.9c2.4,0,4.4,0.3,6.2,0.9c1.8,0.6,3.3,1.4,4.6,2.4
			c-0.4,1-0.7,2-1,2.9c-0.3,0.9-0.6,2.1-1.1,3.6h-1C769,298.1,766.3,296.2,762.4,296.2z"/>
		<path fill="#003974" d="M784.3,315.5c0.9-2.2,2.1-4,3.6-5.5c1.5-1.5,3.2-2.6,5.2-3.3c2-0.7,4-1.1,6-1.1c5.1,0,9.1,1.4,11.9,4.3
			c2.8,2.9,4.2,6.8,4.2,11.8c0,2.7-0.4,5.1-1.2,7.2c-0.8,2.1-1.9,4-3.3,5.5c-1.4,1.5-3.1,2.6-5.1,3.4c-2,0.7-4.1,1.1-6.5,1.1
			c-2,0-3.9-0.3-5.8-0.8c-1.9-0.5-3.6-1.4-5.2-2.7c-1.5-1.2-2.8-2.9-3.7-4.9c-0.9-2-1.4-4.5-1.4-7.4S783.4,317.7,784.3,315.5z
			 M804,311.8c-1-2.1-2.6-3.2-4.8-3.2c-2,0-3.6,1.2-4.8,3.5c-1.2,2.4-1.7,6.1-1.7,11.1c0,1.8,0.1,3.6,0.3,5.1
			c0.2,1.6,0.6,2.9,1.1,4.1c0.5,1.2,1.2,2.1,2,2.7c0.8,0.7,1.8,1,3.1,1c4.2,0,6.3-5.1,6.3-15.5C805.5,316.9,805,313.9,804,311.8z"/>
		<path fill="#003974" d="M839.7,307.8c0,0.3-0.1,0.5-0.1,0.9c0,0.3,0,0.5,0.1,0.8c0,0.3,0.1,0.6,0.1,0.8l-6.2-0.1v5.5
			c0,4.3,0,8.2,0.1,11.8c0.1,3.6,0.2,7.2,0.4,10.7c-0.6-0.1-1.3-0.1-2.2-0.1c-0.9,0-1.8,0-2.8,0c-1,0-1.9,0-2.8,0
			c-0.9,0-1.6,0-2.2,0.1c0.2-3.6,0.3-7.1,0.4-10.7c0.1-3.6,0.1-7.5,0.1-11.8v-5.4l-4.6,0.1c0.1-0.5,0.2-1.1,0.2-1.6
			c0-0.5-0.1-1.1-0.2-1.8l4.6,0.2c0.4-2.7,1-5.1,1.6-7.4c0.7-2.3,1.5-4.3,2.6-5.9c1.1-1.7,2.4-3,4-3.9c1.6-0.9,3.6-1.4,6-1.4
			c0.7,0,1.7,0.1,2.8,0.3c-0.1,0.7-0.2,1.7-0.2,2.9c0,1.2,0,2.4,0,3.5v2.2l-0.8,0.3c-0.9-0.5-1.9-0.9-3-1.3
			c-1.1-0.4-2.2-0.6-3.3-0.6c-1.3,0-2.2,0.2-2.9,0.6c-0.7,0.4-1,1.1-1,2.2c0,1,0.3,2.3,0.9,3.9c0.6,1.6,1.3,3.1,2.2,4.7l6.2-0.1
			C839.8,307.2,839.8,307.5,839.7,307.8z"/>
		<path fill="#003974" d="M864.6,308.6c0,0.6,0.1,1.1,0.2,1.6l-5.8-0.1c-0.1,1-0.2,2.2-0.2,3.5c-0.1,1.3-0.1,2.7-0.1,4
			c0,1.4,0,2.7-0.1,3.9c0,1.3,0,2.3,0,3.2c0,2.3,0.1,4.1,0.2,5.5c0.1,1.4,0.3,2.5,0.6,3.2c0.3,0.7,0.6,1.2,1.1,1.5
			c0.5,0.3,1.1,0.4,1.8,0.4c0.8,0,1.4-0.1,1.8-0.2c0.4-0.1,0.8-0.3,1.2-0.5v2.7c-0.9,0.4-2,0.7-3.3,1.1c-1.3,0.3-2.6,0.5-3.9,0.5
			c-5.6,0-8.3-3.3-8.3-10c0-1.3,0-2.7,0.1-4.3c0-1.6,0.1-3.2,0.2-4.9c0.1-1.7,0.1-3.4,0.2-5c0-1.6,0.1-3.2,0.1-4.6l-4.6,0.1
			c0.1-0.5,0.2-1.1,0.2-1.6c0-0.5-0.1-1.1-0.2-1.8l4.6,0.2c0-1.4,0-2.6-0.1-3.8c0-1.2-0.1-2.6-0.2-4.3c1.5-0.6,3-1.3,4.5-1.9
			c1.5-0.7,3-1.4,4.5-2.1l0.7,0.5c-0.1,0.7-0.2,1.5-0.2,2.5c-0.1,0.9-0.1,1.9-0.2,3c-0.1,1-0.1,2.1-0.1,3.2c0,1.1,0,2.1,0,3.1
			l5.8-0.1C864.7,307.5,864.6,308.1,864.6,308.6z"/>
		<path fill="#003974" d="M914.8,306.5c1,0.2,1.8,0.3,2.6,0.3c0.4,0,0.9,0,1.3-0.1c0.4-0.1,0.9-0.1,1.5-0.2
			c-0.3,0.6-0.7,1.5-1.2,2.8c-0.5,1.3-1.1,2.9-1.7,4.7c-0.6,1.8-1.3,3.8-2,5.9c-0.7,2.1-1.4,4.3-2.1,6.4c-0.7,2.1-1.4,4.3-2.1,6.3
			c-0.7,2.1-1.3,3.9-1.8,5.5c-0.6-0.1-1.2-0.1-1.8-0.1c-0.6,0-1.2,0-1.8,0s-1.2,0-1.8,0c-0.6,0-1.2,0-1.8,0.1
			c-0.5-1.7-1.1-3.5-1.6-5.4c-0.6-1.9-1.1-3.8-1.7-5.7c-0.6-1.9-1.1-3.7-1.6-5.5c-0.5-1.8-1-3.4-1.4-5h-0.1
			c-1.1,3.7-2.3,7.3-3.4,10.8c-1.1,3.6-2.2,7.1-3.2,10.6c-0.6-0.1-1.2-0.1-1.9-0.1c-0.6,0-1.3,0-1.9,0c-0.6,0-1.2,0-1.9,0
			s-1.3,0-2,0.1c-0.5-1.6-1-3.5-1.7-5.6c-0.6-2.1-1.3-4.3-2-6.5c-0.7-2.2-1.4-4.4-2.1-6.5c-0.7-2.1-1.3-4.1-1.9-5.9
			c-0.6-1.8-1.1-3.3-1.5-4.6c-0.4-1.3-0.7-2.1-0.9-2.6c1,0.1,1.9,0.2,2.7,0.2c0.8,0.1,1.6,0.1,2.5,0.1c0.8,0,1.6,0,2.4-0.1
			c0.8-0.1,1.6-0.1,2.4-0.2c1.1,3.8,2.1,7.7,3.3,11.7c1.1,4,2.2,7.7,3.2,11h0.1c1.3-3.9,2.4-7.6,3.5-11.4c1.1-3.7,2.1-7.5,3.2-11.4
			c0.6,0.1,1.2,0.2,1.8,0.2c0.6,0.1,1.2,0.1,1.8,0.1c0.6,0,1.2,0,1.8-0.1c0.6-0.1,1.2-0.1,1.8-0.2c1.1,3.9,2.1,7.7,3.2,11.4
			c1.1,3.7,2.2,7.5,3.4,11.4h0.1C910.6,321.6,912.8,314.1,914.8,306.5z"/>
		<path fill="#003974" d="M932.8,306.9c2.1-0.8,4.2-1.2,6.3-1.2c1.8,0,3.4,0.2,4.8,0.6c1.5,0.4,2.7,1,3.8,1.9c1.1,0.9,1.9,2,2.5,3.3
			c0.6,1.4,0.9,3,0.9,4.9c0,2.8,0,5.4-0.1,7.8c-0.1,2.4-0.1,4.8-0.1,7.1c0,1,0.1,1.9,0.2,2.5c0.2,0.6,0.4,1,0.7,1.3
			c0.3,0.3,0.7,0.5,1.2,0.6c0.5,0.1,1.1,0.1,1.7,0.1v1.6c-1.3,0.5-2.3,0.9-3.2,1.2c-0.9,0.3-1.8,0.4-2.8,0.4c-1.6,0-2.9-0.4-3.9-1.2
			c-1-0.8-1.8-1.9-2.3-3.4c-1,1.4-2.2,2.5-3.5,3.4c-1.3,0.8-3,1.2-5,1.2c-1.7,0-3.1-0.2-4.3-0.7c-1.2-0.4-2.2-1.1-2.9-1.9
			c-0.8-0.8-1.3-1.7-1.7-2.8c-0.4-1-0.5-2.1-0.5-3.1c0-1.4,0.2-2.7,0.7-3.8c0.5-1.1,1.1-1.9,2-2.7c0.9-0.7,1.9-1.4,3.1-1.9
			c1.2-0.5,2.5-0.9,4-1.3c1.8-0.4,3.3-0.8,4.4-1.1c1.1-0.3,1.9-0.7,2.4-1c0.5-0.3,0.9-0.7,1-1.1c0.2-0.4,0.2-0.9,0.2-1.4
			c0-1.6-0.6-2.9-1.7-4c-1.1-1.1-2.7-1.7-4.6-1.7c-0.7,0-1.5,0.1-2.3,0.3c-0.8,0.2-1.5,0.5-2.3,0.8c-0.7,0.4-1.4,0.7-2,1.1
			c-0.6,0.4-1,0.9-1.3,1.3h-0.5l-0.9-3.9C928.7,308.8,930.7,307.6,932.8,306.9z M942.4,323.8c0-1,0-1.8,0-2.6
			c-0.9,0.5-1.9,1-2.9,1.3c-1,0.3-2,0.7-2.8,1.2c-0.9,0.5-1.6,1.2-2.1,2.1c-0.5,0.9-0.8,2.1-0.8,3.8c0,1.6,0.3,2.9,1,3.7
			c0.7,0.9,1.6,1.3,2.7,1.3c1.4,0,2.6-0.5,3.5-1.6c0.9-1.1,1.3-2.7,1.3-4.9C942.4,326.3,942.4,324.8,942.4,323.8z"/>
		<path fill="#003974" d="M971.2,314.7c1.1-3,2.5-5.2,4.1-6.7c1.6-1.4,3.5-2.1,5.8-2.1c0.2,0,0.4,0,0.6,0c0.2,0,0.3,0,0.5,0
			c-0.1,0.7-0.2,1.4-0.3,2.1c-0.1,0.7-0.1,1.6-0.1,2.6v2.1c0,0.4,0,0.7,0,1.1c0,0.4,0,0.8,0.1,1.1l-0.6,0.5
			c-0.4-0.3-0.9-0.5-1.5-0.7c-0.5-0.2-1.2-0.3-1.9-0.3c-2,0-3.5,0.6-4.7,1.9c-1.1,1.3-1.7,2.8-1.7,4.6v2.6c0,2.7,0,5.2,0.1,7.6
			c0.1,2.4,0.2,4.6,0.4,6.8c-0.6-0.1-1.3-0.1-2.1-0.1c-0.8,0-1.8,0-2.8,0c-1,0-1.9,0-2.7,0c-0.8,0-1.5,0-2.2,0.1
			c0.2-2.2,0.3-4.5,0.4-6.8c0.1-2.4,0.1-4.9,0.1-7.6v-2.6c0-2.7,0-5.2-0.1-7.5c-0.1-2.3-0.2-4.7-0.4-7.1c0.7,0.1,1.5,0.2,2.3,0.2
			c0.8,0.1,1.5,0.1,2.3,0.1c0.7,0,1.5,0,2.3-0.1c0.8-0.1,1.5-0.1,2.3-0.2l-0.2,8L971.2,314.7z"/>
		<path fill="#003974" d="M998.8,327.4c0.4,1.5,0.9,2.9,1.6,4c0.7,1.1,1.6,2,2.8,2.6c1.1,0.6,2.4,1,3.9,1c3,0,5.7-1,8.1-3l0.8,0.6
			l-1.4,3.7c-1.1,0.8-2.4,1.5-3.9,2c-1.5,0.5-3.6,0.8-6,0.8c-2.1,0-4.2-0.3-6.1-0.9c-1.9-0.6-3.6-1.6-5.1-2.9
			c-1.5-1.4-2.6-3.1-3.5-5.2c-0.9-2.1-1.3-4.6-1.3-7.5c0-2.8,0.4-5.3,1.1-7.4c0.8-2.1,1.8-3.9,3.2-5.3c1.4-1.4,3-2.5,4.8-3.2
			c1.9-0.7,3.9-1,6.1-1c4.3,0,7.7,1.3,10,3.8c2.3,2.5,3.5,6.1,3.5,10.8v1.4c0,0.4,0,0.7-0.1,0.8h-18.9
			C998.3,324.2,998.4,325.8,998.8,327.4z M1007.2,311.6c-0.7-2-1.9-3-3.6-3c-1,0-1.8,0.3-2.4,1c-0.7,0.7-1.2,1.5-1.6,2.5
			c-0.4,1-0.7,2.2-0.9,3.5c-0.2,1.3-0.3,2.6-0.4,3.8h10.1C1008.3,316.2,1007.9,313.6,1007.2,311.6z"/>
	</g>
</g>
</svg>
