<?xml version="1.0" encoding="utf-8"?>
<!-- Generator: Adobe Illustrator 18.1.1, SVG Export Plug-In . SVG Version: 6.00 Build 0)  -->
<!DOCTYPE svg PUBLIC "-//W3C//DTD SVG 1.1//EN" "http://www.w3.org/Graphics/SVG/1.1/DTD/svg11.dtd">
<svg version="1.1" xmlns="http://www.w3.org/2000/svg" xmlns:xlink="http://www.w3.org/1999/xlink" x="0px" y="0px"
	 viewBox="0 0 792 612" enable-background="new 0 0 792 612" xml:space="preserve">
<g id="Layer_1">
</g>
<g id="base_circle" display="none">
	
		<circle display="inline" fill="none" stroke="#010101" stroke-width="22" stroke-miterlimit="10" cx="552.8" cy="305.3" r="166.6"/>
</g>
<g id="skylines" display="none">
	<g display="inline">
		<path fill-rule="evenodd" clip-rule="evenodd" d="M423.4,230.2c0.3-0.5,0.5-1.1,0.8-1.6c0.4,0.2,0.8,0.4,1.2,0.6
			c1.3-2.5,2.6-5,3.9-7.6c0.2-0.3,0.6-0.5,1.1-0.5c0.2-0.2,0.6-0.2,0.9,0c0.3,0.2,0.6,0.5,0.5,0.8c0.3,0.4,0.4,0.8,0.2,1.2
			c-1.7,3.1-3.4,6.2-5.2,9.3c0.1,0,0.2,0.1,0.2,0.1c0.3-0.5,0.6-1,0.8-1.5c0.1,0,0.1,0.1,0.2,0.1c0,0,0.1-0.1,0.1-0.1
			c0.2-0.3,0.3-0.5,0.5-0.8c0.1,0,0.1,0.1,0.2,0.1c-0.2,0.3-0.3,0.6-0.5,0.9c0.1,0.1,0.2,0.1,0.3,0.2c-0.3,0.5-0.6,1-0.9,1.5
			c0.2,0.1,0.5,0.3,0.7,0.4c-0.1,0.2-0.2,0.3-0.3,0.5c0,0,0,0.1-0.1,0.1c-0.3,0.6-0.7,1.1-1,1.7c0,0,0,0,0.1,0
			c0.1-0.1,0.2-0.3,0.2-0.4c0.1,0,0.1,0.1,0.2,0.1c-0.1,0.1-0.2,0.3-0.2,0.4c0.1,0.1,0.2,0.1,0.3,0.2c0.2-0.3,0.3-0.6,0.5-0.9
			c0.1,0.1,0.2,0.1,0.3,0.2c-0.2,0.3-0.3,0.6-0.5,0.9c0.3,0.2,0.7,0.4,1,0.6c0.1-0.2,0.2-0.3,0.3-0.5c0.1,0,0.1,0.1,0.2,0.1
			c-0.1,0.2-0.2,0.3-0.3,0.5c0.1,0.1,0.2,0.1,0.3,0.2c-0.1,0.2-0.3,0.4-0.4,0.7c0,0,0,0,0.1,0c0.3-0.4,0.5-0.8,0.8-1.2
			c0.1,0.1,0.2,0.2,0.4,0.2c0.4-0.7,0.8-1.3,1.3-2c0.8,0.5,1.6,1.1,2.4,1.6c0-0.1,0.1-0.1,0.1-0.2c0,0,0,0-0.1,0
			c0-0.1,0.1-0.1,0.2-0.1c0,0,0.1,0.1,0.3,0.2c0.1-0.1,0.1-0.1,0.2-0.2c0.2,0.1,0.4,0.2,0.6,0.4c0.6,0.4,0.7,0.5,1.5,1
			c0,0.1-0.1,0.2-0.2,0.2c0.1,0.1,0.3,0.1,0.3,0.3c-0.3,0.3-0.5,0.7-0.7,1c-0.3,0.4-0.6,0.8-0.8,1.1c0.1,0.1,0.3,0.2,0.4,0.3
			c-0.3,0.5-0.7,1-1,1.5c0.1,0.1,0.1,0.1,0.2,0.2c0.6,0.4,1.1,0.8,1.6,1.3c0.1,0.1,0.1,0.1,0.2,0.1c0.2-0.2,0.3-0.4,0.5-0.6
			c0.1,0,0.2,0,0.3,0c0.2,0,0.4,0,0.6,0c0,0,0,0,0.1,0c0,0.1,0.1,0.1,1.3,1.1c0,0,0.1-0.1,0.1-0.1c0.1,0.1,0,0.1,0,0.2
			c0.1,0.1,0.2,0.2,0.3,0.3c1-1.1,1.9-2.2,2.9-3.3c0.1,0.1,0.2,0.2,0.4,0.3c0.2-0.2,0.4-0.4,0.6-0.6c0.1,0.1,0.2,0.1,0.2,0.2
			c-0.2,0.2-0.4,0.4-0.6,0.6c0.2,0.1,0.3,0.3,0.5,0.4c0.1-0.1,0.1-0.1,0.2-0.2c0,0,0.1,0.1,0.1,0.1c-0.1,0.1-0.1,0.1-0.2,0.2
			c0.6,0.5,1.2,1.1,1.7,1.6c-0.1,0.1-0.1,0.1-0.2,0.2c0,0.3,0.1,0.6,0.1,0.8c0.1,0.1,0.1,0.1,0.2,0.2c-0.9,0.9-1.8,1.8-2.7,2.7
			c0.1,0.1,0.2,0.2,0.2,0.2c-1.1,1.1-2.2,2.2-3.2,3.2c-4.6-4.6-9.6-8.5-15-11.6c-3.1-1.9-6.4-3.5-9.7-4.8
			c-27.2-11.1-59.5-5.6-81.5,16.4c-1-1-2.1-2.1-3.1-3.1c0.1-0.1,0.1-0.1,0.2-0.2c-0.2-0.2-0.5-0.5-0.7-0.7c0.1-0.1,0.1-0.1,0.2-0.2
			c0.2,0.2,0.5,0.5,0.7,0.7c0.3-0.3,0.6-0.6,0.9-0.9c-0.1-0.1-0.2-0.3-0.4-0.4c0,0,0.1-0.1,0.1-0.1c0.1,0.1,0.2,0.3,0.4,0.4
			c0.1-0.1,0.2-0.2,0.3-0.3c0.2,0.2,0.4,0.4,0.5,0.6c0,0,0,0,0.1-0.1c-0.3-0.3-0.6-0.7-1-1c0.1-0.1,0.2-0.2,0.3-0.3
			c-0.5-0.6-1.1-1.1-1.6-1.7c0.7-0.7,1.5-1.3,2.2-2c-0.1-0.1-0.1-0.1-0.2-0.2c0,0,0,0,0,0.1c0-0.1-0.1-0.1-0.1-0.2
			c0,0,0.1-0.1,0.3-0.3c-0.1-0.1-0.1-0.1-0.1-0.2c0.1-0.1,0.3-0.4,0.5-0.5c0.5-0.5,0.7-0.6,1.4-1.2c0.1,0,0.1,0.1,0.2,0.2
			c0.2-0.1,0.2-0.3,0.4-0.2c0.2,0.3,0.5,0.7,0.8,1c0.3,0.4,0.6,0.7,0.9,1.1c0.1-0.1,0.3-0.2,0.4-0.3c0.4,0.4,0.8,0.9,1.2,1.3
			c0.1-0.1,0.1-0.1,0.2-0.2c0.5-0.4,1.1-0.9,1.6-1.3c0.1-0.1,0.1-0.1,0.2-0.2c-0.1-0.2-0.3-0.4-0.5-0.6c0-0.1,0-0.2,0.1-0.3
			c0.1-0.2,0.1-0.4,0.1-0.6c0,0,0,0,0-0.1c0.1,0,0.1,0,1.3-0.9c0,0-0.1-0.1-0.1-0.2c0.1-0.1,0.1,0,0.2,0.1c0.1-0.1,0.2-0.2,0.4-0.3
			c-0.8-1.2-1.7-2.4-2.5-3.7c0.1-0.1,0.3-0.2,0.4-0.3c-0.2-0.2-0.3-0.5-0.5-0.7c0.1-0.1,0.2-0.1,0.3-0.2c0.2,0.2,0.3,0.5,0.5,0.7
			c0.2-0.1,0.3-0.2,0.5-0.3c0-0.1-0.1-0.1-0.1-0.2c0,0,0.1-0.1,0.1-0.1c0,0.1,0.1,0.1,0.1,0.2c0.6-0.4,1.3-0.8,1.9-1.2
			c0,0.1,0.1,0.1,0.1,0.2c0.3,0,0.5,0.1,0.8,0.1c0.1,0,0.1-0.1,0.2-0.1c0.7,1.1,1.3,2.2,2,3.3c0.1-0.1,0.2-0.1,0.4-0.2
			c0,0-0.1-0.1-0.1-0.1c-0.1-0.2-0.2-0.3-0.3-0.5c0.5-0.3,0.9-0.5,1.4-0.8c0.1,0.2,0.2,0.4,0.4,0.6c0.2-0.1,0.3-0.2,0.5-0.3
			c-0.4-0.6-0.7-1.3-1.1-1.9c0.3-0.2,0.7-0.4,1-0.6c0,0,0-0.1,0-0.1c-2.2-4-4.3-8-6.5-12c0.1-0.1,0.3-0.1,0.4-0.2
			c-0.1-0.1-0.2-0.3-0.2-0.4c1.2-0.6,2.4-1.2,3.6-1.8c0.1,0.2,0.1,0.3,0.2,0.5c0.2-0.1,0.5-0.2,0.7-0.3c0.1,0.2,0.2,0.4,0.3,0.6
			c0.4-0.2,0.8-0.4,1.2-0.6c0,0.1,0.1,0.2,0.1,0.2c0.7-0.3,1.3-0.6,2-0.9c0,0.1,0.1,0.2,0.1,0.3c0.1,0.2,0.1,0.3,0.2,0.5
			c1.6,3.8,3.2,7.6,4.8,11.3c0.1-0.1,0.2-0.1,0.4-0.2c0.2,0.6,0.5,1.1,0.7,1.7c0.1-0.1,0.3-0.1,0.4-0.2c-0.1-0.3-0.3-0.6-0.4-1
			c0.1,0,0.2-0.1,0.3-0.1c-0.1-0.2-0.2-0.4-0.3-0.6c0.1,0,0.2-0.1,0.2-0.1c0.1,0.2,0.2,0.4,0.3,0.6c0.4-0.2,0.9-0.4,1.3-0.5
			c-0.1-0.4-0.3-0.8-0.4-1.1c0.1,0,0.2-0.1,0.3-0.1c0.1,0.4,0.3,0.8,0.4,1.1c0.1,0,0.2-0.1,0.3-0.1c-0.1-0.2-0.2-0.4-0.2-0.6
			c0.1,0,0.1,0,0.2-0.1c0.1,0.2,0.2,0.4,0.2,0.6c0.1,0,0.2-0.1,0.3-0.1c0.1,0.3,0.3,0.7,0.4,1c0.1-0.1,0.3-0.1,0.4-0.2
			c-0.1-0.3-0.2-0.7-0.4-1c0.2-0.4,0.5-0.7,0.7-1.1c-0.2-0.5-0.4-1.1-0.6-1.6c0.2-0.1,0.4-0.1,0.6-0.2c-0.2-0.6-0.4-1.2-0.6-1.8
			c1.5-0.5,3-1,4.5-1.4c0.2,0.6,0.3,1.2,0.5,1.7c0.1,0,0.3-0.1,0.4-0.1c0,0.1,0,0.1,0.1,0.2c0.5-0.1,0.9-0.2,1.4-0.4
			c0.2,0.7,0.4,1.4,0.5,2.1c0.4,0.4,0.7,0.9,1.1,1.3c0.4-0.1,0.9-0.2,1.3-0.3c-0.6-2.9-1.3-5.7-1.9-8.6c0.2,0,0.3-0.1,0.5-0.1
			c-0.1-0.2-0.1-0.5-0.2-0.7c0.1,0,0.2,0,0.2-0.1c0-0.1,0-0.2-0.1-0.3c0.5-0.1,0.9-0.2,1.4-0.3c-0.2-0.8-0.3-1.7-0.5-2.5
			c0.1,0,0.2,0,0.3-0.1c0,0,0,0,0-0.1c-0.1-0.3-0.1-0.7-0.2-1c0.1,0,0.1,0,0.2,0c0.1,0.4,0.1,0.7,0.2,1.1c0.2,0,0.4-0.1,0.6-0.1
			c0.2,0.8,0.3,1.7,0.5,2.5c0.3-0.1,0.6-0.1,0.9-0.2c0.1,0.5,0.2,1.1,0.3,1.6c0,0,0.1,0,0.1,0c0.1,0.3,0.1,0.6,0.2,0.9
			c0.1,0,0.3,0,0.4-0.1c0.5,2.7,0.9,5.3,1.4,8c0.4-0.1,0.7-0.1,1.1-0.2c0-0.1,0-0.3-0.1-0.4c0.1-0.2,0.2-0.5,0.3-0.7
			c-0.1-0.5-0.2-1-0.2-1.5c0.4-0.1,0.8-0.1,1.2-0.2c0-0.1,0-0.3-0.1-0.4c0.1,0,0.2,0,0.4,0c0-0.1,0-0.1,0-0.2c1.3-0.2,2.7-0.3,4-0.4
			c0,0.5,0.1,1,0.1,1.5c0.3,0.2,0.6,0.4,0.8,0.6c0,0.3,0,0.5,0.1,0.8c0.1,0,0.3,0,0.4,0c0-0.3,0-0.6-0.1-0.9c0.1,0,0.2,0,0.3,0
			c0-0.2,0-0.3,0-0.5c0.1,0,0.1,0,0.2,0c0,0.2,0,0.3,0,0.5c0.1,0,0.2,0,0.3,0c0-0.3,0-0.6-0.1-0.9c0.1,0,0.2,0,0.2,0
			c0,0.3,0,0.6,0.1,0.9c0.4,0,0.8,0,1.1-0.1c0-0.2,0-0.3,0-0.5c0.1,0,0.2,0,0.2,0c0,0.2,0,0.3,0,0.5c0.1,0,0.2,0,0.3,0
			c0,0.2,0,0.5,0,0.7c0,0,0,0,0.1,0c0-0.4,0-0.9,0-1.3c0.1,0,0.3,0,0.4,0c0-1.3-0.1-2.6-0.1-3.8c0.9,0,1.8,0,2.7,0
			c0-0.2,0-0.4,0-0.6c0.1,0,0.3,0,0.4,0c0-0.2,0-0.3,0-0.5c0.9,0,1.7,0,2.6,0.1c0,0.1,0,0.3,0,0.4c0.1,0,0.3,0,0.4,0
			c-0.1,1.4-0.1,2.8-0.2,4.2c0.2,0,0.4,0,0.6,0c0,0.3,0,0.5,0,0.8c0.9,0,1.8,0.1,2.7,0.2c0-0.1,0-0.2,0-0.3c0.8,0.1,1.7,0.2,2.5,0.3
			c0.1-1,0.2-1.9,0.3-2.9c0.1,0,0.2,0,0.3,0c0-0.3,0.1-0.5,0.1-0.8c0.1,0,0.2,0,0.4,0c0,0.3-0.1,0.5-0.1,0.8c0.2,0,0.4,0,0.5,0.1
			c0-0.1,0-0.1,0-0.2c0.1,0,0.1,0,0.2,0c0,0.1,0,0.1,0,0.2c1,0.1,1.9,0.3,2.9,0.4c-0.2,1-0.4,2.1-0.5,3.1c0.1,0,0.2,0,0.3,0.1
			c0-0.1,0-0.2,0.1-0.3c0.4,0.1,0.7,0.1,1.1,0.2c0,0.2-0.1,0.3-0.1,0.5c0.6,0.1,1.1,0.2,1.7,0.3c0.2-0.7,0.3-1.4,0.5-2.1
			c0.2,0,0.4,0.1,0.6,0.1c0.6-2.5,1.1-5.1,1.7-7.6c0.1-0.4,0.6-0.7,1.1-0.5c0.3,0.1,0.6,0.1,0.9,0.2c0.1-0.3,0.2-0.6,0.2-0.9
			c-0.1-0.1-0.2-0.2-0.2-0.3c0-0.2,0.2-0.3,0.4-0.2c0.2,0.1,0.4,0.2,0.3,0.4c0,0.1-0.1,0.2-0.3,0.2c-0.1,0.3-0.2,0.6-0.2,0.9
			c0.3,0.1,0.5,0.1,0.8,0.2c0.5,0.1,0.9,0.6,0.8,1c-0.2,0.6-0.3,1.2-0.5,1.7c0.5,0.1,0.9,0.3,1.4,0.4c-0.3,0.9-0.5,1.8-0.8,2.7
			c0.8,0.2,1.5,0.4,2.2,0.7c-0.3,1.1-0.7,2.2-1,3.3c0.2,0.1,0.3,0.1,0.5,0.2c-0.2,0.5-0.3,0.9-0.5,1.4c0.1,0,0.2,0.1,0.3,0.1
			c0.1-0.3,0.2-0.5,0.2-0.8c0.1,0,0.3,0.1,0.4,0.1c0.1-0.2,0.1-0.4,0.2-0.6c0.1,0,0.1,0,0.2,0.1c-0.1,0.2-0.1,0.4-0.2,0.6
			c0.5,0.1,0.9,0.3,1.4,0.5c0,0,0,0,0,0c0.1-0.4,0.3-0.8,0.4-1.2c0.1,0,0.2,0.1,0.3,0.1c-0.1,0.4-0.3,0.9-0.5,1.3
			c0.1,0,0.3,0.1,0.4,0.1c0.1-0.2,0.2-0.5,0.3-0.7c0,0,0.1,0,0.1,0.1c-0.1,0.2-0.2,0.5-0.3,0.7c0.1,0,0.2,0.1,0.3,0.1
			c-0.1,0.3-0.2,0.5-0.3,0.8c0.1,0.1,0.3,0.1,0.4,0.2c0.1-0.3,0.2-0.6,0.3-0.9c0.5-0.3,1.1-0.6,1.7-0.8c0.4-1.1,0.9-2.2,1.3-3.3
			c0.1,0,0.2,0.1,0.3,0.1c0.3-0.7,0.5-1.4,0.8-2.1c1.6,0.6,3.1,1.3,4.6,2c-0.2,0.4-0.4,0.9-0.6,1.3c0.1,0.1,0.2,0.1,0.4,0.2
			c-0.5,1.1-1.1,2.3-1.6,3.4C422.6,229.8,423,230,423.4,230.2C423.4,230.2,423.4,230.2,423.4,230.2z"/>
	</g>
</g>
<g id="large_arc">
	<g>
		<g>
			<path fill="#97C5E5" d="M615.4,426.9l-5.5-21.3c45.2-11.7,76.8-52.5,76.8-99.2c0-51.4-38.4-95.1-89.3-101.6l2.8-21.8
				c61.8,7.9,108.5,61,108.5,123.4C708.7,363.2,670.3,412.8,615.4,426.9z"/>
		</g>
		<g>
			<path fill="#3A5872" d="M584.2,444.2c-4.4,0-8.9-0.2-13.2-0.6l2.1-21.9c3.7,0.4,7.4,0.5,11.2,0.5c51.7,0,97.6-34.8,111.5-84.5
				l21.2,5.9C700.4,402.8,645.8,444.2,584.2,444.2z"/>
		</g>
		<g>
			<path fill="#3C8CCB" d="M619.9,439.3c-11.4,3-23.3,4.7-35.7,4.7c-20.7,0-40.3-4.6-57.9-12.8"/>
			<path fill="#3C8CCB" d="M584.2,455c-21.9,0-42.9-4.6-62.6-13.8l9.3-19.9c16.7,7.8,34.7,11.7,53.3,11.7c11.1,0,22.2-1.4,32.8-4.3
				l5.7,21.3C610.2,453.3,597.3,455,584.2,455z"/>
		</g>
		<g>
			<path fill="#3C8CCB" d="M710.9,390.7l-18.3-12.2c14.1-21.3,21.6-46.2,21.6-71.9c0-51.7-30.6-98.5-77.9-119.2l8.8-20.1
				c55.3,24.3,91.1,79,91.1,139.4C736.2,336.8,727.5,365.8,710.9,390.7z"/>
		</g>
		<g>
			<path fill="#7E858F" d="M657.7,217.2c-20.6-17-46.7-26.3-73.4-26.3c-25.5,0-49.8,8.2-70,23.6L500.9,197
				c24.1-18.4,52.9-28.1,83.3-28.1c31.8,0,62.9,11.1,87.4,31.4L657.7,217.2z"/>
		</g>
		<g>
			<linearGradient id="SVGID_1_" gradientUnits="userSpaceOnUse" x1="457.7275" y1="240.2781" x2="753.1855" y2="240.2781">
				<stop  offset="4.433497e-02" style="stop-color:#FFFFFF"/>
				<stop  offset="0.8867" style="stop-color:#959293"/>
				<stop  offset="1" style="stop-color:#646464"/>
			</linearGradient>
			<path fill="url(#SVGID_1_)" d="M749.2,343.3l-23.4-5.2c2.3-10.3,3.5-21,3.5-31.7c0-80-65.1-145.1-145.1-145.1
				c-41.4,0-80.9,17.7-108.4,48.7l-17.9-16c32.1-36.1,78.1-56.7,126.4-56.7c93.2,0,169.1,75.9,169.1,169.1
				C753.2,318.8,751.8,331.2,749.2,343.3z"/>
		</g>
		<g>
			<path fill="#92C3E9" d="M434.7,264.8l-21.3-5.4c9.4-37,31.3-70.4,61.6-94.1c31.2-24.4,68.8-37.1,108.4-36.8
				c13.9,0.1,27.7,1.9,41.1,5.2l-5.3,21.3c-11.7-2.9-23.7-4.5-35.9-4.6c-0.4,0-0.8,0-1.3,0c-34.2,0-66.5,11.1-93.4,32.1
				C462.1,203.2,442.9,232.4,434.7,264.8z"/>
		</g>
		<g opacity="0.63">
			<path fill="#99C4E7" d="M634.4,446l-6.1-16.9c22.4-8.1,42.3-22.2,57.3-40.9l14,11.3C682.5,420.7,660,436.8,634.4,446z"/>
		</g>
		<g opacity="0.63">
			<path fill="#99C4E7" d="M456.6,280.1l-17.6-3.6c6.7-33,24.8-63,51-84.6c26.5-21.8,60-33.9,94.3-33.9c7.3,0,14.7,0.5,21.9,1.6
				l-2.6,17.8c-6.3-0.9-12.8-1.4-19.3-1.4C522.6,176.1,468.9,219.8,456.6,280.1z"/>
		</g>
		<g>
			<path fill="#3F5A77" d="M584.1,483.6v-22c85.8,0,155.6-69.8,155.6-155.6h22C761.7,403.9,682,483.6,584.1,483.6z"/>
		</g>
		<g>
			<path fill="#D5E8F5" d="M730.7,253.5c-11.2-31.5-32.8-58.7-60.7-76.7l11.9-18.5c32,20.6,56.6,51.8,69.5,87.8L730.7,253.5z"/>
		</g>
	</g>
</g>
<g id="mini_arc_1_">
	<g>
		<g>
			<g>
				<path fill="#97C5E5" d="M620.7,335.2l-6.6-4.5c11.4-16.6,10.1-38.8-3.2-54c-14.6-16.7-39.4-20-57.8-7.7l-4.5-6.6
					c21.7-14.5,51-10.6,68.2,9.1C632.6,289.4,634.1,315.6,620.7,335.2z"/>
			</g>
			<g>
				<path fill="#3C8CCB" d="M633.1,298.5c-1.4-10.9-6-21-13.3-29.3c-12.9-14.8-32.9-21.7-52.2-18.2l-1.4-7.9
					c22.1-4,44.9,3.9,59.6,20.8c8.3,9.5,13.6,21.1,15.2,33.6L633.1,298.5z"/>
			</g>
			<g>
				
					<linearGradient id="SVGID_2_" gradientUnits="userSpaceOnUse" x1="477.0594" y1="404.5354" x2="602.236" y2="404.5354" gradientTransform="matrix(0.7533 -0.6577 0.6577 0.7533 -106.5635 328.9447)">
					<stop  offset="4.433497e-02" style="stop-color:#FFFFFF"/>
					<stop  offset="0.8867" style="stop-color:#959293"/>
					<stop  offset="1" style="stop-color:#646464"/>
				</linearGradient>
				<path fill="url(#SVGID_2_)" d="M516,305.2l-10-0.1c0.2-20.4,9.1-39.9,24.5-53.3c14.4-12.6,32.9-18.8,52-17.5
					c19.1,1.3,36.5,9.9,49.1,24.4c3.5,4,6.5,8.3,9,12.9l-8.8,4.8c-2.1-3.9-4.8-7.7-7.7-11.1c-10.8-12.4-25.8-19.8-42.3-21
					c-16.4-1.1-32.3,4.2-44.7,15.1C523.8,270.9,516.1,287.6,516,305.2z"/>
			</g>
			<g opacity="0.63">
				<path fill="#99C4E7" d="M522.7,336.8c-14.7-25.9-9.1-59,13.4-78.6c2.4-2.1,4.9-3.9,7.5-5.6l4.3,6.7c-2.3,1.5-4.5,3.1-6.5,4.9
					c-19.6,17.1-24.6,46-11.7,68.6L522.7,336.8z"/>
			</g>
			<g>
				<path fill="#D5E8F5" d="M610.2,247.7c-12.3-6.9-26.7-9.6-40.6-7.5l-1.4-9.9c16-2.3,32.7,0.8,46.9,8.7L610.2,247.7z"/>
			</g>
		</g>
		<g>
			<g>
				<path fill="#97C5E5" d="M577.5,358.6c-14.9,0-29.7-6.2-40.1-18.2c-15.9-18.3-17.5-45-3.8-65l8.2,5.7
					c-11.1,16.2-9.8,37.9,3.1,52.7c14.2,16.3,38.5,19.5,56.4,7.5l5.6,8.3C598,355.7,587.7,358.6,577.5,358.6z"/>
			</g>
			<g>
				<path fill="#3A5872" d="M524.3,330.8c-11.3-23.7-5.4-52.3,14.4-69.6c1.4-1.2,2.9-2.4,4.4-3.5l5.8,8.1c-1.3,0.9-2.5,1.9-3.7,2.9
					c-16.4,14.3-21.3,38.1-12,57.7L524.3,330.8z"/>
			</g>
			<g>
				<path fill="#3C8CCB" d="M528.9,273c2.8-4.1,6.2-8,10.1-11.4c6.6-5.8,14.2-9.8,22.1-12.1"/>
				<path fill="#3C8CCB" d="M533.1,275.8l-8.3-5.6c3.1-4.6,6.8-8.8,11-12.4c7-6.1,15.1-10.5,24-13.1l2.8,9.6
					c-7.5,2.2-14.3,5.9-20.2,11.1C538.8,268.4,535.7,271.9,533.1,275.8z"/>
			</g>
			<g>
				<path fill="#3C8CCB" d="M577.4,370.2c-18.4,0-36.4-7.9-48.9-22.2c-8.4-9.6-13.8-21.4-15.4-34.1l9.9-1.3
					c1.4,10.7,5.9,20.7,13.1,28.8c14.3,16.4,37,22.8,57.8,16.3l3,9.5C590.5,369.3,583.9,370.2,577.4,370.2z"/>
			</g>
			<g>
				<path fill="#7E858F" d="M579.1,364.2l-0.3-10c11.2-0.3,22.1-4.6,30.6-12c8.1-7.1,13.5-16.4,15.7-26.9l9.8,2
					c-2.6,12.7-9.1,23.9-18.9,32.4C605.8,358.6,592.7,363.8,579.1,364.2z"/>
			</g>
			<g>
				<path fill="#92C3E9" d="M612.9,372.2l-4.5-8.9c4.5-2.3,8.8-5.2,12.7-8.5c22.5-19.3,28.8-51.2,15.5-77.6l8.9-4.5
					c15.4,30.5,8.1,67.4-17.9,89.7C623.1,366.2,618.1,369.5,612.9,372.2z"/>
			</g>
			<g opacity="0.63">
				<path fill="#99C4E7" d="M515.4,307.9c-0.4-11.4,2.2-22.7,7.8-32.6l5.2,2.9c-5,9-7.4,19.2-7,29.5L515.4,307.9z"/>
			</g>
			<g opacity="0.63">
				<path fill="#99C4E7" d="M610.9,357.8l-3.2-5c2.3-1.5,4.6-3.2,6.6-5c20-17.5,25-46.8,11.9-69.9l5.2-3c14.5,25.5,8.9,58-13.2,77.4
					C615.9,354.3,613.5,356.1,610.9,357.8z"/>
			</g>
			<g>
				<path fill="#3F5A77" d="M520.6,355.4c-13.3-15.2-19.9-34.7-18.5-54.9c1.4-20.2,10.5-38.6,25.7-51.9l6.6,7.5
					c-13.2,11.5-21.1,27.5-22.3,45c-1.2,17.5,4.5,34.4,16.1,47.6L520.6,355.4z"/>
			</g>
			<g>
				<path fill="#D5E8F5" d="M576.4,381.7c-12.6,0-25.3-3.2-36.4-9.5l4.9-8.7c12.3,6.9,26.7,9.6,40.6,7.5l1.4,9.9
					C583.4,381.5,579.9,381.7,576.4,381.7z"/>
			</g>
		</g>
	</g>
	<g>
		<path fill="#3C8CCB" d="M94.1,367.7c-7.5,0-14.7-1.5-21.7-4.4c-3.3-1.4-6.4-3.1-9.3-5.1c-2.9-2-5.7-4.3-8.4-6.9
			c-5.1-5.1-9.1-11-11.8-17.6c-2.9-7-4.4-14.2-4.4-21.7c0-7.5,1.5-14.7,4.4-21.7c2.7-6.5,6.7-12.4,11.8-17.7
			c5.3-5.1,11.2-9.1,17.7-11.8c7-2.9,14.2-4.4,21.7-4.4c7.4,0,14.6,1.5,21.5,4.4c6.7,2.7,12.6,6.7,17.7,11.8l-16.5,16.6
			c-3-3.1-6.5-5.5-10.4-7.1c-3.9-1.6-8-2.4-12.4-2.4c-4.5,0-8.7,0.8-12.6,2.5c-3.9,1.7-7.3,4-10.2,6.9c-2.9,2.9-5.2,6.3-6.9,10.2
			c-1.7,3.9-2.5,8.1-2.5,12.6c0,4.4,0.8,8.6,2.5,12.5c1.7,3.9,4,7.4,6.9,10.3c2.9,2.9,6.3,5.2,10.2,6.9c3.9,1.7,8.1,2.5,12.6,2.5
			c4.4,0,8.5-0.8,12.4-2.4c3.9-1.6,7.3-4,10.4-7.1l16.5,16.5c-5.1,5.2-11,9.2-17.7,11.9C108.7,366.2,101.5,367.7,94.1,367.7z"/>
		<path fill="#3C8CCB" d="M211.3,291h10.5l-32.5,46.3v28h-16.3v-28L140.5,291h19.9l20.7,29.5l20.7-29.5H211.3z"/>
		<path fill="#3C8CCB" d="M274.8,365.2h-35.4v-74.2H270h0.4c2.4,0,4.7,0.2,6.9,0.7c2.1,0.4,4.1,1.1,5.9,2c3.5,1.7,6.1,4,8.1,6.9
			c2.3,3.5,3.5,7.6,3.5,12.3c0,4.2-1,7.9-2.9,11c2.8,2.1,4.9,4.6,6.3,7.6c1.4,3,2.2,6.3,2.2,9.9c0,3.5-0.7,6.7-2,9.7
			c-1.3,3-3.3,5.6-5.8,7.8c-2.3,2.1-5,3.6-8,4.7C281.5,364.7,278.2,365.2,274.8,365.2z M255.7,318.2H272c0.3,0,0.9-0.1,1.7-0.2
			c0.8-0.2,1.6-0.4,2.3-0.8c0.7-0.4,1.3-0.9,1.7-1.4c0.4-0.6,0.6-1.5,0.6-2.8c0-0.5,0-1.1-0.1-1.7c-0.1-0.6-0.4-1.2-0.9-1.8
			s-1.3-1.1-2.4-1.4c-1.1-0.4-2.6-0.6-4.6-0.6h-0.3h-0.2h-14.1V318.2z M255.7,348.9h19c0.4,0,1.1-0.1,2.1-0.2c1-0.1,2-0.4,3.1-0.9
			c1.1-0.5,2-1.2,2.8-2.2c0.8-1,1.2-2.4,1.2-4.1c0-1.3-0.2-2.4-0.7-3c-0.4-0.7-0.9-1.2-1.4-1.5c-2.1-1.6-5.3-2.4-9.6-2.4h-16.4
			V348.9z"/>
		<path fill="#3C8CCB" d="M337.4,307.3v11h30.1v16.3h-30.1v14.2h31.1v16.3h-47.5V291h47.5v16.3H337.4z"/>
		<path fill="#3C8CCB" d="M450.6,365.2h-7.1h-12.9L417,345.7h-8.5v19.5h-16.3V291h27.4c4.2,0,8.1,0.5,11.6,1.6
			c3.5,1.1,6.6,2.6,9.3,4.7c1.5,1.2,2.8,2.5,4,4c1.2,1.4,2.2,3,2.9,4.7c1.7,3.5,2.5,7.3,2.5,11.4c0,3.9-0.7,7.6-2.1,11.1
			c-1.3,3.4-3.4,6.4-6.1,9c-2.1,2.1-4.5,3.8-7,5L450.6,365.2z M408.5,329.4h11h0.1c4.5,0.1,8.1-1.1,10.6-3.6c2.2-2.2,3.3-5,3.3-8.6
			c0-6.7-4.6-10-13.9-10h-11V329.4z"/>
		<path fill="#3C8CCB" d="M82.2,484.4h-1.9c-4.1-0.1-8.4-0.6-12.7-1.6c-4.3-1-8.4-2.3-12.1-3.9c-4.1-1.9-7.7-4.2-10.8-6.7
			c-3.1-2.6-5.5-5.4-7.3-8.4l19.9-11.5c0.6,1.1,1.7,2.2,3.2,3.3s3.3,2.1,5.4,3c2.1,0.9,4.3,1.6,6.8,2.2c2.5,0.5,5,0.8,7.5,0.8h0.3
			h0.4c2.1,0.2,4.6,0,7.6-0.5c3-0.5,5.9-1.5,8.9-2.9c5-2.3,7.8-5.4,8.2-9.2c0.1-1.1,0-1.9-0.3-2.5c-0.3-0.6-0.6-1.1-1.1-1.6
			c-1.6-1.8-4.2-3.2-7.5-4.1c-4.3-1.3-9.2-1.9-14.8-1.9c-1.6,0-3.8-0.1-6.7-0.3c-2.9-0.2-6-0.6-9.4-1.4c-8.5-2-15.2-5.4-20-10.3
			c-5.3-5.5-7.7-12.3-7.1-20.3v-0.1c0.3-3.8,1.2-7.5,2.7-10.8c1.5-3.4,3.7-6.4,6.5-8.9c4.7-4.5,10.7-7.6,18-9.5
			c4.7-1.2,9.6-1.8,14.8-1.8c5.2,0,10.2,0.6,15.2,1.9c5.7,1.4,10.6,3.4,14.8,6c4.2,2.7,7.4,5.7,9.8,9.2l-19.5,12.4
			c-0.5-0.8-1.7-1.8-3.4-2.9c-1.7-1.1-4.2-2-7.3-2.7c-3-0.7-6.2-1.1-9.5-1.2c-3.3,0-6.3,0.3-8.9,1c-2.4,0.5-4.2,1.2-5.6,2.1
			c-1.3,0.8-2.3,1.7-3,2.5c-0.7,0.9-1.1,1.7-1.3,2.5c-0.2,0.8-0.3,1.4-0.3,1.7c0,1,0.1,1.8,0.3,2.3c0.2,0.5,0.5,0.9,0.8,1.2
			c1.4,1.4,3.8,2.5,7.4,3.4c3.6,0.9,7.5,1.3,11.8,1.3c8.8,0,16.5,1.2,23.3,3.5c6.7,2.3,12.1,5.7,16.3,10.1c2.7,2.9,4.6,6.2,5.9,9.8
			c1.3,3.6,1.7,7.5,1.2,11.6c-0.5,5.9-2.6,11.3-6.2,16c-3.6,4.7-8.5,8.6-14.7,11.6c-3.8,1.8-8,3.2-12.4,4.3
			C90.7,483.9,86.4,484.4,82.2,484.4z"/>
		<path fill="#3C8CCB" d="M180.3,440.5l42.1,42.6h-6.5h-16.4l-31.6-32l-9,7.5V483h-6.6h-9.7v-74.3h16.3v28.4l33.7-28.4h12.7h12.7
			L180.3,440.5z"/>
		<path fill="#3C8CCB" d="M289.3,408.8h10.5l-32.5,46.3v28H251v-28l-32.4-46.3h19.9l20.7,29.5l20.7-29.5H289.3z"/>
		<path fill="#3C8CCB" d="M303.1,483v-74.3h16.3v57.9H351V483H303.1z"/>
		<path fill="#3C8CCB" d="M356,483v-74.3h16.3V483H356z"/>
		<path fill="#3C8CCB" d="M454,408.8V483h-15.2h-2.4l-38.1-49.7V483H393h-11v-74.3H400l37.7,49.1v-49.1h8.4H454z"/>
		<path fill="#3C8CCB" d="M480.2,425.1v11h30.1v16.3h-30.1v14.2h31.1V483h-47.5v-74.3h47.5v16.3H480.2z"/>
	</g>
</g>
</svg>
