<?xml version="1.0" encoding="utf-8"?>
<!-- Generator: Adobe Illustrator 18.1.1, SVG Export Plug-In . SVG Version: 6.00 Build 0)  -->
<svg version="1.1" id="Layer_1" xmlns="http://www.w3.org/2000/svg" xmlns:xlink="http://www.w3.org/1999/xlink" x="0px" y="0px"
	 width="852.1px" height="418.7px" viewBox="58.1 151.2 852.1 418.7" enable-background="new 58.1 151.2 852.1 418.7"
	 xml:space="preserve">
<g id="Layer_1_1_">
</g>
<g id="base_circle" display="none">
	<circle display="inline" fill="none" stroke="#010101" stroke-width="22" stroke-miterlimit="10" cx="664.5" cy="359.2" r="196"/>
</g>
<g id="skylines" display="none">
	<g display="inline">
		<path d="M512.2,270.8c0.4-0.6,0.6-1.3,0.9-1.9c0.5,0.2,0.9,0.5,1.4,0.7c1.5-2.9,3.1-5.9,4.6-8.9c0.2-0.4,0.7-0.6,1.3-0.6
			c0.2-0.2,0.7-0.2,1.1,0c0.4,0.2,0.7,0.6,0.6,0.9c0.4,0.5,0.5,0.9,0.2,1.4c-2,3.6-4,7.3-6.1,10.9c0.1,0,0.2,0.1,0.2,0.1
			c0.4-0.6,0.7-1.2,0.9-1.8c0.1,0,0.1,0.1,0.2,0.1l0.1-0.1c0.2-0.4,0.4-0.6,0.6-0.9c0.1,0,0.1,0.1,0.2,0.1c-0.2,0.4-0.4,0.7-0.6,1.1
			c0.1,0.1,0.2,0.1,0.4,0.2c-0.4,0.6-0.7,1.2-1.1,1.8c0.2,0.1,0.6,0.4,0.8,0.5c-0.1,0.2-0.2,0.4-0.4,0.6c0,0,0,0.1-0.1,0.1
			c-0.4,0.7-0.8,1.3-1.2,2c0,0,0,0,0.1,0c0.1-0.1,0.2-0.4,0.2-0.5c0.1,0,0.1,0.1,0.2,0.1c-0.1,0.1-0.2,0.4-0.2,0.5
			c0.1,0.1,0.2,0.1,0.4,0.2c0.2-0.4,0.4-0.7,0.6-1.1c0.1,0.1,0.2,0.1,0.4,0.2c-0.2,0.4-0.4,0.7-0.6,1.1c0.4,0.2,0.8,0.5,1.2,0.7
			c0.1-0.2,0.2-0.4,0.4-0.6c0.1,0,0.1,0.1,0.2,0.1c-0.1,0.2-0.2,0.4-0.4,0.6c0.1,0.1,0.2,0.1,0.4,0.2c-0.1,0.2-0.4,0.5-0.5,0.8
			c0,0,0,0,0.1,0c0.4-0.5,0.6-0.9,0.9-1.4c0.1,0.1,0.2,0.2,0.5,0.2c0.5-0.8,0.9-1.5,1.5-2.4c0.9,0.6,1.9,1.3,2.8,1.9
			c0-0.1,0.1-0.1,0.1-0.2c0,0,0,0-0.1,0c0-0.1,0.1-0.1,0.2-0.1c0,0,0.1,0.1,0.4,0.2c0.1-0.1,0.1-0.1,0.2-0.2
			c0.2,0.1,0.5,0.2,0.7,0.5c0.7,0.5,0.8,0.6,1.8,1.2c0,0.1-0.1,0.2-0.2,0.2c0.1,0.1,0.4,0.1,0.4,0.4c-0.4,0.4-0.6,0.8-0.8,1.2
			c-0.4,0.5-0.7,0.9-0.9,1.3c0.1,0.1,0.4,0.2,0.5,0.4c-0.4,0.6-0.8,1.2-1.2,1.8c0.1,0.1,0.1,0.1,0.2,0.2c0.7,0.5,1.3,0.9,1.9,1.5
			c0.1,0.1,0.1,0.1,0.2,0.1c0.2-0.2,0.4-0.5,0.6-0.7c0.1,0,0.2,0,0.4,0c0.2,0,0.5,0,0.7,0c0,0,0,0,0.1,0c0,0.1,0.1,0.1,1.5,1.3
			l0.1-0.1c0.1,0.1,0,0.1,0,0.2c0.1,0.1,0.2,0.2,0.4,0.4c1.2-1.3,2.2-2.6,3.4-3.9c0.1,0.1,0.2,0.2,0.5,0.4c0.2-0.2,0.5-0.5,0.7-0.7
			c0.1,0.1,0.2,0.1,0.2,0.2c-0.2,0.2-0.5,0.5-0.7,0.7c0.2,0.1,0.4,0.4,0.6,0.5c0.1-0.1,0.1-0.1,0.2-0.2l0.1,0.1
			c-0.1,0.1-0.1,0.1-0.2,0.2c0.7,0.6,1.4,1.3,2,1.9c-0.1,0.1-0.1,0.1-0.2,0.2c0,0.4,0.1,0.7,0.1,0.9c0.1,0.1,0.1,0.1,0.2,0.2
			c-1.1,1.1-2.1,2.1-3.2,3.2c0.1,0.1,0.2,0.2,0.2,0.2c-1.3,1.3-2.6,2.6-3.8,3.8c-5.4-5.4-11.3-10-17.6-13.6
			c-3.6-2.2-7.5-4.1-11.4-5.6c-32-13.1-70-6.6-95.9,19.3c-1.2-1.2-2.5-2.5-3.6-3.6c0.1-0.1,0.1-0.1,0.2-0.2
			c-0.2-0.2-0.6-0.6-0.8-0.8c0.1-0.1,0.1-0.1,0.2-0.2c0.2,0.2,0.6,0.6,0.8,0.8c0.4-0.4,0.7-0.7,1.1-1.1c-0.1-0.1-0.2-0.4-0.5-0.5
			l0.1-0.1c0.1,0.1,0.2,0.4,0.5,0.5c0.1-0.1,0.2-0.2,0.4-0.4c0.2,0.2,0.5,0.5,0.6,0.7c0,0,0,0,0.1-0.1c-0.4-0.4-0.7-0.8-1.2-1.2
			c0.1-0.1,0.2-0.2,0.4-0.4c-0.6-0.7-1.3-1.3-1.9-2c0.8-0.8,1.8-1.5,2.6-2.4c-0.1-0.1-0.1-0.1-0.2-0.2c0,0,0,0,0,0.1
			c0-0.1-0.1-0.1-0.1-0.2c0,0,0.1-0.1,0.4-0.4c-0.1-0.1-0.1-0.1-0.1-0.2c0.1-0.1,0.4-0.5,0.6-0.6c0.6-0.6,0.8-0.7,1.6-1.4
			c0.1,0,0.1,0.1,0.2,0.2c0.2-0.1,0.2-0.4,0.5-0.2c0.2,0.4,0.6,0.8,0.9,1.2c0.4,0.5,0.7,0.8,1.1,1.3c0.1-0.1,0.4-0.2,0.5-0.4
			c0.5,0.5,0.9,1.1,1.4,1.5c0.1-0.1,0.1-0.1,0.2-0.2c0.6-0.5,1.3-1.1,1.9-1.5c0.1-0.1,0.1-0.1,0.2-0.2c-0.1-0.2-0.4-0.5-0.6-0.7
			c0-0.1,0-0.2,0.1-0.4c0.1-0.2,0.1-0.5,0.1-0.7c0,0,0,0,0-0.1c0.1,0,0.1,0,1.5-1.1c0,0-0.1-0.1-0.1-0.2c0.1-0.1,0.1,0,0.2,0.1
			c0.1-0.1,0.2-0.2,0.5-0.4c-0.9-1.4-2-2.8-2.9-4.4c0.1-0.1,0.4-0.2,0.5-0.4c-0.2-0.2-0.4-0.6-0.6-0.8c0.1-0.1,0.2-0.1,0.4-0.2
			c0.2,0.2,0.4,0.6,0.6,0.8c0.2-0.1,0.4-0.2,0.6-0.4c0-0.1-0.1-0.1-0.1-0.2l0.1-0.1c0,0.1,0.1,0.1,0.1,0.2c0.7-0.5,1.5-0.9,2.2-1.4
			c0,0.1,0.1,0.1,0.1,0.2c0.4,0,0.6,0.1,0.9,0.1c0.1,0,0.1-0.1,0.2-0.1c0.8,1.3,1.5,2.6,2.4,3.9c0.1-0.1,0.2-0.1,0.5-0.2l-0.1-0.1
			c-0.1-0.2-0.2-0.4-0.4-0.6c0.6-0.4,1.1-0.6,1.6-0.9c0.1,0.2,0.2,0.5,0.5,0.7c0.2-0.1,0.4-0.2,0.6-0.4c-0.5-0.7-0.8-1.5-1.3-2.2
			c0.4-0.2,0.8-0.5,1.2-0.7v-0.1c-2.6-4.7-5.1-9.4-7.6-14.1c0.1-0.1,0.4-0.1,0.5-0.2c-0.1-0.1-0.2-0.4-0.2-0.5
			c1.4-0.7,2.8-1.4,4.2-2.1c0.1,0.2,0.1,0.4,0.2,0.6c0.2-0.1,0.6-0.2,0.8-0.4c0.1,0.2,0.2,0.5,0.4,0.7c0.5-0.2,0.9-0.5,1.4-0.7
			c0,0.1,0.1,0.2,0.1,0.2c0.8-0.4,1.5-0.7,2.4-1.1c0,0.1,0.1,0.2,0.1,0.4c0.1,0.2,0.1,0.4,0.2,0.6c1.9,4.5,3.8,8.9,5.6,13.3
			c0.1-0.1,0.2-0.1,0.5-0.2c0.2,0.7,0.6,1.3,0.8,2c0.1-0.1,0.4-0.1,0.5-0.2c-0.1-0.4-0.4-0.7-0.5-1.2c0.1,0,0.2-0.1,0.4-0.1
			c-0.1-0.2-0.2-0.5-0.4-0.7c0.1,0,0.2-0.1,0.2-0.1c0.1,0.2,0.2,0.5,0.4,0.7c0.5-0.2,1.1-0.5,1.5-0.6c-0.1-0.5-0.4-0.9-0.5-1.3
			c0.1,0,0.2-0.1,0.4-0.1c0.1,0.5,0.4,0.9,0.5,1.3c0.1,0,0.2-0.1,0.4-0.1c-0.1-0.2-0.2-0.5-0.2-0.7c0.1,0,0.1,0,0.2-0.1
			c0.1,0.2,0.2,0.5,0.2,0.7c0.1,0,0.2-0.1,0.4-0.1c0.1,0.4,0.4,0.8,0.5,1.2c0.1-0.1,0.4-0.1,0.5-0.2c-0.1-0.4-0.2-0.8-0.5-1.2
			c0.2-0.5,0.6-0.8,0.8-1.3c-0.2-0.6-0.5-1.3-0.7-1.9c0.2-0.1,0.5-0.1,0.7-0.2c-0.2-0.7-0.5-1.4-0.7-2.1c1.8-0.6,3.5-1.2,5.3-1.6
			c0.2,0.7,0.4,1.4,0.6,2c0.1,0,0.4-0.1,0.5-0.1c0,0.1,0,0.1,0.1,0.2c0.6-0.1,1.1-0.2,1.6-0.5c0.2,0.8,0.5,1.6,0.6,2.5
			c0.5,0.5,0.8,1.1,1.3,1.5c0.5-0.1,1.1-0.2,1.5-0.4c-0.7-3.4-1.5-6.7-2.2-10.1c0.2,0,0.4-0.1,0.6-0.1c-0.1-0.2-0.1-0.6-0.2-0.8
			c0.1,0,0.2,0,0.2-0.1c0-0.1,0-0.2-0.1-0.4c0.6-0.1,1.1-0.2,1.6-0.4c-0.2-0.9-0.4-2-0.6-2.9c0.1,0,0.2,0,0.4-0.1c0,0,0,0,0-0.1
			c-0.1-0.4-0.1-0.8-0.2-1.2c0.1,0,0.1,0,0.2,0c0.1,0.5,0.1,0.8,0.2,1.3c0.2,0,0.5-0.1,0.7-0.1c0.2,0.9,0.4,2,0.6,2.9
			c0.4-0.1,0.7-0.1,1.1-0.2c0.1,0.6,0.2,1.3,0.4,1.9h0.1c0.1,0.4,0.1,0.7,0.2,1.1c0.1,0,0.4,0,0.5-0.1c0.6,3.2,1.1,6.2,1.6,9.4
			c0.5-0.1,0.8-0.1,1.3-0.2c0-0.1,0-0.4-0.1-0.5c0.1-0.2,0.2-0.6,0.4-0.8c-0.1-0.6-0.2-1.2-0.2-1.8c0.5-0.1,0.9-0.1,1.4-0.2
			c0-0.1,0-0.4-0.1-0.5c0.1,0,0.2,0,0.5,0c0-0.1,0-0.1,0-0.2c1.5-0.2,3.2-0.4,4.7-0.5c0,0.6,0.1,1.2,0.1,1.8
			c0.4,0.2,0.7,0.5,0.9,0.7c0,0.4,0,0.6,0.1,0.9c0.1,0,0.4,0,0.5,0c0-0.4,0-0.7-0.1-1.1c0.1,0,0.2,0,0.4,0c0-0.2,0-0.4,0-0.6
			c0.1,0,0.1,0,0.2,0c0,0.2,0,0.4,0,0.6c0.1,0,0.2,0,0.4,0c0-0.4,0-0.7-0.1-1.1c0.1,0,0.2,0,0.2,0c0,0.4,0,0.7,0.1,1.1
			c0.5,0,0.9,0,1.3-0.1c0-0.2,0-0.4,0-0.6c0.1,0,0.2,0,0.2,0c0,0.2,0,0.4,0,0.6c0.1,0,0.2,0,0.4,0c0,0.2,0,0.6,0,0.8c0,0,0,0,0.1,0
			c0-0.5,0-1.1,0-1.5c0.1,0,0.4,0,0.5,0c0-1.5-0.1-3.1-0.1-4.5c1.1,0,2.1,0,3.2,0c0-0.2,0-0.5,0-0.7c0.1,0,0.4,0,0.5,0
			c0-0.2,0-0.4,0-0.6c1.1,0,2,0,3.1,0.1c0,0.1,0,0.4,0,0.5c0.1,0,0.4,0,0.5,0c-0.1,1.6-0.1,3.3-0.2,4.9c0.2,0,0.5,0,0.7,0
			c0,0.4,0,0.6,0,0.9c1.1,0,2.1,0.1,3.2,0.2c0-0.1,0-0.2,0-0.4c0.9,0.1,2,0.2,2.9,0.4c0.1-1.2,0.2-2.2,0.4-3.4c0.1,0,0.2,0,0.4,0
			c0-0.4,0.1-0.6,0.1-0.9c0.1,0,0.2,0,0.5,0c0,0.4-0.1,0.6-0.1,0.9c0.2,0,0.5,0,0.6,0.1c0-0.1,0-0.1,0-0.2c0.1,0,0.1,0,0.2,0
			c0,0.1,0,0.1,0,0.2c1.2,0.1,2.2,0.4,3.4,0.5c-0.2,1.2-0.5,2.5-0.6,3.6c0.1,0,0.2,0,0.4,0.1c0-0.1,0-0.2,0.1-0.4
			c0.5,0.1,0.8,0.1,1.3,0.2c0,0.2-0.1,0.4-0.1,0.6c0.7,0.1,1.3,0.2,2,0.4c0.2-0.8,0.4-1.6,0.6-2.5c0.2,0,0.5,0.1,0.7,0.1
			c0.7-2.9,1.3-6,2-8.9c0.1-0.5,0.7-0.8,1.3-0.6c0.4,0.1,0.7,0.1,1.1,0.2c0.1-0.4,0.2-0.7,0.2-1.1c-0.1-0.1-0.2-0.2-0.2-0.4
			c0-0.2,0.2-0.4,0.5-0.2c0.2,0.1,0.5,0.2,0.4,0.5c0,0.1-0.1,0.2-0.4,0.2c-0.1,0.4-0.2,0.7-0.2,1.1c0.4,0.1,0.6,0.1,0.9,0.2
			c0.6,0.1,1.1,0.7,0.9,1.2c-0.2,0.7-0.4,1.4-0.6,2c0.6,0.1,1.1,0.4,1.6,0.5c-0.4,1.1-0.6,2.1-0.9,3.2c0.9,0.2,1.8,0.5,2.6,0.8
			c-0.4,1.3-0.8,2.6-1.2,3.9c0.2,0.1,0.4,0.1,0.6,0.2c-0.2,0.6-0.4,1.1-0.6,1.6c0.1,0,0.2,0.1,0.4,0.1c0.1-0.4,0.2-0.6,0.2-0.9
			c0.1,0,0.4,0.1,0.5,0.1c0.1-0.2,0.1-0.5,0.2-0.7c0.1,0,0.1,0,0.2,0.1c-0.1,0.2-0.1,0.5-0.2,0.7c0.6,0.1,1.1,0.4,1.6,0.6l0,0
			c0.1-0.5,0.4-0.9,0.5-1.4c0.1,0,0.2,0.1,0.4,0.1c-0.1,0.5-0.4,1.1-0.6,1.5c0.1,0,0.4,0.1,0.5,0.1c0.1-0.2,0.2-0.6,0.4-0.8
			c0,0,0.1,0,0.1,0.1c-0.1,0.2-0.2,0.6-0.4,0.8c0.1,0,0.2,0.1,0.4,0.1c-0.1,0.4-0.2,0.6-0.4,0.9c0.1,0.1,0.4,0.1,0.5,0.2
			c0.1-0.4,0.2-0.7,0.4-1.1c0.6-0.4,1.3-0.7,2-0.9c0.5-1.3,1.1-2.6,1.5-3.9c0.1,0,0.2,0.1,0.4,0.1c0.4-0.8,0.6-1.6,0.9-2.5
			c1.9,0.7,3.6,1.5,5.4,2.4c-0.2,0.5-0.5,1.1-0.7,1.5c0.1,0.1,0.2,0.1,0.5,0.2c-0.6,1.3-1.3,2.7-1.9,4
			C511.3,270.4,511.8,270.6,512.2,270.8L512.2,270.8z"/>
	</g>
</g>
<g>
	<g id="large_arc">
		<g>
			<g>
				<path fill="#97C5E5" d="M738.1,502.2l-6.5-25.1c53.2-13.8,90.4-61.8,90.4-116.7c0-60.5-45.2-111.9-105.1-119.5l3.3-25.6
					c72.7,9.3,127.6,71.8,127.6,145.2C847.9,427.3,802.7,485.6,738.1,502.2z"/>
			</g>
			<g>
				<path fill="#3A5872" d="M701.4,522.6c-5.2,0-10.5-0.2-15.5-0.7l2.5-25.8c4.4,0.5,8.7,0.6,13.2,0.6c60.8,0,114.8-40.9,131.2-99.4
					l24.9,6.9C838.1,473.9,773.9,522.6,701.4,522.6z"/>
			</g>
			<g>
				<path fill="#3C8CCB" d="M743.4,516.8c-13.4,3.5-27.4,5.5-42,5.5c-24.4,0-47.4-5.4-68.1-15.1"/>
				<path fill="#3C8CCB" d="M701.4,535.3c-25.8,0-50.5-5.4-73.6-16.2l10.9-23.4c19.6,9.2,40.8,13.8,62.7,13.8
					c13.1,0,26.1-1.6,38.6-5.1l6.7,25.1C732,533.3,716.8,535.3,701.4,535.3z"/>
			</g>
			<g>
				<path fill="#3C8CCB" d="M850.5,459.6l-21.5-14.4c16.6-25.1,25.4-54.4,25.4-84.6c0-60.8-36-115.9-91.6-140.2l10.4-23.6
					c65.1,28.6,107.2,92.9,107.2,164C880.2,396.2,870,430.4,850.5,459.6z"/>
			</g>
			<g>
				<path fill="#7E858F" d="M787.9,255.5c-24.2-20-54.9-30.9-86.4-30.9c-30,0-58.6,9.6-82.4,27.8l-15.8-20.6
					c28.4-21.6,62.2-33.1,98-33.1c37.4,0,74,13.1,102.8,36.9L787.9,255.5z"/>
			</g>
			<g>
				
					<linearGradient id="SVGID_1_" gradientUnits="userSpaceOnUse" x1="457.9" y1="479.7" x2="753.4" y2="479.7" gradientTransform="matrix(1.1765 0 0 -1.1765 14.1176 847.0588)">
					<stop  offset="4.433497e-002" style="stop-color:#FFFFFF"/>
					<stop  offset="0.8867" style="stop-color:#959293"/>
					<stop  offset="1" style="stop-color:#646464"/>
				</linearGradient>
				<path fill="url(#SVGID_1_)" d="M895.5,403.9l-27.5-6.1c2.7-12.1,4.1-24.7,4.1-37.3c0-94.1-76.6-170.7-170.7-170.7
					c-48.7,0-95.2,20.8-127.5,57.3l-21.1-18.8c37.8-42.5,91.9-66.7,148.7-66.7c109.6,0,198.9,89.3,198.9,198.9
					C900.2,375.1,898.6,389.6,895.5,403.9z"/>
			</g>
			<g>
				<path fill="#92C3E9" d="M525.5,311.5l-25.1-6.4c11.1-43.5,36.8-82.8,72.5-110.7c36.7-28.7,80.9-43.6,127.5-43.3
					c16.4,0.1,32.6,2.2,48.4,6.1l-6.2,25.1c-13.8-3.4-27.9-5.3-42.2-5.4c-0.5,0-0.9,0-1.5,0c-40.2,0-78.2,13.1-109.9,37.8
					C557.8,239.1,535.2,273.4,525.5,311.5z"/>
			</g>
			<g opacity="0.63">
				<path fill="#99C4E7" d="M760.5,524.7l-7.2-19.9c26.4-9.5,49.8-26.1,67.4-48.1l16.5,13.3C817.1,494.9,790.6,513.9,760.5,524.7z"
					/>
			</g>
			<g opacity="0.63">
				<path fill="#99C4E7" d="M551.3,329.5l-20.7-4.2c7.9-38.8,29.2-74.1,60-99.5c31.2-25.6,70.6-39.9,110.9-39.9
					c8.6,0,17.3,0.6,25.8,1.9l-3.1,20.9c-7.4-1.1-15.1-1.6-22.7-1.6C628.9,207.2,565.8,258.6,551.3,329.5z"/>
			</g>
			<g>
				<path fill="#3F5A77" d="M701.3,568.9v-25.9c100.9,0,183.1-82.1,183.1-183.1h25.9C910.2,475.2,816.5,568.9,701.3,568.9z"/>
			</g>
			<g>
				<path fill="#D5E8F5" d="M873.8,298.2c-13.2-37.1-38.6-69.1-71.4-90.2l14-21.8c37.6,24.2,66.6,60.9,81.8,103.3L873.8,298.2z"/>
			</g>
		</g>
	</g>
	<g id="mini_arc_1_">
		<g>
			<g>
				<g>
					<path fill="#97C5E5" d="M744.4,394.4l-7.8-5.3c13.4-19.5,11.9-45.6-3.8-63.5c-17.2-19.6-46.4-23.5-68-9.1l-5.3-7.8
						c25.5-17.1,60-12.5,80.2,10.7C758.4,340.5,760.1,371.3,744.4,394.4z"/>
				</g>
				<g>
					<path fill="#3C8CCB" d="M758.9,351.2c-1.6-12.8-7.1-24.7-15.6-34.5c-15.2-17.4-38.7-25.5-61.4-21.4l-1.6-9.3
						c26-4.7,52.8,4.6,70.1,24.5c9.8,11.2,16,24.8,17.9,39.5L758.9,351.2z"/>
				</g>
				<g>
					
						<linearGradient id="SVGID_2_" gradientUnits="userSpaceOnUse" x1="477.1123" y1="315.4647" x2="602.2405" y2="315.4647" gradientTransform="matrix(0.8862 -0.7738 -0.7738 -0.8862 445.8594 1025.0833)">
						<stop  offset="4.433497e-002" style="stop-color:#FFFFFF"/>
						<stop  offset="0.8867" style="stop-color:#959293"/>
						<stop  offset="1" style="stop-color:#646464"/>
					</linearGradient>
					<path fill="url(#SVGID_2_)" d="M621.2,359.1l-11.8-0.1c0.2-24,10.7-46.9,28.8-62.7c16.9-14.8,38.7-22.1,61.2-20.6
						c22.5,1.5,42.9,11.6,57.8,28.7c4.1,4.7,7.6,9.8,10.6,15.2l-10.4,5.6c-2.5-4.6-5.6-9.1-9.1-13.1c-12.7-14.6-30.4-23.3-49.8-24.7
						c-19.3-1.3-38,4.9-52.6,17.8C630.4,318.7,621.3,338.4,621.2,359.1z"/>
				</g>
				<g opacity="0.63">
					<path fill="#99C4E7" d="M629.1,396.2c-17.3-30.5-10.7-69.4,15.8-92.5c2.8-2.5,5.8-4.6,8.8-6.6l5.1,7.9
						c-2.7,1.8-5.3,3.6-7.6,5.8c-23.1,20.1-28.9,54.1-13.8,80.7L629.1,396.2z"/>
				</g>
				<g>
					<path fill="#D5E8F5" d="M732,291.4c-14.5-8.1-31.4-11.3-47.8-8.8l-1.6-11.6c18.8-2.7,38.5,0.9,55.2,10.2L732,291.4z"/>
				</g>
			</g>
			<g>
				<g>
					<path fill="#97C5E5" d="M693.5,421.9c-17.5,0-34.9-7.3-47.2-21.4c-18.7-21.5-20.6-52.9-4.5-76.5l9.6,6.7
						c-13.1,19.1-11.5,44.6,3.6,62c16.7,19.2,45.3,22.9,66.4,8.8l6.6,9.8C717.6,418.5,705.5,421.9,693.5,421.9z"/>
				</g>
				<g>
					<path fill="#3A5872" d="M630.9,389.2c-13.3-27.9-6.4-61.5,16.9-81.9c1.6-1.4,3.4-2.8,5.2-4.1l6.8,9.5c-1.5,1.1-2.9,2.2-4.4,3.4
						c-19.3,16.8-25.1,44.8-14.1,67.9L630.9,389.2z"/>
				</g>
				<g>
					<path fill="#3C8CCB" d="M636.4,321.2c3.3-4.8,7.3-9.4,11.9-13.4c7.8-6.8,16.7-11.5,26-14.2"/>
					<path fill="#3C8CCB" d="M641.3,324.5l-9.8-6.6c3.6-5.4,8-10.4,12.9-14.6c8.2-7.2,17.8-12.4,28.2-15.4l3.3,11.3
						c-8.8,2.6-16.8,6.9-23.8,13.1C648,315.8,644.4,319.9,641.3,324.5z"/>
				</g>
				<g>
					<path fill="#3C8CCB" d="M693.4,435.5c-21.6,0-42.8-9.3-57.5-26.1c-9.9-11.3-16.2-25.2-18.1-40.1l11.6-1.5
						c1.6,12.6,6.9,24.4,15.4,33.9c16.8,19.3,43.5,26.8,68,19.2l3.5,11.2C708.8,434.5,701.1,435.5,693.4,435.5z"/>
				</g>
				<g>
					<path fill="#7E858F" d="M695.4,428.5l-0.4-11.8c13.2-0.4,26-5.4,36-14.1c9.5-8.4,15.9-19.3,18.5-31.6l11.5,2.4
						c-3.1,14.9-10.7,28.1-22.2,38.1C726.8,421.9,711.4,428,695.4,428.5z"/>
				</g>
				<g>
					<path fill="#92C3E9" d="M735.2,437.9l-5.3-10.5c5.3-2.7,10.4-6.1,14.9-10c26.5-22.7,33.9-60.2,18.2-91.3l10.5-5.3
						c18.1,35.9,9.5,79.3-21.1,105.5C747.2,430.8,741.3,434.7,735.2,437.9z"/>
				</g>
				<g opacity="0.63">
					<path fill="#99C4E7" d="M620.5,362.2c-0.5-13.4,2.6-26.7,9.2-38.4l6.1,3.4c-5.9,10.6-8.7,22.6-8.2,34.7L620.5,362.2z"/>
				</g>
				<g opacity="0.63">
					<path fill="#99C4E7" d="M732.8,420.9l-3.8-5.9c2.7-1.8,5.4-3.8,7.8-5.9c23.5-20.6,29.4-55.1,14-82.2l6.1-3.5
						c17.1,30,10.5,68.2-15.5,91.1C738.7,416.8,735.9,418.9,732.8,420.9z"/>
				</g>
				<g>
					<path fill="#3F5A77" d="M626.6,418.1c-15.6-17.9-23.4-40.8-21.8-64.6c1.6-23.8,12.4-45.4,30.2-61.1l7.8,8.8
						c-15.5,13.5-24.8,32.4-26.2,52.9s5.3,40.5,18.9,56L626.6,418.1z"/>
				</g>
				<g>
					<path fill="#D5E8F5" d="M692.2,449.1c-14.8,0-29.8-3.8-42.8-11.2l5.8-10.2c14.5,8.1,31.4,11.3,47.8,8.8l1.6,11.6
						C700.5,448.8,696.4,449.1,692.2,449.1z"/>
				</g>
			</g>
		</g>
		<g>
			<path fill="#3C8CCB" d="M124.8,432.6c-8.8,0-17.3-1.8-25.5-5.2c-3.9-1.6-7.5-3.6-10.9-6s-6.7-5.1-9.9-8.1
				c-6-6-10.7-12.9-13.9-20.7c-3.4-8.2-5.2-16.7-5.2-25.5s1.8-17.3,5.2-25.5c3.2-7.6,7.9-14.6,13.9-20.8c6.2-6,13.2-10.7,20.8-13.9
				c8.2-3.4,16.7-5.2,25.5-5.2c8.7,0,17.2,1.8,25.3,5.2c7.9,3.2,14.8,7.9,20.8,13.9l-19.4,19.5c-3.5-3.6-7.6-6.5-12.2-8.4
				c-4.6-1.9-9.4-2.8-14.6-2.8c-5.3,0-10.2,0.9-14.8,2.9c-4.6,2-8.6,4.7-12,8.1c-3.4,3.4-6.1,7.4-8.1,12c-2,4.6-2.9,9.5-2.9,14.8
				c0,5.2,0.9,10.1,2.9,14.7c2,4.6,4.7,8.7,8.1,12.1c3.4,3.4,7.4,6.1,12,8.1c4.6,2,9.5,2.9,14.8,2.9c5.2,0,10-0.9,14.6-2.8
				c4.6-1.9,8.6-4.7,12.2-8.4l19.4,19.4c-6,6.1-12.9,10.8-20.8,14C142,430.8,133.5,432.6,124.8,432.6z"/>
			<path fill="#3C8CCB" d="M262.7,342.4h12.4l-38.2,54.5v32.9h-19.2v-32.9l-38.2-54.5h23.4l24.4,34.7l24.4-34.7H262.7z"/>
			<path fill="#3C8CCB" d="M337.4,429.6h-41.6v-87.3h36h0.5c2.8,0,5.5,0.2,8.1,0.8c2.5,0.5,4.8,1.3,6.9,2.4c4.1,2,7.2,4.7,9.5,8.1
				c2.7,4.1,4.1,8.9,4.1,14.5c0,4.9-1.2,9.3-3.4,12.9c3.3,2.5,5.8,5.4,7.4,8.9c1.6,3.5,2.6,7.4,2.6,11.6c0,4.1-0.8,7.9-2.4,11.4
				c-1.5,3.5-3.9,6.6-6.8,9.2c-2.7,2.5-5.9,4.2-9.4,5.5C345.3,429.1,341.4,429.6,337.4,429.6z M314.9,374.4h19.2
				c0.4,0,1.1-0.1,2-0.2c0.9-0.2,1.9-0.5,2.7-0.9c0.8-0.5,1.5-1.1,2-1.6c0.5-0.7,0.7-1.8,0.7-3.3c0-0.6,0-1.3-0.1-2
				c-0.1-0.7-0.5-1.4-1.1-2.1c-0.6-0.7-1.5-1.3-2.8-1.6c-1.3-0.5-3.1-0.7-5.4-0.7h-0.4h-0.2h-16.6V374.4L314.9,374.4z M314.9,410.5
				h22.4c0.5,0,1.3-0.1,2.5-0.2s2.4-0.5,3.6-1.1c1.3-0.6,2.4-1.4,3.3-2.6s1.4-2.8,1.4-4.8c0-1.5-0.2-2.8-0.8-3.5
				c-0.5-0.8-1.1-1.4-1.6-1.8c-2.5-1.9-6.2-2.8-11.3-2.8h-19.3v16.8H314.9z"/>
			<path fill="#3C8CCB" d="M411.1,361.5v12.9h35.4v19.2h-35.4v16.7h36.6v19.2h-55.9v-87.2h55.9v19.2H411.1z"/>
			<path fill="#3C8CCB" d="M544.2,429.6h-8.4h-15.2l-16-22.9h-10v22.9h-19.2v-87.3h32.2c4.9,0,9.5,0.6,13.6,1.9
				c4.1,1.3,7.8,3.1,10.9,5.5c1.8,1.4,3.3,2.9,4.7,4.7c1.4,1.6,2.6,3.5,3.4,5.5c2,4.1,2.9,8.6,2.9,13.4c0,4.6-0.8,8.9-2.5,13.1
				c-1.5,4-4,7.5-7.2,10.6c-2.5,2.5-5.3,4.5-8.2,5.9L544.2,429.6z M494.7,387.5h12.9h0.1c5.3,0.1,9.5-1.3,12.5-4.2
				c2.6-2.6,3.9-5.9,3.9-10.1c0-7.9-5.4-11.8-16.4-11.8h-12.9v26.1H494.7z"/>
			<path fill="#3C8CCB" d="M110.8,569.9h-2.2c-4.8-0.1-9.9-0.7-14.9-1.9s-9.9-2.7-14.2-4.6c-4.8-2.2-9.1-4.9-12.7-7.9
				c-3.6-3.1-6.5-6.4-8.6-9.9l23.4-13.5c0.7,1.3,2,2.6,3.8,3.9c1.8,1.3,3.9,2.5,6.4,3.5c2.5,1.1,5.1,1.9,8,2.6
				c2.9,0.6,5.9,0.9,8.8,0.9h0.4h0.5c2.5,0.2,5.4,0,8.9-0.6s6.9-1.8,10.5-3.4c5.9-2.7,9.2-6.4,9.6-10.8c0.1-1.3,0-2.2-0.4-2.9
				c-0.4-0.7-0.7-1.3-1.3-1.9c-1.9-2.1-4.9-3.8-8.8-4.8c-5.1-1.5-10.8-2.2-17.4-2.2c-1.9,0-4.5-0.1-7.9-0.4
				c-3.4-0.2-7.1-0.7-11.1-1.6c-10-2.4-17.9-6.4-23.5-12.1c-6.2-6.5-9.1-14.5-8.4-23.9v-0.1c0.4-4.5,1.4-8.8,3.2-12.7
				c1.8-4,4.4-7.5,7.6-10.5c5.5-5.3,12.6-8.9,21.2-11.2c5.5-1.4,11.3-2.1,17.4-2.1c6.1,0,12,0.7,17.9,2.2c6.7,1.6,12.5,4,17.4,7.1
				c4.9,3.2,8.7,6.7,11.5,10.8l-22.9,14.6c-0.6-0.9-2-2.1-4-3.4c-2-1.3-4.9-2.4-8.6-3.2c-3.5-0.8-7.3-1.3-11.2-1.4
				c-3.9,0-7.4,0.4-10.5,1.2c-2.8,0.6-4.9,1.4-6.6,2.5c-1.5,0.9-2.7,2-3.5,2.9c-0.8,1.1-1.3,2-1.5,2.9s-0.4,1.6-0.4,2
				c0,1.2,0.1,2.1,0.4,2.7c0.2,0.6,0.6,1.1,0.9,1.4c1.6,1.6,4.5,2.9,8.7,4c4.2,1.1,8.8,1.5,13.9,1.5c10.4,0,19.4,1.4,27.4,4.1
				c7.9,2.7,14.2,6.7,19.2,11.9c3.2,3.4,5.4,7.3,6.9,11.5c1.5,4.2,2,8.8,1.4,13.6c-0.6,6.9-3.1,13.3-7.3,18.8s-10,10.1-17.3,13.6
				c-4.5,2.1-9.4,3.8-14.6,5.1C120.8,569.3,115.8,569.9,110.8,569.9z"/>
			<path fill="#3C8CCB" d="M226.2,518.2l49.5,50.1h-7.6h-19.3l-37.2-37.6l-10.6,8.8v28.7h-7.8h-11.4v-87.4h19.2v33.4l39.6-33.4h14.9
				h14.9L226.2,518.2z"/>
			<path fill="#3C8CCB" d="M354.5,480.9h12.4l-38.2,54.5v32.9h-19.2v-32.9l-38.1-54.5h23.4l24.4,34.7l24.4-34.7H354.5z"/>
			<path fill="#3C8CCB" d="M370.7,568.2v-87.4h19.2v68.1h37.2v19.3H370.7z"/>
			<path fill="#3C8CCB" d="M432.9,568.2v-87.4h19.2v87.4H432.9z"/>
			<path fill="#3C8CCB" d="M548.2,480.9v87.3h-17.9h-2.8l-44.8-58.5v58.5h-6.2h-12.9v-87.4h21.2l44.4,57.8v-57.8h9.9h9.3V480.9z"/>
			<path fill="#3C8CCB" d="M579.1,500.1v12.9h35.4v19.2h-35.4v16.7h36.6v19.3h-55.9v-87.4h55.9V500h-36.6V500.1z"/>
		</g>
	</g>
</g>
</svg>
