<?xml version="1.0" encoding="UTF-8" standalone="no"?>
<!-- Generator: Adobe Illustrator 17.0.0, SVG Export Plug-In . SVG Version: 6.00 Build 0)  -->

<svg
   xmlns:dc="http://purl.org/dc/elements/1.1/"
   xmlns:cc="http://creativecommons.org/ns#"
   xmlns:rdf="http://www.w3.org/1999/02/22-rdf-syntax-ns#"
   xmlns:svg="http://www.w3.org/2000/svg"
   xmlns="http://www.w3.org/2000/svg"
   xmlns:sodipodi="http://sodipodi.sourceforge.net/DTD/sodipodi-0.dtd"
   xmlns:inkscape="http://www.inkscape.org/namespaces/inkscape"
   version="1.1"
   id="Layer_1"
   x="0px"
   y="0px"
   width="800px"
   height="150px"
   viewBox="0 0 800 150"
   enable-background="new 0 0 800 150"
   xml:space="preserve"
   inkscape:version="0.48.5 r10040"
   sodipodi:docname="dealeron.svg"><metadata
     id="metadata35"><rdf:RDF><cc:Work
         rdf:about=""><dc:format>image/svg+xml</dc:format><dc:type
           rdf:resource="http://purl.org/dc/dcmitype/StillImage" /></cc:Work></rdf:RDF></metadata><defs
     id="defs33" /><sodipodi:namedview
     pagecolor="#ffffff"
     bordercolor="#666666"
     borderopacity="1"
     objecttolerance="10"
     gridtolerance="10"
     guidetolerance="10"
     inkscape:pageopacity="0"
     inkscape:pageshadow="2"
     inkscape:window-width="1855"
     inkscape:window-height="1056"
     id="namedview31"
     showgrid="false"
     inkscape:zoom="1.53"
     inkscape:cx="382.90567"
     inkscape:cy="5.6808392"
     inkscape:window-x="65"
     inkscape:window-y="24"
     inkscape:window-maximized="1"
     inkscape:current-layer="Layer_1" /><path
     fill="#FFFFFF"
     d="M9.314,132.057V26.17h37.469c32.308,0,49.143,16.425,49.143,52.94c0,36.521-16.835,52.946-49.143,52.946  H9.314z M46.783,114.409c21.991,0,29.729-13.714,29.729-35.299c0-21.583-7.738-35.293-29.729-35.293H28.32v70.592H46.783z"
     id="path3"
     style="fill:#000000" /><path
     fill="#FFFFFF"
     d="M189.05,26.17v17.647h-56.066v25.25h49.685v17.647h-49.685v27.695h58.646v17.647h-77.651V26.17H189.05z"
     id="path5"
     style="fill:#000000" /><path
     fill="#FFFFFF"
     d="M269.822,106.808h-39.37l-9.096,25.249h-20.497L241.721,24.27h16.833l40.862,107.787h-20.499  L269.822,106.808z M250.138,48.84l-13.711,40.725h27.422L250.138,48.84z"
     id="path7"
     style="fill:#000000" /><path
     fill="#FFFFFF"
     d="M329.821,114.409h50.229v17.647h-69.233V26.17h19.004V114.409z"
     id="path9"
     style="fill:#000000" /><path
     fill="#FFFFFF"
     d="M468.151,26.17v17.647h-56.065v25.25h49.685v17.647h-49.685v27.695h58.643v17.647h-77.649V26.17H468.151z"
     id="path11"
     style="fill:#000000" /><path
     fill="#FFFFFF"
     d="M508.194,132.057h-19.002V26.17h43.711c18.327,0,35.977,6.107,35.977,32.173  c0,18.733-9.098,27.015-20.907,30.135l25.656,43.578h-22.261l-23.757-41.542h-19.417V132.057z M534.126,72.732  c6.65,0,15.341-1.221,15.341-14.389c0-13.305-8.69-14.526-15.341-14.526h-25.932v28.915H534.126z"
     id="path13"
     style="fill:#000000" /><g
     id="g15"><g
       id="g17"><path
         fill="#F37C21"
         d="M737.876,75.125l-10.457-16.289l0.273,25.387v45.477h-19.006V23.81H726.2l36.519,54.574l10.451,16.289    L772.9,69.288V23.81h19.004v105.889h-17.513L737.876,75.125z"
         id="path19" /></g><g
       id="g21"><g
         id="g23"><path
           fill="#F37C21"
           d="M675.714,42.078L661.392,56.93c5.221,6.058,8.412,14.15,8.412,23.046     c0,18.763-14.184,33.978-31.681,33.978c-17.496,0-31.683-15.215-31.683-33.978c0-8.896,3.194-16.99,8.414-23.046l-14.323-14.854     c-9.751,9.675-15.794,23.081-15.794,37.901c0,29.481,23.9,53.388,53.386,53.388c29.48,0,53.386-23.906,53.386-53.388     C691.509,65.156,685.467,51.751,675.714,42.078z"
           id="path25" /><g
           id="g27"><path
             fill="#F37C21"
             d="M629.845,79.896V15.14h16.937v64.756H629.845z"
             id="path29" /></g></g></g></g></svg>