<?xml version="1.0" encoding="UTF-8" standalone="no"?>
<!-- Created with Inkscape (http://www.inkscape.org/) -->
<svg
   xmlns:svg="http://www.w3.org/2000/svg"
   xmlns="http://www.w3.org/2000/svg"
   version="1.0"
   width="921.25983"
   height="200.55118"
   id="svg2">
  <defs
     id="defs4" />
  <g
     transform="translate(-400.50845,101.60621)"
     id="layer1">
    <g
       transform="translate(17.716538,17.750166)"
       id="g3557">
      <path
         d="M 683.28915,60.915597 L 722.72766,60.915597 L 722.72766,-98.963158 L 683.28915,-98.963158 L 683.28915,60.915597 z "
         style="fill:#254087;fill-rule:nonzero;stroke:none"
         id="path3435" />
      <path
         d="M 610.65706,-32.135394 C 625.0228,-32.135394 629.36568,-19.008235 629.36568,-11.789074 C 629.33981,-11.789074 590.64759,-11.789074 590.62686,-11.789074 C 590.62686,-22.003693 597.7268,-32.135394 610.65706,-32.135394 z M 651.92492,28.608167 C 645.6127,30.748524 636.05106,33.692158 623.88786,33.692158 C 606.88937,33.692158 593.57564,28.027735 591.40938,14.553348 L 663.91712,14.553348 C 664.45613,11.972487 665.4097,7.8006109 665.4097,-0.88000305 C 665.4097,-31.497951 650.17846,-59.597224 611.31001,-59.597224 C 573.55585,-59.597224 553.45827,-29.989858 553.45827,3.1726773 C 553.45827,41.4192 580.19457,63.294345 617.51861,63.294345 C 640.98996,63.294345 651.35486,57.790578 657.77594,55.619126 L 651.92492,28.608167"
         style="fill:#254087;fill-rule:nonzero;stroke:none"
         id="path3439" />
      <path
         d="M 1175.1819,-32.135394 C 1189.584,-32.135394 1193.8958,-19.008235 1193.8958,-11.783891 C 1193.8698,-11.794253 1155.1673,-11.794253 1155.1569,-11.783891 C 1155.1569,-22.003693 1162.2465,-32.135394 1175.1819,-32.135394 z M 1216.4602,28.602988 C 1210.148,30.748524 1200.5863,33.697341 1188.4334,33.697341 C 1171.4143,33.697341 1158.1109,28.027735 1155.9291,14.563714 L 1228.4472,14.563714 C 1228.9862,11.97767 1229.9346,7.7954277 1229.9346,-0.87481991 C 1229.9346,-31.503134 1214.7034,-59.597224 1175.8453,-59.597224 C 1138.0963,-59.597224 1117.9832,-30.00022 1117.9832,3.1674941 C 1117.9832,41.408834 1144.7609,63.283979 1182.0642,63.283979 C 1205.5097,63.283979 1215.8849,57.790578 1222.3163,55.613943 L 1216.4602,28.602988"
         style="fill:#254087;fill-rule:nonzero;stroke:none"
         id="path3443" />
      <path
         d="M 801.84821,34.091206 C 789.0838,34.091206 780.69339,21.466745 780.69339,1.939253 C 780.69339,-13.623664 786.31638,-30.233432 801.99329,-30.233432 C 817.12087,-30.233432 822.48471,-13.017316 822.48471,1.7682303 C 822.48471,21.389006 814.32235,34.091206 801.84821,34.091206 z M 801.32993,63.26325 C 832.01525,63.26325 863.07371,43.943055 863.07371,0.78356332 C 863.07371,-24.921416 847.85284,-59.431388 803.25263,-59.431388 C 757.34125,-59.431388 740.59674,-25.983818 740.59674,2.742531 C 740.59674,38.786512 765.62801,63.26325 801.32993,63.26325"
         style="fill:#254087;fill-rule:nonzero;stroke:none"
         id="path3447" />
      <path
         d="M 880.4764,60.863774 L 919.91491,60.863774 L 919.91491,-57.037091 L 880.4764,-57.037091 L 880.4764,60.863774 z "
         style="fill:#254087;fill-rule:nonzero;stroke:none"
         id="path3449" />
      <path
         d="M 1042.3297,-89.116492 L 1042.3867,-57.063003 L 1027.2176,-57.026729 L 1027.2176,-27.813224 L 1042.3297,-27.797678 L 1042.3297,20.907041 C 1042.3297,46.8245 1054.581,63.361717 1082.2398,63.361717 C 1094.5844,63.361717 1107.9292,60.153776 1110.1473,59.438599 C 1110.1784,59.412683 1109.9192,28.898385 1109.9192,28.789556 C 1108.6547,29.214515 1101.2076,30.753707 1096.3153,30.753707 C 1090.7649,30.753707 1080.9908,29.193786 1080.9908,14.330502 L 1080.9908,-27.813224 L 1106.4056,-27.813224 L 1106.4056,-57.083735 C 1106.4056,-57.083735 1084.3438,-57.083735 1080.9908,-57.083735 C 1080.9908,-60.530068 1080.9908,-93.490486 1080.9908,-93.490486 L 1042.3297,-89.116492"
         style="fill:#254087;fill-rule:nonzero;stroke:none"
         id="path3453" />
      <path
         d="M 951.05626,-89.116492 L 951.11327,-57.063003 L 935.94423,-57.026729 L 935.94423,-27.813224 L 951.05626,-27.797678 L 951.05626,20.907041 C 951.05626,46.8245 963.30761,63.361717 990.97153,63.361717 C 1003.311,63.361717 1016.6558,60.153776 1018.8739,59.438599 C 1018.905,59.412683 1018.6459,28.898385 1018.6459,28.789556 C 1017.3813,29.214515 1009.9341,30.753707 1005.0471,30.753707 C 999.49148,30.753707 989.71738,29.193786 989.71738,14.330502 L 989.71738,-27.813224 L 1015.1373,-27.813224 L 1015.1373,-57.083735 C 1015.1373,-57.083735 993.07045,-57.083735 989.71738,-57.083735 C 989.71738,-60.530068 989.71738,-93.490486 989.71738,-93.490486 L 951.05626,-89.116492"
         style="fill:#254087;fill-rule:nonzero;stroke:none"
         id="path3457" />
      <path
         d="M 880.4764,-68.283021 L 919.91491,-68.283021 L 919.91491,-98.911335 L 880.4764,-98.911335 L 880.4764,-68.283021 z "
         style="fill:#254087;fill-rule:nonzero;stroke:none"
         id="path3459" />
      <path
         d="M 400.5551,61.050342 L 447.078,61.02961 C 515.28432,61.02961 541.27952,20.321421 541.27952,-18.360426 C 541.27952,-71.366583 507.47951,-101.60621 446.12961,-101.60621 C 429.26589,-101.60621 410.6868,-100.85994 400.50845,-99.745708 L 400.5551,61.050342 z M 453.02227,29.364809 C 447.76209,29.250793 442.29459,29.660206 439.52717,29.421815 C 439.54272,29.411449 439.29397,-68.827179 439.4546,-68.847908 C 442.35679,-69.153675 447.49261,-69.423161 453.46798,-69.423161 C 476.63356,-69.423161 500.29664,-54.259296 500.29664,-19.531661 C 500.29664,20.264415 470.05703,29.737945 453.02227,29.364809"
         style="fill:#254087;fill-rule:evenodd;stroke:none"
         id="path3463" />
      <path
         d="M 1242.6938,41.621313 C 1242.6938,29.572106 1252.4627,19.808358 1264.5119,19.808358 C 1276.5559,19.808358 1286.3352,29.572106 1286.3352,41.621313 C 1286.3352,53.675708 1276.5559,63.444635 1264.5119,63.444635 C 1252.4627,63.444635 1242.6938,53.675708 1242.6938,41.621313"
         style="fill:#96cb3c;fill-rule:nonzero;stroke:none"
         id="path3467" />
    </g>
  </g>
</svg>
