<?xml version="1.0" encoding="utf-8"?>
<!-- Generator: Adobe Illustrator 18.1.1, SVG Export Plug-In . SVG Version: 6.00 Build 0)  -->
<!DOCTYPE svg PUBLIC "-//W3C//DTD SVG 1.1//EN" "http://www.w3.org/Graphics/SVG/1.1/DTD/svg11.dtd">
<svg version="1.1" id="Layer_1" xmlns="http://www.w3.org/2000/svg" xmlns:xlink="http://www.w3.org/1999/xlink" x="0px" y="0px"
	 viewBox="0 0 800 600" enable-background="new 0 0 800 600" xml:space="preserve">
<g enable-background="new    ">
	<path fill="#FED136" d="M356.9,304.7c0,8.1-1.4,15.6-4.2,22.5c-2.8,6.8-6.8,12.8-11.8,17.8c-5.1,5-11.2,8.9-18.4,11.8
		c-7.2,2.8-15.1,4.2-23.8,4.2H255V248.5h43.7c8.8,0,16.7,1.4,23.8,4.2c7.2,2.8,13.3,6.8,18.4,11.8s9,10.9,11.8,17.8
		C355.5,289.1,356.9,296.6,356.9,304.7z M330.2,304.7c0-5.6-0.7-10.6-2.2-15c-1.4-4.5-3.5-8.2-6.2-11.3c-2.7-3.1-6-5.5-9.9-7.2
		c-3.9-1.7-8.3-2.5-13.3-2.5h-17.4v72.2h17.4c5,0,9.4-0.8,13.3-2.5c3.9-1.7,7.2-4.1,9.9-7.2c2.7-3.1,4.8-6.9,6.2-11.3
		C329.5,315.2,330.2,310.2,330.2,304.7z"/>
	<path fill="#FED136" d="M441.7,248.5v20h-46.1v26.2h35.3V314h-35.3v26.8h46.1v20h-72.3V248.5H441.7z"/>
	<path fill="#FED136" d="M482.6,340h41.6v20.8h-67.7V248.5h26.1V340z"/>
	<path fill="#FED136" d="M604.2,248.5v20.7h-31.6v91.7h-26.1v-91.7h-31.6v-20.7H604.2z"/>
	<path fill="#FED136" d="M707.2,360.8H687c-2.2,0-4.1-0.5-5.6-1.6s-2.5-2.4-3.1-4.1l-6.7-19.6H629l-6.7,19.6c-0.5,1.4-1.5,2.7-3,3.9
		c-1.5,1.2-3.3,1.8-5.5,1.8h-20.3L637,248.5h26.7L707.2,360.8z M635,317.9h30.7l-10.3-30.8c-0.7-1.9-1.4-4.2-2.3-6.9
		c-0.9-2.7-1.7-5.5-2.7-8.6c-0.8,3.2-1.7,6-2.6,8.7c-0.8,2.7-1.7,5-2.5,6.9L635,317.9z"/>
</g>
<g>
	<path fill="#FED136" d="M161.2,360.8c-31,0-56.2-25.2-56.2-56.2s25.2-56.3,56.2-56.3s56.2,25.3,56.2,56.3S192.2,360.8,161.2,360.8z
		 M161.2,274.6c-16.6,0-30,13.5-30,30c0,16.5,13.5,30,30,30c16.6,0,30-13.5,30-30C191.2,288.1,177.8,274.6,161.2,274.6z"/>
</g>
<rect x="191.2" y="248.3" fill="#FED136" width="26.3" height="58.9"/>
<rect x="105" y="307.2" fill="#FED136" width="26.2" height="53.6"/>
</svg>
