<?xml version="1.0" encoding="utf-8"?>
<!-- Generator: Adobe Illustrator 18.1.1, SVG Export Plug-In . SVG Version: 6.00 Build 0)  -->
<svg version="1.1" id="Layer_1" xmlns="http://www.w3.org/2000/svg" xmlns:xlink="http://www.w3.org/1999/xlink" x="0px" y="0px"
	 width="722.6px" height="135.2px" viewBox="126 298 722.6 135.2" enable-background="new 126 298 722.6 135.2"
	 xml:space="preserve">
<g>
	<g enable-background="new    ">
		<path fill="#FED136" d="M428.3,365.6c0,9.7-1.7,18.7-5,27c-3.4,8.2-8.2,15.4-14.2,21.4c-6.1,6-13.4,10.7-22.1,14.2
			c-8.6,3.4-18.1,5-28.6,5H306v-135h52.4c10.6,0,20,1.7,28.6,5c8.6,3.4,16,8.2,22.1,14.2c6.1,6,10.8,13.1,14.2,21.4
			C426.6,346.9,428.3,355.9,428.3,365.6z M396.2,365.6c0-6.7-0.8-12.7-2.6-18c-1.7-5.4-4.2-9.8-7.4-13.6c-3.2-3.7-7.2-6.6-11.9-8.6
			s-10-3-16-3h-20.9v86.6h20.9c6,0,11.3-1,16-3c4.7-2,8.6-4.9,11.9-8.6c3.2-3.7,5.8-8.3,7.4-13.6
			C395.4,378.2,396.2,372.2,396.2,365.6z"/>
		<path fill="#FED136" d="M530,298.2v24h-55.3v31.4h42.4v23.2h-42.4V409H530v24h-86.8V298.2H530z"/>
		<path fill="#FED136" d="M579.1,408H629v25h-81.2V298.2h31.3V408z"/>
		<path fill="#FED136" d="M725,298.2V323h-37.9v110h-31.3V323h-37.9v-24.8L725,298.2L725,298.2z"/>
		<path fill="#FED136" d="M848.6,433h-24.2c-2.6,0-4.9-0.6-6.7-1.9c-1.8-1.3-3-2.9-3.7-4.9l-8-23.5h-51.1l-8,23.5
			c-0.6,1.7-1.8,3.2-3.6,4.7c-1.8,1.4-4,2.2-6.6,2.2h-24.4l52.2-134.8h32L848.6,433z M762,381.5h36.8l-12.4-37
			c-0.8-2.3-1.7-5-2.8-8.3c-1.1-3.2-2-6.6-3.2-10.3c-1,3.8-2,7.2-3.1,10.4c-1,3.2-2,6-3,8.3L762,381.5z"/>
	</g>
	<g>
		<path fill="#FED136" d="M193.4,433c-37.2,0-67.4-30.2-67.4-67.4s30.2-67.6,67.4-67.6s67.4,30.4,67.4,67.6S230.6,433,193.4,433z
			 M193.4,329.5c-19.9,0-36,16.2-36,36c0,19.8,16.2,36,36,36c19.9,0,36-16.2,36-36C229.4,345.7,213.4,329.5,193.4,329.5z"/>
	</g>
	<rect x="229.4" y="298" fill="#FED136" width="31.6" height="70.7"/>
	<rect x="126" y="368.6" fill="#FED136" width="31.4" height="64.3"/>
</g>
</svg>
