<?xml version="1.0" encoding="utf-8"?>
<!-- Generator: Adobe Illustrator 18.1.1, SVG Export Plug-In . SVG Version: 6.00 Build 0)  -->
<svg version="1.1" id="Layer_1" xmlns="http://www.w3.org/2000/svg" xmlns:xlink="http://www.w3.org/1999/xlink" x="0px" y="0px"
	 width="284.2px" height="76.6px" viewBox="338.2 318.1 284.2 76.6" enable-background="new 338.2 318.1 284.2 76.6"
	 xml:space="preserve">
<g>
	<g>
		<defs>
			<rect id="SVGID_1_" x="338.2" y="318.1" width="284.2" height="84.4"/>
		</defs>
		<clipPath id="SVGID_2_">
			<use xlink:href="#SVGID_1_"  overflow="visible"/>
		</clipPath>
		<g clip-path="url(#SVGID_2_)">
			<path fill="#FFFFFF" d="M376.8,382.5c14.8,0,26.8-12,26.8-26.7c0-14.8-12.6-26.6-26.8-26.6c-14.8,0-26.9,11.8-26.9,26.6
				C349.9,370.6,362,382.5,376.8,382.5"/>
		</g>
	</g>
	<g>
		<defs>
			<rect id="SVGID_3_" x="338.2" y="318.1" width="284.2" height="84.4"/>
		</defs>
		<clipPath id="SVGID_4_">
			<use xlink:href="#SVGID_3_"  overflow="visible"/>
		</clipPath>
		<g clip-path="url(#SVGID_4_)">
			<path fill="#FFFFFF" d="M389.3,338.9c-3.5,0.5-8.1,0.8-12.9,0.8c0.1-5.3,0.2-9.1,0.3-10.3C381.5,330.3,386,333.8,389.3,338.9"/>
		</g>
	</g>
	<g>
		<defs>
			<rect id="SVGID_5_" x="338.2" y="318.1" width="284.2" height="84.4"/>
		</defs>
		<clipPath id="SVGID_6_">
			<use xlink:href="#SVGID_5_"  overflow="visible"/>
		</clipPath>
		<g clip-path="url(#SVGID_6_)">
			<path fill="#E31837" d="M395.1,358c-5,0.8-11.7,1.2-18.7,1.2c0-7.2,0-14.2,0.1-19.6c4.8,0,9.5-0.3,12.9-0.8
				C392.7,343.9,394.9,350.7,395.1,358"/>
		</g>
	</g>
	<g>
		<defs>
			<rect id="SVGID_7_" x="338.2" y="318.1" width="284.2" height="84.4"/>
		</defs>
		<clipPath id="SVGID_8_">
			<use xlink:href="#SVGID_7_"  overflow="visible"/>
		</clipPath>
		<g clip-path="url(#SVGID_8_)">
			<path fill="#FFFFFF" d="M394.6,357.9c-1.4-0.2-2.6-2.5-1.9-4.9c-2,1.4-4.2-1.4-3.8-4c0.2-1.4,1.1-2.6,2.6-2
				c-0.6-2.2-1.4-4.2-2.4-6.1c-1.4,0.2-2.9,0.3-4.5,0.4c1.4,2.2,0,4.2-2,3.8c-1.4-0.2-2.8-1.7-2.4-3.6c-1.2,0.8-3.6,0.5-3.8-2.1
				c4.4,0,8.3-0.2,12.9-0.8v0c3.7,6.2,5.3,11.5,5.7,19.2C395,357.9,394.8,358,394.6,357.9"/>
		</g>
	</g>
	<g>
		<defs>
			<rect id="SVGID_9_" x="338.2" y="318.1" width="284.2" height="84.4"/>
		</defs>
		<clipPath id="SVGID_10_">
			<use xlink:href="#SVGID_9_"  overflow="visible"/>
		</clipPath>
		<g clip-path="url(#SVGID_10_)">
			<path fill="#FFFFFF" d="M362.6,376c-2.8-0.5-4.6-1.1-5.2-1.7c-0.7-0.8-1.6-1.8-2.2-2.6c-1.5-2.2-1.6-2.3-2.2-3.6
				c-1.2-2.5-1.2-2.5-1.7-3.9c-0.8-2.7-0.8-2.7-1-4.2c-0.2-1.3-0.3-3-0.3-4.2l0-1.2c0,1.1,2.7,2.2,7.4,3c0,0.4,0,0.8,0,1.1
				C357.3,365.7,359.3,371.7,362.6,376"/>
		</g>
	</g>
	<g>
		<defs>
			<rect id="SVGID_11_" x="338.2" y="318.1" width="284.2" height="84.4"/>
		</defs>
		<clipPath id="SVGID_12_">
			<use xlink:href="#SVGID_11_"  overflow="visible"/>
		</clipPath>
		<g clip-path="url(#SVGID_12_)">
			<path fill="#FFFFFF" d="M376.7,382.5c-0.1,0-0.3,0-0.4,0c-0.2,0-0.5,0-0.7,0c-1.6-0.1-2.7-0.2-4.1-0.5c-3.5-0.8-6.6-2.9-9-6.1
				c2.4,0.4,5.4,0.7,8.9,0.8c1.7,0.1,3.3,0.1,5,0.1C376.5,380.4,376.6,382.5,376.7,382.5"/>
		</g>
	</g>
	<g>
		<defs>
			<rect id="SVGID_13_" x="338.2" y="318.1" width="284.2" height="84.4"/>
		</defs>
		<clipPath id="SVGID_14_">
			<use xlink:href="#SVGID_13_"  overflow="visible"/>
		</clipPath>
		<g clip-path="url(#SVGID_14_)">
			<path fill="#E31837" d="M376.5,376.9c-1.7,0-3.3,0-5-0.1c-3.5-0.2-6.6-0.5-8.9-0.8c-3.2-4.2-5.2-10.2-5.2-17.2c0-0.3,0-0.6,0-0.9
				c3.2,0.5,7.4,0.9,12.2,1.2c2.3,0.1,4.6,0.1,6.8,0.1c0,0.3,0,0.6,0,0.9C376.4,367,376.4,372.9,376.5,376.9"/>
		</g>
	</g>
	<g>
		<defs>
			<rect id="SVGID_15_" x="338.2" y="318.1" width="284.2" height="84.4"/>
		</defs>
		<clipPath id="SVGID_16_">
			<use xlink:href="#SVGID_15_"  overflow="visible"/>
		</clipPath>
		<g clip-path="url(#SVGID_16_)">
			<path fill="#E31837" d="M376.4,377.2c-0.2,0.9-1.5,1.8-3.4,1.1c0.9,1.1,0.1,2.1-1.4,1.8c-1.2-0.2-2.6-1.2-2.7-2.1
				c-1.5-0.1-2.8-0.3-4-0.4c1.1,1.3,2.4,2.4,3.7,3.2c0.2-0.1,0.4,0,1.2,0.2c1,0.4,2,0.9,3,1.2c0,0,0,0,0,0c-0.8-0.1-0.9-0.1-1.5-0.2
				c-1.9-0.6-5.5-1.6-9-6.1h0h0c4.1,0.6,8.2,0.9,13.9,1C376.5,377,376.5,377.1,376.4,377.2"/>
		</g>
	</g>
	<g>
		<defs>
			<rect id="SVGID_17_" x="338.2" y="318.1" width="284.2" height="84.4"/>
		</defs>
		<clipPath id="SVGID_18_">
			<use xlink:href="#SVGID_17_"  overflow="visible"/>
		</clipPath>
		<g clip-path="url(#SVGID_18_)">
			<path fill="#FFFFFF" d="M362.5,375.9L362.5,375.9c-3.7-5.3-5.1-10.4-5.2-18.1c2.1,0.7,2.7,3.7,2.1,5.5c2-0.8,4.5,2.7,3.6,5
				c-0.4,1.1-1.4,1.4-2.5,0.7c0.6,2,1.4,3.8,2.3,5.5c1.4,0.2,3,0.4,4.7,0.5c-1.4-1.7-0.3-3.1,1.6-3c1.6,0.1,3.7,1.4,3.2,3.2
				c1.4-0.6,3.9-0.1,4.1,1.8c-1.7,0-4.4,0-7.7-0.3C366.7,376.5,364.6,376.1,362.5,375.9"/>
		</g>
	</g>
	<g>
		<defs>
			<rect id="SVGID_19_" x="338.2" y="318.1" width="284.2" height="84.4"/>
		</defs>
		<clipPath id="SVGID_20_">
			<use xlink:href="#SVGID_19_"  overflow="visible"/>
		</clipPath>
		<g clip-path="url(#SVGID_20_)">
			<path fill="#C13936" d="M362.5,375.9"/>
		</g>
	</g>
	<g>
		<defs>
			<rect id="SVGID_21_" x="338.2" y="318.1" width="284.2" height="84.4"/>
		</defs>
		<clipPath id="SVGID_22_">
			<use xlink:href="#SVGID_21_"  overflow="visible"/>
		</clipPath>
		<g clip-path="url(#SVGID_22_)">
			<path fill="#C13936" d="M362.5,375.9"/>
		</g>
	</g>
	<g>
		<defs>
			<rect id="SVGID_23_" x="338.2" y="318.1" width="284.2" height="84.4"/>
		</defs>
		<clipPath id="SVGID_24_">
			<use xlink:href="#SVGID_23_"  overflow="visible"/>
		</clipPath>
		<g clip-path="url(#SVGID_24_)">
			<path fill="#E31837" d="M362.5,375.9c-3.1-0.6-4.4-1-5.2-1.7c-0.6-0.7-1.4-1.6-2-2.4c0.1,0.1,0.2,0.2,0.5,0.6
				c-0.3-0.3-1.7-2.1-1.8-2.9c0.8-0.1,3.2,3.7,3.2,3.7c0.7,0.3,1.7,0.5,2.9,0.8c-1.1-1.7-2-3.5-2.7-5.5c-1.7,0.8-3.8-3.6-3.1-5.4
				c0.1-0.4,0.6-1.2,1.7-0.3c-0.9-2-0.6-4.9,1.4-4.9C357.4,364.3,358.3,369.9,362.5,375.9"/>
		</g>
	</g>
	<g>
		<defs>
			<rect id="SVGID_25_" x="338.2" y="318.1" width="284.2" height="84.4"/>
		</defs>
		<clipPath id="SVGID_26_">
			<use xlink:href="#SVGID_25_"  overflow="visible"/>
		</clipPath>
		<g clip-path="url(#SVGID_26_)">
			<path d="M395,362.6L395,362.6c0.1-1.2,0.1-2.5,0.1-3.7c0-0.3,0-0.6,0-0.9c0,0,0,0,0,0c0,0.3,0,0.6,0,0.9
				C395.1,360.1,395.1,361.3,395,362.6"/>
		</g>
	</g>
	<g>
		<defs>
			<rect id="SVGID_27_" x="338.2" y="318.1" width="284.2" height="84.4"/>
		</defs>
		<clipPath id="SVGID_28_">
			<use xlink:href="#SVGID_27_"  overflow="visible"/>
		</clipPath>
		<g clip-path="url(#SVGID_28_)">
			<path d="M380.9,382.2L380.9,382.2c7.3-1.1,13-9,14.1-19.7l0,0C393.9,373.3,388.2,381.1,380.9,382.2"/>
		</g>
	</g>
	<g>
		<defs>
			<rect id="SVGID_29_" x="338.2" y="318.1" width="284.2" height="84.4"/>
		</defs>
		<clipPath id="SVGID_30_">
			<use xlink:href="#SVGID_29_"  overflow="visible"/>
		</clipPath>
		<g clip-path="url(#SVGID_30_)">
			<path d="M389.7,379.2c-1.8,0.9-2.2,1.1-4.1,1.9c-0.6,0.2-1.3,0.4-1.9,0.6c3.7-1,7.1-3.2,9.7-6.1c-0.6,1.2-0.9,1.9-2.9,3.2
				C390.2,378.9,390,379,389.7,379.2"/>
		</g>
	</g>
	<g>
		<defs>
			<rect id="SVGID_31_" x="338.2" y="318.1" width="284.2" height="84.4"/>
		</defs>
		<clipPath id="SVGID_32_">
			<use xlink:href="#SVGID_31_"  overflow="visible"/>
		</clipPath>
		<g clip-path="url(#SVGID_32_)">
			<path fill="#FFD24F" d="M390.5,378.7c1.6-1.1,2.3-1.8,2.9-3.2c3.8-4.4,6.2-10.5,6.2-17.6c0-0.3,0-0.6,0-0.9
				c1.2-0.3,2.2-0.7,2.9-1c0,0.3,0,0.6,0,0.9C402.5,366.3,397.7,374.4,390.5,378.7"/>
		</g>
	</g>
	<g>
		<defs>
			<rect id="SVGID_33_" x="338.2" y="318.1" width="284.2" height="84.4"/>
		</defs>
		<clipPath id="SVGID_34_">
			<use xlink:href="#SVGID_33_"  overflow="visible"/>
		</clipPath>
		<g clip-path="url(#SVGID_34_)">
			<path d="M382.4,371.8c-1.8-1.8-1.8-1.8-6.1-5.8c0-1.9,0-3.9,0-5.9c0-0.3,0-0.6,0-0.9c2.3,0,4.6,0,6.8-0.1c0,0.3,0,0.6,0,0.9
				C383.2,364.4,382.9,368.4,382.4,371.8"/>
		</g>
	</g>
	<g>
		<defs>
			<rect id="SVGID_35_" x="338.2" y="318.1" width="284.2" height="84.4"/>
		</defs>
		<clipPath id="SVGID_36_">
			<use xlink:href="#SVGID_35_"  overflow="visible"/>
		</clipPath>
		<g clip-path="url(#SVGID_36_)">
			<path fill="#FFD24F" d="M377.9,382.5l-0.2,0c-0.4,0-0.5,0-0.7,0l-0.3,0c-0.2,0-0.3-6.6-0.3-16.6c4,3.8,4.4,4.2,6.1,5.8
				C381.5,378.3,379.8,382.4,377.9,382.5"/>
		</g>
	</g>
	<g>
		<defs>
			<rect id="SVGID_37_" x="338.2" y="318.1" width="284.2" height="84.4"/>
		</defs>
		<clipPath id="SVGID_38_">
			<use xlink:href="#SVGID_37_"  overflow="visible"/>
		</clipPath>
		<g clip-path="url(#SVGID_38_)">
			<path d="M379.1,382.4c-0.2,0-0.5,0-0.7,0.1c-0.2,0-0.4,0-0.6,0c2-0.1,3.7-4.2,4.6-10.7c1.9,2,2.8,3,3.7,4.5
				C384.3,380,381.9,382.2,379.1,382.4"/>
		</g>
	</g>
	<g>
		<defs>
			<rect id="SVGID_39_" x="338.2" y="318.1" width="284.2" height="84.4"/>
		</defs>
		<clipPath id="SVGID_40_">
			<use xlink:href="#SVGID_39_"  overflow="visible"/>
		</clipPath>
		<g clip-path="url(#SVGID_40_)">
			<path fill="#FFD24F" d="M386.2,376.4c-0.9-1.4-1.5-2.2-3.7-4.5c0.5-3.4,0.7-7.4,0.7-11.9c0-0.3,0-0.6,0-0.9
				c2.2-0.1,4.3-0.2,6.3-0.4c0,0.3,0,0.6,0,0.9C389.5,366.4,388.2,372.3,386.2,376.4"/>
		</g>
	</g>
	<g>
		<defs>
			<rect id="SVGID_41_" x="338.2" y="318.1" width="284.2" height="84.4"/>
		</defs>
		<clipPath id="SVGID_42_">
			<use xlink:href="#SVGID_41_"  overflow="visible"/>
		</clipPath>
		<g clip-path="url(#SVGID_42_)">
			<path d="M386.7,379.7c0.3-1.1,0.3-1.7-0.5-3.3c2.1-4.1,3.3-10,3.3-16.9c0-0.3,0-0.6,0-0.9c0.7-0.1,1.5-0.1,2.2-0.2
				c1,1.2,2.2,2.6,3.3,4.1C394.2,370.2,391.1,376.3,386.7,379.7"/>
		</g>
	</g>
	<g>
		<defs>
			<rect id="SVGID_43_" x="338.2" y="318.1" width="284.2" height="84.4"/>
		</defs>
		<clipPath id="SVGID_44_">
			<use xlink:href="#SVGID_43_"  overflow="visible"/>
		</clipPath>
		<g clip-path="url(#SVGID_44_)">
			<path fill="#FFD24F" d="M380.8,382.2c-0.2,0-0.5,0.1-0.7,0.1c-0.6,0.1-0.6,0.1-1,0.1l-0.1,0c2.8-0.2,5.2-2.5,7-6.1
				c0.7,1.4,1,2.1,0.5,3.3C384.9,381,383,381.9,380.8,382.2"/>
		</g>
	</g>
	<g>
		<defs>
			<rect id="SVGID_45_" x="338.2" y="318.1" width="284.2" height="84.4"/>
		</defs>
		<clipPath id="SVGID_46_">
			<use xlink:href="#SVGID_45_"  overflow="visible"/>
		</clipPath>
		<g clip-path="url(#SVGID_46_)">
			<path fill="#FFD24F" d="M383.7,381.6l-0.6,0.2c-1.1,0.2-1.1,0.2-1.7,0.3l-0.5,0.1c5.2-0.8,9.6-5,12.1-11.1
				c0.7,1.8,0.9,2.7,0.4,4.4C390.7,378.5,387.4,380.6,383.7,381.6"/>
		</g>
	</g>
	<g>
		<defs>
			<rect id="SVGID_47_" x="338.2" y="318.1" width="284.2" height="84.4"/>
		</defs>
		<clipPath id="SVGID_48_">
			<use xlink:href="#SVGID_47_"  overflow="visible"/>
		</clipPath>
		<g clip-path="url(#SVGID_48_)">
			<path d="M383,381.8c-1.1,0.2-1.1,0.2-1.7,0.3l-0.5,0.1c2.1-0.3,4.1-1.2,5.8-2.5c-0.6,0.9-1,1.3-3,1.9L383,381.8z"/>
		</g>
	</g>
	<g>
		<defs>
			<rect id="SVGID_49_" x="338.2" y="318.1" width="284.2" height="84.4"/>
		</defs>
		<clipPath id="SVGID_50_">
			<use xlink:href="#SVGID_49_"  overflow="visible"/>
		</clipPath>
		<g clip-path="url(#SVGID_50_)">
			<path d="M393.4,375.5c0.4-1.5,0.4-2.4-0.4-4.4c1.4-3.5,2.2-7.7,2.2-12.2c0-0.3,0-0.6,0-0.9c1.7-0.3,3.2-0.6,4.4-0.9
				c0,0.3,0,0.6,0,0.9C399.6,365,397.2,371.1,393.4,375.5"/>
		</g>
	</g>
	<g>
		<defs>
			<rect id="SVGID_51_" x="338.2" y="318.1" width="284.2" height="84.4"/>
		</defs>
		<clipPath id="SVGID_52_">
			<use xlink:href="#SVGID_51_"  overflow="visible"/>
		</clipPath>
		<g clip-path="url(#SVGID_52_)">
			<path fill="#FFD24F" d="M389.7,379.2c0.2-0.1,0.5-0.3,0.7-0.4l-0.3,0.2L389.7,379.2z"/>
		</g>
	</g>
	<g>
		<defs>
			<rect id="SVGID_53_" x="338.2" y="318.1" width="284.2" height="84.4"/>
		</defs>
		<clipPath id="SVGID_54_">
			<use xlink:href="#SVGID_53_"  overflow="visible"/>
		</clipPath>
		<g clip-path="url(#SVGID_54_)">
			<path d="M402.6,356.8c0,9.6-4.9,17.8-12.4,22.1l0,0l0.3-0.2c7.2-4.4,12-12.4,12-21.9c0-0.3,0-0.6,0-0.9c0,0,0.1,0,0.1-0.1
				C402.6,356.2,402.6,356.5,402.6,356.8"/>
		</g>
	</g>
	<g>
		<defs>
			<rect id="SVGID_55_" x="338.2" y="318.1" width="284.2" height="84.4"/>
		</defs>
		<clipPath id="SVGID_56_">
			<use xlink:href="#SVGID_55_"  overflow="visible"/>
		</clipPath>
		<g clip-path="url(#SVGID_56_)">
			<path fill="#FFD24F" d="M392.9,371.1c-0.9-1.9-1.6-3-3.8-5.6c0.2-1.9,0.3-3.9,0.3-6c0-0.3,0-0.6,0-0.9c2-0.2,3.9-0.4,5.6-0.7
				c0,0.3,0,0.6,0,0.9C395.1,363.4,394.3,367.6,392.9,371.1"/>
		</g>
	</g>
	<g>
		<defs>
			<rect id="SVGID_57_" x="338.2" y="318.1" width="284.2" height="84.4"/>
		</defs>
		<clipPath id="SVGID_58_">
			<use xlink:href="#SVGID_57_"  overflow="visible"/>
		</clipPath>
		<g clip-path="url(#SVGID_58_)">
			<path d="M389.1,365.5c-1.5-1.8-2.3-2.7-6-6.5c2.1-0.1,3.7-0.2,6.3-0.4c0,0.3,0,0.6,0,0.9C389.5,361.6,389.4,363.6,389.1,365.5"/>
		</g>
	</g>
	<g>
		<defs>
			<rect id="SVGID_59_" x="338.2" y="318.1" width="284.2" height="84.4"/>
		</defs>
		<clipPath id="SVGID_60_">
			<use xlink:href="#SVGID_59_"  overflow="visible"/>
		</clipPath>
		<g clip-path="url(#SVGID_60_)">
			<path d="M357.4,357.8C357.4,357.8,357.3,357.8,357.4,357.8c0-1.6,0.1-3.1,0.4-4.7l0,0.1C357.5,354.7,357.4,356.3,357.4,357.8"/>
		</g>
	</g>
	<g>
		<defs>
			<rect id="SVGID_61_" x="338.2" y="318.1" width="284.2" height="84.4"/>
		</defs>
		<clipPath id="SVGID_62_">
			<use xlink:href="#SVGID_61_"  overflow="visible"/>
		</clipPath>
		<g clip-path="url(#SVGID_62_)">
			<path d="M357.8,353.2L357.8,353.2c1.6-11.1,8-20.4,16.1-23.3l0,0C365.8,332.9,359.4,342.2,357.8,353.2"/>
		</g>
	</g>
	<g>
		<defs>
			<rect id="SVGID_63_" x="338.2" y="318.1" width="284.2" height="84.4"/>
		</defs>
		<clipPath id="SVGID_64_">
			<use xlink:href="#SVGID_63_"  overflow="visible"/>
		</clipPath>
		<g clip-path="url(#SVGID_64_)">
			<path d="M373.8,330L373.8,330c1-0.3,1.9-0.6,2.9-0.7C375.7,329.4,374.7,329.6,373.8,330"/>
		</g>
	</g>
	<g>
		<defs>
			<rect id="SVGID_65_" x="338.2" y="318.1" width="284.2" height="84.4"/>
		</defs>
		<clipPath id="SVGID_66_">
			<use xlink:href="#SVGID_65_"  overflow="visible"/>
		</clipPath>
		<g clip-path="url(#SVGID_66_)">
			<path fill="#FFD24F" d="M360.6,337.8c0.9-2.1,1.6-3.1,3.6-4.8c3.7-2.2,7.9-3.6,12.5-3.8C370.5,329.8,364.8,333,360.6,337.8"/>
		</g>
	</g>
	<g>
		<defs>
			<rect id="SVGID_67_" x="338.2" y="318.1" width="284.2" height="84.4"/>
		</defs>
		<clipPath id="SVGID_68_">
			<use xlink:href="#SVGID_67_"  overflow="visible"/>
		</clipPath>
		<g clip-path="url(#SVGID_68_)">
			<path d="M353.2,356.9c-1.1-0.3-1.9-0.7-2.5-1c0.3-9.7,5.7-18.2,13.5-22.9c-1.8,1.6-2.7,2.6-3.6,4.8
				C356.2,342.9,353.4,349.6,353.2,356.9"/>
		</g>
	</g>
	<g>
		<defs>
			<rect id="SVGID_69_" x="338.2" y="318.1" width="284.2" height="84.4"/>
		</defs>
		<clipPath id="SVGID_70_">
			<use xlink:href="#SVGID_69_"  overflow="visible"/>
		</clipPath>
		<g clip-path="url(#SVGID_70_)">
			<path fill="#FFD24F" d="M376.4,359.1c-2.3,0-4.5,0-6.8-0.1c-0.1,0-0.1,0-0.2,0c0-4.8,0.4-9.4,1.1-13.6c1.9,2.4,3,3.6,6,6.7
				C376.3,354.4,376.3,356.8,376.4,359.1"/>
		</g>
	</g>
	<g>
		<defs>
			<rect id="SVGID_71_" x="338.2" y="318.1" width="284.2" height="84.4"/>
		</defs>
		<clipPath id="SVGID_72_">
			<use xlink:href="#SVGID_71_"  overflow="visible"/>
		</clipPath>
		<g clip-path="url(#SVGID_72_)">
			<path fill="#FFD24F" d="M370.4,345.4c-1.8-2.5-2.6-3.8-3.3-6.2c2.5-5.3,5.9-9,9.6-10C374,330.7,371.7,337.1,370.4,345.4"/>
		</g>
	</g>
	<g>
		<defs>
			<rect id="SVGID_73_" x="338.2" y="318.1" width="284.2" height="84.4"/>
		</defs>
		<clipPath id="SVGID_74_">
			<use xlink:href="#SVGID_73_"  overflow="visible"/>
		</clipPath>
		<g clip-path="url(#SVGID_74_)">
			<path d="M369.3,359c-2.3-0.1-4.5-0.3-6.5-0.4c0.1-7.2,1.7-14,4.2-19.3c0.8,2.2,1.4,3.5,3.3,6.2
				C369.8,349.5,369.4,354.2,369.3,359"/>
		</g>
	</g>
	<g>
		<defs>
			<rect id="SVGID_75_" x="338.2" y="318.1" width="284.2" height="84.4"/>
		</defs>
		<clipPath id="SVGID_76_">
			<use xlink:href="#SVGID_75_"  overflow="visible"/>
		</clipPath>
		<g clip-path="url(#SVGID_76_)">
			<path fill="#FFD24F" d="M362.8,358.5c-0.7-0.1-1.5-0.1-2.2-0.2c-0.9-1.4-2-3.1-2.9-5.1c1.1-7.8,4.7-14.8,9.5-19.2
				c-0.6,1.8-0.8,2.8-0.2,5.2C364.5,344.5,363,351.4,362.8,358.5"/>
		</g>
	</g>
	<g>
		<defs>
			<rect id="SVGID_77_" x="338.2" y="318.1" width="284.2" height="84.4"/>
		</defs>
		<clipPath id="SVGID_78_">
			<use xlink:href="#SVGID_77_"  overflow="visible"/>
		</clipPath>
		<g clip-path="url(#SVGID_78_)">
			<path d="M367.1,339.2c-0.5-2.2-0.5-3.3,0.2-5.2c2.8-2.6,6-4.3,9.4-4.8C372.9,330.2,369.5,334,367.1,339.2"/>
		</g>
	</g>
	<g>
		<defs>
			<rect id="SVGID_79_" x="338.2" y="318.1" width="284.2" height="84.4"/>
		</defs>
		<clipPath id="SVGID_80_">
			<use xlink:href="#SVGID_79_"  overflow="visible"/>
		</clipPath>
		<g clip-path="url(#SVGID_80_)">
			<path d="M360.3,344.2c-0.4-2.6-0.4-4,0.4-6.4c4.2-4.8,9.8-8,16.1-8.6c-1.5,0.2-1.7,0.3-2.9,0.7
				C368.1,332,363.2,337.3,360.3,344.2"/>
		</g>
	</g>
	<g>
		<defs>
			<rect id="SVGID_81_" x="338.2" y="318.1" width="284.2" height="84.4"/>
		</defs>
		<clipPath id="SVGID_82_">
			<use xlink:href="#SVGID_81_"  overflow="visible"/>
		</clipPath>
		<g clip-path="url(#SVGID_82_)">
			<path fill="#FFD24F" d="M367.3,334c0.9-1.6,1.5-2.3,3.8-3.5c1.8-0.7,3.7-1.1,5.7-1.3C373.3,329.7,370.1,331.5,367.3,334"/>
		</g>
	</g>
	<g>
		<defs>
			<rect id="SVGID_83_" x="338.2" y="318.1" width="284.2" height="84.4"/>
		</defs>
		<clipPath id="SVGID_84_">
			<use xlink:href="#SVGID_83_"  overflow="visible"/>
		</clipPath>
		<g clip-path="url(#SVGID_84_)">
			<path fill="#FFD24F" d="M357.3,357.8c-1.6-0.3-3-0.6-4.1-0.9c0.2-7.3,3-14.1,7.4-19.1c-0.7,2.3-0.8,3.6-0.4,6.4
				C358.5,348.3,357.4,353,357.3,357.8"/>
		</g>
	</g>
	<g>
		<defs>
			<rect id="SVGID_85_" x="338.2" y="318.1" width="284.2" height="84.4"/>
		</defs>
		<clipPath id="SVGID_86_">
			<use xlink:href="#SVGID_85_"  overflow="visible"/>
		</clipPath>
		<g clip-path="url(#SVGID_86_)">
			<path d="M364.3,333c2-1.4,3.1-2.1,6.1-3c2-0.5,4.1-0.7,6.3-0.7C372.2,329.4,368,330.8,364.3,333"/>
		</g>
	</g>
	<g>
		<defs>
			<rect id="SVGID_87_" x="338.2" y="318.1" width="284.2" height="84.4"/>
		</defs>
		<clipPath id="SVGID_88_">
			<use xlink:href="#SVGID_87_"  overflow="visible"/>
		</clipPath>
		<g clip-path="url(#SVGID_88_)">
			<path fill="#FFD24F" d="M350.8,355.9c-0.6-0.4-0.8-0.7-0.8-1.1l0-0.9c0.8-11.7,9.2-21.3,20.4-23.9c-2.5,0.8-3.9,1.4-6.1,3
				C356.4,337.7,351,346.2,350.8,355.9"/>
		</g>
	</g>
	<g>
		<defs>
			<rect id="SVGID_89_" x="338.2" y="318.1" width="284.2" height="84.4"/>
		</defs>
		<clipPath id="SVGID_90_">
			<use xlink:href="#SVGID_89_"  overflow="visible"/>
		</clipPath>
		<g clip-path="url(#SVGID_90_)">
			<path d="M362.8,358.5c-2-0.2-3.9-0.4-5.5-0.7c0.1-4.8,1.2-9.5,2.9-13.6c0.7,2.7,1.2,4.1,3.1,7.3
				C363.1,353.8,362.9,356.2,362.8,358.5"/>
		</g>
	</g>
	<g>
		<defs>
			<rect id="SVGID_91_" x="338.2" y="318.1" width="284.2" height="84.4"/>
		</defs>
		<clipPath id="SVGID_92_">
			<use xlink:href="#SVGID_91_"  overflow="visible"/>
		</clipPath>
		<g clip-path="url(#SVGID_92_)">
			<path fill="#FFD24F" d="M362.8,358.5c0-2.4,0.2-4.7,0.6-7c1.6,2.4,2.6,3.9,5.9,7.4C367.1,358.9,365.5,358.8,362.8,358.5"/>
		</g>
	</g>
	<g>
		<defs>
			<rect id="SVGID_93_" x="338.2" y="318.1" width="284.2" height="84.4"/>
		</defs>
		<clipPath id="SVGID_94_">
			<use xlink:href="#SVGID_93_"  overflow="visible"/>
		</clipPath>
		<g clip-path="url(#SVGID_94_)">
			<path d="M371,330.5c1.5-0.6,2.8-1.1,5.7-1.3C374.7,329.4,372.8,329.8,371,330.5"/>
		</g>
	</g>
	<g>
		<defs>
			<rect id="SVGID_95_" x="338.2" y="318.1" width="284.2" height="84.4"/>
		</defs>
		<clipPath id="SVGID_96_">
			<use xlink:href="#SVGID_95_"  overflow="visible"/>
		</clipPath>
		<g clip-path="url(#SVGID_96_)">
			<path d="M402.6,355.9c0.7-0.4,1-0.8,1-1.2c0.4,11.2-5.9,19.8-13.4,24.2l0,0l0.3-0.2c7.2-4.3,12-12.4,12-21.9c0-0.3,0-0.6,0-0.9
				C402.5,356,402.6,355.9,402.6,355.9c0,0.3,0,0.6,0,0.9"/>
		</g>
	</g>
	<g>
		<defs>
			<rect id="SVGID_97_" x="338.2" y="318.1" width="284.2" height="84.4"/>
		</defs>
		<clipPath id="SVGID_98_">
			<use xlink:href="#SVGID_97_"  overflow="visible"/>
		</clipPath>
		<g clip-path="url(#SVGID_98_)">
			<path fill="#E31837" d="M389.4,338.7L389.4,338.7C389.4,338.7,389.4,338.7,389.4,338.7L389.4,338.7
				C389.4,338.7,389.4,338.7,389.4,338.7c0.3,0,0.5-0.1,0.8-0.1c1.5-0.3,4.9-1,4.9-2c0,0,1.5,1.4,2.5,3.2c0.1,0.2,0.2,0.4,0.3,0.6
				c0.1,0.2,0.1,0.4,0.2,0.6c0,0,0,0,0,0c0,0.1,0,0.2,0,0.2c0,0,0,0.1,0,0.1c-0.1,0.6-0.4,0.6-0.8,0.4c0,0-0.1,0-0.1,0
				c-1.4-0.6-1.8-1.9-2.1-2.4c-0.7,0.2-1.9,0.7-2.8,0.9c-0.1,0-0.3,0.1-0.4,0.1c1.1,1.9,2.2,4.1,3,6.2c1.3-1.4,3.5,1.2,3.6,3.7
				c0.1,1.5-0.6,2.7-1.9,2.3c1.1,2,0.7,4.9-1.3,5.5C394.7,351.4,393.6,345.7,389.4,338.7L389.4,338.7"/>
		</g>
	</g>
	<g>
		<defs>
			<rect id="SVGID_99_" x="338.2" y="318.1" width="284.2" height="84.4"/>
		</defs>
		<clipPath id="SVGID_100_">
			<use xlink:href="#SVGID_99_"  overflow="visible"/>
		</clipPath>
		<g clip-path="url(#SVGID_100_)">
			<path fill="#E31837" d="M389.6,333.7C389.6,333.7,389.6,333.7,389.6,333.7C389.6,333.7,389.6,333.7,389.6,333.7
				C389.6,333.7,389.6,333.7,389.6,333.7c0-0.1,0-0.1,0-0.2c0,0,0.1,0,0.1,0l0,0c0,0,0.2-0.8,3.3,1.3c-5.2-4.1-10.5-5.2-13.6-5.5
				c0.3,0.1,0.6,0.2,0.8,0.3c0.2,0.1,0.3,0.2,0.4,0.2c0,0,0,0,0,0c0.4,0,0.7,0.1,1,0.2c0.1,0,0.2,0.1,0.3,0.1c0,0,0,0,0,0
				c0.1,0,0.2,0.1,0.3,0.1c0,0,0,0,0.1,0c0.1,0,0.2,0.1,0.3,0.1c0,0,0.1,0,0.1,0c0.1,0.1,0.2,0.1,0.4,0.2l0,0c0.9,0.5,1.7,1,1.7,1.4
				c-0.1,0.1-0.2,0.1-0.6,0c1.6,1.1,3.8,3.2,5.2,4.8c0.9-0.2,2.3-0.4,2.9-0.6C392.2,336.3,389.9,334.5,389.6,333.7"/>
		</g>
	</g>
	<g>
		<defs>
			<rect id="SVGID_101_" x="338.2" y="318.1" width="284.2" height="84.4"/>
		</defs>
		<clipPath id="SVGID_102_">
			<use xlink:href="#SVGID_101_"  overflow="visible"/>
		</clipPath>
		<g clip-path="url(#SVGID_102_)">
			<path fill="#FFFFFF" d="M395,336.5c-0.7-0.6-1.3-1.2-2-1.7c-1.2-0.9-2-1.2-2.5-1.4l0,0c0,0-1.5-0.5-0.7,0.7l0,0
				c0.7,0.9,2.3,2.1,2.4,2.1c-0.6,0.2-2,0.4-2.9,0.6c-1.3-1.6-3.6-3.7-5.2-4.8c0.4,0.1,0.5,0.1,0.6,0c0-0.4-0.8-0.9-1.7-1.4v0
				c-0.1-0.1-0.2-0.1-0.4-0.2c0,0-0.1,0-0.1,0c-0.1,0-0.2-0.1-0.3-0.1c0,0,0,0-0.1,0c-0.1,0-0.2-0.1-0.3-0.1c0,0,0,0,0,0
				c-0.1,0-0.2-0.1-0.3-0.1c-0.3-0.1-0.7-0.1-1-0.2c0,0,0,0,0,0c0,0,0,0,0.1,0.1l-0.1,0c0,0,0,0,0,0c-0.1-0.1-0.2-0.1-0.4-0.2
				c-0.2-0.1-0.4-0.2-0.8-0.3c-0.8-0.1-1.4-0.1-1.9-0.1c-0.4,0-0.6,0-0.7,0c0,0,0,0,0,0c-0.1,0-0.2,0-0.2,0l0.1,0
				c-0.1,0-0.1,0-0.2,0c0.2,0,0.3,0.1,0.5,0.1c0.4,0.1,1.3,0.4,1.9,0.5c4,1.4,7.6,4.6,10.4,8.8c0,0,0.1,0,0.1,0
				c2.5-0.4,3.9-0.9,4.8-1.3c0,0,0,0,0,0C395.1,336.9,395,336.5,395,336.5L395,336.5z"/>
		</g>
	</g>
	<g>
		<defs>
			<rect id="SVGID_103_" x="338.2" y="318.1" width="284.2" height="84.4"/>
		</defs>
		<clipPath id="SVGID_104_">
			<use xlink:href="#SVGID_103_"  overflow="visible"/>
		</clipPath>
		<g clip-path="url(#SVGID_104_)">
			<path fill="#E31837" d="M389.4,338.7L389.4,338.7c-4.4-6.4-8.4-8.3-12-9.3c0.1,0,0.2,0.1,0.3,0.1c-0.2,0-0.3-0.1-0.5-0.1
				c0,0-0.1,0-0.1,0c0.1,0,0.2,0.1,0.3,0.1c-0.1,0-0.3-0.1-0.4-0.1c0,0-0.1,0-0.1,0c0,0,0,0,0,0c-0.1,0-0.2,0-0.3-0.1
				c0.8,0.9,1.9,1.2,2.1,1.3c-0.1,0.3,0,1,1.1,1.8c0.2,0.1,0.3,0.2,0.5,0.3c1.7,0.9,2.1,0.2,2.2-0.1c0,0,0,0,0,0
				c0.5,0.4,1.6,1.2,2.7,2.5c0.7,0.8,1.3,1.5,1.7,2.2c-1.1,0.1-2.5,0.3-3.9,0.4c-0.1-1.7-1.3-2.6-2.1-2.8c-1.7-0.6-2.2,1.4-1.5,2.8
				c-1.3-0.7-2.9-0.1-3.1,2C381.7,339.5,385.4,339.3,389.4,338.7L389.4,338.7C389.4,338.7,389.4,338.7,389.4,338.7"/>
		</g>
	</g>
	<g>
		<defs>
			<rect id="SVGID_105_" x="338.2" y="318.1" width="284.2" height="84.4"/>
		</defs>
		<clipPath id="SVGID_106_">
			<use xlink:href="#SVGID_105_"  overflow="visible"/>
		</clipPath>
		<g clip-path="url(#SVGID_106_)">
			<path d="M376.4,352.1c-2.6-2.8-4-4.3-6-6.7c1.3-8.3,3.6-14.7,6.3-16.2C376.5,331.2,376.4,340.7,376.4,352.1"/>
		</g>
	</g>
	<g>
		<defs>
			<rect id="SVGID_107_" x="338.2" y="318.1" width="284.2" height="84.4"/>
		</defs>
		<clipPath id="SVGID_108_">
			<use xlink:href="#SVGID_107_"  overflow="visible"/>
		</clipPath>
		<g clip-path="url(#SVGID_108_)">
			<path d="M344.5,335.9l0.2,0.1c-0.3,0.5-0.1,0.8,0.4,1.1l2.2,1.1c1,0.5,1.8,1.7,0.9,3.4c-0.8,1.5-2,1.9-3.2,1.3l-2.4-1.2
				c-0.5-0.3-0.7-0.2-0.9,0.4l-0.2-0.1l1-2.1l0.2,0.1l0,0.1c-0.2,0.4-0.2,0.7,0.3,0.9l2.2,1.1c1.1,0.5,2.1,0.2,2.7-1
				c0.5-0.9,0.5-2-0.8-2.7l-1.9-0.9c-0.8-0.4-1-0.3-1.3,0.3l-0.2-0.1L344.5,335.9z"/>
		</g>
	</g>
	<g>
		<defs>
			<rect id="SVGID_109_" x="338.2" y="318.1" width="284.2" height="84.4"/>
		</defs>
		<clipPath id="SVGID_110_">
			<use xlink:href="#SVGID_109_"  overflow="visible"/>
		</clipPath>
		<g clip-path="url(#SVGID_110_)">
			<path d="M353.9,333.3l-6.7,0.4l3,2.5c0.5,0.4,0.7,0.4,1.2-0.2l0.1,0.1l-1.3,1.6l-0.1-0.1l0,0c0.4-0.4,0.3-0.7,0-1l-3.4-2.9
				c-0.2,0.1-0.4,0.2-0.7,0.4l-0.1-0.1l0.9-1.1l6.1-0.4l-2.7-2.3c-0.4-0.4-0.6-0.3-1.1,0.2l-0.1-0.1l1.4-1.6l0.1,0.1
				c-0.4,0.5-0.4,0.7-0.2,0.9l3.8,3.2L353.9,333.3z"/>
		</g>
	</g>
	<g>
		<defs>
			<rect id="SVGID_111_" x="338.2" y="318.1" width="284.2" height="84.4"/>
		</defs>
		<clipPath id="SVGID_112_">
			<use xlink:href="#SVGID_111_"  overflow="visible"/>
		</clipPath>
		<g clip-path="url(#SVGID_112_)">
			<path d="M357.1,330.4l-1.7,1.4l-0.1-0.1c0.4-0.4,0.4-0.6,0-1l-2.4-3c-0.3-0.4-0.5-0.4-0.9-0.1l-0.1-0.1l1.7-1.4l0.1,0.1
				c-0.4,0.4-0.5,0.6-0.1,1l2.4,2.9c0.3,0.4,0.6,0.5,1,0.1L357.1,330.4z"/>
		</g>
	</g>
	<g>
		<defs>
			<rect id="SVGID_113_" x="338.2" y="318.1" width="284.2" height="84.4"/>
		</defs>
		<clipPath id="SVGID_114_">
			<use xlink:href="#SVGID_113_"  overflow="visible"/>
		</clipPath>
		<g clip-path="url(#SVGID_114_)">
			<path d="M360.4,328.3l-4.1-3.2c-0.5-0.4-0.6-0.4-1.1-0.2l-0.1-0.1l2.1-1.3l0.1,0.1c-0.7,0.4-0.8,0.7-0.4,1l3.4,2.7l-0.7-3.9
				c0-0.3-0.1-0.5-0.2-0.6c-0.1-0.2-0.4-0.2-0.9,0.1l-0.1-0.1l1.8-1.1l0.1,0.1c-0.4,0.2-0.5,0.5-0.4,1.1l0.8,5.1L360.4,328.3z"/>
		</g>
	</g>
	<g>
		<defs>
			<rect id="SVGID_115_" x="338.2" y="318.1" width="284.2" height="84.4"/>
		</defs>
		<clipPath id="SVGID_116_">
			<use xlink:href="#SVGID_115_"  overflow="visible"/>
		</clipPath>
		<g clip-path="url(#SVGID_116_)">
			<path d="M367.1,323l-0.2,0.1c-0.3-0.6-0.5-0.6-0.8-0.5l-1.4,0.5l0.6,1.8c0.1,0.4,0.3,0.4,0.6,0.3l1.3-0.5
				c0.6-0.2,0.7-0.5,0.7-1.3l0.2-0.1l0.3,1.3l-4.5,1.6l-0.1-0.2l0.2-0.1c0.7-0.2,0.7-0.5,0.6-1l-1.2-3.6c-0.2-0.5-0.3-0.6-0.9-0.4
				l-0.2,0.1l-0.1-0.2l4.1-1.4l0.5,1.2l-0.2,0.1c-0.4-0.7-0.6-0.8-0.9-0.7l-1.8,0.6l0.7,2.1l1.5-0.5c0.3-0.1,0.4-0.3,0.3-0.8
				l0.2-0.1L367.1,323z"/>
		</g>
	</g>
	<g>
		<defs>
			<rect id="SVGID_117_" x="338.2" y="318.1" width="284.2" height="84.4"/>
		</defs>
		<clipPath id="SVGID_118_">
			<use xlink:href="#SVGID_117_"  overflow="visible"/>
		</clipPath>
		<g clip-path="url(#SVGID_118_)">
			<path d="M370.8,321.8c0.1,0,0.3,0,0.5,0c0.2,0,0.4-0.1,0.6-0.1c0.2,0.1,0.6,0.3,1,0.7l0.7,0.5c0.9,0.7,1.3,1,2.9,0.7l0-0.2
				c-0.7,0-1.3-0.2-1.9-0.7l-0.8-0.6c-0.5-0.4-0.8-0.6-1.1-0.8c0.7-0.3,1.1-0.9,1-1.6c-0.1-0.9-0.9-1.5-2.6-1.3
				c-0.6,0.1-0.8,0.1-1.1,0.2c-0.4,0.1-0.9,0.2-1.1,0.2l0,0.2l0.2,0c0.5-0.1,0.7,0.1,0.8,0.6l0.4,3.8c0.1,0.6-0.1,0.8-0.6,0.8
				l-0.2,0l0,0.2l2.5-0.3l0-0.2l-0.2,0c-0.5,0.1-0.7,0-0.8-0.6L370.8,321.8z M370.5,318.7c0.2,0,0.3-0.1,0.4-0.1
				c1.4-0.2,1.8,0.4,1.9,1.3c0.1,1.1-0.5,1.6-1.5,1.7c-0.2,0-0.3,0-0.6,0L370.5,318.7z"/>
		</g>
	</g>
	<g>
		<defs>
			<rect id="SVGID_119_" x="338.2" y="318.1" width="284.2" height="84.4"/>
		</defs>
		<clipPath id="SVGID_120_">
			<use xlink:href="#SVGID_119_"  overflow="visible"/>
		</clipPath>
		<g clip-path="url(#SVGID_120_)">
			<path d="M377.8,322.3c0.1,0.8,0.7,1.3,1.4,1.4c0.6,0,1.3-0.3,1.3-1c0.1-1.3-2.7-1.9-2.6-3.5c0.1-0.7,0.8-1.2,1.7-1.2
				c0.8,0.1,0.9,0.3,1.2,0.3c0.1,0,0.1,0,0.2-0.1l0.1,0l0.1,1.2l-0.2,0c-0.2-0.7-0.7-1.1-1.4-1.2c-0.6,0-1,0.3-1.1,0.8
				c-0.1,1.3,2.8,1.8,2.6,3.5c-0.1,0.9-0.9,1.5-2,1.4c-0.5,0-1.1-0.3-1.2-0.3c-0.1,0-0.1,0-0.2,0.1l-0.2,0l-0.1-1.4L377.8,322.3z"/>
		</g>
	</g>
	<g>
		<defs>
			<rect id="SVGID_121_" x="338.2" y="318.1" width="284.2" height="84.4"/>
		</defs>
		<clipPath id="SVGID_122_">
			<use xlink:href="#SVGID_121_"  overflow="visible"/>
		</clipPath>
		<g clip-path="url(#SVGID_122_)">
			<path d="M384.7,324.7l-2.1-0.5l0-0.2c0.6,0.1,0.7,0,0.8-0.6l0.8-3.7c0.1-0.5,0-0.6-0.5-0.8l0-0.2l2.1,0.5l0,0.2
				c-0.6-0.1-0.8,0-0.9,0.5l-0.8,3.7c-0.1,0.5,0,0.7,0.6,0.9L384.7,324.7z"/>
		</g>
	</g>
	<g>
		<defs>
			<rect id="SVGID_123_" x="338.2" y="318.1" width="284.2" height="84.4"/>
		</defs>
		<clipPath id="SVGID_124_">
			<use xlink:href="#SVGID_123_"  overflow="visible"/>
		</clipPath>
		<g clip-path="url(#SVGID_124_)">
			<path d="M389.2,325.3c-0.2,0.5-0.1,0.7,0.4,0.9l0.3,0.1l-0.1,0.2l-2.6-1l0.1-0.2l0.3,0.1c0.5,0.2,0.7,0.1,0.9-0.3l1.6-4.1
				l-1.5-0.6c-0.3-0.1-0.6,0-1,0.7l-0.2-0.1l0.7-1.3l0.2,0.1c0,0.1,0,0.1,0.1,0.1c0,0,0.1,0.1,0.2,0.1l4,1.6c0.1,0,0.3,0.1,0.3,0
				l0.2,0.1l-0.4,1.4l-0.2-0.1c0.2-0.8,0.1-1-0.2-1.2l-1.5-0.6L389.2,325.3z"/>
		</g>
	</g>
	<g>
		<defs>
			<rect id="SVGID_125_" x="338.2" y="318.1" width="284.2" height="84.4"/>
		</defs>
		<clipPath id="SVGID_126_">
			<use xlink:href="#SVGID_125_"  overflow="visible"/>
		</clipPath>
		<g clip-path="url(#SVGID_126_)">
			<path d="M398.4,325.9c0.5-0.3,0.5-0.5,0-0.8l0.1-0.1l1.7,1.1l-0.1,0.1c-0.5-0.3-0.9-0.2-1.3,0l-2.6,1.3l-0.8,1.1
				c-0.3,0.4-0.2,0.6,0.2,1l0.1,0.1l-0.1,0.1l-2.1-1.4l0.1-0.1l0.1,0.1c0.5,0.3,0.7,0.2,1-0.1l0.7-1.1l0.1-3c0-0.8-0.1-1-0.6-1.4
				l0.1-0.1l2,1.3l-0.1,0.1c-0.6-0.4-0.7-0.3-0.7,0.2l0,2.6L398.4,325.9z"/>
		</g>
	</g>
	<g>
		<defs>
			<rect id="SVGID_127_" x="338.2" y="318.1" width="284.2" height="84.4"/>
		</defs>
		<clipPath id="SVGID_128_">
			<use xlink:href="#SVGID_127_"  overflow="visible"/>
		</clipPath>
		<g clip-path="url(#SVGID_128_)">
			<path d="M406.6,337.1c1.3-1,1.3-2.8,0.3-4.2c-1.2-1.5-3-1.8-4.4-0.8c-1.3,1-1.3,2.9-0.3,4.3C403.2,337.8,405.1,338.2,406.6,337.1
				 M405.8,336.6c-1,0.8-2.5,1-3.4-0.2c-0.9-1.2-0.6-2.8,0.7-3.8c0.9-0.7,2.4-1,3.4,0.2C407.4,334,407.1,335.6,405.8,336.6"/>
		</g>
	</g>
	<g>
		<defs>
			<rect id="SVGID_129_" x="338.2" y="318.1" width="284.2" height="84.4"/>
		</defs>
		<clipPath id="SVGID_130_">
			<use xlink:href="#SVGID_129_"  overflow="visible"/>
		</clipPath>
		<g clip-path="url(#SVGID_130_)">
			<path d="M408.4,342.7l-0.1-0.1c0.5-0.2,0.5-0.5,0.3-0.9l-0.7-1.5l-1.8,0.8c-0.5,0.2-0.6,0.4-0.3,1l-0.2,0.1l-0.9-2l0.2-0.1
				c0.3,0.5,0.4,0.5,1.1,0.2l3.2-1.5c0.5-0.2,0.7-0.4,0.5-1l0.2-0.1l1.7,3.6l-1,0.5l-0.1-0.1c0.5-0.2,0.6-0.5,0.3-1l-0.7-1.5
				l-1.9,0.9l0.8,1.6c0.1,0.3,0.4,0.4,0.7,0.2l0.1,0.1L408.4,342.7z"/>
		</g>
	</g>
	<g>
		<defs>
			<rect id="SVGID_131_" x="338.2" y="318.1" width="284.2" height="84.4"/>
		</defs>
		<clipPath id="SVGID_132_">
			<use xlink:href="#SVGID_131_"  overflow="visible"/>
		</clipPath>
		<g clip-path="url(#SVGID_132_)">
			<path d="M345.4,377.9l3.2-6l0,0l-4.4,2.8c-0.5,0.3-0.3,0.7-0.1,1.2l-0.2,0.1l-1.4-1.9l0.2-0.1c0.5,0.7,0.7,0.7,1.6,0.1l3.8-2.4
				c0.6-0.4,0.8-0.5,0.4-1.2l0.2-0.1l1,1.4l-3.1,5.6l6.3-1.2l1,1.4l-0.2,0.1c-0.4-0.4-0.5-0.6-0.8-0.4l-4,3.4
				c-0.8,0.7-0.8,0.8-0.3,1.4l-0.2,0.1l-1.7-2.4l0.2-0.1c0.3,0.4,0.7,0.8,1.2,0.4l4-3.3l0,0l-6.6,1.3L345.4,377.9z"/>
		</g>
	</g>
	<g>
		<defs>
			<rect id="SVGID_133_" x="338.2" y="318.1" width="284.2" height="84.4"/>
		</defs>
		<clipPath id="SVGID_134_">
			<use xlink:href="#SVGID_133_"  overflow="visible"/>
		</clipPath>
		<g clip-path="url(#SVGID_134_)">
			<path d="M356.7,384.7l-0.6,2.1c0,0.1-0.1,0.3-0.2,0.5c-0.2,0.3-0.4,0.2-1-0.2l-0.2-0.2l-0.1,0.2l2.5,1.9l0.1-0.2
				c-0.5-0.3-0.6-0.6-0.4-1.2l1.8-6.6l-0.8-0.6l-0.1,0.3l-5.1,3.4c-0.9,0.6-1.1,0.6-1.7,0.2l-0.1,0.2l2.1,1.6l0.1-0.2l-0.1-0.1
				c-0.5-0.4-0.7-0.6-0.5-0.9c0.1-0.1,0.4-0.3,0.6-0.4l1.6-1.1L356.7,384.7z M356.8,384.2l-1.6-1.2l2.4-1.6L356.8,384.2z"/>
		</g>
	</g>
	<g>
		<defs>
			<rect id="SVGID_135_" x="338.2" y="318.1" width="284.2" height="84.4"/>
		</defs>
		<clipPath id="SVGID_136_">
			<use xlink:href="#SVGID_135_"  overflow="visible"/>
		</clipPath>
		<g clip-path="url(#SVGID_136_)">
			<path d="M362.7,388.3c0.2,0.1,0.3,0.1,0.5,0.2c0.3,0.1,0.5,0.2,0.7,0.2c0.2,0.3,0.5,0.7,0.8,1.4l0.5,1c0.6,1.3,1,1.9,2.9,2.5
				l0.1-0.2c-0.8-0.4-1.3-1-1.7-1.9l-0.6-1.2c-0.3-0.7-0.5-1.1-0.8-1.6c1,0.1,1.8-0.4,2.1-1.2c0.4-1.1-0.2-2.2-2.2-3
				c-0.7-0.2-0.9-0.3-1.4-0.5c-0.5-0.1-1.1-0.3-1.4-0.4l-0.1,0.2l0.2,0.1c0.6,0.2,0.7,0.5,0.5,1.2l-1.6,4.6
				c-0.3,0.7-0.5,0.8-1.2,0.6l-0.2-0.1l-0.1,0.2l3.1,1.1l0.1-0.2l-0.2-0.1c-0.6-0.2-0.8-0.5-0.6-1.1L362.7,388.3z M364.1,384.5
				c0.2,0,0.3,0.1,0.5,0.2c1.7,0.6,1.8,1.5,1.5,2.5c-0.5,1.3-1.4,1.5-2.6,1.1c-0.2-0.1-0.4-0.1-0.7-0.3L364.1,384.5z"/>
		</g>
	</g>
	<g>
		<defs>
			<rect id="SVGID_137_" x="338.2" y="318.1" width="284.2" height="84.4"/>
		</defs>
		<clipPath id="SVGID_138_">
			<use xlink:href="#SVGID_137_"  overflow="visible"/>
		</clipPath>
		<g clip-path="url(#SVGID_138_)">
			<path d="M375.8,388c0.4-0.6,0.2-0.8-0.5-0.9l0-0.2l2.6,0.2l0,0.2c-0.8,0-1.1,0.3-1.5,0.8l-2.2,3.1L374,393
				c-0.1,0.6,0.1,0.9,0.8,0.9l0.1,0l0,0.2l-3.2-0.3l0-0.2l0.2,0c0.7,0.1,0.9-0.2,1-0.7l0.1-1.6l-1.8-3.4c-0.5-0.9-0.7-1.1-1.5-1.2
				l0-0.2l3,0.3l0,0.2c-0.9-0.1-1,0.1-0.7,0.7l1.6,3L375.8,388z"/>
		</g>
	</g>
	<g>
		<defs>
			<rect id="SVGID_139_" x="338.2" y="318.1" width="284.2" height="84.4"/>
		</defs>
		<clipPath id="SVGID_140_">
			<use xlink:href="#SVGID_139_"  overflow="visible"/>
		</clipPath>
		<g clip-path="url(#SVGID_140_)">
			<path d="M385.3,393.2l-5.1,0.9l0-0.2l0.4-0.1c0.5-0.1,0.7-0.3,0.6-0.9l-0.8-5c-0.1-0.6-0.3-0.8-1-0.7l-0.2,0l0-0.2l3.3-0.6l0,0.2
				l-0.4,0.1c-0.7,0.1-0.9,0.2-0.8,0.9l0.9,5.2c0.1,0.3,0.2,0.4,0.5,0.3l1.7-0.3c0.7-0.1,0.8-0.4,1.4-1.5l0.2,0L385.3,393.2z"/>
		</g>
	</g>
	<g>
		<defs>
			<rect id="SVGID_141_" x="338.2" y="318.1" width="284.2" height="84.4"/>
		</defs>
		<clipPath id="SVGID_142_">
			<use xlink:href="#SVGID_141_"  overflow="visible"/>
		</clipPath>
		<g clip-path="url(#SVGID_142_)">
			<path d="M391.2,387.9l1.5,1.6c0.1,0.1,0.2,0.2,0.3,0.4c0.1,0.3-0.1,0.5-0.7,0.7l-0.3,0.1l0.1,0.2l2.9-1.2l-0.1-0.2
				c-0.5,0.2-0.8,0.2-1.2-0.3l-4.7-5l-0.9,0.4l0.2,0.2l0.3,6.1c0,1.1,0,1.2-0.7,1.5l0.1,0.2l2.5-1l-0.1-0.2l-0.2,0.1
				c-0.6,0.2-0.9,0.3-1,0c-0.1-0.1-0.1-0.5-0.1-0.8l-0.1-1.9L391.2,387.9z M390.8,387.5l-1.8,0.8l-0.1-2.8L390.8,387.5z"/>
		</g>
	</g>
	<g>
		<defs>
			<rect id="SVGID_143_" x="338.2" y="318.1" width="284.2" height="84.4"/>
		</defs>
		<clipPath id="SVGID_144_">
			<use xlink:href="#SVGID_143_"  overflow="visible"/>
		</clipPath>
		<g clip-path="url(#SVGID_144_)">
			<path d="M403.6,383.4l-8.6-1l3.1,3.8c0.5,0.6,0.8,0.7,1.5,0l0.1,0.2l-2.1,1.7l-0.1-0.2l0,0c0.5-0.5,0.6-0.8,0.2-1.2l-3.6-4.4
				c-0.3,0-0.6,0.1-0.9,0.4l-0.1-0.2l1.4-1.2l7.8,0.9l-2.9-3.5c-0.4-0.5-0.7-0.5-1.4,0.1l-0.1-0.2l2.1-1.7l0.1,0.2
				c-0.7,0.5-0.7,0.8-0.4,1.1l4.1,4.9L403.6,383.4z"/>
		</g>
	</g>
	<g>
		<defs>
			<rect id="SVGID_145_" x="338.2" y="318.1" width="284.2" height="84.4"/>
		</defs>
		<clipPath id="SVGID_146_">
			<use xlink:href="#SVGID_145_"  overflow="visible"/>
		</clipPath>
		<g clip-path="url(#SVGID_146_)">
			<path d="M406.4,378.6c0.6,0.4,0.5,0.7,0.2,1.2l-0.1,0.2l0.2,0.1l2-3.1c1.6-2.4,0.6-4.7-0.9-5.6c-1.6-1-3.6-0.7-5.3,1.8
				c-0.3,0.5-0.7,1.1-1,1.6s-0.6,1-0.8,1.4l0.2,0.1l0.1-0.2c0.4-0.6,0.6-0.6,1.3-0.2L406.4,378.6z M402,374.6
				c0.1-0.1,0.2-0.4,0.5-0.8c0.9-1.4,1.7-1.8,2.4-2c0.9-0.2,1.9,0.1,2.6,0.6c1,0.6,1.5,1.6,1.6,2.1c0.2,1,0,1.6-0.8,2.9
				c-0.5,0.8-0.6,0.7-1,0.4L402,374.6z"/>
		</g>
	</g>
	<g>
		<defs>
			<rect id="SVGID_147_" x="338.2" y="318.1" width="284.2" height="84.4"/>
		</defs>
		<clipPath id="SVGID_148_">
			<use xlink:href="#SVGID_147_"  overflow="visible"/>
		</clipPath>
		<g clip-path="url(#SVGID_148_)">
			<path d="M339.9,353.5v4.9c0,0.3,0.1,0.3,0.3,0.3h0.5v0.2h-2.1v-0.2h0.5c0.3,0,0.3-0.1,0.3-0.3v-4.2c-0.3,0.2-0.7,0.6-1.1,0.7
				l-0.1-0.1c0.5-0.3,1.2-1,1.4-1.3L339.9,353.5L339.9,353.5z"/>
		</g>
	</g>
	<g>
		<defs>
			<rect id="SVGID_149_" x="338.2" y="318.1" width="284.2" height="84.4"/>
		</defs>
		<clipPath id="SVGID_150_">
			<use xlink:href="#SVGID_149_"  overflow="visible"/>
		</clipPath>
		<g clip-path="url(#SVGID_150_)">
			<path d="M344.6,354.7c0,0.5-0.2,0.9-0.7,1.2c-1.1-0.5-1.4-0.8-1.4-1.3c0-0.5,0.5-1,1-1C344.2,353.7,344.6,354.1,344.6,354.7
				 M345.2,354.7c0-0.7-0.7-1.2-1.5-1.2c-0.8,0-1.5,0.6-1.5,1.4c0,0.6,0.4,1,1.2,1.4c-0.8,0.3-1.2,0.8-1.2,1.4
				c0,0.8,0.7,1.4,1.6,1.4c0.9,0,1.7-0.7,1.7-1.6c0-0.7-0.4-1.1-1.3-1.5C344.8,355.7,345.2,355.3,345.2,354.7 M344.8,357.7
				c0,0.7-0.5,1.2-1.1,1.2c-0.6,0-1.1-0.5-1.1-1.3c0-0.6,0.3-1,0.9-1.3C344.4,356.8,344.8,357.1,344.8,357.7"/>
		</g>
	</g>
	<g>
		<defs>
			<rect id="SVGID_151_" x="338.2" y="318.1" width="284.2" height="84.4"/>
		</defs>
		<clipPath id="SVGID_152_">
			<use xlink:href="#SVGID_151_"  overflow="visible"/>
		</clipPath>
		<g clip-path="url(#SVGID_152_)">
			<path d="M408.3,354.1h2c0.2,0,0.2,0,0.2-0.1h0.2l-0.1,0.7h-2.1l-0.1,1.5c0.3-0.1,0.6-0.2,0.9-0.2c1,0,1.7,0.8,1.7,1.7
				c0,1-0.9,1.8-2,1.8c-0.7,0-1.2-0.2-1.2-0.5c0-0.1,0.1-0.3,0.3-0.3c0.5,0,0.6,0.6,1.2,0.6c0.6,0,1.2-0.7,1.2-1.4
				c0-0.8-0.5-1.4-1.3-1.4c-0.3,0-0.6,0.1-0.9,0.3l-0.1-0.1L408.3,354.1z"/>
		</g>
	</g>
	<g>
		<defs>
			<rect id="SVGID_153_" x="338.2" y="318.1" width="284.2" height="84.4"/>
		</defs>
		<clipPath id="SVGID_154_">
			<use xlink:href="#SVGID_153_"  overflow="visible"/>
		</clipPath>
		<g clip-path="url(#SVGID_154_)">
			<path d="M414.8,354c-1.8,0.5-2.8,1.7-2.8,3.3c0,1.3,0.7,2.2,1.8,2.2c0.9,0,1.7-0.8,1.7-1.7c0-0.9-0.7-1.6-1.5-1.6
				c-0.4,0-0.7,0.1-1.2,0.5c0.2-1.2,0.9-2.1,2.2-2.6L414.8,354z M414.7,357.9c0,1-0.4,1.5-1,1.5c-0.5,0-1.2-0.5-1.2-1.9
				c0-0.3,0-0.4,0-0.5c0.5-0.4,0.9-0.5,1.1-0.5C414.3,356.5,414.7,357,414.7,357.9"/>
		</g>
	</g>
	<g>
		<defs>
			<rect id="SVGID_155_" x="338.2" y="318.1" width="284.2" height="84.4"/>
		</defs>
		<clipPath id="SVGID_156_">
			<use xlink:href="#SVGID_155_"  overflow="visible"/>
		</clipPath>
		<g clip-path="url(#SVGID_156_)">
			<path d="M429,349.5c0.3,1.2,1.2,1.9,2.3,1.9c0.9,0,1.9-0.5,1.9-1.6c0-1.9-4.3-2.5-4.3-4.8c0-1.1,1-1.9,2.4-1.9
				c1.1,0,1.4,0.3,1.8,0.3c0.1,0,0.2,0,0.2-0.1h0.2l0.2,1.7h-0.2c-0.4-1-1.2-1.6-2.2-1.6c-0.9,0-1.5,0.5-1.5,1.3
				c0,1.9,4.3,2.4,4.3,4.9c0,1.3-1.2,2.3-2.7,2.3c-0.7,0-1.7-0.4-1.9-0.4c-0.1,0-0.2,0.1-0.3,0.2H429l-0.3-2L429,349.5L429,349.5z"
				/>
		</g>
	</g>
	<g>
		<defs>
			<rect id="SVGID_157_" x="338.2" y="318.1" width="284.2" height="84.4"/>
		</defs>
		<clipPath id="SVGID_158_">
			<use xlink:href="#SVGID_157_"  overflow="visible"/>
		</clipPath>
		<g clip-path="url(#SVGID_158_)">
			<path d="M446.3,345.4c-0.4-1.2-1.6-2.1-3-2.1c-2.2,0-3.6,1.6-3.6,3.9c0,2.4,1.7,4.2,3.8,4.2c1.1,0,2.3-0.4,3.3-2h0.3
				c-0.2,0.6-0.5,1.4-0.9,2c-0.9-0.1-1.4,0.3-3,0.3c-2.7,0-4.6-1.8-4.6-4.2c0-2.6,2-4.4,4.8-4.4c1.7,0,2.4,0.5,2.8,0.5
				c0.1,0,0.2,0,0.2-0.1h0.2l0.1,1.9L446.3,345.4z"/>
		</g>
	</g>
	<g>
		<defs>
			<rect id="SVGID_159_" x="338.2" y="318.1" width="284.2" height="84.4"/>
		</defs>
		<clipPath id="SVGID_160_">
			<use xlink:href="#SVGID_159_"  overflow="visible"/>
		</clipPath>
		<g clip-path="url(#SVGID_160_)">
			<path d="M453.1,347.5v2.5c0,0.9,0.2,1.2,1.1,1.2h0v0.3h-3.3v-0.3h0.1c0.8,0,1.1-0.2,1.1-1v-5.8c0-0.7-0.2-0.9-1-0.9v-0.3h3.2v0.3
				c-0.9,0-1.1,0.3-1.1,1.3v2.3h5.2v-2.6c0-0.7-0.2-1-1.1-1H457v-0.3h3.4v0.3c-0.8,0-1,0.3-1,1.1v5.5c0,0.9,0.3,1.2,1.1,1.2h0.1v0.3
				h-3.8v-0.3h0.4c0.9,0,1.1-0.3,1.1-1v-2.7H453.1z"/>
		</g>
	</g>
	<g>
		<defs>
			<rect id="SVGID_161_" x="338.2" y="318.1" width="284.2" height="84.4"/>
		</defs>
		<clipPath id="SVGID_162_">
			<use xlink:href="#SVGID_161_"  overflow="visible"/>
		</clipPath>
		<g clip-path="url(#SVGID_162_)">
			<path d="M473.5,347.1c0-2.4-2.2-4.1-4.7-4.1c-2.8,0-4.9,1.9-4.9,4.5c0,2.5,2.2,4.2,4.8,4.2C471.3,351.7,473.5,349.8,473.5,347.1
				 M472.2,347.6c0,1.9-1,3.8-3.2,3.8c-2.1,0-3.8-1.8-3.8-4.3c0-1.6,0.9-3.8,3.3-3.8C470.6,343.3,472.2,345.1,472.2,347.6"/>
		</g>
	</g>
	<g>
		<defs>
			<rect id="SVGID_163_" x="338.2" y="318.1" width="284.2" height="84.4"/>
		</defs>
		<clipPath id="SVGID_164_">
			<use xlink:href="#SVGID_163_"  overflow="visible"/>
		</clipPath>
		<g clip-path="url(#SVGID_164_)">
			<path d="M487.5,347.1c0-2.4-2.2-4.1-4.7-4.1c-2.8,0-4.9,1.9-4.9,4.5c0,2.5,2.2,4.2,4.8,4.2C485.3,351.7,487.5,349.8,487.5,347.1
				 M486.2,347.6c0,1.9-1,3.8-3.2,3.8c-2.1,0-3.8-1.8-3.8-4.3c0-1.6,0.9-3.8,3.3-3.8C484.6,343.3,486.2,345.1,486.2,347.6"/>
		</g>
	</g>
	<g>
		<defs>
			<rect id="SVGID_165_" x="338.2" y="318.1" width="284.2" height="84.4"/>
		</defs>
		<clipPath id="SVGID_166_">
			<use xlink:href="#SVGID_165_"  overflow="visible"/>
		</clipPath>
		<g clip-path="url(#SVGID_166_)">
			<path d="M497.4,351.5h-5.9v-0.3h0.4c0.6,0,0.8-0.2,0.8-0.9v-5.9c0-0.7-0.2-1-1.1-1h-0.2v-0.3h3.9v0.3H495c-0.9,0-1.1,0.1-1.1,0.9
				v6.1c0,0.4,0.1,0.5,0.5,0.5h2c0.8,0,1-0.3,1.9-1.5h0.2L497.4,351.5z"/>
		</g>
	</g>
	<g>
		<defs>
			<rect id="SVGID_167_" x="338.2" y="318.1" width="284.2" height="84.4"/>
		</defs>
		<clipPath id="SVGID_168_">
			<use xlink:href="#SVGID_167_"  overflow="visible"/>
		</clipPath>
		<g clip-path="url(#SVGID_168_)">
			<path d="M516.9,347.1c0-2.4-2.2-4.1-4.7-4.1c-2.8,0-4.9,1.9-4.9,4.5c0,2.5,2.2,4.2,4.8,4.2C514.8,351.7,516.9,349.8,516.9,347.1
				 M515.7,347.6c0,1.9-1,3.8-3.2,3.8c-2.1,0-3.8-1.8-3.8-4.3c0-1.6,0.9-3.8,3.3-3.8C514.1,343.3,515.7,345.1,515.7,347.6"/>
		</g>
	</g>
	<g>
		<defs>
			<rect id="SVGID_169_" x="338.2" y="318.1" width="284.2" height="84.4"/>
		</defs>
		<clipPath id="SVGID_170_">
			<use xlink:href="#SVGID_169_"  overflow="visible"/>
		</clipPath>
		<g clip-path="url(#SVGID_170_)">
			<path d="M526.2,348.3h-0.2c0-0.8-0.3-1-0.9-1h-2.5v2.9c0,0.7,0.2,1,1.2,1v0.3h-3.2v-0.3c0.8-0.1,1-0.2,1-1.3v-5.2
				c0-0.9-0.1-1.2-1-1.3v-0.3h6v1.6h-0.2c0-0.8-0.3-1.1-1.1-1.1h-2.5v3.2h2.6c0.5,0,0.7-0.3,0.8-0.9h0.2L526.2,348.3L526.2,348.3z"
				/>
		</g>
	</g>
	<g>
		<defs>
			<rect id="SVGID_171_" x="338.2" y="318.1" width="284.2" height="84.4"/>
		</defs>
		<clipPath id="SVGID_172_">
			<use xlink:href="#SVGID_171_"  overflow="visible"/>
		</clipPath>
		<g clip-path="url(#SVGID_172_)">
			<path d="M538.6,346.9h1.4c1.6,0,2.4,1,2.4,2.1c0,1-0.5,2.1-2.3,2.1c-1.1,0-1.5-0.4-1.5-1.4L538.6,346.9L538.6,346.9z
				 M537.5,350.1c0,0.8-0.2,1.1-1.3,1.1h-0.3v0.3h4.9c2.2,0,2.9-1.5,2.9-2.5c0-1-0.7-1.8-2-2.2v0c0.9-0.2,1.5-0.9,1.5-1.6
				c0-0.6-0.3-1.1-0.8-1.5c-0.5-0.3-1.5-0.5-2.7-0.5c-0.3,0-1.3,0-2,0c-0.4,0-1.3,0.1-1.7,0.1v0.2h0.5c0.9,0,1,0.4,1,1.2V350.1z
				 M538.6,343.4c0.3,0,0.9,0,1.2,0c1.6,0,2.2,0.9,2.2,1.8c0,1-0.6,1.5-1.9,1.5h-1.5V343.4z"/>
		</g>
	</g>
	<g>
		<defs>
			<rect id="SVGID_173_" x="338.2" y="318.1" width="284.2" height="84.4"/>
		</defs>
		<clipPath id="SVGID_174_">
			<use xlink:href="#SVGID_173_"  overflow="visible"/>
		</clipPath>
		<g clip-path="url(#SVGID_174_)">
			<path d="M557.5,343.2v0.3c-0.9,0-1.2,0.4-1.2,1.2v3.6c0,1.6-1.1,3.4-4,3.4c-2.6,0-3.9-1.5-3.9-3.4v-3.9c0-0.8-0.2-1-1.1-1v-0.3
				h3.4v0.3h-0.1c-0.7,0-1.1,0.2-1.1,1v3.7c0,1.8,1.1,2.9,3,2.9c1.5,0,3-0.6,3-2.9V345c0-1.3-0.2-1.5-1.3-1.6v-0.3L557.5,343.2
				L557.5,343.2z"/>
		</g>
	</g>
	<g>
		<defs>
			<rect id="SVGID_175_" x="338.2" y="318.1" width="284.2" height="84.4"/>
		</defs>
		<clipPath id="SVGID_176_">
			<use xlink:href="#SVGID_175_"  overflow="visible"/>
		</clipPath>
		<g clip-path="url(#SVGID_176_)">
			<path d="M561.5,349.5c0.3,1.2,1.2,1.9,2.3,1.9c0.9,0,1.8-0.5,1.8-1.6c0-1.9-4.3-2.5-4.3-4.8c0-1.1,1-1.9,2.4-1.9
				c1.1,0,1.4,0.3,1.8,0.3c0.1,0,0.2,0,0.2-0.1h0.2l0.2,1.7H566c-0.4-1-1.2-1.6-2.2-1.6c-0.9,0-1.5,0.5-1.5,1.3
				c0,1.9,4.3,2.4,4.3,4.9c0,1.3-1.2,2.3-2.7,2.3c-0.7,0-1.7-0.4-1.9-0.4c-0.1,0-0.2,0.1-0.3,0.2h-0.2l-0.3-2L561.5,349.5
				L561.5,349.5z"/>
		</g>
	</g>
	<g>
		<defs>
			<rect id="SVGID_177_" x="338.2" y="318.1" width="284.2" height="84.4"/>
		</defs>
		<clipPath id="SVGID_178_">
			<use xlink:href="#SVGID_177_"  overflow="visible"/>
		</clipPath>
		<g clip-path="url(#SVGID_178_)">
			<path d="M574.1,351.5h-3.2v-0.3c0.8,0,1-0.3,1-1.1v-5.7c0-0.7-0.3-0.9-1-1v-0.3h3.2v0.3c-0.8,0-1.1,0.2-1.1,1.1v5.6
				c0,0.8,0.2,1,1.1,1V351.5z"/>
		</g>
	</g>
	<g>
		<defs>
			<rect id="SVGID_179_" x="338.2" y="318.1" width="284.2" height="84.4"/>
		</defs>
		<clipPath id="SVGID_180_">
			<use xlink:href="#SVGID_179_"  overflow="visible"/>
		</clipPath>
		<g clip-path="url(#SVGID_180_)">
			<path d="M586.8,351.6l-6.9-7.2v5.7c0,1,0.2,1.2,1.3,1.2v0.3h-3.1v-0.3h0.1c0.8,0,1.1-0.3,1.1-0.9v-6.5c-0.3-0.2-0.7-0.3-1.1-0.3
				v-0.3h2.1l6.3,6.5v-5.3c0-0.8-0.2-1-1.3-1v-0.3h3.1v0.3c-1,0-1.2,0.2-1.2,0.7v7.4L586.8,351.6L586.8,351.6z"/>
		</g>
	</g>
	<g>
		<defs>
			<rect id="SVGID_181_" x="338.2" y="318.1" width="284.2" height="84.4"/>
		</defs>
		<clipPath id="SVGID_182_">
			<use xlink:href="#SVGID_181_"  overflow="visible"/>
		</clipPath>
		<g clip-path="url(#SVGID_182_)">
			<path d="M597.8,348.5h-0.3c-0.1-0.9-0.4-1.1-0.9-1.1h-2.3v2.9c0,0.6,0.2,0.7,0.7,0.7h2.1c0.9,0,1.2-0.4,1.6-1.5h0.2l-0.2,2h-7.1
				v-0.3h0.4c1.1,0,1.3-0.3,1.3-1.1v-5.6c0-0.7-0.2-1.1-1.1-1.1h-0.3v-0.3h6.4l0.1,1.8h-0.2c-0.2-1.1-0.5-1.4-1-1.4h-2.8v3.3h2.4
				c0.5,0,0.7-0.2,0.8-1h0.3V348.5L597.8,348.5z"/>
		</g>
	</g>
	<g>
		<defs>
			<rect id="SVGID_183_" x="338.2" y="318.1" width="284.2" height="84.4"/>
		</defs>
		<clipPath id="SVGID_184_">
			<use xlink:href="#SVGID_183_"  overflow="visible"/>
		</clipPath>
		<g clip-path="url(#SVGID_184_)">
			<path d="M603.4,349.5c0.3,1.2,1.2,1.9,2.3,1.9c0.9,0,1.9-0.5,1.9-1.6c0-1.9-4.3-2.5-4.3-4.8c0-1.1,1-1.9,2.4-1.9
				c1.1,0,1.4,0.3,1.8,0.3c0.1,0,0.2,0,0.2-0.1h0.2l0.2,1.7h-0.2c-0.4-1-1.2-1.6-2.2-1.6c-0.9,0-1.5,0.5-1.5,1.3
				c0,1.9,4.3,2.4,4.3,4.9c0,1.3-1.2,2.3-2.7,2.3c-0.7,0-1.7-0.4-1.9-0.4c-0.1,0-0.2,0.1-0.3,0.2h-0.2l-0.3-2L603.4,349.5
				L603.4,349.5z"/>
		</g>
	</g>
	<g>
		<defs>
			<rect id="SVGID_185_" x="338.2" y="318.1" width="284.2" height="84.4"/>
		</defs>
		<clipPath id="SVGID_186_">
			<use xlink:href="#SVGID_185_"  overflow="visible"/>
		</clipPath>
		<g clip-path="url(#SVGID_186_)">
			<path d="M612.9,349.5c0.3,1.2,1.2,1.9,2.3,1.9c0.9,0,1.9-0.5,1.9-1.6c0-1.9-4.3-2.5-4.3-4.8c0-1.1,1-1.9,2.4-1.9
				c1.1,0,1.4,0.3,1.8,0.3c0.1,0,0.2,0,0.2-0.1h0.2l0.2,1.7h-0.2c-0.4-1-1.2-1.6-2.2-1.6c-0.9,0-1.5,0.5-1.5,1.3
				c0,1.9,4.3,2.4,4.3,4.9c0,1.3-1.2,2.3-2.7,2.3c-0.7,0-1.7-0.4-1.9-0.4c-0.1,0-0.2,0.1-0.3,0.2H613l-0.3-2L612.9,349.5
				L612.9,349.5z"/>
		</g>
	</g>
	<g>
		<defs>
			<rect id="SVGID_187_" x="338.2" y="318.1" width="284.2" height="84.4"/>
		</defs>
		<clipPath id="SVGID_188_">
			<use xlink:href="#SVGID_187_"  overflow="visible"/>
		</clipPath>
		<g clip-path="url(#SVGID_188_)">
			<path d="M431.5,329.1c0.4,0,0.8,0.1,1.4,0.1c0.8,0,1.2,0,1.9-0.1c0.7,0.5,1.6,1.3,2.9,2.6l1.8,1.9c2.5,2.6,3.8,3.7,8.6,3.5v-0.5
				c-2.2-0.1-3.9-1.2-5.5-3l-2.2-2.3c-1.3-1.4-2.2-2.2-3.2-3.1c2.3-0.7,3.7-2.6,3.7-4.8c0-3-2.3-5.3-7.5-5.3c-1.8,0-2.4,0-3.5,0.1
				c-1.1,0.1-2.9,0.2-3.5,0.2v0.6h0.6c1.6,0,2.1,0.5,2.1,2.4v12.4c0,2-0.6,2.4-2.2,2.4h-0.5v0.6h7.9v-0.6h-0.6
				c-1.6,0-2.2-0.4-2.2-2.2L431.5,329.1L431.5,329.1z M431.5,318.9c0.5-0.1,0.9-0.1,1.4-0.1c4.3,0,5.5,2.1,5.5,4.9
				c0,3.5-2,4.9-5.1,4.9c-0.6,0-1.1,0-1.7-0.1V318.9z"/>
		</g>
	</g>
	<g>
		<defs>
			<rect id="SVGID_189_" x="338.2" y="318.1" width="284.2" height="84.4"/>
		</defs>
		<clipPath id="SVGID_190_">
			<use xlink:href="#SVGID_189_"  overflow="visible"/>
		</clipPath>
		<g clip-path="url(#SVGID_190_)">
			<path d="M456.6,327.7c0-3.3-2.8-5.6-6-5.6c-3.6,0-6.3,2.5-6.3,6.1c0,3.4,2.8,5.6,6.2,5.6C453.8,333.9,456.6,331.4,456.6,327.7
				 M455,328.3c0,2.6-1.3,5.2-4.1,5.2c-2.8,0-4.9-2.4-4.9-5.8c0-2.2,1.2-5.1,4.2-5.1C452.9,322.6,455,325,455,328.3"/>
		</g>
	</g>
	<g>
		<defs>
			<rect id="SVGID_191_" x="338.2" y="318.1" width="284.2" height="84.4"/>
		</defs>
		<clipPath id="SVGID_192_">
			<use xlink:href="#SVGID_191_"  overflow="visible"/>
		</clipPath>
		<g clip-path="url(#SVGID_192_)">
			<path d="M462,328.6h2.4c2.6,0,3.9,1.8,3.9,3.6c0,1.8-0.9,3.7-3.8,3.7c-1.9,0-2.5-0.6-2.5-2.4L462,328.6L462,328.6z M460.2,334.3
				c0,1.5-0.4,1.9-2.2,1.9h-0.5v0.4h8.2c3.6,0,4.8-2.6,4.8-4.4c0-1.8-1.2-3.2-3.3-3.9v0c1.5-0.3,2.5-1.5,2.5-2.9
				c0-1.1-0.4-1.9-1.3-2.6c-0.8-0.6-2.5-0.9-4.5-0.9c-0.4,0-2.1,0-3.3,0.1c-0.6,0-2.2,0.1-2.8,0.1v0.4h0.8c1.6,0,1.7,0.7,1.7,2.1
				L460.2,334.3L460.2,334.3z M462,322.4c0.6,0,1.5-0.1,2-0.1c2.7,0,3.7,1.5,3.7,3.1c0,1.8-1.1,2.7-3.2,2.7H462L462,322.4L462,322.4
				z"/>
		</g>
	</g>
	<g>
		<defs>
			<rect id="SVGID_193_" x="338.2" y="318.1" width="284.2" height="84.4"/>
		</defs>
		<clipPath id="SVGID_194_">
			<use xlink:href="#SVGID_193_"  overflow="visible"/>
		</clipPath>
		<g clip-path="url(#SVGID_194_)">
			<path d="M481.1,331.4h-0.4c-0.2-1.7-0.6-1.9-1.5-1.9h-3.7v5c0,1.1,0.4,1.3,1.2,1.3h3.4c1.6,0,2-0.6,2.6-2.7h0.4l-0.4,3.5h-11.8
				v-0.4h0.6c1.8,0,2.1-0.5,2.1-1.9v-9.9c0-1.3-0.3-1.9-1.8-1.9h-0.5v-0.4H482l0.2,3.2h-0.4c-0.3-2-0.8-2.4-1.6-2.4h-4.7v5.7h4
				c0.8,0,1.2-0.4,1.3-1.8h0.4L481.1,331.4L481.1,331.4z"/>
		</g>
	</g>
	<g>
		<defs>
			<rect id="SVGID_195_" x="338.2" y="318.1" width="284.2" height="84.4"/>
		</defs>
		<clipPath id="SVGID_196_">
			<use xlink:href="#SVGID_195_"  overflow="visible"/>
		</clipPath>
		<g clip-path="url(#SVGID_196_)">
			<path d="M488.4,330.5c0.4,0,0.6,0.1,1.1,0.1c0.6,0,1,0,1.5-0.1c0.5,0.4,1.3,1.1,2.3,2.1l1.5,1.5c2,2.1,3,3,6.9,2.8v-0.4
				c-1.7-0.1-3.1-1-4.4-2.4l-1.8-1.8c-1-1.1-1.7-1.7-2.5-2.4c1.8-0.6,3-2,3-3.8c0-2.4-1.8-4.2-6-4.2c-1.4,0-1.9,0-2.8,0.1
				c-0.9,0-2.3,0.1-2.8,0.1v0.4h0.5c1.3,0,1.7,0.4,1.7,1.9v9.9c0,1.6-0.5,1.9-1.8,1.9h-0.4v0.4h6.3v-0.4h-0.5
				c-1.2,0-1.8-0.4-1.8-1.7V330.5z M488.4,322.4c0.4,0,0.7,0,1.1,0c3.4,0,4.4,1.7,4.4,3.9c0,2.8-1.6,3.9-4.1,3.9c-0.5,0-0.8,0-1.4,0
				V322.4z"/>
		</g>
	</g>
	<g>
		<defs>
			<rect id="SVGID_197_" x="338.2" y="318.1" width="284.2" height="84.4"/>
		</defs>
		<clipPath id="SVGID_198_">
			<use xlink:href="#SVGID_197_"  overflow="visible"/>
		</clipPath>
		<g clip-path="url(#SVGID_198_)">
			<path d="M506.2,334.5c0,1.3,0.4,1.7,1.8,1.7h0.8v0.4h-7v-0.4h0.8c1.4,0,1.8-0.4,1.8-1.7v-11.6h-3.9c-0.9,0-1.3,0.5-1.6,2.6h-0.4
				l0.4-3.8h0.4c0,0.1,0.1,0.2,0.2,0.3c0.1,0,0.3,0.1,0.4,0.1h10.7c0.3,0,0.6-0.1,0.7-0.3h0.4l0.4,3.8h-0.4
				c-0.3-2.1-0.7-2.6-1.6-2.6h-3.9L506.2,334.5L506.2,334.5z"/>
		</g>
	</g>
	<g>
		<defs>
			<rect id="SVGID_199_" x="338.2" y="318.1" width="284.2" height="84.4"/>
		</defs>
		<clipPath id="SVGID_200_">
			<use xlink:href="#SVGID_199_"  overflow="visible"/>
		</clipPath>
		<g clip-path="url(#SVGID_200_)">
			<path d="M522.8,328v5.6c0,1.9,0.4,2.6,2.2,2.6h0.1v0.6h-7v-0.6h0.2c1.6,0,2.2-0.5,2.2-2.1v-12.9c0-1.5-0.5-2-2-2.1v-0.6h6.7v0.6
				c-2,0-2.3,0.6-2.3,2.8v5.1h10.9v-5.8c0-1.6-0.5-2.1-2.2-2.1H531v-0.6h7.2v0.6c-1.7,0.1-2.1,0.6-2.1,2.4v12.2
				c0,2.1,0.6,2.6,2.2,2.6h0.3v0.6h-7.9v-0.6h0.9c1.8,0,2.2-0.7,2.2-2.2v-6H522.8z"/>
		</g>
	</g>
	<g>
		<defs>
			<rect id="SVGID_201_" x="338.2" y="318.1" width="284.2" height="84.4"/>
		</defs>
		<clipPath id="SVGID_202_">
			<use xlink:href="#SVGID_201_"  overflow="visible"/>
		</clipPath>
		<g clip-path="url(#SVGID_202_)">
			<path d="M544.2,335.8c0,0.7-0.5,1.1-1.1,1.1c-0.6,0-1.1-0.4-1.1-1.1c0-0.7,0.5-1.1,1.1-1.1C543.6,334.7,544.2,335.2,544.2,335.8"
				/>
		</g>
	</g>
	<g>
		<defs>
			<rect id="SVGID_203_" x="338.2" y="318.1" width="284.2" height="84.4"/>
		</defs>
		<clipPath id="SVGID_204_">
			<use xlink:href="#SVGID_203_"  overflow="visible"/>
		</clipPath>
		<g clip-path="url(#SVGID_204_)">
			<path d="M549.5,332.3c0.6,2.6,2.5,4.1,4.7,4.1c1.9,0,3.8-1.1,3.8-3.5c0-4.2-9-5.5-9-10.7c0-2.4,2.1-4.3,5-4.3
				c2.3,0,2.8,0.7,3.8,0.7c0.2,0,0.3-0.1,0.5-0.3h0.4l0.5,3.7h-0.5c-0.8-2.1-2.6-3.5-4.5-3.5c-1.8,0-3.1,1.1-3.1,2.8
				c0,4.2,9,5.3,9,10.7c0,2.9-2.4,5-5.7,5c-1.5,0-3.5-0.8-3.9-0.8c-0.3,0-0.5,0.1-0.6,0.3h-0.5l-0.6-4.5H549.5z"/>
		</g>
	</g>
	<g>
		<defs>
			<rect id="SVGID_205_" x="338.2" y="318.1" width="284.2" height="84.4"/>
		</defs>
		<clipPath id="SVGID_206_">
			<use xlink:href="#SVGID_205_"  overflow="visible"/>
		</clipPath>
		<g clip-path="url(#SVGID_206_)">
			<path d="M570.4,336.7l-5.7-12.5h0l-0.6,10.6c-0.1,1.2,0.8,1.5,1.8,1.5v0.4h-4.6v-0.4c1.6,0,1.8-0.4,1.9-2.5l0.5-9.1
				c0.1-1.5,0-2-1.3-2.1v-0.4h3.4l5.4,11.8l5.3-11.8h3.3v0.4c-1.1,0.1-1.5,0.1-1.5,0.9l0.7,10.6c0.1,2.2,0.3,2.2,1.9,2.2v0.4h-5.7
				v-0.4c1,0,2.1-0.3,2-1.5l-0.6-10.5h0l-5.5,12.5L570.4,336.7L570.4,336.7z"/>
		</g>
	</g>
	<g>
		<defs>
			<rect id="SVGID_207_" x="338.2" y="318.1" width="284.2" height="84.4"/>
		</defs>
		<clipPath id="SVGID_208_">
			<use xlink:href="#SVGID_207_"  overflow="visible"/>
		</clipPath>
		<g clip-path="url(#SVGID_208_)">
			<path d="M587.7,336.7h-5.4v-0.4c1.4-0.1,1.7-0.4,1.7-2v-10c0-1.3-0.4-1.6-1.7-1.7v-0.4h5.4v0.4c-1.4,0-1.9,0.3-1.9,1.9v9.9
				c0,1.4,0.4,1.8,1.9,1.8V336.7z"/>
		</g>
	</g>
	<g>
		<defs>
			<rect id="SVGID_209_" x="338.2" y="318.1" width="284.2" height="84.4"/>
		</defs>
		<clipPath id="SVGID_210_">
			<use xlink:href="#SVGID_209_"  overflow="visible"/>
		</clipPath>
		<g clip-path="url(#SVGID_210_)">
			<path d="M596.6,334.5c0,1.3,0.4,1.7,1.8,1.7h0.8v0.4h-7v-0.4h0.8c1.4,0,1.8-0.4,1.8-1.7v-11.6h-3.9c-0.9,0-1.3,0.5-1.6,2.6h-0.4
				l0.4-3.8h0.4c0,0.1,0.1,0.2,0.2,0.3c0.1,0,0.3,0.1,0.4,0.1H601c0.3,0,0.6-0.1,0.7-0.3h0.4l0.4,3.8h-0.4c-0.3-2.1-0.7-2.6-1.6-2.6
				h-3.9L596.6,334.5L596.6,334.5z"/>
		</g>
	</g>
	<g>
		<defs>
			<rect id="SVGID_211_" x="338.2" y="318.1" width="284.2" height="84.4"/>
		</defs>
		<clipPath id="SVGID_212_">
			<use xlink:href="#SVGID_211_"  overflow="visible"/>
		</clipPath>
		<g clip-path="url(#SVGID_212_)">
			<path d="M607,329.7v4.5c0,1.5,0.3,2.1,1.8,2.1h0.1v0.4h-5.6v-0.4h0.1c1.3,0,1.8-0.4,1.8-1.7v-10.3c0-1.2-0.4-1.6-1.6-1.7v-0.4
				h5.3v0.4c-1.6,0-1.9,0.4-1.9,2.2v4.1h8.7v-4.6c0-1.2-0.4-1.7-1.8-1.7h-0.4v-0.4h5.7v0.4c-1.3,0-1.7,0.5-1.7,1.9v9.7
				c0,1.7,0.4,2,1.8,2h0.2v0.4h-6.3v-0.4h0.7c1.5,0,1.8-0.5,1.8-1.8v-4.8L607,329.7L607,329.7z"/>
		</g>
	</g>
</g>
<g>
	<path fill="#E31837" d="M435,370.3c0,0.9-0.1,1.7-0.4,2.4c-0.2,0.7-0.6,1.2-1,1.6c-0.4,0.4-1,0.7-1.5,0.9c-0.6,0.2-1.2,0.3-1.9,0.3
		h-2.5v-10.2h2.7c0.7,0,1.3,0.1,1.9,0.3c0.6,0.2,1.1,0.5,1.5,0.9c0.4,0.4,0.7,0.9,1,1.6C434.9,368.7,435,369.4,435,370.3z
		 M433.9,370.4c0-1.3-0.3-2.3-0.9-3c-0.6-0.7-1.5-1-2.7-1h-1.5v8.1h1.5c0.6,0,1-0.1,1.5-0.2s0.8-0.4,1.1-0.7
		c0.3-0.3,0.5-0.8,0.7-1.3C433.8,371.7,433.9,371.1,433.9,370.4z"/>
	<path fill="#E31837" d="M437.3,375.5v-10.2h1.1v10.2H437.3z"/>
	<path fill="#E31837" d="M447.5,375.5l-4.5-7c-0.1-0.1-0.1-0.2-0.2-0.3c-0.1-0.1-0.1-0.2-0.2-0.4c-0.1-0.1-0.1-0.2-0.2-0.3
		c-0.1-0.1-0.1-0.2-0.1-0.3v0.7v7.5h-1.1v-10.2h1.1l4.4,7.1c0.1,0.1,0.1,0.2,0.2,0.3c0.1,0.1,0.1,0.2,0.2,0.4
		c0.1,0.1,0.1,0.2,0.2,0.3c0.1,0.1,0.1,0.2,0.1,0.3V373v-7.7h1.1v10.2H447.5z"/>
	<path fill="#E31837" d="M458.4,373.3c-0.2,0.5-0.5,1-0.8,1.3c-0.3,0.4-0.7,0.6-1.2,0.8c-0.5,0.2-1,0.3-1.5,0.3
		c-0.6,0-1.2-0.1-1.7-0.4c-0.5-0.3-0.9-0.6-1.3-1.1c-0.4-0.5-0.6-1-0.8-1.7c-0.2-0.6-0.3-1.3-0.3-2.1c0-0.8,0.1-1.5,0.3-2.1
		s0.5-1.2,0.9-1.7c0.4-0.5,0.8-0.8,1.3-1.1s1.1-0.4,1.7-0.4c1.4,0,2.5,0.5,3.2,1.6l-0.9,0.7c-0.3-0.4-0.7-0.8-1-1s-0.8-0.3-1.4-0.3
		c-0.4,0-0.8,0.1-1.2,0.3c-0.4,0.2-0.7,0.5-0.9,0.9c-0.3,0.4-0.5,0.8-0.6,1.3c-0.2,0.5-0.2,1.1-0.2,1.7c0,0.6,0.1,1.2,0.2,1.7
		c0.2,0.5,0.4,1,0.6,1.3c0.3,0.4,0.6,0.7,1,0.9c0.4,0.2,0.8,0.3,1.2,0.3c0.9,0,1.5-0.3,2-0.8c0.5-0.5,0.7-1.3,0.7-2.3v-0.1h-1.8v-1
		h2.9v1C458.6,372.1,458.6,372.7,458.4,373.3z"/>
	<path fill="#E31837" d="M468.5,375.5v-6.9v-1.1c0,0.1-0.1,0.2-0.1,0.4c0,0.1-0.1,0.3-0.2,0.4c-0.1,0.2-0.1,0.3-0.2,0.5
		c-0.1,0.2-0.1,0.3-0.2,0.4l-2.7,6.6l-2.7-6.6c-0.1-0.1-0.1-0.3-0.2-0.4c-0.1-0.2-0.1-0.3-0.2-0.5s-0.1-0.3-0.1-0.4
		c0-0.1-0.1-0.3-0.1-0.4v1.1v6.9h-1.1v-10.2h1.3l2.4,6.1c0.1,0.2,0.1,0.3,0.2,0.5c0.1,0.2,0.1,0.4,0.2,0.6c0.1,0.2,0.1,0.4,0.2,0.5
		c0.1,0.2,0.1,0.3,0.1,0.4c0-0.1,0.1-0.2,0.1-0.4c0.1-0.2,0.1-0.3,0.2-0.5c0.1-0.2,0.1-0.4,0.2-0.6c0.1-0.2,0.1-0.3,0.2-0.5l2.4-6.1
		h1.2v10.2L468.5,375.5L468.5,375.5z"/>
	<path fill="#E31837" d="M478.8,375.5l-0.9-2.6h-4.2l-0.9,2.6h-1.2l3.5-10.2h1.3l3.5,10.2H478.8z M476.5,368.5
		c-0.1-0.2-0.1-0.3-0.2-0.5c-0.1-0.2-0.1-0.4-0.2-0.6c-0.1-0.2-0.1-0.3-0.2-0.5s-0.1-0.3-0.1-0.4c0,0.1-0.1,0.2-0.1,0.4
		c0,0.2-0.1,0.3-0.2,0.5c-0.1,0.2-0.1,0.4-0.2,0.6c-0.1,0.2-0.1,0.4-0.2,0.6l-1.1,3.3h3.5L476.5,368.5z"/>
	<path fill="#E31837" d="M488.4,375.5l-4.5-7c-0.1-0.1-0.1-0.2-0.2-0.3c-0.1-0.1-0.1-0.2-0.2-0.4c-0.1-0.1-0.1-0.2-0.2-0.3
		s-0.1-0.2-0.1-0.3v0.7v7.5h-1.1v-10.2h1.1l4.4,7.1c0.1,0.1,0.1,0.2,0.2,0.3c0.1,0.1,0.1,0.2,0.2,0.4c0.1,0.1,0.1,0.2,0.2,0.3
		c0.1,0.1,0.1,0.2,0.1,0.3V373v-7.7h1.1v10.2H488.4z"/>
	<path fill="#E31837" d="M501.5,375.2c-0.6,0.3-1.2,0.5-1.9,0.5c-0.6,0-1.2-0.1-1.7-0.4c-0.5-0.3-0.9-0.6-1.3-1.1
		c-0.4-0.5-0.6-1-0.8-1.7c-0.2-0.6-0.3-1.3-0.3-2.1c0-0.8,0.1-1.5,0.3-2.1s0.5-1.2,0.8-1.7c0.4-0.5,0.8-0.8,1.3-1.1s1.1-0.4,1.7-0.4
		c1.4,0,2.5,0.5,3.2,1.6l-0.9,0.7c-0.3-0.4-0.7-0.8-1-1s-0.8-0.3-1.4-0.3c-0.4,0-0.8,0.1-1.2,0.3c-0.4,0.2-0.7,0.5-0.9,0.9
		c-0.3,0.4-0.5,0.8-0.6,1.3c-0.2,0.5-0.2,1.1-0.2,1.7c0,0.6,0.1,1.2,0.2,1.7s0.4,1,0.6,1.3c0.3,0.4,0.6,0.7,1,0.9
		c0.4,0.2,0.8,0.3,1.2,0.3c0.6,0,1-0.1,1.4-0.3c0.4-0.2,0.8-0.6,1.1-1l0.8,0.7C502.5,374.5,502.1,374.9,501.5,375.2z"/>
	<path fill="#E31837" d="M505,375.5v-10.2h6.2v1h-5v3.2h2.9v1h-2.9v3.9h5.2v1L505,375.5L505,375.5z"/>
	<path fill="#E31837" d="M519.9,375.5l-4.5-7c-0.1-0.1-0.1-0.2-0.2-0.3s-0.1-0.2-0.2-0.4c-0.1-0.1-0.1-0.2-0.2-0.3
		c-0.1-0.1-0.1-0.2-0.1-0.3v0.7v7.5h-1.1v-10.2h1.1l4.4,7.1c0.1,0.1,0.1,0.2,0.2,0.3c0.1,0.1,0.1,0.2,0.2,0.4
		c0.1,0.1,0.1,0.2,0.2,0.3c0.1,0.1,0.1,0.2,0.1,0.3V373v-7.7h1.1v10.2H519.9z"/>
	<path fill="#E31837" d="M527.1,366.3v9.1h-1.1v-9.1h-3v-1h7.1v1H527.1z"/>
	<path fill="#E31837" d="M532.1,375.5v-10.2h6.2v1h-5v3.2h2.9v1h-2.9v3.9h5.2v1L532.1,375.5L532.1,375.5z"/>
	<path fill="#E31837" d="M547.9,368.2c0,0.8-0.2,1.4-0.7,1.9c-0.4,0.5-1,0.8-1.7,1l2.2,4.4h-1.3l-2.2-4.3h-2.4v4.3h-1.1v-10.2h4
		c0.4,0,0.9,0.1,1.2,0.2c0.4,0.1,0.7,0.3,1,0.5c0.3,0.2,0.5,0.5,0.7,0.9C547.8,367.3,547.9,367.7,547.9,368.2z M546.7,368.2
		c0-0.6-0.2-1.1-0.5-1.4c-0.4-0.3-0.9-0.5-1.5-0.5h-2.9v3.8h2.7c0.8,0,1.3-0.2,1.7-0.5C546.6,369.3,546.7,368.9,546.7,368.2z"/>
	<path fill="#E31837" d="M555,366.3v3.4h2.8v1H555v4.7h-1.1v-10.2h6v1L555,366.3L555,366.3z"/>
	<path fill="#E31837" d="M569.5,370.4c0,0.8-0.1,1.5-0.3,2.1c-0.2,0.6-0.5,1.2-0.9,1.7s-0.8,0.8-1.3,1.1c-0.5,0.3-1.1,0.4-1.7,0.4
		s-1.2-0.1-1.7-0.4c-0.5-0.3-1-0.6-1.3-1.1c-0.4-0.5-0.7-1-0.9-1.7c-0.2-0.6-0.3-1.3-0.3-2.1c0-0.8,0.1-1.5,0.3-2.1
		c0.2-0.6,0.5-1.2,0.9-1.7c0.4-0.5,0.8-0.8,1.3-1.1c0.5-0.3,1.1-0.4,1.7-0.4c0.6,0,1.2,0.1,1.7,0.4c0.5,0.3,1,0.6,1.3,1.1
		c0.4,0.5,0.7,1,0.9,1.7C569.4,368.9,569.5,369.6,569.5,370.4z M568.3,370.4c0-0.6-0.1-1.2-0.2-1.7c-0.2-0.5-0.4-1-0.7-1.3
		c-0.3-0.4-0.6-0.7-1-0.9c-0.4-0.2-0.8-0.3-1.2-0.3c-0.4,0-0.8,0.1-1.2,0.3c-0.4,0.2-0.7,0.5-1,0.8c-0.3,0.4-0.5,0.8-0.6,1.3
		c-0.2,0.5-0.2,1.1-0.2,1.7s0.1,1.2,0.2,1.7c0.2,0.5,0.4,1,0.7,1.3c0.3,0.4,0.6,0.7,1,0.9c0.4,0.2,0.8,0.3,1.2,0.3
		c0.4,0,0.8-0.1,1.2-0.3s0.7-0.5,1-0.8c0.3-0.4,0.5-0.8,0.6-1.3C568.3,371.6,568.3,371,568.3,370.4z"/>
	<path fill="#E31837" d="M578.9,368.2c0,0.8-0.2,1.4-0.7,1.9c-0.4,0.5-1,0.8-1.7,1l2.2,4.4h-1.3l-2.2-4.3h-2.4v4.3h-1.1v-10.2h4
		c0.4,0,0.9,0.1,1.3,0.2s0.7,0.3,1,0.5c0.3,0.2,0.5,0.5,0.7,0.9C578.8,367.3,578.9,367.7,578.9,368.2z M577.8,368.2
		c0-0.6-0.2-1.1-0.5-1.4s-0.9-0.5-1.5-0.5h-2.9v3.8h2.7c0.8,0,1.3-0.2,1.7-0.5C577.6,369.3,577.8,368.9,577.8,368.2z"/>
</g>
<g>
	<path fill="#E31837" d="M427.7,392.9v-10.2h6.2v1h-5v3.2h2.9v1h-2.9v3.9h5.2v1L427.7,392.9L427.7,392.9z"/>
	<path fill="#E31837" d="M442.5,392.9l-4.5-7c-0.1-0.1-0.1-0.2-0.2-0.3c-0.1-0.1-0.1-0.2-0.2-0.4c-0.1-0.1-0.1-0.2-0.2-0.3
		c-0.1-0.1-0.1-0.2-0.1-0.3v0.7v7.5h-1.1v-10.2h1.1l4.4,7.1c0.1,0.1,0.1,0.2,0.2,0.3c0.1,0.1,0.1,0.2,0.2,0.4
		c0.1,0.1,0.1,0.2,0.2,0.3c0.1,0.1,0.1,0.2,0.1,0.3v-0.7v-7.7h1.1v10.2H442.5z"/>
	<path fill="#E31837" d="M449.7,383.8v9.1h-1.1v-9.1h-3v-1h7.1v1H449.7z"/>
	<path fill="#E31837" d="M462,385.6c0,0.8-0.2,1.4-0.7,1.9c-0.4,0.5-1,0.8-1.7,1l2.2,4.4h-1.3l-2.2-4.3h-2.4v4.3h-1.1v-10.2h4
		c0.4,0,0.9,0.1,1.3,0.2c0.4,0.1,0.7,0.3,1,0.5c0.3,0.2,0.5,0.5,0.7,0.9C461.9,384.7,462,385.1,462,385.6z M460.8,385.7
		c0-0.6-0.2-1.1-0.5-1.4c-0.4-0.3-0.9-0.5-1.5-0.5h-2.9v3.8h2.7c0.8,0,1.3-0.2,1.7-0.5C460.6,386.8,460.8,386.3,460.8,385.7z"/>
	<path fill="#E31837" d="M464.2,392.9v-10.2h6.2v1h-5v3.2h2.9v1h-2.9v3.9h5.2v1L464.2,392.9L464.2,392.9z"/>
	<path fill="#E31837" d="M479.8,385.8c0,0.5-0.1,1-0.3,1.3s-0.4,0.7-0.7,1c-0.3,0.3-0.7,0.5-1.1,0.6c-0.4,0.1-0.9,0.2-1.4,0.2h-2.5
		v4h-1.1v-10.2h3.8c0.5,0,0.9,0.1,1.3,0.2c0.4,0.1,0.7,0.3,1,0.6c0.3,0.3,0.5,0.6,0.7,1C479.7,384.8,479.8,385.3,479.8,385.8z
		 M478.7,385.8c0-0.7-0.2-1.2-0.6-1.5c-0.4-0.4-0.9-0.5-1.6-0.5h-2.6v4.1h2.5C477.9,387.9,478.7,387.2,478.7,385.8z"/>
	<path fill="#E31837" d="M488.9,385.6c0,0.8-0.2,1.4-0.7,1.9c-0.4,0.5-1,0.8-1.7,1l2.2,4.4h-1.3l-2.2-4.3h-2.4v4.3h-1.1v-10.2h4
		c0.4,0,0.9,0.1,1.3,0.2c0.4,0.1,0.7,0.3,1,0.5c0.3,0.2,0.5,0.5,0.7,0.9S488.9,385.1,488.9,385.6z M487.8,385.7
		c0-0.6-0.2-1.1-0.5-1.4c-0.4-0.3-0.9-0.5-1.5-0.5h-2.9v3.8h2.7c0.8,0,1.3-0.2,1.7-0.5C487.6,386.8,487.8,386.3,487.8,385.7z"/>
	<path fill="#E31837" d="M491.2,392.9v-10.2h6.2v1h-5v3.2h2.9v1h-2.9v3.9h5.2v1L491.2,392.9L491.2,392.9z"/>
	<path fill="#E31837" d="M506,392.9l-4.5-7c-0.1-0.1-0.1-0.2-0.2-0.3s-0.1-0.2-0.2-0.4c-0.1-0.1-0.1-0.2-0.2-0.3
		c-0.1-0.1-0.1-0.2-0.1-0.3v0.7v7.5h-1.1v-10.2h1.1l4.4,7.1c0.1,0.1,0.1,0.2,0.2,0.3c0.1,0.1,0.1,0.2,0.2,0.4
		c0.1,0.1,0.1,0.2,0.2,0.3c0.1,0.1,0.1,0.2,0.1,0.3v-0.7v-7.7h1.1v10.2H506z"/>
	<path fill="#E31837" d="M509.7,392.9v-10.2h6.2v1h-5v3.2h2.9v1h-2.9v3.9h5.2v1L509.7,392.9L509.7,392.9z"/>
	<path fill="#E31837" d="M524.6,392c-0.6,0.7-1.5,1.1-2.8,1.1c-1.2,0-2.1-0.4-2.8-1.1c-0.6-0.7-0.9-1.8-0.9-3.2v-6.1h1.1v6
		c0,2.2,0.9,3.3,2.6,3.3c0.9,0,1.5-0.3,1.9-0.8c0.4-0.5,0.6-1.4,0.6-2.5v-6.1h1.1v6C525.5,390.2,525.2,391.3,524.6,392z"/>
	<path fill="#E31837" d="M535.3,385.6c0,0.8-0.2,1.4-0.7,1.9c-0.4,0.5-1,0.8-1.7,1l2.2,4.4h-1.3l-2.2-4.3h-2.4v4.3h-1.1v-10.2h4
		c0.4,0,0.9,0.1,1.3,0.2s0.7,0.3,1,0.5c0.3,0.2,0.5,0.5,0.7,0.9C535.3,384.7,535.3,385.1,535.3,385.6z M534.2,385.7
		c0-0.6-0.2-1.1-0.5-1.4c-0.4-0.3-0.9-0.5-1.5-0.5h-2.9v3.8h2.7c0.8,0,1.3-0.2,1.7-0.5C534,386.8,534.2,386.3,534.2,385.7z"/>
	<path fill="#E31837" d="M543.9,390.3c0,0.4-0.1,0.8-0.2,1.1s-0.4,0.6-0.7,0.9c-0.3,0.3-0.6,0.5-1.1,0.6c-0.4,0.1-0.9,0.2-1.4,0.2
		c-0.7,0-1.3-0.1-1.9-0.4c-0.6-0.3-1.1-0.6-1.5-1l0.8-0.8c0.4,0.4,0.8,0.7,1.2,0.9c0.4,0.2,0.9,0.3,1.5,0.3c0.7,0,1.2-0.2,1.6-0.5
		c0.4-0.3,0.6-0.7,0.6-1.3c0-0.2,0-0.4-0.1-0.6c-0.1-0.2-0.2-0.4-0.4-0.5c-0.2-0.2-0.4-0.3-0.7-0.5c-0.3-0.2-0.7-0.3-1.2-0.5
		c-0.6-0.2-1-0.4-1.4-0.6c-0.4-0.2-0.7-0.4-0.9-0.6c-0.2-0.2-0.4-0.5-0.5-0.8c-0.1-0.3-0.2-0.6-0.2-1c0-0.4,0.1-0.8,0.2-1.1
		s0.4-0.6,0.6-0.8s0.6-0.4,1-0.5c0.4-0.1,0.8-0.2,1.3-0.2c0.7,0,1.3,0.1,1.7,0.3c0.5,0.2,0.9,0.5,1.4,0.8l-0.7,0.9
		c-0.4-0.3-0.7-0.5-1.1-0.7c-0.4-0.2-0.8-0.2-1.3-0.2c-0.3,0-0.6,0-0.9,0.1c-0.3,0.1-0.5,0.2-0.6,0.3c-0.2,0.1-0.3,0.3-0.3,0.5
		c-0.1,0.2-0.1,0.4-0.1,0.6c0,0.2,0,0.4,0.1,0.6c0.1,0.2,0.2,0.3,0.3,0.5c0.2,0.2,0.4,0.3,0.7,0.5c0.3,0.2,0.7,0.3,1.2,0.5
		c0.6,0.2,1,0.4,1.4,0.6c0.4,0.2,0.7,0.4,0.9,0.7c0.2,0.2,0.4,0.5,0.5,0.8C543.8,389.6,543.9,389.9,543.9,390.3z"/>
	<path fill="#E31837" d="M552.4,392.9v-4.8h-5.1v4.8h-1.1v-10.2h1.1v4.4h5.1v-4.4h1.1v10.2H552.4z"/>
	<path fill="#E31837" d="M556.3,392.9v-10.2h1.1v10.2H556.3z"/>
	<path fill="#E31837" d="M567.2,385.8c0,0.5-0.1,1-0.3,1.3c-0.2,0.4-0.4,0.7-0.7,1c-0.3,0.3-0.7,0.5-1.1,0.6
		c-0.4,0.1-0.9,0.2-1.4,0.2h-2.5v4h-1.1v-10.2h3.8c0.5,0,0.9,0.1,1.3,0.2c0.4,0.1,0.7,0.3,1,0.6c0.3,0.3,0.5,0.6,0.7,1
		C567.1,384.8,567.2,385.3,567.2,385.8z M566.1,385.8c0-0.7-0.2-1.2-0.6-1.5c-0.4-0.4-0.9-0.5-1.6-0.5h-2.6v4.1h2.5
		C565.3,387.9,566.1,387.2,566.1,385.8z"/>
</g>
<g>
	<rect x="428.8" y="358.6" width="191.8" height="0.5"/>
</g>
</svg>
