<?xml version="1.0" encoding="iso-8859-1"?>
<!-- Generator: Adobe Illustrator 18.1.1, SVG Export Plug-In . SVG Version: 6.00 Build 0)  -->
<!DOCTYPE svg PUBLIC "-//W3C//DTD SVG 1.1//EN" "http://www.w3.org/Graphics/SVG/1.1/DTD/svg11.dtd">
<svg version="1.1" id="Layer_1" xmlns="http://www.w3.org/2000/svg" xmlns:xlink="http://www.w3.org/1999/xlink" x="0px" y="0px"
	 viewBox="0 0 792 576" style="enable-background:new 0 0 792 576;" xml:space="preserve">
<g>
	<defs>
		<rect id="SVGID_1_" x="279" y="253.4" width="234.43" height="69.6"/>
	</defs>
	<clipPath id="SVGID_2_">
		<use xlink:href="#SVGID_1_"  style="overflow:visible;"/>
	</clipPath>
	<g style="clip-path:url(#SVGID_2_);">
		<path style="fill:#FFFFFF;" d="M310.861,306.582c12.173,0,22.139-9.867,22.139-22.041c0-12.173-10.369-21.953-22.139-21.942
			c-12.173,0.011-22.205,9.77-22.205,21.942C288.656,296.715,298.688,306.582,310.861,306.582"/>
	</g>
	<g style="clip-path:url(#SVGID_2_);">
		<path style="fill:#FFFFFF;" d="M321.18,270.583c-2.85,0.435-6.671,0.688-10.673,0.684c0.051-4.379,0.125-7.543,0.21-8.499
			C314.77,263.458,318.456,266.381,321.18,270.583"/>
	</g>
	<g style="clip-path:url(#SVGID_2_);">
		<path style="fill:#E31837;" d="M325.936,286.319c-4.127,0.629-9.657,0.995-15.449,0.99c-0.006-5.968,0.022-11.724,0.075-16.207
			c3.998,0.003,7.816-0.249,10.665-0.684C324.014,274.721,325.795,280.36,325.936,286.319"/>
	</g>
	<g style="clip-path:url(#SVGID_2_);">
		<path style="fill:#FFFFFF;" d="M325.574,286.29c-1.145-0.18-2.109-2.092-1.603-4.064c-1.614,1.115-3.431-1.178-3.166-3.299
			c0.141-1.124,0.877-2.122,2.161-1.658c-0.522-1.794-1.176-3.491-1.94-5.054c-1.139,0.145-2.389,0.265-3.715,0.358
			c1.178,1.779,0.022,3.434-1.62,3.171c-1.192-0.191-2.304-1.441-1.995-2.929c-0.967,0.671-2.956,0.406-3.136-1.719
			c3.653-0.019,6.866-0.142,10.675-0.68v0.001c3.077,5.076,4.399,9.527,4.716,15.873
			C325.837,286.291,325.685,286.309,325.574,286.29"/>
	</g>
	<g style="clip-path:url(#SVGID_2_);">
		<path style="fill:#FFFFFF;" d="M299.119,301.159c-2.274-0.382-3.785-0.871-4.296-1.4c-0.562-0.632-1.297-1.486-1.818-2.153
			c-1.264-1.849-1.288-1.883-1.845-2.946c-0.968-2.048-0.986-2.087-1.366-3.226c-0.64-2.212-0.652-2.254-0.846-3.457
			c-0.125-1.044-0.238-2.444-0.28-3.495l0.019-0.955c-0.039,0.935,2.219,1.823,6.126,2.478c-0.009,0.311-0.013,0.622-0.013,0.935
			C294.809,292.692,296.448,297.672,299.119,301.159"/>
	</g>
	<g style="clip-path:url(#SVGID_2_);">
		<path style="fill:#FFFFFF;" d="M310.788,306.581c-0.102,0-0.24-0.001-0.342-0.002c-0.203-0.005-0.406-0.015-0.608-0.02
			c-1.331-0.074-2.201-0.201-3.342-0.41c-2.872-0.655-5.418-2.431-7.394-5.029c1.95,0.325,4.456,0.573,7.37,0.699
			c1.377,0.061,2.762,0.09,4.128,0.092C310.651,304.861,310.717,306.579,310.788,306.581"/>
	</g>
	<g style="clip-path:url(#SVGID_2_);">
		<path style="fill:#E31837;" d="M310.599,301.91c-1.365-0.001-2.75-0.03-4.127-0.09c-2.911-0.127-5.414-0.374-7.362-0.699
			c-2.647-3.483-4.27-8.446-4.279-14.178c0-0.251,0.002-0.501,0.008-0.751c2.654,0.443,6.065,0.779,10.03,0.951
			c1.876,0.082,3.763,0.122,5.622,0.123c0.001,0.251,0.001,0.501,0.001,0.752C310.502,293.75,310.541,298.605,310.599,301.91"/>
	</g>
	<g style="clip-path:url(#SVGID_2_);">
		<path style="fill:#E31837;" d="M310.565,302.214c-0.19,0.765-1.26,1.493-2.775,0.876c0.708,0.935,0.095,1.741-1.151,1.516
			c-0.969-0.177-2.119-0.955-2.209-1.734c-1.198-0.092-2.292-0.207-3.266-0.341c0.924,1.074,1.955,1.952,3.069,2.603
			c0.133-0.055,0.339-0.041,0.999,0.19c0.845,0.296,1.633,0.727,2.477,1.027c-0.001,0.001-0.001,0.002-0.001,0.004
			c-0.661-0.102-0.746-0.115-1.214-0.205c-1.591-0.457-4.551-1.31-7.392-5.029h-0.001h0.001c3.422,0.528,6.754,0.756,11.498,0.786
			C310.59,301.999,310.587,302.124,310.565,302.214"/>
	</g>
	<g style="clip-path:url(#SVGID_2_);">
		<path style="fill:#FFFFFF;" d="M299.102,301.12L299.102,301.12c-3.048-4.364-4.247-8.543-4.279-14.905
			c1.723,0.569,2.196,3.085,1.753,4.5c1.639-0.632,3.697,2.199,2.977,4.094c-0.332,0.872-1.195,1.114-2.098,0.59
			c0.488,1.651,1.121,3.164,1.877,4.502c1.158,0.16,2.459,0.296,3.884,0.405c-1.144-1.408-0.227-2.562,1.299-2.483
			c1.309,0.067,3.042,1.156,2.672,2.643c1.181-0.531,3.18-0.095,3.414,1.45c-1.435-0.011-3.604-0.028-6.382-0.22
			C302.505,301.577,300.814,301.253,299.102,301.12"/>
	</g>
	<g style="clip-path:url(#SVGID_2_);">
		<path style="fill:#C13936;" d="M299.102,301.12"/>
	</g>
	<g style="clip-path:url(#SVGID_2_);">
		<path style="fill:#C13936;" d="M299.102,301.12"/>
	</g>
	<g style="clip-path:url(#SVGID_2_);">
		<path style="fill:#E31837;" d="M299.102,301.12c-2.521-0.455-3.611-0.81-4.321-1.404c-0.511-0.577-1.187-1.352-1.664-1.958
			c0.087,0.109,0.145,0.182,0.379,0.455c-0.23-0.288-1.383-1.761-1.467-2.409c0.627-0.101,2.646,3.048,2.665,3.079
			c0.613,0.228,1.411,0.443,2.372,0.638c-0.904-1.362-1.662-2.895-2.245-4.564c-1.375,0.693-3.129-2.939-2.573-4.473
			c0.113-0.311,0.477-0.963,1.409-0.259c-0.702-1.617-0.518-4.013,1.176-4.009C294.871,291.573,295.612,296.158,299.102,301.12"/>
	</g>
	<g style="clip-path:url(#SVGID_2_);">
		<path d="M325.838,290.113l-0.028-0.04c0.097-0.987,0.146-2.004,0.144-3.046c0-0.244-0.004-0.487-0.009-0.729
			c0.01-0.003,0.021-0.005,0.032-0.006c0.006,0.243,0.009,0.486,0.009,0.73C325.988,288.08,325.937,289.112,325.838,290.113"/>
	</g>
	<g style="clip-path:url(#SVGID_2_);">
		<path d="M314.204,306.32l-0.013,0.002c6.073-0.943,10.754-7.389,11.619-16.249l0.028,0.041
			C324.96,298.948,320.277,305.373,314.204,306.32"/>
	</g>
	<g style="clip-path:url(#SVGID_2_);">
		<path d="M321.534,303.808c-1.5,0.771-1.811,0.932-3.416,1.534c-0.473,0.153-1.104,0.353-1.582,0.487
			c3.089-0.832,5.832-2.599,8-5.056c-0.461,1.023-0.777,1.607-2.392,2.68C321.942,303.575,321.739,303.693,321.534,303.808"/>
	</g>
	<g style="clip-path:url(#SVGID_2_);">
		<path style="fill:#FFD24F;" d="M322.144,303.454c1.329-0.919,1.89-1.462,2.392-2.681c3.176-3.599,5.118-8.68,5.108-14.48
			c0-0.243-0.004-0.487-0.011-0.729c1.003-0.265,1.81-0.554,2.378-0.863c0.008,0.241,0.012,0.484,0.013,0.729
			C332.036,293.213,328.092,299.861,322.144,303.454"/>
	</g>
	<g style="clip-path:url(#SVGID_2_);">
		<path d="M315.51,297.747c-1.47-1.474-1.47-1.474-5.003-4.82c-0.008-1.545-0.014-3.188-0.016-4.908
			c-0.001-0.243-0.001-0.487-0.001-0.729c1.915,0.001,3.802-0.038,5.619-0.113c0.002,0.243,0.003,0.487,0.004,0.73
			C316.119,291.608,315.9,294.948,315.51,297.747"/>
	</g>
	<g style="clip-path:url(#SVGID_2_);">
		<path style="fill:#FFD24F;" d="M311.729,306.561l-0.14,0.006c-0.304,0.009-0.443,0.013-0.571,0.013l-0.231,0.001
			c-0.128-0.004-0.239-5.461-0.281-13.655c3.305,3.128,3.651,3.455,5.003,4.821C314.76,303.122,313.376,306.491,311.729,306.561"/>
	</g>
	<g style="clip-path:url(#SVGID_2_);">
		<path d="M312.775,306.494c-0.175,0.014-0.409,0.032-0.584,0.044c-0.139,0.008-0.323,0.018-0.462,0.023
			c1.646-0.07,3.029-3.434,3.779-8.802c1.595,1.677,2.298,2.496,3.07,3.751C317.076,304.477,315.056,306.29,312.775,306.494"/>
	</g>
	<g style="clip-path:url(#SVGID_2_);">
		<path style="fill:#FFD24F;" d="M318.578,301.512c-0.76-1.194-1.222-1.827-3.07-3.751c0.391-2.801,0.61-6.146,0.604-9.854
			c0-0.244-0.001-0.488-0.004-0.73c1.819-0.075,3.567-0.189,5.204-0.333c0.004,0.242,0.006,0.486,0.007,0.73
			C321.328,293.265,320.288,298.135,318.578,301.512"/>
	</g>
	<g style="clip-path:url(#SVGID_2_);">
		<path d="M319.022,304.221c0.278-0.874,0.253-1.391-0.438-2.723c1.706-3.376,2.743-8.242,2.734-13.925
			c0-0.244-0.002-0.488-0.007-0.73c0.615-0.055,1.213-0.113,1.793-0.178c0.812,0.957,1.823,2.15,2.706,3.408
			C325.193,296.389,322.639,301.477,319.022,304.221"/>
	</g>
	<g style="clip-path:url(#SVGID_2_);">
		<path style="fill:#FFD24F;" d="M314.191,306.322c-0.164,0.023-0.383,0.056-0.547,0.077c-0.518,0.061-0.518,0.061-0.786,0.087
			l-0.083,0.008c2.285-0.205,4.307-2.022,5.809-4.996c0.597,1.191,0.789,1.733,0.439,2.723
			C317.565,305.326,315.935,306.052,314.191,306.322"/>
	</g>
	<g style="clip-path:url(#SVGID_2_);">
		<path style="fill:#FFD24F;" d="M316.535,305.83l-0.533,0.136c-0.887,0.199-0.887,0.199-1.368,0.283l-0.43,0.07
			c4.309-0.672,7.917-4.1,9.964-9.191c0.566,1.508,0.744,2.213,0.365,3.648C322.365,303.232,319.623,304.998,316.535,305.83"/>
	</g>
	<g style="clip-path:url(#SVGID_2_);">
		<path d="M316.002,305.966c-0.887,0.198-0.887,0.198-1.367,0.283l-0.431,0.07c1.736-0.27,3.357-0.988,4.809-2.082
			c-0.507,0.755-0.852,1.087-2.479,1.592L316.002,305.966z"/>
	</g>
	<g style="clip-path:url(#SVGID_2_);">
		<path d="M324.533,300.777c0.302-1.264,0.292-1.968-0.365-3.649c1.166-2.897,1.825-6.334,1.819-10.105
			c-0.001-0.244-0.004-0.487-0.01-0.73c1.396-0.214,2.629-0.458,3.656-0.728c0.007,0.242,0.011,0.485,0.011,0.729
			C329.653,292.095,327.71,297.178,324.533,300.777"/>
	</g>
	<g style="clip-path:url(#SVGID_2_);">
		<path style="fill:#FFD24F;" d="M321.534,303.808c0.199-0.11,0.395-0.225,0.59-0.342l-0.224,0.135L321.534,303.808z"/>
	</g>
	<g style="clip-path:url(#SVGID_2_);">
		<path d="M332.126,285.371c0.012,7.909-4.08,14.657-10.217,18.223l-0.01,0.006l0.224-0.134c5.959-3.589,9.912-10.245,9.9-18.037
			c0-0.244-0.005-0.486-0.013-0.729c0.035-0.021,0.07-0.039,0.103-0.059C332.121,284.884,332.126,285.127,332.126,285.371"/>
	</g>
	<g style="clip-path:url(#SVGID_2_);">
		<path style="fill:#FFD24F;" d="M324.143,297.126c-0.78-1.588-1.308-2.434-3.094-4.627c0.18-1.555,0.273-3.203,0.27-4.926
			c0-0.244-0.002-0.487-0.007-0.73c1.676-0.148,3.235-0.332,4.633-0.546c0.006,0.243,0.009,0.487,0.01,0.73
			C325.96,290.797,325.304,294.229,324.143,297.126"/>
	</g>
	<g style="clip-path:url(#SVGID_2_);">
		<path d="M321.047,292.517c-1.277-1.465-1.917-2.201-4.939-5.341c1.709-0.086,3.059-0.152,5.204-0.344
			c0.004,0.246,0.006,0.493,0.007,0.741C321.321,289.304,321.227,290.956,321.047,292.517"/>
	</g>
	<g style="clip-path:url(#SVGID_2_);">
		<path d="M294.83,286.212c-0.01-0.002-0.021-0.003-0.031-0.005c0.029-1.298,0.14-2.578,0.327-3.832l0.024,0.05
			C294.967,283.665,294.859,284.931,294.83,286.212"/>
	</g>
	<g style="clip-path:url(#SVGID_2_);">
		<path d="M295.149,282.425l-0.024-0.05c1.352-9.086,6.655-16.806,13.293-19.173l-0.029,0.014
			C301.77,265.603,296.485,273.334,295.149,282.425"/>
	</g>
	<g style="clip-path:url(#SVGID_2_);">
		<path d="M308.39,263.216l0.028-0.014c0.768-0.272,1.554-0.475,2.353-0.6C309.962,262.728,309.167,262.935,308.39,263.216"/>
	</g>
	<g style="clip-path:url(#SVGID_2_);">
		<path style="fill:#FFD24F;" d="M297.526,269.702c0.771-1.729,1.336-2.592,2.973-3.993c3.049-1.831,6.549-2.947,10.272-3.107
			C305.645,263.066,300.987,265.729,297.526,269.702"/>
	</g>
	<g style="clip-path:url(#SVGID_2_);">
		<path d="M291.426,285.468c-0.897-0.262-1.59-0.542-2.056-0.834c0.244-7.975,4.675-15.05,11.129-18.925
			c-1.526,1.355-2.205,2.162-2.973,3.993C293.903,273.861,291.591,279.456,291.426,285.468"/>
	</g>
	<g style="clip-path:url(#SVGID_2_);">
		<path style="fill:#FFD24F;" d="M310.489,287.288c-1.859-0.002-3.745-0.041-5.621-0.123c-0.056-0.002-0.113-0.005-0.169-0.007
			c0.03-3.935,0.348-7.772,0.882-11.207c1.599,2.007,2.437,2.98,4.912,5.564C310.488,283.392,310.487,285.328,310.489,287.288"/>
	</g>
	<g style="clip-path:url(#SVGID_2_);">
		<path style="fill:#FFD24F;" d="M305.583,275.935c-1.497-2.083-2.139-3.165-2.758-5.089c2.056-4.337,4.856-7.416,7.946-8.244
			C308.571,263.843,306.649,269.09,305.583,275.935"/>
	</g>
	<g style="clip-path:url(#SVGID_2_);">
		<path d="M304.699,287.158c-1.926-0.086-3.719-0.211-5.356-0.369c0.092-5.915,1.409-11.568,3.482-15.942
			c0.633,1.847,1.145,2.893,2.758,5.089C305.048,279.375,304.729,283.217,304.699,287.158"/>
	</g>
	<g style="clip-path:url(#SVGID_2_);">
		<path style="fill:#FFD24F;" d="M299.343,286.789c-0.614-0.059-1.206-0.123-1.776-0.189c-0.738-1.133-1.658-2.54-2.418-4.176
			c0.946-6.433,3.868-12.185,7.842-15.845c-0.529,1.461-0.635,2.328-0.174,4.284C300.748,275.235,299.435,280.881,299.343,286.789"
			/>
	</g>
	<g style="clip-path:url(#SVGID_2_);">
		<path d="M302.817,270.863c-0.397-1.799-0.431-2.717,0.174-4.284c2.301-2.118,4.954-3.535,7.78-3.977
			C307.679,263.433,304.874,266.518,302.817,270.863"/>
	</g>
	<g style="clip-path:url(#SVGID_2_);">
		<path d="M297.213,274.962c-0.323-2.142-0.323-3.259,0.316-5.264c3.461-3.971,8.118-6.632,13.242-7.096
			c-1.221,0.205-1.441,0.241-2.353,0.601C303.691,264.889,299.641,269.287,297.213,274.962"/>
	</g>
	<g style="clip-path:url(#SVGID_2_);">
		<path style="fill:#FFD24F;" d="M303.006,266.55c0.743-1.287,1.231-1.908,3.095-2.887c1.496-0.552,3.06-0.915,4.671-1.061
			C307.952,263.041,305.304,264.447,303.006,266.55"/>
	</g>
	<g style="clip-path:url(#SVGID_2_);">
		<path style="fill:#FFD24F;" d="M294.799,286.206c-1.321-0.222-2.454-0.47-3.372-0.737c0.165-6.016,2.478-11.611,6.103-15.771
			c-0.564,1.864-0.696,2.939-0.317,5.265C295.761,278.356,294.888,282.207,294.799,286.206"/>
	</g>
	<g style="clip-path:url(#SVGID_2_);">
		<path d="M300.52,265.696c1.617-1.165,2.527-1.717,5.047-2.487c1.669-0.397,3.411-0.607,5.204-0.607
			C307.057,262.761,303.564,263.873,300.52,265.696"/>
	</g>
	<g style="clip-path:url(#SVGID_2_);">
		<path style="fill:#FFD24F;" d="M289.37,284.634c-0.463-0.29-0.701-0.593-0.692-0.899l0.038-0.768
			c0.636-9.635,7.609-17.56,16.851-19.758c-2.086,0.662-3.248,1.154-5.047,2.487C294.055,269.568,289.614,276.651,289.37,284.634"/>
	</g>
	<g style="clip-path:url(#SVGID_2_);">
		<path d="M299.343,286.789c-1.676-0.161-3.189-0.355-4.513-0.578c0.089-3.996,0.958-7.844,2.406-11.236
			c0.56,2.227,1.012,3.415,2.585,6.056C299.539,282.897,299.374,284.828,299.343,286.789"/>
	</g>
	<g style="clip-path:url(#SVGID_2_);">
		<path style="fill:#FFD24F;" d="M299.343,286.8c0.03-1.972,0.196-3.912,0.481-5.788c1.353,2.014,2.184,3.202,4.875,6.146
			C302.855,287.065,301.522,286.998,299.343,286.8"/>
	</g>
	<g style="clip-path:url(#SVGID_2_);">
		<path d="M306.101,263.663c1.229-0.497,2.291-0.926,4.67-1.061C309.161,262.748,307.596,263.111,306.101,263.663"/>
	</g>
	<g style="clip-path:url(#SVGID_2_);">
		<path d="M332.155,284.62c0.565-0.328,0.828-0.658,0.817-0.98c0.303,9.214-4.887,16.362-11.024,19.93l-0.023,0.013l0.232-0.139
			c5.957-3.588,9.909-10.243,9.897-18.035c0-0.244-0.005-0.487-0.013-0.729c0.038-0.021,0.075-0.041,0.111-0.062
			c0.008,0.243,0.012,0.486,0.013,0.73"/>
	</g>
	<g style="clip-path:url(#SVGID_2_);">
		<path style="fill:#E31837;" d="M321.258,270.408L321.258,270.408c0.006-0.001,0.012-0.002,0.018-0.003h-0.001
			c0,0,0.005-0.001,0.011-0.002c0.214-0.036,0.416-0.069,0.609-0.103c1.262-0.233,4.011-0.836,4.011-1.669
			c0,0,1.224,1.117,2.045,2.645c0.098,0.166,0.183,0.338,0.247,0.514c0.071,0.176,0.122,0.338,0.148,0.482
			c0.006,0.01,0.012,0.018,0.018,0.029c0.004,0.069,0.004,0.132,0.001,0.189c0,0.024-0.002,0.048-0.004,0.07
			c-0.047,0.474-0.339,0.484-0.654,0.343c-0.034-0.013-0.067-0.023-0.102-0.041c-1.134-0.51-1.503-1.548-1.724-1.977
			c-0.575,0.182-1.527,0.596-2.318,0.749c-0.092,0.018-0.261,0.058-0.355,0.076c0.932,1.535,1.821,3.368,2.459,5.145
			c1.11-1.14,2.848,0.976,2.931,3.021c0.05,1.2-0.49,2.268-1.586,1.885c0.878,1.626,0.596,4.011-1.071,4.533
			c-0.277-5.349-1.183-10.095-4.706-15.875v-0.001"/>
	</g>
	<g style="clip-path:url(#SVGID_2_);">
		<path style="fill:#E31837;" d="M321.457,266.308c-0.005-0.003-0.01-0.007-0.016-0.01c0.004,0,0.009,0,0.013,0
			c-0.005-0.017-0.01-0.032-0.013-0.048c0.016-0.022,0.037-0.05,0.053-0.07c0.027-0.004,0.051-0.006,0.073-0.008l-0.005-0.006
			c0,0,0.16-0.674,2.692,1.075c-4.303-3.358-8.669-4.314-11.255-4.566c0.275,0.081,0.481,0.162,0.636,0.238
			c0.136,0.066,0.232,0.131,0.3,0.189c0.006-0.001,0.01-0.002,0.01-0.002c0.315,0.034,0.599,0.089,0.853,0.152
			c0.092,0.031,0.185,0.065,0.278,0.101c0.011,0.004,0.023,0.008,0.035,0.013c0.081,0.03,0.162,0.062,0.243,0.096
			c0.02,0.008,0.041,0.016,0.061,0.024c0.075,0.031,0.15,0.064,0.226,0.097c0.023,0.01,0.047,0.02,0.07,0.029
			c0.096,0.043,0.193,0.087,0.291,0.133l-0.001,0.005c0.778,0.38,1.407,0.806,1.411,1.133c-0.116,0.07-0.152,0.092-0.495,0
			c1.305,0.93,3.174,2.681,4.279,3.97c0.759-0.143,1.891-0.306,2.413-0.48C323.571,268.409,321.685,266.99,321.457,266.308"/>
	</g>
	<g style="clip-path:url(#SVGID_2_);">
		<path style="fill:#FFFFFF;" d="M325.893,268.647c-0.543-0.509-1.09-0.978-1.638-1.405c-1.025-0.708-1.661-1.019-2.056-1.138
			l0.005-0.005c0,0-1.263-0.407-0.549,0.56l0.003-0.004c0.548,0.728,1.919,1.75,1.952,1.717c-0.523,0.176-1.654,0.338-2.413,0.481
			c-1.105-1.289-2.974-3.04-4.279-3.97c0.343,0.092,0.378,0.07,0.494,0c-0.004-0.326-0.632-0.753-1.41-1.134v-0.004
			c-0.097-0.046-0.194-0.09-0.29-0.133c-0.023-0.01-0.047-0.02-0.07-0.03c-0.076-0.032-0.151-0.064-0.227-0.096
			c-0.02-0.008-0.04-0.017-0.06-0.025c-0.082-0.032-0.163-0.064-0.243-0.095c-0.012-0.005-0.024-0.009-0.036-0.013
			c-0.093-0.035-0.185-0.069-0.277-0.101c-0.254-0.062-0.539-0.116-0.853-0.151c0,0-0.004,0.001-0.01,0.002
			c0.017,0.015,0.03,0.03,0.045,0.045l-0.084-0.041c0.017-0.001,0.031-0.003,0.039-0.004c-0.068-0.06-0.165-0.123-0.3-0.19
			c-0.155-0.076-0.362-0.155-0.636-0.236c-0.629-0.062-1.152-0.082-1.543-0.085c-0.296-0.012-0.534-0.015-0.585,0.005
			c-0.004,0.001-0.005,0.003-0.006,0.005c-0.091,0.003-0.142,0.007-0.142,0.007l0.098,0.032c-0.055-0.009-0.113-0.02-0.167-0.027
			c0.138,0.023,0.275,0.049,0.412,0.077c0.344,0.114,1.059,0.304,1.599,0.444c3.31,1.166,6.291,3.773,8.592,7.274
			c0.035-0.005,0.069-0.011,0.104-0.017c2.049-0.344,3.184-0.724,3.997-1.1c0.002-0.001,0.005-0.002,0.006-0.002
			c0.586-0.323,0.521-0.642,0.521-0.642L325.893,268.647z"/>
	</g>
	<g style="clip-path:url(#SVGID_2_);">
		<path style="fill:#E31837;" d="M321.234,270.418L321.234,270.418c-3.593-5.295-6.896-6.878-9.902-7.654
			c0.078,0.023,0.156,0.047,0.233,0.072c-0.14-0.037-0.282-0.075-0.408-0.108c-0.037-0.012-0.07-0.022-0.1-0.032
			c0.092,0.022,0.183,0.046,0.275,0.068c-0.104-0.029-0.21-0.058-0.319-0.084c-0.038-0.012-0.067-0.021-0.088-0.029
			c0.009,0.005,0.019,0.01,0.031,0.017c-0.069-0.016-0.139-0.031-0.212-0.046c0.643,0.711,1.544,1.011,1.762,1.076
			c-0.062,0.267-0.016,0.799,0.913,1.471c0.144,0.104,0.283,0.185,0.417,0.253c1.433,0.748,1.749,0.165,1.816-0.068
			c0.008-0.007,0.017-0.012,0.025-0.018c0.437,0.323,1.288,1.007,2.229,2.073c0.541,0.649,1.053,1.217,1.437,1.786
			c-0.884,0.111-2.057,0.216-3.219,0.299c-0.066-1.406-1.08-2.107-1.718-2.344c-1.396-0.52-1.855,1.124-1.251,2.278
			c-1.105-0.597-2.412-0.064-2.596,1.682C314.925,271.082,317.917,270.889,321.234,270.418L321.234,270.418c0,0,0,0,0-0.001"/>
	</g>
	<g style="clip-path:url(#SVGID_2_);">
		<path d="M310.494,281.516c-2.167-2.273-3.329-3.55-4.913-5.564c1.065-6.854,2.989-12.107,5.19-13.349
			C310.629,264.215,310.519,272.104,310.494,281.516"/>
	</g>
	<g style="clip-path:url(#SVGID_2_);">
		<path d="M284.245,268.151l0.126,0.062c-0.214,0.449-0.114,0.697,0.312,0.908l1.796,0.891c0.824,0.409,1.448,1.373,0.732,2.817
			c-0.63,1.27-1.678,1.561-2.629,1.09l-1.942-0.963c-0.426-0.211-0.551-0.124-0.782,0.324l-0.127-0.062l0.848-1.709l0.126,0.062
			l-0.029,0.06c-0.182,0.366-0.161,0.575,0.225,0.767l1.848,0.917c0.898,0.445,1.698,0.188,2.189-0.804
			c0.373-0.752,0.44-1.672-0.691-2.232l-1.549-0.769c-0.639-0.316-0.802-0.272-1.102,0.267l-0.126-0.063L284.245,268.151z"/>
	</g>
	<g style="clip-path:url(#SVGID_2_);">
		<path d="M291.93,265.949l-5.555,0.349l2.436,2.052c0.408,0.345,0.57,0.326,0.977-0.157l0.108,0.091l-1.11,1.317l-0.108-0.091
			l0.019-0.022c0.297-0.352,0.273-0.566,0.012-0.787l-2.793-2.353c-0.201,0.054-0.371,0.163-0.544,0.356l-0.108-0.091l0.751-0.891
			l5.041-0.325l-2.26-1.904c-0.346-0.292-0.495-0.241-0.889,0.202l-0.108-0.091l1.12-1.328l0.108,0.091
			c-0.359,0.427-0.362,0.579-0.14,0.766l3.167,2.669L291.93,265.949z"/>
	</g>
	<g style="clip-path:url(#SVGID_2_);">
		<path d="M294.632,263.56l-1.388,1.151l-0.09-0.107c0.34-0.311,0.338-0.464,0.021-0.848l-2.02-2.434
			c-0.257-0.308-0.436-0.304-0.77-0.055l-0.09-0.109l1.388-1.152l0.09,0.109c-0.36,0.298-0.419,0.483-0.102,0.865l2.011,2.422
			c0.28,0.337,0.466,0.375,0.86,0.048L294.632,263.56z"/>
	</g>
	<g style="clip-path:url(#SVGID_2_);">
		<path d="M297.367,261.858l-3.42-2.651c-0.397-0.309-0.53-0.359-0.921-0.131l-0.071-0.122l1.761-1.032l0.071,0.121
			c-0.581,0.359-0.644,0.576-0.349,0.799l2.834,2.194l-0.538-3.238c-0.035-0.221-0.071-0.372-0.124-0.461
			c-0.112-0.192-0.318-0.176-0.753,0.08l-0.071-0.122l1.486-0.871l0.071,0.122c-0.333,0.195-0.416,0.45-0.337,0.938l0.681,4.186
			L297.367,261.858z"/>
	</g>
	<g style="clip-path:url(#SVGID_2_);">
		<path d="M302.82,257.504l-0.133,0.047c-0.228-0.48-0.381-0.489-0.669-0.391l-1.186,0.409l0.516,1.495
			c0.111,0.323,0.252,0.345,0.512,0.255l1.081-0.372c0.491-0.17,0.573-0.41,0.54-1.074l0.127-0.044l0.248,1.085l-3.727,1.285
			l-0.046-0.134l0.197-0.067c0.561-0.193,0.606-0.382,0.461-0.803l-1.021-2.962c-0.136-0.394-0.285-0.53-0.755-0.368l-0.155,0.053
			l-0.046-0.133l3.369-1.162l0.393,0.957l-0.127,0.043c-0.297-0.564-0.516-0.631-0.768-0.544l-1.481,0.511l0.595,1.728l1.256-0.434
			c0.253-0.088,0.331-0.247,0.226-0.666l0.133-0.048L302.82,257.504z"/>
	</g>
	<g style="clip-path:url(#SVGID_2_);">
		<path d="M305.94,256.474c0.119-0.007,0.216-0.011,0.378-0.029c0.199-0.024,0.316-0.045,0.5-0.074
			c0.19,0.097,0.474,0.28,0.837,0.565l0.544,0.429c0.734,0.578,1.099,0.818,2.382,0.606l-0.015-0.133
			c-0.572,0.03-1.055-0.188-1.541-0.572l-0.652-0.513c-0.387-0.305-0.633-0.486-0.931-0.667c0.583-0.249,0.904-0.758,0.838-1.311
			c-0.089-0.752-0.768-1.239-2.132-1.077c-0.479,0.057-0.626,0.082-0.926,0.133c-0.3,0.05-0.747,0.133-0.924,0.154l0.017,0.14
			l0.162-0.019c0.428-0.052,0.569,0.066,0.623,0.523l0.369,3.105c0.059,0.493-0.081,0.63-0.516,0.682l-0.126,0.015l0.017,0.141
			l2.086-0.248l-0.017-0.141l-0.169,0.021c-0.413,0.049-0.603-0.041-0.656-0.483L305.94,256.474z M305.636,253.916
			c0.131-0.03,0.227-0.042,0.367-0.059c1.135-0.136,1.508,0.358,1.589,1.045c0.106,0.885-0.391,1.295-1.21,1.392
			c-0.169,0.021-0.279,0.041-0.458,0.04L305.636,253.916z"/>
	</g>
	<g style="clip-path:url(#SVGID_2_);">
		<path d="M311.645,256.9c0.104,0.671,0.592,1.096,1.169,1.141c0.496,0.039,1.044-0.209,1.09-0.793
			c0.083-1.065-2.267-1.576-2.166-2.873c0.048-0.613,0.646-1.028,1.401-0.97c0.622,0.049,0.733,0.244,0.992,0.264
			c0.059,0.005,0.09-0.008,0.139-0.063l0.118,0.009l0.053,0.95l-0.125-0.01c-0.166-0.548-0.613-0.927-1.124-0.966
			c-0.488-0.038-0.851,0.217-0.883,0.631c-0.082,1.051,2.271,1.518,2.165,2.88c-0.057,0.725-0.743,1.215-1.609,1.146
			c-0.407-0.031-0.909-0.271-1.013-0.279c-0.067-0.006-0.121,0.027-0.154,0.069l-0.126-0.01l-0.068-1.137L311.645,256.9z"/>
	</g>
	<g style="clip-path:url(#SVGID_2_);">
		<path d="M317.353,258.848l-1.762-0.384l0.03-0.138c0.454,0.075,0.574-0.02,0.68-0.506l0.673-3.09
			c0.085-0.392-0.029-0.531-0.43-0.641l0.03-0.138l1.763,0.384l-0.031,0.138c-0.456-0.1-0.638-0.033-0.744,0.453l-0.67,3.076
			c-0.094,0.428-0.009,0.598,0.491,0.707L317.353,258.848z"/>
	</g>
	<g style="clip-path:url(#SVGID_2_);">
		<path d="M321.095,259.38c-0.148,0.373-0.075,0.554,0.346,0.721l0.255,0.101l-0.052,0.131l-2.174-0.862l0.052-0.131l0.256,0.102
			c0.42,0.167,0.597,0.086,0.745-0.287l1.351-3.409l-1.201-0.475c-0.276-0.11-0.463,0-0.807,0.565l-0.125-0.049l0.555-1.074
			l0.13,0.051c-0.009,0.046,0.007,0.083,0.044,0.113c0.035,0.03,0.081,0.058,0.129,0.076l3.32,1.316
			c0.096,0.038,0.208,0.059,0.255-0.02l0.131,0.052l-0.333,1.162l-0.124-0.049c0.137-0.648,0.076-0.856-0.2-0.966l-1.201-0.476
			L321.095,259.38z"/>
	</g>
	<g style="clip-path:url(#SVGID_2_);">
		<path d="M328.653,259.864c0.425-0.208,0.377-0.391-0.018-0.654l0.079-0.117l1.395,0.932l-0.079,0.117
			c-0.44-0.249-0.731-0.202-1.097-0.028l-2.184,1.05l-0.619,0.927c-0.218,0.326-0.187,0.534,0.189,0.787l0.081,0.053l-0.079,0.118
			l-1.697-1.136l0.078-0.116l0.117,0.077c0.383,0.257,0.589,0.19,0.791-0.113l0.582-0.87l0.048-2.45
			c0.015-0.678-0.069-0.859-0.462-1.14l0.078-0.117l1.642,1.097l-0.079,0.118c-0.481-0.322-0.59-0.225-0.595,0.182l-0.031,2.185
			L328.653,259.864z"/>
	</g>
	<g style="clip-path:url(#SVGID_2_);">
		<path d="M335.404,269.111c1.063-0.81,1.095-2.347,0.244-3.463c-0.959-1.257-2.479-1.525-3.654-0.63
			c-1.104,0.842-1.106,2.383-0.223,3.54C332.645,269.704,334.212,270.022,335.404,269.111 M334.787,268.705
			c-0.838,0.64-2.039,0.827-2.773-0.135c-0.725-0.951-0.517-2.295,0.587-3.136c0.708-0.54,1.991-0.866,2.784,0.173
			C336.126,266.582,335.884,267.868,334.787,268.705"/>
	</g>
	<g style="clip-path:url(#SVGID_2_);">
		<path d="M336.962,273.751l-0.054-0.114c0.382-0.198,0.435-0.396,0.282-0.718l-0.592-1.239l-1.467,0.699
			c-0.375,0.18-0.477,0.327-0.238,0.829l-0.127,0.061l-0.777-1.628l0.127-0.061c0.226,0.403,0.348,0.435,0.891,0.176l2.626-1.253
			c0.429-0.205,0.607-0.331,0.39-0.803l0.127-0.061l1.432,3.002l-0.79,0.377l-0.055-0.114c0.386-0.192,0.482-0.403,0.284-0.818
			l-0.607-1.272l-1.574,0.751l0.633,1.326c0.118,0.248,0.316,0.302,0.614,0.185l0.054,0.113L336.962,273.751z"/>
	</g>
	<g style="clip-path:url(#SVGID_2_);">
		<path d="M284.993,302.807l2.672-4.927l-0.011-0.015l-3.606,2.299c-0.408,0.261-0.281,0.614-0.046,0.971l-0.145,0.106l-1.159-1.599
			l0.146-0.105c0.406,0.56,0.579,0.54,1.306,0.072l3.12-1.983c0.529-0.337,0.657-0.452,0.342-0.951l0.138-0.1l0.841,1.159
			l-2.527,4.657l5.207-0.965l0.819,1.129l-0.139,0.102c-0.303-0.354-0.417-0.495-0.667-0.29l-3.3,2.768
			c-0.673,0.56-0.628,0.62-0.221,1.182l-0.146,0.105l-1.432-1.973l0.146-0.106c0.262,0.361,0.618,0.642,1.002,0.316l3.279-2.719
			l-0.011-0.015l-5.48,1.057L284.993,302.807z"/>
	</g>
	<g style="clip-path:url(#SVGID_2_);">
		<path d="M294.274,308.372l-0.511,1.767c-0.026,0.1-0.057,0.253-0.147,0.375c-0.157,0.214-0.351,0.143-0.787-0.178l-0.198-0.147
			l-0.107,0.146l2.101,1.545l0.107-0.146c-0.382-0.28-0.486-0.475-0.341-0.992l1.522-5.416l-0.665-0.489l-0.055,0.219l-4.184,2.775
			c-0.733,0.484-0.879,0.508-1.382,0.149l-0.106,0.146l1.765,1.298l0.107-0.146l-0.123-0.09c-0.42-0.309-0.562-0.53-0.411-0.737
			c0.079-0.107,0.347-0.264,0.507-0.369l1.326-0.874L294.274,308.372z M294.391,307.94l-1.322-0.972l1.959-1.303L294.391,307.94z"/>
	</g>
	<g style="clip-path:url(#SVGID_2_);">
		<path d="M299.259,311.34c0.139,0.06,0.253,0.109,0.449,0.18c0.242,0.086,0.388,0.127,0.615,0.198
			c0.163,0.219,0.384,0.589,0.638,1.122l0.381,0.799c0.513,1.078,0.795,1.56,2.385,2.044l0.057-0.161
			c-0.673-0.289-1.101-0.814-1.441-1.527l-0.456-0.957c-0.271-0.568-0.45-0.915-0.689-1.291c0.809,0.045,1.465-0.357,1.703-1.026
			c0.323-0.912-0.178-1.855-1.832-2.441c-0.581-0.206-0.763-0.261-1.136-0.373c-0.372-0.112-0.931-0.27-1.145-0.346l-0.06,0.17
			l0.196,0.069c0.519,0.184,0.614,0.398,0.417,0.952l-1.335,3.766c-0.213,0.598-0.451,0.675-0.978,0.488l-0.153-0.055l-0.06,0.169
			l2.53,0.898l0.061-0.17l-0.206-0.073c-0.501-0.177-0.668-0.388-0.477-0.924L299.259,311.34z M300.359,308.237
			c0.167,0.039,0.284,0.08,0.453,0.141c1.377,0.488,1.524,1.266,1.229,2.097c-0.38,1.073-1.182,1.262-2.174,0.91
			c-0.206-0.073-0.343-0.112-0.548-0.216L300.359,308.237z"/>
	</g>
	<g style="clip-path:url(#SVGID_2_);">
		<path d="M310.021,311.14c0.347-0.495,0.181-0.67-0.424-0.722l0.015-0.179l2.136,0.182l-0.015,0.179
			c-0.647-0.007-0.943,0.226-1.245,0.646l-1.795,2.522l-0.121,1.418c-0.043,0.501,0.12,0.715,0.696,0.765l0.123,0.01l-0.015,0.18
			l-2.599-0.221l0.015-0.18l0.18,0.015c0.586,0.05,0.774-0.153,0.814-0.616l0.113-1.333l-1.458-2.77
			c-0.401-0.769-0.607-0.918-1.22-0.99l0.015-0.179l2.514,0.214l-0.015,0.18c-0.737-0.062-0.8,0.112-0.553,0.571l1.313,2.464
			L310.021,311.14z"/>
	</g>
	<g style="clip-path:url(#SVGID_2_);">
		<path d="M317.905,315.401l-4.181,0.706l-0.03-0.178l0.309-0.052c0.43-0.072,0.565-0.24,0.485-0.717l-0.7-4.143
			c-0.084-0.496-0.268-0.677-0.858-0.577l-0.13,0.022l-0.031-0.178l2.76-0.467l0.029,0.179l-0.345,0.059
			c-0.608,0.103-0.756,0.194-0.658,0.775l0.728,4.311c0.043,0.253,0.161,0.329,0.432,0.283l1.376-0.232
			c0.551-0.093,0.683-0.337,1.135-1.25l0.168-0.027L317.905,315.401z"/>
	</g>
	<g style="clip-path:url(#SVGID_2_);">
		<path d="M322.742,310.985l1.252,1.348c0.072,0.073,0.188,0.179,0.246,0.319c0.103,0.245-0.06,0.374-0.558,0.582l-0.228,0.095
			l0.07,0.167l2.407-1.005l-0.07-0.167c-0.437,0.183-0.658,0.172-1.027-0.218l-3.859-4.095l-0.761,0.318l0.159,0.16l0.224,5.015
			c0.039,0.879-0.017,1.016-0.583,1.263l0.07,0.165l2.022-0.845l-0.069-0.166l-0.141,0.059c-0.481,0.201-0.745,0.209-0.844-0.027
			c-0.051-0.122-0.047-0.433-0.055-0.625l-0.067-1.586L322.742,310.985z M322.433,310.662l-1.514,0.633l-0.108-2.35L322.433,310.662
			z"/>
	</g>
	<g style="clip-path:url(#SVGID_2_);">
		<path d="M333.004,307.309l-7.062-0.834l2.591,3.137c0.435,0.527,0.643,0.54,1.265,0.027l0.114,0.139l-1.696,1.4l-0.115-0.139
			l0.03-0.023c0.453-0.375,0.472-0.649,0.194-0.985l-2.973-3.598c-0.264,0.022-0.503,0.119-0.765,0.324l-0.115-0.139l1.148-0.949
			l6.411,0.745l-2.405-2.911c-0.368-0.445-0.566-0.418-1.163,0.052l-0.115-0.14l1.711-1.414l0.115,0.14
			c-0.548,0.453-0.587,0.645-0.351,0.931l3.371,4.08L333.004,307.309z"/>
	</g>
	<g style="clip-path:url(#SVGID_2_);">
		<path d="M335.3,303.324c0.463,0.299,0.453,0.575,0.176,1.005l-0.088,0.136l0.151,0.099l1.648-2.551
			c1.303-2.015,0.463-3.879-0.74-4.656c-1.315-0.851-2.985-0.608-4.344,1.496c-0.268,0.413-0.574,0.904-0.841,1.353
			c-0.267,0.449-0.504,0.85-0.679,1.155l0.152,0.098l0.103-0.16c0.304-0.47,0.519-0.523,1.037-0.188L335.3,303.324z
			 M331.617,300.006c0.054-0.101,0.169-0.331,0.38-0.658c0.721-1.114,1.365-1.501,1.969-1.63c0.773-0.166,1.535,0.088,2.125,0.471
			c0.82,0.529,1.197,1.293,1.293,1.772c0.175,0.814,0.038,1.357-0.652,2.425c-0.407,0.629-0.534,0.581-0.861,0.369L331.617,300.006z
			"/>
	</g>
	<g style="clip-path:url(#SVGID_2_);">
		<path d="M280.396,282.644v4.063c0,0.211,0.042,0.268,0.259,0.268h0.393v0.128h-1.761v-0.128h0.379
			c0.224,0,0.266-0.064,0.266-0.274v-3.496c-0.224,0.196-0.617,0.455-0.876,0.574l-0.057-0.098c0.407-0.273,0.988-0.799,1.155-1.037
			H280.396z"/>
	</g>
	<g style="clip-path:url(#SVGID_2_);">
		<path d="M284.336,283.647c0,0.398-0.195,0.721-0.586,0.966c-0.907-0.385-1.116-0.665-1.116-1.05c0-0.441,0.376-0.791,0.858-0.791
			C283.98,282.772,284.336,283.143,284.336,283.647 M284.759,283.653c0-0.559-0.563-1.009-1.265-1.009
			c-0.693,0-1.273,0.519-1.273,1.135c0,0.476,0.301,0.833,0.957,1.127c-0.687,0.273-1.021,0.658-1.021,1.149
			c0,0.638,0.6,1.149,1.359,1.149c0.781,0,1.385-0.562,1.385-1.29c0-0.54-0.316-0.911-1.054-1.239
			C284.463,284.431,284.759,284.102,284.759,283.653 M284.452,286.111c0,0.547-0.401,0.967-0.929,0.967
			c-0.534,0-0.928-0.44-0.928-1.037c0-0.455,0.239-0.806,0.717-1.064C284.128,285.348,284.452,285.643,284.452,286.111"/>
	</g>
	<g style="clip-path:url(#SVGID_2_);">
		<path d="M336.833,283.147h1.659c0.125,0,0.168-0.028,0.203-0.091h0.133l-0.077,0.541h-1.772l-0.055,1.257
			c0.216-0.118,0.468-0.174,0.755-0.174c0.784,0,1.436,0.654,1.436,1.443c0,0.85-0.708,1.495-1.646,1.495
			c-0.559,0-1.021-0.195-1.021-0.441c0-0.12,0.104-0.218,0.231-0.218c0.377,0,0.51,0.492,0.951,0.492
			c0.518,0,0.959-0.541,0.959-1.18c0-0.647-0.441-1.127-1.043-1.127c-0.259,0-0.531,0.102-0.741,0.28l-0.07-0.049L336.833,283.147z"
			/>
	</g>
	<g style="clip-path:url(#SVGID_2_);">
		<path d="M342.208,283.057c-1.465,0.413-2.349,1.441-2.349,2.738c0,1.075,0.603,1.823,1.465,1.823c0.751,0,1.368-0.643,1.368-1.415
			c0-0.717-0.554-1.292-1.241-1.292c-0.344,0-0.617,0.112-0.996,0.407c0.154-1.024,0.736-1.711,1.83-2.159L342.208,283.057z
			 M342.167,286.267c0,0.794-0.337,1.235-0.828,1.235c-0.442,0-0.953-0.386-0.953-1.566c0-0.239,0.014-0.337,0.035-0.435
			c0.427-0.345,0.743-0.422,0.926-0.422C341.816,285.079,342.167,285.515,342.167,286.267"/>
	</g>
	<g style="clip-path:url(#SVGID_2_);">
		<path d="M353.902,279.301c0.227,0.977,0.996,1.55,1.861,1.55c0.744,0,1.53-0.431,1.53-1.297c0-1.581-3.543-2.066-3.543-3.99
			c0-0.912,0.826-1.587,1.959-1.587c0.929,0,1.117,0.266,1.507,0.266c0.09,0,0.133-0.02,0.197-0.096h0.174l0.184,1.383h-0.184
			c-0.304-0.792-1.014-1.297-1.781-1.297c-0.73,0-1.239,0.419-1.239,1.035c0,1.559,3.543,1.978,3.543,4.002
			c0,1.076-0.95,1.878-2.246,1.878c-0.611,0-1.384-0.297-1.537-0.297c-0.099,0-0.177,0.055-0.219,0.128h-0.187l-0.227-1.678H353.902
			z"/>
	</g>
	<g style="clip-path:url(#SVGID_2_);">
		<path d="M368.202,275.933c-0.363-1.025-1.307-1.699-2.507-1.699c-1.837,0-2.981,1.337-2.981,3.19c0,1.999,1.431,3.469,3.102,3.469
			c0.869,0,1.937-0.3,2.685-1.636h0.208c-0.144,0.498-0.44,1.183-0.703,1.612c-0.703-0.099-1.189,0.28-2.487,0.28
			c-2.233,0-3.836-1.462-3.836-3.503c0-2.143,1.647-3.67,3.946-3.67c1.386,0,1.981,0.424,2.321,0.431
			c0.122,0,0.176-0.033,0.198-0.064h0.164l0.1,1.588L368.202,275.933z"/>
	</g>
	<g style="clip-path:url(#SVGID_2_);">
		<path d="M373.794,277.714v2.085c0,0.714,0.141,0.965,0.88,0.965h0.032v0.211h-2.752v-0.211h0.068c0.647,0,0.867-0.175,0.867-0.801
			v-4.82c0-0.572-0.186-0.737-0.792-0.783v-0.21h2.609v0.21c-0.782,0-0.912,0.211-0.912,1.055v1.911h4.313v-2.164
			c0-0.581-0.185-0.802-0.868-0.802h-0.21v-0.21h2.818v0.21c-0.66,0.022-0.834,0.221-0.834,0.902v4.548
			c0,0.779,0.218,0.954,0.878,0.954h0.11v0.211h-3.102v-0.211h0.34c0.717,0,0.868-0.251,0.868-0.821v-2.229H373.794z"/>
	</g>
	<g style="clip-path:url(#SVGID_2_);">
		<path d="M390.611,277.369c0-1.986-1.78-3.393-3.859-3.393c-2.344,0-4.026,1.537-4.026,3.735c0,2.065,1.813,3.438,3.969,3.438
			C388.831,281.149,390.611,279.6,390.611,277.369 M389.581,277.734c0,1.565-0.861,3.158-2.655,3.158
			c-1.771,0-3.166-1.457-3.166-3.523c0-1.324,0.769-3.136,2.706-3.136C388.282,274.233,389.581,275.681,389.581,277.734"/>
	</g>
	<g style="clip-path:url(#SVGID_2_);">
		<path d="M402.164,277.369c0-1.986-1.778-3.393-3.858-3.393c-2.344,0-4.025,1.537-4.025,3.735c0,2.065,1.813,3.438,3.97,3.438
			C400.386,281.149,402.164,279.6,402.164,277.369 M401.133,277.734c0,1.565-0.86,3.158-2.651,3.158
			c-1.772,0-3.169-1.457-3.169-3.523c0-1.324,0.77-3.136,2.707-3.136C399.836,274.233,401.133,275.681,401.133,277.734"/>
	</g>
	<g style="clip-path:url(#SVGID_2_);">
		<path d="M410.393,280.975h-4.904v-0.211h0.362c0.506,0,0.692-0.165,0.692-0.723v-4.857c0-0.581-0.176-0.824-0.868-0.824h-0.156
			v-0.211h3.237v0.211h-0.409c-0.716,0-0.902,0.076-0.902,0.76v5.064c0,0.298,0.12,0.406,0.441,0.406h1.617
			c0.648,0,0.848-0.251,1.539-1.22h0.199L410.393,280.975z"/>
	</g>
	<g style="clip-path:url(#SVGID_2_);">
		<path d="M426.477,277.369c0-1.986-1.783-3.393-3.861-3.393c-2.344,0-4.024,1.537-4.024,3.735c0,2.065,1.814,3.438,3.969,3.438
			C424.693,281.149,426.477,279.6,426.477,277.369 M425.443,277.734c0,1.565-0.859,3.158-2.652,3.158
			c-1.771,0-3.168-1.457-3.168-3.523c0-1.324,0.77-3.136,2.705-3.136C424.145,274.233,425.443,275.681,425.443,277.734"/>
	</g>
	<g style="clip-path:url(#SVGID_2_);">
		<path d="M434.096,278.353h-0.189c-0.024-0.638-0.255-0.833-0.782-0.833h-2.035v2.399c0,0.614,0.131,0.845,0.957,0.845v0.211
			h-2.662v-0.211c0.684-0.044,0.803-0.188,0.803-1.075v-4.295c0-0.705-0.055-1.024-0.826-1.035v-0.213h4.928v1.293h-0.19
			c-0.012-0.639-0.233-0.906-0.918-0.906h-2.092v2.601h2.178c0.408,0,0.605-0.234,0.64-0.709h0.189V278.353z"/>
	</g>
	<g style="clip-path:url(#SVGID_2_);">
		<path d="M444.325,277.215h1.19c1.295,0,1.945,0.866,1.945,1.713c0,0.853-0.422,1.75-1.879,1.75c-0.927,0-1.257-0.295-1.257-1.128
			V277.215z M443.422,279.867c0,0.688-0.177,0.897-1.076,0.897h-0.252v0.212h4.02c1.775,0,2.379-1.219,2.379-2.082
			c0-0.855-0.603-1.522-1.638-1.832v-0.022c0.733-0.132,1.251-0.715,1.251-1.343c0-0.53-0.221-0.904-0.672-1.224
			c-0.396-0.287-1.245-0.431-2.215-0.431c-0.209,0-1.045,0.01-1.646,0.033c-0.317,0.02-1.075,0.064-1.381,0.073v0.194h0.385
			c0.769,0,0.845,0.328,0.845,0.959V279.867z M444.325,274.286c0.274-0.012,0.728-0.033,0.972-0.033
			c1.357,0,1.821,0.704,1.821,1.476c0,0.857-0.53,1.277-1.59,1.277h-1.203V274.286z"/>
	</g>
	<g style="clip-path:url(#SVGID_2_);">
		<path d="M459.941,274.148v0.211c-0.736,0.011-1.002,0.306-1.002,1.007v2.96c0,1.357-0.875,2.821-3.267,2.821
			c-2.107,0-3.179-1.2-3.179-2.766v-3.2c0-0.701-0.194-0.812-0.944-0.822v-0.211h2.819v0.211h-0.098c-0.604,0-0.871,0.166-0.871,0.8
			v3.048c0,1.477,0.871,2.364,2.512,2.364c1.246,0,2.514-0.515,2.514-2.377v-2.553c0-1.052-0.163-1.236-1.078-1.282v-0.211H459.941z
			"/>
	</g>
	<g style="clip-path:url(#SVGID_2_);">
		<path d="M463.262,279.301c0.228,0.977,0.996,1.55,1.86,1.55c0.741,0,1.526-0.431,1.526-1.297c0-1.581-3.541-2.066-3.541-3.99
			c0-0.912,0.829-1.587,1.959-1.587c0.932,0,1.121,0.266,1.508,0.266c0.089,0,0.133-0.02,0.195-0.096h0.179l0.181,1.383h-0.181
			c-0.306-0.792-1.018-1.297-1.782-1.297c-0.732,0-1.244,0.419-1.244,1.035c0,1.559,3.547,1.978,3.547,4.002
			c0,1.076-0.949,1.878-2.25,1.878c-0.607,0-1.381-0.297-1.537-0.297c-0.096,0-0.174,0.055-0.215,0.128h-0.184l-0.231-1.678H463.262
			z"/>
	</g>
	<g style="clip-path:url(#SVGID_2_);">
		<path d="M473.632,280.975h-2.664v-0.211c0.683-0.03,0.825-0.209,0.825-0.941v-4.673c0-0.592-0.209-0.756-0.825-0.79v-0.211h2.664
			v0.211c-0.693,0-0.938,0.155-0.938,0.891v4.647c0,0.646,0.176,0.866,0.938,0.866V280.975z"/>
	</g>
	<g style="clip-path:url(#SVGID_2_);">
		<path d="M484.094,281.066l-5.705-5.961v4.706c0,0.787,0.177,0.952,1.111,0.952v0.211h-2.551v-0.211h0.043
			c0.682,0,0.902-0.229,0.902-0.736v-5.393c-0.252-0.178-0.539-0.264-0.928-0.275v-0.211h1.728l5.193,5.4v-4.374
			c0-0.669-0.202-0.792-1.081-0.814v-0.211h2.575v0.211c-0.826,0-1.002,0.146-1.002,0.572v6.135H484.094z"/>
	</g>
	<g style="clip-path:url(#SVGID_2_);">
		<path d="M493.178,278.499h-0.211c-0.088-0.783-0.297-0.872-0.75-0.872h-1.873v2.356c0,0.508,0.191,0.606,0.596,0.606h1.709
			c0.771,0,1.005-0.297,1.279-1.256h0.195l-0.173,1.641h-5.847v-0.211h0.305c0.881,0,1.037-0.239,1.037-0.901v-4.626
			c0-0.613-0.143-0.877-0.881-0.877h-0.244v-0.212h5.285l0.088,1.52h-0.197c-0.141-0.936-0.416-1.133-0.818-1.133h-2.334v2.707
			h1.983c0.4,0,0.587-0.189,0.64-0.826h0.211V278.499z"/>
	</g>
	<g style="clip-path:url(#SVGID_2_);">
		<path d="M497.791,279.301c0.232,0.977,0.998,1.55,1.863,1.55c0.744,0,1.53-0.431,1.53-1.297c0-1.581-3.543-2.066-3.543-3.99
			c0-0.912,0.825-1.587,1.955-1.587c0.935,0,1.123,0.266,1.51,0.266c0.089,0,0.13-0.02,0.198-0.096h0.174l0.186,1.383h-0.186
			c-0.304-0.792-1.014-1.297-1.781-1.297c-0.732,0-1.24,0.419-1.24,1.035c0,1.559,3.545,1.978,3.545,4.002
			c0,1.076-0.95,1.878-2.249,1.878c-0.609,0-1.384-0.297-1.536-0.297c-0.096,0-0.174,0.055-0.217,0.128h-0.187l-0.228-1.678H497.791
			z"/>
	</g>
	<g style="clip-path:url(#SVGID_2_);">
		<path d="M505.682,279.301c0.23,0.977,0.998,1.55,1.866,1.55c0.741,0,1.53-0.431,1.53-1.297c0-1.581-3.543-2.066-3.543-3.99
			c0-0.912,0.826-1.587,1.953-1.587c0.933,0,1.119,0.266,1.513,0.266c0.086,0,0.128-0.02,0.194-0.096h0.173l0.186,1.383h-0.186
			c-0.304-0.792-1.013-1.297-1.779-1.297c-0.732,0-1.239,0.419-1.239,1.035c0,1.559,3.543,1.978,3.543,4.002
			c0,1.076-0.949,1.878-2.25,1.878c-0.606,0-1.379-0.297-1.533-0.297c-0.098,0-0.176,0.055-0.219,0.128h-0.186l-0.23-1.678H505.682z
			"/>
	</g>
	<g style="clip-path:url(#SVGID_2_);">
		<path d="M355.971,262.504c0.37,0.026,0.671,0.051,1.176,0.051c0.62,0,0.991-0.024,1.567-0.051
			c0.553,0.391,1.359,1.091,2.371,2.155l1.525,1.597c2.056,2.146,3.096,3.069,7.131,2.874v-0.436
			c-1.777-0.123-3.183-1.015-4.544-2.441l-1.822-1.908c-1.089-1.137-1.783-1.814-2.635-2.526c1.892-0.583,3.073-2.111,3.073-3.937
			c0-2.48-1.92-4.333-6.181-4.333c-1.498,0-1.961,0.026-2.911,0.076c-0.948,0.049-2.355,0.148-2.908,0.148v0.467h0.506
			c1.339,0,1.731,0.438,1.731,1.944V266.4c0,1.623-0.484,2.008-1.844,2.008h-0.393v0.469h6.533v-0.469h-0.531
			c-1.289,0-1.844-0.363-1.844-1.815V262.504z M355.971,254.067c0.416-0.049,0.715-0.049,1.154-0.049
			c3.546,0,4.513,1.75,4.513,4.011c0,2.916-1.682,4.056-4.237,4.056c-0.53,0-0.875,0.026-1.43-0.047V254.067z"/>
	</g>
	<g style="clip-path:url(#SVGID_2_);">
		<path d="M376.665,261.381c0-2.684-2.283-4.587-4.949-4.587c-3.004,0-5.16,2.083-5.16,5.048c0,2.786,2.325,4.645,5.089,4.645
			C374.382,266.486,376.665,264.389,376.665,261.381 M375.341,261.87c0,2.118-1.102,4.262-3.399,4.262
			c-2.271,0-4.063-1.966-4.063-4.751c0-1.79,0.987-4.234,3.471-4.234C373.677,257.147,375.341,259.1,375.341,261.87"/>
	</g>
	<g style="clip-path:url(#SVGID_2_);">
		<path d="M381.149,262.128h1.988c2.157,0,3.244,1.524,3.244,3.008c0,1.506-0.702,3.089-3.131,3.089
			c-1.55,0-2.101-0.522-2.101-1.988V262.128z M379.627,266.79c0,1.213-0.294,1.579-1.8,1.579h-0.421v0.37h6.725
			c2.964,0,3.975-2.142,3.975-3.665c0-1.501-1.011-2.676-2.739-3.218v-0.038c1.221-0.231,2.078-1.259,2.078-2.361
			c0-0.927-0.365-1.586-1.113-2.143c-0.656-0.506-2.072-0.756-3.692-0.756c-0.35,0-1.748,0.019-2.757,0.059
			c-0.531,0.017-1.798,0.092-2.312,0.113v0.342h0.643c1.282,0,1.413,0.586,1.413,1.695V266.79z M381.149,256.983
			c0.46-0.021,1.215-0.059,1.619-0.059c2.264,0,3.039,1.239,3.039,2.594c0,1.507-0.885,2.242-2.652,2.242h-2.006V256.983z"/>
	</g>
	<g style="clip-path:url(#SVGID_2_);">
		<path d="M396.904,264.383h-0.344c-0.148-1.378-0.497-1.533-1.247-1.533h-3.093v4.135c0,0.892,0.31,1.067,0.988,1.067h2.821
			c1.279,0,1.664-0.524,2.123-2.2h0.328l-0.291,2.888h-9.732v-0.37h0.514c1.468,0,1.725-0.426,1.725-1.588v-8.146
			c0-1.075-0.238-1.538-1.468-1.538h-0.404v-0.371h8.796l0.146,2.676h-0.328c-0.238-1.638-0.695-1.986-1.355-1.986h-3.862v4.742
			h3.275c0.661,0,0.972-0.327,1.065-1.444h0.344V264.383z"/>
	</g>
	<g style="clip-path:url(#SVGID_2_);">
		<path d="M402.969,263.668c0.293,0.022,0.532,0.043,0.936,0.043c0.496,0,0.789-0.021,1.246-0.043c0.44,0.31,1.084,0.87,1.891,1.717
			l1.211,1.272c1.634,1.708,2.459,2.439,5.669,2.286v-0.346c-1.412-0.096-2.53-0.807-3.614-1.943l-1.451-1.521
			c-0.859-0.904-1.41-1.442-2.09-2.004c1.503-0.465,2.439-1.681,2.439-3.13c0-1.971-1.521-3.441-4.915-3.441
			c-1.193,0-1.558,0.02-2.313,0.06c-0.75,0.037-1.869,0.112-2.309,0.112v0.368h0.4c1.065,0,1.377,0.35,1.377,1.548v8.128
			c0,1.291-0.385,1.597-1.467,1.597h-0.31v0.37h5.191v-0.37h-0.424c-1.027,0-1.467-0.29-1.467-1.442V263.668z M402.969,256.963
			c0.33-0.038,0.568-0.038,0.917-0.038c2.825,0,3.595,1.391,3.595,3.189c0,2.318-1.338,3.226-3.373,3.226
			c-0.424,0-0.699,0.021-1.139-0.037V256.963z"/>
	</g>
	<g style="clip-path:url(#SVGID_2_);">
		<path d="M417.627,266.959c0,1.044,0.328,1.41,1.45,1.41h0.677v0.37h-5.779v-0.37h0.68c1.117,0,1.449-0.366,1.449-1.41v-9.543
			h-3.194c-0.733,0-1.063,0.445-1.339,2.144h-0.331l0.296-3.12h0.348c0.019,0.114,0.094,0.192,0.201,0.23
			c0.111,0.036,0.239,0.057,0.367,0.057h8.824c0.259,0,0.535-0.057,0.57-0.287h0.35l0.293,3.12h-0.33
			c-0.273-1.698-0.605-2.144-1.34-2.144h-3.191V266.959z"/>
	</g>
	<g style="clip-path:url(#SVGID_2_);">
		<path d="M431.346,261.62v4.604c0,1.577,0.299,2.134,1.84,2.134h0.067v0.469h-5.792v-0.469h0.141c1.36,0,1.822-0.388,1.822-1.768
			V255.91c0-1.26-0.395-1.625-1.662-1.721v-0.469h5.491v0.469c-1.631,0-1.907,0.461-1.907,2.329v4.221h9.016v-4.778
			c0-1.287-0.391-1.771-1.818-1.771h-0.436v-0.469h5.929v0.469c-1.382,0.047-1.75,0.484-1.75,1.988v10.073
			c0,1.719,0.46,2.106,1.841,2.106h0.232v0.469h-6.526v-0.469h0.71c1.499,0,1.818-0.557,1.818-1.817v-4.92H431.346z"/>
	</g>
	<g style="clip-path:url(#SVGID_2_);">
		<path d="M448.934,268.066c0,0.578-0.424,0.904-0.936,0.904c-0.531,0-0.935-0.365-0.935-0.904c0-0.541,0.403-0.905,0.935-0.905
			C448.51,267.161,448.934,267.508,448.934,268.066"/>
	</g>
	<g style="clip-path:url(#SVGID_2_);">
		<path d="M453.353,265.158c0.485,2.158,2.1,3.421,3.897,3.421c1.543,0,3.176-0.947,3.176-2.865c0-3.495-7.396-4.561-7.396-8.808
			c0-2.014,1.756-3.507,4.103-3.507c1.936,0,2.326,0.597,3.132,0.597c0.185,0,0.276-0.051,0.415-0.246h0.367l0.397,3.084h-0.397
			c-0.645-1.748-2.117-2.864-3.707-2.864c-1.517,0-2.579,0.923-2.579,2.282c0,3.446,7.398,4.366,7.398,8.831
			c0,2.377-2.01,4.151-4.699,4.151c-1.27,0-2.88-0.655-3.206-0.655c-0.207,0-0.373,0.121-0.462,0.282h-0.393l-0.485-3.703H453.353z"
			/>
	</g>
	<g style="clip-path:url(#SVGID_2_);">
		<path d="M470.561,268.739l-4.681-10.313h-0.037l-0.494,8.705c-0.055,0.987,0.641,1.2,1.467,1.238v0.37h-3.81v-0.37
			c1.334,0,1.5-0.308,1.593-2.068l0.44-7.526c0.073-1.277,0.037-1.624-1.099-1.703v-0.345h2.767l4.424,9.747l4.401-9.747h2.697
			v0.345c-0.899,0.079-1.245,0.098-1.211,0.755l0.587,8.764c0.109,1.779,0.256,1.779,1.595,1.779v0.37h-4.713v-0.37
			c0.863,0,1.705-0.251,1.632-1.276l-0.533-8.667h-0.035l-4.567,10.313H470.561z"/>
	</g>
	<g style="clip-path:url(#SVGID_2_);">
		<path d="M484.835,268.739h-4.459v-0.37c1.136-0.057,1.378-0.366,1.378-1.658v-8.223c0-1.042-0.35-1.331-1.378-1.391v-0.368h4.459
			v0.368c-1.155,0-1.56,0.271-1.56,1.563v8.184c0,1.14,0.295,1.524,1.56,1.524V268.739z"/>
	</g>
	<g style="clip-path:url(#SVGID_2_);">
		<path d="M492.171,266.959c0,1.044,0.327,1.41,1.45,1.41h0.675v0.37h-5.777v-0.37h0.677c1.123,0,1.451-0.366,1.451-1.41v-9.543
			h-3.193c-0.732,0-1.062,0.445-1.338,2.144h-0.33l0.293-3.12h0.35c0.018,0.114,0.09,0.192,0.204,0.23
			c0.107,0.036,0.235,0.057,0.366,0.057h8.824c0.258,0,0.533-0.057,0.568-0.287h0.348l0.293,3.12h-0.33
			c-0.272-1.698-0.607-2.144-1.34-2.144h-3.19V266.959z"/>
	</g>
	<g style="clip-path:url(#SVGID_2_);">
		<path d="M500.802,262.992v3.676c0,1.258,0.24,1.702,1.472,1.702h0.057v0.368h-4.609v-0.368h0.109c1.082,0,1.449-0.31,1.449-1.413
			v-8.49c0-1.003-0.315-1.291-1.32-1.369v-0.368h4.371v0.368c-1.307,0-1.528,0.366-1.528,1.852v3.355h7.216v-3.8
			c0-1.022-0.314-1.406-1.453-1.406h-0.351v-0.368h4.72v0.368c-1.1,0.039-1.394,0.385-1.394,1.582v8.006
			c0,1.375,0.368,1.685,1.468,1.685h0.184v0.368h-5.197v-0.368h0.57c1.197,0,1.453-0.444,1.453-1.449v-3.929H500.802z"/>
	</g>
</g>
<g>
	<path style="fill:#E31837;" d="M358.872,296.517c0,0.76-0.102,1.41-0.306,1.95c-0.204,0.54-0.486,0.981-0.846,1.325
		c-0.36,0.345-0.784,0.595-1.272,0.75c-0.488,0.156-1.012,0.234-1.572,0.234h-2.052v-8.4h2.22c0.552,0,1.062,0.08,1.53,0.24
		s0.872,0.41,1.212,0.75s0.606,0.771,0.798,1.29C358.776,295.177,358.872,295.796,358.872,296.517z M357.936,296.553
		c0-1.08-0.252-1.904-0.756-2.473c-0.504-0.567-1.24-0.852-2.208-0.852h-1.212v6.696h1.236c0.456,0,0.864-0.062,1.224-0.187
		s0.668-0.322,0.924-0.594c0.256-0.272,0.452-0.622,0.588-1.05C357.868,297.666,357.936,297.152,357.936,296.553z"/>
	<path style="fill:#E31837;" d="M360.78,300.776v-8.4h0.936v8.4H360.78z"/>
	<path style="fill:#E31837;" d="M369.166,300.776l-3.681-5.748c-0.048-0.072-0.1-0.158-0.157-0.258c-0.056-0.1-0.112-0.2-0.168-0.3
		c-0.057-0.101-0.11-0.194-0.163-0.282s-0.09-0.16-0.114-0.216v0.576v6.228h-0.9v-8.4h0.912l3.636,5.856
		c0.048,0.072,0.1,0.158,0.156,0.258c0.056,0.101,0.112,0.2,0.168,0.3c0.056,0.101,0.11,0.194,0.162,0.282
		c0.052,0.088,0.09,0.16,0.114,0.216v-0.576v-6.336h0.912v8.4H369.166z"/>
	<path style="fill:#E31837;" d="M378.15,298.952c-0.156,0.435-0.374,0.798-0.654,1.089c-0.28,0.291-0.61,0.508-0.99,0.652
		c-0.38,0.144-0.79,0.215-1.23,0.215c-0.512,0-0.978-0.11-1.398-0.33c-0.42-0.22-0.778-0.521-1.074-0.905
		c-0.296-0.385-0.524-0.841-0.684-1.368c-0.16-0.528-0.24-1.101-0.24-1.717c0-0.623,0.084-1.201,0.252-1.733s0.402-0.99,0.702-1.374
		c0.3-0.384,0.662-0.686,1.086-0.906c0.424-0.22,0.888-0.33,1.392-0.33c1.136,0,2.028,0.448,2.676,1.344l-0.744,0.564
		c-0.272-0.368-0.552-0.636-0.84-0.804s-0.66-0.252-1.116-0.252c-0.36,0-0.692,0.086-0.996,0.258
		c-0.304,0.172-0.564,0.41-0.78,0.714s-0.386,0.668-0.51,1.092c-0.125,0.425-0.186,0.893-0.186,1.404s0.064,0.982,0.192,1.41
		s0.302,0.796,0.522,1.104c0.22,0.309,0.482,0.548,0.786,0.721c0.304,0.172,0.632,0.258,0.984,0.258
		c0.704,0,1.242-0.212,1.614-0.637c0.372-0.424,0.558-1.048,0.558-1.871v-0.072h-1.512v-0.853h2.424v0.814
		C378.384,298.013,378.306,298.518,378.15,298.952z"/>
	<path style="fill:#E31837;" d="M386.496,300.776v-5.688v-0.899c-0.024,0.08-0.054,0.178-0.09,0.294
		c-0.036,0.116-0.078,0.236-0.126,0.36s-0.096,0.25-0.144,0.378s-0.096,0.248-0.144,0.359l-2.239,5.412l-2.203-5.412
		c-0.048-0.104-0.096-0.222-0.144-0.354s-0.094-0.26-0.138-0.384s-0.084-0.244-0.12-0.36c-0.036-0.116-0.066-0.214-0.09-0.294v0.899
		v5.688h-0.912v-8.4h1.046l1.983,5.028c0.048,0.128,0.102,0.269,0.162,0.42c0.06,0.152,0.118,0.305,0.174,0.456
		c0.056,0.152,0.108,0.294,0.157,0.426c0.048,0.132,0.084,0.242,0.108,0.33c0.024-0.088,0.06-0.199,0.108-0.336
		c0.048-0.136,0.1-0.279,0.156-0.432c0.056-0.152,0.114-0.304,0.174-0.456s0.114-0.288,0.162-0.408l2.007-5.028h1.021v8.4H386.496z"
		/>
	<path style="fill:#E31837;" d="M395.016,300.776l-0.72-2.136h-3.468l-0.732,2.136h-0.96l2.916-8.4h1.032l2.916,8.4H395.016z
		 M393.083,295.028c-0.048-0.136-0.098-0.284-0.15-0.444c-0.052-0.159-0.102-0.313-0.15-0.462c-0.048-0.147-0.09-0.288-0.126-0.42
		c-0.036-0.132-0.066-0.241-0.09-0.33c-0.024,0.089-0.054,0.196-0.09,0.324s-0.078,0.269-0.126,0.42
		c-0.048,0.152-0.1,0.311-0.156,0.475c-0.056,0.164-0.108,0.317-0.156,0.462l-0.924,2.735h2.892L393.083,295.028z"/>
	<path style="fill:#E31837;" d="M402.922,300.776l-3.681-5.748c-0.048-0.072-0.101-0.158-0.157-0.258
		c-0.056-0.1-0.111-0.2-0.168-0.3c-0.057-0.101-0.109-0.194-0.162-0.282s-0.09-0.16-0.114-0.216v0.576v6.228h-0.899v-8.4h0.912
		l3.635,5.856c0.049,0.072,0.101,0.158,0.156,0.258c0.057,0.101,0.112,0.2,0.168,0.3c0.057,0.101,0.11,0.194,0.162,0.282
		c0.053,0.088,0.09,0.16,0.114,0.216v-0.576v-6.336h0.912v8.4H402.922z"/>
	<path style="fill:#E31837;" d="M413.76,300.524c-0.457,0.256-0.992,0.384-1.608,0.384c-0.513,0-0.978-0.11-1.397-0.33
		c-0.421-0.22-0.779-0.521-1.074-0.905c-0.297-0.385-0.524-0.841-0.685-1.368c-0.16-0.528-0.239-1.101-0.239-1.717
		c0-0.623,0.084-1.201,0.252-1.733s0.401-0.99,0.701-1.374c0.301-0.384,0.662-0.686,1.086-0.906c0.424-0.22,0.889-0.33,1.393-0.33
		c1.136,0,2.027,0.448,2.676,1.344l-0.744,0.564c-0.271-0.368-0.552-0.636-0.84-0.804s-0.66-0.252-1.116-0.252
		c-0.36,0-0.692,0.086-0.996,0.258s-0.563,0.41-0.78,0.714c-0.215,0.304-0.386,0.668-0.51,1.092
		c-0.124,0.425-0.186,0.893-0.186,1.404s0.062,0.982,0.186,1.41s0.299,0.796,0.522,1.104c0.224,0.309,0.487,0.548,0.792,0.721
		c0.304,0.172,0.632,0.258,0.984,0.258c0.455,0,0.848-0.097,1.176-0.288c0.328-0.192,0.627-0.464,0.9-0.816l0.647,0.564
		C414.596,299.933,414.215,300.269,413.76,300.524z"/>
	<path style="fill:#E31837;" d="M416.651,300.776v-8.4h5.076v0.853h-4.14v2.64h2.399v0.853h-2.399v3.204h4.319v0.852H416.651z"/>
	<path style="fill:#E31837;" d="M428.877,300.776l-3.68-5.748c-0.049-0.072-0.101-0.158-0.157-0.258c-0.056-0.1-0.112-0.2-0.168-0.3
		c-0.057-0.101-0.11-0.194-0.163-0.282c-0.052-0.088-0.09-0.16-0.113-0.216v0.576v6.228h-0.9v-8.4h0.912l3.636,5.856
		c0.048,0.072,0.101,0.158,0.156,0.258c0.056,0.101,0.112,0.2,0.168,0.3c0.056,0.101,0.11,0.194,0.162,0.282s0.09,0.16,0.114,0.216
		v-0.576v-6.336h0.912v8.4H428.877z"/>
	<path style="fill:#E31837;" d="M434.844,293.229v7.548h-0.937v-7.548h-2.472v-0.853h5.879v0.853H434.844z"/>
	<path style="fill:#E31837;" d="M439.007,300.776v-8.4h5.076v0.853h-4.14v2.64h2.399v0.853h-2.399v3.204h4.319v0.852H439.007z"/>
	<path style="fill:#E31837;" d="M451.99,294.752c0,0.656-0.18,1.185-0.539,1.584c-0.36,0.4-0.84,0.665-1.44,0.792l1.849,3.648h-1.08
		l-1.801-3.576h-1.992v3.576h-0.936v-8.4h3.324c0.367,0,0.712,0.049,1.031,0.145c0.32,0.096,0.596,0.242,0.828,0.438
		c0.232,0.196,0.416,0.442,0.553,0.738C451.923,293.992,451.99,294.345,451.99,294.752z M451.055,294.782
		c0-0.518-0.146-0.906-0.438-1.165c-0.293-0.259-0.719-0.389-1.278-0.389h-2.353v3.12h2.232c0.624,0,1.086-0.13,1.387-0.389
		C450.904,295.701,451.055,295.309,451.055,294.782z"/>
	<path style="fill:#E31837;" d="M457.906,293.229v2.784h2.305v0.852h-2.305v3.912h-0.936v-8.4h4.932v0.853H457.906z"/>
	<path style="fill:#E31837;" d="M469.822,296.564c0,0.632-0.084,1.214-0.252,1.746s-0.406,0.99-0.714,1.374s-0.679,0.684-1.11,0.899
		c-0.432,0.217-0.908,0.324-1.428,0.324s-0.994-0.106-1.422-0.317c-0.428-0.212-0.794-0.511-1.098-0.895
		c-0.305-0.384-0.539-0.84-0.702-1.368c-0.164-0.527-0.246-1.107-0.246-1.74c0-0.632,0.084-1.214,0.252-1.745
		c0.168-0.532,0.403-0.99,0.708-1.374c0.304-0.385,0.672-0.685,1.104-0.9c0.433-0.216,0.908-0.324,1.428-0.324
		c0.521,0,0.994,0.106,1.423,0.318c0.428,0.212,0.794,0.51,1.098,0.894c0.304,0.385,0.54,0.84,0.708,1.368
		S469.822,295.933,469.822,296.564z M468.887,296.588c0-0.527-0.066-1.006-0.198-1.434s-0.313-0.796-0.546-1.104
		c-0.232-0.309-0.504-0.544-0.816-0.708c-0.312-0.164-0.652-0.246-1.02-0.246c-0.36,0-0.694,0.082-1.002,0.246
		c-0.309,0.164-0.574,0.396-0.799,0.695c-0.224,0.3-0.399,0.664-0.527,1.092c-0.128,0.429-0.191,0.906-0.191,1.435
		s0.065,1.006,0.197,1.434c0.132,0.429,0.312,0.797,0.54,1.104s0.498,0.544,0.81,0.708c0.312,0.164,0.652,0.246,1.021,0.246
		c0.36,0,0.696-0.082,1.008-0.246s0.58-0.396,0.804-0.696c0.225-0.3,0.4-0.664,0.528-1.092S468.887,297.116,468.887,296.588z"/>
	<path style="fill:#E31837;" d="M477.61,294.752c0,0.656-0.181,1.185-0.54,1.584c-0.359,0.4-0.84,0.665-1.439,0.792l1.848,3.648
		h-1.08l-1.8-3.576h-1.992v3.576h-0.937v-8.4h3.324c0.368,0,0.713,0.049,1.032,0.145s0.596,0.242,0.828,0.438
		c0.231,0.196,0.416,0.442,0.552,0.738C477.543,293.992,477.61,294.345,477.61,294.752z M476.674,294.782
		c0-0.518-0.146-0.906-0.438-1.165s-0.719-0.389-1.277-0.389h-2.353v3.12h2.231c0.625,0,1.086-0.13,1.387-0.389
		C476.524,295.701,476.674,295.309,476.674,294.782z"/>
</g>
<g>
	<path style="fill:#E31837;" d="M352.824,315.176v-8.4h5.076v0.853h-4.14v2.64h2.4v0.853h-2.4v3.204h4.32v0.852H352.824z"/>
	<path style="fill:#E31837;" d="M365.05,315.176l-3.681-5.748c-0.048-0.072-0.1-0.158-0.157-0.258c-0.056-0.1-0.112-0.2-0.168-0.3
		c-0.057-0.101-0.11-0.194-0.163-0.282s-0.09-0.16-0.114-0.216v0.576v6.228h-0.9v-8.4h0.912l3.636,5.856
		c0.048,0.072,0.1,0.158,0.156,0.258c0.056,0.101,0.112,0.2,0.168,0.3c0.056,0.101,0.11,0.194,0.162,0.282
		c0.052,0.088,0.09,0.16,0.114,0.216v-0.576v-6.336h0.912v8.4H365.05z"/>
	<path style="fill:#E31837;" d="M371.016,307.628v7.548h-0.936v-7.548h-2.472v-0.853h5.88v0.853H371.016z"/>
	<path style="fill:#E31837;" d="M381.12,309.151c0,0.656-0.18,1.185-0.54,1.584c-0.36,0.4-0.84,0.665-1.44,0.792l1.848,3.648h-1.08
		l-1.8-3.576h-1.992v3.576h-0.936v-8.4h3.324c0.368,0,0.712,0.049,1.032,0.145s0.596,0.242,0.828,0.438
		c0.232,0.196,0.416,0.442,0.552,0.738C381.052,308.392,381.12,308.744,381.12,309.151z M380.184,309.182
		c0-0.518-0.146-0.906-0.438-1.165s-0.718-0.389-1.278-0.389h-2.352v3.12h2.232c0.624,0,1.086-0.13,1.386-0.389
		C380.034,310.101,380.184,309.708,380.184,309.182z"/>
	<path style="fill:#E31837;" d="M382.98,315.176v-8.4h5.076v0.853h-4.14v2.64h2.4v0.853h-2.4v3.204h4.32v0.852H382.98z"/>
	<path style="fill:#E31837;" d="M395.844,309.284c0,0.416-0.07,0.785-0.21,1.109s-0.334,0.597-0.582,0.816s-0.548,0.386-0.9,0.498
		s-0.736,0.168-1.152,0.168h-2.04v3.3h-0.936v-8.4h3.144c0.384,0,0.738,0.051,1.062,0.15c0.324,0.101,0.606,0.254,0.846,0.462
		c0.24,0.208,0.428,0.47,0.564,0.786C395.776,308.49,395.844,308.859,395.844,309.284z M394.908,309.319
		c0-0.544-0.152-0.962-0.456-1.254c-0.304-0.292-0.744-0.438-1.32-0.438h-2.172v3.396h2.052
		C394.276,311.023,394.908,310.456,394.908,309.319z"/>
	<path style="fill:#E31837;" d="M403.38,309.151c0,0.656-0.181,1.185-0.54,1.584c-0.359,0.4-0.84,0.665-1.439,0.792l1.848,3.648
		h-1.08l-1.8-3.576h-1.992v3.576h-0.937v-8.4h3.324c0.368,0,0.713,0.049,1.032,0.145s0.596,0.242,0.828,0.438
		c0.231,0.196,0.416,0.442,0.552,0.738C403.312,308.392,403.38,308.744,403.38,309.151z M402.443,309.182
		c0-0.518-0.146-0.906-0.438-1.165s-0.719-0.389-1.277-0.389h-2.353v3.12h2.231c0.625,0,1.086-0.13,1.387-0.389
		C402.294,310.101,402.443,309.708,402.443,309.182z"/>
	<path style="fill:#E31837;" d="M405.24,315.176v-8.4h5.076v0.853h-4.141v2.64h2.4v0.853h-2.4v3.204h4.32v0.852H405.24z"/>
	<path style="fill:#E31837;" d="M417.466,315.176l-3.681-5.748c-0.049-0.072-0.1-0.158-0.156-0.258s-0.113-0.2-0.168-0.3
		c-0.057-0.101-0.111-0.194-0.163-0.282s-0.091-0.16-0.114-0.216v0.576v6.228h-0.9v-8.4h0.912l3.637,5.856
		c0.048,0.072,0.1,0.158,0.156,0.258c0.055,0.101,0.111,0.2,0.168,0.3c0.055,0.101,0.109,0.194,0.162,0.282
		c0.051,0.088,0.09,0.16,0.113,0.216v-0.576v-6.336h0.912v8.4H417.466z"/>
	<path style="fill:#E31837;" d="M420.539,315.176v-8.4h5.076v0.853h-4.14v2.64h2.399v0.853h-2.399v3.204h4.319v0.852H420.539z"/>
	<path style="fill:#E31837;" d="M432.828,314.401c-0.496,0.604-1.253,0.906-2.269,0.906c-1.009,0-1.767-0.298-2.274-0.894
		s-0.762-1.479-0.762-2.646v-4.992h0.936v4.969c0,1.808,0.717,2.712,2.148,2.712c0.729,0,1.248-0.22,1.561-0.66
		c0.312-0.44,0.467-1.116,0.467-2.028v-4.992h0.937v4.969C433.571,312.912,433.323,313.798,432.828,314.401z"/>
	<path style="fill:#E31837;" d="M441.659,309.151c0,0.656-0.181,1.185-0.54,1.584c-0.359,0.4-0.84,0.665-1.439,0.792l1.848,3.648
		h-1.08l-1.8-3.576h-1.992v3.576h-0.937v-8.4h3.324c0.368,0,0.713,0.049,1.032,0.145s0.596,0.242,0.828,0.438
		c0.231,0.196,0.416,0.442,0.552,0.738C441.592,308.392,441.659,308.744,441.659,309.151z M440.723,309.182
		c0-0.518-0.146-0.906-0.438-1.165s-0.719-0.389-1.277-0.389h-2.353v3.12h2.231c0.625,0,1.086-0.13,1.387-0.389
		C440.573,310.101,440.723,309.708,440.723,309.182z"/>
	<path style="fill:#E31837;" d="M448.68,312.968c0,0.328-0.062,0.636-0.187,0.924s-0.306,0.536-0.546,0.744
		s-0.532,0.372-0.877,0.492c-0.344,0.12-0.735,0.18-1.176,0.18c-0.576,0-1.105-0.11-1.59-0.33s-0.894-0.498-1.229-0.834l0.624-0.695
		c0.32,0.304,0.664,0.548,1.031,0.731c0.369,0.185,0.769,0.276,1.201,0.276c0.559,0,1.002-0.128,1.325-0.384
		c0.324-0.257,0.486-0.608,0.486-1.057c0-0.191-0.032-0.368-0.097-0.528c-0.063-0.159-0.174-0.308-0.33-0.443
		c-0.155-0.136-0.361-0.271-0.617-0.402s-0.576-0.266-0.96-0.401c-0.456-0.16-0.839-0.322-1.146-0.486
		c-0.309-0.164-0.557-0.34-0.744-0.528c-0.188-0.188-0.324-0.397-0.408-0.63c-0.084-0.231-0.127-0.5-0.127-0.804
		c0-0.336,0.064-0.636,0.192-0.9c0.128-0.264,0.306-0.49,0.534-0.678s0.504-0.33,0.828-0.426c0.324-0.097,0.682-0.145,1.074-0.145
		c0.56,0,1.037,0.08,1.434,0.24s0.77,0.38,1.122,0.66l-0.601,0.731c-0.304-0.256-0.609-0.449-0.918-0.582
		c-0.308-0.132-0.674-0.197-1.098-0.197c-0.287,0-0.535,0.034-0.744,0.102c-0.207,0.068-0.377,0.158-0.51,0.271
		c-0.132,0.111-0.229,0.241-0.288,0.39s-0.09,0.306-0.09,0.474c0,0.177,0.024,0.334,0.072,0.475c0.048,0.14,0.144,0.275,0.288,0.408
		c0.144,0.132,0.346,0.262,0.605,0.39s0.602,0.268,1.026,0.42c0.464,0.168,0.853,0.336,1.164,0.504s0.562,0.353,0.75,0.552
		c0.188,0.2,0.321,0.42,0.401,0.66S448.68,312.656,448.68,312.968z"/>
	<path style="fill:#E31837;" d="M455.734,315.176v-3.96h-4.176v3.96h-0.936v-8.4h0.936v3.589h4.176v-3.589h0.937v8.4H455.734z"/>
	<path style="fill:#E31837;" d="M458.939,315.176v-8.4h0.936v8.4H458.939z"/>
	<path style="fill:#E31837;" d="M467.963,309.284c0,0.416-0.07,0.785-0.211,1.109c-0.14,0.324-0.334,0.597-0.582,0.816
		s-0.547,0.386-0.899,0.498s-0.735,0.168-1.151,0.168h-2.041v3.3h-0.936v-8.4h3.145c0.383,0,0.737,0.051,1.062,0.15
		c0.323,0.101,0.606,0.254,0.846,0.462c0.24,0.208,0.429,0.47,0.564,0.786S467.963,308.859,467.963,309.284z M467.026,309.319
		c0-0.544-0.151-0.962-0.456-1.254c-0.304-0.292-0.744-0.438-1.32-0.438h-2.172v3.396h2.053
		C466.395,311.023,467.026,310.456,467.026,309.319z"/>
</g>
<g>
	<rect x="353.72" y="286.813" width="158.268" height="0.374"/>
</g>
</svg>
