<?xml version="1.0" encoding="utf-8"?>
<!-- Generator: Adobe Illustrator 18.1.1, SVG Export Plug-In . SVG Version: 6.00 Build 0)  -->
<svg version="1.1" id="Layer_1" xmlns="http://www.w3.org/2000/svg" xmlns:xlink="http://www.w3.org/1999/xlink" x="0px" y="0px"
	 viewBox="0 0 1131.1 325.1" enable-background="new 0 0 1131.1 325.1" xml:space="preserve">
<g>
	<path fill="#FFFFFF" d="M163.5,271.1c61,0,110.9-49.5,110.9-110.4c0-61-51.9-110-110.9-109.9c-61,0.1-111.3,49-111.3,109.9
		C52.3,221.6,102.5,271.1,163.5,271.1"/>
	<path fill="#FFFFFF" d="M215.2,90.7c-14.3,2.2-33.4,3.5-53.5,3.4c0.3-22,0.6-37.8,1-42.6C183.1,55,201.6,69.7,215.2,90.7"/>
	<path fill="#E03A3E" d="M239.1,169.6c-20.7,3.2-48.4,5-77.4,5c0-29.9,0.1-58.7,0.4-81.2c20,0,39.2-1.2,53.4-3.4
		C229.4,111.4,238.4,139.7,239.1,169.6"/>
	<path fill="#FFFFFF" d="M237.2,169.4c-5.7-0.9-10.6-10.5-8-20.4c-8.1,5.6-17.2-5.9-15.9-16.5c0.7-5.6,4.4-10.6,10.8-8.3
		c-2.6-9-5.9-17.5-9.7-25.3c-5.7,0.7-12,1.3-18.6,1.8c5.9,8.9,0.1,17.2-8.1,15.9c-6-1-11.5-7.2-10-14.7c-4.9,3.4-14.8,2-15.7-8.6
		c18.3-0.1,34.4-0.7,53.5-3.4c15.4,25.4,22.1,47.7,23.6,79.5C238.6,169.4,237.8,169.5,237.2,169.4"/>
	<path fill="#FFFFFF" d="M104.7,243.9c-11.4-1.9-19-4.4-21.5-7c-2.8-3.2-6.5-7.5-9.1-10.8c-6.3-9.3-6.5-9.4-9.2-14.8
		c-4.9-10.3-4.9-10.5-6.8-16.2c-3.2-11.1-3.3-11.3-4.2-17.3c-0.6-5.2-1.2-12.2-1.4-17.5l0.1-4.8c-0.2,4.7,11.1,9.1,30.7,12.4
		c0,1.5-0.1,3.1-0.1,4.7C83.1,201.5,91.3,226.5,104.7,243.9"/>
	<path fill="#FFFFFF" d="M163.2,271.1c-0.5,0-1.2,0-1.7,0c-1,0-2-0.1-3-0.1c-6.7-0.4-11-1-16.7-2.1c-14.4-3.3-27.1-12.2-37-25.2
		c9.8,1.6,22.3,2.9,36.9,3.5c6.9,0.3,13.8,0.4,20.7,0.4C162.5,262.5,162.8,271.1,163.2,271.1"/>
	<path fill="#E03A3E" d="M162.2,247.7c-6.8,0-13.8-0.1-20.7-0.4c-14.6-0.6-27.1-1.9-36.9-3.5c-13.3-17.4-21.4-42.3-21.4-71
		c0-1.3,0-2.5,0-3.8c13.3,2.2,30.4,3.9,50.3,4.8c9.4,0.4,18.9,0.6,28.2,0.6c0,1.2,0,2.5,0,3.8C161.7,206.8,161.9,231.1,162.2,247.7"
		/>
	<path fill="#E03A3E" d="M162,249.2c-1,3.8-6.3,7.5-13.9,4.4c3.6,4.7,0.5,8.7-5.8,7.6c-4.8-0.9-10.6-4.8-11.1-8.7
		c-6-0.5-11.5-1-16.4-1.7c4.6,5.4,9.8,9.8,15.4,13c0.7-0.3,1.7-0.2,5,1c4.2,1.5,8.2,3.7,12.4,5.2c0,0,0,0,0,0
		c-3.3-0.5-3.7-0.6-6.1-1c-8-2.3-22.8-6.6-37-25.2h0c17.1,2.7,33.8,3.8,57.6,3.9C162.2,248.1,162.2,248.8,162,249.2"/>
	<path fill="#FFFFFF" d="M104.6,243.7L104.6,243.7c-15.3-21.9-21.3-42.8-21.4-74.7c8.6,2.8,11,15.5,8.8,22.5
		c8.2-3.2,18.5,11,14.9,20.5c-1.7,4.4-6,5.6-10.5,2.9c2.4,8.3,5.6,15.9,9.4,22.5c5.8,0.8,12.3,1.5,19.5,2
		c-5.7-7.1-1.1-12.8,6.5-12.4c6.6,0.3,15.2,5.8,13.4,13.2c5.9-2.7,15.9-0.5,17.1,7.3c-7.2-0.1-18.1-0.1-32-1.1
		C121.7,246,113.2,244.4,104.6,243.7"/>
	<path fill="#E03A3E" d="M104.6,243.7L104.6,243.7L104.6,243.7z"/>
	<path fill="#E03A3E" d="M104.6,243.7L104.6,243.7L104.6,243.7z"/>
	<path fill="#E03A3E" d="M104.6,243.7c-12.6-2.3-18.1-4.1-21.6-7c-2.6-2.9-5.9-6.8-8.3-9.8c0.4,0.6,0.7,0.9,1.9,2.3
		c-1.1-1.4-6.9-8.8-7.3-12.1c3.1-0.5,13.3,15.3,13.4,15.4c3.1,1.1,7.1,2.2,11.9,3.2c-4.5-6.8-8.3-14.5-11.2-22.9
		c-6.9,3.5-15.7-14.7-12.9-22.4c0.6-1.6,2.4-4.8,7.1-1.3c-3.5-8.1-2.6-20.1,5.9-20.1C83.4,195.9,87.1,218.9,104.6,243.7"/>
	<path fill="#231F20" d="M238.6,188.6l-0.1-0.2c0.5-4.9,0.7-10,0.7-15.3c0-1.2,0-2.4-0.1-3.7c0.1,0,0.1,0,0.2,0c0,1.2,0,2.4,0,3.7
		C239.3,178.4,239.1,183.6,238.6,188.6"/>
	<path fill="#231F20" d="M180.3,269.8L180.3,269.8c30.4-4.7,53.8-37,58.2-81.4l0.1,0.2C234.2,232.9,210.7,265,180.3,269.8"/>
	<path fill="#231F20" d="M217,257.2c-7.5,3.9-9.1,4.7-17.1,7.7c-2.4,0.8-5.5,1.8-7.9,2.5c15.5-4.2,29.2-13,40.1-25.3
		c-2.3,5.1-3.9,8.1-12,13.4C219.1,256,218,256.6,217,257.2"/>
	<path fill="#FFD520" d="M220.1,255.4c6.7-4.6,9.5-7.3,12-13.4c15.9-18,25.6-43.5,25.6-72.6c0-1.2,0-2.4-0.1-3.7
		c5-1.3,9.1-2.8,11.9-4.3c0,1.2,0.1,2.4,0.1,3.7C269.6,204.1,249.9,237.4,220.1,255.4"/>
	<path fill="#231F20" d="M186.8,226.8c-7.4-7.4-7.4-7.4-25.1-24.2c0-7.7-0.1-16-0.1-24.6c0-1.2,0-2.4,0-3.7c9.6,0,19.1-0.2,28.2-0.6
		c0,1.2,0,2.4,0,3.7C189.9,196.1,188.8,212.8,186.8,226.8"/>
	<path fill="#FFD520" d="M167.9,271l-0.7,0c-1.5,0-2.2,0.1-2.9,0.1h-1.2c-0.6,0-1.2-27.4-1.4-68.4c16.6,15.7,18.3,17.3,25.1,24.1
		C183.1,253.8,176.1,270.6,167.9,271"/>
	<path fill="#231F20" d="M173.1,270.7c-0.9,0.1-2.1,0.2-2.9,0.2c-0.7,0-1.6,0.1-2.3,0.1c8.3-0.4,15.2-17.2,18.9-44.1
		c8,8.4,11.5,12.5,15.4,18.8C194.7,260.5,184.6,269.6,173.1,270.7"/>
	<path fill="#FFD520" d="M202.2,245.7c-3.8-6-6.1-9.1-15.4-18.8c2-14,3.1-30.8,3-49.4c0-1.2,0-2.4,0-3.7c9.1-0.4,17.9-0.9,26.1-1.7
		c0,1.2,0,2.4,0,3.7C216,204.4,210.8,228.8,202.2,245.7"/>
	<path fill="#231F20" d="M204.4,259.3c1.4-4.4,1.3-7-2.2-13.6c8.6-16.9,13.8-41.3,13.7-69.8c0-1.2,0-2.4,0-3.7
		c3.1-0.3,6.1-0.6,9-0.9c4.1,4.8,9.1,10.8,13.5,17.1C235.4,220,222.5,245.5,204.4,259.3"/>
	<path fill="#FFD520" d="M180.2,269.8c-0.8,0.1-1.9,0.3-2.7,0.4c-2.6,0.3-2.6,0.3-3.9,0.4l-0.4,0c11.4-1,21.6-10.1,29.1-25
		c3,6,4,8.7,2.2,13.6C197.1,264.8,189,268.4,180.2,269.8"/>
	<path fill="#FFD520" d="M192,267.3l-2.7,0.7c-4.5,1-4.5,1-6.9,1.4l-2.2,0.4c21.6-3.4,39.7-20.5,49.9-46.1
		c2.8,7.6,3.7,11.1,1.8,18.3C221.2,254.3,207.4,263.1,192,267.3"/>
	<path fill="#231F20" d="M189.3,268c-4.4,1-4.4,1-6.9,1.4l-2.2,0.4c8.7-1.3,16.8-5,24.1-10.4c-2.6,3.8-4.3,5.5-12.4,8L189.3,268"/>
	<path fill="#231F20" d="M232,242c1.5-6.3,1.5-9.9-1.8-18.3c5.8-14.5,9.1-31.7,9.1-50.6c0-1.2,0-2.4,0-3.7c7-1.1,13.2-2.3,18.3-3.6
		c0,1.2,0.1,2.4,0.1,3.6C257.7,198.5,248,224,232,242"/>
	<path fill="#FFD520" d="M217,257.2c1-0.6,2-1.1,2.9-1.7l-1.1,0.7L217,257.2"/>
	<path fill="#231F20" d="M270.1,164.8c0.1,39.6-20.4,73.4-51.2,91.3l0,0l1.1-0.7c29.9-18,49.7-51.3,49.6-90.4c0-1.2,0-2.4-0.1-3.7
		c0.2-0.1,0.3-0.2,0.5-0.3C270.1,162.4,270.1,163.6,270.1,164.8"/>
	<path fill="#FFD520" d="M230.1,223.7c-3.9-7.9-6.6-12.2-15.5-23.2c0.9-7.8,1.4-16,1.4-24.7c0-1.2,0-2.5,0-3.7
		c8.4-0.8,16.2-1.7,23.2-2.7c0,1.2,0,2.4,0.1,3.7C239.2,192,235.9,209.2,230.1,223.7"/>
	<path fill="#231F20" d="M214.6,200.6c-6.4-7.3-9.6-11-24.7-26.7c8.6-0.4,15.3-0.8,26.1-1.7c0,1.2,0,2.5,0,3.7
		C215.9,184.5,215.5,192.8,214.6,200.6"/>
	<path fill="#231F20" d="M83.2,169c-0.1,0-0.1,0-0.2,0c0.1-6.5,0.7-12.9,1.6-19.2l0.1,0.3C83.9,156.3,83.3,162.6,83.2,169"/>
	<path fill="#231F20" d="M84.8,150.1l-0.1-0.3c6.8-45.5,33.3-84.2,66.6-96.1l-0.1,0.1C118,65.8,91.5,104.5,84.8,150.1"/>
	<path fill="#231F20" d="M151.2,53.8l0.1-0.1c3.8-1.4,7.8-2.4,11.8-3C159,51.4,155,52.4,151.2,53.8"/>
	<path fill="#FFD520" d="M96.7,86.3c3.9-8.7,6.7-13,14.9-20c15.3-9.2,32.8-14.8,51.5-15.6C137.4,53,114.1,66.4,96.7,86.3"/>
	<path fill="#231F20" d="M66.2,165.3c-4.5-1.3-8-2.7-10.3-4.2c1.2-40,23.4-75.4,55.7-94.8c-7.6,6.8-11,10.8-14.9,20
		C78.6,107.1,67,135.2,66.2,165.3"/>
	<path fill="#FFD520" d="M161.7,174.4c-9.3,0-18.8-0.2-28.2-0.6c-0.3,0-0.6,0-0.8,0c0.1-19.7,1.7-38.9,4.4-56.2
		c8,10.1,12.2,14.9,24.6,27.9C161.7,154.9,161.7,164.6,161.7,174.4"/>
	<path fill="#FFD520" d="M137.1,117.5c-7.5-10.4-10.7-15.9-13.8-25.5c10.3-21.7,24.3-37.1,39.8-41.3
		C152.1,56.9,142.4,83.2,137.1,117.5"/>
	<path fill="#231F20" d="M132.7,173.8c-9.7-0.4-18.6-1.1-26.8-1.8c0.5-29.6,7.1-58,17.4-79.9c3.2,9.3,5.7,14.5,13.8,25.5
		C134.4,134.8,132.8,154,132.7,173.8"/>
	<path fill="#FFD520" d="M105.8,171.9c-3.1-0.3-6.1-0.6-8.9-1c-3.7-5.7-8.3-12.7-12.1-20.9c4.7-32.2,19.4-61.1,39.3-79.4
		c-2.7,7.3-3.2,11.7-0.9,21.5C112.9,114,106.3,142.3,105.8,171.9"/>
	<path fill="#231F20" d="M123.2,92.1c-2-9-2.2-13.6,0.9-21.5c11.5-10.6,24.8-17.7,39-19.9C147.6,54.9,133.5,70.4,123.2,92.1"/>
	<path fill="#231F20" d="M95.1,112.7c-1.6-10.7-1.6-16.3,1.6-26.4c17.4-19.9,40.7-33.2,66.4-35.5c-6.1,1-7.2,1.2-11.8,3
		C127.6,62.2,107.3,84.2,95.1,112.7"/>
	<path fill="#FFD520" d="M124.2,70.5c3.7-6.4,6.2-9.6,15.5-14.5c7.5-2.8,15.3-4.6,23.4-5.3C149,52.9,135.7,60,124.2,70.5"/>
	<path fill="#FFD520" d="M83.1,169c-6.6-1.1-12.3-2.4-16.9-3.7c0.8-30.1,12.4-58.2,30.6-79c-2.8,9.3-3.5,14.7-1.6,26.4
		C87.9,129.7,83.5,149,83.1,169"/>
	<path fill="#231F20" d="M111.7,66.2c8.1-5.8,12.7-8.6,25.3-12.5c8.4-2,17.1-3,26.1-3C144.5,51.5,127,57.1,111.7,66.2"/>
	<path fill="#FFD520" d="M55.9,161.1c-2.3-1.5-3.5-3-3.5-4.5l0.2-3.9c3.2-48.3,38.1-88,84.4-99c-10.5,3.3-16.3,5.8-25.3,12.5
		C79.3,85.6,57.1,121.1,55.9,161.1"/>
	<path fill="#231F20" d="M105.8,171.9c-8.4-0.8-16-1.8-22.6-2.9c0.4-20,4.8-39.3,12.1-56.3c2.8,11.2,5.1,17.1,13,30.3
		C106.8,152.4,106,162.1,105.8,171.9"/>
	<path fill="#FFD520" d="M105.8,172c0.1-9.9,1-19.6,2.4-29c6.8,10.1,10.9,16,24.4,30.8C123.4,173.3,116.7,173,105.8,172"/>
	<path fill="#231F20" d="M139.7,56.1c6.2-2.5,11.5-4.6,23.4-5.3C155,51.5,147.2,53.3,139.7,56.1"/>
	<path fill="none" stroke="#231F20" stroke-width="0" stroke-linecap="round" stroke-linejoin="round" d="M274.2,160
		c-0.1,6-0.3,14.9-3.4,27.7c-2.9,11.5-7.9,21.7-9.6,24.6c-5.7,9.9-16.4,28.4-42.3,43.8"/>
	<path fill="#231F20" d="M270.2,161.1c2.8-1.6,4.1-3.3,4.1-4.9c1.5,46.2-24.5,82-55.3,99.9l-0.1,0.1l1.2-0.7
		c29.8-18,49.7-51.3,49.6-90.4c0-1.2,0-2.4-0.1-3.7C269.8,161.2,270,161.1,270.2,161.1c0,1.2,0.1,2.4,0.1,3.6"/>
	<path fill="none" stroke="#231F20" stroke-width="0" stroke-linecap="round" stroke-linejoin="round" d="M270.2,161.1
		c2.8-1.6,4.1-3.3,4.1-4.9c1.5,46.2-24.5,82-55.3,99.9l-0.1,0.1l1.2-0.7c29.8-18,49.7-51.3,49.6-90.4c0-1.2,0-2.4-0.1-3.7
		C269.8,161.2,270,161.1,270.2,161.1c0,1.2,0.1,2.4,0.1,3.6"/>
	<path fill="#E03A3E" d="M215.6,89.8L215.6,89.8C215.7,89.8,215.7,89.8,215.6,89.8c0.1,0,0.1,0,0.1,0c1.1-0.2,2.1-0.3,3.1-0.5
		c6.3-1.2,20.1-4.2,20.1-8.4c0,0,6.1,5.6,10.2,13.3c0.5,0.8,0.9,1.7,1.2,2.6c0.4,0.9,0.6,1.7,0.7,2.4c0,0,0.1,0.1,0.1,0.1
		c0,0.4,0,0.7,0,0.9c0,0.1,0,0.2,0,0.4c-0.2,2.4-1.7,2.4-3.3,1.7c-0.2-0.1-0.3-0.1-0.5-0.2c-5.7-2.6-7.5-7.8-8.6-9.9
		c-2.9,0.9-7.7,3-11.6,3.8c-0.5,0.1-1.3,0.3-1.8,0.4c4.7,7.7,9.1,16.9,12.3,25.8c5.6-5.7,14.3,4.9,14.7,15.1c0.2,6-2.5,11.4-8,9.4
		c4.4,8.2,3,20.1-5.4,22.7c-1.4-26.8-5.9-50.6-23.6-79.5h0"/>
	<path fill="#E03A3E" d="M216.6,69.3C216.6,69.3,216.6,69.3,216.6,69.3C216.6,69.2,216.6,69.2,216.6,69.3c0-0.1-0.1-0.2-0.1-0.3
		c0.1-0.1,0.2-0.3,0.3-0.4c0.1,0,0.3,0,0.4,0l0,0c0,0,0.8-3.4,13.5,5.4c-21.6-16.8-43.4-21.6-56.4-22.9c1.4,0.4,2.4,0.8,3.2,1.2
		c0.7,0.3,1.2,0.7,1.5,0.9c0,0,0.1,0,0.1,0c1.6,0.2,3,0.5,4.3,0.8h0c0.4,0.2,0.9,0.3,1.4,0.5c0,0,0.1,0,0.2,0.1
		c0.4,0.2,0.8,0.3,1.2,0.5c0.1,0,0.2,0.1,0.3,0.1c0.4,0.2,0.8,0.3,1.1,0.5c0.1,0.1,0.2,0.1,0.4,0.1c0.5,0.2,1,0.4,1.5,0.7v0
		c3.9,1.9,7,4,7.1,5.7c-0.6,0.4-0.8,0.5-2.5,0c6.5,4.7,15.9,13.4,21.4,19.9c3.8-0.7,9.5-1.5,12.1-2.4
		C227.2,79.8,217.8,72.7,216.6,69.3"/>
	<path fill="#FFFFFF" d="M238.9,81c-2.7-2.5-5.5-4.9-8.2-7c-5.1-3.5-8.3-5.1-10.3-5.7l0,0c0,0-6.3-2-2.8,2.8l0,0
		c2.7,3.6,9.6,8.8,9.8,8.6c-2.6,0.9-8.3,1.7-12.1,2.4c-5.5-6.5-14.9-15.2-21.4-19.9c1.7,0.5,1.9,0.4,2.5,0c0-1.6-3.2-3.8-7.1-5.7v0
		c-0.5-0.2-1-0.4-1.5-0.7c-0.1-0.1-0.2-0.1-0.4-0.2c-0.4-0.2-0.7-0.3-1.1-0.5c-0.1,0-0.2-0.1-0.3-0.1c-0.4-0.2-0.8-0.3-1.2-0.5
		c-0.1,0-0.1,0-0.2-0.1c-0.5-0.2-0.9-0.3-1.4-0.5h0c-1.3-0.3-2.7-0.6-4.3-0.8c0,0,0,0-0.1,0c0.1,0.1,0.2,0.1,0.2,0.2l-0.4-0.2
		c0.1,0,0.2,0,0.2,0c-0.3-0.3-0.8-0.6-1.5-1c-0.8-0.4-1.8-0.8-3.2-1.2c-3.2-0.3-5.8-0.4-7.7-0.4c-1.5-0.1-2.7-0.1-2.9,0c0,0,0,0,0,0
		c-0.5,0-0.7,0-0.7,0l0.5,0.2c-0.3,0-0.6-0.1-0.8-0.1c0.7,0.1,1.4,0.2,2.1,0.4c1.7,0.6,5.3,1.5,8,2.2c16.6,5.8,31.5,18.9,43,36.5
		c0.2,0,0.3-0.1,0.5-0.1c10.3-1.7,15.9-3.6,20-5.5c0,0,0,0,0,0C239.1,82.6,238.8,81,238.9,81L238.9,81z"/>
	<path fill="#E03A3E" d="M215.5,89.9L215.5,89.9c-18-26.5-34.5-34.5-49.6-38.4c0.4,0.1,0.8,0.2,1.2,0.4c-0.7-0.2-1.4-0.4-2-0.5
		c-0.2-0.1-0.4-0.1-0.5-0.2c0.5,0.1,0.9,0.2,1.4,0.3c-0.5-0.1-1.1-0.3-1.6-0.4c-0.2-0.1-0.3-0.1-0.4-0.2c0,0,0.1,0,0.2,0.1
		c-0.4-0.1-0.7-0.2-1.1-0.2c3.2,3.6,7.7,5.1,8.8,5.4c-0.3,1.3-0.1,4,4.6,7.4c0.7,0.5,1.4,0.9,2.1,1.3c7.2,3.8,8.8,0.8,9.1-0.3
		c0,0,0.1-0.1,0.1-0.1c2.2,1.6,6.5,5,11.2,10.4c2.7,3.3,5.3,6.1,7.2,9c-4.4,0.6-10.3,1.1-16.1,1.5c-0.3-7-5.4-10.6-8.6-11.7
		c-7-2.6-9.3,5.6-6.3,11.4c-5.5-3-12.1-0.3-13,8.4C183.9,93.2,198.9,92.2,215.5,89.9"/>
	<path fill="#231F20" d="M161.7,145.5c-10.9-11.4-16.7-17.8-24.6-27.9c5.3-34.3,15-60.7,26-66.9C162.4,58.8,161.8,98.3,161.7,145.5"
		/>
	<g>
		<path fill="#231F20" d="M24.2,88l0.7,0.3c-0.9,2.3-0.3,3.5,1.9,4.4l9.3,3.8c4.3,1.7,7.7,6.3,4.7,13.8c-2.7,6.6-7.8,8.4-12.7,6.4
			l-10.1-4.1c-2.2-0.9-2.8-0.4-3.8,1.9l-0.7-0.3l3.6-8.9l0.6,0.3l-0.1,0.3c-0.8,1.9-0.6,2.9,1.4,3.7l9.6,3.9
			c4.7,1.9,8.6,0.3,10.6-4.8c1.6-3.9,1.6-8.5-4.3-10.9l-8-3.3c-3.3-1.4-4.1-1.1-5.4,1.7l-0.6-0.3L24.2,88z"/>
	</g>
	<g>
		<path fill="#231F20" d="M63.9,73.8l-27.7,3.4L49,86.7c2.1,1.6,2.9,1.5,4.8-1.1l0.6,0.4l-5.2,6.9l-0.6-0.4l0.1-0.1
			c1.4-1.8,1.2-2.9-0.2-3.9l-14.7-11c-1,0.3-1.8,0.9-2.6,1.9L30.7,79l3.5-4.7l25.1-3.1l-11.9-8.9c-1.8-1.4-2.5-1.1-4.4,1.3l-0.6-0.4
			l5.2-7l0.6,0.4c-1.7,2.2-1.6,3-0.5,3.9L64.4,73L63.9,73.8z"/>
	</g>
	<g>
		<path fill="#231F20" d="M77.2,59.6l-6.7,6.1L70,65.2c1.6-1.6,1.6-2.4-0.1-4.2L59.2,49.3c-1.3-1.5-2.2-1.4-3.9-0.1l-0.5-0.5
			l6.7-6.1l0.5,0.5c-1.7,1.6-2,2.5-0.3,4.4l10.6,11.6c1.5,1.6,2.4,1.8,4.3,0L77.2,59.6z"/>
	</g>
	<g>
		<path fill="#231F20" d="M91.7,50L74,37.4c-2-1.5-2.7-1.7-4.6-0.5L69,36.3l8.6-5.5l0.4,0.6c-2.8,1.9-3.1,3-1.6,4.1l14.6,10.4
			l-3.3-16.1c-0.2-1.1-0.4-1.8-0.7-2.3c-0.6-0.9-1.6-0.8-3.8,0.6l-0.4-0.6l7.3-4.7l0.4,0.6c-1.6,1-2,2.3-1.5,4.8L93.3,49L91.7,50z"
			/>
	</g>
	<g>
		<path fill="#231F20" d="M118.5,25.8l-0.7,0.3c-1.2-2.4-2-2.4-3.4-1.9l-5.9,2.2l2.8,7.4c0.6,1.6,1.3,1.7,2.6,1.2l5.4-2
			c2.4-0.9,2.8-2.1,2.5-5.5l0.6-0.2l1.4,5.4l-18.5,7l-0.3-0.7l1-0.4c2.8-1.1,3-2,2.2-4.1l-5.6-14.7c-0.7-2-1.5-2.6-3.8-1.7l-0.8,0.3
			L98,17.8l16.7-6.3l2.1,4.7l-0.6,0.2c-1.6-2.8-2.7-3.1-3.9-2.6l-7.3,2.8l3.2,8.6l6.2-2.4c1.3-0.5,1.6-1.3,1-3.4l0.7-0.3L118.5,25.8
			z"/>
	</g>
	<g>
		<path fill="#231F20" d="M136.9,26.4c0.3,2.2,1.3,2.7,3.3,2.4l0.8-0.1l0.1,0.7l-10.4,1.4l-0.1-0.7l0.6-0.1c2.2-0.3,2.9-1,2.5-3.5
			L131.7,11c-0.3-2.3-1-2.9-3.2-2.6l-0.8,0.1l-0.1-0.7c0.9-0.1,3.1-0.6,4.6-0.8c1.5-0.3,2.2-0.4,4.6-0.8c6.8-0.9,10.3,1.4,10.8,5.2
			c0.4,2.8-1.2,5.3-4.1,6.6c1.5,0.9,2.8,1.8,4.7,3.3l3.3,2.5c2.5,1.9,4.9,2.9,7.8,2.7l0.1,0.7c-6.4,1.2-8.3,0-12-2.8l-2.8-2.1
			c-1.8-1.4-3.3-2.3-4.2-2.8c-0.9,0.2-1.5,0.3-2.5,0.4c-0.8,0.1-1.3,0.1-1.9,0.2L136.9,26.4z M135.9,19.5c0.9,0,1.4-0.1,2.3-0.2
			c4.1-0.6,6.5-2.7,5.9-7.1c-0.5-3.4-2.4-5.9-8.1-5.1c-0.7,0.1-1.2,0.2-1.8,0.3L135.9,19.5z"/>
	</g>
	<g>
		<path fill="#231F20" d="M166.6,22.2c0.5,3.4,3,5.5,5.9,5.7c2.5,0.2,5.2-1.1,5.4-4c0.4-5.3-11.4-7.8-11-14.3c0.2-3.1,3.2-5.2,7-4.9
			c3.1,0.2,3.7,1.2,5,1.3c0.3,0,0.5,0,0.7-0.3l0.6,0l0.3,4.8l-0.6,0c-0.8-2.7-3.1-4.6-5.7-4.8c-2.5-0.2-4.3,1.1-4.4,3.2
			c-0.4,5.3,11.4,7.5,11,14.4c-0.3,3.6-3.7,6.1-8,5.8c-2-0.1-4.6-1.3-5.1-1.4c-0.3,0-0.6,0.1-0.8,0.4l-0.6,0l-0.4-5.7L166.6,22.2z"
			/>
	</g>
	<g>
		<path fill="#231F20" d="M195.2,31l-8.8-1.9l0.2-0.7c2.3,0.4,2.9-0.1,3.4-2.5l3.4-15.5c0.4-2-0.1-2.7-2.2-3.2l0.1-0.7l8.8,1.9
			l-0.1,0.7c-2.3-0.5-3.2-0.2-3.7,2.3l-3.4,15.4c-0.5,2.1-0.1,3,2.5,3.5L195.2,31z"/>
	</g>
	<g>
		<path fill="#231F20" d="M216.2,35.4c-0.8,1.9-0.4,2.8,1.7,3.6l1.3,0.5l-0.3,0.7l-10.9-4.4l0.3-0.7l1.3,0.5c2.1,0.9,3,0.4,3.7-1.4
			l6.9-17l-6-2.4c-1.4-0.6-2.3,0-4.1,2.8l-0.6-0.3l2.8-5.4l0.7,0.3c0,0.2,0,0.4,0.2,0.6c0.2,0.2,0.4,0.3,0.6,0.4l16.6,6.7
			c0.5,0.2,1,0.3,1.3-0.1l0.7,0.3l-1.7,5.8l-0.6-0.3c0.7-3.2,0.4-4.3-1-4.9l-6-2.4L216.2,35.4z"/>
	</g>
	<g>
		<path fill="#231F20" d="M254.9,38.7c2.1-1,1.9-1.9,0-3.3l0.4-0.6l6.9,4.8l-0.4,0.6c-2.2-1.3-3.6-1.1-5.5-0.2l-11,5l-3.2,4.6
			c-1.1,1.6-1,2.7,0.9,4l0.4,0.3l-0.4,0.6l-8.4-5.9l0.4-0.6l0.6,0.4c1.9,1.3,2.9,1,4-0.5l3-4.3l0.5-12.3c0.1-3.4-0.3-4.3-2.2-5.8
			l0.4-0.6l8.1,5.7l-0.4,0.6c-2.4-1.7-2.9-1.2-3,0.9L245.4,43L254.9,38.7z"/>
	</g>
	<g>
		<path fill="#231F20" d="M271.5,84.7c-4.2-6-3.9-13.7,1.8-17.7c6-4.3,13.6-2.7,18.2,3.8c4.1,5.7,3.6,13.4-1.9,17.3
			C283.5,92.5,275.7,90.6,271.5,84.7z M290.2,70.6c-3.8-5.3-10.3-3.9-13.9-1.4c-5.7,4-7,10.7-3.5,15.6c3.5,5,9.5,4.2,13.9,1.2
			C292.3,82,293.7,75.6,290.2,70.6z"/>
	</g>
	<g>
		<path fill="#231F20" d="M296.5,112.5l-0.2-0.6c2-0.9,2.3-1.9,1.6-3.5l-2.7-6.3l-7.5,3.2c-1.9,0.8-2.5,1.5-1.4,4.1l-0.7,0.3
			l-3.5-8.3l0.7-0.3c1,2.1,1.6,2.3,4.4,1.1l13.5-5.6c2.2-0.9,3.1-1.5,2.1-3.9l0.7-0.3l6.4,15.4l-4,1.7l-0.2-0.6c2-0.9,2.5-1.9,1.6-4
			l-2.7-6.5l-8.1,3.4l2.9,6.8c0.5,1.3,1.5,1.6,3,1.1l0.2,0.6L296.5,112.5z"/>
	</g>
	<g>
		<path fill="#231F20" d="M28.3,243.9L43.2,220l-0.1-0.1l-18.8,10.4c-2.1,1.2-1.6,3-0.5,4.8l-0.8,0.5l-5.3-8.4l0.8-0.5
			c1.9,2.9,2.7,2.9,6.5,0.8l16.2-9c2.8-1.5,3.4-2.1,2-4.7l0.7-0.5l3.9,6.1l-14.1,22.5l26.4-3.2l3.7,5.9l-0.7,0.5
			c-1.4-1.9-1.9-2.6-3.2-1.7l-17.4,12.8c-3.5,2.6-3.3,2.9-1.5,5.8l-0.8,0.5l-6.5-10.3l0.8-0.5c1.2,1.9,2.9,3.4,4.9,1.9l17.2-12.6
			l-0.1-0.1l-27.8,3.6L28.3,243.9z"/>
	</g>
	<g>
		<path fill="#231F20" d="M67.6,270.3l-6.8,4.1c-0.8,0.5-2.2,1.2-2.6,1.7c-0.8,1-0.1,2.1,1.9,3.8l0.6,0.5l-0.6,0.7l-8.6-6.9l0.6-0.7
			c2.4,1.9,3.2,1.8,7-0.5l21.5-13.1l0.3-1.1l3.2,2.6l-8.7,26.8c-0.8,2.6-0.4,3.6,1.5,5.1l-0.6,0.7L66.1,286l0.6-0.7l1,0.8
			c2.1,1.7,3.1,2.1,3.9,1.1c0.5-0.6,0.7-1.4,0.8-1.8l2.9-8.8L67.6,270.3z M79.6,263.1l-10.1,6.1l6.4,5.1L79.6,263.1z"/>
	</g>
	<g>
		<path fill="#231F20" d="M99.3,301c-1,2.7-0.2,3.7,2.3,4.7l1,0.4l-0.3,0.8l-12.6-4.8l0.3-0.8l0.8,0.3c2.6,1,3.8,0.6,5-2.3l7.1-18.7
			c1.1-2.8,0.6-3.8-2-4.8l-1-0.4l0.3-0.9c1.1,0.4,3.8,1.3,5.7,1.9c1.9,0.6,2.8,0.9,5.7,2c8.2,3.1,10.6,7.9,8.9,12.5
			c-1.3,3.3-4.6,5.3-8.7,4.9c1.1,1.9,2,3.7,3.3,6.6l2.2,4.9c1.6,3.6,3.7,6.3,7,7.8l-0.3,0.8c-7.9-2.6-9.3-5.1-11.7-10.5l-1.8-4
			c-1.2-2.7-2.3-4.6-3.1-5.7c-1.1-0.4-1.8-0.6-3.1-1.1c-1-0.4-1.5-0.6-2.2-1L99.3,301z M102.5,292.6c1,0.5,1.7,0.8,2.7,1.1
			c4.9,1.9,9,1,11-4.3c1.6-4.1,0.9-8-5.9-10.7c-0.8-0.3-1.4-0.5-2.3-0.8L102.5,292.6z"/>
	</g>
	<g>
		<path fill="#231F20" d="M158.4,293.9c1.8-2.5,0.9-3.3-2.1-3.6l0.1-0.9l10.7,1l-0.1,0.9c-3.2-0.1-4.7,1.1-6.3,3.2l-9.1,12.6
			l-0.7,7.1c-0.2,2.5,0.6,3.6,3.5,3.9l0.6,0.1l-0.1,0.9l-13-1.2l0.1-0.9l0.9,0.1c2.9,0.3,3.9-0.7,4.1-3.1l0.6-6.7l-7.2-14
			c-2-3.9-3-4.6-6.1-5l0.1-0.9l12.6,1.2l-0.1,0.9c-3.7-0.4-4,0.5-2.8,2.8l6.5,12.4L158.4,293.9z"/>
	</g>
	<g>
		<path fill="#231F20" d="M199.5,314.9l-20.9,3.7l-0.2-0.9l1.5-0.3c2.2-0.4,2.8-1.2,2.4-3.6l-3.6-20.8c-0.4-2.5-1.4-3.4-4.3-2.9
			l-0.7,0.1l-0.2-0.9l13.8-2.4l0.2,0.9l-1.7,0.3c-3,0.5-3.8,1-3.3,3.9l3.8,21.6c0.2,1.3,0.8,1.6,2.2,1.4l6.9-1.2
			c2.8-0.5,3.4-1.7,5.7-6.3l0.8-0.1L199.5,314.9z"/>
	</g>
	<g>
		<path fill="#231F20" d="M216.4,295.6l0.5,7.9c0.1,1,0.1,2.5,0.3,3.1c0.5,1.2,1.8,1.1,4.2,0.1l0.7-0.3l0.4,0.8l-10.1,4.4l-0.4-0.8
			c2.8-1.3,3.1-2,2.8-6.4l-1.6-25.1l-0.8-0.8l3.8-1.7l19.8,20.1c1.9,1.9,3,2,5.2,1l0.4,0.8l-12,5.3l-0.4-0.8l1.1-0.5
			c2.5-1.1,3.3-1.8,2.7-3c-0.3-0.7-0.9-1.2-1.3-1.6l-6.4-6.6L216.4,295.6z M215.6,281.6l0.8,11.8l7.5-3.3L215.6,281.6z"/>
	</g>
	<g>
		<path fill="#231F20" d="M279,271l-35.5-2.9l13.6,15.2c2.3,2.5,3.3,2.6,6.3-0.1l0.6,0.7l-8.2,7.3l-0.6-0.7l0.1-0.1
			c2.2-2,2.2-3.3,0.8-5L240.5,268c-1.3,0.2-2.5,0.7-3.8,1.8l-0.6-0.7l5.6-5l32.3,2.5l-12.6-14.1c-1.9-2.2-2.9-2-5.8,0.5l-0.6-0.7
			l8.3-7.4l0.6,0.7c-2.7,2.4-2.8,3.3-1.6,4.7l17.6,19.8L279,271z"/>
	</g>
	<g>
		<path fill="#231F20" d="M272.5,236.7c-2.7-1.5-3.7-1.2-5.1,1.2l-0.5,0.8l-0.8-0.4c0.8-1.6,1.9-3.7,3.1-6c1.2-2.3,2.6-4.9,3.8-7
			c6.2-10.9,14.5-12.6,21.3-8.7c6.2,3.6,11,12.6,5,23.1l-7.5,13.2l-0.8-0.5l0.4-0.7c1.3-2.2,1.2-3.6-1.2-5L272.5,236.7z M293,243.8
			c1.7,1,2.3,1.2,4.2-2.1c3.2-5.5,3.7-8.3,2.6-12.3c-0.6-2.4-2.7-6.1-7-8.5c-3.1-1.7-6.9-2.8-10.8-1.7c-3,0.8-6.1,2.9-9.4,8.7
			c-1,1.7-1.5,2.9-1.7,3.4L293,243.8z"/>
	</g>
	<g>
		<path fill="#231F20" d="M10.8,151v20.4c0,1.1,0.2,1.3,1.3,1.3h2v0.7H5.3v-0.7h1.9c1.1,0,1.3-0.3,1.3-1.4v-17.6
			c-1.1,1-3.1,2.3-4.4,2.9l-0.3-0.5c2-1.4,5-4,5.8-5.2H10.8z"/>
		<path fill="#231F20" d="M28.1,161.2c3.7,1.7,5.3,3.5,5.3,6.2c0,3.7-3,6.5-6.9,6.5c-3.8,0-6.8-2.6-6.8-5.8c0-2.5,1.7-4.4,5.1-5.8
			c-3.3-1.5-4.8-3.3-4.8-5.7c0-3.1,2.9-5.7,6.4-5.7c3.5,0,6.3,2.3,6.3,5.1C32.7,158.3,31.2,160,28.1,161.2z M25.5,162.7
			c-2.4,1.3-3.6,3.1-3.6,5.3c0,3,2,5.2,4.6,5.2c2.6,0,4.6-2.1,4.6-4.9C31.1,166,29.5,164.6,25.5,162.7z M26.3,151.6
			c-2.4,0-4.3,1.8-4.3,4c0,1.9,1.1,3.3,5.6,5.3c2-1.2,3-2.8,3-4.9C30.6,153.5,28.8,151.6,26.3,151.6z"/>
	</g>
	<g>
		<path fill="#231F20" d="M294.1,152.4h8.3c0.6,0,0.8-0.1,1-0.5h0.7l-0.4,2.7h-8.9l-0.3,6.3c1.1-0.6,2.4-0.9,3.8-0.9
			c3.9,0,7.2,3.3,7.2,7.2c0,4.3-3.6,7.5-8.3,7.5c-2.8,0-5.1-1-5.1-2.2c0-0.6,0.5-1.1,1.2-1.1c1.9,0,2.6,2.5,4.8,2.5
			c2.6,0,4.8-2.7,4.8-5.9c0-3.2-2.2-5.6-5.2-5.6c-1.3,0-2.7,0.5-3.7,1.3l-0.4-0.2L294.1,152.4z"/>
		<path fill="#231F20" d="M321.5,152.4c-5.5,2.3-8.4,5.7-9.2,10.8c1.9-1.5,3.3-2,5-2c3.4,0,6.2,2.9,6.2,6.5c0,3.9-3.1,7.1-6.9,7.1
			c-4.3,0-7.3-3.8-7.3-9.1c0-6.5,4.4-11.7,11.8-13.8L321.5,152.4z M316.8,162.1c-0.9,0-2.5,0.4-4.6,2.1c-0.1,0.5-0.2,1-0.2,2.2
			c0,5.9,2.6,7.8,4.8,7.8c2.5,0,4.2-2.2,4.2-6.2C320.9,164.2,319.1,162.1,316.8,162.1z"/>
	</g>
	<g>
		<path fill="#231F20" d="M371.4,49.8c0-4.1-1.1-5.2-4.9-5.2h-1.3v-1.2c2.4-0.1,5.5-0.3,9-0.4c3.5-0.1,7.4-0.2,10.7-0.2
			c16.8,0,24.3,8.5,24.3,19.1c0,9.6-7.5,21.2-23.6,21.2h-20.4v-1.2h1.1c3.4,0,5-1,5-4.7V49.8z M376.7,78.4c0,2.6,0.2,3.5,5.2,3.5
			c8.6,0,12.1-1.2,16.1-5.2c2.4-2.3,5.3-7.2,5.3-13.8c0-4.7-1.3-10-5.1-13.7c-2.9-2.9-7.5-5.2-16.4-5.2c-2.6,0-4.3,0.2-5.1,0.3V78.4
			z"/>
		<path fill="#231F20" d="M435.9,83.1h-15.5v-1.2c4-0.2,4.8-1.2,4.8-5.5V49.2c0-3.4-1.2-4.4-4.8-4.6v-1.2h15.5v1.2
			c-4,0-5.4,0.9-5.4,5.2v27.1c0,3.8,1,5,5.4,5V83.1z"/>
		<path fill="#231F20" d="M463.9,84.2l-13.8-34.5c-1.6-4-2.4-5-6.3-5v-1.2h17.5v1.2c-5.9,0.1-7.3,1.5-6.1,4.4l11.5,28.6l10.1-26.4
			c0.7-1.8,1.1-3.1,1.1-4c0-1.9-1.6-2.7-5.9-2.7v-1.2h14.8v1.2c-3.3,0-5,1.5-6.6,5.5l-13.1,34H463.9z"/>
		<path fill="#231F20" d="M510.6,83.1h-15.5v-1.2c4-0.2,4.8-1.2,4.8-5.5V49.2c0-3.4-1.2-4.4-4.8-4.6v-1.2h15.5v1.2
			c-4,0-5.4,0.9-5.4,5.2v27.1c0,3.8,1,5,5.4,5V83.1z"/>
		<path fill="#231F20" d="M522.2,73.4c1.3,5.7,5.8,9,10.8,9c4.3,0,8.8-2.5,8.8-7.5c0-9.2-20.5-12-20.5-23.2c0-5.3,4.9-9.3,11.4-9.3
			c5.4,0,6.4,1.6,8.7,1.6c0.5,0,0.8-0.1,1.1-0.6h1l1.1,8.1h-1.1c-1.8-4.6-5.9-7.5-10.3-7.5c-4.2,0-7.2,2.4-7.2,6
			c0,9.1,20.5,11.5,20.5,23.2c0,6.3-5.6,10.9-13,10.9c-3.5,0-8-1.7-8.9-1.7c-0.6,0-1,0.3-1.3,0.7h-1.1l-1.3-9.7H522.2z"/>
		<path fill="#231F20" d="M572.7,83.1h-15.5v-1.2c4-0.2,4.8-1.2,4.8-5.5V49.2c0-3.4-1.2-4.4-4.8-4.6v-1.2h15.5v1.2
			c-4,0-5.4,0.9-5.4,5.2v27.1c0,3.8,1,5,5.4,5V83.1z"/>
		<path fill="#231F20" d="M606.7,84.2c-12.5,0-23-8-23-20c0-12.7,9.8-21.7,23.4-21.7c12.1,0,22.4,8.2,22.4,19.7
			C629.4,75.1,619.1,84.2,606.7,84.2z M605.4,44.1c-11.2,0-15.7,10.5-15.7,18.1c0,11.9,8.1,20.4,18.4,20.4
			c10.4,0,15.4-9.2,15.4-18.3C623.5,52.4,615.9,44.1,605.4,44.1z"/>
		<path fill="#231F20" d="M680.9,83.6L647.9,49v27.4c0,4.6,1,5.6,6.4,5.6v1.2h-14.8v-1.2h0.2c4,0,5.2-1.3,5.2-4.3V46.2
			c-1.5-1-3.1-1.5-5.4-1.6v-1.2h10l30.1,31.3V49.4c0-3.9-1.2-4.6-6.3-4.7v-1.2h14.9v1.2c-4.8,0-5.8,0.8-5.8,3.3v35.6H680.9z"/>
		<path fill="#231F20" d="M743.1,84.2c-12.5,0-23-8-23-20c0-12.7,9.8-21.7,23.4-21.7c12.1,0,22.4,8.2,22.4,19.7
			C765.9,75.1,755.5,84.2,743.1,84.2z M741.8,44.1c-11.2,0-15.7,10.5-15.7,18.1c0,11.9,8.1,20.4,18.4,20.4
			c10.4,0,15.4-9.2,15.4-18.3C759.9,52.4,752.3,44.1,741.8,44.1z"/>
		<path fill="#231F20" d="M804.3,67.9h-1.1c-0.1-3.7-1.5-4.9-4.5-4.9h-11.8v14c0,3.6,0.8,4.9,5.5,4.9v1.2h-15.5v-1.2
			c4-0.3,4.7-1.1,4.7-6.3v-25c0-4.1-0.3-5.9-4.8-6v-1.2h28.6V51h-1.1c-0.1-3.7-1.3-5.2-5.3-5.2h-12.1v15h12.6c2.4,0,3.5-1.3,3.7-4.1
			h1.1V67.9z"/>
	</g>
	<g>
		<path fill="#231F20" d="M389.7,182.8h-24.2v-1.9c6.2-0.3,7.5-1.9,7.5-8.6v-42.5c0-5.4-1.9-6.9-7.5-7.2v-1.9h24.2v1.9
			c-6.3,0-8.5,1.4-8.5,8.1v42.3c0,5.9,1.6,7.9,8.5,7.9V182.8z"/>
		<path fill="#231F20" d="M464.4,183.5l-51.7-54v42.8c0,7.2,1.6,8.7,10.1,8.7v1.9h-23.1v-1.9h0.4c6.2,0,8.2-2.1,8.2-6.7v-49.1
			c-2.3-1.6-4.9-2.4-8.4-2.5v-1.9h15.7l47,49v-39.7c0-6.1-1.8-7.2-9.8-7.4v-1.9h23.3v1.9c-7.5,0-9.1,1.3-9.1,5.2v55.6H464.4z"/>
		<path fill="#231F20" d="M527.5,159h-1.7c-0.2-5.8-2.3-7.6-7.1-7.6h-18.4v21.8c0,5.6,1.2,7.7,8.7,7.7v1.9h-24.2v-1.9
			c6.2-0.4,7.3-1.7,7.3-9.8v-39.1c0-6.4-0.5-9.3-7.5-9.4v-1.9h44.7v11.8h-1.7c-0.1-5.8-2.1-8.2-8.3-8.2h-18.9v23.4H520
			c3.7,0,5.5-2.1,5.8-6.4h1.7V159z"/>
		<path fill="#231F20" d="M576.9,184.4c-19.5,0-36-12.6-36-31.2c0-19.8,15.3-33.9,36.5-33.9c18.8,0,35,12.9,35,30.8
			C612.4,170.3,596.3,184.4,576.9,184.4z M574.8,121.8c-17.5,0-24.5,16.4-24.5,28.3c0,18.6,12.7,31.8,28.7,31.8
			c16.3,0,24-14.4,24-28.5C603.1,134.9,591.3,121.8,574.8,121.8z"/>
		<path fill="#231F20" d="M640,173.5c0,6,2.4,7.5,8,7.5h2.3v1.9h-28.2v-1.9h1.7c5.9,0,8-1.6,8-8.3v-42c0-6.2-1.7-8-7.5-8h-2.2v-1.9
			c2.4,0,8.5-0.4,12.6-0.6c4.1-0.2,6.1-0.3,12.6-0.3c18.4,0,26.7,7.6,26.7,17.7c0,7.5-5.1,13.8-13.3,16.2c3.7,2.9,6.7,5.7,11.4,10.4
			l7.9,7.9c5.9,5.9,12,9.6,19.6,10.1v1.8c-17.4,0.8-21.9-3-30.8-11.9l-6.6-6.6c-4.4-4.4-7.9-7.3-10.3-8.9c-2.5,0.1-4.1,0.2-6.8,0.2
			c-2.2,0-3.5-0.1-5.1-0.2V173.5z M640,154.7c2.4,0.3,3.9,0.2,6.2,0.2c11.1,0,18.4-4.7,18.4-16.7c0-9.3-4.2-16.5-19.5-16.5
			c-1.9,0-3.2,0-5,0.2V154.7z"/>
		<path fill="#231F20" d="M745,182.8l-25.4-53.1h-0.2l-2.7,44.9c-0.3,5.1,3.5,6.2,8,6.4v1.9h-20.7v-1.9c7.3,0,8.2-1.6,8.7-10.7
			l2.4-38.8c0.4-6.6,0.2-8.4-6-8.8v-1.8h15.1l24,50.3l23.9-50.3h14.7v1.8c-4.9,0.4-6.8,0.5-6.6,3.9l3.2,45.2
			c0.6,9.2,1.4,9.2,8.7,9.2v1.9h-25.6v-1.9c4.7,0,9.3-1.3,8.9-6.6l-2.9-44.7h-0.2l-24.8,53.1H745z"/>
		<path fill="#231F20" d="M818.1,155.3l-5.8,15.7c-0.7,1.9-2,4.9-2,6.3c0,2.7,2.6,3.7,8.1,3.7h1.6v1.9h-23v-1.9
			c6.5-0.1,7.6-1.2,10.8-9.9l18.2-49.6l-0.9-2.2h8.7l20.8,55.3c2,5.3,4.1,6.3,9.1,6.3v1.9h-27.4v-1.9h2.6c5.7,0,7.8-0.6,7.8-3.4
			c0-1.6-0.7-3.1-1.1-4.1l-6.7-18.1H818.1z M828.3,127.7l-8.5,23.2H837L828.3,127.7z"/>
		<path fill="#231F20" d="M897.1,173.7c0,5.4,1.8,7.3,7.9,7.3h3.7v1.9h-31.4v-1.9h3.7c6.1,0,7.9-1.9,7.9-7.3v-49.3h-17.3
			c-4,0-5.8,2.3-7.3,11.1h-1.8l1.6-16.2h1.9c0.1,0.6,0.5,1,1.1,1.2c0.6,0.2,1.3,0.3,2,0.3h48c1.4,0,2.9-0.3,3.1-1.5h1.9l1.6,16.2
			h-1.8c-1.5-8.8-3.3-11.1-7.3-11.1h-17.4V173.7z"/>
		<path fill="#231F20" d="M957.9,182.8h-24.2v-1.9c6.2-0.3,7.5-1.9,7.5-8.6v-42.5c0-5.4-1.9-6.9-7.5-7.2v-1.9h24.2v1.9
			c-6.3,0-8.5,1.4-8.5,8.1v42.3c0,5.9,1.6,7.9,8.5,7.9V182.8z"/>
		<path fill="#231F20" d="M1006.1,184.4c-19.5,0-36-12.6-36-31.2c0-19.8,15.3-33.9,36.5-33.9c18.9,0,35,12.9,35,30.8
			C1041.6,170.3,1025.5,184.4,1006.1,184.4z M1004,121.8c-17.6,0-24.5,16.4-24.5,28.3c0,18.6,12.7,31.8,28.7,31.8
			c16.3,0,24-14.4,24-28.5C1032.3,134.9,1020.5,121.8,1004,121.8z"/>
		<path fill="#231F20" d="M1117.1,183.5l-51.7-54v42.8c0,7.2,1.6,8.7,10.1,8.7v1.9h-23.1v-1.9h0.4c6.2,0,8.2-2.1,8.2-6.7v-49.1
			c-2.3-1.6-4.9-2.4-8.4-2.5v-1.9h15.7l47,49v-39.7c0-6.1-1.8-7.2-9.8-7.4v-1.9h23.3v1.9c-7.5,0-9.1,1.3-9.1,5.2v55.6H1117.1z"/>
	</g>
	<g>
		<path fill="#231F20" d="M400.2,273.4c0,5.4,1.8,7.3,7.9,7.3h3.7v1.9h-31.4v-1.9h3.7c6.1,0,7.9-1.9,7.9-7.3v-49.3h-17.4
			c-4,0-5.8,2.3-7.3,11.1h-1.8l1.6-16.1h1.9c0.1,0.6,0.5,1,1.1,1.2c0.6,0.2,1.3,0.3,2,0.3h48c1.4,0,2.9-0.3,3.1-1.5h1.9l1.6,16.1
			h-1.8c-1.5-8.8-3.3-11.1-7.3-11.1h-17.4V273.4z"/>
		<path fill="#231F20" d="M478.6,260.1h-1.9c-0.8-7.1-2.7-7.9-6.8-7.9h-16.9v21.2c0,4.6,1.7,5.5,5.4,5.5h15.4c7,0,9.1-2.7,11.6-11.3
			h1.8l-1.6,14.9h-52.9v-1.9h2.8c8,0,9.4-2.2,9.4-8.2v-42.1c0-5.6-1.3-8-8-8h-2.2v-1.9h47.9l0.8,13.9h-1.8
			c-1.3-8.5-3.8-10.3-7.4-10.3h-21v24.5h17.8c3.6,0,5.3-1.7,5.8-7.5h1.9V260.1z"/>
		<path fill="#231F20" d="M558.3,236.9c-3.3-9.3-11.9-15.4-22.7-15.4c-16.7,0-27,12.1-27,28.8c0,18.1,13,31.3,28.1,31.3
			c7.9,0,17.5-2.7,24.3-14.8h1.9c-1.3,4.5-4,10.7-6.4,14.6c-6.4-0.9-10.8,2.7-22.5,2.7c-20.2,0-34.8-13.4-34.8-31.8
			c0-19.3,15-33.3,35.8-33.3c12.6,0,17.9,4,21,4c1.1,0,1.6-0.3,1.8-0.6h1.5l0.9,14.5H558.3z"/>
		<path fill="#231F20" d="M588.9,252.9v18.9c0,6.5,1.3,8.8,8,8.8h0.3v1.9h-25v-1.9h0.6c5.9,0,7.9-1.6,7.9-7.3v-43.9
			c0-5.2-1.7-6.7-7.2-7.1v-1.9h23.7v1.9c-7.1,0-8.3,1.9-8.3,9.6v17.3H628v-19.6c0-5.3-1.7-7.3-7.9-7.3h-1.9v-1.9h25.6v1.9
			c-6,0.2-7.6,2-7.6,8.2V272c0,7.1,2,8.7,8,8.7h1v1.9h-28.2v-1.9h3.1c6.5,0,7.9-2.3,7.9-7.5v-20.2H588.9z"/>
		<path fill="#231F20" d="M718.4,283.2l-51.7-54V272c0,7.2,1.6,8.7,10.1,8.7v1.9h-23.1v-1.9h0.4c6.2,0,8.2-2.1,8.2-6.7v-49.1
			c-2.3-1.6-4.9-2.4-8.4-2.5v-1.9h15.7l47,49v-39.7c0-6.1-1.8-7.2-9.8-7.4v-1.9H730v1.9c-7.5,0-9.1,1.3-9.1,5.2v55.6H718.4z"/>
		<path fill="#231F20" d="M775.5,284.1c-19.5,0-36-12.6-36-31.2c0-19.8,15.3-33.9,36.5-33.9c18.8,0,35,12.9,35,30.8
			C811,270,794.8,284.1,775.5,284.1z M773.4,221.5c-17.6,0-24.5,16.4-24.5,28.3c0,18.6,12.7,31.8,28.7,31.8c16.3,0,24-14.4,24-28.5
			C801.6,234.6,789.8,221.5,773.4,221.5z"/>
		<path fill="#231F20" d="M865.3,282.5h-44.6v-1.9h3.3c4.6,0,6.3-1.5,6.3-6.6v-44.2c0-5.3-1.6-7.5-7.9-7.5H821v-1.9h29.4v1.9h-3.7
			c-6.5,0-8.2,0.7-8.2,6.9v46c0,2.7,1.1,3.7,4,3.7h14.7c5.9,0,7.7-2.3,14-11h1.8L865.3,282.5z"/>
		<path fill="#231F20" d="M917.5,284.1c-19.5,0-36-12.6-36-31.2c0-19.8,15.3-33.9,36.5-33.9c18.9,0,35,12.9,35,30.8
			C953,270,936.9,284.1,917.5,284.1z M915.4,221.5c-17.6,0-24.5,16.4-24.5,28.3c0,18.6,12.7,31.8,28.7,31.8c16.2,0,24-14.4,24-28.5
			C943.7,234.6,931.9,221.5,915.4,221.5z"/>
		<path fill="#231F20" d="M1025.2,277.8c-9.9,5.1-22.5,6.3-26.7,6.3c-21.8,0-32-16.8-32-31.4c0-15,10.5-33.7,34.8-33.7
			c10.7,0,17.7,3.4,19.8,3.4c0.9,0,1.7-0.2,2.3-0.7h1.4v16.1h-2c-2.7-12.5-11.2-16.4-20.4-16.4c-17.5,0-26.5,14.6-26.5,30.6
			c0,20.4,14.4,29.5,25.8,29.5c4.6,0,9.7-1,15.3-3.8v-12.6c0-5.7-2-7.6-8-7.6h-3.7v-1.8h26.9v1.8c-5,0.3-7,2-7,6.3V277.8z"/>
		<path fill="#231F20" d="M1088.1,229.6c3.2-5.5,1.3-7.2-5.1-7.2v-1.9h22.5v1.9c-6.8,0.5-9.7,3.2-12.5,7.9l-16.5,28v15
			c0,5.3,1.9,7.4,8,7.4h1.3v1.9h-27.4v-1.9h1.9c6.2,0,8-2.3,8-7.2v-14.1l-17.7-27.7c-4.9-7.7-7.2-9.1-13.7-9.3v-1.9h26.5v1.9
			c-7.8,0-8.3,1.9-5.3,6.5l15.9,24.6L1088.1,229.6z"/>
	</g>
</g>
</svg>
