<?xml version="1.0" encoding="utf-8"?>
<!-- Generator: Adobe Illustrator 16.0.3, SVG Export Plug-In . SVG Version: 6.00 Build 0)  -->
<!DOCTYPE svg PUBLIC "-//W3C//DTD SVG 1.1//EN" "http://www.w3.org/Graphics/SVG/1.1/DTD/svg11.dtd">
<svg version="1.1" xmlns="http://www.w3.org/2000/svg" xmlns:xlink="http://www.w3.org/1999/xlink" x="0px" y="0px" width="192px"
	 height="100px" viewBox="0 0 192 100" enable-background="new 0 0 192 100" xml:space="preserve">
<g id="guides">
</g>
<g id="Layer_2">
	<g>
		<g>
			<g>
				<g>
					<circle fill="#FFFFFF" cx="38.257" cy="49.842" r="12.646"/>
				</g>
				<path fill="#FFD420" d="M50.9,49.561c0,0.059-0.225,0.246-0.464,0.389c-0.007,0.004-0.01,0.01-0.017,0.014
					c-0.33,0.177-0.79,0.341-1.364,0.494c-0.591,0.158-1.321,0.299-2.121,0.42c-0.802,0.125-1.694,0.217-2.657,0.301l0,0
					c-1.229,0.106-2.005,0.156-2.984,0.207c-1.043,0.04-2.126,0.064-3.225,0.063c0,0.141,0,0.281,0,0.42
					c0.002,0.99,0.005,1.93,0.012,2.818c0.021,4.854,0.03,4.852,0.176,7.805c6.984,0,12.646-5.662,12.646-12.648
					C50.902,49.842,50.9,49.662,50.9,49.561z"/>
				<polygon fill="#231F20" points="42.964,61.18 42.964,61.179 42.964,61.18 				"/>
				<g>
					<path fill="#231F20" d="M38.068,51.867c0.002,0.99,0.005,1.93,0.012,2.818c2.024,1.916,2.024,1.916,2.868,2.763
						c0.226-1.604,0.348-3.524,0.348-5.646c-0.003-0.141-0.003-0.278-0.003-0.418c-1.282,0.047-2.126,0.064-3.225,0.063
						C38.068,51.588,38.068,51.729,38.068,51.867z"/>
					<path fill="#231F20" d="M42.709,59.611c-0.44-0.724-0.849-1.19-1.763-2.154c-0.429,3.076-1.197,4.975-2.14,5.013
						c0.079-0.003,0.201-0.006,0.281-0.012c0.101-0.008,0.228-0.02,0.325-0.026C40.724,62.316,41.851,61.308,42.709,59.611z"/>
					<path fill="#231F20" d="M44.129,54.448c0-0.021-0.731,3.798-1.42,5.163c0.398,0.762,0.415,1.063,0.255,1.567
						c1.229-0.93,2.239-2.336,2.938-4.077C45.456,56.189,45.151,55.707,44.129,54.448z"/>
					<path fill="#231F20" d="M40.508,62.291c0.274-0.045,0.258-0.054,0.767-0.169l0.303-0.086c0.938-0.29,1.099-0.439,1.392-0.87
						c-0.837,0.63-1.728,1.015-2.724,1.165L40.508,62.291z"/>
					<path fill="#231F20" d="M46.126,59.189c1.823-2.068,2.937-4.987,2.933-8.313c0-0.141,0-0.279-0.003-0.42
						c-0.591,0.158-1.321,0.299-2.121,0.42c0.015,0.138,0.017,0.282,0.017,0.423c0.002,2.164-0.363,4.133-1.033,5.792
						C46.293,58.059,46.3,58.461,46.126,59.189z"/>
					<path fill="#231F20" d="M44.277,51.178c-1.229,0.106-2.005,0.156-2.984,0.207c1.732,1.798,2.104,2.22,2.836,3.063
						c0.102-0.896,0.155-1.845,0.155-2.838C44.281,51.467,44.281,51.319,44.277,51.178z"/>
				</g>
				<path fill="#231F20" d="M35.485,37.851c0.705-0.284,1.378-0.582,2.744-0.659l0,0C37.307,37.276,36.339,37.534,35.485,37.851"/>
				<g>
					<path fill="#E03A3E" d="M46.724,50.875c-0.656-0.084-1.209-1.202-0.921-2.334c-0.924,0.64-1.969-0.672-1.812-1.893
						c0.077-0.64,0.499-1.214,1.237-0.953c-0.3-1.022-0.673-2.001-1.115-2.896c-0.649,0.08-1.369,0.15-2.129,0.204
						c0.675,1.022,0.012,1.974-0.935,1.82c-0.68-0.111-1.317-0.825-1.14-1.681c-0.556,0.385-1.692,0.23-1.8-0.977
						c-0.028,2.571-0.047,5.858-0.042,9.28c3.36,0.034,7.299-0.326,8.866-0.57c0,0,0,0.006,0,0
						C46.871,50.883,46.785,50.884,46.724,50.875z"/>
				</g>
				<g>
					<path fill="#E03A3E" d="M30.083,53.415c0.942-0.366,2.126,1.262,1.713,2.347c-0.194,0.503-0.688,0.642-1.204,0.34
						c0.278,0.948,0.642,1.816,1.073,2.582c0.663,0.092,1.413,0.171,2.231,0.232c-0.656-0.809-0.129-1.47,0.747-1.424
						c0.746,0.039,1.744,0.663,1.528,1.52c0.678-0.309,1.819-0.061,1.957,0.819c-0.032-1.896-0.052-4.68-0.059-7.964
						c0-0.145-0.002-0.274-0.002-0.42c-1.066,0.004-2.149-0.037-3.223-0.083c-2.288-0.092-3.844-0.223-5.757-0.55
						c0,0.007,0-0.007,0,0C30.071,51.143,30.339,52.605,30.083,53.415z"/>
				</g>
				<path fill="#E03A3E" d="M44.246,41.761L44.246,41.761L44.246,41.761c0.003,0,0.008-0.002,0.012-0.002h-0.002
					c0,0,0.005,0,0.01-0.002c0.121-0.017,0.234-0.037,0.347-0.059c0.724-0.131,2.369-0.525,2.369-1.001c0,0,0.64,0.642,1.113,1.541
					c0.057,0.098,0.094,0.185,0.146,0.325c0.054,0.161,0.089,0.348,0.084,0.432c-0.021,0.271-0.196,0.277-0.377,0.199
					c-0.017-0.004-0.037-0.013-0.057-0.025c-0.651-0.291-0.864-0.889-0.988-1.133c-0.333,0.104-0.877,0.344-1.329,0.429
					c-0.059,0.012-0.152,0.031-0.206,0.043c0.534,0.885,1.045,1.935,1.41,2.953c0.636-0.651,1.634,0.561,1.684,1.736
					c0.027,0.687-0.281,1.302-0.912,1.078c0.502,0.934,0.345,2.305-0.614,2.602c-0.159-3.07-0.682-5.789-2.7-9.108l0,0l0,0"/>
				<path fill="#E03A3E" d="M44.234,41.769L44.234,41.769L44.234,41.769L44.234,41.769L44.234,41.769
					c-1.61-2.461-2.88-3.355-4.517-3.998c-0.325-0.129-1.43-0.562-1.488-0.579l0.005,0.013l0,0c0.288,0.421,0.867,0.669,0.989,0.709
					c-0.035,0.15-0.007,0.458,0.522,0.844c0.085,0.058,0.169,0.107,0.244,0.146c0.82,0.427,1.001,0.094,1.04-0.039
					c0.008-0.005,0.012-0.008,0.015-0.014c0.251,0.188,0.74,0.582,1.279,1.188c0.31,0.378,0.604,0.698,0.827,1.027
					c-0.511,0.063-1.184,0.125-1.852,0.17c-0.037-0.807-0.616-1.206-0.984-1.344c-0.801-0.298-1.063,0.643-0.715,1.305
					c-0.633-0.34-1.387-0.037-1.49,0.97C40.616,42.148,42.331,42.036,44.234,41.769L44.234,41.769L44.234,41.769"/>
				<path fill="#E03A3E" d="M44.39,39.474c-0.005-0.007-0.01-0.05-0.003-0.084c0.005-0.034,0.035-0.063,0.035-0.063
					s0.015-0.033,0.063-0.061c0.127-0.076,0.509-0.113,1.568,0.622c-2.194-1.725-4.555-2.434-6.559-2.634
					c-0.281-0.032-0.806-0.051-0.806-0.051c0.635,0.053,1.068,0.224,1.169,0.26c0.085,0.031,0.148,0.072,0.188,0.105
					c0.005-0.001,0.008-0.001,0.008-0.001c0.124,0.013,0.271,0.038,0.449,0.092c0.195,0.054,0.523,0.176,0.813,0.313
					c0.291,0.137,0.72,0.443,0.725,0.617c-0.065,0.039-0.085,0.054-0.286,0c0.75,0.533,1.823,1.541,2.456,2.282
					c0.437-0.085,1.086-0.176,1.388-0.28C45.578,40.615,44.605,39.889,44.39,39.474z"/>
				<path fill="#E03A3E" d="M31.536,59.383c-1.085-0.193-1.709-0.359-2.128-0.572c-0.068-0.035-0.089-0.035-0.105-0.037
					c-0.007-0.001-0.616-0.628-1.153-1.32c-0.39-0.505-0.713-1.07-0.748-1.125c0.003,0.006,0.085,0,0.141,0.019
					c0.565,0.186,1.451,1.737,1.463,1.758c0.354,0.128,0.811,0.247,1.361,0.361c-0.518-0.782-0.956-1.661-1.286-2.616
					c-0.792,0.395-1.798-1.686-1.477-2.563c0.063-0.183,0.271-0.56,0.809-0.152c-0.408-0.931-0.296-2.321,0.677-2.319
					C29.11,53.886,29.532,56.537,31.536,59.383"/>
				<path fill="#E03A3E" d="M38.115,60.01c-0.112,0.442-0.727,0.86-1.597,0.504c0.41,0.54,0.057,1.001-0.658,0.87
					c-0.556-0.101-1.217-0.546-1.268-0.993c-0.688-0.055-1.317-0.119-1.878-0.197c0.532,0.618,1.125,1.118,1.763,1.495
					c0.077-0.031,0.197-0.028,0.574,0.109c0.485,0.172,0.949,0.395,1.43,0.566l-0.101-0.012c-0.366-0.061-0.457-0.078-0.663-0.119
					c-0.931-0.187-2.551-0.715-4.182-2.851l0,0l0,0l0,0c1.962,0.305,3.877,0.438,6.593,0.45
					C38.127,59.891,38.127,59.962,38.115,60.01"/>
				<path fill="#FFD420" d="M38.229,37.191c-6.782,0-12.487,5.536-12.618,12.405l0.002,0.015c0.007,0.02,0.068,0.147,0.338,0.313
					l0,0l0,0c0.265,0.166,0.658,0.345,1.176,0.48c0.645,0.166,1.322,0.3,1.95,0.408l0.012,0.002c1.913,0.327,3.469,0.458,5.757,0.55
					c1.073,0.046,2.156,0.087,3.223,0.083c-0.003-0.646-0.007-4.316,0.023-7.866c0.002-0.457,0.009-0.936,0.019-1.414
					C38.136,39.854,38.188,37.501,38.229,37.191L38.229,37.191z"/>
				<path fill="#231F20" d="M44.286,60.958c-0.713,0.404-0.854,0.416-1.812,0.808c-0.268,0.111-0.519,0.174-0.795,0.253
					c1.706-0.459,4.041-2.367,4.451-2.831c-0.206,0.461-0.365,0.763-0.869,1.168C45.125,60.469,44.523,60.83,44.286,60.958z"/>
				<path fill="#231F20" d="M27.127,50.404c-0.524-0.131-0.911-0.314-1.176-0.48c0.141-4.576,2.684-8.631,6.384-10.858
					c-0.874,0.779-1.266,1.243-1.703,2.293C28.553,43.743,27.226,46.955,27.127,50.404"/>
				<path fill="#231F20" d="M32.35,39.057c0.926-0.669,1.453-1.155,2.927-1.508c1.027-0.25,1.934-0.355,2.953-0.357l0,0
					C36.097,37.285,34.093,38.013,32.35,39.057"/>
				<path fill="#231F20" d="M31.672,51.161c-0.926-0.089-1.8-0.211-2.583-0.347c0.052-2.293,0.53-4.489,1.362-6.438
					c0.321,1.28,0.593,1.966,1.493,3.481C31.787,48.928,31.69,50.035,31.672,51.161"/>
				<path fill="#231F20" d="M38.11,42.167c-0.017,1.389-0.021,2.822-0.025,3.927c-0.01,1.096-0.015,1.886-0.015,2.042
					c-1.244-1.305-1.91-2.037-2.821-3.19c0.613-3.932,1.718-7.042,2.98-7.754l0,0l0,0C38.186,37.568,38.136,39.798,38.11,42.167z"/>
				<g>
					<path fill="#231F20" d="M33.669,42.015c-0.792,1.674-1.385,3.681-1.716,5.841c0.773,1.147,1.252,1.82,2.794,3.503
						c0.017-2.255,0.199-4.451,0.504-6.423C34.33,43.674,34.034,43.073,33.669,42.015z"/>
				</g>
				<path fill="#231F20" stroke="#231F20" stroke-width="0" stroke-linecap="round" stroke-linejoin="round" d="M50.42,49.963
					c0.005,0.138,0.01,0.277,0.01,0.418c0.004,4.471-2.18,8.191-5.598,10.254l-0.091,0.066c1.61-0.985,3.638-2.656,4.927-5.41
					c1.385-2.723,1.232-5.73,1.232-5.73C50.83,49.684,50.629,49.842,50.42,49.963z"/>
				<g>
					<path fill="#231F20" d="M35.485,37.851c-1.847,0.723-3.511,1.963-4.852,3.506c-0.37,1.148-0.368,1.791-0.183,3.02
						c0.82-1.918,1.966-3.578,3.318-4.821C34.189,38.834,34.449,38.4,35.485,37.851z"/>
				</g>
				<path fill="#231F20" d="M33.664,42.024c-0.225-1.035-0.246-1.561,0.104-2.457c1.319-1.221,2.843-2.122,4.462-2.376
					C36.456,37.669,34.848,39.531,33.664,42.024"/>
				<path fill="#231F20" d="M23.007,40.464l0.073,0.035c-0.12,0.261-0.066,0.403,0.18,0.521l1.031,0.515
					c0.474,0.234,0.83,0.785,0.42,1.616c-0.363,0.727-0.963,0.893-1.507,0.626l-1.113-0.553c-0.244-0.123-0.316-0.071-0.455,0.184
					l-0.07-0.035l0.49-0.982l0.072,0.035l-0.019,0.035c-0.105,0.21-0.092,0.332,0.124,0.443l1.064,0.525
					c0.518,0.258,0.975,0.108,1.256-0.463c0.211-0.434,0.251-0.958-0.394-1.281l-0.891-0.441c-0.368-0.182-0.459-0.156-0.633,0.156
					l-0.072-0.035L23.007,40.464z"/>
				<path fill="#231F20" d="M27.418,39.2l-3.183,0.199l1.395,1.18c0.231,0.194,0.328,0.188,0.56-0.092l0.062,0.053l-0.638,0.758
					l-0.061-0.055l0.014-0.015c0.169-0.199,0.152-0.319,0.007-0.449l-1.605-1.348c-0.117,0.03-0.213,0.093-0.312,0.203l-0.061-0.056
					l0.431-0.507l2.89-0.188L25.62,37.79c-0.196-0.164-0.283-0.139-0.506,0.118l-0.068-0.056l0.645-0.759l0.062,0.053
					c-0.207,0.246-0.207,0.331-0.078,0.437l1.816,1.533L27.418,39.2z"/>
				<path fill="#231F20" d="M28.972,37.83l-0.797,0.658l-0.054-0.061c0.197-0.177,0.194-0.263,0.015-0.483l-1.161-1.396
					c-0.147-0.177-0.248-0.176-0.445-0.034l-0.047-0.064l0.793-0.659l0.056,0.06c-0.208,0.174-0.243,0.279-0.061,0.499l1.153,1.394
					c0.161,0.189,0.27,0.213,0.494,0.025L28.972,37.83z"/>
				<path fill="#231F20" d="M30.538,36.854l-1.962-1.521c-0.226-0.179-0.303-0.208-0.527-0.079l-0.045-0.069l1.015-0.592
					l0.038,0.069c-0.331,0.206-0.366,0.335-0.199,0.458l1.629,1.259l-0.308-1.856c-0.023-0.123-0.042-0.214-0.072-0.26
					c-0.065-0.112-0.181-0.104-0.434,0.04l-0.04-0.071l0.854-0.496l0.042,0.07c-0.194,0.109-0.241,0.256-0.197,0.534l0.392,2.407
					L30.538,36.854z"/>
				<path fill="#231F20" d="M33.667,34.355l-0.075,0.023c-0.132-0.272-0.216-0.28-0.385-0.221l-0.68,0.234l0.296,0.856
					c0.065,0.186,0.145,0.201,0.295,0.145l0.619-0.213c0.281-0.096,0.33-0.232,0.312-0.613l0.072-0.023l0.141,0.621l-2.138,0.737
					l-0.025-0.079l0.115-0.039c0.32-0.111,0.347-0.217,0.26-0.461l-0.584-1.695c-0.077-0.228-0.164-0.309-0.436-0.211l-0.084,0.029
					l-0.028-0.079l1.934-0.665l0.225,0.546l-0.075,0.029c-0.168-0.323-0.293-0.363-0.438-0.314l-0.849,0.293l0.34,0.991l0.722-0.248
					c0.146-0.051,0.188-0.143,0.129-0.383l0.077-0.023L33.667,34.355z"/>
				<path fill="#231F20" d="M35.284,32.296c0.074-0.018,0.133-0.025,0.208-0.033c0.656-0.075,0.872,0.206,0.914,0.598
					c0.063,0.508-0.223,0.742-0.693,0.801c-0.099,0.009-0.157,0.023-0.261,0.022L35.284,32.296z M35.457,33.766
					c0.07-0.005,0.127-0.007,0.218-0.021c0.115-0.01,0.184-0.023,0.289-0.041c0.109,0.057,0.27,0.161,0.478,0.323l0.314,0.247
					c0.422,0.334,0.63,0.471,1.368,0.346l-0.009-0.074c-0.333,0.02-0.607-0.106-0.886-0.326l-0.373-0.298
					c-0.225-0.176-0.363-0.278-0.534-0.381c0.333-0.144,0.516-0.435,0.478-0.753c-0.047-0.428-0.436-0.707-1.221-0.616
					c-0.274,0.032-0.361,0.048-0.532,0.076c-0.173,0.028-0.429,0.077-0.529,0.085l0.009,0.083l0.092-0.013
					c0.244-0.028,0.328,0.038,0.358,0.303l0.214,1.779c0.032,0.282-0.05,0.363-0.298,0.393l-0.07,0.011l0.007,0.078l1.197-0.142
					l-0.009-0.08l-0.099,0.011c-0.234,0.029-0.345-0.024-0.375-0.278L35.457,33.766z"/>
				<path fill="#231F20" d="M38.731,34.011c0.061,0.383,0.342,0.627,0.67,0.65c0.286,0.024,0.601-0.116,0.626-0.453
					c0.05-0.611-1.301-0.905-1.239-1.648c0.025-0.352,0.367-0.589,0.804-0.557c0.358,0.027,0.419,0.143,0.569,0.151
					c0.033,0.003,0.049-0.002,0.077-0.036l0.068,0.004l0.032,0.547l-0.072-0.007c-0.099-0.315-0.352-0.532-0.646-0.552
					c-0.279-0.023-0.488,0.12-0.507,0.36c-0.044,0.601,1.304,0.872,1.242,1.653c-0.03,0.416-0.427,0.699-0.926,0.658
					c-0.229-0.022-0.521-0.16-0.576-0.164c-0.04,0-0.07,0.019-0.092,0.041l-0.072-0.006l-0.038-0.649L38.731,34.011z"/>
				<path fill="#231F20" d="M42.008,35.125l-1.01-0.22l0.017-0.079c0.26,0.044,0.33-0.011,0.387-0.288l0.387-1.776
					c0.051-0.222-0.012-0.302-0.246-0.363l0.019-0.081l1.013,0.222l-0.02,0.075c-0.26-0.055-0.365-0.016-0.424,0.262l-0.385,1.767
					c-0.056,0.246-0.004,0.343,0.281,0.401L42.008,35.125z"/>
				<path fill="#231F20" d="M44.155,35.43c-0.085,0.215-0.045,0.316,0.199,0.415l0.143,0.059l-0.028,0.076l-1.247-0.496l0.033-0.074
					l0.146,0.054c0.241,0.101,0.342,0.053,0.427-0.161l0.773-1.954l-0.688-0.276c-0.159-0.063-0.267,0-0.464,0.325l-0.072-0.029
					l0.318-0.615l0.077,0.032c-0.007,0.024,0.005,0.044,0.021,0.064c0.025,0.013,0.049,0.031,0.075,0.042l1.908,0.753
					c0.054,0.022,0.119,0.034,0.147-0.01L46,33.665l-0.195,0.667l-0.07-0.03c0.082-0.372,0.047-0.492-0.114-0.556l-0.687-0.271
					L44.155,35.43z"/>
				<path fill="#231F20" d="M48.496,35.708c0.243-0.116,0.213-0.221-0.015-0.373l0.05-0.069l0.799,0.537l-0.049,0.067
					c-0.251-0.144-0.418-0.119-0.626-0.021l-1.254,0.605l-0.354,0.531c-0.126,0.188-0.107,0.304,0.108,0.448l0.044,0.031
					l-0.044,0.07l-0.973-0.652l0.042-0.066l0.068,0.048c0.22,0.144,0.34,0.105,0.452-0.067l0.337-0.497l0.026-1.406
					c0.012-0.39-0.04-0.495-0.265-0.659l0.042-0.065l0.944,0.628l-0.042,0.067c-0.276-0.181-0.343-0.126-0.345,0.104l-0.017,1.258
					L48.496,35.708z"/>
				<path fill="#231F20" d="M52.012,40.782c-0.48,0.369-1.168,0.477-1.59-0.079c-0.414-0.541-0.297-1.313,0.333-1.798
					c0.413-0.312,1.146-0.494,1.601,0.103C52.785,39.565,52.645,40.304,52.012,40.782z M52.367,41.017
					c0.609-0.463,0.629-1.345,0.139-1.988c-0.549-0.721-1.423-0.875-2.098-0.363c-0.633,0.485-0.633,1.367-0.124,2.033
					C50.783,41.356,51.684,41.54,52.367,41.017z"/>
				<path fill="#231F20" d="M53.261,43.68l-0.03-0.064c0.22-0.116,0.25-0.23,0.161-0.417l-0.34-0.707l-0.841,0.398
					c-0.219,0.102-0.274,0.191-0.134,0.48L52,43.403l-0.445-0.938l0.072-0.035c0.131,0.235,0.201,0.251,0.511,0.1l1.507-0.715
					c0.246-0.119,0.35-0.193,0.226-0.462l0.075-0.034l0.817,1.723l-0.452,0.217l-0.03-0.064c0.223-0.109,0.274-0.235,0.161-0.471
					l-0.347-0.729l-0.904,0.428l0.365,0.763c0.068,0.143,0.181,0.173,0.352,0.105l0.033,0.064L53.261,43.68z"/>
				<path fill="#231F20" d="M23.438,60.353l1.537-2.829l-0.007-0.012l-2.069,1.324c-0.239,0.148-0.164,0.352-0.03,0.556l-0.08,0.06
					l-0.666-0.918l0.082-0.059c0.237,0.322,0.336,0.309,0.75,0.041l1.791-1.139c0.3-0.189,0.375-0.257,0.194-0.543l0.077-0.063
					l0.485,0.666l-1.446,2.674l2.986-0.554l0.467,0.65l-0.075,0.057c-0.174-0.203-0.241-0.285-0.385-0.164l-1.898,1.589
					c-0.384,0.319-0.354,0.353-0.124,0.673l-0.087,0.066l-0.815-1.135l0.08-0.061c0.149,0.209,0.354,0.367,0.576,0.179l1.882-1.557
					l-0.005-0.012l-3.147,0.611L23.438,60.353z"/>
				<path fill="#231F20" d="M28.834,63.296l-0.762-0.557l1.125-0.75L28.834,63.296z M28.766,63.545l-0.295,1.015
					c-0.015,0.053-0.03,0.146-0.082,0.215c-0.092,0.119-0.204,0.08-0.455-0.103l-0.11-0.087l-0.065,0.085l1.207,0.888l0.059-0.084
					c-0.216-0.159-0.276-0.27-0.189-0.57l0.872-3.105l-0.383-0.281l-0.03,0.126l-2.402,1.594c-0.42,0.278-0.506,0.286-0.79,0.081
					l-0.065,0.088l1.015,0.744l0.063-0.086l-0.07-0.051c-0.239-0.176-0.323-0.305-0.239-0.424c0.045-0.062,0.202-0.15,0.291-0.211
					l0.764-0.5L28.766,63.545z"/>
				<path fill="#231F20" d="M32.256,63.466c0.099,0.021,0.164,0.049,0.26,0.082c0.792,0.284,0.874,0.726,0.706,1.203
					c-0.219,0.615-0.68,0.723-1.247,0.524c-0.117-0.043-0.197-0.066-0.316-0.126L32.256,63.466z M31.623,65.245
					c0.082,0.035,0.146,0.066,0.26,0.104c0.139,0.049,0.226,0.071,0.352,0.112c0.092,0.13,0.223,0.341,0.37,0.646l0.214,0.459
					c0.298,0.615,0.457,0.894,1.371,1.172l0.032-0.093c-0.384-0.164-0.633-0.467-0.827-0.876l-0.26-0.548
					c-0.157-0.327-0.258-0.525-0.394-0.741c0.461,0.023,0.839-0.205,0.975-0.59c0.188-0.525-0.101-1.063-1.05-1.404
					c-0.338-0.113-0.443-0.145-0.656-0.212c-0.211-0.065-0.53-0.151-0.654-0.198l-0.035,0.096l0.112,0.04
					c0.296,0.106,0.354,0.233,0.239,0.552l-0.764,2.155c-0.127,0.344-0.263,0.388-0.563,0.28l-0.089-0.03l-0.035,0.096l1.453,0.521
					l0.035-0.101l-0.122-0.039c-0.284-0.104-0.382-0.226-0.272-0.53L31.623,65.245z"/>
				<path fill="#231F20" d="M37.801,65.135c0.199-0.283,0.105-0.386-0.241-0.417l0.005-0.105l1.228,0.105l-0.007,0.104
					c-0.375-0.003-0.546,0.13-0.717,0.371l-1.029,1.451l-0.07,0.812c-0.025,0.284,0.068,0.408,0.401,0.436l0.07,0.008L37.429,68
					l-1.488-0.123l0.007-0.104l0.103,0.006c0.338,0.029,0.445-0.085,0.467-0.353l0.065-0.764l-0.837-1.593
					c-0.227-0.438-0.349-0.525-0.7-0.566l0.012-0.103l1.443,0.125l-0.012,0.103c-0.422-0.038-0.459,0.065-0.316,0.33l0.755,1.411
					L37.801,65.135z"/>
				<path fill="#231F20" d="M42.324,67.575l-2.402,0.408l-0.012-0.103l0.176-0.032c0.249-0.039,0.323-0.138,0.279-0.408
					l-0.405-2.377c-0.045-0.285-0.15-0.388-0.492-0.333l-0.073,0.016l-0.017-0.103l1.585-0.271l0.017,0.102l-0.199,0.034
					c-0.35,0.063-0.437,0.112-0.375,0.449l0.417,2.47c0.021,0.145,0.089,0.192,0.248,0.166l0.788-0.134
					c0.313-0.056,0.391-0.193,0.651-0.716l0.096-0.021L42.324,67.575z"/>
				<path fill="#231F20" d="M44.922,64.857l-0.867,0.362l-0.062-1.347L44.922,64.857z M45.1,65.042l0.722,0.772
					c0.04,0.046,0.108,0.104,0.141,0.187c0.057,0.14-0.032,0.216-0.321,0.333l-0.131,0.055l0.037,0.094l1.383-0.573l-0.039-0.101
					c-0.251,0.105-0.378,0.101-0.589-0.12l-2.215-2.349l-0.438,0.181l0.094,0.092l0.127,2.876c0.023,0.508-0.01,0.584-0.331,0.725
					l0.035,0.097l1.163-0.486l-0.037-0.098l-0.085,0.036c-0.274,0.116-0.427,0.123-0.482-0.012c-0.03-0.071-0.028-0.251-0.03-0.362
					l-0.038-0.909L45.1,65.042z"/>
				<path fill="#231F20" d="M50.992,62.935l-4.055-0.479l1.488,1.801c0.248,0.301,0.365,0.31,0.724,0.014l0.063,0.08l-0.971,0.805
					l-0.063-0.084l0.012-0.009c0.262-0.215,0.273-0.376,0.112-0.565L46.6,62.432c-0.152,0.011-0.288,0.069-0.438,0.184l-0.067-0.078
					l0.658-0.543l3.68,0.428l-1.378-1.675c-0.211-0.252-0.328-0.235-0.668,0.032l-0.065-0.078l0.981-0.811l0.063,0.077
					c-0.314,0.259-0.338,0.37-0.201,0.532l1.934,2.345L50.992,62.935z"/>
				<path fill="#231F20" d="M50.192,58.74c0.03-0.057,0.099-0.185,0.221-0.375c0.412-0.643,0.782-0.858,1.127-0.932
					c0.445-0.102,0.884,0.044,1.219,0.267c0.474,0.3,0.691,0.743,0.743,1.017c0.101,0.467,0.021,0.78-0.373,1.392
					c-0.234,0.36-0.307,0.334-0.494,0.212L50.192,58.74z M52.307,60.646c0.268,0.171,0.263,0.332,0.101,0.578l-0.049,0.079
					l0.084,0.055l0.947-1.461c0.747-1.16,0.267-2.229-0.425-2.672c-0.752-0.491-1.715-0.351-2.493,0.853
					c-0.152,0.238-0.326,0.521-0.483,0.78c-0.152,0.258-0.288,0.485-0.389,0.659l0.092,0.062l0.054-0.097
					c0.176-0.267,0.3-0.296,0.595-0.108L52.307,60.646z"/>
				<path fill="#231F20" d="M20.799,48.782v2.326c0,0.126,0.028,0.157,0.15,0.157h0.229v0.074h-1.017v-0.074h0.22
					c0.129,0,0.155-0.037,0.155-0.158v-2.004c-0.132,0.11-0.356,0.259-0.507,0.327L20,49.378c0.232-0.161,0.567-0.46,0.661-0.596
					H20.799z"/>
				<path fill="#231F20" d="M23.129,50.768c0,0.315-0.229,0.555-0.534,0.555c-0.308,0-0.534-0.25-0.534-0.594
					c0-0.259,0.138-0.464,0.417-0.606C22.941,50.334,23.129,50.503,23.129,50.768z M23.303,49.359c0-0.321-0.324-0.577-0.723-0.577
					c-0.4,0-0.733,0.296-0.733,0.648c0,0.271,0.176,0.481,0.551,0.65c-0.396,0.152-0.586,0.374-0.586,0.656
					c0,0.369,0.345,0.658,0.776,0.658c0.454,0,0.801-0.322,0.801-0.739c0-0.31-0.183-0.521-0.606-0.709
					C23.136,49.807,23.303,49.618,23.303,49.359z M23.063,49.354c0,0.231-0.115,0.418-0.338,0.559
					c-0.522-0.222-0.638-0.387-0.638-0.604c0-0.253,0.216-0.451,0.49-0.451C22.859,48.857,23.063,49.068,23.063,49.354z"/>
				<path fill="#231F20" d="M53.186,49.068h0.951c0.073,0,0.099-0.014,0.12-0.052h0.075l-0.045,0.311h-1.015l-0.03,0.724
					c0.119-0.068,0.267-0.104,0.429-0.104c0.452,0,0.825,0.377,0.825,0.83c0,0.487-0.406,0.858-0.942,0.858
					c-0.321,0-0.589-0.111-0.589-0.252c0-0.067,0.062-0.129,0.134-0.129c0.216,0,0.293,0.282,0.544,0.282
					c0.3,0,0.553-0.309,0.553-0.676c0-0.371-0.253-0.646-0.6-0.646c-0.146,0-0.307,0.056-0.424,0.159l-0.04-0.028L53.186,49.068z"/>
				<path fill="#231F20" d="M56.246,50.861c0,0.456-0.191,0.704-0.473,0.704c-0.254,0-0.551-0.217-0.551-0.896
					c0-0.136,0.012-0.195,0.023-0.25c0.246-0.195,0.426-0.242,0.529-0.242C56.047,50.178,56.246,50.429,56.246,50.861z
					 M56.272,49.017c-0.842,0.235-1.348,0.825-1.348,1.569c0,0.621,0.345,1.05,0.844,1.05c0.427,0,0.78-0.37,0.78-0.81
					c0-0.416-0.318-0.742-0.71-0.742c-0.199,0-0.354,0.063-0.572,0.23c0.087-0.585,0.422-0.98,1.046-1.24L56.272,49.017z"/>
			</g>
		</g>
		<g>
			<path d="M66.369,34.368c0-0.556-0.146-0.693-0.649-0.693h-0.171v-0.162c0.316-0.017,0.735-0.033,1.205-0.052
				c0.47-0.017,0.991-0.023,1.436-0.023c2.257,0,3.257,1.144,3.257,2.555c0,1.289-1,2.836-3.162,2.836h-2.735v-0.161h0.146
				c0.462,0,0.675-0.129,0.675-0.624V34.368z M67.079,38.195c0,0.352,0.025,0.472,0.701,0.472c1.144,0,1.623-0.162,2.152-0.691
				c0.316-0.31,0.711-0.966,0.711-1.848c0-0.633-0.181-1.333-0.685-1.837c-0.394-0.394-1-0.691-2.196-0.691
				c-0.351,0-0.581,0.025-0.684,0.032V38.195z"/>
			<path d="M74.38,38.828h-2.075v-0.161c0.528-0.026,0.64-0.162,0.64-0.736v-3.64c0-0.462-0.162-0.591-0.64-0.616v-0.162h2.075
				v0.162c-0.537,0-0.727,0.119-0.727,0.693v3.623c0,0.504,0.138,0.676,0.727,0.676V38.828z"/>
			<path d="M77.493,38.964l-1.854-4.621c-0.213-0.539-0.316-0.668-0.838-0.668v-0.162h2.35v0.162
				c-0.785,0.019-0.974,0.196-0.811,0.59l1.537,3.83l1.352-3.529c0.094-0.239,0.146-0.41,0.146-0.53c0-0.258-0.214-0.36-0.796-0.36
				v-0.162h1.982v0.162c-0.443,0-0.675,0.206-0.88,0.735l-1.76,4.554H77.493z"/>
			<path d="M83.111,38.828h-2.077v-0.161c0.53-0.026,0.642-0.162,0.642-0.736v-3.64c0-0.462-0.163-0.591-0.642-0.616v-0.162h2.077
				v0.162c-0.539,0-0.727,0.119-0.727,0.693v3.623c0,0.504,0.137,0.676,0.727,0.676V38.828z"/>
			<path d="M84.035,37.53c0.18,0.759,0.777,1.204,1.444,1.204c0.571,0,1.179-0.333,1.179-1.008c0-1.23-2.743-1.607-2.743-3.103
				c0-0.708,0.649-1.238,1.522-1.238c0.717,0,0.862,0.214,1.161,0.214c0.067,0,0.102-0.019,0.153-0.087h0.137l0.146,1.085h-0.146
				c-0.238-0.614-0.786-1.008-1.375-1.008c-0.564,0-0.958,0.326-0.958,0.804c0,1.215,2.743,1.538,2.743,3.11
				c0,0.837-0.742,1.46-1.742,1.46c-0.471,0-1.068-0.229-1.188-0.229c-0.077,0-0.137,0.042-0.171,0.094h-0.146l-0.179-1.298H84.035z
				"/>
			<path d="M90.146,38.828h-2.075v-0.161c0.528-0.026,0.64-0.162,0.64-0.736v-3.64c0-0.462-0.161-0.591-0.64-0.616v-0.162h2.075
				v0.162c-0.537,0-0.725,0.119-0.725,0.693v3.623c0,0.504,0.137,0.676,0.725,0.676V38.828z"/>
			<path d="M94.071,38.964c-1.675,0-3.084-1.075-3.084-2.674c0-1.699,1.307-2.904,3.128-2.904c1.614,0,2.999,1.102,2.999,2.64
				C97.114,37.753,95.729,38.964,94.071,38.964z M93.893,33.6c-1.505,0-2.103,1.401-2.103,2.426c0,1.599,1.085,2.726,2.461,2.726
				c1.394,0,2.061-1.23,2.061-2.442C96.312,34.718,95.302,33.6,93.893,33.6z"/>
			<path d="M103.374,38.89l-4.428-4.632v3.666c0,0.614,0.138,0.743,0.864,0.743v0.161h-1.983v-0.161h0.034
				c0.53,0,0.701-0.181,0.701-0.572V33.89c-0.197-0.138-0.419-0.206-0.719-0.215v-0.162h1.342l4.025,4.197v-3.402
				c0-0.521-0.153-0.614-0.838-0.633v-0.162h2.001v0.162c-0.642,0-0.778,0.112-0.778,0.445v4.77H103.374z"/>
			<path d="M110.438,38.964c-1.675,0-3.085-1.075-3.085-2.674c0-1.699,1.308-2.904,3.128-2.904c1.615,0,3,1.102,3,2.64
				C113.48,37.753,112.096,38.964,110.438,38.964z M110.259,33.6c-1.505,0-2.104,1.401-2.104,2.426c0,1.599,1.085,2.726,2.461,2.726
				c1.394,0,2.061-1.23,2.061-2.442C112.677,34.718,111.669,33.6,110.259,33.6z"/>
			<path d="M117.987,36.787h-0.146c-0.018-0.497-0.196-0.649-0.605-0.649h-1.582v1.87c0,0.479,0.104,0.659,0.744,0.659v0.161h-2.076
				v-0.161c0.529-0.035,0.623-0.146,0.623-0.837v-3.352c0-0.546-0.042-0.795-0.641-0.804v-0.162h3.828v1.008h-0.146
				c-0.008-0.494-0.179-0.701-0.709-0.701h-1.624v2.009h1.692c0.316,0,0.47-0.178,0.495-0.546h0.146V36.787z"/>
		</g>
		<g>
			<path d="M68.821,52.478h-3.497v-0.273c0.892-0.043,1.079-0.274,1.079-1.238v-6.13c0-0.778-0.274-0.994-1.079-1.038v-0.272h3.497
				v0.272c-0.907,0-1.224,0.202-1.224,1.167v6.102c0,0.85,0.23,1.138,1.224,1.138V52.478z"/>
			<path d="M79.244,52.578l-7.456-7.8v6.173c0,1.036,0.23,1.253,1.454,1.253v0.273h-3.34v-0.273h0.059
				c0.892,0,1.181-0.302,1.181-0.964v-7.082c-0.332-0.229-0.706-0.345-1.21-0.36v-0.272h2.26l6.779,7.066v-5.729
				c0-0.878-0.259-1.036-1.411-1.065v-0.272h3.368v0.272c-1.079,0-1.311,0.188-1.311,0.749v8.031H79.244z"/>
			<path d="M88,49.038h-0.244c-0.029-0.836-0.331-1.095-1.021-1.095h-2.662v3.152c0,0.807,0.172,1.108,1.251,1.108v0.273h-3.497
				v-0.273c0.893-0.058,1.051-0.245,1.051-1.411v-5.641c0-0.922-0.072-1.339-1.08-1.354v-0.272h6.448v1.698H88
				c-0.014-0.835-0.303-1.181-1.194-1.181h-2.733v3.383h2.849c0.533,0,0.792-0.303,0.835-0.922H88V49.038z"/>
			<path d="M94.783,52.708c-2.821,0-5.195-1.813-5.195-4.506c0-2.862,2.202-4.893,5.268-4.893c2.72,0,5.052,1.856,5.052,4.447
				C99.907,50.664,97.575,52.708,94.783,52.708z M94.481,43.669c-2.533,0-3.541,2.36-3.541,4.088c0,2.69,1.828,4.591,4.145,4.591
				c2.347,0,3.469-2.072,3.469-4.116C98.554,45.555,96.856,43.669,94.481,43.669z"/>
			<path d="M103.54,51.125c0,0.862,0.346,1.079,1.151,1.079h0.331v0.273h-4.073v-0.273h0.245c0.85,0,1.152-0.23,1.152-1.195V44.95
				c0-0.893-0.245-1.152-1.08-1.152h-0.317v-0.272c0.346,0,1.224-0.058,1.814-0.087c0.589-0.028,0.878-0.042,1.813-0.042
				c2.663,0,3.858,1.093,3.858,2.562c0,1.079-0.735,1.985-1.915,2.331c0.533,0.417,0.964,0.82,1.641,1.496l1.137,1.139
				c0.85,0.848,1.728,1.381,2.836,1.453v0.259c-2.519,0.114-3.166-0.432-4.447-1.712l-0.95-0.951
				c-0.633-0.633-1.137-1.05-1.482-1.28c-0.36,0.014-0.59,0.029-0.979,0.029c-0.316,0-0.504-0.016-0.734-0.029V51.125z
				 M103.54,48.419c0.346,0.044,0.562,0.028,0.893,0.028c1.598,0,2.648-0.676,2.648-2.403c0-1.339-0.605-2.375-2.821-2.375
				c-0.272,0-0.46,0-0.72,0.028V48.419z"/>
			<path d="M118.342,52.478l-3.671-7.671h-0.029l-0.388,6.477c-0.043,0.733,0.503,0.892,1.15,0.921v0.273h-2.992v-0.273
				c1.05,0,1.18-0.23,1.251-1.54l0.346-5.599c0.058-0.949,0.028-1.209-0.863-1.268v-0.259h2.173l3.469,7.254l3.454-7.254h2.115
				v0.259c-0.705,0.059-0.979,0.073-0.949,0.562l0.461,6.521c0.085,1.324,0.2,1.324,1.251,1.324v0.273h-3.698v-0.273
				c0.677,0,1.339-0.188,1.281-0.95l-0.417-6.447h-0.029l-3.584,7.671H118.342z"/>
			<path d="M128.538,48.505l-0.836,2.261c-0.101,0.272-0.287,0.704-0.287,0.905c0,0.39,0.374,0.533,1.166,0.533h0.23v0.273h-3.325
				v-0.273c0.936-0.015,1.095-0.173,1.554-1.425l2.621-7.153l-0.131-0.316h1.253l3.007,7.987c0.289,0.764,0.591,0.907,1.311,0.907
				v0.273h-3.957v-0.273h0.373c0.82,0,1.123-0.087,1.123-0.489c0-0.23-0.101-0.447-0.158-0.59l-0.965-2.62H128.538z M130.005,44.518
				l-1.222,3.354h2.489L130.005,44.518z"/>
			<path d="M139.567,51.153c0,0.776,0.26,1.051,1.137,1.051h0.532v0.273h-4.532v-0.273h0.531c0.878,0,1.139-0.274,1.139-1.051v-7.11
				h-2.505c-0.576,0-0.835,0.332-1.051,1.598h-0.259l0.229-2.331h0.274c0.014,0.087,0.071,0.145,0.158,0.172
				c0.086,0.029,0.188,0.044,0.288,0.044h6.922c0.202,0,0.418-0.044,0.447-0.216h0.272l0.229,2.331h-0.259
				c-0.216-1.266-0.475-1.598-1.05-1.598h-2.505V51.153z"/>
			<path d="M147.992,52.478h-3.496v-0.273c0.892-0.043,1.079-0.274,1.079-1.238v-6.13c0-0.778-0.274-0.994-1.079-1.038v-0.272h3.496
				v0.272c-0.906,0-1.223,0.202-1.223,1.167v6.102c0,0.85,0.23,1.138,1.223,1.138V52.478z"/>
			<path d="M154.6,52.708c-2.82,0-5.195-1.813-5.195-4.506c0-2.862,2.202-4.893,5.268-4.893c2.721,0,5.053,1.856,5.053,4.447
				C159.725,50.664,157.393,52.708,154.6,52.708z M154.299,43.669c-2.534,0-3.542,2.36-3.542,4.088c0,2.69,1.828,4.591,4.146,4.591
				c2.346,0,3.469-2.072,3.469-4.116C158.371,45.555,156.673,43.669,154.299,43.669z"/>
			<path d="M170.266,52.578l-7.456-7.8v6.173c0,1.036,0.231,1.253,1.455,1.253v0.273h-3.34v-0.273h0.059
				c0.892,0,1.18-0.302,1.18-0.964v-7.082c-0.332-0.229-0.705-0.345-1.209-0.36v-0.272h2.259l6.779,7.066v-5.729
				c0-0.878-0.259-1.036-1.411-1.065v-0.272h3.368v0.272c-1.079,0-1.31,0.188-1.31,0.749v8.031H170.266z"/>
			<path d="M70.146,65.444c0,0.777,0.259,1.051,1.137,1.051h0.531v0.273h-4.532v-0.273h0.532c0.877,0,1.138-0.273,1.138-1.051v-7.11
				h-2.505c-0.576,0-0.835,0.332-1.051,1.598h-0.259l0.229-2.331h0.274c0.014,0.087,0.071,0.145,0.158,0.173
				c0.087,0.029,0.188,0.043,0.288,0.043h6.922c0.202,0,0.418-0.043,0.447-0.216h0.272l0.229,2.331h-0.259
				c-0.216-1.266-0.475-1.598-1.05-1.598h-2.504V65.444z"/>
			<path d="M81.103,63.53h-0.273c-0.114-1.021-0.388-1.137-0.979-1.137h-2.433v3.064c0,0.662,0.245,0.793,0.778,0.793h2.216
				c1.008,0,1.311-0.39,1.67-1.627h0.259l-0.23,2.145h-7.643v-0.273h0.403c1.151,0,1.353-0.317,1.353-1.18v-6.074
				c0-0.806-0.187-1.151-1.15-1.151h-0.318v-0.273h6.909l0.115,2h-0.259c-0.188-1.223-0.547-1.482-1.065-1.482h-3.037v3.541h2.577
				c0.518,0,0.763-0.244,0.834-1.08h0.273V63.53z"/>
			<path d="M92.261,60.177c-0.475-1.339-1.712-2.216-3.281-2.216c-2.403,0-3.899,1.741-3.899,4.159c0,2.604,1.871,4.519,4.058,4.519
				c1.138,0,2.534-0.388,3.513-2.13h0.272c-0.187,0.648-0.575,1.54-0.921,2.102c-0.921-0.13-1.554,0.389-3.252,0.389
				c-2.922,0-5.022-1.929-5.022-4.591c0-2.793,2.158-4.808,5.167-4.808c1.813,0,2.59,0.575,3.036,0.575
				c0.158,0,0.229-0.043,0.259-0.086h0.216l0.13,2.087H92.261z"/>
			<path d="M96.326,62.493v2.735c0,0.936,0.187,1.267,1.151,1.267h0.043v0.273h-3.613v-0.273h0.087c0.85,0,1.137-0.23,1.137-1.051
				v-6.333c0-0.748-0.243-0.963-1.036-1.021v-0.273h3.426v0.273c-1.021,0-1.194,0.273-1.194,1.381v2.505h5.642v-2.835
				c0-0.763-0.245-1.051-1.137-1.051h-0.274v-0.273h3.7v0.273c-0.864,0.029-1.095,0.288-1.095,1.18v5.974
				c0,1.021,0.288,1.252,1.151,1.252h0.145v0.273h-4.073v-0.273h0.446c0.936,0,1.137-0.331,1.137-1.079v-2.923H96.326z"/>
			<path d="M114.653,66.869l-7.455-7.8v6.174c0,1.035,0.23,1.252,1.454,1.252v0.273h-3.34v-0.273h0.059
				c0.892,0,1.18-0.302,1.18-0.964v-7.082c-0.331-0.229-0.705-0.345-1.209-0.359v-0.273h2.259l6.78,7.066v-5.729
				c0-0.877-0.26-1.035-1.411-1.064v-0.273h3.368v0.273c-1.08,0-1.311,0.188-1.311,0.748v8.031H114.653z"/>
			<path d="M122.546,66.999c-2.82,0-5.194-1.813-5.194-4.506c0-2.862,2.201-4.893,5.268-4.893c2.72,0,5.052,1.856,5.052,4.447
				C127.671,64.956,125.339,66.999,122.546,66.999z M122.245,57.961c-2.534,0-3.542,2.359-3.542,4.087
				c0,2.691,1.828,4.591,4.146,4.591c2.346,0,3.469-2.072,3.469-4.116C126.317,59.846,124.619,57.961,122.245,57.961z"/>
			<path d="M135.16,66.769h-6.433v-0.273h0.475c0.662,0,0.907-0.217,0.907-0.95v-6.376c0-0.762-0.23-1.079-1.138-1.079h-0.201
				v-0.273h4.245v0.273h-0.532c-0.935,0-1.18,0.101-1.18,0.993v6.635c0,0.389,0.158,0.533,0.575,0.533h2.116
				c0.849,0,1.107-0.332,2.015-1.584h0.259L135.16,66.769z"/>
			<path d="M142.346,66.999c-2.821,0-5.195-1.813-5.195-4.506c0-2.862,2.202-4.893,5.268-4.893c2.72,0,5.052,1.856,5.052,4.447
				C147.47,64.956,145.138,66.999,142.346,66.999z M142.044,57.961c-2.533,0-3.541,2.359-3.541,4.087
				c0,2.691,1.828,4.591,4.145,4.591c2.347,0,3.469-2.072,3.469-4.116C146.116,59.846,144.418,57.961,142.044,57.961z"/>
			<path d="M157.536,66.093c-1.425,0.733-3.253,0.906-3.857,0.906c-3.151,0-4.62-2.433-4.62-4.533c0-2.159,1.512-4.865,5.023-4.865
				c1.539,0,2.562,0.489,2.863,0.489c0.131,0,0.245-0.028,0.332-0.102h0.201v2.332h-0.288c-0.389-1.799-1.612-2.359-2.95-2.359
				c-2.533,0-3.829,2.101-3.829,4.418c0,2.95,2.073,4.26,3.728,4.26c0.662,0,1.397-0.144,2.202-0.546v-1.814
				c0-0.82-0.287-1.094-1.15-1.094h-0.533v-0.259h3.886v0.259c-0.72,0.044-1.007,0.289-1.007,0.907V66.093z"/>
			<path d="M166.264,59.127c0.46-0.793,0.188-1.037-0.733-1.037v-0.273h3.252v0.273c-0.979,0.072-1.396,0.46-1.799,1.138
				l-2.39,4.044v2.159c0,0.763,0.274,1.064,1.151,1.064h0.188v0.273h-3.958v-0.273h0.274c0.892,0,1.15-0.331,1.15-1.037V63.43
				l-2.562-4.001c-0.706-1.108-1.036-1.31-1.973-1.339v-0.273h3.829v0.273c-1.123,0-1.194,0.273-0.764,0.936l2.303,3.555
				L166.264,59.127z"/>
		</g>
	</g>
</g>
</svg>
