<?xml version="1.0" encoding="utf-8"?>
<!-- Generator: Adobe Illustrator 18.1.1, SVG Export Plug-In . SVG Version: 6.00 Build 0)  -->
<svg version="1.1" id="Layer_1" xmlns="http://www.w3.org/2000/svg" xmlns:xlink="http://www.w3.org/1999/xlink" x="0px" y="0px"
	 viewBox="0 0 292 119" enable-background="new 0 0 292 119" xml:space="preserve">
<g>
	<g>
		<path fill="#1C3C69" d="M161.8,60c-0.2-7.4,0.1-7.8,6.1-7.8c5.7,0,11.3-0.1,17,0.1c6.8,0.2,11.3,4.5,11.5,11.3
			c0.2,11.6,0.1,23.2,0.1,35.4c-10.4,0-20.7,0.5-30.9-0.2c-4.6-0.3-7.9-4.1-8.8-9.1c-0.9-5.5,0.3-10.8,5.7-13.1
			c6.8-2.9,14-4.8,21.1-7.1c2.2-0.7,4.8-0.6,4.5-4c-0.3-3.3-1.7-5.4-5.2-5.4C175.9,60,168.9,60,161.8,60z M187.8,76.8
			c-6.7,1.9-13.1,3.4-19.3,5.7c-1.5,0.6-2.9,3.5-3,5.4c-0.1,1.1,2.5,3.3,4,3.4c6.1,0.4,12.2,0.2,18.3,0.2
			C187.8,86.4,187.8,81.9,187.8,76.8z"/>
		<path fill="#1C3C69" d="M77.9,98.9c0-15.4,0-30.6,0-46.3c2.4-0.1,4.8-0.3,7.2-0.3c6.7,0,13.3-0.1,20,0c6.1,0.1,11.2,4.3,11.3,9.8
			c0.3,12.1,0.1,24.3,0.1,36.8c-2.6,0-5,0-8,0c0-9.7,0-19.3,0-28.9c0-9.3-0.6-10-9.8-10.1c-4.1,0-8.2,0-12.9,0c0,13.3,0,26,0,39
			C82.9,98.9,80.7,98.9,77.9,98.9z"/>
		<path fill="#1C3C69" d="M53.2,59.9c-6.6,0-12.5-0.2-18.4,0.1c-2.2,0.1-5.3,0.5-6.3,1.9c-1.4,2.1-1.4,5.3-1.3,7.9
			c0,0.6,3.3,1.2,5.1,1.4c3,0.2,6,0.1,9,0.1c6.2,0,6.2,0,6.5,7.6c-5.4,0-10.9,0.2-16.3-0.1c-3.6-0.2-5.2,0.8-4.9,4.7
			c0.3,5,0.1,9.9,0.1,15.3c-2.7,0-5.1,0-7.9,0c0-12.5-0.2-25,0.1-37.4c0.1-4.8,4.8-8.8,9.9-9c6.6-0.4,13.3-0.3,20-0.2
			C53.8,52.3,52.2,56.4,53.2,59.9z"/>
		<path fill="#1C3C69" d="M154.6,59.9c-4.5,0-8.6-0.1-12.7,0c-5.4,0.2-7.1,1.9-7.2,7.3c-0.1,8.6,0,17.3,0,25.9c0,1.8,0,3.6,0,5.7
			c-2.7,0-4.9,0-8,0c0-1.6,0-3.3,0-5.1c0-9.8,0-19.6,0-29.4c0.1-7.5,4.4-12,12-12.2c3-0.1,6,0,9-0.1
			C154.4,52.1,154.5,52.2,154.6,59.9z"/>
		<path fill="#1C3C69" d="M67.1,99c-2.6,0-4.7,0-7.1,0c0-15.5,0-30.7,0-46.4c2.3,0,4.5,0,7.1,0C67.1,67.9,67.1,83.3,67.1,99z"/>
	</g>
</g>
<g>
	<linearGradient id="SVGID_1_" gradientUnits="userSpaceOnUse" x1="135.3333" y1="26.5833" x2="217.6667" y2="26.5833">
		<stop  offset="0" style="stop-color:#243966"/>
		<stop  offset="1" style="stop-color:#1187C2"/>
	</linearGradient>
	<path fill="url(#SVGID_1_)" d="M135.3,0h82.3v53.2C217.7,53.2,215.3,24.8,135.3,0z"/>
	<linearGradient id="SVGID_2_" gradientUnits="userSpaceOnUse" x1="217.6667" y1="51.4167" x2="292" y2="51.4167">
		<stop  offset="9.139785e-002" style="stop-color:#243966"/>
		<stop  offset="1" style="stop-color:#1187C2"/>
	</linearGradient>
	<polygon fill="url(#SVGID_2_)" points="292,13 217.7,13 217.7,89.8 	"/>
	<line fill="none" x1="218.8" y1="10.7" x2="218.8" y2="56.8"/>
	<line fill="none" stroke="#FFFFFF" stroke-miterlimit="10" x1="217.7" y1="-0.8" x2="217.7" y2="89.8"/>
	<line fill="none" stroke="#FFFFFF" stroke-miterlimit="10" x1="166.7" y1="13" x2="292" y2="13"/>
	<line fill="none" stroke="#FFFFFF" stroke-miterlimit="10" x1="176.5" y1="17.7" x2="279.2" y2="29.5"/>
	<line fill="none" stroke="#FFFFFF" stroke-miterlimit="10" x1="185.8" y1="23.6" x2="264.5" y2="44.5"/>
	<line fill="none" stroke="#FFFFFF" stroke-miterlimit="10" x1="199.2" y1="31" x2="252.2" y2="58.2"/>
	<line fill="none" stroke="#FFFFFF" stroke-miterlimit="10" x1="216.8" y1="79.3" x2="266" y2="6.7"/>
	<line fill="none" stroke="#FFFFFF" stroke-miterlimit="10" x1="215.8" y1="66.7" x2="240" y2="6.7"/>
	<line fill="none" stroke="#FFFFFF" stroke-miterlimit="10" x1="197.5" y1="-3.3" x2="234.7" y2="96.8"/>
	<line fill="none" stroke="#FFFFFF" stroke-miterlimit="10" x1="173.8" y1="-2.2" x2="240" y2="73.3"/>
</g>
</svg>
