<?xml version="1.0" encoding="iso-8859-1"?>
<!-- Generator: Adobe Illustrator 18.1.1, SVG Export Plug-In . SVG Version: 6.00 Build 0)  -->
<!DOCTYPE svg PUBLIC "-//W3C//DTD SVG 1.1//EN" "http://www.w3.org/Graphics/SVG/1.1/DTD/svg11.dtd">
<svg version="1.1" id="Layer_1" xmlns="http://www.w3.org/2000/svg" xmlns:xlink="http://www.w3.org/1999/xlink" x="0px" y="0px"
	 viewBox="0 0 762.331 200" style="enable-background:new 0 0 762.331 200;" xml:space="preserve">
<g>
	<path style="fill:#702C79;" d="M229.131,143.772v-6.381l7.445-0.827c1.654-0.236,1.891-0.591,1.891-2.363v-66.29
		c0-1.772-0.236-2.245-1.891-2.363l-7.445-0.827v-6.499h58.846v19.497l-8.035-0.473l-1.654-9.099
		c-0.236-1.182-0.709-1.536-2.008-1.536h-26.941v29.423h31.076v8.508h-31.076v29.541c0,1.891,0.117,2.127,1.891,2.363l17.369,0.945
		v6.381H229.131z"/>
	<path style="fill:#702C79;" d="M291.645,143.772v-6.499l7.799-0.709c1.654-0.118,1.891-0.591,1.891-2.363V94.025
		c0-1.3-0.356-2.127-1.537-2.481l-6.734-2.245l1.062-6.263h17.961v51.165c0,1.891,0.119,2.127,1.891,2.363l7.562,0.827v6.381
		H291.645z M305.115,69.919c-4.846,0-7.682-2.718-7.682-7.563c0-4.726,2.836-7.444,7.682-7.444c4.844,0,7.562,2.718,7.562,7.444
		C312.678,67.202,309.959,69.919,305.115,69.919z"/>
	<path style="fill:#702C79;" d="M359.59,99.933l-1.418-7.326c-0.119-0.827-0.236-1.3-1.182-1.536c-1.654-0.591-5.199-1.3-9.217-1.3
		c-8.627,0-12.525,3.781-12.525,8.862c0,6.735,7.09,8.153,14.77,10.162c9.217,2.363,19.262,5.199,19.262,17.961
		c0,13.707-11.463,18.434-23.988,18.434c-9.57,0-19.26-2.718-21.387-4.018v-15.716l7.916,0.473l1.418,8.153
		c0.119,0.827,0.355,1.3,1.418,1.654c1.537,0.591,5.672,1.891,11.58,1.891c7.918,0,12.998-2.954,12.998-9.335
		c0-7.09-6.734-8.744-14.297-10.517c-9.217-2.127-19.615-4.49-19.615-17.488c0-13.471,11.344-18.434,23.514-18.434
		c8.508,0,16.19,2.245,18.67,3.309v15.243L359.59,99.933z"/>
	<path style="fill:#702C79;" d="M422.572,140.227c-4.49,2.954-12.406,4.963-20.205,4.963c-20.207,0-28.832-12.407-28.832-31.077
		c0-22.451,12.998-32.259,30.959-32.259c8.625,0,15.361,2.363,17.961,3.663v15.716l-7.918-0.354l-1.418-7.799
		c-0.117-0.827-0.353-1.3-1.418-1.654c-1.654-0.591-4.727-1.063-8.035-1.063c-10.516,0-18.906,6.145-18.906,23.042
		c0,16.543,7.799,22.924,19.262,22.924c5.908,0,11.816-1.891,15.125-3.899L422.572,140.227z"/>
	<path style="fill:#702C79;" d="M465.352,143.772l-1.065-7.681l-0.353-0.118c-5.672,5.317-12.289,9.217-21.389,9.217
		c-14.77,0-16.66-10.162-16.66-16.188c0-11.816,7.326-17.37,21.506-18.552l15.951-1.3v-6.263c0-8.626-1.654-12.88-11.934-12.88
		c-7.209,0-12.408,0.236-12.525,9.099l-10.162-1.063c0-14.534,13.471-16.189,22.805-16.189c16.779,0,22.451,4.727,22.451,21.033
		v31.313c0,1.891,0.119,2.127,1.891,2.363l6.027,0.827v6.381H465.352z M463.342,116.594l-13.352,1.182
		c-10.162,0.945-12.998,3.899-12.998,10.044c0,6.381,2.717,8.98,8.272,8.98c6.971,0,14.416-5.672,18.078-9.099V116.594z"/>
	<path style="fill:#702C79;" d="M483.314,143.772v-6.499l7.326-0.709c1.654-0.118,1.891-0.591,1.891-2.363V65.547
		c0-1.3-0.355-2.127-1.537-2.482l-7.09-2.245l1.064-6.263h18.314v79.643c0,1.891,0.119,2.127,1.891,2.363l7.09,0.827v6.381H483.314z
		"/>
	<path style="fill:#847296;" d="M579.5,143.772l-43.129-71.489v61.8c0,1.891,0.117,2.127,1.891,2.363l7.916,0.945v6.381h-28.713
		v-6.381l7.443-0.827c1.654-0.236,1.891-0.591,1.891-2.363V67.793c0-1.773-0.236-2.245-1.891-2.363l-7.443-0.827v-6.499h23.16
		l42.066,71.017V67.793c0-1.773-0.236-2.245-1.891-2.363l-7.445-0.827v-6.381h28.596v6.381l-7.916,0.945
		c-1.773,0.236-1.891,0.473-1.891,2.245v75.979H579.5z"/>
	<path style="fill:#847296;" d="M607.037,113.168c0-18.552,9.453-31.314,29.658-31.314c20.207,0,28.006,12.88,28.006,30.605
		c0,19.852-8.98,32.731-29.188,32.731C614.953,145.19,607.037,131.956,607.037,113.168z M653.594,113.168
		c0-15.479-5.672-22.333-17.135-22.333c-11.58,0-18.315,6.854-18.315,22.451c0,15.716,6.025,23.278,17.725,23.278
		C647.33,136.564,653.594,129.356,653.594,113.168z"/>
	<path style="fill:#847296;" d="M710.197,141.527c-4.727,1.891-10.398,3.663-16.426,3.663c-11.344,0-16.424-5.317-16.424-15.952
		V92.371c0-0.709,0-1.182-0.945-1.182h-8.627v-6.854c9.217-1.182,11.816-4.845,13.354-16.897h6.971v14.416
		c0,0.709,0,1.182,0.945,1.182h17.371v8.153H688.1v34.858c0,7.444,1.773,10.28,8.508,10.28c3.664,0,7.799-1.063,10.99-2.363
		L710.197,141.527z"/>
	<path style="fill:#847296;" d="M759.473,139.873c-5.908,3.309-12.998,5.317-21.506,5.317c-21.389,0-28.359-14.061-28.359-31.668
		c0-21.624,12.053-31.668,26.941-31.668c14.416,0,24.342,7.799,24.342,28.241c0,1.536-0.119,3.899-0.236,5.908h-39.703
		c0.354,11.935,5.199,20.088,18.078,20.088c6.617,0,10.754-1.182,17.016-4.254L759.473,139.873z M750.137,107.85
		c-0.236-13.471-6.381-17.37-13.588-17.37c-7.918,0-14.535,4.254-15.48,17.37H750.137z"/>
</g>
<g>
	<path style="fill-rule:evenodd;clip-rule:evenodd;fill:#857296;" d="M1.009,100.124C1.009,73.976,1.013,47.828,1,21.68
		c0-1.421,0.128-2.809,0.486-4.182c0.278-1.065,0.499-2.145,0.774-3.211c0.409-1.581,1.067-3.041,2.151-4.289
		c0.182-0.209,0.306-0.47,0.452-0.711c0.573-0.948,1.361-1.711,2.154-2.463c0.624-0.592,1.155-1.283,1.928-1.724
		c0.551-0.315,1.042-0.734,1.562-1.104c1.077-0.766,2.25-1.339,3.531-1.656c1.739-0.43,3.491-0.813,5.239-1.205
		c0.273-0.062,0.557-0.087,0.837-0.095c0.615-0.017,1.23-0.017,1.846-0.017c51.527,0,103.054,0.008,154.582-0.024
		c2.896-0.001,5.724,0.225,8.496,1.055c0.881,0.264,1.776,0.493,2.635,0.817c0.593,0.224,1.167,0.534,1.693,0.888
		c2.083,1.403,4.194,2.779,5.609,4.947c0.629,0.963,1.373,1.859,1.92,2.866c0.483,0.89,0.833,1.87,1.122,2.846
		c0.377,1.275,0.686,2.576,0.927,3.883c0.193,1.05,0.341,2.128,0.342,3.193c0.016,52.501,0.016,105.002-0.002,157.503
		c-0.001,1.017-0.174,2.041-0.364,3.043c-0.238,1.257-0.555,2.5-0.875,3.74c-0.379,1.472-0.98,2.845-1.907,4.067
		c-0.385,0.51-0.705,1.067-1.072,1.591c-0.337,0.48-0.675,0.938-1.163,1.31c-0.531,0.406-0.934,0.98-1.397,1.476
		c-0.122,0.13-0.248,0.263-0.391,0.365c-0.959,0.682-1.879,1.435-2.898,2.012c-0.97,0.55-2.014,1.014-3.08,1.336
		c-1.517,0.459-3.076,0.789-4.631,1.104c-0.823,0.167-1.676,0.267-2.514,0.267c-52.527,0.011-105.054,0.012-157.581-0.007
		c-1.113,0-2.234-0.208-3.337-0.399c-1.033-0.179-2.041-0.498-3.071-0.698c-1.823-0.356-3.44-1.155-4.933-2.227
		c-0.915-0.656-1.859-1.287-2.696-2.035c-0.72-0.643-1.333-1.414-1.946-2.166c-0.5-0.615-0.979-1.259-1.383-1.939
		c-0.741-1.25-1.51-2.489-1.815-3.948c-0.34-1.629-0.743-3.244-1.101-4.869c-0.077-0.348-0.105-0.711-0.11-1.067
		c-0.016-1.076-0.012-2.152-0.012-3.229C1.009,151.19,1.009,125.657,1.009,100.124z M100.088,9.968c-1.692,0-3.384,0-5.076,0
		c-24.661,0-49.322,0-73.983,0.002c-0.538,0-1.083-0.024-1.612,0.051c-1.172,0.165-2.319,0.458-3.362,1.035
		c-1.064,0.589-2.197,1.087-2.966,2.101c-0.12,0.159-0.313,0.261-0.467,0.396c-0.112,0.1-0.238,0.196-0.317,0.321
		c-0.26,0.409-0.5,0.831-0.751,1.246c-1.028,1.702-1.619,3.525-1.606,5.535c0.017,2.486,0.003,4.972,0.003,7.459
		c0,50.296,0,100.593,0.001,150.889c0,0.564-0.045,1.137,0.035,1.689c0.54,3.708,2.38,6.547,5.701,8.359
		c1.772,0.967,3.686,1.331,5.697,1.33c52.5-0.007,105.001-0.005,157.502-0.005c0.256,0,0.514,0.013,0.768-0.006
		c2.042-0.148,4.003-0.557,5.71-1.784c0.29-0.209,0.611-0.372,0.912-0.568c0.126-0.081,0.246-0.179,0.349-0.287
		c0.317-0.333,0.638-0.665,0.935-1.018c0.795-0.941,1.501-1.938,1.955-3.102c0.613-1.574,0.851-3.199,0.851-4.885
		c-0.008-35.326-0.006-70.651-0.006-105.976c0-17.125,0.005-34.249-0.013-51.373c-0.001-0.991-0.109-1.997-0.305-2.97
		c-0.405-2.01-1.387-3.766-2.819-5.205c-1.167-1.173-2.492-2.167-4.153-2.646c-1.217-0.35-2.424-0.596-3.695-0.596
		C152.947,9.971,126.518,9.968,100.088,9.968z"/>
	<g>
		<path style="fill:#702C79;" d="M27.76,144.12v-9.452l7.593-0.849c1.688-0.242,1.929-0.606,1.929-2.424V69.224
			c0-1.818-0.242-2.302-1.929-2.424l-7.593-0.848v-9.574h63.638v24.481l-13.258-0.607l-1.688-9.21
			c-0.241-1.212-0.723-1.576-2.048-1.576H55.964V93.22h27.721v13.453H55.964v24.481c0,1.939,0.121,2.181,1.929,2.424l17.717,0.968
			v9.574H27.76z"/>
	</g>
	<g>
		<path style="fill:#857296;" d="M145.011,144.106l-27.812-57.358v42.686c0,1.941,0.097,2.183,1.53,2.425l6.403,0.972v11.276H96.557
			V132.83l6.021-0.85c1.337-0.243,1.528-0.606,1.528-2.426V70.863c0-1.819-0.191-2.304-1.528-2.425l-6.021-0.849V56.311h26.568
			l27.715,57.722V71.105c0-1.819-0.191-2.304-1.529-2.425l-6.021-0.849V56.311h28.48v11.521l-6.403,0.97
			c-1.434,0.242-1.529,0.485-1.529,2.304v73.001H145.011z"/>
	</g>
</g>
</svg>
