<?xml version="1.0" encoding="utf-8"?>
<!-- Generator: Adobe Illustrator 18.1.1, SVG Export Plug-In . SVG Version: 6.00 Build 0)  -->
<svg version="1.1" id="HackerRank" xmlns="http://www.w3.org/2000/svg" xmlns:xlink="http://www.w3.org/1999/xlink" x="0px" y="0px"
	 width="2652.4px" height="610px" viewBox="1193.8 55.5 2652.4 610" enable-background="new 1193.8 55.5 2652.4 610"
	 xml:space="preserve">
<g>
	<g id="Hexagon_1_">
		<g>
			
				<linearGradient id="SVGID_1_" gradientUnits="userSpaceOnUse" x1="1552.4086" y1="392.854" x2="1552.4086" y2="666.5" gradientTransform="matrix(1 0 0 -1 0 722)">
				<stop  offset="0" style="stop-color:#25A559"/>
				<stop  offset="1" style="stop-color:#30CE68"/>
			</linearGradient>
			<path fill="url(#SVGID_1_)" d="M1470.1,55.5c-14.7,0-61.4,22.2-111.5,49.9l387.6,223.7c-1.1-57.2-5.3-108.6-12.6-121.1
				c-6.2-10.6-37.2-33.2-76.1-57.7l-103.7-59.8C1515,70.1,1482,55.5,1470.1,55.5z"/>
			
				<linearGradient id="SVGID_2_" gradientUnits="userSpaceOnUse" x1="1498.7886" y1="266.8359" x2="1498.7885" y2="616.5991" gradientTransform="matrix(1 0 0 -1 0 722)">
				<stop  offset="0" style="stop-color:#25A559"/>
				<stop  offset="1" style="stop-color:#30CE68"/>
			</linearGradient>
			<path fill="url(#SVGID_2_)" d="M1251.1,171l492.4,284.2c2.7-35.9,3.6-82.6,2.8-126l-387.6-223.7
				C1320.6,126.4,1280.6,150.6,1251.1,171z"/>
			
				<linearGradient id="SVGID_3_" gradientUnits="userSpaceOnUse" x1="1470.1151" y1="171.2009" x2="1470.115" y2="551.0471" gradientTransform="matrix(1 0 0 -1 0 722)">
				<stop  offset="0" style="stop-color:#25A559"/>
				<stop  offset="1" style="stop-color:#30CE68"/>
			</linearGradient>
			<path fill="url(#SVGID_3_)" d="M1251.1,171c-23.2,15.9-40,29.5-44.4,37.1c-4.4,7.8-7.7,30.1-9.9,59.2L1688,550.8
				c23.8-16.3,41.2-30.1,45.6-37.8c4.4-7.6,7.7-29.3,9.8-57.8L1251.1,171z"/>
			
				<linearGradient id="SVGID_4_" gradientUnits="userSpaceOnUse" x1="1440.9879" y1="104.551" x2="1440.9879" y2="454.961" gradientTransform="matrix(1 0 0 -1 0 722)">
				<stop  offset="0" style="stop-color:#25A559"/>
				<stop  offset="1" style="stop-color:#30CE68"/>
			</linearGradient>
			<path fill="url(#SVGID_4_)" d="M1688.2,550.7L1196.8,267c-2.7,36.8-3.6,84.7-2.6,128.7l384,221.7
				C1616.8,596.2,1657.8,571.4,1688.2,550.7z"/>
			
				<linearGradient id="SVGID_5_" gradientUnits="userSpaceOnUse" x1="1386.1981" y1="56.5" x2="1386.1981" y2="326.249" gradientTransform="matrix(1 0 0 -1 0 722)">
				<stop  offset="0" style="stop-color:#25A559"/>
				<stop  offset="1" style="stop-color:#30CE68"/>
			</linearGradient>
			<path fill="url(#SVGID_5_)" d="M1194.2,395.8c1.2,55.6,5.4,104.8,12.5,117.2c17.2,30,229,152.5,263.4,152.5
				c14.3,0,59.2-21.2,108.1-48.1L1194.2,395.8z"/>
		</g>
	</g>
	<g id="H_1_">
		<g>
			<path fill="#FFFFFF" d="M1521.9,384.4v105.6h-17.8c-3.6,0-6.6,2.9-6.6,6.5c0,2.4,1.3,4.4,3.1,5.6l40,38.4
				c1.2,1.6,3.6,2.8,5.7,2.8c2.2,0,4.1-1.1,5.3-2.8l42.7-38.4c1.9-1.2,3.1-3.2,3.1-5.6c0-3.6-2.9-6.5-6.5-6.5h-17.9l-0.2-255.1
				c0-3.6-2.9-6.5-6.5-6.5h-37.9c-3.6,0-6.6,2.9-6.6,6.5v98.5l-103.6,0V231.1h17.8c3.6,0,6.6-2.9,6.6-6.5c0-2.4-1.3-4.4-3.1-5.6
				l-40.1-38.4c-1.2-1.6-3.6-2.8-5.7-2.8c-2.2,0-4.1,1.1-5.3,2.8l-42.7,38.4c-1.9,1.1-3.1,3.2-3.1,5.6c0,3.6,2.9,6.5,6.6,6.5h17.9
				l0.2,255.1c0,3.6,2.9,6.5,6.5,6.5h37.9c3.6,0,6.6-2.9,6.6-6.5V384.4H1521.9z"/>
		</g>
	</g>
	<path fill="#39424E" d="M3235.8,469.2c-21.2-34.7-42.5-69.3-63.7-103.9c-1.8-3-3.4-6.1-5.4-9.7c4.7-1.4,8.2-2.4,11.7-3.6
		c31.9-10.7,51.6-37.1,52.6-70.3c1.2-39.4-19.4-67-57.8-76.5c-8.7-2.2-17.7-3.9-26.6-4.1c-28.6-0.7-57.3-0.7-85.9-0.8
		c-16.7-0.1-17,0.3-17,16.5c0,84.6,0,169.2,0,253.8c0,3,0,6,0.3,9c0.4,4.2,2.5,7,6.9,7c9,0.1,18,0.1,27,0.1c4.4,0,6.7-2.6,7.3-6.7
		c0.4-2.6,0.2-5.3,0.2-8c0-33.3,0-66.6,0-99.9c0-3.6,0-7.2,0-12.8c10,0,18.6,0.3,27.2-0.1c5.7-0.3,9.2,1.7,12,6.8
		c7.1,12.8,14.8,25.3,22.3,37.9c14.8,24.9,29.6,49.8,44.2,74.8c3.1,5.3,6.5,8.8,13.3,8.3c7.3-0.5,14.7,0.1,22-0.2
		c4.7-0.2,10.6,2,13.4-3.8C3242.6,477.3,3238.3,473.3,3235.8,469.2z M3140.4,320.6c-16.8,1.3-33.9,0.5-50.8,0.6
		c-0.9,0-1.8-0.5-3.4-1c0-26.8,0-53.5,0-80.3c0.5-0.4,0.9-1.2,1.4-1.2c21.9-0.5,43.8-2,65.6,1.8c3.3,0.6,6.5,1.4,9.6,2.5
		c22.7,7.8,33,31.2,23.5,53.3c-3.3,7.7-8.8,13.8-16.4,16.6C3160.4,316.3,3150.5,319.8,3140.4,320.6z M2530.8,404.8
		c-0.1,3.2-0.4,6.4-0.4,9.6c0,20.3,0,40.7-0.1,61c0,9.8-1.4,11.1-10.8,11.3c-6.7,0.1-13.3,0.2-20-0.1c-6.9-0.3-8.6-2.1-9-9.1
		c-0.1-2,0-4,0-6c0-91.3,0-182.7,0-274c0-2.3-0.1-4.7,0-7c0.4-6.3,2.3-8.6,8.3-8.9c7.7-0.3,15.3-0.3,23,0c6.2,0.3,8,2.3,8.4,8.7
		c0.2,2.7,0.1,5.3,0.1,8c0,51,0,102,0,153c0,3.5,0.3,7.1,0.5,12.5c3.6-3,5.9-4.6,7.8-6.6c20.1-19.5,40.2-39,60.1-58.7
		c4.1-4.1,8.3-6.1,14.1-5.8c9.7,0.4,19.3,0.1,29,0.1c3.9,0,8.4-0.6,10,4.4c1.5,4.6-1.4,7.4-4.5,10.2c-24.2,21.9-48.4,43.9-72.6,65.8
		c-2.9,2.7-5.8,5.4-9.1,8.5c2,2.3,3.6,4.4,5.5,6.2c27.6,27.1,55.3,54.1,82.9,81.1c1.7,1.6,3.8,3,4.9,5c1.3,2.4,2.8,5.8,2,7.9
		c-0.8,2.1-4.3,4-6.8,4.4c-4.6,0.7-9.3,0.3-14,0.2c-9-0.2-18.9,1.7-26.6-1.5c-7.4-3.1-12.6-11.5-18.7-17.7
		c-17.9-18.4-35.7-36.9-53.6-55.3c-2.7-2.8-5.5-5.6-8.3-8.4C2532.3,404.2,2531.6,404.5,2530.8,404.8z M3715.9,405.1
		c0,6.3,0,12.6,0,18.9c0,17.3,0.1,34.7,0,52c-0.1,8.8-1.9,10.5-10.5,10.7c-6.3,0.1-12.7,0.1-19,0c-8.8-0.2-10.2-1.7-10.6-10.7
		c-0.1-2,0-4,0-6c0-90.6,0-181.3,0-271.9c0-16.4,0.2-16.6,16.9-16.6c5,0,10-0.2,15,0.1c5.5,0.4,7.7,2.6,8.2,8.1
		c0.3,2.6,0.1,5.3,0.1,8c0,51,0,102,0,152.9c0,3.6,0,7.2,0,13.5c4.3-3.7,7.1-5.8,9.5-8.2c19.1-18.6,38.3-37.1,57.1-56
		c5.1-5.1,10.2-7.8,17.5-7.3c8.6,0.6,17.3,0.1,26,0.2c4.2,0,9.1-1,11.2,4.3c2.1,5.2-2,8-5.1,10.8c-24.2,22-48.4,43.9-72.6,65.8
		c-2.7,2.4-5.3,5-8.7,8.2c2.6,2.8,4.6,5.2,6.9,7.4c27.4,26.8,54.8,53.6,82.2,80.4c1.4,1.4,3.4,2.6,4.1,4.3c1.2,2.5,2.7,5.9,1.9,8
		c-0.8,2.1-4.3,4.3-6.7,4.4c-12.3,0.4-24.7,0.6-37-0.1c-3.4-0.2-7.1-3.4-9.7-6c-22.2-22.6-44.1-45.4-66.1-68.1
		c-2.7-2.8-5.5-5.5-8.3-8.2C3717.4,404.3,3716.7,404.7,3715.9,405.1z M2860.6,374.2c-3.4-49.8-38-83.2-83.7-85.9
		c-39.7-2.3-70.8,12.4-92.1,46.3c-12.3,19.6-16.3,41.5-14.2,64.2c3.8,40.6,23.7,70.1,62,85.7c22,8.9,44.9,8.8,67.7,2.8
		c20.4-5.4,36.6-17.1,50-33.1c5.9-7.1,5.6-10-1.3-15.7c-3.1-2.5-6.3-4.9-9.4-7.4c-12.1-9.4-11.9-9.3-21.9,2.1
		c-17,19.2-38.2,26.6-63,19.7c-23.6-6.5-37.4-22.9-42.7-48.8c5.1-0.2,9-0.6,12.9-0.6c39.6,0,79.3,0,118.9,0c2.7,0,5.3,0.1,8-0.1
		c7-0.6,8.7-2,9.1-9.2C2861.1,387.6,2861,380.9,2860.6,374.2z M2713.4,368.5c0.9-3.6,1.3-6.5,2.4-9.1c13.7-32.4,48-43.2,77.1-30.5
		c16.1,7,23.9,21,26.6,39.5C2783.5,368.5,2749.1,368.5,2713.4,368.5z M2247.9,474.6c-1-13.3-1.9-26.6-2.1-39.9
		c-0.3-25,0.2-50-0.2-75c-0.6-37.1-20.2-61.9-55.5-69.3c-30.6-6.4-59.6-1.2-86.1,16c-3.3,2.2-6.5,4.7-9.4,7.5
		c-5.1,4.9-5.2,7.4-1.1,12.9c2.2,2.9,4.7,5.6,7.1,8.4c10.1,11.9,10,11.8,22.8,2.4c18.4-13.5,38.9-17.1,60.7-11.1
		c15.9,4.4,24.2,18.7,21.2,35.2c-11.1,0.5-22.4,0.8-33.7,1.5c-17.7,1-35.2,3.4-51.8,9.9c-15.7,6.1-29.3,15.3-35.4,31.7
		c-12.5,33.8-0.1,69,36.7,81.9c15.8,5.6,32.1,5.5,48.4,2.8c14.5-2.4,27-9.2,39.3-20.2c0.9,4.1,1.5,6.2,1.9,8.4
		c1.6,7.6,2.9,8.7,10.6,8.9c5.3,0.1,10.7,0.1,16,0C2247.3,486.5,2248.7,484.6,2247.9,474.6z M2138.8,453.2
		c-8.6-3-15.1-8.2-17.3-17.7c-2.6-10.9,0.1-18.9,9.4-25.1c4.4-2.9,9.3-5.4,14.3-6.9c19.6-6,39.7-7,60.6-6.6
		C2211.1,437.2,2175.8,466.1,2138.8,453.2z M3427,475.5c-1.1-12.3-2.3-24.6-2.5-36.9c-0.4-28.3,0.3-56.7-0.5-85
		c-0.8-29.1-17.9-51.3-45.4-60.7c-17.8-6.2-36-6.2-54.3-3.1c-17.7,3-33.9,9.9-47.8,21.4c-8.5,7-8.7,9.8-1.9,18.1
		c2.7,3.4,5.5,6.7,8.4,9.9c6.3,7.1,8.4,7.4,15.6,1.3c14.8-12.4,31.8-17.3,51-16.5c18.4,0.8,36.1,10,35.8,37.1
		c-3.7,0.4-6.9,0.9-10.1,1c-9,0.5-18,0.6-27,1.2c-16.7,1.1-33.1,3.5-48.9,9.5c-14.8,5.6-27.3,14.1-34.6,28.6
		c-15.7,31-3,69.3,29.1,82.6c30.5,12.6,60.6,10.6,88-9.8c1.8-1.3,3.7-2.3,6.1-3.8c0.7,3,1.2,5.3,1.8,7.5c2,7.9,2.7,8.5,10.8,8.7
		c5.7,0.1,11.3,0.2,17,0C3426.2,486.4,3427.8,484,3427,475.5z M3345,454.9c-8.7,1.1-18,0.1-26.6-1.8c-10.5-2.3-17.2-9.5-18.5-21
		c-1.3-11.5,4-19.2,13.8-24.2c3.8-2,7.8-3.8,11.9-5c19.1-5.4,38.6-6.4,58.8-6.3C3389.7,419.7,3375,451.2,3345,454.9z M3505.2,309.1
		c4.1-2.8,6.7-4.8,9.4-6.6c24.5-16.4,50.9-19,78.2-9.1c23.4,8.5,35.4,27.3,40.8,50.6c1.7,7.4,2.4,15.2,2.5,22.8
		c0.2,35.6,0.1,71.3,0.1,106.9c0,2.3,0.6,5-0.4,6.9c-1.2,2.3-3.7,5.5-5.8,5.7c-8.9,0.6-18,0.4-26.9,0.3c-3.8-0.1-6.1-2.4-6.4-6.3
		c-0.2-2.6-0.2-5.3-0.2-8c0-28.6,0.1-57.3-0.1-85.9c-0.1-9-0.6-18-1.8-26.9c-2-15-7.7-28-23.5-32.9c-16.6-5.2-32.4-3.4-45.8,8.7
		c-9.8,8.8-14.8,20.5-17,33.1c-1.3,7.2-1.8,14.6-1.8,21.8c-0.2,28-0.1,56-0.1,83.9c0,11.6-1,12.5-12.5,12.6c-5.7,0-11.3,0.1-17,0
		c-8.3-0.2-10-1.8-10.3-9.9c-0.1-2.7-0.1-5.3-0.1-7.9c0-5.8,0.1-95.3-0.1-142.9c0-7.6-1-15.3-1.3-22.9c-0.3-8.2,1.5-9.9,9.8-10.1
		c6-0.2,12-0.1,18,0c9.2,0.1,10,0.9,11.3,10C3504.4,304.5,3504.7,306.1,3505.2,309.1z M2383.3,491.9c-29.4-0.6-55.2-9.4-75.8-30.8
		c-14.1-14.6-22.5-32.2-25.6-52.1c-3.8-24.3-1.5-47.8,10.4-69.8c15.7-29.1,40.7-44.9,72.9-50c20.6-3.2,40.4-0.6,59.5,7.9
		c11.5,5.1,21.3,12.4,29.2,22.1c5.1,6.2,4.7,9.3-1.5,14.1c-5.5,4.3-11.3,8.2-17.1,12.2c-4.2,2.9-8.1,2.7-11.4-1.5
		c-14.2-18.8-33.6-23.1-55.3-18.4c-22.4,4.9-36.8,19.5-43.4,41.2c-5.5,18.1-4.6,36.1,3,53.7c17.8,40.9,74,45,96.6,16.6
		c5.7-7.2,7.5-6.9,14.9-1.7c4.3,3.1,8.6,6.3,12.8,9.5c7.7,5.9,8.1,9.3,1.8,16.3c-12.1,13.4-26.8,23.1-44.5,27.1
		C2401.2,490.3,2392.1,490.8,2383.3,491.9z M2938.7,308.5c3.2-2.5,5.1-3.8,6.9-5.2c17.6-13.8,37.6-17.8,59.3-14.2
		c8.3,1.4,10,3.6,9.1,12.2c-0.5,5.6-1.4,11.2-2.2,16.8c-1.4,9.6-3.6,10.9-13.3,9.8c-7.2-0.8-14.7-1.4-21.8-0.4
		c-13.1,1.8-22.4,9.6-28.5,21.3c-5.8,11.1-8.3,23.1-8.3,35.6c0,29,0,57.9,0,86.9c0,2.3,0.1,4.7-0.1,7c-0.5,5.8-2.4,8-7.9,8.2
		c-8,0.3-16,0.3-24,0c-5.9-0.2-7.4-2-8-8c-0.3-3-0.2-6-0.2-9c0-35.6-0.1-105.2-0.1-106.9c-0.1-19-0.6-37.9-1.1-56.9
		c-0.3-11.9,0.4-12.8,11.9-12.9c5.3-0.1,10.7-0.1,16,0c8.7,0.2,9.3,0.7,11.1,9.4C2937.9,303.9,2938.1,305.5,2938.7,308.5z
		 M1863.7,358.8c0,0,0,118.3,0,120.9c0,4.7-3.1,6.9-7.9,7c-8.7,0-17.3,0-26,0c-4.9,0-7.7-2.7-7.7-7.5c0-2.6,0-262.9,0-263.9
		c0-14.5,0.5-14.9,15.3-15c4.7,0,9.3-0.1,14,0c10.8,0.2,12.1,1.5,12.3,12.1c0.1,5.3,0,101.2,0,106.2h134.9c0-5.1-0.1-100.4,0-105.7
		c0.1-10.5,1.5-11.9,12.3-12.1c4.7-0.1,9.3,0,14,0c14.8,0,15.3,0.5,15.3,15c0,1,0,261.4,0,263.9c0,4.7-2.8,7.4-7.7,7.5
		c-8.7,0.1-17.3,0.1-26,0c-4.8,0-7.9-2.3-7.9-7c0-2.7,0-121.4,0-121.4H1863.7z"/>
</g>
</svg>
