<?xml version="1.0" encoding="iso-8859-1"?>
<!-- Generator: Adobe Illustrator 18.1.1, SVG Export Plug-In . SVG Version: 6.00 Build 0)  -->
<!DOCTYPE svg PUBLIC "-//W3C//DTD SVG 1.1//EN" "http://www.w3.org/Graphics/SVG/1.1/DTD/svg11.dtd">
<svg version="1.1" xmlns="http://www.w3.org/2000/svg" xmlns:xlink="http://www.w3.org/1999/xlink" x="0px" y="0px"
	 viewBox="0 0 120 22.343" style="enable-background:new 0 0 120 22.343;" xml:space="preserve">
<g id="ibmdesign">
	<g>
		<g>
			<path d="M2.335,0v17.55H0V0H2.335z"/>
		</g>
		<g>
			<path d="M10.569,0c0.377,0,0.782,0.004,1.217,0.012c0.434,0.008,0.864,0.033,1.29,0.074c0.426,0.041,0.824,0.103,1.192,0.184
				c0.369,0.082,0.684,0.205,0.946,0.369c0.573,0.344,1.061,0.82,1.463,1.426c0.401,0.607,0.602,1.352,0.602,2.237
				c0,0.934-0.226,1.741-0.676,2.421c-0.451,0.68-1.094,1.184-1.929,1.512v0.049c1.082,0.23,1.909,0.721,2.483,1.475
				c0.573,0.754,0.86,1.671,0.86,2.753c0,0.639-0.115,1.262-0.344,1.868c-0.23,0.606-0.569,1.143-1.02,1.61
				c-0.451,0.467-1.008,0.844-1.672,1.131c-0.664,0.287-1.43,0.43-2.298,0.43h-8.48V0H10.569z M11.208,7.546
				c1.327,0,2.282-0.234,2.864-0.701c0.581-0.467,0.872-1.168,0.872-2.102c0-0.623-0.098-1.114-0.295-1.475
				c-0.197-0.36-0.467-0.639-0.811-0.836c-0.344-0.197-0.741-0.323-1.192-0.381c-0.451-0.057-0.93-0.086-1.438-0.086h-4.67v5.58
				H11.208z M12.388,15.584c1.032,0,1.839-0.278,2.421-0.836c0.581-0.557,0.872-1.327,0.872-2.311c0-0.573-0.107-1.048-0.32-1.426
				c-0.213-0.377-0.496-0.676-0.848-0.897c-0.353-0.221-0.758-0.377-1.217-0.467c-0.459-0.09-0.934-0.135-1.426-0.135H6.538v6.071
				H12.388z"/>
		</g>
		<g>
			<path d="M22.221,0l5.531,14.748L33.306,0h3.196v17.55h-2.212V2.95H34.24L28.759,17.55h-1.991L21.286,2.95h-0.049V17.55h-2.212V0
				H22.221z"/>
		</g>
		<g>
			<path d="M51.471,0c1.131,0,2.184,0.18,3.159,0.541c0.975,0.361,1.819,0.901,2.532,1.622c0.713,0.721,1.27,1.622,1.671,2.704
				c0.401,1.082,0.602,2.352,0.602,3.81c0,1.278-0.164,2.458-0.492,3.54c-0.328,1.082-0.823,2.016-1.487,2.802
				c-0.664,0.787-1.491,1.405-2.483,1.856c-0.992,0.451-2.159,0.676-3.503,0.676H43.9V0H51.471z M51.2,14.306
				c0.557,0,1.098-0.09,1.622-0.27c0.524-0.18,0.991-0.479,1.401-0.897c0.409-0.418,0.737-0.963,0.983-1.635
				c0.246-0.672,0.369-1.491,0.369-2.458c0-0.885-0.086-1.684-0.258-2.397s-0.455-1.323-0.848-1.831
				c-0.393-0.508-0.914-0.897-1.561-1.168c-0.648-0.27-1.446-0.406-2.397-0.406h-2.753v11.061H51.2z"/>
		</g>
		<g>
			<path d="M65.015,14.502c0.524,0.508,1.278,0.762,2.261,0.762c0.704,0,1.311-0.176,1.819-0.528
				c0.508-0.352,0.819-0.725,0.934-1.118h3.073c-0.492,1.524-1.246,2.614-2.261,3.269c-1.016,0.656-2.245,0.983-3.687,0.983
				c-1,0-1.901-0.16-2.704-0.479c-0.803-0.32-1.483-0.774-2.04-1.364c-0.557-0.59-0.987-1.294-1.29-2.114
				c-0.304-0.819-0.455-1.721-0.455-2.704c0-0.95,0.155-1.835,0.467-2.655c0.311-0.819,0.753-1.528,1.327-2.126
				c0.573-0.598,1.258-1.069,2.053-1.413c0.795-0.344,1.675-0.516,2.642-0.516c1.082,0,2.024,0.209,2.827,0.627
				c0.803,0.418,1.463,0.979,1.979,1.684c0.516,0.705,0.889,1.508,1.118,2.409c0.229,0.901,0.311,1.844,0.246,2.827h-9.169
				C64.204,13.175,64.49,13.995,65.015,14.502z M68.96,7.816c-0.418-0.458-1.053-0.688-1.905-0.688c-0.557,0-1.02,0.095-1.389,0.283
				c-0.369,0.189-0.664,0.422-0.885,0.701c-0.221,0.279-0.377,0.574-0.467,0.885c-0.09,0.311-0.143,0.59-0.16,0.836h5.678
				C69.668,8.947,69.378,8.275,68.96,7.816z"/>
		</g>
		<g>
			<path d="M77.857,14.392c0.155,0.27,0.356,0.492,0.602,0.664c0.246,0.172,0.528,0.299,0.848,0.381
				c0.32,0.082,0.651,0.123,0.996,0.123c0.246,0,0.504-0.028,0.774-0.086c0.27-0.057,0.516-0.147,0.737-0.27
				c0.221-0.123,0.405-0.286,0.553-0.492c0.147-0.205,0.221-0.463,0.221-0.774c0-0.524-0.349-0.917-1.045-1.18
				c-0.697-0.262-1.668-0.524-2.913-0.787c-0.508-0.114-1.004-0.25-1.487-0.406c-0.484-0.155-0.914-0.36-1.29-0.615
				c-0.377-0.254-0.68-0.573-0.91-0.959c-0.23-0.385-0.344-0.856-0.344-1.413c0-0.819,0.16-1.491,0.479-2.016
				c0.32-0.524,0.741-0.938,1.266-1.241c0.524-0.303,1.114-0.516,1.77-0.639c0.655-0.123,1.327-0.184,2.016-0.184
				c0.688,0,1.356,0.066,2.003,0.197c0.647,0.131,1.225,0.352,1.733,0.664c0.508,0.312,0.93,0.725,1.266,1.241
				c0.336,0.516,0.537,1.168,0.602,1.954h-3.318c-0.049-0.672-0.303-1.126-0.762-1.364c-0.459-0.237-1-0.356-1.622-0.356
				c-0.197,0-0.41,0.012-0.639,0.037c-0.23,0.025-0.439,0.078-0.627,0.16c-0.189,0.082-0.348,0.201-0.479,0.356
				c-0.131,0.156-0.197,0.365-0.197,0.627c0,0.312,0.114,0.565,0.344,0.762c0.229,0.197,0.528,0.356,0.897,0.479
				c0.369,0.123,0.791,0.234,1.266,0.332c0.475,0.098,0.959,0.205,1.45,0.32c0.508,0.115,1.004,0.254,1.487,0.418
				c0.483,0.164,0.913,0.381,1.29,0.651c0.377,0.27,0.68,0.607,0.91,1.008c0.229,0.402,0.344,0.897,0.344,1.487
				c0,0.836-0.168,1.536-0.504,2.102c-0.336,0.565-0.774,1.02-1.315,1.364c-0.541,0.344-1.159,0.586-1.856,0.725
				c-0.697,0.139-1.405,0.209-2.126,0.209c-0.737,0-1.459-0.074-2.163-0.221c-0.705-0.147-1.331-0.393-1.88-0.737
				c-0.549-0.344-1-0.799-1.352-1.364c-0.353-0.565-0.545-1.274-0.577-2.126h3.318C77.624,13.798,77.701,14.121,77.857,14.392z"/>
		</g>
		<g>
			<path d="M87.751,2.876V0h3.491v2.876H87.751z M91.241,4.842V17.55h-3.491V4.842H91.241z"/>
		</g>
		<g>
			<path d="M105.535,18.484c-0.139,0.655-0.439,1.266-0.897,1.831c-0.459,0.565-1.123,1.045-1.991,1.438
				c-0.869,0.393-2.032,0.59-3.49,0.59c-0.623,0-1.258-0.078-1.905-0.234c-0.648-0.156-1.238-0.397-1.77-0.725
				c-0.533-0.328-0.975-0.75-1.327-1.266c-0.353-0.516-0.553-1.135-0.602-1.856h3.466c0.164,0.655,0.483,1.11,0.959,1.364
				c0.475,0.254,1.024,0.381,1.647,0.381c0.983,0,1.7-0.295,2.151-0.885c0.45-0.59,0.668-1.336,0.652-2.237v-1.671h-0.049
				c-0.377,0.672-0.914,1.168-1.61,1.487c-0.697,0.32-1.43,0.479-2.2,0.479c-0.951,0-1.77-0.168-2.458-0.504
				c-0.688-0.336-1.254-0.795-1.696-1.377c-0.442-0.582-0.766-1.262-0.971-2.04c-0.205-0.778-0.307-1.601-0.307-2.47
				c0-0.819,0.119-1.61,0.356-2.372c0.237-0.762,0.586-1.434,1.045-2.016c0.459-0.581,1.028-1.045,1.708-1.389
				c0.68-0.344,1.463-0.516,2.348-0.516c0.836,0,1.569,0.156,2.2,0.467c0.631,0.312,1.159,0.836,1.585,1.573h0.049V4.842h3.318
				v11.897C105.744,17.247,105.674,17.829,105.535,18.484z M100.754,14.257c0.377-0.197,0.688-0.459,0.934-0.787
				c0.246-0.328,0.43-0.701,0.553-1.118c0.123-0.418,0.185-0.856,0.185-1.315c0-0.524-0.049-1.02-0.147-1.487
				c-0.098-0.467-0.262-0.881-0.492-1.241c-0.23-0.36-0.533-0.647-0.91-0.86c-0.377-0.213-0.852-0.32-1.426-0.32
				c-0.492,0-0.914,0.098-1.266,0.295C97.833,7.62,97.538,7.886,97.3,8.222c-0.238,0.336-0.41,0.721-0.516,1.155
				c-0.107,0.434-0.16,0.889-0.16,1.364c0,0.459,0.045,0.914,0.135,1.364c0.09,0.451,0.246,0.857,0.467,1.217
				c0.221,0.361,0.512,0.656,0.872,0.885c0.36,0.23,0.811,0.344,1.352,0.344C99.943,14.552,100.377,14.453,100.754,14.257z"/>
		</g>
		<g>
			<path d="M111.397,4.842v1.77h0.074c0.442-0.737,1.016-1.274,1.721-1.61c0.704-0.336,1.426-0.504,2.163-0.504
				c0.934,0,1.7,0.127,2.298,0.381c0.598,0.254,1.069,0.607,1.413,1.057c0.344,0.451,0.586,1,0.725,1.647
				C119.93,8.231,120,8.947,120,9.734v7.817h-3.49v-7.177c0-1.049-0.164-1.831-0.492-2.347c-0.328-0.516-0.91-0.774-1.745-0.774
				c-0.951,0-1.639,0.283-2.065,0.848c-0.426,0.565-0.639,1.496-0.639,2.79v6.661h-3.49V4.842H111.397z"/>
		</g>
	</g>
</g>
<g id="Layer_1">
</g>
</svg>
