<?xml version="1.0" encoding="iso-8859-1"?>
<!-- Generator: Adobe Illustrator 18.1.1, SVG Export Plug-In . SVG Version: 6.00 Build 0)  -->
<!DOCTYPE svg PUBLIC "-//W3C//DTD SVG 1.1//EN" "http://www.w3.org/Graphics/SVG/1.1/DTD/svg11.dtd">
<svg version="1.1" xmlns="http://www.w3.org/2000/svg" xmlns:xlink="http://www.w3.org/1999/xlink" x="0px" y="0px"
	 viewBox="0 0 120 31.858" style="enable-background:new 0 0 120 31.858;" xml:space="preserve">
<g id="javazen">
	<g>
		<g>
			<path style="fill:#4C2A19;" d="M12.253,4.963c0.011-0.059,0.014-0.118,0.01-0.177l-0.072-0.924l0.063-0.334
				c0.017-0.092,0.015-0.184-0.004-0.27c0.025-0.112,0.021-0.232-0.015-0.346l-0.049-0.155V2.653c0-0.17-0.064-0.329-0.172-0.45
				c0.005-0.115-0.019-0.228-0.071-0.331c0.047-0.122,0.058-0.257,0.029-0.388c-0.044-0.197-0.174-0.364-0.354-0.455
				C11.593,1.018,11.576,1.008,11.564,1l-0.086-0.128c-0.003-0.004-0.005-0.008-0.008-0.012c-0.09-0.128-0.303-0.343-0.722-0.343
				c-0.98,0-1.252,0.633-1.324,0.905c-0.002,0.006-0.003,0.01-0.004,0.016L9.182,2.442C9.14,2.62,9.172,2.806,9.27,2.959
				c0.025,0.04,0.054,0.076,0.087,0.109c0.01,0.061,0.027,0.119,0.053,0.175l0.176,0.382v0.734c0,0.079,0.014,0.158,0.041,0.233
				l0.226,0.614L9.76,5.516C9.712,5.677,9.726,5.848,9.795,5.996C9.731,6.133,9.714,6.29,9.75,6.44l0.107,0.444L9.782,7.067
				C9.76,7.121,9.745,7.178,9.737,7.236L9.539,8.765c-0.01,0.081-0.006,0.164,0.013,0.244l0.025,0.103L9.515,9.247
				c-0.044,0.098-0.064,0.201-0.06,0.302C9.435,9.58,9.418,9.613,9.403,9.647C9.34,9.795,9.332,9.96,9.38,10.112
				c-0.02,0.064-0.031,0.131-0.031,0.202l-0.022,0.233c-0.148,0.123-0.242,0.309-0.242,0.517v0.291l-0.084,0.242
				c-0.086,0.056-0.173,0.134-0.256,0.237c-0.085,0.105-0.135,0.233-0.146,0.365c-0.147,0.145-0.216,0.346-0.198,0.542
				c-0.025,0.045-0.044,0.094-0.058,0.144c-0.152,0.077-0.272,0.211-0.33,0.379l-0.096,0.278l-0.119,0.046
				c-0.184,0.072-0.328,0.222-0.392,0.409l-0.027,0.079l-0.162,0.099c-0.047,0.029-0.091,0.063-0.129,0.102
				c-0.047,0.019-0.091,0.044-0.133,0.073c-0.039,0.027-0.078,0.046-0.121,0.057c-0.042,0.011-0.084,0.025-0.123,0.044l-0.14,0.066
				H6.538c-0.16,0-0.314,0.057-0.435,0.16H5.997c-0.202,0-0.391,0.091-0.518,0.244H4.704c-0.018,0-0.035,0.001-0.053,0.002
				l-0.469,0.037c-0.337,0.024-0.672,0.036-0.995,0.036c-0.04,0-0.079,0.004-0.118,0.01l-0.106,0.019
				c-0.056,0.01-0.109,0.027-0.159,0.049l-0.366-0.068c-0.093-0.018-0.189-0.014-0.281,0.009L2.1,15.028
				c-0.015-0.005-0.031-0.01-0.047-0.013L1.67,14.92c-0.077-0.019-0.156-0.024-0.234-0.015L0.69,14.988
				c-0.261,0.029-0.481,0.207-0.564,0.457c-0.032,0.097-0.064,0.193-0.094,0.29c-0.058,0.18-0.037,0.375,0.057,0.539
				c0.094,0.164,0.252,0.281,0.436,0.322l0.587,0.132C1.17,16.74,1.23,16.745,1.29,16.743l0.104-0.005l0.013,0.014
				c0.131,0.137,0.308,0.207,0.486,0.207c0.123,0,0.247-0.034,0.358-0.103l0.111-0.07l0.036,0.008
				c0.07,0.015,0.142,0.019,0.213,0.012l0.511-0.055l0.698,0.155c0.111,0.025,0.226,0.021,0.335-0.011l0.802-0.236l0.731,0.064
				c0.136,0.012,0.273-0.018,0.391-0.085l0.043-0.025h0.059c0.132,0,0.261-0.039,0.371-0.112l0.008-0.005l0.036,0.003
				c0.124,0.009,0.249-0.017,0.359-0.075l0.451-0.235c0.05-0.005,0.099-0.015,0.148-0.031l0.171-0.056
				c0.033-0.011,0.065-0.025,0.096-0.041l1.135-0.581c0.087-0.044,0.163-0.106,0.222-0.183l0.568-0.722
				c0.021-0.026,0.04-0.055,0.056-0.084l0.09-0.037c0.207-0.084,0.356-0.265,0.404-0.478c0.067-0.062,0.121-0.138,0.159-0.225
				c0.006-0.013,0.011-0.028,0.016-0.041l0.135-0.137c0.063-0.064,0.112-0.139,0.145-0.221c0.101-0.097,0.17-0.224,0.196-0.361
				c0.117-0.124,0.183-0.289,0.183-0.462c0-0.024,0.001-0.047,0.002-0.071c0.134-0.115,0.218-0.278,0.233-0.456
				c0.001-0.006,0.001-0.012,0.001-0.017c0.128-0.127,0.199-0.299,0.199-0.478V11.19l0.011-0.113
				c0.254-0.134,0.399-0.419,0.349-0.71c-0.023-0.135-0.086-0.255-0.175-0.348v-0.015c0-0.042-0.004-0.083-0.012-0.125l-0.065-0.345
				c0.005-0.033,0.015-0.042,0.024-0.05c0.177-0.15,0.258-0.374,0.232-0.59c0.066-0.121,0.096-0.263,0.079-0.406l-0.018-0.147
				l0.02-0.24c0.002-0.03,0.003-0.059,0.002-0.089c0.17-0.151,0.253-0.38,0.217-0.608l-0.018-0.111
				c0.051-0.121,0.066-0.255,0.041-0.385L12.17,6.462l0.06-0.361c0.01-0.065,0.012-0.131,0.003-0.197l-0.004-0.033
				c0.077-0.1,0.126-0.22,0.139-0.347c0.017-0.168-0.03-0.336-0.131-0.47L12.253,4.963z"/>
			<path style="fill:#4C2A19;" d="M28.732,10.01c0.285-0.004,0.556-0.071,0.808-0.2l0.29,0.042c0.186,0.027,0.374-0.025,0.52-0.143
				l0.163-0.132l0.051,0.018c0.16,0.055,0.336,0.047,0.491-0.022c0.358-0.158,0.572-0.487,0.572-0.879
				c0-0.184-0.075-0.36-0.208-0.487c-0.133-0.127-0.312-0.193-0.495-0.185l-0.352,0.016c-0.299-0.169-0.448-0.219-0.621-0.219
				c-0.265,0-0.465,0.144-0.644,0.296c-0.013,0.003-0.037,0.007-0.078,0.007c-0.028,0-0.109-0.005-0.27-0.05
				c-0.06-0.017-0.121-0.026-0.183-0.026h-0.576c-0.047,0-0.094,0.005-0.14,0.015l-0.319,0.067
				c-0.033-0.033-0.089-0.101-0.158-0.229c0.027-0.09,0.041-0.179,0.041-0.266c0-0.039-0.003-0.077-0.01-0.116l-0.051-0.296V6.887
				c0-0.16-0.057-0.314-0.161-0.437l-0.014-0.016c0.016-0.161-0.026-0.324-0.124-0.458l-0.247-0.343l-0.032-0.36
				c-0.003-0.038-0.01-0.075-0.02-0.112l-0.221-0.834c-0.014-0.054-0.035-0.106-0.062-0.155l-0.288-0.517l-0.161-0.632l-0.044-0.514
				c-0.021-0.24-0.168-0.449-0.384-0.55c-0.05-0.095-0.103-0.181-0.159-0.258l-0.033-0.434c-0.017-0.233-0.155-0.441-0.363-0.548
				l-0.406-0.21c-0.009-0.005-0.017-0.009-0.024-0.014L24.7,0.307C24.574,0.113,24.358-0.003,24.127,0
				c-0.224,0.002-0.431,0.116-0.553,0.302c-0.293,0.102-0.569,0.33-0.826,0.68c-0.139,0.19-0.169,0.438-0.079,0.655
				c-0.078,0.091-0.131,0.203-0.151,0.322c-0.021,0.124-0.065,0.163-0.079,0.176c-0.22,0.196-0.285,0.259-0.316,0.292
				c-0.101,0.104-0.165,0.237-0.184,0.38c-0.103,0.112-0.169,0.26-0.177,0.422c-0.081,0.089-0.136,0.2-0.16,0.32
				c-0.135,0.056-0.25,0.155-0.325,0.285c-0.038,0.065-0.064,0.135-0.078,0.207l-0.133,0.281c-0.152,0.081-0.267,0.217-0.322,0.38
				c-0.259,0.096-0.439,0.345-0.439,0.631v0.05c0,0.002-0.01,0.161-0.373,0.481c-0.144,0.128-0.227,0.311-0.227,0.504v0.004
				c-0.109,0.072-0.197,0.174-0.251,0.297c-0.206,0.073-0.367,0.244-0.425,0.462c-0.019,0.072-0.026,0.146-0.021,0.218
				c-0.01,0.023-0.019,0.046-0.028,0.069c-0.271,0.184-0.56,0.394-0.604,0.74l-0.123,0.08l-0.336-0.037
				c-0.19-0.021-0.38,0.04-0.522,0.168c-0.114,0.102-0.189,0.239-0.214,0.387l-0.272,0.251c-0.197,0.183-0.267,0.465-0.177,0.719
				c0.049,0.137,0.112,0.262,0.189,0.374l-0.56,0.893l-0.141,0.058c-0.198,0.08-0.346,0.249-0.399,0.456
				c-0.093,0.362-0.256,0.607-0.497,0.75c-0.167,0.098-0.284,0.265-0.32,0.455c-0.003,0.015-0.005,0.022-0.005,0.023
				c-0.004,0.004-0.032,0.025-0.108,0.046c-0.244,0.065-0.431,0.263-0.483,0.511c-0.027,0.129-0.071,0.148-0.113,0.167
				c-0.023,0.01-0.045,0.021-0.067,0.034l-0.192,0.111l-0.322,0.045c-0.213,0.03-0.399,0.159-0.501,0.349
				c-0.061,0.115-0.087,0.243-0.077,0.369c-0.065,0.106-0.1,0.228-0.1,0.353v0.228l-0.043,0.1c-0.077,0.178-0.073,0.382,0.011,0.557
				c0.084,0.175,0.239,0.305,0.427,0.358l0.502,0.139c0.184,0.051,0.382,0.021,0.543-0.082l0.649-0.417
				c0.088-0.056,0.162-0.132,0.215-0.222l0.442-0.746c0.099-0.046,0.186-0.117,0.253-0.206l0.614-0.823l0.014-0.008
				c0.233-0.076,0.406-0.309,1.253-1.65l0.142-0.036c0.165-0.041,0.309-0.144,0.402-0.287c0.331-0.512,0.554-0.785,0.691-0.928
				l0.004,0.002c0.079,0.031,0.161,0.046,0.243,0.046l0.005,0.006c0.194,0.215,0.504,0.282,0.77,0.165l0.275-0.121h0.027
				l0.036,0.029c0.212,0.17,0.506,0.196,0.744,0.066c0.179,0.057,0.376,0.037,0.542-0.059c0.034-0.02,0.067-0.043,0.097-0.068
				l0.143-0.011l0.353,0.079c0.181,0.04,0.371,0.004,0.525-0.1l0.257-0.174h0.195l0.292,0.022c0.164,0.013,0.326-0.011,0.479-0.047
				c0.035,0.018,0.072,0.033,0.11,0.044c0.159,0.049,0.33,0.038,0.479-0.031c0.168,0.031,0.345-0.002,0.495-0.101l0.111-0.074
				l0.229,0.047c0.062,0.012,0.124,0.016,0.186,0.011c0.145,0.233,0.207,0.348,0.232,0.399l0.076,0.573
				c0.015,0.115,0.06,0.224,0.13,0.317l0.118,0.157l0.493,1.218c0.03,0.074,0.073,0.142,0.126,0.201l0.22,0.241l0.01,0.167
				c0.01,0.173,0.087,0.336,0.215,0.454l0.018,0.016c0.01,0.164,0.08,0.318,0.197,0.434c0.181,0.181,0.356,0.442,0.518,0.777
				c0.064,0.131,0.168,0.238,0.297,0.304l0.057,0.03l0.134,0.255c0.116,0.221,0.346,0.359,0.595,0.359l0.154,0.117
				c0.119,0.096,0.268,0.149,0.421,0.149l0.224,0.177c0.124,0.1,0.274,0.151,0.424,0.151c0.144,0,0.288-0.046,0.409-0.139
				l0.331-0.252c0.167-0.128,0.265-0.326,0.264-0.537c-0.001-0.21-0.1-0.408-0.268-0.535l-0.04-0.03l-0.101-0.239
				c-0.06-0.142-0.168-0.259-0.305-0.332l-0.258-0.136c-0.103-0.18-0.258-0.394-0.481-0.663l-0.546-0.96
				c-0.032-0.056-0.071-0.106-0.118-0.151l-0.106-0.103l0.002-0.009c0.04-0.179,0.007-0.367-0.095-0.52l-0.465-0.704l-0.041-0.314
				c-0.013-0.1-0.048-0.194-0.102-0.278l-0.227-0.351l-0.044-0.527C28.396,10.171,28.585,10.122,28.732,10.01z M22.405,8.446
				c-0.166-0.055-0.279-0.084-0.4-0.084c-0.124,0-0.229,0.022-0.316,0.055c-0.05,0.009-0.085,0.014-0.107,0.017
				c-0.008-0.002-0.019-0.006-0.032-0.011c-0.018-0.006-0.036-0.011-0.055-0.017l-0.473-0.119c0.043-0.06,0.076-0.127,0.097-0.199
				L21.266,7.6c0.361-0.224,0.62-0.615,0.775-1.171l0.255-0.135c0.172-0.091,0.296-0.252,0.341-0.441l0.056-0.238
				c0.442-0.464,0.526-0.597,0.575-0.699l0.128-0.252l0.575-0.848l0.001-0.001c0.009,0.007,0.016,0.013,0.022,0.018l0.146,0.237
				c0.007,0.012,0.015,0.024,0.024,0.035c0.008,0.012,0.015,0.021,0.02,0.03l0.042,0.474c0.011,0.12,0.052,0.23,0.116,0.322
				c0.007,0.017,0.014,0.034,0.022,0.05l0.122,0.252l0.036,0.305c0.011,0.098,0.045,0.192,0.097,0.276l0.223,0.36l0.083,0.83
				c0.016,0.157,0.086,0.302,0.195,0.411c-0.02,0.206,0.056,0.411,0.206,0.553c-0.05,0.098-0.075,0.205-0.074,0.314
				c-0.13-0.016-0.312-0.04-0.563-0.078c-0.064-0.009-0.13-0.009-0.194,0l-0.774,0.11l-0.958,0.074
				c-0.033,0.002-0.066,0.008-0.098,0.015l-0.225,0.052C22.428,8.453,22.417,8.449,22.405,8.446z"/>
			<path style="fill:#4C2A19;" d="M46.788,4.993c0.073-0.075,0.127-0.166,0.158-0.266l0.135-0.427l0.182-0.232
				c0.067-0.085,0.112-0.185,0.132-0.291l0.073-0.391c0.024-0.129,0.019-0.272-0.021-0.527c-0.044-0.279-0.175-0.506-0.366-0.655
				c-0.197-0.298-0.499-0.41-0.751-0.41c-0.02,0-0.043,0-0.066,0.001l-0.027-0.011c-0.208-0.088-0.446-0.066-0.634,0.058
				c-0.104,0.069-0.186,0.165-0.237,0.274c-0.031,0.021-0.078,0.052-0.149,0.092c-0.199,0.112-0.328,0.316-0.343,0.544
				c-0.011,0.176-0.025,0.26-0.032,0.291l-0.116,0.231c-0.029,0.056-0.049,0.117-0.061,0.178L44.567,3.97
				c-0.006,0.03-0.01,0.062-0.011,0.092c-0.001,0.002-0.002,0.003-0.004,0.004c-0.075,0.072-0.132,0.161-0.166,0.259l-0.101,0.288
				L44.18,4.729c-0.113,0.124-0.176,0.285-0.176,0.453v0.124L43.97,5.451l-0.014,0.014c-0.118,0.112-0.188,0.26-0.205,0.416
				c-0.113,0.138-0.185,0.27-0.224,0.408c-0.011,0.041-0.019,0.083-0.022,0.124c-0.078,0.132-0.143,0.299-0.204,0.513
				c-0.028,0.1-0.05,0.163-0.063,0.198c-0.052,0.039-0.097,0.087-0.136,0.14c-0.138,0.193-0.321,0.401-0.545,0.616
				c-0.04,0.039-0.075,0.082-0.105,0.13l-0.263,0.425l-0.223,0.287c-0.043,0.056-0.077,0.118-0.101,0.184l-0.113,0.315l-0.14,0.152
				c-0.007,0.007-0.014,0.015-0.02,0.023c-0.103,0.122-0.205,0.303-0.328,0.587c-0.024,0.056-0.045,0.102-0.062,0.139
				c-0.145,0.063-0.266,0.177-0.337,0.324c-0.036,0.074-0.059,0.113-0.07,0.13c-0.104,0.107-0.196,0.253-0.301,0.476
				c-0.053,0.111-0.11,0.209-0.171,0.289c-0.056,0.073-0.116,0.135-0.177,0.184c-0.039,0.031-0.075,0.067-0.107,0.106l-0.311,0.387
				l-0.239,0.195c-0.017,0.014-0.033,0.028-0.048,0.044c-0.068,0.067-0.129,0.131-0.186,0.191c-0.083-0.143-0.15-0.301-0.201-0.474
				c-0.001-0.004-0.002-0.008-0.004-0.013l-0.306-0.96c-0.017-0.052-0.04-0.103-0.069-0.15l-0.066-0.106l0.013-0.085
				c0.023-0.155-0.009-0.313-0.09-0.448l-0.377-0.622l-0.122-0.472c-0.008-0.032-0.018-0.062-0.031-0.092l-0.159-0.379
				c-0.031-0.073-0.073-0.139-0.127-0.197c-0.043-0.047-0.104-0.128-0.127-0.298c-0.053-0.384-0.221-0.731-0.5-1.031l-0.214-0.365
				l-0.016-0.103c-0.013-0.078-0.039-0.153-0.078-0.223l-0.368-0.654L36.398,5.62c-0.014-0.168-0.09-0.325-0.214-0.439l-0.09-0.083
				l-0.048-0.178c-0.035-0.132-0.109-0.25-0.213-0.338c-0.234-0.2-0.289-0.282-0.286-0.277c-0.044-0.085-0.145-0.266-0.508-0.853
				c-0.031-0.05-0.069-0.096-0.111-0.137l-0.179-0.167l-0.252-0.519c-0.079-0.163-0.217-0.284-0.382-0.342
				c-0.033-0.036-0.071-0.068-0.112-0.097c-0.218-0.15-0.506-0.219-0.907-0.219c-0.071,0-0.142,0.012-0.209,0.034l-0.232,0.076
				c-0.176,0.058-0.321,0.185-0.4,0.353c-0.163,0.346-0.235,0.602-0.235,0.829c0,0.019,0.001,0.038,0.002,0.056l0.024,0.29
				c0.01,0.122,0.053,0.239,0.125,0.338c0.345,0.477,0.681,0.808,1.028,1.009c0.016,0.01,0.034,0.019,0.051,0.027l0.223,0.408
				c0.004,0.007,0.008,0.014,0.012,0.021l0.404,0.682c0.037,0.062,0.083,0.118,0.137,0.165l0.119,0.104l0.258,0.583
				c0.059,0.132,0.158,0.242,0.284,0.313l0.147,0.083l0.19,0.616c0.017,0.055,0.041,0.108,0.072,0.157l0.646,1.037l0.572,1.12
				l0.351,0.889l0.019,0.406c0.005,0.102,0.033,0.201,0.082,0.291l0.241,0.442l0.261,0.769c0.083,0.258,0.263,0.59,0.565,1.04
				l0.217,0.571c0.011,0.028,0.023,0.054,0.037,0.08c0.042,0.078,0.12,0.217,0.234,0.417c0.095,0.167,0.175,0.33,0.237,0.483
				c0.253,0.624,0.734,0.69,0.929,0.69c0.353,0,0.576-0.141,0.706-0.264c0.138-0.133,0.242-0.323,0.358-0.654
				c0.031-0.092,0.044-0.189,0.034-0.286l-0.065-0.682c0.105-0.191,0.18-0.361,0.227-0.519l0.348-0.292
				c0.06-0.05,0.11-0.11,0.149-0.177l0.382-0.658l0.843-1.103c0.008-0.01,0.016-0.022,0.024-0.032l0.236-0.349l0.135-0.122
				c0.054-0.048,0.1-0.105,0.135-0.169l0.279-0.495l0.443-0.55c0.04-0.05,0.073-0.106,0.098-0.165l0.311-0.753l0.523-0.584
				c0.049-0.055,0.089-0.117,0.118-0.184c0.009-0.016,0.022-0.037,0.038-0.064c0.016-0.027,0.049-0.073,0.117-0.139
				c0.1-0.099,0.202-0.204,0.307-0.317c0.176-0.189,0.289-0.418,0.33-0.666c0.002-0.002,0.005-0.003,0.007-0.006
				c0.303-0.22,0.507-0.553,0.588-0.962c0.005-0.026,0.009-0.053,0.012-0.08c0.017-0.221,0.071-0.305,0.093-0.33
				c0.029-0.034,0.056-0.07,0.077-0.109l0.252-0.444L46.788,4.993z"/>
			<path style="fill:#4C2A19;" d="M64.632,15.456l-0.039-0.03l-0.101-0.239c-0.061-0.142-0.168-0.26-0.305-0.332l-0.258-0.136
				c-0.103-0.18-0.258-0.394-0.481-0.664l-0.546-0.959c-0.032-0.056-0.071-0.106-0.118-0.151l-0.106-0.103l0.002-0.009
				c0.041-0.179,0.007-0.367-0.095-0.52L62.12,11.61l-0.041-0.314c-0.013-0.099-0.048-0.194-0.102-0.278l-0.227-0.351l-0.044-0.527
				c0.185,0.03,0.373-0.018,0.521-0.131c0.285-0.004,0.556-0.071,0.808-0.2l0.29,0.042c0.186,0.026,0.374-0.025,0.519-0.143
				l0.163-0.132l0.051,0.018c0.161,0.055,0.336,0.047,0.492-0.021c0.358-0.159,0.572-0.488,0.572-0.88
				c0-0.184-0.076-0.36-0.208-0.487c-0.133-0.127-0.312-0.194-0.495-0.185l-0.353,0.016c-0.296-0.167-0.45-0.219-0.621-0.219
				c-0.265,0-0.464,0.144-0.644,0.296c-0.013,0.003-0.037,0.007-0.078,0.007c-0.027,0-0.108-0.005-0.27-0.05
				c-0.06-0.017-0.121-0.026-0.183-0.026h-0.575c-0.047,0-0.094,0.005-0.139,0.015l-0.319,0.067
				c-0.033-0.034-0.089-0.101-0.158-0.229c0.027-0.09,0.041-0.178,0.041-0.266c0-0.038-0.004-0.077-0.01-0.115l-0.051-0.297V6.887
				c0-0.16-0.057-0.314-0.161-0.437l-0.013-0.016c0.016-0.16-0.027-0.324-0.124-0.458L60.51,5.633l-0.033-0.36
				c-0.003-0.038-0.01-0.075-0.019-0.112l-0.221-0.834c-0.014-0.054-0.035-0.106-0.062-0.155l-0.288-0.517l-0.161-0.632
				l-0.044-0.514c-0.021-0.24-0.168-0.449-0.383-0.551c-0.05-0.095-0.103-0.181-0.159-0.257l-0.033-0.435
				c-0.017-0.233-0.155-0.441-0.363-0.548l-0.406-0.209C58.33,0.504,58.322,0.5,58.315,0.495l-0.121-0.188
				C58.068,0.113,57.852-0.006,57.62,0c-0.223,0.002-0.431,0.117-0.553,0.302c-0.293,0.102-0.569,0.33-0.826,0.68
				c-0.139,0.19-0.169,0.438-0.079,0.655c-0.078,0.091-0.131,0.203-0.151,0.322c-0.022,0.124-0.065,0.163-0.079,0.176
				c-0.221,0.197-0.283,0.257-0.317,0.292c-0.1,0.104-0.164,0.237-0.183,0.379c-0.103,0.113-0.169,0.26-0.176,0.422
				c-0.08,0.089-0.136,0.2-0.16,0.32c-0.136,0.056-0.25,0.155-0.325,0.284c-0.038,0.065-0.064,0.136-0.078,0.208l-0.133,0.281
				c-0.151,0.081-0.267,0.217-0.322,0.38c-0.26,0.096-0.44,0.345-0.44,0.631v0.05c0,0.002-0.01,0.161-0.373,0.481
				c-0.145,0.128-0.227,0.311-0.227,0.504v0.005C53.088,6.445,53,6.547,52.947,6.67c-0.206,0.073-0.367,0.244-0.425,0.462
				c-0.019,0.072-0.026,0.146-0.021,0.217c-0.01,0.023-0.019,0.046-0.028,0.069c-0.271,0.184-0.56,0.394-0.604,0.74l-0.123,0.08
				L51.41,8.201c-0.19-0.021-0.38,0.04-0.523,0.168c-0.114,0.102-0.189,0.239-0.214,0.387l-0.272,0.251
				c-0.197,0.183-0.267,0.465-0.177,0.719c0.048,0.137,0.112,0.262,0.188,0.374l-0.56,0.893l-0.141,0.058
				c-0.198,0.08-0.346,0.249-0.399,0.456c-0.093,0.362-0.256,0.607-0.497,0.75c-0.167,0.098-0.284,0.264-0.319,0.455
				c-0.003,0.015-0.006,0.022-0.006,0.024c-0.004,0.003-0.032,0.025-0.109,0.046c-0.244,0.066-0.431,0.263-0.483,0.511
				c-0.027,0.128-0.069,0.147-0.113,0.166c-0.023,0.01-0.045,0.021-0.067,0.034l-0.192,0.111l-0.323,0.045
				c-0.213,0.03-0.399,0.159-0.501,0.35c-0.061,0.114-0.087,0.242-0.077,0.368c-0.065,0.106-0.1,0.228-0.1,0.353v0.228l-0.043,0.1
				c-0.077,0.178-0.073,0.382,0.011,0.557c0.084,0.175,0.24,0.305,0.427,0.358l0.502,0.139c0.184,0.051,0.382,0.021,0.543-0.082
				l0.649-0.417c0.088-0.056,0.162-0.132,0.215-0.223l0.442-0.745c0.099-0.046,0.186-0.117,0.253-0.206l0.614-0.823l0.007-0.004
				c0.23-0.065,0.385-0.271,1.26-1.653l0.142-0.036c0.166-0.041,0.31-0.144,0.402-0.287c0.331-0.512,0.554-0.785,0.69-0.928
				l0.004,0.002c0.079,0.031,0.162,0.046,0.244,0.046l0.005,0.006c0.194,0.215,0.504,0.281,0.769,0.165l0.275-0.121h0.026L54,10.822
				c0.212,0.17,0.506,0.196,0.744,0.066c0.179,0.057,0.376,0.037,0.542-0.059c0.035-0.02,0.067-0.043,0.097-0.068l0.142-0.011
				l0.354,0.079c0.181,0.04,0.37,0.004,0.523-0.1l0.258-0.174h0.195l0.292,0.022c0.164,0.013,0.326-0.011,0.479-0.047
				c0.036,0.018,0.073,0.033,0.111,0.044c0.159,0.049,0.33,0.038,0.478-0.031c0.168,0.031,0.345-0.002,0.495-0.101l0.111-0.074
				l0.229,0.047c0.061,0.012,0.124,0.016,0.186,0.011c0.145,0.233,0.207,0.348,0.232,0.399l0.076,0.573
				c0.015,0.115,0.06,0.224,0.13,0.316l0.118,0.157l0.493,1.219c0.03,0.074,0.073,0.142,0.126,0.201l0.22,0.241l0.01,0.167
				c0.01,0.173,0.088,0.336,0.215,0.454l0.018,0.017c0.01,0.164,0.08,0.318,0.197,0.434c0.181,0.181,0.356,0.442,0.518,0.777
				c0.063,0.131,0.167,0.238,0.296,0.304l0.057,0.03l0.134,0.255c0.117,0.221,0.346,0.359,0.595,0.359l0.154,0.117
				c0.12,0.096,0.268,0.149,0.422,0.149l0.224,0.177c0.123,0.1,0.274,0.151,0.425,0.151c0.144,0,0.287-0.046,0.408-0.139
				l0.331-0.252c0.167-0.127,0.264-0.326,0.264-0.536C64.899,15.782,64.8,15.583,64.632,15.456z M55.899,8.446
				c-0.166-0.055-0.279-0.084-0.401-0.084c-0.125,0-0.229,0.022-0.316,0.055c-0.05,0.009-0.085,0.014-0.106,0.017
				c-0.009-0.002-0.019-0.006-0.032-0.011c-0.019-0.006-0.037-0.011-0.056-0.017l-0.473-0.119c0.043-0.06,0.076-0.127,0.097-0.199
				L54.759,7.6c0.361-0.224,0.621-0.616,0.775-1.171l0.255-0.134c0.172-0.091,0.296-0.252,0.341-0.441l0.056-0.237
				c0.441-0.462,0.525-0.595,0.575-0.699l0.128-0.252l0.575-0.848c0,0,0.001,0,0.001-0.001c0.009,0.008,0.016,0.014,0.022,0.018
				l0.146,0.236c0.008,0.012,0.016,0.025,0.024,0.037c0.008,0.011,0.014,0.02,0.02,0.028l0.042,0.474
				c0.01,0.12,0.053,0.231,0.117,0.324c0.007,0.017,0.014,0.033,0.021,0.049l0.122,0.252l0.036,0.303
				c0.011,0.098,0.044,0.193,0.096,0.277l0.224,0.36l0.082,0.83c0.016,0.157,0.087,0.302,0.196,0.411
				c-0.02,0.206,0.056,0.411,0.206,0.553c-0.05,0.098-0.076,0.205-0.074,0.314c-0.131-0.016-0.312-0.04-0.563-0.078
				c-0.064-0.009-0.129-0.009-0.194,0l-0.774,0.11l-0.958,0.074c-0.033,0.002-0.066,0.008-0.098,0.015l-0.225,0.052
				C55.922,8.453,55.912,8.449,55.899,8.446z"/>
			<path style="fill:#4C2A19;" d="M87.095,11.161c-0.2-0.196-0.448-0.299-0.715-0.299c-0.596,0-0.928,0.578-1.055,0.818
				l-0.124,0.182c-0.058,0.085-0.096,0.182-0.111,0.284l-0.108,0.747l-0.274,0.586L84.55,13.61c-0.072,0.061-0.129,0.135-0.17,0.218
				c-0.052,0.037-0.182,0.116-0.462,0.23l-0.875,0.086l-0.189-0.087c-0.079-0.036-0.165-0.057-0.252-0.061l-1.02-0.047l-0.522-0.154
				c-0.059-0.017-0.119-0.027-0.18-0.028l-1.552-0.023c-0.214-0.161-0.499-0.255-0.886-0.296c-0.275-0.028-0.535-0.059-0.772-0.092
				c-0.042-0.006-0.085-0.007-0.128-0.006c-0.178-0.111-0.398-0.133-0.594-0.059l-0.195-0.062c-0.102-0.032-0.211-0.04-0.317-0.022
				l-0.013,0.002c-0.308-0.184-0.675-0.277-1.097-0.277c-0.095,0-0.218,0.008-0.38,0.024c-0.028-0.042-0.057-0.081-0.088-0.118
				c-0.218-0.254-0.589-0.309-0.872-0.13l-0.141,0.09c-0.056-0.01-0.143-0.031-0.269-0.077c-0.12-0.044-0.25-0.053-0.375-0.027
				c-0.117-0.134-0.283-0.217-0.462-0.228l-1.151-0.076c-0.021-0.001-0.041-0.002-0.061-0.001l-0.126,0.003L71.9,12.08
				c0.078-0.049,0.145-0.113,0.197-0.19l0.544-0.794l0.407-0.187c0.035-0.016,0.068-0.035,0.1-0.057l0.331-0.228
				c0.099-0.068,0.177-0.161,0.227-0.267l0.157-0.053c0.336-0.113,0.443-0.391,0.621-0.849c0.03-0.075,0.059-0.116,0.084-0.138
				h0.256c0.258,0,0.493-0.148,0.606-0.38c0.035-0.072,0.106-0.178,0.316-0.261c0.173-0.069,0.31-0.206,0.378-0.378l0.023-0.058
				c0.149-0.071,0.286-0.169,0.382-0.318c0.04-0.061,0.083-0.138,0.132-0.237c0.046-0.034,0.155-0.108,0.383-0.225
				c0.178-0.092,0.303-0.258,0.347-0.449c0.038-0.043,0.069-0.091,0.094-0.143c0.01-0.004,0.019-0.008,0.028-0.012
				c0.171-0.077,0.312-0.19,0.416-0.329c0.126-0.077,0.225-0.194,0.279-0.334l0.145-0.095c0.112-0.073,0.2-0.18,0.251-0.304
				l0.035-0.083l0.006-0.001c0.23-0.03,0.428-0.175,0.525-0.386c0.014-0.031,0.106-0.208,0.538-0.718
				c0.015-0.018,0.029-0.036,0.042-0.055l0.085-0.124l0.414-0.313c0.027-0.021,0.054-0.044,0.078-0.069l0.408-0.421l0.208-0.116
				c0.144-0.08,0.251-0.21,0.305-0.359c0.102-0.037,0.195-0.099,0.269-0.181c0.025-0.027,0.044-0.046,0.056-0.056l0.518-0.174
				c0.159-0.054,0.292-0.165,0.374-0.311l0.098-0.177c0.073-0.131,0.1-0.282,0.077-0.431c-0.071-0.449-0.259-0.835-0.561-1.146
				c-0.087-0.09-0.197-0.153-0.318-0.184c-0.198-0.051-0.325-0.071-0.435-0.071c-0.153,0-0.331,0.053-0.48,0.184
				c-0.092,0.04-0.181,0.094-0.268,0.162L80.552,0.76c-0.02-0.002-0.04-0.002-0.061-0.002h-0.122c-0.035,0-0.07,0.002-0.103,0.008
				l-0.561,0.087l-0.597-0.066c-0.056-0.006-0.113-0.005-0.169,0.002l-0.458,0.066l-0.335-0.02
				c-0.014-0.001-0.028-0.001-0.042-0.001c-0.137,0-0.323,0.011-0.566,0.034l-0.018-0.009c-0.138-0.072-0.297-0.093-0.449-0.061
				l-0.285,0.061c-0.622-0.002-1.087-0.032-1.381-0.088c-0.204-0.04-0.408,0.017-0.561,0.146c-0.021-0.007-0.044-0.015-0.07-0.027
				c-0.113-0.049-0.236-0.066-0.354-0.051c-0.073-0.032-0.153-0.051-0.236-0.055l-0.526-0.025c-0.122-0.007-0.243,0.022-0.351,0.079
				l-0.094,0.051l-1.062-0.127c-0.081-0.01-0.164-0.004-0.244,0.016l-0.378,0.095l-0.022-0.01c-0.097-0.042-0.203-0.061-0.309-0.054
				l-0.799,0.049c-0.278,0-0.424-0.011-0.498-0.02c-0.137-0.017-0.276,0.009-0.399,0.074L69.169,1.09
				c-0.227,0.122-0.364,0.361-0.355,0.618c0.053,1.421,0.728,1.633,1.125,1.633h0.074c0.091,0,0.181-0.018,0.264-0.054l0.091-0.039
				l0.214,0.09c0.215,0.091,0.457,0.063,0.643-0.065c0.142,0.083,0.31,0.111,0.469,0.081c0.095,0.042,0.196,0.063,0.301,0.063
				c0.101,0,0.246-0.021,0.391-0.111l0.03,0.015c0.165,0.083,0.356,0.093,0.528,0.032c0.151,0.054,0.319,0.053,0.474-0.008
				l0.408-0.162c0.187,0.021,0.411,0.032,0.678,0.032c0.253,0,0.438-0.009,0.578-0.029l0.038-0.003
				c0.117,0.136,0.284,0.22,0.463,0.232c0.187,0.013,0.37-0.052,0.506-0.18l0.052-0.049c0.021,0.002,0.043,0.003,0.064,0.003h0.404
				c0.033,0,0.066-0.002,0.099-0.007l0.009-0.002l0.065,0.023c0.099,0.034,0.206,0.045,0.31,0.03l0.233-0.032
				c0.138,0.106,0.313,0.156,0.487,0.135c0.019-0.002,0.037-0.004,0.055-0.007c-0.131,0.157-0.199,0.224-0.226,0.247
				c-0.156,0.083-0.274,0.223-0.327,0.393L77.24,4.212l-0.331,0.221c-0.077,0.052-0.142,0.118-0.192,0.196l-0.306,0.478
				c-0.136,0.042-0.254,0.126-0.338,0.238c-0.047,0.017-0.092,0.04-0.135,0.068c-0.124,0.08-0.216,0.198-0.265,0.333
				c-0.068,0.058-0.128,0.122-0.178,0.191c-0.161,0.029-0.352,0.107-0.532,0.294c-0.05,0.052-0.09,0.111-0.121,0.174
				c-0.132,0.076-0.235,0.195-0.29,0.339l-0.032,0.084c-0.042,0.032-0.072,0.054-0.094,0.07l-0.119,0.02
				c-0.168,0.029-0.319,0.121-0.423,0.257l-0.345,0.456c-0.221,0.061-0.457,0.231-0.849,0.594c-0.118,0.109-0.193,0.256-0.211,0.415
				l-0.007,0.057L72.31,8.778c-0.213,0.111-0.372,0.23-0.486,0.367c-0.009,0.01-0.017,0.02-0.025,0.031l-0.245,0.328
				c-0.245,0.032-0.449,0.195-0.538,0.417c-0.132,0.07-0.268,0.179-0.391,0.348c-0.01,0.001-0.022,0.001-0.037,0.001
				c-0.267,0-0.502,0.156-0.61,0.389c-0.033,0.023-0.064,0.05-0.092,0.078c-0.057,0.058-0.092,0.104-0.291,0.424
				c-0.026,0.041-0.048,0.074-0.069,0.102c-0.224,0.036-0.416,0.183-0.508,0.392c-0.092,0.05-0.181,0.109-0.266,0.18
				c-0.262,0.099-0.563,0.322-0.99,0.724l-0.571,0.217c-0.144,0.055-0.264,0.157-0.34,0.287c-0.032,0.019-0.089,0.049-0.183,0.088
				c-0.16,0.067-0.289,0.194-0.358,0.354l-0.098,0.227c-0.036,0.084-0.055,0.175-0.055,0.267v0.316c0,0.15,0.05,0.296,0.143,0.415
				c0.12,0.152,0.158,0.229,0.166,0.249c0.068,0.306,0.341,0.526,0.656,0.526h0.145l0.114,0.039c0.23,0.079,0.485,0.027,0.667-0.135
				l0.48-0.429l0.491-0.062c0.161-0.021,0.309-0.099,0.418-0.22l0.002-0.002c0.059-0.001,0.118-0.008,0.175-0.024
				c0.121,0.033,0.25,0.032,0.373-0.006c0.042,0.013,0.085,0.022,0.128,0.026c0.258,0.026,0.365,0.048,0.401,0.057l0.24,0.111
				c0.229,0.107,0.495,0.075,0.691-0.074c0.097,0.018,0.197,0.013,0.292-0.012l0.057-0.015c0.117,0.041,0.245,0.049,0.369,0.022
				l0.812,0.209c0.055,0.014,0.112,0.021,0.168,0.021h0.311l0.958,0.126l0.229,0.147c0.124,0.079,0.27,0.116,0.417,0.105
				l0.327-0.027c0.167,0.13,0.387,0.176,0.593,0.118c0.147-0.041,0.254-0.067,0.33-0.084c0.035,0.017,0.072,0.032,0.11,0.043
				l0.82,0.24c0.155,0.045,0.32,0.033,0.467-0.033l0.195,0.082c0.064,0.028,0.132,0.045,0.202,0.051l0.926,0.084l0.21,0.165
				c0.187,0.148,0.434,0.184,0.65,0.103c0.159,0.109,0.357,0.145,0.546,0.097c0.062-0.016,0.121-0.04,0.175-0.072l0.372,0.178
				c0.097,0.047,0.205,0.069,0.313,0.066l0.735-0.025c0.041,0,0.075,0.001,0.102,0.003c0.022,0.015,0.044,0.028,0.067,0.042
				c0.196,0.107,0.433,0.109,0.631,0.006c0.01-0.005,0.02-0.01,0.028-0.013c0.01,0.007,0.021,0.016,0.033,0.026
				c0.123,0.1,0.274,0.152,0.425,0.152c0.107,0,0.215-0.026,0.314-0.078c0.097,0.02,0.199,0.019,0.298-0.005
				c0.089-0.022,0.172-0.061,0.244-0.114c0.019-0.003,0.038-0.007,0.057-0.011l0.05,0.033c0.175,0.116,0.395,0.143,0.594,0.074
				c0.187-0.066,0.334-0.21,0.405-0.393c0.019-0.01,0.058-0.026,0.124-0.042c0.209-0.048,0.383-0.194,0.467-0.392
				c0.149-0.057,0.273-0.164,0.35-0.304c0.059-0.106,0.115-0.254,0.194-0.512c0.034-0.11,0.066-0.143,0.066-0.143
				c0.081-0.071,0.143-0.16,0.182-0.26l0.392-1.01c0.005-0.014,0.01-0.028,0.015-0.043l0.257-0.822
				c0.015-0.046,0.024-0.094,0.028-0.142l0.049-0.568c0.002-0.019,0.002-0.038,0.002-0.058
				C87.408,11.466,87.18,11.244,87.095,11.161z"/>
			<path style="fill:#4C2A19;" d="M101.262,0.927l-0.028-0.017c-0.125-0.078-0.272-0.112-0.419-0.098l-0.534,0.05
				c-0.155-0.097-0.345-0.129-0.526-0.082l-0.075,0.02l-0.244-0.102c-0.158-0.066-0.331-0.069-0.486-0.013
				c-0.084-0.03-0.173-0.043-0.262-0.038c-0.096-0.068-0.209-0.113-0.332-0.124c-0.176-0.017-0.348,0.037-0.481,0.143L97.842,0.65
				c-0.106-0.046-0.221-0.064-0.336-0.053l-2.354,0.236L94.725,0.81c-0.172-0.01-0.336,0.012-0.486,0.048
				c-0.171-0.047-0.357-0.025-0.515,0.066c-0.109,0.063-0.168,0.082-0.185,0.087c-0.046,0.002-0.093,0.008-0.137,0.019l-0.4,0.096
				l-0.042-0.006c-0.033-0.005-0.065-0.008-0.099-0.008c-0.205,0-0.407,0.034-0.603,0.1c-0.093-0.057-0.199-0.092-0.312-0.099
				l-0.832-0.051c-0.253-0.016-0.492,0.115-0.62,0.335c-0.025,0.042-0.045,0.087-0.059,0.133c-0.012-0.001-0.024-0.001-0.035-0.001
				c-0.145,0-0.268,0.031-0.753,0.225c-0.098,0.039-0.184,0.101-0.254,0.179C89.329,1.97,89.27,2.017,89.22,2.075
				c-0.339,0.388-0.497,0.725-0.497,1.061c0,0.273,0.111,0.531,0.314,0.729c0.2,0.195,0.447,0.297,0.713,0.297H89.8
				c0.021,0,0.041-0.001,0.062-0.003l0.019-0.002c-0.016,0.061-0.033,0.127-0.051,0.195l-0.271,0.753
				c-0.048,0.132-0.053,0.276-0.014,0.411l0.06,0.213v0.639c0,0.046,0.004,0.091,0.013,0.135c-0.101,0.103-0.174,0.228-0.214,0.367
				c-0.232,0.164-0.461,0.484-0.461,1.102c0,0.193,0.022,0.475,0.21,0.696c0.007,0.009,0.05,0.061,0.255,0.326l0.156,0.938
				c-0.144,0.184-0.183,0.43-0.101,0.65l0.112,0.302l-0.039,0.169c-0.012,0.05-0.018,0.102-0.018,0.153c0,0.123,0,0.212,0.395,1.405
				c0.264,0.799,0.526,1.376,0.8,1.763c0.292,0.413,0.634,0.727,1.024,0.939l1.028,0.543c0.021,0.011,0.042,0.021,0.065,0.03
				l0.6,0.239c0.08,0.032,0.165,0.048,0.25,0.048c0.098,0,0.196-0.021,0.286-0.064l0.623-0.293l0.448,0.1
				c0.209,0.047,0.428-0.008,0.59-0.149c0.076-0.016,0.149-0.044,0.216-0.085c0.267,0.072,0.552-0.027,0.717-0.252l0.16-0.218
				l0.982-0.42c0.086-0.037,0.164-0.092,0.228-0.16l0.09-0.097c0.135-0.021,0.263-0.085,0.364-0.182l0.366-0.356l0.572-0.405
				c0.15-0.1,0.32-0.278,0.641-0.762l0.047-0.012c0.152-0.037,0.285-0.126,0.378-0.251l0.857-1.149
				c0.13-0.175,0.168-0.402,0.101-0.609c-0.156-0.481-0.519-0.769-0.971-0.769h-0.073c-0.298,0-0.555,0.195-0.642,0.47
				c-0.164,0.069-0.295,0.201-0.362,0.367c-0.136,0.093-0.235,0.234-0.275,0.398c-0.017,0.068-0.056,0.23-0.445,0.346
				c-0.096,0.029-0.185,0.08-0.26,0.147l-0.454,0.413l-0.1,0.008c-0.144,0.011-0.281,0.068-0.39,0.163
				c-0.168,0.145-0.312,0.3-0.432,0.458l-0.261,0.211c-0.012,0.008-0.028,0.017-0.052,0.024l-0.27,0.075
				c-0.061,0.017-0.118,0.043-0.171,0.076c-0.014,0.001-0.031,0.001-0.05,0.001c-0.132,0-0.261,0.039-0.37,0.111
				c-0.159,0.105-0.253,0.161-0.305,0.191c-0.045,0.001-0.112,0.001-0.206,0.001h-0.22c-0.188,0-0.365,0.078-0.491,0.214
				c-0.05,0.011-0.085,0.017-0.109,0.021l-0.366-0.061c-0.037-0.006-0.074-0.009-0.111-0.009c-0.206,0-0.569-0.096-1.145-0.541
				l-0.391-0.622c-0.01-0.016-0.021-0.032-0.032-0.046c-0.008-0.148-0.065-0.29-0.165-0.405L92.14,11.95
				c-0.072-0.496-0.111-0.661-0.175-0.778l0.013-0.246c0.005-0.094-0.01-0.188-0.044-0.276L91.9,10.561
				c0.051-0.118,0.067-0.25,0.044-0.379l-0.197-1.133c0.08-0.019,0.151-0.037,0.214-0.056c0.096,0.036,0.2,0.05,0.303,0.041
				l0.906-0.088c0.052-0.005,0.104-0.017,0.154-0.034l0.282-0.098c0.223-0.067,0.303-0.068,0.306-0.068c0.004,0,0.009,0,0.013,0
				c0.007,0.002,0.013,0.004,0.021,0.006l0.403,0.101c0.183,0.046,0.378,0.013,0.535-0.092l0.026-0.017l0.134,0.064
				c0.206,0.097,0.443,0.083,0.633-0.03c0.174,0.042,0.358,0.012,0.508-0.08c0.21,0.057,0.436,0.005,0.603-0.131l0.822-0.021
				l0.172,0.049c0.177,0.05,0.367,0.025,0.526-0.07l0.177-0.105c0.122,0.021,0.248,0.009,0.364-0.037l0.169-0.067l0.391,0.036
				c0.126,0.011,0.252-0.013,0.365-0.07l0.458-0.232c0.025,0.006,0.051,0.013,0.078,0.02c0.213,0.06,0.334,0.083,0.446,0.083
				c0.234,0,0.512-0.07,0.9-0.225c0.204-0.082,0.354-0.258,0.404-0.472l0.073-0.316c0.053-0.226-0.015-0.463-0.179-0.627
				c-0.163-0.164-0.401-0.233-0.627-0.181l-0.127,0.03l-0.124-0.05c-0.124-0.049-0.261-0.061-0.391-0.032l-0.118,0.026l-0.459-0.06
				c-0.029-0.004-0.059-0.006-0.088-0.006c-0.295,0-0.515,0.089-0.67,0.219l-0.131,0.029l-0.763-0.045
				c-0.034-0.001-0.068-0.001-0.103,0.002l-0.216,0.02c-0.056-0.007-0.212-0.029-0.615-0.111c-0.172-0.035-0.346,0-0.488,0.089
				l-0.222-0.041c-0.09-0.017-0.182-0.014-0.272,0.006l-0.331,0.076c-0.01,0.003-0.021,0.005-0.031,0.008
				c-0.008,0.002-0.082,0.022-0.311,0.041c-0.017,0.002-0.034,0.002-0.05,0.002c-0.031,0-0.075-0.003-0.103-0.018
				c-0.201-0.104-0.441-0.1-0.638,0.011c-0.056,0.032-0.098,0.052-0.126,0.065L94.87,6.568c-0.11-0.031-0.226-0.034-0.337-0.008
				l-0.27,0.063L94.13,6.609c-0.087-0.009-0.175-0.001-0.259,0.024l-0.048,0.014l-0.186-0.066c-0.16-0.057-0.336-0.051-0.492,0.017
				L92.92,6.695c-0.031-0.006-0.066-0.014-0.108-0.026c-0.268-0.076-0.544-0.076-0.809,0.002c-0.042,0.012-0.073,0.02-0.096,0.026
				c0.015-0.073,0.047-0.177,0.11-0.315c0.04-0.088,0.06-0.182,0.06-0.275c0.094-0.184,0.099-0.404,0.009-0.594l0.015-0.326
				c0.001-0.036,0-0.072-0.004-0.108l-0.02-0.173c0.001-0.05,0.003-0.089,0.006-0.119c0.189-0.16,0.282-0.419,0.218-0.676
				l-0.06-0.241l0.007-0.012l0.024,0.001c0.169,0.01,0.337-0.045,0.468-0.154l0.08-0.067c0.158,0.039,0.329,0.021,0.478-0.058
				c0.276-0.148,0.411-0.189,0.455-0.2c0.14-0.034,0.328-0.08,0.561-0.139h0.37c0.12,0,0.239-0.033,0.343-0.094l0.141-0.083
				l0.285,0.094c0.148,0.049,0.306,0.044,0.449-0.01c0.228,0.087,0.488,0.044,0.677-0.118c0.102-0.088,0.197-0.142,0.263-0.152
				c0.003,0.003,0.008,0.005,0.014,0.01c0.18,0.139,0.419,0.177,0.634,0.102c0.067-0.024,0.129-0.058,0.183-0.099
				c0.017,0.002,0.035,0.004,0.054,0.006c0.171,0.02,0.309,0.03,0.42,0.03c0.194,0,0.423-0.059,0.74-0.19
				c0.109-0.045,0.178-0.067,0.218-0.079c0.197,0.116,0.439,0.122,0.64,0.021c0.221,0.096,0.454,0.096,0.556,0.096
				c0.014,0,0.028-0.001,0.042-0.002l0.263-0.016l0.21,0.077c0.205,0.075,0.434,0.047,0.613-0.077l0.012-0.008h0.061
				c0.199,0,0.387-0.088,0.515-0.239c0.132-0.156,0.222-0.357,0.268-0.597c0.02-0.103,0.015-0.209-0.013-0.309
				C102.15,1.165,101.711,1.033,101.262,0.927z"/>
			<path style="fill:#4C2A19;" d="M119.92,3.854l-0.179-0.334l0.074-0.214c0.025-0.071,0.037-0.146,0.037-0.221
				c0-0.213-0.09-0.4-0.225-0.616c-0.005-0.008-0.02-0.032-0.02-0.091c0-0.056,0.009-0.153,0.05-0.301
				c0.062-0.226,0.002-0.469-0.159-0.64c-0.14-0.149-0.34-0.225-0.541-0.21c-0.042-0.028-0.087-0.052-0.135-0.07
				c-0.177-0.068-0.374-0.058-0.543,0.026l-0.38,0.19c-0.237,0.119-0.378,0.362-0.372,0.618c-0.135,0.192-0.158,0.435-0.072,0.644
				l-0.238,0.737c-0.073,0.227-0.02,0.477,0.139,0.655l0.087,0.098l-0.204,1.537c-0.008,0.058-0.008,0.117-0.001,0.175l0.105,0.812
				L117.1,7.528c-0.049,0.176-0.025,0.366,0.069,0.523c0.104,0.175,0.146,0.264,0.161,0.299l0.001,0.01l-0.151,0.237
				c-0.061,0.097-0.097,0.207-0.104,0.321l-0.073,1.213c-0.007,0.115,0.016,0.229,0.065,0.331l-0.177,0.391
				c-0.033,0.073-0.053,0.152-0.059,0.232l-0.007,0.099c-0.093-0.063-0.223-0.169-0.393-0.345c-0.08-0.082-0.18-0.143-0.29-0.176
				l-0.596-0.179l-0.64-0.376c-0.039-0.023-0.08-0.041-0.122-0.056l-0.246-0.085l-0.54-0.46c-0.066-0.056-0.142-0.099-0.224-0.126
				l-0.569-0.189c-0.099-0.193-0.258-0.38-0.482-0.57c-0.114-0.096-0.257-0.152-0.405-0.158l-1.726-1.481l-0.588-0.712
				c-0.038-0.046-0.082-0.087-0.132-0.122l-0.517-0.364c-0.013-0.015-0.023-0.027-0.03-0.037c-0.009-0.202-0.108-0.39-0.27-0.511
				l-0.803-0.597c-0.006-0.01-0.021-0.039-0.036-0.102l-0.135-0.53c-0.041-0.163-0.142-0.305-0.282-0.397l-0.146-0.096l-0.01-0.072
				c-0.022-0.164-0.102-0.313-0.226-0.421l-0.099-0.086l-0.026-0.32c-0.015-0.18-0.1-0.339-0.228-0.451
				c-0.03-0.23-0.145-0.52-0.471-0.786c-0.145-0.118-0.333-0.171-0.519-0.144c-0.097,0.014-0.188,0.048-0.269,0.1l-0.066-0.015
				c-0.207-0.046-0.424,0.008-0.585,0.147c-0.246,0.211-0.381,0.491-0.381,0.788c0,0.148,0.03,0.295,0.089,0.442
				c-0.024,0.068-0.038,0.14-0.039,0.215l-0.025,1.25c-0.002,0.098,0.017,0.195,0.057,0.284l0.046,0.103l-0.096,0.695
				c-0.005,0.036-0.007,0.072-0.006,0.109l0.022,0.905l-0.163,1.184c-0.012,0.087-0.007,0.176,0.015,0.26l0.108,0.417l-0.14,0.681
				c-0.016,0.079-0.018,0.161-0.006,0.241l0.096,0.603l-0.152,0.433c-0.06,0.171-0.048,0.358,0.031,0.52
				c-0.061,0.124-0.083,0.266-0.06,0.407c0.045,0.273,0.052,0.404,0.052,0.458c0,0.045-0.006,0.152-0.048,0.36
				c-0.037,0.183,0.004,0.374,0.113,0.525l0.051,0.071l-0.028,0.059c-0.096,0.204-0.082,0.44,0.03,0.63l-0.063,0.199
				c-0.041,0.127-0.042,0.264-0.004,0.392l0.066,0.224l-0.248,0.819c-0.019,0.063-0.029,0.129-0.029,0.195v0.101
				c0,0.86,0.528,1.165,0.979,1.165h0.171c0.23,0,0.444-0.118,0.568-0.311c0.227-0.358,0.365-0.801,0.42-1.352l0.031-0.047
				c0.123-0.19,0.141-0.429,0.05-0.636l-0.041-0.092l0.088-0.508c0.007-0.038,0.01-0.076,0.01-0.114v-0.555l0.124-0.457
				c0.052-0.192,0.016-0.387-0.085-0.543c0.072-0.177,0.109-0.375,0.109-0.593v-0.101c0-0.071,0-0.129-0.131-0.844l0.316-1.18
				c0.032-0.119,0.03-0.244-0.004-0.363l-0.189-0.645l0.174-0.995c0.252,0.283,0.489,0.492,0.718,0.633l0.089,0.141
				c0.114,0.181,0.307,0.296,0.52,0.312l0.041,0.003l0.624,0.819c0.068,0.089,0.158,0.161,0.26,0.207l1.008,0.452l0.314,0.324
				c0.046,0.047,0.098,0.087,0.155,0.12l0.174,0.097l0.246,0.32c0.067,0.087,0.154,0.156,0.254,0.202l0.371,0.169l0.069,0.091
				c0.046,0.061,0.102,0.114,0.166,0.156l1.53,1.011c0.092,0.061,0.198,0.098,0.305,0.108l0.051,0.055
				c0.096,0.103,0.221,0.173,0.359,0.201l0.502,0.101c0.067,0.014,0.137,0.017,0.205,0.01l0.246,0.204
				c0.168,0.138,0.391,0.187,0.601,0.131c0.108,0.104,0.249,0.168,0.398,0.183c0.097,0.091,0.22,0.151,0.353,0.172l0.13,0.021
				l0.004,0.007c0.003,0.016,0.008,0.056,0.008,0.128v0.505c0,0.012,0.001,0.023,0.001,0.034c0.008,0.147,0.014,0.295,0.018,0.443
				c0.004,0.172,0.016,0.346,0.034,0.517c0.018,0.163,0.093,0.308,0.206,0.417l0.087,0.901c0.028,0.292,0.241,0.532,0.527,0.593
				l0.233,0.051c0.048,0.01,0.096,0.015,0.143,0.015c0.26,0,0.502-0.151,0.613-0.395c0.002-0.005,0.009-0.019,0.038-0.04
				c0.265-0.183,0.363-0.528,0.234-0.823l-0.126-0.288l-0.089-1.1c-0.005-0.066-0.02-0.131-0.044-0.192l0.074-0.149
				c0.073-0.147,0.09-0.315,0.048-0.473l-0.022-0.083l0.249-0.396c0.101-0.162,0.129-0.359,0.077-0.542l-0.132-0.463l0.134-0.488
				c0.023-0.083,0.03-0.17,0.019-0.255l-0.036-0.308l0.173-0.827c0.024-0.115,0.017-0.234-0.019-0.345l-0.045-0.14l0.189-1.007
				c0.013-0.069,0.015-0.14,0.006-0.21l-0.025-0.195l0.184-0.424c0.036-0.084,0.055-0.175,0.055-0.267V6.116l0.096-0.224
				c0.155-0.378,0.222-0.632,0.222-0.849c0-0.111-0.027-0.219-0.078-0.315l0.126-0.205C120.026,4.32,120.033,4.065,119.92,3.854z"/>
		</g>
		<g>
			<path style="fill:#4C2A19;" d="M9.665,23.673c-0.776-1.122-2.02-1.683-3.733-1.683c-1.469,0-2.639,0.413-3.512,1.24
				c-0.872,0.826-1.308,1.943-1.308,3.351c0,1.387,0.416,2.494,1.247,3.32c0.831,0.826,1.966,1.24,3.404,1.24
				c1.642,0,2.896-0.571,3.764-1.714l0.673,0.428c-1.03,1.337-2.504,2.004-4.422,2.004c-1.673,0-2.999-0.469-3.978-1.407
				c-0.979-0.938-1.469-2.208-1.469-3.81c0-1.642,0.505-2.947,1.514-3.917c1.01-0.969,2.372-1.454,4.085-1.454
				c1.989,0,3.452,0.664,4.391,1.989L9.665,23.673z"/>
			<path style="fill:#4C2A19;" d="M21.759,30.435c-0.984,0.948-2.328,1.423-4.031,1.423c-1.714,0-3.058-0.469-4.032-1.407
				c-0.974-0.938-1.461-2.234-1.461-3.887c0-1.631,0.489-2.896,1.468-3.794c0.979-0.897,2.32-1.346,4.024-1.346
				c1.703,0,3.047,0.449,4.031,1.346c0.984,0.898,1.477,2.163,1.477,3.794C23.235,28.196,22.743,29.487,21.759,30.435z
				 M21.208,23.298c-0.831-0.77-1.991-1.155-3.48-1.155c-1.479,0-2.634,0.385-3.465,1.155c-0.831,0.77-1.247,1.859-1.247,3.266
				c0,1.408,0.418,2.523,1.255,3.343c0.836,0.821,1.989,1.232,3.458,1.232c1.489,0,2.649-0.406,3.48-1.217
				c0.831-0.811,1.247-1.93,1.247-3.359C22.455,25.157,22.039,24.068,21.208,23.298z"/>
			<path style="fill:#4C2A19;" d="M26.066,22.097v3.901h5.63v0.704h-5.63v5.048H25.3V21.377h7.344v0.719H26.066z"/>
			<path style="fill:#4C2A19;" d="M34.939,22.097v3.901h5.63v0.704h-5.63v5.048h-0.765V21.377h7.344v0.719H34.939z"/>
			<path style="fill:#4C2A19;" d="M43.048,31.751V21.377h7.895v0.719h-7.13v3.901h6.319v0.704h-6.319v4.329h7.206v0.719H43.048z"/>
			<path style="fill:#4C2A19;" d="M52.824,31.751V21.377h7.895v0.719h-7.13v3.901h6.319v0.704h-6.319v4.329h7.206v0.719H52.824z"/>
			<path style="fill:#4C2A19;" d="M74.014,31.751h-4.973V21.377h5.171c0.969,0,1.764,0.209,2.386,0.627
				c0.714,0.479,1.071,1.178,1.071,2.096c0,0.99-0.561,1.724-1.683,2.203c1.346,0.388,2.02,1.239,2.02,2.556
				c0,1.02-0.434,1.78-1.301,2.28C76.003,31.546,75.105,31.751,74.014,31.751z M74.183,22.097h-4.361v3.901h4.345
				c0.754,0,1.377-0.148,1.866-0.444c0.571-0.347,0.857-0.857,0.857-1.53c0-0.673-0.296-1.177-0.887-1.514
				C75.523,22.235,74.917,22.097,74.183,22.097z M74.137,26.717h-4.315v4.314h4.376c0.846,0,1.54-0.163,2.08-0.49
				c0.643-0.377,0.964-0.933,0.964-1.667c0-0.785-0.342-1.361-1.025-1.729C75.687,26.86,74.993,26.717,74.137,26.717z"/>
			<path style="fill:#4C2A19;" d="M80.134,31.751V21.377h0.781v9.654h6.548v0.719H80.134z"/>
			<path style="fill:#4C2A19;" d="M89.007,31.751V21.377h7.895v0.719h-7.13v3.901h6.318v0.704h-6.318v4.329h7.206v0.719H89.007z"/>
			<path style="fill:#4C2A19;" d="M107.091,31.751l-7.527-9.21v9.21h-0.78V21.377h0.811c0.877,1.112,2.132,2.647,3.764,4.605
				c1.764,2.101,3.019,3.621,3.764,4.559v-9.164h0.78v10.373H107.091z"/>
			<path style="fill:#4C2A19;" d="M113.931,31.751h-3.596V21.377h4.177c1.703,0,2.998,0.464,3.886,1.392
				c0.846,0.898,1.27,2.168,1.27,3.81c0,1.693-0.541,2.993-1.622,3.901C117.036,31.328,115.664,31.751,113.931,31.751z
				 M117.832,23.29c-0.745-0.795-1.856-1.193-3.335-1.193h-3.381v8.935h2.861c1.55,0,2.756-0.377,3.618-1.132
				c0.862-0.755,1.293-1.861,1.293-3.32C118.887,25.131,118.535,24.035,117.832,23.29z"/>
		</g>
	</g>
</g>
<g id="Layer_1">
</g>
</svg>
