<?xml version="1.0" encoding="iso-8859-1"?>
<!-- Generator: Adobe Illustrator 18.1.1, SVG Export Plug-In . SVG Version: 6.00 Build 0)  -->
<!DOCTYPE svg PUBLIC "-//W3C//DTD SVG 1.1//EN" "http://www.w3.org/Graphics/SVG/1.1/DTD/svg11.dtd">
<svg version="1.1" xmlns="http://www.w3.org/2000/svg" xmlns:xlink="http://www.w3.org/1999/xlink" x="0px" y="0px"
	 viewBox="0 0 127.744 105" style="enable-background:new 0 0 127.744 105;" xml:space="preserve">
<g id="kivvik">
	<g>
		<g>
			<path style="fill:#49B549;" d="M49,67.909C49,69.616,47.616,71,45.91,71H15.09C13.384,71,12,69.616,12,67.909V37.091
				C12,35.384,13.384,34,15.09,34h30.82c1.707,0,3.09,1.384,3.09,3.091V67.909z"/>
		</g>
		<g>
			<polygon style="fill:#FFFFFF;" points="27,50 27,43 21,43 21,50 21,56 21,63 27,63 27,56 34,56 34,50 			"/>
			<rect x="34" y="43" style="fill:#FFFFFF;" width="7" height="7"/>
			<rect x="34" y="56" style="fill:#FFFFFF;" width="7" height="7"/>
		</g>
		<g>
			<path style="fill:#333333;" d="M60.822,54.012l-1.695,1.825v4.52h-3.26v-15.82h3.26v7.171l1.434-1.967l4.031-5.205h4.009
				l-5.617,7.03l5.781,8.791h-3.879L60.822,54.012z"/>
			<path style="fill:#333333;" d="M74.016,60.357h-3.26v-15.82h3.26V60.357z"/>
			<path style="fill:#333333;" d="M83.438,56.434l3.586-11.898h3.629l-5.509,15.82h-3.401l-5.487-15.82h3.618L83.438,56.434z"/>
			<path style="fill:#333333;" d="M98.544,56.434l3.586-11.898h3.629l-5.509,15.82h-3.401l-5.487-15.82h3.618L98.544,56.434z"/>
			<path style="fill:#333333;" d="M111.27,60.357h-3.26v-15.82h3.26V60.357z"/>
			<path style="fill:#333333;" d="M119.801,54.012l-1.695,1.825v4.52h-3.26v-15.82h3.26v7.171l1.434-1.967l4.031-5.205h4.009
				l-5.617,7.03l5.781,8.791h-3.879L119.801,54.012z"/>
		</g>
	</g>
</g>
<g id="Layer_1">
</g>
</svg>
