<?xml version="1.0" encoding="iso-8859-1"?>
<!-- Generator: Adobe Illustrator 18.1.1, SVG Export Plug-In . SVG Version: 6.00 Build 0)  -->
<!DOCTYPE svg PUBLIC "-//W3C//DTD SVG 1.1//EN" "http://www.w3.org/Graphics/SVG/1.1/DTD/svg11.dtd">
<svg version="1.1" xmlns="http://www.w3.org/2000/svg" xmlns:xlink="http://www.w3.org/1999/xlink" x="0px" y="0px"
	 viewBox="0 0 130 105" style="enable-background:new 0 0 130 105;" xml:space="preserve">
<g id="limidax">
	<g>
		<g>
			<path style="fill:#33C4F2;" d="M19.677,57.207v1.639c0,0.36-0.122,0.58-0.592,0.58h-8.493c-0.47,0-0.592-0.22-0.592-0.58V46.853
				c0-0.46,0.225-0.58,0.592-0.58h2.021c0.368,0,0.592,0.12,0.592,0.58v9.774h5.88C19.555,56.628,19.677,56.848,19.677,57.207z"/>
			<path style="fill:#33C4F2;" d="M28.312,57.267v1.579c0,0.36-0.122,0.58-0.592,0.58h-5.778c-0.47,0-0.592-0.22-0.592-0.58v-1.579
				c0-0.36,0.123-0.58,0.592-0.58h1.286v-7.635h-1.245c-0.47,0-0.592-0.22-0.592-0.58v-1.619c0-0.36,0.122-0.58,0.592-0.58h5.676
				c0.47,0,0.592,0.22,0.592,0.58v1.619c0,0.36-0.122,0.58-0.592,0.58h-1.225v7.635h1.286C28.19,56.688,28.312,56.907,28.312,57.267
				z"/>
			<path style="fill:#33C4F2;" d="M43.583,46.833v12.013c0,0.46-0.225,0.58-0.592,0.58h-1.96c-0.368,0-0.592-0.12-0.592-0.58V52.07
				l-2.042,3.498c-0.102,0.16-0.286,0.42-0.592,0.42h-1.021c-0.306,0-0.47-0.26-0.572-0.42l-2.062-3.498v6.776
				c0,0.46-0.225,0.58-0.592,0.58h-2.021c-0.367,0-0.592-0.12-0.592-0.58V46.833c0-0.36,0.123-0.58,0.592-0.58h2.021
				c0.694,0,0.776,0.44,0.939,0.68l2.797,4.917l2.817-4.917c0.143-0.24,0.245-0.68,0.919-0.68h1.96
				C43.46,46.254,43.583,46.474,43.583,46.833z"/>
			<path style="fill:#33C4F2;" d="M53.035,57.267v1.579c0,0.36-0.122,0.58-0.592,0.58h-5.778c-0.47,0-0.592-0.22-0.592-0.58v-1.579
				c0-0.36,0.122-0.58,0.592-0.58h1.286v-7.635h-1.245c-0.47,0-0.592-0.22-0.592-0.58v-1.619c0-0.36,0.122-0.58,0.592-0.58h5.676
				c0.47,0,0.592,0.22,0.592,0.58v1.619c0,0.36-0.122,0.58-0.592,0.58h-1.225v7.635h1.286
				C52.912,56.688,53.035,56.907,53.035,57.267z"/>
			<path style="fill:#33C4F2;" d="M66.325,50.771v4.158c0,3.138-3.062,4.497-5.492,4.497H56.26c-0.47,0-0.592-0.22-0.592-0.58
				V46.853c0-0.36,0.123-0.58,0.592-0.58h4.573C63.262,46.274,66.325,47.653,66.325,50.771z M63.119,51.051
				c0-1.259-0.939-1.999-2.287-1.999h-1.96v7.595h1.96c1.347,0,2.287-0.72,2.287-1.999V51.051z"/>
			<path style="fill:#33C4F2;" d="M80.145,59.426h-2.144c-0.449,0-0.612-0.12-0.776-0.6l-0.572-1.579h-5.002l-0.572,1.579
				c-0.163,0.48-0.327,0.6-0.776,0.6h-2.144c-0.449,0-0.449-0.32-0.347-0.56l4.532-11.973c0.163-0.42,0.388-0.62,0.837-0.62h1.96
				c0.449,0,0.653,0.2,0.837,0.62l4.512,11.973C80.595,59.106,80.595,59.426,80.145,59.426z M75.695,54.449l-1.531-4.417
				l-1.531,4.417H75.695z"/>
			<path style="fill:#33C4F2;" d="M92.292,58.806c0.163,0.24,0.061,0.62-0.245,0.62H89.72c-0.449,0-0.613-0.04-0.898-0.56
				l-2.021-3.558l-2.042,3.558c-0.265,0.52-0.449,0.56-0.898,0.56h-2.327c-0.306,0-0.408-0.38-0.245-0.62l3.634-6.116l-3.695-5.857
				c-0.122-0.22-0.041-0.56,0.306-0.56h2.409c0.388,0,0.551,0.16,0.817,0.58l2.042,3.218l2.021-3.218
				c0.286-0.42,0.429-0.58,0.837-0.58h2.389c0.347,0,0.449,0.34,0.306,0.56l-3.675,5.857L92.292,58.806z"/>
		</g>
		<g>
			<path style="fill:#BFD636;" d="M107.294,59.5h3.253l-6.486-6.591l6.491-6.598h-3.253l-6.494,6.598L107.294,59.5 M114.197,59.5
				h3.253l-6.487-6.591l6.494-6.598H114.2l-6.491,6.598L114.197,59.5"/>
		</g>
		<g>
			<g>
				<defs>
					<polyline id="SVGID_1_" points="104.061,52.91 104.061,52.91 105.517,54.392 105.519,54.39 104.061,52.91 					"/>
				</defs>
				<clipPath id="SVGID_2_">
					<use xlink:href="#SVGID_1_"  style="overflow:visible;"/>
				</clipPath>
				<rect x="105.454" y="52.91" style="clip-path:url(#SVGID_2_);fill:#E3E2E1;" width="0.065" height="1.482"/>
				<rect x="105.255" y="52.91" style="clip-path:url(#SVGID_2_);fill:#E4E3E2;" width="0.199" height="1.482"/>
				<rect x="105.055" y="52.91" style="clip-path:url(#SVGID_2_);fill:#E5E4E3;" width="0.199" height="1.482"/>
				<rect x="104.856" y="52.91" style="clip-path:url(#SVGID_2_);fill:#E6E5E5;" width="0.199" height="1.482"/>
				<rect x="104.657" y="52.91" style="clip-path:url(#SVGID_2_);fill:#E7E6E5;" width="0.199" height="1.482"/>
				<rect x="104.458" y="52.91" style="clip-path:url(#SVGID_2_);fill:#E8E7E6;" width="0.199" height="1.482"/>
				<rect x="104.259" y="52.91" style="clip-path:url(#SVGID_2_);fill:#E9E8E7;" width="0.199" height="1.482"/>
				<rect x="104.061" y="52.91" style="clip-path:url(#SVGID_2_);fill:#EAE9E8;" width="0.198" height="1.482"/>
			</g>
		</g>
		<g>
			<g>
				<defs>
					<polyline id="SVGID_3_" points="104.061,52.91 100.81,52.91 103.893,56.044 105.517,54.392 104.061,52.91 					"/>
				</defs>
				<clipPath id="SVGID_4_">
					<use xlink:href="#SVGID_3_"  style="overflow:visible;"/>
				</clipPath>
				<rect x="105.426" y="52.91" style="clip-path:url(#SVGID_4_);fill:#ACC13A;" width="0.092" height="3.134"/>
				<rect x="105.209" y="52.91" style="clip-path:url(#SVGID_4_);fill:#ADC239;" width="0.216" height="3.134"/>
				<rect x="104.993" y="52.91" style="clip-path:url(#SVGID_4_);fill:#AEC339;" width="0.216" height="3.134"/>
				<rect x="104.776" y="52.91" style="clip-path:url(#SVGID_4_);fill:#AFC339;" width="0.216" height="3.134"/>
				<rect x="104.56" y="52.91" style="clip-path:url(#SVGID_4_);fill:#B0C439;" width="0.216" height="3.134"/>
				<rect x="104.344" y="52.91" style="clip-path:url(#SVGID_4_);fill:#B1C539;" width="0.216" height="3.134"/>
				<rect x="104.127" y="52.91" style="clip-path:url(#SVGID_4_);fill:#B2C639;" width="0.216" height="3.134"/>
				<rect x="103.911" y="52.91" style="clip-path:url(#SVGID_4_);fill:#B3C738;" width="0.216" height="3.134"/>
				<rect x="103.694" y="52.91" style="clip-path:url(#SVGID_4_);fill:#B4C839;" width="0.216" height="3.134"/>
				<rect x="103.478" y="52.91" style="clip-path:url(#SVGID_4_);fill:#B5C938;" width="0.216" height="3.134"/>
				<rect x="103.262" y="52.91" style="clip-path:url(#SVGID_4_);fill:#B5CA38;" width="0.216" height="3.134"/>
				<rect x="103.045" y="52.91" style="clip-path:url(#SVGID_4_);fill:#B6CB38;" width="0.216" height="3.134"/>
				<rect x="102.829" y="52.91" style="clip-path:url(#SVGID_4_);fill:#B7CC37;" width="0.216" height="3.134"/>
				<rect x="102.613" y="52.91" style="clip-path:url(#SVGID_4_);fill:#B8CD38;" width="0.216" height="3.134"/>
				<rect x="102.396" y="52.91" style="clip-path:url(#SVGID_4_);fill:#B9CE38;" width="0.216" height="3.134"/>
				<rect x="102.18" y="52.91" style="clip-path:url(#SVGID_4_);fill:#BACF37;" width="0.216" height="3.134"/>
				<rect x="101.963" y="52.91" style="clip-path:url(#SVGID_4_);fill:#BBD037;" width="0.216" height="3.134"/>
				<rect x="101.747" y="52.91" style="clip-path:url(#SVGID_4_);fill:#BCD137;" width="0.216" height="3.134"/>
				<rect x="101.531" y="52.91" style="clip-path:url(#SVGID_4_);fill:#BDD237;" width="0.216" height="3.134"/>
				<rect x="101.314" y="52.91" style="clip-path:url(#SVGID_4_);fill:#BED337;" width="0.216" height="3.134"/>
				<rect x="101.098" y="52.91" style="clip-path:url(#SVGID_4_);fill:#BFD436;" width="0.216" height="3.134"/>
				<rect x="100.881" y="52.91" style="clip-path:url(#SVGID_4_);fill:#BFD636;" width="0.216" height="3.134"/>
				<rect x="100.81" y="52.91" style="clip-path:url(#SVGID_4_);fill:#BFD636;" width="0.071" height="3.134"/>
			</g>
		</g>
		<g>
			<g>
				<defs>
					<polyline id="SVGID_5_" points="107.146,56.044 107.145,56.044 108.97,57.899 108.971,57.897 107.146,56.044 					"/>
				</defs>
				<clipPath id="SVGID_6_">
					<use xlink:href="#SVGID_5_"  style="overflow:visible;"/>
				</clipPath>
				<rect x="108.833" y="56.044" style="clip-path:url(#SVGID_6_);fill:#D3D2D1;" width="0.139" height="1.855"/>
				<rect x="108.634" y="56.044" style="clip-path:url(#SVGID_6_);fill:#D4D3D2;" width="0.199" height="1.855"/>
				<rect x="108.435" y="56.044" style="clip-path:url(#SVGID_6_);fill:#D4D4D3;" width="0.199" height="1.855"/>
				<rect x="108.236" y="56.044" style="clip-path:url(#SVGID_6_);fill:#D5D5D4;" width="0.199" height="1.855"/>
				<rect x="108.038" y="56.044" style="clip-path:url(#SVGID_6_);fill:#D6D6D5;" width="0.199" height="1.855"/>
				<rect x="107.839" y="56.044" style="clip-path:url(#SVGID_6_);fill:#D7D7D6;" width="0.199" height="1.855"/>
				<rect x="107.64" y="56.044" style="clip-path:url(#SVGID_6_);fill:#D8D8D7;" width="0.199" height="1.855"/>
				<rect x="107.441" y="56.044" style="clip-path:url(#SVGID_6_);fill:#D9D8D7;" width="0.199" height="1.855"/>
				<rect x="107.243" y="56.044" style="clip-path:url(#SVGID_6_);fill:#DAD9D9;" width="0.199" height="1.855"/>
				<rect x="107.145" y="56.044" style="clip-path:url(#SVGID_6_);fill:#DBDADA;" width="0.097" height="1.855"/>
			</g>
		</g>
		<g>
			<g>
				<defs>
					<polyline id="SVGID_7_" points="107.145,56.044 105.519,57.696 107.296,59.5 107.393,59.5 108.97,57.899 107.145,56.044 					
						"/>
				</defs>
				<clipPath id="SVGID_8_">
					<use xlink:href="#SVGID_7_"  style="overflow:visible;"/>
				</clipPath>
				<rect x="108.889" y="56.044" style="clip-path:url(#SVGID_8_);fill:#9EB23A;" width="0.081" height="3.456"/>
				<rect x="108.672" y="56.044" style="clip-path:url(#SVGID_8_);fill:#9FB33A;" width="0.216" height="3.456"/>
				<rect x="108.456" y="56.044" style="clip-path:url(#SVGID_8_);fill:#A0B43A;" width="0.216" height="3.456"/>
				<rect x="108.24" y="56.044" style="clip-path:url(#SVGID_8_);fill:#A0B53A;" width="0.216" height="3.456"/>
				<rect x="108.023" y="56.044" style="clip-path:url(#SVGID_8_);fill:#A1B63A;" width="0.216" height="3.456"/>
				<rect x="107.807" y="56.044" style="clip-path:url(#SVGID_8_);fill:#A2B63A;" width="0.216" height="3.456"/>
				<rect x="107.591" y="56.044" style="clip-path:url(#SVGID_8_);fill:#A3B73A;" width="0.216" height="3.456"/>
				<rect x="107.374" y="56.044" style="clip-path:url(#SVGID_8_);fill:#A4B83A;" width="0.216" height="3.456"/>
				<rect x="107.158" y="56.044" style="clip-path:url(#SVGID_8_);fill:#A5B93A;" width="0.216" height="3.456"/>
				<rect x="106.942" y="56.044" style="clip-path:url(#SVGID_8_);fill:#A6BA39;" width="0.216" height="3.456"/>
				<rect x="106.725" y="56.044" style="clip-path:url(#SVGID_8_);fill:#A7BB39;" width="0.216" height="3.456"/>
				<rect x="106.509" y="56.044" style="clip-path:url(#SVGID_8_);fill:#A7BC3A;" width="0.216" height="3.456"/>
				<rect x="106.293" y="56.044" style="clip-path:url(#SVGID_8_);fill:#A7BC3A;" width="0.216" height="3.456"/>
				<rect x="106.076" y="56.044" style="clip-path:url(#SVGID_8_);fill:#A8BD39;" width="0.216" height="3.456"/>
				<rect x="105.86" y="56.044" style="clip-path:url(#SVGID_8_);fill:#A9BE39;" width="0.216" height="3.456"/>
				<rect x="105.644" y="56.044" style="clip-path:url(#SVGID_8_);fill:#AABF39;" width="0.216" height="3.456"/>
				<rect x="105.519" y="56.044" style="clip-path:url(#SVGID_8_);fill:#ACC13A;" width="0.125" height="3.456"/>
			</g>
		</g>
		<g>
			<g>
				<defs>
					<polyline id="SVGID_9_" points="110.965,52.91 110.962,52.91 112.421,54.392 112.423,54.39 110.965,52.91 					"/>
				</defs>
				<clipPath id="SVGID_10_">
					<use xlink:href="#SVGID_9_"  style="overflow:visible;"/>
				</clipPath>
				<rect x="112.234" y="52.91" style="clip-path:url(#SVGID_10_);fill:#E3E2E1;" width="0.189" height="1.482"/>
				<rect x="112.035" y="52.91" style="clip-path:url(#SVGID_10_);fill:#E4E3E2;" width="0.199" height="1.482"/>
				<rect x="111.837" y="52.91" style="clip-path:url(#SVGID_10_);fill:#E5E4E3;" width="0.199" height="1.482"/>
				<rect x="111.638" y="52.91" style="clip-path:url(#SVGID_10_);fill:#E6E5E5;" width="0.199" height="1.482"/>
				<rect x="111.439" y="52.91" style="clip-path:url(#SVGID_10_);fill:#E7E6E5;" width="0.199" height="1.482"/>
				<rect x="111.24" y="52.91" style="clip-path:url(#SVGID_10_);fill:#E8E7E6;" width="0.199" height="1.482"/>
				<rect x="111.041" y="52.91" style="clip-path:url(#SVGID_10_);fill:#E9E8E7;" width="0.199" height="1.482"/>
				<rect x="110.962" y="52.91" style="clip-path:url(#SVGID_10_);fill:#EAE9E8;" width="0.079" height="1.482"/>
			</g>
		</g>
		<g>
			<g>
				<defs>
					<polyline id="SVGID_11_" points="110.962,52.91 110.232,52.91 108.971,54.188 110.796,56.044 112.421,54.392 110.962,52.91 
											"/>
				</defs>
				<clipPath id="SVGID_12_">
					<use xlink:href="#SVGID_11_"  style="overflow:visible;"/>
				</clipPath>
				<rect x="112.206" y="52.91" style="clip-path:url(#SVGID_12_);fill:#ACC13A;" width="0.215" height="3.134"/>
				<rect x="111.989" y="52.91" style="clip-path:url(#SVGID_12_);fill:#ADC239;" width="0.217" height="3.134"/>
				<rect x="111.772" y="52.91" style="clip-path:url(#SVGID_12_);fill:#AEC339;" width="0.217" height="3.134"/>
				<rect x="111.556" y="52.91" style="clip-path:url(#SVGID_12_);fill:#AFC339;" width="0.217" height="3.134"/>
				<rect x="111.339" y="52.91" style="clip-path:url(#SVGID_12_);fill:#B0C439;" width="0.217" height="3.134"/>
				<rect x="111.123" y="52.91" style="clip-path:url(#SVGID_12_);fill:#B1C539;" width="0.217" height="3.134"/>
				<rect x="110.906" y="52.91" style="clip-path:url(#SVGID_12_);fill:#B2C639;" width="0.217" height="3.134"/>
				<rect x="110.69" y="52.91" style="clip-path:url(#SVGID_12_);fill:#B3C738;" width="0.217" height="3.134"/>
				<rect x="110.473" y="52.91" style="clip-path:url(#SVGID_12_);fill:#B4C839;" width="0.217" height="3.134"/>
				<rect x="110.256" y="52.91" style="clip-path:url(#SVGID_12_);fill:#B5C938;" width="0.217" height="3.134"/>
				<rect x="110.04" y="52.91" style="clip-path:url(#SVGID_12_);fill:#B5CA38;" width="0.217" height="3.134"/>
				<rect x="109.823" y="52.91" style="clip-path:url(#SVGID_12_);fill:#B6CB38;" width="0.217" height="3.134"/>
				<rect x="109.607" y="52.91" style="clip-path:url(#SVGID_12_);fill:#B7CC37;" width="0.217" height="3.134"/>
				<rect x="109.39" y="52.91" style="clip-path:url(#SVGID_12_);fill:#B8CD38;" width="0.217" height="3.134"/>
				<rect x="109.173" y="52.91" style="clip-path:url(#SVGID_12_);fill:#B9CE38;" width="0.217" height="3.134"/>
				<rect x="108.971" y="52.91" style="clip-path:url(#SVGID_12_);fill:#BACF37;" width="0.203" height="3.134"/>
			</g>
		</g>
		<g>
			<g>
				<defs>
					<polyline id="SVGID_13_" points="113.739,51.799 113.736,51.8 117.128,53.748 117.13,53.748 113.739,51.799 					"/>
				</defs>
				<clipPath id="SVGID_14_">
					<use xlink:href="#SVGID_13_"  style="overflow:visible;"/>
				</clipPath>
				<rect x="117.077" y="51.799" style="clip-path:url(#SVGID_14_);fill:#CCCBCA;" width="0.052" height="1.95"/>
				<rect x="116.879" y="51.799" style="clip-path:url(#SVGID_14_);fill:#CCCBCA;" width="0.198" height="1.95"/>
				<rect x="116.681" y="51.799" style="clip-path:url(#SVGID_14_);fill:#CDCCCB;" width="0.198" height="1.95"/>
				<rect x="116.483" y="51.799" style="clip-path:url(#SVGID_14_);fill:#CDCDCC;" width="0.198" height="1.95"/>
				<rect x="116.285" y="51.799" style="clip-path:url(#SVGID_14_);fill:#CECECD;" width="0.198" height="1.95"/>
				<rect x="116.087" y="51.799" style="clip-path:url(#SVGID_14_);fill:#CFCFCE;" width="0.198" height="1.95"/>
				<rect x="115.889" y="51.799" style="clip-path:url(#SVGID_14_);fill:#D0CFCF;" width="0.198" height="1.95"/>
				<rect x="115.691" y="51.799" style="clip-path:url(#SVGID_14_);fill:#D1D0CF;" width="0.198" height="1.95"/>
				<rect x="115.493" y="51.799" style="clip-path:url(#SVGID_14_);fill:#D2D1D0;" width="0.198" height="1.95"/>
				<rect x="115.294" y="51.799" style="clip-path:url(#SVGID_14_);fill:#D3D2D1;" width="0.198" height="1.95"/>
				<rect x="115.096" y="51.799" style="clip-path:url(#SVGID_14_);fill:#D4D3D2;" width="0.198" height="1.95"/>
				<rect x="114.898" y="51.799" style="clip-path:url(#SVGID_14_);fill:#D4D4D3;" width="0.198" height="1.95"/>
				<rect x="114.7" y="51.799" style="clip-path:url(#SVGID_14_);fill:#D5D5D4;" width="0.198" height="1.95"/>
				<rect x="114.502" y="51.799" style="clip-path:url(#SVGID_14_);fill:#D6D6D5;" width="0.198" height="1.95"/>
				<rect x="114.304" y="51.799" style="clip-path:url(#SVGID_14_);fill:#D7D7D6;" width="0.198" height="1.95"/>
				<rect x="114.106" y="51.799" style="clip-path:url(#SVGID_14_);fill:#D8D8D7;" width="0.198" height="1.95"/>
				<rect x="113.908" y="51.799" style="clip-path:url(#SVGID_14_);fill:#D9D8D7;" width="0.198" height="1.95"/>
				<rect x="113.736" y="51.799" style="clip-path:url(#SVGID_14_);fill:#DAD9D9;" width="0.172" height="1.95"/>
			</g>
		</g>
		<g>
			<g>
				<defs>
					<polyline id="SVGID_15_" points="114.041,56.062 112.42,57.703 114.193,59.5 117.44,59.5 114.041,56.062 					"/>
				</defs>
				<clipPath id="SVGID_16_">
					<use xlink:href="#SVGID_15_"  style="overflow:visible;"/>
				</clipPath>
				<rect x="117.392" y="56.062" style="clip-path:url(#SVGID_16_);fill:#97AC3B;" width="0.047" height="3.438"/>
				<rect x="117.176" y="56.062" style="clip-path:url(#SVGID_16_);fill:#97AC3B;" width="0.216" height="3.438"/>
				<rect x="116.96" y="56.062" style="clip-path:url(#SVGID_16_);fill:#99AD3B;" width="0.216" height="3.438"/>
				<rect x="116.744" y="56.062" style="clip-path:url(#SVGID_16_);fill:#9AAE3B;" width="0.216" height="3.438"/>
				<rect x="116.528" y="56.062" style="clip-path:url(#SVGID_16_);fill:#9BAE3B;" width="0.216" height="3.438"/>
				<rect x="116.312" y="56.062" style="clip-path:url(#SVGID_16_);fill:#9BAF3B;" width="0.216" height="3.438"/>
				<rect x="116.095" y="56.062" style="clip-path:url(#SVGID_16_);fill:#9CB03B;" width="0.216" height="3.438"/>
				<rect x="115.879" y="56.062" style="clip-path:url(#SVGID_16_);fill:#9DB13B;" width="0.216" height="3.438"/>
				<rect x="115.663" y="56.062" style="clip-path:url(#SVGID_16_);fill:#9EB23A;" width="0.216" height="3.438"/>
				<rect x="115.447" y="56.062" style="clip-path:url(#SVGID_16_);fill:#9FB33A;" width="0.216" height="3.438"/>
				<rect x="115.231" y="56.062" style="clip-path:url(#SVGID_16_);fill:#A0B43A;" width="0.216" height="3.438"/>
				<rect x="115.015" y="56.062" style="clip-path:url(#SVGID_16_);fill:#A0B53A;" width="0.216" height="3.438"/>
				<rect x="114.798" y="56.062" style="clip-path:url(#SVGID_16_);fill:#A1B63A;" width="0.216" height="3.438"/>
				<rect x="114.582" y="56.062" style="clip-path:url(#SVGID_16_);fill:#A2B63A;" width="0.216" height="3.438"/>
				<rect x="114.366" y="56.062" style="clip-path:url(#SVGID_16_);fill:#A3B73A;" width="0.216" height="3.438"/>
				<rect x="114.15" y="56.062" style="clip-path:url(#SVGID_16_);fill:#A4B83A;" width="0.216" height="3.438"/>
				<rect x="113.934" y="56.062" style="clip-path:url(#SVGID_16_);fill:#A5B93A;" width="0.216" height="3.438"/>
				<rect x="113.718" y="56.062" style="clip-path:url(#SVGID_16_);fill:#A6BA39;" width="0.216" height="3.438"/>
				<rect x="113.502" y="56.062" style="clip-path:url(#SVGID_16_);fill:#A7BB39;" width="0.216" height="3.438"/>
				<rect x="113.285" y="56.062" style="clip-path:url(#SVGID_16_);fill:#A7BC3A;" width="0.216" height="3.438"/>
				<rect x="113.069" y="56.062" style="clip-path:url(#SVGID_16_);fill:#A7BC3A;" width="0.216" height="3.438"/>
				<rect x="112.853" y="56.062" style="clip-path:url(#SVGID_16_);fill:#A8BD39;" width="0.216" height="3.438"/>
				<rect x="112.637" y="56.062" style="clip-path:url(#SVGID_16_);fill:#A9BE39;" width="0.216" height="3.438"/>
				<rect x="112.421" y="56.062" style="clip-path:url(#SVGID_16_);fill:#AABF39;" width="0.216" height="3.438"/>
				<rect x="112.42" y="56.062" style="clip-path:url(#SVGID_16_);fill:#ACC13A;" width="0.001" height="3.438"/>
			</g>
		</g>
		<g>
			<path style="fill:#BFD636;" d="M103.746,46.315h-3.254l6.488,6.591l-6.492,6.598h3.254l6.492-6.598L103.746,46.315
				 M110.649,46.315h-3.255l6.489,6.591l-6.494,6.598h3.255l6.493-6.598L110.649,46.315"/>
		</g>
		<g>
			<g>
				<defs>
					<path id="SVGID_17_" d="M114.053,49.769l-0.002,0.001l3.082,3.133h0.003L114.053,49.769 M110.649,46.312h-3.255h3.157
						l-0.003,0.003h0.101l1.774,1.803l0.002-0.001L110.649,46.312"/>
				</defs>
				<clipPath id="SVGID_18_">
					<use xlink:href="#SVGID_17_"  style="overflow:visible;"/>
				</clipPath>
				<rect x="107.395" y="46.312" style="clip-path:url(#SVGID_18_);fill:#FFFFFF;" width="0.048" height="1.806"/>
				<rect x="107.442" y="46.312" style="clip-path:url(#SVGID_18_);fill:#FFFFFF;" width="0.199" height="1.806"/>
				<rect x="107.641" y="46.312" style="clip-path:url(#SVGID_18_);fill:#FBFCFF;" width="0.199" height="1.806"/>
				<rect x="107.84" y="46.312" style="clip-path:url(#SVGID_18_);fill:#F9FAFA;" width="0.199" height="1.806"/>
				<rect x="108.039" y="46.312" style="clip-path:url(#SVGID_18_);fill:#F8F8F8;" width="0.199" height="1.806"/>
				<rect x="108.237" y="46.312" style="clip-path:url(#SVGID_18_);fill:#F6F6F6;" width="0.199" height="1.806"/>
				<rect x="108.436" y="46.312" style="clip-path:url(#SVGID_18_);fill:#F5F6F5;" width="0.199" height="1.806"/>
				<rect x="108.635" y="46.312" style="clip-path:url(#SVGID_18_);fill:#F4F4F4;" width="0.199" height="1.806"/>
				<rect x="108.834" y="46.312" style="clip-path:url(#SVGID_18_);fill:#F3F3F3;" width="0.199" height="1.806"/>
				<rect x="109.033" y="46.312" style="clip-path:url(#SVGID_18_);fill:#F2F1F1;" width="0.199" height="1.806"/>
				<rect x="109.231" y="46.312" style="clip-path:url(#SVGID_18_);fill:#F1F0F0;" width="0.199" height="1.806"/>
				<rect x="109.43" y="46.312" style="clip-path:url(#SVGID_18_);fill:#F0EFEF;" width="0.199" height="1.806"/>
				<rect x="109.629" y="46.312" style="clip-path:url(#SVGID_18_);fill:#EFEEED;" width="0.199" height="1.806"/>
				<rect x="109.828" y="46.312" style="clip-path:url(#SVGID_18_);fill:#EEEDED;" width="0.199" height="1.806"/>
				<rect x="110.027" y="46.312" style="clip-path:url(#SVGID_18_);fill:#EDECEC;" width="0.199" height="1.806"/>
				<rect x="110.226" y="46.312" style="clip-path:url(#SVGID_18_);fill:#ECEBEA;" width="0.199" height="1.806"/>
				<rect x="110.424" y="46.312" style="clip-path:url(#SVGID_18_);fill:#EBEAEA;" width="0.199" height="1.806"/>
				<rect x="110.623" y="46.312" style="clip-path:url(#SVGID_18_);fill:#EAE9E8;" width="0.199" height="1.806"/>
				<rect x="110.822" y="46.312" style="clip-path:url(#SVGID_18_);fill:#E9E8E7;" width="0.199" height="1.806"/>
				<rect x="111.021" y="46.312" style="clip-path:url(#SVGID_18_);fill:#E8E7E7;" width="0.199" height="1.806"/>
				<rect x="111.22" y="46.312" style="clip-path:url(#SVGID_18_);fill:#E7E6E6;" width="0.199" height="1.806"/>
				<rect x="111.418" y="46.312" style="clip-path:url(#SVGID_18_);fill:#E6E5E5;" width="0.199" height="1.806"/>
				<rect x="111.617" y="46.312" style="clip-path:url(#SVGID_18_);fill:#E5E4E3;" width="0.199" height="1.806"/>
				<rect x="111.816" y="46.312" style="clip-path:url(#SVGID_18_);fill:#E4E3E2;" width="0.199" height="1.806"/>
				<rect x="112.015" y="46.312" style="clip-path:url(#SVGID_18_);fill:#E3E2E1;" width="0.199" height="1.806"/>
				<rect x="112.214" y="46.312" style="clip-path:url(#SVGID_18_);fill:#E2E1E1;" width="0.199" height="1.806"/>
				<rect x="112.412" y="46.312" style="clip-path:url(#SVGID_18_);fill:#E1E0E0;" width="0.013" height="1.806"/>
				<rect x="114.052" y="49.769" style="clip-path:url(#SVGID_18_);fill:#D9D8D7;" width="0.15" height="3.133"/>
				<rect x="114.202" y="49.769" style="clip-path:url(#SVGID_18_);fill:#D8D8D7;" width="0.199" height="3.133"/>
				<rect x="114.4" y="49.769" style="clip-path:url(#SVGID_18_);fill:#D7D7D6;" width="0.199" height="3.133"/>
				<rect x="114.599" y="49.769" style="clip-path:url(#SVGID_18_);fill:#D6D6D5;" width="0.199" height="3.133"/>
				<rect x="114.798" y="49.769" style="clip-path:url(#SVGID_18_);fill:#D5D5D4;" width="0.199" height="3.133"/>
				<rect x="114.997" y="49.769" style="clip-path:url(#SVGID_18_);fill:#D4D4D3;" width="0.199" height="3.133"/>
				<rect x="115.196" y="49.769" style="clip-path:url(#SVGID_18_);fill:#D4D3D2;" width="0.199" height="3.133"/>
				<rect x="115.395" y="49.769" style="clip-path:url(#SVGID_18_);fill:#D3D2D1;" width="0.199" height="3.133"/>
				<rect x="115.593" y="49.769" style="clip-path:url(#SVGID_18_);fill:#D2D1D0;" width="0.199" height="3.133"/>
				<rect x="115.792" y="49.769" style="clip-path:url(#SVGID_18_);fill:#D1D0D0;" width="0.199" height="3.133"/>
				<rect x="115.991" y="49.769" style="clip-path:url(#SVGID_18_);fill:#D0CFCF;" width="0.199" height="3.133"/>
				<rect x="116.19" y="49.769" style="clip-path:url(#SVGID_18_);fill:#CFCFCE;" width="0.199" height="3.133"/>
				<rect x="116.389" y="49.769" style="clip-path:url(#SVGID_18_);fill:#CECECD;" width="0.199" height="3.133"/>
				<rect x="116.587" y="49.769" style="clip-path:url(#SVGID_18_);fill:#CDCDCC;" width="0.199" height="3.133"/>
				<rect x="116.786" y="49.769" style="clip-path:url(#SVGID_18_);fill:#CDCCCB;" width="0.199" height="3.133"/>
				<rect x="116.985" y="49.769" style="clip-path:url(#SVGID_18_);fill:#CCCBCA;" width="0.151" height="3.133"/>
			</g>
		</g>
		<g>
			<g>
				<defs>
					<path id="SVGID_19_" d="M112.425,48.117l-0.002,0.001l1.629,1.652l0.002-0.001L112.425,48.117 M110.552,46.312h-3.157
						l0.003,0.003h3.151L110.552,46.312"/>
				</defs>
				<clipPath id="SVGID_20_">
					<use xlink:href="#SVGID_19_"  style="overflow:visible;"/>
				</clipPath>
				<rect x="107.417" y="46.29" style="clip-path:url(#SVGID_20_);fill:#BFD636;" width="0.003" height="0.048"/>
				<rect x="107.549" y="46.205" style="clip-path:url(#SVGID_20_);fill:#BFD636;" width="0.003" height="0.216"/>
				<rect x="107.765" y="46.205" style="clip-path:url(#SVGID_20_);fill:#BFD636;" width="0.003" height="0.216"/>
				<rect x="107.982" y="46.205" style="clip-path:url(#SVGID_20_);fill:#BED437;" width="0.003" height="0.216"/>
				<rect x="108.198" y="46.205" style="clip-path:url(#SVGID_20_);fill:#BDD337;" width="0.003" height="0.216"/>
				<rect x="108.415" y="46.205" style="clip-path:url(#SVGID_20_);fill:#BCD137;" width="0.003" height="0.216"/>
				<rect x="108.631" y="46.205" style="clip-path:url(#SVGID_20_);fill:#BBD037;" width="0.003" height="0.216"/>
				<rect x="108.848" y="46.205" style="clip-path:url(#SVGID_20_);fill:#BACF37;" width="0.003" height="0.216"/>
				<rect x="109.064" y="46.205" style="clip-path:url(#SVGID_20_);fill:#B9CE38;" width="0.003" height="0.216"/>
				<rect x="109.281" y="46.205" style="clip-path:url(#SVGID_20_);fill:#B8CD38;" width="0.003" height="0.216"/>
				<rect x="109.497" y="46.205" style="clip-path:url(#SVGID_20_);fill:#B7CC37;" width="0.003" height="0.216"/>
				<rect x="109.713" y="46.205" style="clip-path:url(#SVGID_20_);fill:#B6CB38;" width="0.003" height="0.216"/>
				<rect x="109.93" y="46.205" style="clip-path:url(#SVGID_20_);fill:#B5CA38;" width="0.003" height="0.216"/>
				<rect x="110.146" y="46.205" style="clip-path:url(#SVGID_20_);fill:#B5C938;" width="0.003" height="0.216"/>
				<rect x="110.363" y="46.205" style="clip-path:url(#SVGID_20_);fill:#B4C839;" width="0.003" height="0.216"/>
				<rect x="110.511" y="46.274" style="clip-path:url(#SVGID_20_);fill:#B3C738;" width="0.003" height="0.079"/>
				<rect x="112.423" y="48.117" style="clip-path:url(#SVGID_20_);fill:#AABE39;" width="0.214" height="1.653"/>
				<rect x="112.637" y="48.117" style="clip-path:url(#SVGID_20_);fill:#A9BD39;" width="0.216" height="1.653"/>
				<rect x="112.854" y="48.117" style="clip-path:url(#SVGID_20_);fill:#A8BC39;" width="0.216" height="1.653"/>
				<rect x="113.07" y="48.117" style="clip-path:url(#SVGID_20_);fill:#A7BC3A;" width="0.216" height="1.653"/>
				<rect x="113.287" y="48.117" style="clip-path:url(#SVGID_20_);fill:#A7BB39;" width="0.216" height="1.653"/>
				<rect x="113.503" y="48.117" style="clip-path:url(#SVGID_20_);fill:#A6BA39;" width="0.216" height="1.653"/>
				<rect x="113.72" y="48.117" style="clip-path:url(#SVGID_20_);fill:#A5B93A;" width="0.216" height="1.653"/>
				<rect x="113.936" y="48.117" style="clip-path:url(#SVGID_20_);fill:#A4B83A;" width="0.117" height="1.653"/>
			</g>
		</g>
		<g>
			<g>
				<defs>
					<polyline id="SVGID_21_" points="110.649,46.315 110.549,46.315 107.398,46.315 113.883,52.903 117.133,52.903 114.052,49.77 
						112.423,48.118 110.649,46.315 					"/>
				</defs>
				<clipPath id="SVGID_22_">
					<use xlink:href="#SVGID_21_"  style="overflow:visible;"/>
				</clipPath>
				<rect x="107.398" y="46.315" style="clip-path:url(#SVGID_22_);fill:#BFD636;" width="0.048" height="6.588"/>
				<rect x="107.445" y="46.315" style="clip-path:url(#SVGID_22_);fill:#BFD636;" width="0.216" height="6.588"/>
				<rect x="107.661" y="46.315" style="clip-path:url(#SVGID_22_);fill:#BFD636;" width="0.216" height="6.588"/>
				<rect x="107.878" y="46.315" style="clip-path:url(#SVGID_22_);fill:#BED437;" width="0.216" height="6.588"/>
				<rect x="108.094" y="46.315" style="clip-path:url(#SVGID_22_);fill:#BDD337;" width="0.216" height="6.588"/>
				<rect x="108.311" y="46.315" style="clip-path:url(#SVGID_22_);fill:#BCD137;" width="0.216" height="6.588"/>
				<rect x="108.527" y="46.315" style="clip-path:url(#SVGID_22_);fill:#BBD037;" width="0.216" height="6.588"/>
				<rect x="108.743" y="46.315" style="clip-path:url(#SVGID_22_);fill:#BACF37;" width="0.216" height="6.588"/>
				<rect x="108.96" y="46.315" style="clip-path:url(#SVGID_22_);fill:#B9CE38;" width="0.216" height="6.588"/>
				<rect x="109.176" y="46.315" style="clip-path:url(#SVGID_22_);fill:#B8CD38;" width="0.216" height="6.588"/>
				<rect x="109.392" y="46.315" style="clip-path:url(#SVGID_22_);fill:#B7CC37;" width="0.216" height="6.588"/>
				<rect x="109.609" y="46.315" style="clip-path:url(#SVGID_22_);fill:#B6CB38;" width="0.216" height="6.588"/>
				<rect x="109.825" y="46.315" style="clip-path:url(#SVGID_22_);fill:#B5CA38;" width="0.216" height="6.588"/>
				<rect x="110.041" y="46.315" style="clip-path:url(#SVGID_22_);fill:#B5C938;" width="0.216" height="6.588"/>
				<rect x="110.258" y="46.315" style="clip-path:url(#SVGID_22_);fill:#B4C839;" width="0.216" height="6.588"/>
				<rect x="110.474" y="46.315" style="clip-path:url(#SVGID_22_);fill:#B3C738;" width="0.216" height="6.588"/>
				<rect x="110.69" y="46.315" style="clip-path:url(#SVGID_22_);fill:#B2C639;" width="0.216" height="6.588"/>
				<rect x="110.907" y="46.315" style="clip-path:url(#SVGID_22_);fill:#B1C539;" width="0.216" height="6.588"/>
				<rect x="111.123" y="46.315" style="clip-path:url(#SVGID_22_);fill:#B0C439;" width="0.216" height="6.588"/>
				<rect x="111.339" y="46.315" style="clip-path:url(#SVGID_22_);fill:#AFC339;" width="0.216" height="6.588"/>
				<rect x="111.556" y="46.315" style="clip-path:url(#SVGID_22_);fill:#AFC339;" width="0.216" height="6.588"/>
				<rect x="111.772" y="46.315" style="clip-path:url(#SVGID_22_);fill:#AEC239;" width="0.216" height="6.588"/>
				<rect x="111.989" y="46.315" style="clip-path:url(#SVGID_22_);fill:#ADC139;" width="0.216" height="6.588"/>
				<rect x="112.205" y="46.315" style="clip-path:url(#SVGID_22_);fill:#ACC03A;" width="0.216" height="6.588"/>
				<rect x="112.421" y="46.315" style="clip-path:url(#SVGID_22_);fill:#AABE39;" width="0.216" height="6.588"/>
				<rect x="112.638" y="46.315" style="clip-path:url(#SVGID_22_);fill:#A9BD39;" width="0.216" height="6.588"/>
				<rect x="112.854" y="46.315" style="clip-path:url(#SVGID_22_);fill:#A8BC39;" width="0.216" height="6.588"/>
				<rect x="113.07" y="46.315" style="clip-path:url(#SVGID_22_);fill:#A7BC3A;" width="0.216" height="6.588"/>
				<rect x="113.287" y="46.315" style="clip-path:url(#SVGID_22_);fill:#A7BB39;" width="0.216" height="6.588"/>
				<rect x="113.503" y="46.315" style="clip-path:url(#SVGID_22_);fill:#A6BA39;" width="0.216" height="6.588"/>
				<rect x="113.719" y="46.315" style="clip-path:url(#SVGID_22_);fill:#A5B93A;" width="0.216" height="6.588"/>
				<rect x="113.936" y="46.315" style="clip-path:url(#SVGID_22_);fill:#A4B83A;" width="0.216" height="6.588"/>
				<rect x="114.152" y="46.315" style="clip-path:url(#SVGID_22_);fill:#A3B73A;" width="0.216" height="6.588"/>
				<rect x="114.368" y="46.315" style="clip-path:url(#SVGID_22_);fill:#A2B63A;" width="0.216" height="6.588"/>
				<rect x="114.585" y="46.315" style="clip-path:url(#SVGID_22_);fill:#A1B63A;" width="0.216" height="6.588"/>
				<rect x="114.801" y="46.315" style="clip-path:url(#SVGID_22_);fill:#A0B53A;" width="0.216" height="6.588"/>
				<rect x="115.017" y="46.315" style="clip-path:url(#SVGID_22_);fill:#A0B43A;" width="0.216" height="6.588"/>
				<rect x="115.234" y="46.315" style="clip-path:url(#SVGID_22_);fill:#9FB33A;" width="0.216" height="6.588"/>
				<rect x="115.45" y="46.315" style="clip-path:url(#SVGID_22_);fill:#9EB23A;" width="0.216" height="6.588"/>
				<rect x="115.667" y="46.315" style="clip-path:url(#SVGID_22_);fill:#9DB13B;" width="0.216" height="6.588"/>
				<rect x="115.883" y="46.315" style="clip-path:url(#SVGID_22_);fill:#9CB13B;" width="0.216" height="6.588"/>
				<rect x="116.099" y="46.315" style="clip-path:url(#SVGID_22_);fill:#9BB03B;" width="0.216" height="6.588"/>
				<rect x="116.316" y="46.315" style="clip-path:url(#SVGID_22_);fill:#9BAF3B;" width="0.216" height="6.588"/>
				<rect x="116.532" y="46.315" style="clip-path:url(#SVGID_22_);fill:#9AAE3B;" width="0.216" height="6.588"/>
				<rect x="116.748" y="46.315" style="clip-path:url(#SVGID_22_);fill:#99AD3B;" width="0.216" height="6.588"/>
				<rect x="116.965" y="46.315" style="clip-path:url(#SVGID_22_);fill:#97AC3B;" width="0.169" height="6.588"/>
			</g>
		</g>
		<g>
			<g>
				<defs>
					<path id="SVGID_23_" d="M107.147,49.769l-0.001,0.002l1.826,1.854v-0.001L107.147,49.769 M103.746,46.312h-3.254l0.001,0.003
						h3.253l1.775,1.803l0.001-0.001L103.746,46.312"/>
				</defs>
				<clipPath id="SVGID_24_">
					<use xlink:href="#SVGID_23_"  style="overflow:visible;"/>
				</clipPath>
				<rect x="100.492" y="46.312" style="clip-path:url(#SVGID_24_);fill:#FFFFFF;" width="0.048" height="1.806"/>
				<rect x="100.539" y="46.312" style="clip-path:url(#SVGID_24_);fill:#FFFFFF;" width="0.199" height="1.806"/>
				<rect x="100.738" y="46.312" style="clip-path:url(#SVGID_24_);fill:#FBFCFF;" width="0.199" height="1.806"/>
				<rect x="100.937" y="46.312" style="clip-path:url(#SVGID_24_);fill:#F9FAFA;" width="0.199" height="1.806"/>
				<rect x="101.136" y="46.312" style="clip-path:url(#SVGID_24_);fill:#F8F8F8;" width="0.199" height="1.806"/>
				<rect x="101.334" y="46.312" style="clip-path:url(#SVGID_24_);fill:#F6F6F6;" width="0.199" height="1.806"/>
				<rect x="101.533" y="46.312" style="clip-path:url(#SVGID_24_);fill:#F5F6F5;" width="0.199" height="1.806"/>
				<rect x="101.732" y="46.312" style="clip-path:url(#SVGID_24_);fill:#F4F4F4;" width="0.199" height="1.806"/>
				<rect x="101.931" y="46.312" style="clip-path:url(#SVGID_24_);fill:#F3F3F3;" width="0.199" height="1.806"/>
				<rect x="102.13" y="46.312" style="clip-path:url(#SVGID_24_);fill:#F2F1F1;" width="0.199" height="1.806"/>
				<rect x="102.328" y="46.312" style="clip-path:url(#SVGID_24_);fill:#F1F0F0;" width="0.199" height="1.806"/>
				<rect x="102.527" y="46.312" style="clip-path:url(#SVGID_24_);fill:#F0EFEF;" width="0.199" height="1.806"/>
				<rect x="102.726" y="46.312" style="clip-path:url(#SVGID_24_);fill:#EFEEED;" width="0.199" height="1.806"/>
				<rect x="102.925" y="46.312" style="clip-path:url(#SVGID_24_);fill:#EEEDED;" width="0.199" height="1.806"/>
				<rect x="103.124" y="46.312" style="clip-path:url(#SVGID_24_);fill:#EDECEC;" width="0.199" height="1.806"/>
				<rect x="103.322" y="46.312" style="clip-path:url(#SVGID_24_);fill:#ECEBEA;" width="0.199" height="1.806"/>
				<rect x="103.521" y="46.312" style="clip-path:url(#SVGID_24_);fill:#EBEAEA;" width="0.199" height="1.806"/>
				<rect x="103.72" y="46.312" style="clip-path:url(#SVGID_24_);fill:#EAE9E8;" width="0.199" height="1.806"/>
				<rect x="103.919" y="46.312" style="clip-path:url(#SVGID_24_);fill:#E9E8E7;" width="0.199" height="1.806"/>
				<rect x="104.117" y="46.312" style="clip-path:url(#SVGID_24_);fill:#E8E7E7;" width="0.199" height="1.806"/>
				<rect x="104.316" y="46.312" style="clip-path:url(#SVGID_24_);fill:#E7E6E6;" width="0.199" height="1.806"/>
				<rect x="104.515" y="46.312" style="clip-path:url(#SVGID_24_);fill:#E6E5E5;" width="0.199" height="1.806"/>
				<rect x="104.714" y="46.312" style="clip-path:url(#SVGID_24_);fill:#E5E4E3;" width="0.199" height="1.806"/>
				<rect x="104.913" y="46.312" style="clip-path:url(#SVGID_24_);fill:#E4E3E2;" width="0.199" height="1.806"/>
				<rect x="105.111" y="46.312" style="clip-path:url(#SVGID_24_);fill:#E3E2E1;" width="0.199" height="1.806"/>
				<rect x="105.31" y="46.312" style="clip-path:url(#SVGID_24_);fill:#E2E1E1;" width="0.199" height="1.806"/>
				<rect x="105.509" y="46.312" style="clip-path:url(#SVGID_24_);fill:#E1E0E0;" width="0.013" height="1.806"/>
				<rect x="107.146" y="49.769" style="clip-path:url(#SVGID_24_);fill:#D9D8D7;" width="0.152" height="1.855"/>
				<rect x="107.298" y="49.769" style="clip-path:url(#SVGID_24_);fill:#D8D8D7;" width="0.199" height="1.855"/>
				<rect x="107.497" y="49.769" style="clip-path:url(#SVGID_24_);fill:#D7D7D6;" width="0.199" height="1.855"/>
				<rect x="107.696" y="49.769" style="clip-path:url(#SVGID_24_);fill:#D6D6D5;" width="0.199" height="1.855"/>
				<rect x="107.895" y="49.769" style="clip-path:url(#SVGID_24_);fill:#D5D5D4;" width="0.199" height="1.855"/>
				<rect x="108.093" y="49.769" style="clip-path:url(#SVGID_24_);fill:#D4D4D3;" width="0.199" height="1.855"/>
				<rect x="108.292" y="49.769" style="clip-path:url(#SVGID_24_);fill:#D4D3D2;" width="0.199" height="1.855"/>
				<rect x="108.491" y="49.769" style="clip-path:url(#SVGID_24_);fill:#D3D2D1;" width="0.199" height="1.855"/>
				<rect x="108.69" y="49.769" style="clip-path:url(#SVGID_24_);fill:#D2D1D0;" width="0.199" height="1.855"/>
				<rect x="108.889" y="49.769" style="clip-path:url(#SVGID_24_);fill:#D1D0D0;" width="0.084" height="1.855"/>
			</g>
		</g>
		<g>
			<g>
				<defs>
					<path id="SVGID_25_" d="M108.972,51.624L108.972,51.624l1.26,1.278h0.002L108.972,51.624 M105.522,48.117L105.522,48.117
						l1.624,1.654l0.001-0.002L105.522,48.117"/>
				</defs>
				<clipPath id="SVGID_26_">
					<use xlink:href="#SVGID_25_"  style="overflow:visible;"/>
				</clipPath>
				<rect x="105.521" y="48.117" style="clip-path:url(#SVGID_26_);fill:#ACC03A;" width="0.004" height="1.654"/>
				<rect x="105.524" y="48.117" style="clip-path:url(#SVGID_26_);fill:#AABE39;" width="0.216" height="1.654"/>
				<rect x="105.741" y="48.117" style="clip-path:url(#SVGID_26_);fill:#A9BD39;" width="0.216" height="1.654"/>
				<rect x="105.957" y="48.117" style="clip-path:url(#SVGID_26_);fill:#A8BC39;" width="0.216" height="1.654"/>
				<rect x="106.174" y="48.117" style="clip-path:url(#SVGID_26_);fill:#A7BC3A;" width="0.216" height="1.654"/>
				<rect x="106.39" y="48.117" style="clip-path:url(#SVGID_26_);fill:#A7BB39;" width="0.216" height="1.654"/>
				<rect x="106.607" y="48.117" style="clip-path:url(#SVGID_26_);fill:#A6BA39;" width="0.216" height="1.654"/>
				<rect x="106.823" y="48.117" style="clip-path:url(#SVGID_26_);fill:#A5B93A;" width="0.216" height="1.654"/>
				<rect x="107.04" y="48.117" style="clip-path:url(#SVGID_26_);fill:#A4B83A;" width="0.108" height="1.654"/>
				<rect x="108.972" y="51.624" style="clip-path:url(#SVGID_26_);fill:#9DB13B;" width="0.015" height="1.278"/>
				<rect x="108.988" y="51.624" style="clip-path:url(#SVGID_26_);fill:#9CB13B;" width="0.216" height="1.278"/>
				<rect x="109.204" y="51.624" style="clip-path:url(#SVGID_26_);fill:#9BB03B;" width="0.216" height="1.278"/>
				<rect x="109.42" y="51.624" style="clip-path:url(#SVGID_26_);fill:#9BAF3B;" width="0.216" height="1.278"/>
				<rect x="109.637" y="51.624" style="clip-path:url(#SVGID_26_);fill:#9AAE3B;" width="0.216" height="1.278"/>
				<rect x="109.853" y="51.624" style="clip-path:url(#SVGID_26_);fill:#99AD3B;" width="0.216" height="1.278"/>
				<rect x="110.07" y="51.624" style="clip-path:url(#SVGID_26_);fill:#97AC3B;" width="0.164" height="1.278"/>
			</g>
		</g>
		<g>
			<g>
				<defs>
					<polyline id="SVGID_27_" points="103.746,46.315 100.493,46.315 106.98,52.903 110.232,52.903 108.972,51.625 107.146,49.771 
						105.521,48.118 103.746,46.315 					"/>
				</defs>
				<clipPath id="SVGID_28_">
					<use xlink:href="#SVGID_27_"  style="overflow:visible;"/>
				</clipPath>
				<rect x="100.493" y="46.315" style="clip-path:url(#SVGID_28_);fill:#BFD636;" width="0.048" height="6.588"/>
				<rect x="100.541" y="46.315" style="clip-path:url(#SVGID_28_);fill:#BFD636;" width="0.216" height="6.588"/>
				<rect x="100.757" y="46.315" style="clip-path:url(#SVGID_28_);fill:#BFD636;" width="0.216" height="6.588"/>
				<rect x="100.973" y="46.315" style="clip-path:url(#SVGID_28_);fill:#BED437;" width="0.216" height="6.588"/>
				<rect x="101.19" y="46.315" style="clip-path:url(#SVGID_28_);fill:#BDD337;" width="0.216" height="6.588"/>
				<rect x="101.406" y="46.315" style="clip-path:url(#SVGID_28_);fill:#BCD137;" width="0.216" height="6.588"/>
				<rect x="101.623" y="46.315" style="clip-path:url(#SVGID_28_);fill:#BBD037;" width="0.216" height="6.588"/>
				<rect x="101.839" y="46.315" style="clip-path:url(#SVGID_28_);fill:#BACF37;" width="0.216" height="6.588"/>
				<rect x="102.056" y="46.315" style="clip-path:url(#SVGID_28_);fill:#B9CE38;" width="0.216" height="6.588"/>
				<rect x="102.272" y="46.315" style="clip-path:url(#SVGID_28_);fill:#B8CD38;" width="0.216" height="6.588"/>
				<rect x="102.488" y="46.315" style="clip-path:url(#SVGID_28_);fill:#B7CC37;" width="0.216" height="6.588"/>
				<rect x="102.705" y="46.315" style="clip-path:url(#SVGID_28_);fill:#B6CB38;" width="0.216" height="6.588"/>
				<rect x="102.921" y="46.315" style="clip-path:url(#SVGID_28_);fill:#B5CA38;" width="0.216" height="6.588"/>
				<rect x="103.138" y="46.315" style="clip-path:url(#SVGID_28_);fill:#B5C938;" width="0.216" height="6.588"/>
				<rect x="103.354" y="46.315" style="clip-path:url(#SVGID_28_);fill:#B4C839;" width="0.216" height="6.588"/>
				<rect x="103.57" y="46.315" style="clip-path:url(#SVGID_28_);fill:#B3C738;" width="0.216" height="6.588"/>
				<rect x="103.787" y="46.315" style="clip-path:url(#SVGID_28_);fill:#B2C639;" width="0.216" height="6.588"/>
				<rect x="104.003" y="46.315" style="clip-path:url(#SVGID_28_);fill:#B1C539;" width="0.216" height="6.588"/>
				<rect x="104.22" y="46.315" style="clip-path:url(#SVGID_28_);fill:#B0C439;" width="0.216" height="6.588"/>
				<rect x="104.436" y="46.315" style="clip-path:url(#SVGID_28_);fill:#AFC339;" width="0.216" height="6.588"/>
				<rect x="104.652" y="46.315" style="clip-path:url(#SVGID_28_);fill:#AFC339;" width="0.216" height="6.588"/>
				<rect x="104.869" y="46.315" style="clip-path:url(#SVGID_28_);fill:#AEC239;" width="0.216" height="6.588"/>
				<rect x="105.085" y="46.315" style="clip-path:url(#SVGID_28_);fill:#ADC139;" width="0.216" height="6.588"/>
				<rect x="105.302" y="46.315" style="clip-path:url(#SVGID_28_);fill:#ACC03A;" width="0.216" height="6.588"/>
				<rect x="105.518" y="46.315" style="clip-path:url(#SVGID_28_);fill:#AABE39;" width="0.216" height="6.588"/>
				<rect x="105.735" y="46.315" style="clip-path:url(#SVGID_28_);fill:#A9BD39;" width="0.216" height="6.588"/>
				<rect x="105.951" y="46.315" style="clip-path:url(#SVGID_28_);fill:#A8BC39;" width="0.216" height="6.588"/>
				<rect x="106.167" y="46.315" style="clip-path:url(#SVGID_28_);fill:#A7BC3A;" width="0.216" height="6.588"/>
				<rect x="106.384" y="46.315" style="clip-path:url(#SVGID_28_);fill:#A7BB39;" width="0.216" height="6.588"/>
				<rect x="106.6" y="46.315" style="clip-path:url(#SVGID_28_);fill:#A6BA39;" width="0.216" height="6.588"/>
				<rect x="106.817" y="46.315" style="clip-path:url(#SVGID_28_);fill:#A5B93A;" width="0.216" height="6.588"/>
				<rect x="107.033" y="46.315" style="clip-path:url(#SVGID_28_);fill:#A4B83A;" width="0.216" height="6.588"/>
				<rect x="107.249" y="46.315" style="clip-path:url(#SVGID_28_);fill:#A3B73A;" width="0.216" height="6.588"/>
				<rect x="107.466" y="46.315" style="clip-path:url(#SVGID_28_);fill:#A2B63A;" width="0.216" height="6.588"/>
				<rect x="107.682" y="46.315" style="clip-path:url(#SVGID_28_);fill:#A1B63A;" width="0.216" height="6.588"/>
				<rect x="107.899" y="46.315" style="clip-path:url(#SVGID_28_);fill:#A0B53A;" width="0.216" height="6.588"/>
				<rect x="108.115" y="46.315" style="clip-path:url(#SVGID_28_);fill:#A0B43A;" width="0.216" height="6.588"/>
				<rect x="108.332" y="46.315" style="clip-path:url(#SVGID_28_);fill:#9FB33A;" width="0.216" height="6.588"/>
				<rect x="108.548" y="46.315" style="clip-path:url(#SVGID_28_);fill:#9EB23A;" width="0.216" height="6.588"/>
				<rect x="108.764" y="46.315" style="clip-path:url(#SVGID_28_);fill:#9DB13B;" width="0.216" height="6.588"/>
				<rect x="108.981" y="46.315" style="clip-path:url(#SVGID_28_);fill:#9CB13B;" width="0.216" height="6.588"/>
				<rect x="109.197" y="46.315" style="clip-path:url(#SVGID_28_);fill:#9BB03B;" width="0.216" height="6.588"/>
				<rect x="109.414" y="46.315" style="clip-path:url(#SVGID_28_);fill:#9BAF3B;" width="0.216" height="6.588"/>
				<rect x="109.63" y="46.315" style="clip-path:url(#SVGID_28_);fill:#9AAE3B;" width="0.216" height="6.588"/>
				<rect x="109.846" y="46.315" style="clip-path:url(#SVGID_28_);fill:#99AD3B;" width="0.216" height="6.588"/>
				<rect x="110.063" y="46.315" style="clip-path:url(#SVGID_28_);fill:#97AC3B;" width="0.169" height="6.588"/>
			</g>
		</g>
		<g>
			<path style="fill:#BFD636;" d="M130,59.828h-2.535l-4.656-5.353h-2.229v5.353h-1.953V46.364h3.788
				c0.842,0,1.547,0.042,2.116,0.127c0.569,0.085,1.11,0.28,1.623,0.588c0.513,0.301,0.919,0.69,1.218,1.167
				c0.299,0.476,0.449,1.067,0.449,1.772c0,0.989-0.273,1.815-0.819,2.478c-0.546,0.663-1.289,1.155-2.229,1.474L130,59.828z
				 M125.778,50.153c0-0.392-0.076-0.74-0.227-1.044c-0.151-0.304-0.385-0.553-0.7-0.746c-0.276-0.169-0.599-0.288-0.967-0.357
				c-0.368-0.069-0.825-0.104-1.371-0.104h-1.933v5.082h1.716c0.559,0,1.062-0.045,1.509-0.136c0.447-0.09,0.829-0.277,1.144-0.561
				c0.283-0.253,0.492-0.555,0.626-0.904C125.711,51.033,125.778,50.623,125.778,50.153z"/>
		</g>
		<g>
			<path style="fill:#33C4F2;" d="M95.315,45.172v0.627h-0.746v1.929h-0.794v-1.929h-0.736v-0.627H95.315z M98.126,47.728
				l-0.048-1.124c-0.01-0.281,0-0.599-0.01-0.993h-0.048c-0.077,0.346-0.153,0.712-0.22,0.993l-0.268,1.077h-0.755l-0.239-1.086
				c-0.038-0.243-0.105-0.646-0.162-0.983h-0.048c0,0.346-0.01,0.702-0.019,0.993l-0.057,1.124h-0.746l0.163-2.556h1.224
				l0.172,0.627c0.048,0.197,0.086,0.403,0.153,0.824h0.01c0.067-0.318,0.124-0.571,0.191-0.824l0.191-0.627h1.138l0.143,2.556
				H98.126z"/>
		</g>
	</g>
</g>
<g id="Layer_1">
</g>
</svg>
