<?xml version="1.0" encoding="iso-8859-1"?>
<!-- Generator: Adobe Illustrator 18.1.1, SVG Export Plug-In . SVG Version: 6.00 Build 0)  -->
<!DOCTYPE svg PUBLIC "-//W3C//DTD SVG 1.1//EN" "http://www.w3.org/Graphics/SVG/1.1/DTD/svg11.dtd">
<svg version="1.1" xmlns="http://www.w3.org/2000/svg" xmlns:xlink="http://www.w3.org/1999/xlink" x="0px" y="0px"
	 viewBox="0 0 120 23.354" style="enable-background:new 0 0 120 23.354;" xml:space="preserve">
<g id="locastro">
	<g>
		<path style="fill:#313131;" d="M0,8.382V0.136h1.446v6.972H5.08v1.274H0z"/>
		<path style="fill:#313131;" d="M6.378,4.264C6.378,1.805,8.121,0,10.594,0c2.46,0,4.215,1.805,4.215,4.264
			S13.054,8.53,10.594,8.53C8.121,8.53,6.378,6.724,6.378,4.264z M13.326,4.264c0-1.706-1.076-2.979-2.732-2.979
			c-1.669,0-2.732,1.274-2.732,2.979c0,1.694,1.063,2.979,2.732,2.979C12.25,7.244,13.326,5.959,13.326,4.264z"/>
		<path style="fill:#313131;" d="M16.57,4.264C16.57,1.718,18.461,0,20.897,0c1.657,0,2.695,0.853,3.301,1.841l-1.224,0.643
			c-0.396-0.692-1.199-1.199-2.077-1.199c-1.632,0-2.843,1.237-2.843,2.979c0,1.718,1.212,2.979,2.843,2.979
			c0.878,0,1.681-0.519,2.077-1.199l1.236,0.618c-0.631,0.988-1.656,1.867-3.313,1.867C18.461,8.53,16.57,6.799,16.57,4.264z"/>
		<path style="fill:#313131;" d="M31.946,8.382L31.34,6.787h-3.783l-0.606,1.595h-1.644l3.239-8.246h1.805l3.239,8.246H31.946z
			 M29.449,1.582l-1.483,3.93h2.967L29.449,1.582z"/>
		<path style="fill:#313131;" d="M34.814,7.22l0.816-1.125c0.556,0.606,1.459,1.149,2.608,1.149c1.187,0,1.644-0.58,1.644-1.137
			c0-1.731-4.797-0.655-4.797-3.684C35.085,1.05,36.272,0,38.089,0c1.274,0,2.324,0.42,3.078,1.162l-0.816,1.076
			c-0.655-0.655-1.533-0.952-2.398-0.952c-0.841,0-1.384,0.42-1.384,1.026c0,1.546,4.797,0.593,4.797,3.66
			c0,1.372-0.977,2.559-3.189,2.559C36.656,8.53,35.555,7.985,34.814,7.22z"/>
		<path style="fill:#313131;" d="M45.397,8.382V1.41h-2.497V0.136h6.441V1.41h-2.497v6.972H45.397z"/>
		<path style="fill:#313131;" d="M55.904,8.382l-1.817-3.078H52.64v3.078h-1.446V0.136h3.623c1.632,0,2.707,1.05,2.707,2.583
			c0,1.459-0.964,2.263-1.965,2.423l2.027,3.24H55.904z M56.04,2.708c0-0.791-0.593-1.298-1.409-1.298H52.64v2.62h1.991
			C55.447,4.03,56.04,3.51,56.04,2.708z"/>
		<path style="fill:#313131;" d="M59.274,4.264c0-2.46,1.743-4.264,4.215-4.264c2.46,0,4.216,1.805,4.216,4.264
			S65.949,8.53,63.489,8.53C61.017,8.53,59.274,6.724,59.274,4.264z M66.222,4.264c0-1.706-1.076-2.979-2.733-2.979
			c-1.669,0-2.732,1.274-2.732,2.979c0,1.694,1.063,2.979,2.732,2.979C65.146,7.244,66.222,5.959,66.222,4.264z"/>
		<path style="fill:#313131;" d="M73.505,8.382V0.136h3.066c2.584,0,4.315,1.706,4.315,4.116c0,2.436-1.731,4.13-4.303,4.13H73.505z
			 M79.401,4.252c0-1.582-0.988-2.842-2.818-2.842h-1.632v5.698h1.619C78.364,7.108,79.401,5.823,79.401,4.252z"/>
		<path style="fill:#313131;" d="M83.062,8.382V0.136h5.65V1.41h-4.204v2.126h4.117v1.274h-4.117v2.299h4.204v1.274H83.062z"/>
		<path style="fill:#313131;" d="M90.424,7.22l0.815-1.125c0.556,0.606,1.459,1.149,2.608,1.149c1.186,0,1.645-0.58,1.645-1.137
			c0-1.731-4.797-0.655-4.797-3.684C90.696,1.05,91.882,0,93.7,0c1.274,0,2.324,0.42,3.078,1.162l-0.815,1.076
			c-0.655-0.655-1.534-0.952-2.399-0.952c-0.841,0-1.384,0.42-1.384,1.026c0,1.546,4.797,0.593,4.797,3.66
			c0,1.372-0.977,2.559-3.19,2.559C92.266,8.53,91.166,7.985,90.424,7.22z"/>
		<path style="fill:#313131;" d="M99.126,8.382V0.136h1.446v8.246H99.126z"/>
		<path style="fill:#313131;" d="M102.753,4.264c0-2.596,1.928-4.264,4.327-4.264c1.606,0,2.658,0.766,3.313,1.706l-1.175,0.681
			c-0.446-0.618-1.224-1.101-2.139-1.101c-1.632,0-2.843,1.237-2.843,2.979c0,1.718,1.212,2.979,2.843,2.979
			c0.841,0,1.582-0.384,1.953-0.742V5.228h-2.473V3.956h3.906v3.078c-0.804,0.902-1.966,1.507-3.387,1.507
			C104.681,8.542,102.753,6.849,102.753,4.264z"/>
		<path style="fill:#313131;" d="M118.603,8.382L114.3,2.484v5.898h-1.446V0.136h1.483l4.216,5.711V0.136H120v8.246H118.603z"/>
		<path style="fill:#313131;" d="M0,23.206V14.96h1.446v6.973H5.08v1.272H0z"/>
		<path style="fill:#313131;" d="M6.91,23.206V14.96h1.446v6.973h3.635v1.272H6.91z"/>
		<path style="fill:#313131;" d="M13.27,19.09c0-2.548,1.891-4.266,4.327-4.266c1.657,0,2.695,0.853,3.301,1.843l-1.224,0.643
			c-0.395-0.692-1.199-1.199-2.076-1.199c-1.632,0-2.843,1.236-2.843,2.979c0,1.718,1.212,2.979,2.843,2.979
			c0.878,0,1.681-0.519,2.076-1.2l1.236,0.618c-0.631,0.989-1.656,1.867-3.313,1.867C15.161,23.354,13.27,21.623,13.27,19.09z"/>
	</g>
</g>
<g id="Layer_1">
</g>
</svg>
