<?xml version="1.0" encoding="utf-8"?>
<!-- Generator: Adobe Illustrator 18.1.1, SVG Export Plug-In . SVG Version: 6.00 Build 0)  -->
<svg version="1.1" id="Layer_1" xmlns="http://www.w3.org/2000/svg" xmlns:xlink="http://www.w3.org/1999/xlink" x="0px" y="0px"
	 width="210.4px" height="36px" viewBox="-334.2 343 210.4 36" enable-background="new -334.2 343 210.4 36" xml:space="preserve">
<g id="guides">
</g>
<g id="Layer_2">
	<g>
		<path fill="#231F20" d="M-139.2,357.1c2.1-7.6,3.8-14.1,3.8-14.1s-6.9,7.4-13.1,14.1c0,0-60.8,0-61.1,0c-0.4,0-0.4,0.2,0,0.2
			c0.2,0,60,1,60,1c-4.8,5.2-7.5,8-7.5,8.1c-0.2,0.2,0,0.3,0.2,0.1c0,0,3.5-3.3,8.5-8.2l7.6,0.1c-0.5,2.2-0.9,4.3-1.5,6.6
			c-9.4,5.1-24.6,13.2-24.6,13.2c-0.2,0.1-0.1,0.3,0,0.2c0.1,0,14.3-7.2,24.3-12.2c-1.7,7.4-2.8,12.6-2.8,12.6
			c0,0.2,0.1,0.2,0.1,0.1c0-0.1,1.5-5.2,3.6-13.1c8.9-4.5,17.7-8.6,17.7-8.6L-139.2,357.1L-139.2,357.1z M-147.2,357.1
			c4.6-4.6,8.4-8.2,8.4-8.2s-0.6,3.1-1.8,8.2H-147.2l7.6,1.4l9.2,0.1c0,0-4.6,2.6-10.8,5.9c0.6-2.1,1.1-4,1.6-6.1L-147.2,357.1
			L-147.2,357.1z"/>
		<polygon fill="#231F20" points="-332.7,361.7 -330,361.7 -331.1,366.7 -328.6,366.7 -329,368.5 -334.2,368.5 		"/>
		<path fill="#231F20" d="M-319.2,361.5c-2.4,0-3.9,1.5-4.3,3.6c-0.5,2.1,0.4,3.6,2.8,3.6c2.4,0,3.9-1.5,4.3-3.6
			C-316,363-316.8,361.5-319.2,361.5L-319.2,361.5z M-319.2,365.1c-0.3,1.6-0.7,1.8-1.1,1.8c-0.4,0-0.7-0.2-0.3-1.8
			c0.3-1.5,0.7-1.8,1.1-1.8C-319.1,363.3-318.9,363.6-319.2,365.1L-319.2,365.1z"/>
		<path fill="#231F20" d="M-305,366c-0.4,1.9-2.1,2.7-3.8,2.7c-2.4,0-3.2-1.5-2.7-3.6c0.4-2.1,2-3.6,4.3-3.6c1.7,0,3,0.7,2.6,2.7
			h-2.5c0.1-0.8-0.1-0.9-0.5-0.9c-0.7,0-0.9,0.7-1.2,1.8c-0.2,1.1-0.3,1.8,0.4,1.8c0.4,0,0.6-0.2,0.8-0.9L-305,366L-305,366z"/>
		<polygon fill="#231F20" points="-298.2,361.7 -295.6,361.7 -296.2,364.6 -296.2,364.6 -294.1,361.7 -291.3,361.7 -293.8,364.9 
			-292.5,368.5 -295.4,368.5 -296.4,365.5 -296.4,365.5 -297,368.5 -299.7,368.5 		"/>
		<polygon fill="#231F20" points="-282.7,366 -283.9,366 -284.4,368.5 -287.2,368.5 -285.7,361.7 -283,361.7 -283.5,364 -282.3,364 
			-281.8,361.7 -279.1,361.7 -280.6,368.5 -283.3,368.5 		"/>
		<polygon fill="#231F20" points="-273,361.7 -267.8,361.7 -268.1,363.5 -270.7,363.5 -270.9,364.2 -268.5,364.2 -268.9,366 
			-271.3,366 -271.4,366.7 -268.7,366.7 -269.1,368.5 -274.4,368.5 		"/>
		<polygon fill="#231F20" points="-261.5,361.7 -256.2,361.7 -256.6,363.5 -259.2,363.5 -259.4,364.2 -257,364.2 -257.3,366 
			-259.8,366 -259.9,366.7 -257.2,366.7 -257.6,368.5 -262.9,368.5 		"/>
		<path fill="#231F20" d="M-246.7,361.7h-3.2l-1.5,6.9h3.4c2.1,0,3.7-1.3,4.2-3.4C-243.4,363.1-244,361.7-246.7,361.7L-246.7,361.7z
			 M-246.6,365.1c-0.1,0.7-0.3,1.2-0.5,1.4c-0.2,0.3-0.5,0.4-1,0.4h-0.3l0.8-3.7h0.3c0.4,0,0.7,0.2,0.8,0.4
			C-246.4,364-246.5,364.4-246.6,365.1L-246.6,365.1z"/>
		<polygon fill="#231F20" points="-226,363.6 -226.1,363.6 -228.1,368.5 -230.6,368.5 -230.5,363.6 -230.5,363.6 -231.5,368.5 
			-233.8,368.5 -232.4,361.7 -228.6,361.7 -228.7,365.8 -228.7,365.8 -227.1,361.7 -223.3,361.7 -224.8,368.5 -227.1,368.5 		"/>
		<path fill="#231F20" d="M-212.3,361.7h-3.5l-3.7,6.9h2.6l0.5-1.1h2l0,1.1h2.8L-212.3,361.7L-212.3,361.7z M-214.5,365.8h-1.2
			l1.1-2.6h0L-214.5,365.8L-214.5,365.8z"/>
		<path fill="#231F20" d="M-200.2,361.7h-4.1l-1.5,6.9h2.7l0.5-2.4h0.3c0.4,0,0.6,0.1,0.5,0.5c0,0.6-0.1,1.5,0,2h2.7
			c-0.1-1,0.1-2,0.1-2.6c0-0.5-0.3-0.8-1-0.9l0,0c1.1-0.2,1.5-0.8,1.7-1.6C-198,362.1-198.7,361.7-200.2,361.7L-200.2,361.7z
			 M-200.9,363.8c-0.1,0.5-0.5,0.7-1.1,0.7h-0.2l0.3-1.3h0.2C-201.2,363.2-200.8,363.3-200.9,363.8L-200.9,363.8z"/>
		<polygon fill="#231F20" points="-190.7,363.5 -192.4,363.5 -192,361.7 -185.9,361.7 -186.3,363.5 -188,363.5 -189,368.5 
			-191.8,368.5 		"/>
		<polygon fill="#231F20" points="-179.9,361.7 -177.1,361.7 -178.6,368.5 -181.3,368.5 		"/>
		<polygon fill="#231F20" points="-170.6,361.7 -167.4,361.7 -166.8,365.8 -166.8,365.8 -165.9,361.7 -163.7,361.7 -165.1,368.5 
			-168.4,368.5 -169,364.4 -169,364.4 -169.9,368.5 -172.1,368.5 		"/>
	</g>
</g>
</svg>
