<?xml version="1.0" encoding="utf-8"?>
<!-- Generator: Adobe Illustrator 16.0.3, SVG Export Plug-In . SVG Version: 6.00 Build 0)  -->
<!DOCTYPE svg PUBLIC "-//W3C//DTD SVG 1.1//EN" "http://www.w3.org/Graphics/SVG/1.1/DTD/svg11.dtd">
<svg version="1.1" xmlns="http://www.w3.org/2000/svg" xmlns:xlink="http://www.w3.org/1999/xlink" x="0px" y="0px" width="250px"
	 height="100px" viewBox="0 0 250 100" enable-background="new 0 0 250 100" xml:space="preserve">
<g id="guides">
</g>
<g id="Layer_2">
	<g>
		<path fill-rule="evenodd" clip-rule="evenodd" fill="#231F20" d="M214.791,46.118C216.843,38.513,218.598,32,218.598,32
			s-6.868,7.401-13.107,14.118c0,0-60.831-0.025-61.128-0.025c-0.383,0.011-0.355,0.196-0.027,0.196
			c0.227-0.013,60.047,1.027,60.047,1.027c-4.807,5.174-7.459,8.042-7.528,8.11c-0.188,0.187-0.029,0.349,0.205,0.116
			c0,0,3.507-3.295,8.466-8.205l7.636,0.128c-0.499,2.178-0.932,4.272-1.465,6.608c-9.405,5.089-24.561,13.249-24.561,13.249
			c-0.214,0.109-0.147,0.257,0.036,0.174c0.098,0,14.278-7.228,24.261-12.233c-1.699,7.431-2.755,12.575-2.755,12.575
			c-0.008,0.197,0.149,0.209,0.149,0.059c0.044-0.061,1.504-5.246,3.631-13.132c8.924-4.472,17.742-8.647,17.742-8.647H214.791
			L214.791,46.118z M206.8,46.118c4.632-4.59,8.445-8.18,8.445-8.18s-0.635,3.134-1.789,8.18H206.8l7.617,1.367l9.208,0.136
			c0,0-4.627,2.558-10.837,5.916c0.565-2.095,1.069-3.972,1.629-6.052L206.8,46.118L206.8,46.118z"/>
		<polygon fill-rule="evenodd" clip-rule="evenodd" fill="#231F20" points="21.262,50.67 23.981,50.67 22.912,55.69 25.416,55.69 
			25.023,57.537 19.801,57.537 21.262,50.67 		"/>
		<path fill-rule="evenodd" clip-rule="evenodd" fill="#231F20" d="M34.791,50.489c-2.367,0-3.861,1.474-4.314,3.61
			c-0.455,2.144,0.408,3.615,2.779,3.615c2.367,0,3.861-1.472,4.314-3.615C38.025,51.963,37.16,50.489,34.791,50.489L34.791,50.489z
			 M34.756,54.1c-0.338,1.591-0.702,1.83-1.121,1.83c-0.418,0-0.682-0.239-0.344-1.83c0.329-1.546,0.682-1.823,1.119-1.823
			C34.85,52.276,35.085,52.554,34.756,54.1L34.756,54.1z"/>
		<path fill-rule="evenodd" clip-rule="evenodd" fill="#231F20" d="M48.979,54.996c-0.4,1.894-2.09,2.719-3.792,2.719
			c-2.405,0-3.208-1.462-2.743-3.641c0.388-2.14,1.97-3.585,4.289-3.585c1.73,0,3.047,0.702,2.629,2.719h-2.493
			c0.128-0.779-0.126-0.932-0.458-0.932c-0.703,0-0.925,0.723-1.16,1.823c-0.222,1.05-0.33,1.83,0.354,1.83
			c0.354,0,0.635-0.211,0.826-0.934H48.979L48.979,54.996z"/>
		<polygon fill-rule="evenodd" clip-rule="evenodd" fill="#231F20" points="55.771,50.67 58.436,50.67 57.809,53.617 57.826,53.617 
			59.853,50.67 62.725,50.67 60.201,53.902 61.521,57.537 58.572,57.537 57.649,54.456 57.629,54.456 56.977,57.537 54.311,57.537 
			55.771,50.67 		"/>
		<polygon fill-rule="evenodd" clip-rule="evenodd" fill="#231F20" points="71.261,55.007 70.102,55.007 69.563,57.537 
			66.844,57.537 68.302,50.67 71.023,50.67 70.529,52.988 71.689,52.988 72.184,50.67 74.903,50.67 73.444,57.537 70.725,57.537 
			71.261,55.007 		"/>
		<polygon fill-rule="evenodd" clip-rule="evenodd" fill="#231F20" points="81.023,50.67 86.246,50.67 85.865,52.457 83.252,52.457 
			83.095,53.188 85.511,53.188 85.13,54.977 82.716,54.977 82.552,55.747 85.251,55.747 84.872,57.537 79.564,57.537 81.023,50.67 
					"/>
		<polygon fill-rule="evenodd" clip-rule="evenodd" fill="#231F20" points="92.546,50.67 97.77,50.67 97.389,52.457 94.772,52.457 
			94.616,53.188 97.034,53.188 96.655,54.977 94.236,54.977 94.073,55.747 96.774,55.747 96.393,57.537 91.087,57.537 92.546,50.67 
					"/>
		<path fill-rule="evenodd" clip-rule="evenodd" fill="#231F20" d="M107.294,50.67h-3.225l-1.459,6.867h3.386
			c2.11,0,3.733-1.284,4.177-3.36C110.604,52.143,110.042,50.67,107.294,50.67L107.294,50.67z M107.373,54.1
			c-0.142,0.666-0.3,1.153-0.542,1.439c-0.231,0.274-0.523,0.437-0.959,0.437h-0.268l0.797-3.747h0.266
			c0.438,0,0.66,0.16,0.775,0.438C107.561,52.95,107.514,53.437,107.373,54.1L107.373,54.1z"/>
		<polygon fill-rule="evenodd" clip-rule="evenodd" fill="#231F20" points="127.966,52.631 127.946,52.631 125.935,57.537 
			123.442,57.537 123.513,52.631 123.497,52.631 122.452,57.537 120.151,57.537 121.611,50.67 125.385,50.67 125.269,54.76 
			125.288,54.76 126.908,50.67 130.685,50.67 129.226,57.537 126.923,57.537 127.966,52.631 		"/>
		<path fill-rule="evenodd" clip-rule="evenodd" fill="#231F20" d="M141.673,50.67h-3.527l-3.656,6.867h2.604l0.512-1.104h1.971
			l0.029,1.104h2.816L141.673,50.67L141.673,50.67z M139.528,54.76h-1.158l1.146-2.589h0.023L139.528,54.76L139.528,54.76z"/>
		<path fill-rule="evenodd" clip-rule="evenodd" fill="#231F20" d="M153.776,50.67h-4.059l-1.461,6.867h2.662l0.52-2.444h0.314
			c0.437,0,0.565,0.131,0.533,0.475c0,0.591-0.097,1.454-0.045,1.97h2.664c-0.096-1.036,0.104-2.01,0.082-2.598
			c0-0.523-0.299-0.817-0.952-0.875l0.003-0.02c1.08-0.248,1.539-0.846,1.708-1.636C156.022,51.115,155.251,50.67,153.776,50.67
			L153.776,50.67z M153.05,52.839c-0.11,0.515-0.527,0.694-1.053,0.694h-0.229l0.279-1.305h0.247
			C152.827,52.229,153.157,52.332,153.05,52.839L153.05,52.839z"/>
		<polygon fill-rule="evenodd" clip-rule="evenodd" fill="#231F20" points="163.299,52.512 161.605,52.512 161.997,50.67 
			168.104,50.67 167.714,52.512 166.021,52.512 164.951,57.537 162.231,57.537 163.299,52.512 		"/>
		<polygon fill-rule="evenodd" clip-rule="evenodd" fill="#231F20" points="174.149,50.67 176.87,50.67 175.41,57.537 
			172.69,57.537 174.149,50.67 		"/>
		<polygon fill-rule="evenodd" clip-rule="evenodd" fill="#231F20" points="183.372,50.67 186.632,50.67 187.204,54.825 
			187.226,54.825 188.108,50.67 190.315,50.67 188.853,57.537 185.594,57.537 185.026,53.354 185.009,53.354 184.12,57.537 
			181.911,57.537 183.372,50.67 		"/>
	</g>
</g>
</svg>
