<?xml version="1.0" encoding="utf-8"?>
<!-- Generator: Adobe Illustrator 18.1.1, SVG Export Plug-In . SVG Version: 6.00 Build 0)  -->
<svg version="1.1" id="Calque_1" xmlns="http://www.w3.org/2000/svg" xmlns:xlink="http://www.w3.org/1999/xlink" x="0px" y="0px"
	 width="3822.2px" height="602px" viewBox="0 0 3822.2 602" enable-background="new 0 0 3822.2 602" xml:space="preserve">
<g>
	<g>
		<path d="M1103.2,543V222l-125,239H927L802,222v321h-94.3V58.1h101.1L952.3,334l144.8-275.9h100.4V543H1103.2z"/>
		<path d="M1455.7,549.8c-28.7,0-54.6-4.9-77.9-14.7c-23.2-9.8-43-23.1-59.4-40c-16.4-16.8-29-36.4-37.9-58.7
			c-8.9-22.3-13.3-45.8-13.3-70.3c0-25.5,4.3-49.5,13-72.1c8.6-22.5,21.2-42.3,37.6-59.4c16.4-17.1,36.3-30.6,59.8-40.6
			c23.4-10,49.7-15,78.9-15c29.1,0,55.2,5,78.2,15c23,10,42.6,23.5,58.7,40.3c16.2,16.9,28.5,36.4,36.9,58.7
			c8.4,22.3,12.6,45.5,12.6,69.7c0,5.9-0.1,11.6-0.3,17.1c-0.2,5.5-0.8,10-1.7,13.7h-276.6c1.4,14.1,4.8,26.6,10.2,37.6
			c5.5,10.9,12.5,20.3,21.2,28c8.6,7.7,18.4,13.7,29.4,17.8c10.9,4.1,22.3,6.1,34.1,6.1c18.2,0,35.4-4.4,51.6-13.3
			c16.2-8.9,27.2-20.6,33.1-35.2l78.5,21.9c-13.2,27.3-34.3,49.8-63.2,67.3C1530.2,541.1,1495.7,549.8,1455.7,549.8z M1548.5,334
			c-2.3-26.9-12.2-48.4-29.7-64.5c-17.5-16.2-38.8-24.2-63.9-24.2c-12.3,0-23.8,2.2-34.5,6.5c-10.7,4.3-20.1,10.4-28.3,18.1
			c-8.2,7.7-14.9,17.1-20.1,28c-5.2,10.9-8.3,23-9.2,36.2H1548.5z"/>
		<path d="M1910.5,524.6c-12.3,5.5-27.4,10.9-45.4,16.4c-18,5.5-36.8,8.2-56.3,8.2c-12.8,0-24.7-1.6-35.9-4.8
			c-11.2-3.2-20.9-8.3-29.4-15.4c-8.4-7.1-15.1-16.2-20.1-27.3c-5-11.2-7.5-24.7-7.5-40.6V255.5h-46.4v-70.3h46.4V69h91.5v116.1
			h75.8v70.3h-75.8v174.8c0,12.8,3.4,21.8,10.2,27c6.8,5.2,15,7.9,24.6,7.9c9.6,0,18.9-1.6,28-4.8c9.1-3.2,16.4-5.9,21.9-8.2
			L1910.5,524.6z"/>
		<path d="M2054.6,549.8c-17.3,0-33.5-2.8-48.5-8.5c-15-5.7-28-13.7-38.9-23.9s-19.5-22.2-25.6-35.9c-6.1-13.7-9.2-28.7-9.2-45.1
			c0-16.8,3.8-32.4,11.3-46.8c7.5-14.3,18-26.5,31.4-36.5c13.4-10,29.5-17.9,48.2-23.6c18.7-5.7,39.2-8.5,61.5-8.5
			c15.9,0,31.5,1.4,46.8,4.1c15.3,2.7,28.8,6.6,40.6,11.6v-20.5c0-23.7-6.7-41.9-20.1-54.6c-13.4-12.7-33.4-19.1-59.8-19.1
			c-19.1,0-37.8,3.4-56,10.2c-18.2,6.8-36.9,16.9-56,30.1l-28-58.1c46-30.5,95.6-45.8,148.9-45.8c51.4,0,91.4,12.6,119.9,37.9
			c28.5,25.3,42.7,61.8,42.7,109.6v111.3c0,9.6,1.8,16.4,5.5,20.5c3.6,4.1,10,6.4,19.1,6.8V543c-8.7,1.8-16.7,3.1-24.2,3.8
			c-7.5,0.7-14,1-19.5,1c-17.3-0.5-30.5-4.4-39.6-12c-9.1-7.5-14.8-17.6-17.1-30.4l-2-19.8c-15.9,20.9-35.3,36.9-58.1,47.8
			C2105,544.4,2080.6,549.8,2054.6,549.8z M2080.6,482.9c15.5,0,30.2-2.7,44.1-8.2c13.9-5.5,24.7-12.7,32.4-21.9
			c10-7.7,15-16.4,15-26v-41c-10.9-4.1-22.8-7.4-35.5-9.9c-12.8-2.5-25-3.8-36.9-3.8c-23.7,0-43,5.4-58.1,16.1
			c-15,10.7-22.5,24.2-22.5,40.6c0,15.5,5.9,28.3,17.8,38.6C2048.7,477.8,2063.3,482.9,2080.6,482.9z"/>
		<path d="M2813.4,543V123.6l-191.2,327.2h-21.9l-191.2-327.2V543h-34.8V58.1h34.8l202.2,347l202.2-347h34.8V543H2813.4z"/>
		<path d="M2965.1,107.2V44.4h34.2v62.8H2965.1z M2965.1,543V187.8h34.2V543H2965.1z"/>
		<path d="M3394.7,543h-34.2V344.9c0-46-6.5-79.5-19.5-100.4c-13-20.9-33.8-31.4-62.5-31.4c-15,0-29.9,2.7-44.7,8.2
			c-14.8,5.5-28.5,13.2-41,23.2c-12.5,10-23.6,21.7-33.1,35.2c-9.6,13.4-16.6,27.9-21.2,43.4V543h-34.2V187.8h31.4v84.7
			c7.3-13.7,16.4-26.1,27.3-37.2c10.9-11.2,23-20.7,36.2-28.7c13.2-8,27.4-14.1,42.7-18.4c15.3-4.3,30.8-6.5,46.8-6.5
			c38.7,0,66,13.6,82,40.6c15.9,27.1,23.9,65.9,23.9,116.5V543z"/>
		<path d="M3642.6,549.8c-24.6,0-47.4-5.1-68.3-15.4c-20.9-10.2-39-23.9-54.3-41c-15.3-17.1-27.1-36.6-35.5-58.7
			c-8.4-22.1-12.6-45-12.6-68.6c0-24.6,4.1-48,12.3-70.3c8.2-22.3,19.6-41.9,34.1-58.7c14.6-16.8,31.8-30.3,51.6-40.3
			c19.8-10,41.5-15,65.2-15c15.5,0,30.2,2.3,44.1,6.8c13.9,4.6,26.6,10.6,38.2,18.1c11.6,7.5,22.2,16.3,31.8,26.3
			c9.6,10,17.8,20.7,24.6,32.1V44.4h34.1v450.8c0,11.4,4.8,17.1,14.3,17.1V543c-2.3,0.4-4.3,0.7-6.1,0.7c-1.8,0-3.6,0-5.5,0
			c-10,0-18.1-3.2-24.2-9.6c-6.1-6.4-9.2-13.4-9.2-21.2v-41c-14.6,23.7-34,42.6-58.4,56.7C3694.4,542.8,3669,549.8,3642.6,549.8z
			 M3648.7,519.1c12.3,0,25.5-2.5,39.6-7.5c14.1-5,27.3-12,39.6-20.8c12.3-8.9,22.6-19,31.1-30.4c8.4-11.4,13.3-23.7,14.7-36.9
			V306.7c-5-12.7-12.2-24.9-21.5-36.5c-9.3-11.6-19.9-21.6-31.8-30.1c-11.8-8.4-24.6-15.1-38.2-20.1c-13.7-5-26.9-7.5-39.6-7.5
			c-20.5,0-39,4.4-55.7,13.3c-16.6,8.9-31,20.5-43,34.8c-12.1,14.3-21.3,30.7-27.7,49.2c-6.4,18.4-9.6,37.5-9.6,57
			c0,20.5,3.6,39.8,10.9,58.1c7.3,18.2,17.4,34.4,30.4,48.5c13,14.1,28,25.3,45.1,33.5C3610.2,515,3628.7,519.1,3648.7,519.1z"/>
	</g>
	<g>
		<g>
			<circle fill="#3F83B9" cx="301" cy="301" r="301"/>
		</g>
		<g>
			<path fill="#1A1B26" d="M429.9,176.9c-6.5,5.2-11.8,11.9-15.4,19.4c-1.2-0.3-2.5-0.8-3.7-1.5l-65.4-29.3
				c-4.6-0.6-35.2-2.9-35.2,25.8v72c0-1.9-6.1-3-12.5-3c-6.4,0-12.5,1.1-12.5,3v-72c0-25.2-22.9-26.4-30.9-26l-62.8,29.5
				c-1,0.6-2.5,1-3.5,1.3c-3.7-7.7-9.3-14.4-16-19.6c1.1-1.8,2.4-3.3,4.4-4.5l82-48.6c0,0.9-0.1,1.7-0.1,2.6
				c0,22.3,18.6,40.4,41.5,40.4c22.9,0,41.5-18.1,41.5-40.4c0-1.3,0-2.5-0.2-3.8l84,49.8C427.2,173.3,428.7,175,429.9,176.9z"/>
		</g>
		<g>
			<g>
				<path fill="#1A1B26" d="M332.1,126.1c0,17.3-14.5,31.5-32.4,31.5s-32.3-14.1-32.3-31.5c0-3,0.5-6,1.3-8.8
					c3.2-10.7,12-19,23.1-21.7c2.5-0.7,5.2-1,7.9-1s5.4,0.3,8,1c10.6,2.6,19.2,10.3,22.6,20.3C331.5,119.1,332.1,122.5,332.1,126.1z
					"/>
			</g>
		</g>
		<g>
			<circle fill="#FFFFFF" cx="463.4" cy="219.9" r="36.6"/>
		</g>
		<g>
			<circle fill="#FFFFFF" cx="136.1" cy="219.9" r="36.6"/>
		</g>
		<g>
			<circle fill="#FFFFFF" cx="136.1" cy="405" r="36.6"/>
		</g>
		<g>
			<circle fill="#FFFFFF" cx="463.4" cy="405" r="36.6"/>
		</g>
		<g>
			<circle fill="#FFFFFF" cx="299" cy="447.3" r="36.6"/>
		</g>
		<g>
			<circle fill="#FFFFFF" cx="299.8" cy="315.6" r="36.6"/>
		</g>
		<g>
			<rect x="128.3" y="219.9" fill="#FFFFFF" width="15.6" height="185.1"/>
		</g>
		<g>
			<rect x="455.6" y="219.9" fill="#FFFFFF" width="15.6" height="185.1"/>
		</g>
		<g>
			<rect x="288" y="315.6" fill="#FFFFFF" width="23.4" height="137.4"/>
		</g>
		<g>
			
				<rect x="373.8" y="172.9" transform="matrix(0.505 0.8631 -0.8631 0.505 419.9788 -196.8204)" fill="#FFFFFF" width="15.6" height="189.6"/>
		</g>
		<g>
			
				<rect x="123.2" y="259.9" transform="matrix(0.8648 0.502 -0.502 0.8648 163.9559 -73.5274)" fill="#FFFFFF" width="190.7" height="15.6"/>
		</g>
	</g>
</g>
</svg>
