<?xml version="1.0" encoding="utf-8"?>
<!-- Generator: Adobe Illustrator 18.1.1, SVG Export Plug-In . SVG Version: 6.00 Build 0)  -->
<svg version="1.1" id="Layer_1" xmlns="http://www.w3.org/2000/svg" xmlns:xlink="http://www.w3.org/1999/xlink" x="0px" y="0px"
	 width="196.7px" height="42px" viewBox="-339.3 340 196.7 42" enable-background="new -339.3 340 196.7 42" xml:space="preserve">
<g id="guides">
</g>
<g id="Layer_2">
	<g>
		<path fill="#F25022" d="M-339.3,340h20c0,6.7,0,13.3,0,20c-6.7,0-13.3,0-20,0V340L-339.3,340z"/>
		<path fill="#80BA01" d="M-317.3,340h20c0,6.7,0,13.3,0,20c-6.7,0-13.3,0-20,0C-317.3,353.3-317.3,346.7-317.3,340L-317.3,340z"/>
		<path fill="#777777" d="M-251.7,347.9c0.9-0.1,1.8,0.2,2.4,0.8c0.7,0.7,0.8,1.9,0.3,2.8c-0.6,1-1.8,1.4-2.9,1.2
			c-1.1-0.2-2.1-1.2-2-2.4C-253.9,349.1-252.9,348-251.7,347.9L-251.7,347.9z"/>
		<path fill="#777777" d="M-284.8,348.4c2.1,0,4.2,0,6.3,0c2,5,3.9,9.9,5.9,14.9c0.5,1.2,1,2.5,1.5,3.7c2.5-6.2,5.1-12.4,7.6-18.6
			c2,0,4,0,6,0c0,8.4,0,16.8,0,25.2c-1.5,0-2.9,0-4.4,0c0-6.2,0-12.4,0-18.6c0-0.3,0-0.6,0-0.8c-0.1,0.1-0.2,0.3-0.2,0.4
			c-2.5,6.3-5,12.7-7.5,19c-1,0-2.1,0-3.1,0c-2.6-6.3-5.1-12.7-7.7-19.1c-0.1-0.1-0.1-0.3-0.2-0.4c-0.1,2.7,0,5.4,0,8.1
			c0,3.8,0,7.5,0,11.3c-1.4,0-2.7,0-4.1,0C-284.8,365.2-284.8,356.8-284.8,348.4L-284.8,348.4z"/>
		<path fill="#777777" d="M-239.8,355.5c2.1-0.6,4.3-0.6,6.4,0c0.4,0.1,0.8,0.3,1.2,0.5c0,1.4,0,2.8,0,4.1c-1.4-1.1-3.2-1.7-4.9-1.5
			c-1.4,0.1-2.7,0.9-3.6,2c-1.1,1.4-1.3,3.3-1.1,5c0.1,1.3,0.7,2.7,1.7,3.6c1.1,1,2.6,1.3,4,1.2c1.4-0.2,2.7-0.8,3.9-1.6
			c0,1.3,0,2.6,0,3.9c-1.8,1.1-3.9,1.3-5.9,1.2c-2.1-0.1-4.1-0.9-5.6-2.3c-1.6-1.6-2.5-3.8-2.6-6c-0.1-2.3,0.4-4.8,1.7-6.7
			C-243.5,357.2-241.7,356.1-239.8,355.5L-239.8,355.5z"/>
		<path fill="#777777" d="M-192.6,355.2c2-0.4,4.1-0.1,6,0.6c0,1.3,0,2.6,0,4c-1.3-0.9-2.9-1.4-4.5-1.3c-0.8,0-1.7,0.4-2.1,1.1
			c-0.3,0.8-0.1,1.8,0.6,2.2c1.2,0.8,2.7,1.2,4,1.9c1,0.6,2,1.3,2.5,2.4c1,2,0.5,4.6-1.1,6.1c-1.6,1.5-3.9,1.9-6,1.8
			c-1.5-0.1-3-0.4-4.4-1c0-1.4,0-2.8,0-4.2c1.2,0.8,2.5,1.4,3.9,1.7c1,0.2,2.1,0.2,3-0.3c0.9-0.4,1-1.7,0.5-2.5
			c-0.5-0.6-1.2-0.9-1.9-1.2c-1.3-0.6-2.6-1.1-3.7-1.9c-0.8-0.6-1.4-1.5-1.6-2.5c-0.3-1.4-0.2-3.1,0.6-4.3
			C-195.9,356.4-194.3,355.5-192.6,355.2L-192.6,355.2z"/>
		<path fill="#777777" d="M-222.5,355.8c1.2-0.7,2.7-0.8,4-0.3c0,1.4,0,2.9,0,4.3c-0.9-0.6-1.9-0.8-2.9-0.7
			c-1.2,0.1-2.2,1.1-2.7,2.2c-0.5,1.1-0.6,2.4-0.6,3.7c0,2.9,0,5.8,0,8.6c-1.4,0-2.8,0-4.3,0c0-6,0-12,0-18.1c1.4,0,2.8,0,4.3,0
			c0,1,0,2.1,0,3.1C-224.3,357.5-223.6,356.4-222.5,355.8L-222.5,355.8z"/>
		<path fill="#777777" d="M-253.5,355.5c1.4,0,2.9,0,4.3,0c0,6,0,12,0,18c-1.4,0-2.9,0-4.3,0C-253.5,367.6-253.5,361.6-253.5,355.5
			L-253.5,355.5z"/>
		<path fill="#777777" d="M-200.6,359.8c-0.8-1.7-2.1-3.1-3.8-3.8c-1.9-0.9-4.1-1-6.2-0.7c-2.2,0.3-4.3,1.3-5.7,3
			c-1.3,1.5-1.9,3.5-2,5.5c-0.2,2.3,0.2,4.8,1.6,6.7c1.2,1.7,3,2.8,5,3.3c1.7,0.4,3.4,0.4,5.1,0c1.9-0.4,3.8-1.5,5-3.1
			c1.2-1.5,1.8-3.4,1.9-5.3C-199.6,363.5-199.8,361.5-200.6,359.8z M-204.7,368c-0.4,0.9-1.2,1.7-2.1,2.1c-1.1,0.4-2.4,0.5-3.5,0.2
			c-1.2-0.3-2.2-1.2-2.7-2.2c-0.7-1.4-0.8-3-0.7-4.5c0.1-1.4,0.6-2.8,1.7-3.8c0.8-0.7,1.8-1.1,2.8-1.1c1.3-0.1,2.7,0.3,3.6,1.2
			c1,1,1.4,2.4,1.5,3.8C-204,365.1-204.1,366.7-204.7,368z"/>
		<path fill="#777777" d="M-165.9,360.3c-0.7-1.8-2-3.3-3.7-4.2c-2-1-4.3-1.1-6.4-0.9c-1.7,0.2-3.4,0.9-4.8,2
			c-1.6,1.4-2.6,3.4-2.9,5.5c-0.3,2.1-0.2,4.3,0.7,6.3c0.8,1.9,2.4,3.5,4.4,4.3c1.9,0.8,4.1,0.8,6.1,0.5c2.1-0.3,4-1.4,5.3-3.1
			c1.4-1.7,2-4,2-6.2C-165.2,363.1-165.4,361.6-165.9,360.3z M-169.8,366.4c-0.2,1-0.5,1.9-1.1,2.6c-0.6,0.8-1.6,1.2-2.5,1.4
			c-1,0.2-2.1,0.1-3.1-0.3c-1-0.4-1.9-1.3-2.3-2.4c-0.5-1.2-0.6-2.6-0.5-3.9c0.1-1.3,0.5-2.6,1.3-3.6c0.8-0.9,2-1.4,3.2-1.5
			c1.2-0.1,2.5,0.2,3.5,1c0.9,0.7,1.3,1.8,1.6,2.9C-169.6,363.8-169.6,365.1-169.8,366.4z"/>
		<path fill="#777777" d="M-142.7,359v-3.5c-1.4,0-2.9,0-4.3,0c0-1.8,0-3.6,0-5.4c-1.4,0.4-2.8,0.9-4.3,1.3c0,1.4,0,2.7,0,4.1
			c-2.1,0-4.2,0-6.3,0c0-1.1-0.1-2.2,0.1-3.2c0.1-0.8,0.6-1.7,1.4-2c1-0.4,2.2-0.1,3.2,0.3c0-1.2,0-2.5,0-3.7
			c-2.1-0.6-4.5-0.5-6.3,0.7c-1.2,0.8-2,2-2.4,3.3c-0.5,1.5-0.2,3.1-0.3,4.6c-1,0-2,0-3,0c0,1.2,0,2.3,0,3.5c1,0,2,0,3,0
			c0,4.9,0,9.7,0,14.6c1.4,0,2.9,0,4.3,0c0-4.9,0-9.7,0-14.6c2.1,0,4.2,0,6.3,0c0,3.1,0,6.2,0,9.3c0,1.4,0.3,3,1.2,4.1
			c0.8,1,2.1,1.5,3.4,1.6c1.3,0.1,2.7-0.1,4-0.6v-3.5c-0.9,0.6-2.3,0.9-3.3,0.3c-0.6-0.3-0.9-1.1-0.9-1.7c-0.1-1.1,0-2.2-0.1-3.4
			c0-2,0-4,0-6.1C-145.5,359-144.1,359-142.7,359z"/>
		<path fill="#02A4EF" d="M-339.3,362c6.7,0,13.3,0,20,0c0,6.7,0,13.3,0,20h-20V362L-339.3,362z"/>
		<path fill="#FFB902" d="M-317.3,362c6.7,0,13.3,0,20,0c0,6.7,0,13.3,0,20h-20C-317.3,375.3-317.3,368.7-317.3,362L-317.3,362z"/>
	</g>
</g>
</svg>
