<?xml version="1.0" encoding="utf-8"?>
<!-- Generator: Adobe Illustrator 16.0.3, SVG Export Plug-In . SVG Version: 6.00 Build 0)  -->
<!DOCTYPE svg PUBLIC "-//W3C//DTD SVG 1.1//EN" "http://www.w3.org/Graphics/SVG/1.1/DTD/svg11.dtd">
<svg version="1.1" xmlns="http://www.w3.org/2000/svg" xmlns:xlink="http://www.w3.org/1999/xlink" x="0px" y="0px" width="238px"
	 height="100px" viewBox="0 0 238 100" enable-background="new 0 0 238 100" xml:space="preserve">
<g id="guides">
</g>
<g id="Layer_2">
	<g>
		<path fill="#F25022" d="M20.66,29h19.979c0,6.66,0,13.32,0,19.979c-6.658,0-13.318,0-19.979,0V29L20.66,29z"/>
		<path fill="#80BA01" d="M42.68,29h19.98c0,6.66,0,13.32-0.002,19.979c-6.658-0.001-13.318,0-19.977,0
			C42.68,42.32,42.68,35.66,42.68,29L42.68,29z"/>
		<path fill="#777777" d="M108.316,36.865c0.871-0.133,1.814,0.165,2.391,0.847c0.676,0.746,0.803,1.935,0.301,2.807
			c-0.555,0.984-1.795,1.441-2.877,1.205c-1.123-0.202-2.057-1.244-2.006-2.407C106.092,38.092,107.117,37.002,108.316,36.865
			L108.316,36.865z"/>
		<path fill="#777777" d="M75.201,37.399c2.094,0,4.189,0,6.281,0c1.957,4.968,3.928,9.93,5.887,14.896
			c0.5,1.241,0.969,2.499,1.492,3.729c2.516-6.206,5.07-12.396,7.564-18.611c2.018-0.031,4.033-0.007,6.049-0.011
			c-0.004,8.397-0.002,16.797-0.002,25.195c-1.453-0.003-2.906,0.013-4.359-0.008c0.016-6.198-0.002-12.396,0.006-18.596
			c0.004-0.279-0.006-0.557-0.025-0.835c-0.086,0.13-0.162,0.264-0.227,0.404c-2.498,6.344-5.043,12.67-7.525,19.021
			c-1.035,0.038-2.07,0.002-3.107,0.019c-2.574-6.345-5.119-12.703-7.682-19.053c-0.066-0.131-0.141-0.26-0.219-0.384
			c-0.053,2.715-0.008,5.435-0.021,8.149c0,3.76-0.004,7.521,0,11.282c-1.371,0.003-2.742,0-4.111,0.002
			C75.199,54.2,75.197,45.8,75.201,37.399L75.201,37.399z"/>
		<path fill="#777777" d="M120.209,44.521c2.084-0.593,4.334-0.57,6.418,0.02c0.43,0.12,0.848,0.287,1.232,0.514
			c-0.023,1.377,0,2.754-0.014,4.132c-1.393-1.064-3.16-1.739-4.932-1.516c-1.406,0.128-2.748,0.856-3.59,1.992
			c-1.082,1.41-1.33,3.28-1.145,5.003c0.139,1.35,0.697,2.697,1.748,3.592c1.088,0.967,2.615,1.311,4.041,1.203
			c1.408-0.161,2.738-0.759,3.877-1.591c0.012,1.304-0.006,2.608,0.01,3.911c-1.766,1.053-3.885,1.324-5.906,1.225
			c-2.068-0.109-4.131-0.893-5.631-2.347c-1.625-1.569-2.508-3.806-2.613-6.046c-0.105-2.33,0.369-4.76,1.711-6.705
			C116.537,46.248,118.295,45.074,120.209,44.521L120.209,44.521z"/>
		<path fill="#777777" d="M167.41,44.248c1.998-0.353,4.09-0.094,5.982,0.621c0,1.326,0,2.649,0,3.973
			c-1.322-0.909-2.936-1.396-4.539-1.34c-0.807,0.03-1.695,0.372-2.064,1.141c-0.293,0.76-0.09,1.757,0.627,2.21
			c1.225,0.819,2.688,1.167,3.957,1.902c1,0.563,1.969,1.296,2.477,2.354c0.951,1.982,0.547,4.602-1.125,6.081
			c-1.598,1.493-3.898,1.904-6.014,1.826c-1.502-0.098-3.012-0.394-4.393-1.009c0.006-1.394-0.01-2.784,0.006-4.178
			c1.162,0.845,2.502,1.449,3.922,1.692c0.986,0.161,2.061,0.168,2.982-0.272c0.879-0.438,1.037-1.689,0.514-2.455
			c-0.488-0.592-1.209-0.916-1.887-1.235c-1.271-0.572-2.611-1.052-3.729-1.909c-0.785-0.613-1.383-1.478-1.613-2.451
			c-0.346-1.437-0.238-3.055,0.598-4.312C164.064,45.426,165.723,44.549,167.41,44.248L167.41,44.248z"/>
		<path fill="#777777" d="M137.523,44.815c1.189-0.717,2.707-0.776,4.008-0.337c-0.006,1.44,0,2.881-0.002,4.322
			c-0.854-0.551-1.914-0.788-2.922-0.687c-1.227,0.14-2.197,1.082-2.703,2.163c-0.547,1.142-0.65,2.436-0.615,3.686
			c0,2.88,0.002,5.758,0,8.638c-1.42,0-2.84,0-4.26,0c-0.004-6.018,0.006-12.036-0.004-18.052c1.424-0.02,2.844-0.011,4.268-0.004
			c-0.008,1.034,0,2.066-0.004,3.101C135.75,46.521,136.438,45.43,137.523,44.815L137.523,44.815z"/>
		<path fill="#777777" d="M106.516,44.545c1.436-0.006,2.867-0.021,4.301,0.007c-0.016,6.016,0,12.032-0.008,18.049
			c-1.43,0-2.861,0-4.289,0C106.516,56.582,106.521,50.564,106.516,44.545L106.516,44.545z"/>
		<path fill="#777777" d="M159.445,48.756c-0.75-1.668-2.104-3.062-3.775-3.815c-1.924-0.876-4.111-0.993-6.186-0.729
			c-2.178,0.274-4.299,1.299-5.68,3.036c-1.264,1.549-1.877,3.541-1.994,5.518c-0.176,2.33,0.213,4.802,1.58,6.746
			c1.168,1.677,3.006,2.83,4.994,3.254c1.66,0.35,3.398,0.351,5.059,0.007c1.943-0.401,3.756-1.476,4.961-3.062
			c1.176-1.494,1.768-3.378,1.898-5.26C160.438,52.526,160.246,50.532,159.445,48.756z M155.27,57.045
			c-0.41,0.929-1.168,1.714-2.123,2.085c-1.115,0.431-2.367,0.454-3.521,0.156c-1.17-0.309-2.166-1.155-2.709-2.235
			c-0.695-1.39-0.799-2.995-0.656-4.52c0.133-1.387,0.615-2.812,1.67-3.769c0.766-0.715,1.811-1.063,2.842-1.122
			c1.299-0.085,2.682,0.283,3.617,1.228c0.998,0.981,1.383,2.404,1.49,3.764C155.955,54.118,155.895,55.667,155.27,57.045z"/>
		<path fill="#777777" d="M194.051,49.278c-0.664-1.794-1.996-3.344-3.713-4.201c-1.967-0.993-4.256-1.139-6.412-0.871
			c-1.74,0.223-3.447,0.882-4.775,2.048c-1.619,1.395-2.57,3.448-2.85,5.547c-0.268,2.1-0.176,4.309,0.68,6.272
			c0.82,1.928,2.441,3.492,4.389,4.259c1.924,0.757,4.061,0.844,6.086,0.516c2.07-0.342,4.031-1.431,5.313-3.106
			c1.369-1.729,1.959-3.968,1.955-6.151C194.754,52.129,194.57,50.649,194.051,49.278z M190.154,55.4
			c-0.166,0.95-0.494,1.896-1.119,2.649c-0.625,0.758-1.561,1.219-2.523,1.359c-1.033,0.154-2.123,0.081-3.092-0.335
			c-1.043-0.443-1.852-1.347-2.277-2.385c-0.512-1.238-0.615-2.611-0.512-3.937c0.098-1.281,0.461-2.599,1.307-3.595
			c0.773-0.932,1.961-1.446,3.154-1.514c1.221-0.085,2.523,0.197,3.463,1.021c0.865,0.718,1.342,1.792,1.563,2.875
			C190.365,52.811,190.363,54.125,190.154,55.4z"/>
		<path fill="#777777" d="M217.34,48.048v-3.509c-1.426,0.005-2.85-0.011-4.275,0.01c-0.031-1.805-0.004-3.608-0.016-5.409
			c-1.426,0.429-2.844,0.887-4.275,1.294c-0.035,1.367-0.004,2.737-0.02,4.105c-2.105-0.001-4.215,0.002-6.32-0.003
			c0.025-1.077-0.074-2.164,0.08-3.235c0.129-0.844,0.619-1.688,1.441-2.016c1.039-0.426,2.199-0.144,3.184,0.292
			c-0.004-1.235,0.01-2.47-0.008-3.703c-2.074-0.571-4.455-0.459-6.297,0.738c-1.188,0.762-2.049,1.979-2.438,3.327
			c-0.457,1.493-0.225,3.071-0.299,4.605c-0.998-0.007-1.996-0.017-2.994,0.005c0.012,1.155,0.006,2.31,0.002,3.463
			c1.002,0.02,2.006-0.003,3.008,0.015c-0.01,4.859-0.002,9.715-0.002,14.573c1.439,0,2.881,0,4.32,0c0-4.858,0-9.72,0.002-14.578
			c2.105-0.001,4.215-0.001,6.324-0.001c0.006,3.098-0.006,6.193,0.004,9.289c0.02,1.443,0.266,2.985,1.221,4.124
			c0.826,1.009,2.139,1.469,3.406,1.563c1.336,0.095,2.717-0.068,3.951-0.606V58.85c-0.947,0.634-2.256,0.885-3.285,0.307
			c-0.617-0.339-0.855-1.066-0.934-1.723c-0.133-1.113-0.047-2.236-0.072-3.354c0-2.02,0.006-4.035-0.002-6.053
			C214.479,48.032,215.91,47.989,217.34,48.048z"/>
		<path fill="#02A4EF" d="M20.66,51.019c6.66,0.003,13.32-0.002,19.979,0.003c0.002,6.658,0,13.318,0,19.979H20.66V51.019
			L20.66,51.019z"/>
		<path fill="#FFB902" d="M42.682,51.021C49.34,51.019,56,51.021,62.66,51.021c0,6.659,0,13.319,0,19.979H42.68
			C42.682,64.34,42.68,57.68,42.682,51.021L42.682,51.021z"/>
	</g>
</g>
</svg>
