<?xml version="1.0" encoding="utf-8"?>
<!-- Generator: Adobe Illustrator 18.1.1, SVG Export Plug-In . SVG Version: 6.00 Build 0)  -->
<svg version="1.1" id="Layer_2" xmlns="http://www.w3.org/2000/svg" xmlns:xlink="http://www.w3.org/1999/xlink" x="0px" y="0px"
	 viewBox="0 0 612 219" enable-background="new 0 0 612 219" xml:space="preserve">
<g>
	<g>
		<path d="M221.1,148.6c-8.3,0-15.8,0-24,0c0-29.3,0-58.3,0-88.5c-1.7,1.6-2.7,2.4-3.5,3.3c-23.1,27.2-46.2,54.3-69.2,81.5
			c-6.6,7.7-13.9,7.7-20.5-0.2c-22.8-26.8-45.5-53.6-68.3-80.3c-0.9-1.1-1.9-2.1-3.9-4.2c0,30.3,0,59.3,0,88.5c-8.4,0-16,0-24.2,0
			c-0.1-1.8-0.2-3.6-0.2-5.3c0-37.8,0-75.6,0-113.5c0-8.2,2.3-12.4,7.6-14.3c5.7-2,11.3,0,16.3,5.8c26.4,30.9,52.7,61.9,79.1,92.8
			c1.2,1.4,2.4,2.7,4,4.5c1.5-1.6,2.8-3,4-4.5c26.2-30.8,52.5-61.6,78.7-92.5c0.9-1,1.7-2.1,2.7-3c4-3.8,10.1-5,14.8-2.9
			c5.1,2.3,6.7,6.6,6.7,11.8c0,13.3,0,26.7,0,40c0,25,0,50,0,75C221.1,144.4,221.1,146.3,221.1,148.6z"/>
		<path d="M396.1,151.1c-7.9-11.5-15.3-22.5-23-33.3c-0.9-1.2-3.4-1.7-5.2-1.7c-22.7-0.1-45.3-0.1-69.1-0.1
			c4.4-6.6,8.2-12.6,12.4-18.4c0.7-1,3-1,4.6-1c12.2-0.1,24.3,0,36.5,0c1.8,0,3.6,0,6.6,0c-11.6-17.2-22.7-33.5-34.1-50.4
			c-5.6,8.3-10.8,15.9-15.9,23.6c-17.2,25.6-34.4,51.1-51.5,76.7c-1.8,2.7-3.5,3.8-6.8,3.7c-8.6-0.3-17.2-0.1-26.8-0.1
			c6-8.8,11.4-16.8,16.9-24.9c23.6-34.7,47.3-69.3,71-104C320,9,331.3,8.8,339.7,21c26.6,38.5,53.2,77,79.8,115.5
			C423.9,142.7,386.8,155.9,396.1,151.1z"/>
		<path d="M12.7,184.7c-2,5.3-3,10.8-4.3,15.7c-0.1,0.3-2.9,0.3-4.2,0.2c1.6-6.8,3.5-14.5,5.4-21.2c0.3-1,1.8-2.4,2.4-2.3
			c1.1,0.2,2,1.1,2.5,2.1c2.2,4.5,4.1,9,6.5,14.6c2.3-5.1,4.1-9.5,6.2-13.7c0.6-1.2,1.3-2.4,2.9-2.8c1.5,0.6,2.2,1.5,2.5,3.2
			c1.1,6.5,3.6,13.7,5.3,20.1c-1.6,0.1-3,0.1-4.6-0.1c-0.8-3.3-1.2-7-4-15.9c-2.1,4.8-3.6,8.7-5.4,12.4c-0.6,1.3-1.4,3.7-3.2,3.6
			c-2-0.1-2-2.4-2.6-3.6C16.1,193.4,14.5,188.9,12.7,184.7z"/>
		<path d="M349.2,200.2c-8.5,0-12.8-3-13.9-9.8c-1.2-7.1,3.4-12.9,10.6-13.4c1.8-0.1,3.7-0.1,5.5,0c7.7,0.2,12,4.4,11.9,11.6
			c-0.1,7.2-4.5,11.4-12.1,11.5C350.5,200.2,349.8,200.2,349.2,200.2z M349.2,196c6.3,0,9.4-2.1,9.8-6.7c0.4-4.8-2.8-7.9-8.5-8.1
			c-7.3-0.3-11.3,2.4-11.1,7.5C339.5,193.5,342.9,196,349.2,196z"/>
		<path d="M463.7,200.2c-9.1,0-13.8-4.1-13.7-11.9c0.1-6.3,4-10.7,10.4-11.2c1.8-0.1,3.7-0.1,5.5,0c7.7,0.1,12.3,4.4,12.3,11.3
			c0,7.2-4.7,11.7-12.4,11.8C465,200.2,464.3,200.2,463.7,200.2z M463.7,196c6.8,0,10.2-2.6,10.2-7.5c-0.1-4.9-3.4-7.3-9.9-7.3
			c-6.5,0-9.8,2.4-9.8,7.3C454.1,193.4,457.4,196,463.7,196z"/>
		<path d="M49.2,200.6c0-7.8,0-15.5,0-23.3c5.2,0,10.5-0.5,15.7,0.1c5.9,0.8,8.8,5.7,8.4,12.2c-0.4,5.9-4.3,10.6-10.1,10.9
			C58.7,200.8,54.2,200.6,49.2,200.6z M53.3,181.3c0,5,0,9.7,0,14.7c5.4-0.8,11.5,2.3,14.7-3.9c1.1-2.1,0.6-5.7-0.4-7.8
			C65.6,180.2,58.5,181.5,53.3,181.3z"/>
		<path d="M509.8,200.6c0-7.8,0-15.5,0-23.3c5.2,0,10.5-0.5,15.7,0.1c5.9,0.8,8.8,5.7,8.4,12.2c-0.4,5.9-4.3,10.6-10.1,10.9
			C519.4,200.8,514.9,200.6,509.8,200.6z M514,181.3c0,5,0,9.7,0,14.7c5.4-0.8,11.5,2.3,14.7-3.9c1.1-2.1,0.6-5.7-0.4-7.8
			C526.2,180.2,519.1,181.5,514,181.3z"/>
		<path d="M112,200.6c-3.1,0-3.8,0.2-4.8,0c-2.4-4.4-3.3-5.3-3.6-5.8c-2.9,0.1-9.6,0.1-10.1-0.1c-0.1-0.5,1.3-2.5,1.5-3
			c2.4-0.2,3.3,0,6.7-0.3c-1.1-1.9-3.3-5.4-4.7-7.8c-5.7,6.6-7.1,12-10.6,17c-0.9,0-4.4,0.3-4.8-0.1c4.2-6.9,8.5-15.1,12.8-22
			c1.6-2.7,3.4-2.2,4.9,0.2C103.3,185.6,107.1,192.4,112,200.6z"/>
		<path d="M184.7,200.6c-3.1,0-3.8,0.2-4.8,0c-2.4-4.4-3.3-5.3-3.6-5.8c-2.9,0.1-9.6,0.1-10.1-0.1c-0.1-0.5,1.3-2.5,1.5-3
			c2.4-0.2,3.3,0,6.7-0.3c-1.1-1.9-3.3-5.4-4.7-7.8c-5.7,6.6-7.1,12-10.6,17c-0.9,0-4.4,0.3-4.8-0.1c4.2-6.9,8.5-15.1,12.8-22
			c1.6-2.7,3.4-2.2,4.9,0.2C176.1,185.6,179.8,192.4,184.7,200.6z"/>
		<path d="M507.5,200.6c-3.1,0-3.8,0.2-4.8,0c-2.4-4.4-3.3-5.3-3.6-5.8c-2.9,0.1-9.6,0.1-10.1-0.1c-0.1-0.5,1.3-2.5,1.5-3
			c2.4-0.2,3.3,0,6.7-0.3c-1.1-1.9-3.3-5.4-4.7-7.8c-5.7,6.6-7.1,12-10.6,17c-0.9,0-4.4,0.3-4.8-0.1c4.2-6.9,8.5-15.1,12.8-22
			c1.6-2.7,3.4-2.2,4.9,0.2C498.9,185.6,502.6,192.4,507.5,200.6z"/>
		<rect x="40.1" y="177.8" width="4.9" height="22.8"/>
		<rect x="237.8" y="177.8" width="4.9" height="22.8"/>
		<rect x="75" y="187.8" width="8.9" height="2.8"/>
		<polygon points="130.9,177.9 109.2,177.9 109.2,182.5 118.1,182.5 118.1,200.6 122.4,200.6 122.4,182.5 130.9,182.5 		"/>
		<polygon points="234.7,177.9 212.9,177.9 212.9,182.5 221.8,182.5 221.8,200.6 226.2,200.6 226.2,182.5 234.7,182.5 		"/>
		<polygon points="137.1,196.8 137.1,177.9 132.8,177.9 132.8,200.6 134.3,200.6 137.1,200.6 152.8,200.6 152.8,196.8 		"/>
	</g>
	<path d="M210.9,196.1c0.1-4.6,0.1-9.2,0-13.8v-4.3h-3.7v16.3c-0.1-0.1-0.2-0.1-0.2-0.2l0,0l-16.7-15.9v0c-0.6-0.6-1-0.5-1.6-0.5
		c-2.3-0.2-1.5,12.5-1.4,20.6v2.4h3.8V184h-0.1c0-0.1,0-0.2,0-0.3c5.4,5.7,10.5,10.3,15.1,14.9c0.8,0.8,1.8,1.6,3.4,1.4
		c1-0.1,1.4-1.7,1.4-2.7c0-0.4,0-0.7,0-1.1h0V196.1z"/>
	<path d="M269,181.2V177h-5.4c-2.9-0.1-5.8-0.1-8.7,0.2c-6.2,0.6-9.9,5.2-9.8,11.7c0.1,6.3,4.2,10.9,10.3,11.3
		c2.4,0.2,4.9,0.2,7.4,0.1h6.3V196h-0.8c0,0,0,0,0,0c-0.8,0-1.7,0-2.5,0h-3.1v0c-1.8,0-3.5,0-5.3,0c-4.8-0.1-7.8-2.8-8-7.1
		c-0.2-4.4,2.9-7.4,7.9-7.7c1.8-0.1,3.5,0,5.3,0v0H269z"/>
	<path d="M304,181.2V177h-5.4c-2.9-0.1-5.8-0.1-8.7,0.2c-6.2,0.6-9.9,5.2-9.8,11.7c0.1,6.3,4.2,10.9,10.3,11.3
		c2.4,0.2,4.9,0.2,7.4,0.1h6.3V196h-0.8c0,0,0,0,0,0c-0.8,0-1.7,0-2.5,0h-3.1v0c-1.8,0-3.5,0-5.3,0c-4.8-0.1-7.8-2.8-8-7.1
		c-0.2-4.4,2.9-7.4,7.9-7.7c1.8-0.1,3.5,0,5.3,0v0H304z"/>
	<path d="M328,200.6h6.1l-5.2-6.1c-0.1-0.4-0.3-0.7-0.5-1c0.9-1,1.9-1.9,2.6-3c3.6-5.5,0.5-12.8-5.9-13.3
		c-5.8-0.4-11.6-0.1-17.9-0.1c0,5,0,9.7,0,14.4h0v9.1h2.9c0,0,0.1,0.1,0.1,0.1c0.1,0,0.1-0.1,0.2-0.1h1.4v-0.8c0-2.7,0-5.5,0-8.2
		c0-3.3,0-6.7,0-10.2c4.5,0,8.4-0.5,12.1,0.2c1.6,0.3,3.9,2.9,3.9,4.4c0,1.4-2.5,3.6-4.2,4c-1.1,0.3-2.8,0.5-4.5,0.8h-5.1v4h8.6
		c0.2,0.1,0.5,0.3,0.7,0.4L328,200.6z"/>
	<path d="M443,200.6h6.1l-5.2-6.1c-0.1-0.4-0.3-0.7-0.5-1c0.9-1,1.9-1.9,2.6-3c3.6-5.5,0.5-12.8-5.9-13.3
		c-5.8-0.4-11.6-0.1-17.9-0.1c0,5,0,9.7,0,14.4h0v9.1h2.9c0,0,0.1,0.1,0.1,0.1c0.1,0,0.1-0.1,0.2-0.1h1.4v-0.8c0-2.7,0-5.5,0-8.2
		c0-3.3,0-6.7,0-10.2c4.5,0,8.4-0.5,12.1,0.2c1.6,0.3,3.9,2.9,3.9,4.4c0,1.4-2.5,3.6-4.2,4c-1.1,0.3-2.8,0.5-4.5,0.8h-5.1v4h8.6
		c0.2,0.1,0.5,0.3,0.7,0.4L443,200.6z"/>
	<path d="M385,186.9c-3.5-0.1-7,0.2-10.5-0.2c-1.4-0.2-3.9-0.6-3.8-2.9c-0.1-1.4,1-2,2.1-2.2h17.1v-4H373l0,0
		c-3.7,0.1-6.9,2.1-6.8,6.1c0.1,4,1.5,6.6,5.4,6.9c3.1,0.2,6.7,0.1,10,0.1c1.8,0,5.1-0.3,5.3,2.4c-0.3,3.5-3.7,3.3-5.6,3.5H366v3.7
		l5.5-0.1c4.6,0.1,9.2,0.1,13.7-0.1c4-0.2,5.9-2.9,5.8-6.7C390.9,189.5,389.1,186.9,385,186.9z"/>
	<path d="M412.5,186.9c-3.5-0.1-7,0.2-10.5-0.2c-1.4-0.2-3.9-0.6-3.8-2.9c-0.1-1.4,1-2,2.1-2.2h17.1v-4h-16.9l0,0
		c-3.7,0.1-6.9,2.1-6.8,6.1c0.1,4,1.5,6.6,5.4,6.9c3.1,0.2,6.7,0.1,10,0.1c1.8,0,5.1-0.3,5.3,2.4c-0.3,3.5-3.7,3.3-5.6,3.5h-15.3
		v3.7l5.5-0.1c4.6,0.1,9.2,0.1,13.7-0.1c4-0.2,5.9-2.9,5.8-6.7C418.4,189.5,416.6,186.9,412.5,186.9z"/>
	<path d="M555.2,186.9c-3.5-0.1-7,0.2-10.5-0.2c-1.4-0.2-3.9-0.6-3.8-2.9c-0.1-1.4,1-2,2.1-2.2h17.1v-4h-16.9l0,0
		c-3.7,0.1-6.9,2.1-6.8,6.1c0.1,4,1.5,6.6,5.4,6.9c3.1,0.2,6.7,0.1,10,0.1c1.8,0,5.1-0.3,5.3,2.4c-0.3,3.5-3.7,3.3-5.6,3.5h-15.3
		v3.7l5.5-0.1c4.6,0.1,9.2,0.1,13.7-0.1c4-0.2,5.9-2.9,5.8-6.7C561.2,189.5,559.4,186.9,555.2,186.9z"/>
	<g>
		<linearGradient id="SVGID_1_" gradientUnits="userSpaceOnUse" x1="352.5938" y1="105.75" x2="597.8438" y2="105.75">
			<stop  offset="0" style="stop-color:#CC3165"/>
			<stop  offset="0.3351" style="stop-color:#1C77BA"/>
			<stop  offset="0.5681" style="stop-color:#B3AF7E"/>
			<stop  offset="0.6685" style="stop-color:#FDDC20"/>
			<stop  offset="0.8297" style="stop-color:#F26522"/>
		</linearGradient>
		<path fill="url(#SVGID_1_)" d="M352.6,14c11.7-1.8,9.5-1.5,60-10c46.5,8.8,169,182.3,185.3,203.5C523.1,122.7,406.4,29.3,352.6,14
			z"/>
		<linearGradient id="SVGID_2_" gradientUnits="userSpaceOnUse" x1="363.3438" y1="84" x2="540.3785" y2="84">
			<stop  offset="0" style="stop-color:#CC3165"/>
			<stop  offset="0.2814" style="stop-color:#1C77BA"/>
			<stop  offset="0.5179" style="stop-color:#B3AF7E"/>
			<stop  offset="0.6505" style="stop-color:#FDDC20"/>
			<stop  offset="0.8871" style="stop-color:#F26522"/>
		</linearGradient>
		<path fill="url(#SVGID_2_)" d="M534.6,2.8c1.7,14.8,5.1,30.1,5.8,45.6c1.6,6.8-50.8,98.3-177,116.9
			C409.3,142.5,491.8,101.8,534.6,2.8z"/>
	</g>
</g>
</svg>
