<?xml version="1.0" encoding="utf-8"?>
<!-- Generator: Adobe Illustrator 18.1.1, SVG Export Plug-In . SVG Version: 6.00 Build 0)  -->
<svg version="1.1" id="Layer_1" xmlns="http://www.w3.org/2000/svg" xmlns:xlink="http://www.w3.org/1999/xlink" x="0px" y="0px"
	 width="144px" height="26.1px" viewBox="-367 348 144 26.1" enable-background="new -367 348 144 26.1" xml:space="preserve">
<g id="guides">
</g>
<g id="Layer_2">
	<g>
		<g>
			<path fill="#F58758" d="M-336.2,365.7c0.5-1,0.9-1.8,1.4-2.6c2.1-4.1,4.1-8.1,6.2-12.2c0.7-1.4,1.6-2.4,3.2-2.7
				c1.7-0.4,3.2,0.1,4.3,1.5c1.2,1.5,1.3,3.1,0.5,4.8c-1.5,3-3.1,6.1-4.6,9.1c-1.3,2.6-2.6,5.1-3.9,7.7c-0.9,1.8-2.4,2.8-4.5,2.8
				c-1.8,0-3.6,0-5.4,0c-1.9,0-3.3-0.9-4.2-2.6c-2.4-4.7-4.8-9.5-7.2-14.3c-0.1-0.2-0.2-0.5-0.4-0.8c-0.2,0.4-0.4,0.6-0.5,0.9
				c-2.4,4.7-4.8,9.4-7.2,14.2c-1,1.9-2.9,2.9-4.8,2.5c-2.9-0.6-4.4-3.6-3-6.3c1.8-3.7,3.7-7.3,5.5-10.9c1-2,2-4.1,3.1-6.1
				c0.9-1.7,2.3-2.7,4.3-2.6c1.8,0,3.6,0,5.4,0c2,0,3.4,0.9,4.3,2.6c2.4,4.7,4.8,9.5,7.2,14.2C-336.6,365.1-336.5,365.3-336.2,365.7
				z"/>
		</g>
		<g>
			<path fill="#6D6E71" d="M-286.6,370.2c-0.4,0-0.7,0-1.1,0c0-0.3-0.1-0.6-0.1-0.9c0-1.6,0-3.1,0-4.7c0-0.3,0-0.7-0.1-1
				c-0.3-1.6-1.4-2.2-2.9-1.6c-1.3,0.6-2,1.7-2.1,3c-0.1,1.4-0.1,2.7-0.1,4.1c0,0.3,0,0.7-0.1,1.1c-0.4,0-0.7,0-1.1,0
				c0-3,0-6.1,0-9.2c0.3,0,0.7-0.1,1.1-0.1c0,0.6,0.1,1.2,0.1,1.7c3-2.7,4.7-2.7,6.4,0.1c0.2-0.2,0.3-0.4,0.5-0.6
				c1-1.2,2.4-1.7,3.9-1.3c1.3,0.3,2,1.2,2,2.5c0.1,2.2,0,4.4,0,6.7c0,0.1-0.1,0.2-0.1,0.3c-0.3,0-0.6,0-1,0c0-0.3-0.1-0.6-0.1-0.9
				c0-1.4,0-2.9,0-4.3c0-0.4,0-0.9-0.1-1.3c-0.3-1.6-1.5-2.3-3-1.6c-1.2,0.6-1.8,1.6-2,2.9c-0.1,1.4-0.1,2.8-0.1,4.2
				C-286.5,369.4-286.5,369.8-286.6,370.2z"/>
		</g>
		<g>
			<path fill="#6D6E71" d="M-230.3,369c0,0.8,0,1.5,0,2.2c0,0.6,0,1.3,0,2c0,0.8-0.3,0.9-1.2,0.7c0-0.3-0.1-0.5-0.1-0.8
				c0-3.7,0-7.5,0-11.2c0-0.3,0.1-0.5,0.1-0.9c0.4,0,0.7,0,1,0c0.1,0.4,0.1,0.8,0.2,1.3c0.8-1,1.8-1.6,3-1.6c1.8,0,3.2,0.9,3.8,2.6
				c0.5,1.4,0.6,2.8,0.1,4.2c-1,3.2-4.4,4-6.7,1.8C-230,369.1-230.1,369.1-230.3,369z M-230.5,365.4c0.2,0.8,0.3,1.6,0.7,2.3
				c0.4,1,1.2,1.6,2.4,1.6c1.2,0,2.1-0.5,2.6-1.5c0.8-1.5,0.8-3.1-0.1-4.6c-1-1.8-3.7-1.9-4.7-0.1
				C-230.1,363.8-230.2,364.6-230.5,365.4z"/>
		</g>
		<g>
			<path fill="#6D6E71" d="M-258.3,370.1c-0.4,0-0.7,0-1.1,0c0-4.3,0-8.6,0-13c0.4,0,0.7,0,1.2,0c0,1.8,0,3.6,0,5.3
				c0.1,0,0.1,0,0.2,0c0.1-0.1,0.2-0.3,0.3-0.4c1.1-1.3,2.6-1.8,4.2-1.5c1,0.2,1.7,0.8,1.9,1.8c0.1,0.5,0.2,1.1,0.2,1.7
				c0,1.7,0,3.5,0,5.2c0,0.3-0.1,0.5-0.1,0.9c-0.4,0-0.7,0-1.1,0c0-0.3-0.1-0.7-0.1-1c0-1.8,0-3.5-0.1-5.3c-0.1-1.8-1.2-2.5-2.9-1.9
				c-1.5,0.4-2.5,1.9-2.6,3.6c0,1.2,0,2.5,0,3.7C-258.2,369.5-258.3,369.8-258.3,370.1z"/>
		</g>
		<g>
			<path fill="#6D6E71" d="M-270.4,365.5c-1.3,0-2.4,0-3.6,0c-1.1,0-2.3,0-3.5,0c0,1.3,0.4,2.2,1.3,2.9c0.7,0.6,1.6,0.9,2.6,0.8
				c0.9-0.2,1.7-0.5,2.6-0.8c0.5,0.3,0.6,0.7,0.1,1.1c-2,1.6-5.4,1.1-7-1c-1.6-2.2-1.1-5.7,1-7.2c1.4-1,3-1.1,4.5-0.4
				c1.5,0.7,2,2.2,2.1,3.8C-270.3,365-270.3,365.2-270.4,365.5z M-277.3,364.5c1.9,0,3.8,0,5.6,0c0.2-1.5-0.9-2.7-2.4-2.8
				C-275.7,361.5-277.2,362.9-277.3,364.5z"/>
		</g>
		<g>
			<path fill="#6D6E71" d="M-241.7,365.6c-2.3,0-4.6,0-7,0c0,1.3,0.4,2.2,1.3,2.9c1.7,1.3,3.4,0.9,5.2-0.2c0.2,0.3,0.3,0.6,0.5,0.9
				c-0.8,0.9-1.8,1.2-2.9,1.3c-2.6,0.3-4.9-1.4-5.4-4c-0.5-2.7,1-5.2,3.5-5.7c3.2-0.6,4.9,1.3,5,4.2
				C-241.5,365.1-241.6,365.3-241.7,365.6z M-248.6,364.5c1.9,0,3.8,0,5.6,0c0.1-1.5-1-2.8-2.5-2.8
				C-247.1,361.6-248.6,362.9-248.6,364.5z"/>
		</g>
		<g>
			<path fill="#6D6E71" d="M-302.3,362.5c-0.2-0.3-0.3-0.6-0.4-0.9c0.2-0.2,0.3-0.3,0.5-0.4c1.2-0.7,2.6-0.8,3.9-0.5
				c1.3,0.3,2.1,1.2,2.2,2.5c0.1,2.1,0.1,4.2,0.1,6.4c0,0.2-0.1,0.3-0.2,0.5c-0.3,0-0.6,0-0.9,0c-0.1-0.5-0.1-0.9-0.2-1.5
				c-0.2,0.2-0.3,0.3-0.4,0.4c-1.1,1.3-2.5,1.7-4.1,1.1c-1.1-0.4-1.8-1.1-1.8-2.3c-0.1-1.2,0.4-2,1.4-2.6c1.2-0.7,2.6-0.7,3.9-0.8
				c0.3,0,0.5,0,0.8-0.1c0.3-1.1-0.2-2.2-1.3-2.5c-0.9-0.3-1.8-0.1-2.7,0.3C-301.7,362.3-302,362.4-302.3,362.5z M-297.3,365.5
				c-1.3,0-2.4,0-3.6,0.4c-1,0.4-1.5,1.2-1.3,2.1c0.2,0.9,1.1,1.6,2.1,1.4c0.5-0.1,1-0.2,1.3-0.5
				C-297.7,368.1-297.3,366.9-297.3,365.5z"/>
		</g>
		<g>
			<path fill="#6D6E71" d="M-234.9,364.4c0.3-1.1-0.2-2.1-1.2-2.5c-1-0.3-1.9-0.1-2.8,0.3c-0.3,0.1-0.5,0.2-0.9,0.3
				c-0.2-0.3-0.3-0.5-0.5-0.8c0.7-0.8,1.6-0.9,2.4-1.1c0.3-0.1,0.6,0,0.9,0c2,0,3.2,1,3.4,3.1c0.1,2,0,4,0,5.9
				c0,0.2-0.1,0.3-0.1,0.5c-0.3,0-0.6,0-1,0c0-0.5-0.1-0.9-0.1-1.5c-0.2,0.2-0.3,0.3-0.4,0.5c-1,1.2-2.5,1.6-4,1.1
				c-1.1-0.4-1.8-1.1-1.9-2.2c-0.1-1.2,0.3-2.2,1.4-2.8c1.2-0.7,2.5-0.7,3.9-0.8C-235.4,364.4-235.1,364.4-234.9,364.4z
				 M-234.8,365.6c-0.9-0.3-3.1,0-3.9,0.5c-0.7,0.4-0.9,1-0.8,1.8c0.1,0.7,0.6,1.2,1.3,1.4C-236.3,369.9-234.4,367.8-234.8,365.6z"
				/>
		</g>
		<g>
			<path fill="#6D6E71" d="M-304.8,370.1c-0.3,0-0.7,0-1,0c0-0.3-0.1-0.6-0.1-0.9c0-1.5,0-2.9,0-4.4c0-0.2,0-0.5,0-0.7
				c-0.1-2.4-1.7-2.7-3.4-2.1c-1.6,0.6-2.2,1.9-2.2,3.5c0,1.2,0,2.4,0,3.6c0,0.3,0,0.6-0.1,1c-0.4,0-0.7,0-1.2,0.1
				c0-3.1,0-6.2,0-9.3c0.4,0,0.8,0,1.2,0c0,0.6,0.1,1.1,0.1,1.7c0.1-0.1,0.2-0.2,0.3-0.3c1.1-1.4,2.5-1.9,4.2-1.6
				c1.3,0.2,2.2,1,2.3,2.4c0.1,2.2,0.1,4.5,0.1,6.7C-304.7,369.9-304.8,370-304.8,370.1z"/>
		</g>
		<g>
			<path fill="#6D6E71" d="M-260.9,362c-0.1,0.2-0.3,0.4-0.5,0.8c-0.4-0.2-0.7-0.3-1-0.5c-1.4-0.7-2.7-0.7-4,0.2
				c-1.3,1-1.6,2.4-1.3,3.9c0.3,1.5,1.2,2.4,2.6,2.8c1.1,0.3,2.1,0.1,3.1-0.5c0.2-0.2,0.5-0.3,0.8-0.5c0.2,0.3,0.4,0.5,0.5,0.7
				c-0.7,1.3-2.9,1.9-4.8,1.5c-2.1-0.4-3.6-2.2-3.7-4.3c-0.2-2.4,1-4.4,3-5.2C-264.4,360.3-261.8,360.6-260.9,362z"/>
		</g>
	</g>
</g>
</svg>
