<?xml version="1.0" encoding="utf-8"?>
<!-- Generator: Adobe Illustrator 18.1.1, SVG Export Plug-In . SVG Version: 6.00 Build 0)  -->
<svg version="1.1" id="Layer_1" xmlns="http://www.w3.org/2000/svg" xmlns:xlink="http://www.w3.org/1999/xlink" x="0px" y="0px"
	 width="755.3px" height="303px" viewBox="90.6 201.8 755.3 303" enable-background="new 90.6 201.8 755.3 303"
	 xml:space="preserve">
<g>
	<path d="M336.3,460.4c-0.9,0.6-0.9,1.5-1,2.2c-2.3,9.7-4.7,19.3-7,29c-0.3,1.4-0.6,2.7-1,4c-2.3,7.9-10.5,11.3-18,7.4
		c-4.9-2.5-7-6.9-8.5-11.7c-3.7-12.7-7.3-25.4-11.1-38.1c-2.4-8.4-4.9-16.7-7.3-25.2c-0.7-2.5-2-3.7-4.7-3.6c-1.3,0-3.4,0.5-3.4-1.4
		c0-2.1,2.2-1.5,3.5-1.5c10.1,0,20.2,0,30.4,0c1.3,0,3.4-0.5,3.4,1.4c0,2.1-2.2,1.5-3.5,1.5c-3.8,0.2-4,0.4-3,4
		c5.6,22.1,11.2,44.1,16.8,66.2c0.2,1,0.5,2,0.9,3.3c1-0.9,1-1.9,1.2-2.8c3-12.8,6-25.6,9-38.3c0.4-1.8,0.4-3.5,0-5.3
		c-2.3-7.8-4.5-15.7-6.7-23.5c-0.6-2.4-1.9-3.6-4.5-3.5c-1.3,0-3.5,0.6-3.5-1.5c0-1.9,2.2-1.3,3.4-1.3c9.9,0,19.9,0,29.9,0
		c0.4,0,0.8,0,1.2,0c1,0.1,2.4,0,2.3,1.5c0,1.3-1.3,1.3-2.3,1.4c-4.8,0.4-4.8,0.4-3.7,5.1c5.5,21.7,11,43.5,16.4,65.3
		c0.2,0.8,0.2,1.8,0.9,2.4c0.7,0,0.7-0.7,0.8-1.1c5.4-22.7,10.9-45.4,16.3-68c0.8-3.3,0.5-3.6-3-3.7c-2.9,0-5.9,0-8.8,0
		c-1,0-2.2,0-2.2-1.4c0-1.3,1.2-1.4,2.2-1.4c7,0,13.9,0,20.8,0c1,0,2.2,0,2.2,1.4s-1.2,1.4-2.2,1.4c-0.7,0-1.5,0.1-2.2,0
		c-1.7,0-2.7,0.8-3.1,2.5c-0.8,3.3-1.6,6.5-2.3,9.7c-4.7,19.2-9.3,38.4-13.9,57.6c-1.2,5.1-3.7,8.9-9.2,9.8
		c-6.7,1.1-12.4-1.4-15.4-6.6c-1.2-2.2-1.9-4.5-2.5-6.9c-2.3-9.4-4.7-18.7-7.1-28C337.1,462,337,461,336.3,460.4z"/>
	<path d="M182,318.9c0.8-1.1,0.6-2,0.6-2.8c0-33.9,0-67.7,0-101.6c0-4-0.3-4.3-4.3-4.3c-3.1,0-6.2,0-9.3,0c-1,0-2.2-0.1-2.2-1.4
		c0-1.3,1.2-1.4,2.2-1.4c8.2,0,16.5,0,24.7,0c1,0,2.2,0,2.2,1.4c0,1.3-1.2,1.4-2.2,1.4c-1.8,0-3.6,0.1-5.4,0c-2,0-2.8,0.9-2.8,2.8
		c0,1,0,2,0,2.9c0,36.5,0,72.9,0,109.4c0,5.1-1.1,6.3-6.2,6.6c-10.5,0.7-17.9-3.9-22.6-13.1c-4.4-8.5-8.8-16.9-13.2-25.4
		c-10.6-20.6-21.1-41.2-31.7-61.9c-2.3-4.5-4.7-9-7-13.5c-0.3-0.5-0.4-1.3-1.2-1.5c-0.7,0.8-0.4,1.7-0.4,2.5c0,34.9,0,69.7,0,104.5
		c0,4.1,0.3,4.4,4.3,4.4c3.1,0,6.2,0,9.3,0c0.9,0,2.1,0,2.1,1.2c0,1.2-1.2,1.1-2.1,1.1c-8.1,0-16.2,0-24.2,0c-0.8,0-2.1,0-2-1.2
		c0-1,1.1-1,1.9-1.1c1.7,0,3.4-0.1,5.1-0.1c1.8,0,2.7-0.9,2.7-2.7c0-0.8,0-1.6,0-2.4c0-35.9,0-71.8,0-107.7c0-0.4,0-0.8,0-1.2
		c0-3.4-0.4-3.8-3.8-3.9c-1.2,0-2.4,0-3.7,0c-0.9,0-2-0.2-2-1.4c0-1.2,1-1.4,1.9-1.4c2.5,0,5-0.1,7.6,0c5,0.2,10.1,0.3,15.1,1.2
		c6.8,1.2,11.5,5.3,14.8,11c2.6,4.4,4.9,9,7.3,13.6c7.9,15.5,15.8,30.9,23.7,46.4c6.1,11.8,12.1,23.6,18.3,35.5
		C180.3,316.2,181.2,317.5,182,318.9z"/>
	<path d="M652.1,311.5c-1.8,4.3-3.7,8.2-6.3,11.7c-8.5,11.2-26.3,12.1-34.2,1.9c-3-4-4.5-8.5-4.6-13.4c0-17.9,0-35.9,0-53.8
		c0-0.9,0-1.8,0-2.7c0-1.9-0.9-2.9-2.8-2.9c-1.1,0-2.3,0-3.4-0.2c-0.7-0.1-1.2-0.5-1.2-1.3s0.5-1.2,1.2-1.3c0.8-0.1,1.6-0.1,2.4-0.1
		c7.2,0,14.5,0,21.8,0c3.7,0,4.1,0.3,4.1,4.1c0,23.8,0,47.6,0,71.4c0,4.7,0.8,5.2,5.2,3.5c8.8-3.5,13.2-10.8,16-19.2
		c1.8-5.6,2.2-11.4,2.3-17.1c0.2-11.9,0-23.8,0-35.7c0-3.5-0.4-3.9-4-3.9c-1.2,0-2.4,0-3.7-0.1c-0.8,0-1.8-0.2-1.8-1.3
		c0-1.2,0.9-1.4,1.9-1.5c0.6,0,1.1,0,1.7,0c8,0,16,0,24,0c3.5,0,3.9,0.4,3.9,4c0,21.1,0,42.1,0,63.1c0,2.4,0.1,4.7,0.6,7
		c0.6,3.2,2.7,4.7,6,4.3c0.8-0.1,2-0.7,2.3,0.5c0.3,1.1-0.7,1.5-1.6,1.9c-5,1.9-10.1,2.7-15.4,1.4c-7.9-2.1-13.3-8.9-14-17.3
		C652.6,313.4,652.8,312.6,652.1,311.5z"/>
	<path d="M135.1,502.9c-13.5,0-26.9,0-40.4,0c-1.3,0-3.5,0.6-3.5-1.1c0-2,2.3-1.3,3.6-1.3c6.9-0.1,6.6,0.4,6.6-6.5
		c0-35.1,0-70.3,0-105.4c0-1,0-2,0-2.9c0.1-2.2-0.9-3.1-3.1-3.1c-1.9,0-3.8,0-5.6-0.1c-0.8,0-1.7-0.3-1.7-1.4c0-1.1,0.9-1.3,1.7-1.4
		c0.6-0.1,1.3-0.1,2-0.1c11.8,0,23.6,0,35.5,0c1.3,0,3.5-0.6,3.6,1.4c0,2.1-2.2,1.4-3.5,1.5c-7.2,0.1-6.8-0.5-6.8,6.8
		c0,35,0,70,0,105c0,0.9,0,1.8,0,2.7c0,3.1,0.5,3.5,3.6,3.6c13.6,0,27.2,0,40.9,0c1.8,0,3.6,0,5.4,0c3.6,0,4-0.4,4-4.1
		c0-5.1,0-10.3,0-15.4c0-0.7,0-1.5,0-2.2c0.1-1,0-2.4,1.5-2.3c1.3,0,1.3,1.3,1.3,2.3c0,7.2,0,14.3,0,21.5c0,2.4-1.5,2.7-3.4,2.7
		c-9.6,0-19.2,0-28.9,0C143.6,502.9,139.3,502.9,135.1,502.9z"/>
	<path d="M399,262.1c0,18,0,36.1,0,54.1c0,2.2,0.1,4.4,0.5,6.6c0.7,4.1,2.9,5.6,7,4.7c1.3-0.3,2.6-1,3.9-1.5c0.5-0.2,1.1-0.7,1.6,0
		c0.4,0.5,0.2,1.1,0,1.6c-0.3,0.7-0.9,1.2-1.5,1.5c-7.5,3.9-15.2,4.6-22.7,0.4c-7.2-4-10.6-10.6-10.6-18.7c-0.1-30.6,0-61.2,0-91.8
		c0-3.2,0.6-6.4,2.1-9.3c1.7-3.4,4.3-5.7,8-6.8c2.9-0.8,5.9-1,9-1.2c2.1-0.1,3,0.8,3,2.9c0,0.9,0,1.8,0,2.7
		C399,225.7,399,243.9,399,262.1z"/>
	<path d="M276.5,274.1c-3.3-13.2-12-21.1-25-24.6c-18.1-4.9-35.7,4.2-42.3,21.7c-3.6,9.5-4.5,19.2-3,29.1c0.9,6.1,3.2,11.8,6.9,16.8
		c6.6,8.9,15.7,13.6,26.6,14.7c13.8,1.4,25.1-3,32.8-14.9c0.7-1.1,1.7-2.2,0.1-3.4c-1.7-1.2-2.3,0.1-3,1.2c-2.3,3.6-5.2,6.5-8.6,9
		c-10,7.4-28.3,7.4-31.6-12.1c-0.8-4.7-0.9-9.4-0.8-14.1c0.1-3.2,0.5-3.7,3.7-3.7c6.7,0,13.4,0,20.1,0l0,0c7,0,13.9,0,20.8,0
		c2.2,0,3.2-0.8,3.6-3C278,285.2,278,279.7,276.5,274.1z M254.6,287c0,3.1-0.5,3.5-3.6,3.5c-6.3,0-12.6,0-18.8,0
		c-2.9,0-3.5-0.5-3.5-3.4c0-5,0-9.9,0-14.9c0-4.7,0.1-9.3,0-14c0-2.5,0.9-4,3.3-4.7c4.1-1.2,8.2-2,12.5-1.3c4.5,0.6,7.2,3.2,8.6,7.3
		c1.1,3.2,1.4,6.6,1.4,9.9C254.7,275.2,254.6,281.1,254.6,287z"/>
	<path d="M359.3,272.2c-4.1-13-13.2-20.3-26.3-23.1c-18.3-3.9-35.4,6.2-41,24c-3,9.7-3.4,19.4-1.3,29.2c1.3,6.1,3.8,11.7,7.8,16.4
		c7.1,8.5,16.4,12.7,27.4,13.2c13.8,0.6,24.9-4.4,32-16.7c0.6-1.1,1.6-2.3-0.1-3.4c-1.8-1.1-2.3,0.3-2.9,1.4c-2,3.7-4.8,6.8-8,9.4
		c-9.5,8-27.9,9-32.3-10.3c-1.1-4.6-1.5-9.4-1.6-14c-0.1-3.2,0.2-3.7,3.5-3.9c6.7-0.4,13.4-0.8,20-1.2l0,0
		c6.9-0.4,13.9-0.8,20.8-1.2c2.2-0.1,3.1-1,3.5-3.2C361.3,283.2,361,277.6,359.3,272.2z M338.1,286.2c0.1,3.1-0.3,3.5-3.4,3.7
		c-6.3,0.4-12.5,0.7-18.8,1.1c-2.9,0.1-3.5-0.3-3.7-3.2c-0.3-4.9-0.6-9.9-0.9-14.9c-0.2-4.7-0.4-9.3-0.8-13.9
		c-0.2-2.5,0.7-4.1,3-4.9c4-1.4,8.1-2.4,12.4-2.1c4.5,0.4,7.4,2.7,9.1,6.8c1.3,3.1,1.7,6.5,2,9.8
		C337.5,274.5,337.7,280.4,338.1,286.2z"/>
	<path d="M805,267.8c0.7-1.6,1.3-3.1,2-4.7c2.2-4.9,5.2-9.1,9.7-11.9c6.6-4.2,15.3-4,21.7,0.5c5.9,4.2,8.8,12.3,7,19.8
		c-1,4.1-3.3,7.1-7.2,8.6c-6.5,2.3-12.3-1.8-12.7-9c-0.2-5.4-0.1-10.9-0.1-16.4c0-3.6-0.9-4.3-4.3-2.9c-6.3,2.6-9.8,7.8-12.6,13.7
		c-3.3,7-4,14.6-4.1,22.2c-0.2,12.1,0,24.3,0,36.5c0,3.4,0.4,3.8,3.8,3.9c1.7,0,3.4,0,5.1,0.1c0.7,0,1.4,0.3,1.4,1.1
		c0,0.8-0.7,1-1.4,1.1c-0.7,0.1-1.5,0.1-2.2,0.1c-10.9,0-21.7,0-32.6,0c-1.2,0-3.4,0.6-3.4-1.2c0-1.6,2.1-1.1,3.3-1.1
		c3.6-0.1,3.9-0.4,3.9-4c0-22.7,0-45.3,0-68c0-3.4-0.4-3.8-3.8-3.9c-1.3,0-3.6,0.6-3.6-1.4c0-2.2,2.3-1.5,3.7-1.5
		c3.8,0,7.6-0.1,11.5,0.2c9,0.8,13.4,6.8,14.1,15.3c0,0.9,0.1,1.8,0.1,2.6C804.6,267.7,804.8,267.8,805,267.8z"/>
	<path d="M632.1,483.4c-0.8,4-3,7.2-5.4,10.4c-8.8,11.9-24.3,11.6-34.9,6.9c-8.9-3.9-15-10.7-18.5-19.6c-6.1-15.9-5.5-31.5,3.1-46.4
		c6.2-10.7,15.9-15.2,28-15.1c6.2,0,12,1.3,17.3,4.4c5.8,3.4,9.5,8.1,9.2,15.3c0,1.4-0.4,2.7-1,4c-1.4,2.7-3.4,4.3-6.6,4.3
		c-2.8,0-5.3-2-6.5-4.8c-0.5-1.4-0.6-2.8-0.6-4.4c0-4.3,0-8.7,0-13c0-1.5-0.2-2.8-2-3.3c-4.8-1.3-9.8-2.1-14.7-0.9
		c-8.1,1.9-13.5,8.7-14.1,17.9c-0.9,14.1-1,28.3,0,42.5c1.2,16.6,15.9,25.4,31.1,18.6c5.6-2.5,9.4-7,12.1-12.3
		c0.8-1.6,1.7-3.2,2.5-4.9C631.6,483.1,631.8,483.2,632.1,483.4z"/>
	<path d="M498.6,502.2c-0.9,1-2,0.7-2.9,0.7c-16.2,0-32.3,0-48.4,0c-3.3,0-3.8-0.4-3.8-3.9c0-25,0-50,0-75.1c0-3.3,0.4-3.7,3.6-3.8
		c2.8,0,5.7,0,8.6,0c2.1,0,3,0.9,2.9,3c0,0.9,0,1.8,0,2.7c0,23.6,0,47.3,0,70.9c0,4.5,0.2,4.7,4.7,4.7c10.6,0,21.2,0,31.8,0
		C496.3,501.5,497.5,501.2,498.6,502.2z"/>
	<path d="M563.2,502.2c-0.9,1-2,0.8-2.8,0.8c-16.2,0-32.3,0-48.4,0c-3.4,0-3.8-0.4-3.8-3.8c0-25,0-50,0-75.1c0-3.4,0.4-3.8,3.9-3.8
		c2.8,0,5.7,0,8.6,0c1.8,0,2.7,0.9,2.7,2.7c0,1,0,2,0,2.9c0,23.6,0,47.3,0,70.9c0,4.5,0.2,4.7,4.7,4.7c10.6,0,21.2,0,31.8,0
		C560.9,501.5,562,501.2,563.2,502.2z"/>
	<path d="M500.6,284.5c-0.6-8.2-2.8-16-7.3-23.1c-7.2-11.4-21.6-16.1-33.8-10.8c-3.7,1.6-6.9,4-9.7,7c-0.5,0.5-1,1.4-1.8,1.1
		c-0.9-0.3-0.6-1.4-0.6-2.2c0-1,0-2,0-2.9c0-12.1,0-24.3,0-36.5c0-9.1-4.9-14-13.9-14.7c-0.8,0-1.6-0.1-2.4-0.2
		c-5.1-0.6-5.6-0.2-5.6,5c0,39.7,0,79.3,0,119c0,1.1,0,2.1,0.1,3.2c0,1.1,0.6,1.8,1.6,2.3c3.8,1.7,12.2,0.3,15.4-2.5
		c3.4-3,4.7-7,5.1-11.6c1.1,0.6,1.2,1.5,1.7,2.1c4.3,6.2,9.4,11.4,17.4,12.4c11.4,1.5,22.5-4.7,27.9-14.7
		C500.1,306.9,501.5,295.9,500.6,284.5z M477.8,295.2c0,9.4,0,18.9,0,28.3c0,3.6-0.7,4.4-4.2,5.1c-7.5,1.5-15.6-2.3-20.4-9.7
		c-4.4-6.7-5.6-14.1-5.7-21.9c-0.1-8.6,0.2-17.3-0.1-25.9c-0.1-4.5,0.9-8.1,4.1-11.2c4-4,8.4-7.2,14.2-7.9c5.7-0.7,10.2,2.4,11.3,8
		c0.5,2.7,0.8,5.5,0.8,8.3C477.8,277.3,477.8,286.2,477.8,295.2z"/>
	<path d="M591.8,328.8c-0.2-1-1.2-0.5-1.9-0.4c-3.6,0.4-5.6-1.1-6.3-4.6c-0.4-2-0.6-4-0.6-6.1c0-6.4,0-12.7,0-19.1l0,0
		c0-6.8,0.1-13.6,0-20.3c-0.3-11.1-4.6-20.1-14.6-25.8c-7.7-4.3-16.1-5-24.7-3.8c-7.6,1.1-14.7,3.6-20.2,9.4
		c-3.3,3.5-4.2,7.6-3.1,12.2c1,3.9,4.9,6.8,9,6.7c3.9,0,7-2.6,8-6.7c0.4-1.7,0.6-3.4,0.6-5.1c0-3.1,0-6.2,0-9.3c0-2.2,0.8-3.4,3-4.1
		c3.1-0.9,6.3-1,9.4-0.7c5.8,0.5,9.3,4.1,10.1,9.8c0.9,6.5,0.3,13,0.5,19.5c0,2.3-0.9,3.3-3.3,3.5c-7.4,0.5-14.9,0.7-22,2.9
		c-7.3,2.2-14,5.3-18,12.5c-2.4,4.5-3.1,9.3-2.7,14.2c0.4,5.5,2.6,10.3,7.1,13.7c11.3,8.5,29.7,5,37.1-7c0.4-0.7,0.6-1.8,1.5-1.8
		c1.1,0,1.1,1.2,1.5,2c4.9,10.3,18,14.8,28.2,9.6C591.1,329.9,592,329.6,591.8,328.8z M559.5,313.8c-2.3,8-10.2,14.5-18.6,15.3
		c-3,0.2-3.4-0.1-3.4-3.1c0-2.5,0-5,0-8.6c-0.1-4.5-0.1-10,1.4-15.4c2.5-9,10.2-14.8,19.5-14.9c1.4,0,2.5,0.1,2.5,1.9
		C560.9,297.2,561.8,305.6,559.5,313.8z"/>
	<path d="M269.6,501c-0.3-0.9-1.3-0.3-2-0.2c-3.3,0.4-5.4-1.1-6.1-4.2c-0.5-2.1-0.7-4.2-0.7-6.3c0-6.5,0-12.9,0-19.3l0,0
		c0-6.7,0.1-13.4,0-20.1c-0.3-10.3-4-18.9-12.8-24.8c-7.4-4.8-15.7-6-24.2-5.2c-8.4,0.8-16.3,3.2-22.4,9.6
		c-3.3,3.5-4.3,7.6-3.2,12.2c0.9,3.9,4.8,6.8,8.9,6.8c3.9,0,7-2.5,8.1-6.6c0.4-1.7,0.6-3.4,0.6-5.1c0-3.3,0-6.5,0-9.8
		c0-1.9,0.8-3,2.6-3.5c3.1-0.9,6.3-1.1,9.4-0.9c6.1,0.5,9.6,4,10.4,10c0.9,6.4,0.3,12.9,0.5,19.3c0.1,2.5-1,3.4-3.4,3.6
		c-7.4,0.5-14.9,0.7-22,2.9c-9.6,2.9-17.7,7.6-20,18.4c-1.6,7.7-0.9,15,5.1,20.9c10.3,9.9,30.6,6.8,38.4-5.8
		c0.4-0.7,0.6-1.9,1.7-1.8c1,0,1,1.2,1.3,1.9c4.8,10.4,17.8,14.8,28.1,9.7C268.9,502.3,270,502,269.6,501z M237.3,486.2
		c-2.3,8-10.2,14.5-18.5,15.3c-3,0.3-3.4-0.1-3.4-3.1c0-2.5,0-5,0-8.6c-0.1-4.5-0.1-10,1.4-15.4c2.5-9,10.2-14.8,19.5-14.9
		c1.4,0,2.5,0.1,2.5,1.8C238.8,469.5,239.7,477.9,237.3,486.2z"/>
	<path d="M763.6,274.1c-3.4-13.2-12.1-21.1-25-24.6c-18.1-4.9-35.6,4.2-42.3,21.7c-3.6,9.5-4.6,19.2-2.9,29.1
		c1.6,9.6,5.9,17.9,13.9,23.9c8.4,6.4,18,8.6,28.3,7.6c10.6-1,18.6-6.4,24.3-15.3c1-1.5,0.8-2.6-0.9-3.3c-1.4-0.5-1.8,0.8-2.4,1.6
		c-3.4,5.1-7.8,9.2-13.5,11.7c-11.9,5.3-23.8-0.7-26.5-13.5c-1.1-5.1-1.2-10.3-1.1-15.6c0-3.2,0.5-3.7,3.7-3.7c6.7,0,13.4,0,20.1,0
		l0,0c6.9,0,13.7,0,20.6,0c2.4,0,3.5-0.9,3.9-3.3C765.1,285.1,765,279.6,763.6,274.1z M738.3,290.5c-6.5,0-12.9,0-19.3,0
		c-2.4,0-3.3-1.1-3.3-3.4c0.1-4.9,0-9.8,0-14.7c0-4.9,0-9.8,0-14.7c0-2,0.7-3.3,2.6-4c4.3-1.5,8.7-2.3,13.2-1.6
		c4.6,0.6,7.3,3.2,8.8,7.5c1,3,1.3,6.3,1.4,9.4c0.1,6,0,12.1,0.1,18.1C741.7,289.6,740.7,290.5,738.3,290.5z"/>
	<path fill="none" d="M592.3,423.2c-6.9,5.8-8.4,13.3-8.3,21.4c0.1,11.3,0,22.5,0,33.7c0,6.6,1.6,12.8,5.7,18.1c0.8,1,1.7,2,2.5,3.1
		c-2.6-0.8-4.8-2.5-6.9-4.3c-10-8.3-13.9-19.3-14.5-31.9c-0.4-8.4,0.9-16.4,4.6-24c3.1-6.5,7.5-12,14.1-15.4
		C590.2,423.5,590.9,423,592.3,423.2z"/>
	<path fill="none" d="M629.8,438.4c-0.1,4.7-2.4,7.8-6,7.9c-3.5,0.2-6.1-2.7-6.4-7.5c-0.2-4.4-0.1-8.8-0.1-13.2
		c0-1.1,0.2-2.1,1.7-1.5C624.7,426.4,629.9,431.2,629.8,438.4z"/>
	<path fill="none" d="M457.7,461.7c0,11.8,0,23.6,0,35.5c0,4-0.3,4.3-4.4,4.3c-2,0-3.9,0-5.9,0c-1.6,0-2.4-0.8-2.4-2.4
		c0-0.8,0-1.6,0-2.4c0-23.4,0-46.7,0-70c0-4.8,0.1-4.9,5-4.9c1.5,0,2.9,0,4.4,0c2.4-0.1,3.4,0.9,3.4,3.3c0,7.5,0,15,0,22.5
		C457.7,452.3,457.7,457,457.7,461.7z"/>
	<path fill="none" d="M522.3,461.6c0,11.9,0,23.8,0,35.7c0,3.8-0.3,4.2-4.2,4.2c-2,0-3.9,0-5.9,0c-1.7,0-2.6-0.8-2.6-2.5
		c0-0.6,0-1.3,0-2c0-23.6,0-47.1,0-70.7c0-4.3,0.2-4.5,4.6-4.6c1.4,0,2.8,0,4.2,0c3.6,0,4,0.4,4,3.9c0,10.2,0,20.4,0,30.6
		C522.3,458,522.3,459.8,522.3,461.6z"/>
</g>
</svg>
