<?xml version="1.0" encoding="utf-8"?>
<!-- Generator: Adobe Illustrator 18.1.1, SVG Export Plug-In . SVG Version: 6.00 Build 0)  -->
<svg version="1.1" id="Layer_1" xmlns="http://www.w3.org/2000/svg" xmlns:xlink="http://www.w3.org/1999/xlink" x="0px" y="0px"
	 width="129.2px" height="72px" viewBox="-373.6 323 129.2 72" enable-background="new -373.6 323 129.2 72" xml:space="preserve">
<g id="guides">
</g>
<g id="Layer_2">
	<g>
		<g>
			<g>
				<g>
					<path fill="#E72130" d="M-342.7,378.8c-3.1-4.3-2.5-10.3,1.6-18c1.7-3.1,3.8-6.2,6.3-9.1c0-0.3-0.1-0.6-0.1-1
						c-3.1,3.3-5.6,6.6-7.8,10.1c-4.9,7.9-5.9,13.9-3,17.9c1.7,2.4,4.5,3.7,8.4,4C-339.5,382-341.3,380.6-342.7,378.8z"/>
					<path fill="#E72130" d="M-320.7,339c9.3-6.7,18.3-10.8,27.1-12.3c8.6-1.5,14.5-0.1,17.6,4.2c2.5,3.5,2.6,8.1,0.3,13.9
						c4.8-7.8,5.8-13.7,2.9-17.8c-2.9-4.1-8.9-5.1-17.9-3.1c-9.3,2.1-19,6.7-29.1,13.9c-2.4,1.7-4.7,3.4-6.8,5.2
						c0.1,0.1,0.2,0.3,0.2,0.4C-324.6,342-322.7,340.5-320.7,339z"/>
				</g>
			</g>
			<g>
				<path fill="#231F20" d="M-320.3,360.3c0,7-0.1,19.8-9.6,19.8c-9.5,0-9.6-12.8-9.6-19.8s0.1-19.8,9.6-19.8
					C-320.4,340.5-320.3,353.3-320.3,360.3z M-334.4,360.3c0,8.2,0.5,15,4.4,15c3.9,0,4.4-6.8,4.4-15c0-8.2-0.5-15-4.4-15
					C-333.8,345.3-334.4,352.1-334.4,360.3z"/>
				<path fill="#231F20" d="M-316.8,379.6V341h5.9c4.2,0,9.6,0.4,9.6,10.3c0,7.8-2.9,11.5-10.6,11.2v17.1
					C-311.9,379.6-316.8,379.6-316.8,379.6z M-311.9,345.3v12.8c4.2,0.3,5.4-2.1,5.4-6.4c0-3.5-1-6.4-4.7-6.4L-311.9,345.3
					L-311.9,345.3z"/>
				<path fill="#231F20" d="M-294.7,379.6h-4.9V341h4.9V379.6z"/>
				<path fill="#231F20" d="M-279.2,346.9c-1.3-1-2.5-1.6-4.2-1.6c-2.7,0-4.4,2.3-4.4,5c0,1.7,0.4,2.9,1.4,4.2l3.7,4.2
					c3.3,3.5,5.3,6.1,5.3,11.3c0,5.4-3.2,10.1-8.7,10.1c-1.9,0-3.9-0.6-5.4-1.8v-5.2c1.5,1.1,2.9,2,4.9,2c3,0,4.3-2.5,4.3-5.4
					c0-7.7-10.4-9.2-10.4-19.3c0-5.4,2.7-9.9,8.3-9.9c1.9,0,3.6,0.3,5.2,1.3L-279.2,346.9z"/>
			</g>
		</g>
		<g>
			<path fill="#231F20" d="M-367.6,389.1c0,2.1,0,5.9-3,5.9c-3,0-3-3.8-3-5.9c0-2.1,0-5.9,3-5.9C-367.6,383.1-367.6,387-367.6,389.1
				z M-372,389.1c0,2.5,0.2,4.5,1.4,4.5s1.4-2,1.4-4.5c0-2.5-0.2-4.5-1.4-4.5S-372,386.6-372,389.1z"/>
			<path fill="#231F20" d="M-365,394.8h-1.2v-9.3h1.2V394.8z"/>
			<path fill="#231F20" d="M-362.2,385.5v8.2h2.1v1.1h-3.3v-9.3H-362.2z"/>
			<path fill="#231F20" d="M-356.7,394.8v-11.6h1.8c1.3,0,3,0.1,3,3.1c0,2.3-0.9,3.4-3.3,3.3v5.1
				C-355.1,394.8-356.7,394.8-356.7,394.8z M-355.1,384.6v3.8c1.3,0.1,1.7-0.6,1.7-1.9c0-1-0.3-1.9-1.5-1.9H-355.1z"/>
			<path fill="#231F20" d="M-350.9,385.5h1.5c0.9,0,2.3,0,2.3,2.4c0,0.9-0.3,2.2-1.3,2.4l1.7,4.5h-1.3l-1.7-4.6h0v4.6h-1.2V385.5z
				 M-348.4,388.2c0-0.9-0.1-1.6-1.1-1.6h-0.2v3.1C-348.7,389.7-348.4,389.1-348.4,388.2z"/>
			<path fill="#231F20" d="M-344.5,394.8h-1.2v-9.3h1.2V394.8z"/>
			<path fill="#231F20" d="M-339.4,386.8c-0.2-0.1-0.5-0.2-0.8-0.2c-1.7,0-1.7,2.5-1.7,3.7c0,1.2,0.1,3.6,1.8,3.6
				c0.3,0,0.5-0.1,0.7-0.2v1.1c-0.3,0.2-0.6,0.3-1,0.3c-2.5,0-2.9-2.7-2.9-4.6c0-1.9,0.2-4.9,2.8-4.9c0.4,0,0.7,0.1,1.1,0.3
				L-339.4,386.8L-339.4,386.8z"/>
			<path fill="#231F20" d="M-335.1,385.5v1.1h-2.1v2.9h1.9v1.1h-1.9v3.2h2.1v1.1h-3.3v-9.3C-338.4,385.5-335.1,385.5-335.1,385.5z"
				/>
			<path fill="#231F20" d="M-329.9,394.8h-1.5v-11.6h1.5V394.8z"/>
			<path fill="#231F20" d="M-327.2,388.3l0.2,3.1v3.4h-1.2v-9.3h1.2l2.2,7.1l0,0l-0.3-3.7v-3.3h1.2v9.3h-1.1l-2.2-7.2l0,0
				L-327.2,388.3z"/>
			<path fill="#231F20" d="M-319,385.5v1.1h-2.1v2.9h1.9v1.1h-1.9v4.2h-1.2v-9.3C-322.4,385.5-319,385.5-319,385.5z"/>
			<path fill="#231F20" d="M-313.5,390.2c0,1.7,0,4.8-2.4,4.8c-2.4,0-2.4-3.1-2.4-4.8s0-4.8,2.4-4.8
				C-313.6,385.4-313.5,388.5-313.5,390.2z M-317.1,390.2c0,2,0.1,3.6,1.1,3.6c1,0,1.1-1.6,1.1-3.6s-0.1-3.6-1.1-3.6
				C-316.9,386.6-317.1,388.2-317.1,390.2z"/>
			<path fill="#231F20" d="M-312.3,385.5h1.5c0.9,0,2.3,0,2.3,2.4c0,0.9-0.3,2.2-1.3,2.4l1.7,4.5h-1.3l-1.7-4.6h0v4.6h-1.2V385.5z
				 M-309.8,388.2c0-0.9-0.1-1.6-1.1-1.6h-0.2v3.1C-310.1,389.7-309.8,389.1-309.8,388.2z"/>
			<path fill="#231F20" d="M-305.8,385.5l1.3,6.7h0l0-0.4l0.4-2.2l0.8-4.1h1.1l0.9,9.3h-1.2l-0.2-3.5l-0.1-1.7l0-1.2h0l-0.2,1.3
				l-1,5.1h-0.9l-1.2-6.4h0l-0.4,6.4h-1.2l0.8-9.3L-305.8,385.5L-305.8,385.5z"/>
			<path fill="#231F20" d="M-297.9,385.5l2,9.3h-1.2l-0.3-1.8h-1.9l-0.3,1.8h-1.2l2-9.3H-297.9z M-297.9,390.7l-0.5-3.4h0l-0.7,4.7
				h1.5L-297.9,390.7z"/>
			<path fill="#231F20" d="M-292.2,385.5v1.1h-1.4v8.2h-1.2v-8.2h-1.5v-1.1H-292.2z"/>
			<path fill="#231F20" d="M-290.3,394.8h-1.2v-9.3h1.2V394.8z"/>
			<path fill="#231F20" d="M-284.2,390.2c0,1.7,0,4.8-2.4,4.8c-2.4,0-2.4-3.1-2.4-4.8s0-4.8,2.4-4.8
				C-284.2,385.4-284.2,388.5-284.2,390.2z M-287.7,390.2c0,2,0.1,3.6,1.1,3.6c1,0,1.1-1.6,1.1-3.6s-0.1-3.6-1.1-3.6
				C-287.6,386.6-287.7,388.2-287.7,390.2z"/>
			<path fill="#231F20" d="M-281.9,388.3l0.2,3.1v3.4h-1.2v-9.3h1.2l2.2,7.1l0,0l-0.3-3.7v-3.3h1.2v9.3h-1.1l-2.2-7.2l0,0
				L-281.9,388.3z"/>
			<path fill="#231F20" d="M-270.8,385.1c-0.4-0.3-0.8-0.5-1.3-0.5c-0.8,0-1.4,0.7-1.4,1.5c0,0.5,0.1,0.9,0.4,1.3l1.2,1.3
				c1,1.1,1.6,1.8,1.6,3.4c0,1.6-1,3-2.7,3c-0.6,0-1.2-0.2-1.7-0.6v-1.5c0.5,0.3,0.9,0.6,1.5,0.6c1,0,1.4-0.8,1.4-1.6
				c0-2.3-3.2-2.8-3.2-5.8c0-1.6,0.9-3,2.6-3c0.6,0,1.1,0.1,1.6,0.4L-270.8,385.1z"/>
			<path fill="#231F20" d="M-265.8,385.5v1.1h-2.1v2.9h1.9v1.1h-1.9v3.2h2.1v1.1h-3.3v-9.3C-269.1,385.5-265.8,385.5-265.8,385.5z"
				/>
			<path fill="#231F20" d="M-264.8,385.5h1.5c0.9,0,2.3,0,2.3,2.4c0,0.9-0.3,2.2-1.3,2.4l1.7,4.5h-1.3l-1.7-4.6h0v4.6h-1.2
				L-264.8,385.5L-264.8,385.5z M-262.3,388.2c0-0.9-0.1-1.6-1.1-1.6h-0.2v3.1C-262.7,389.7-262.3,389.1-262.3,388.2z"/>
			<path fill="#231F20" d="M-259.2,385.5l1.1,7h0l0.1-0.6l0.5-3.1l0.6-3.3h1.2l-1.8,9.3h-1l-1.8-9.3H-259.2z"/>
			<path fill="#231F20" d="M-253.8,394.8h-1.2v-9.3h1.2V394.8z"/>
			<path fill="#231F20" d="M-248.7,386.8c-0.2-0.1-0.5-0.2-0.8-0.2c-1.7,0-1.7,2.5-1.7,3.7c0,1.2,0.1,3.6,1.8,3.6
				c0.3,0,0.5-0.1,0.7-0.2v1.1c-0.3,0.2-0.6,0.3-1,0.3c-2.5,0-2.9-2.7-2.9-4.6c0-1.9,0.2-4.9,2.8-4.9c0.4,0,0.7,0.1,1.1,0.3
				L-248.7,386.8L-248.7,386.8z"/>
			<path fill="#231F20" d="M-244.4,385.5v1.1h-2.1v2.9h1.9v1.1h-1.9v3.2h2.1v1.1h-3.3v-9.3C-247.7,385.5-244.4,385.5-244.4,385.5z"
				/>
		</g>
	</g>
</g>
</svg>
