<?xml version="1.0" encoding="UTF-8" standalone="no"?>
<!-- Created with Inkscape (http://www.inkscape.org/) -->

<svg
   xmlns:dc="http://purl.org/dc/elements/1.1/"
   xmlns:cc="http://creativecommons.org/ns#"
   xmlns:rdf="http://www.w3.org/1999/02/22-rdf-syntax-ns#"
   xmlns:svg="http://www.w3.org/2000/svg"
   xmlns="http://www.w3.org/2000/svg"
   xmlns:sodipodi="http://sodipodi.sourceforge.net/DTD/sodipodi-0.dtd"
   xmlns:inkscape="http://www.inkscape.org/namespaces/inkscape"
   id="svg2"
   version="1.1"
   inkscape:version="0.48.5 r10040"
   width="270"
   height="120.12112"
   xml:space="preserve"
   sodipodi:docname="Pebble.svg"><metadata
     id="metadata8"><rdf:RDF><cc:Work
         rdf:about=""><dc:format>image/svg+xml</dc:format><dc:type
           rdf:resource="http://purl.org/dc/dcmitype/StillImage" /><dc:title></dc:title></cc:Work></rdf:RDF></metadata><defs
     id="defs6" /><sodipodi:namedview
     pagecolor="#ffffff"
     bordercolor="#666666"
     borderopacity="1"
     objecttolerance="10"
     gridtolerance="10"
     guidetolerance="10"
     inkscape:pageopacity="0"
     inkscape:pageshadow="2"
     inkscape:window-width="1855"
     inkscape:window-height="1056"
     id="namedview4"
     showgrid="false"
     inkscape:zoom="1.3888889"
     inkscape:cx="135"
     inkscape:cy="60.0625"
     inkscape:window-x="65"
     inkscape:window-y="24"
     inkscape:window-maximized="1"
     inkscape:current-layer="g10"
     fit-margin-top="20"
     fit-margin-bottom="20"
     fit-margin-left="0"
     fit-margin-right="0" /><g
     id="g10"
     inkscape:groupmode="layer"
     inkscape:label="ink_ext_XXXXXX"
     transform="matrix(1.25,0,0,-1.25,0,100.12113)"><g
       id="g12"
       transform="scale(0.1,0.1)"><path
         d="m 326.902,297.473 0,1.492 c 0,96.476 -67.031,158.437 -144.043,158.437 -76.316,0 -149.7652,-64.218 -149.7652,-157.785 l 0,-1.402 c 0,-94.406 73.4492,-157.688 149.7652,-157.688 79.922,0 144.043,58.313 144.043,156.946 z M 0,482.527 l 35.207,0 0,-82.027 c 31.7266,48.277 78.516,90.652 151.258,90.652 88.594,0 178.594,-71.25 178.594,-190.781 l 0,-1.406 c 0,-119.617 -90,-192.371 -178.594,-192.371 -73.445,0 -120.9377,41.719 -151.258,87.84 L 35.207,0 0,0 0,482.527"
         style="fill:#231f20;fill-opacity:1;fill-rule:nonzero;stroke:none"
         id="path14"
         inkscape:connector-curvature="0" /><path
         d="m 1171.59,297.473 0,1.492 c 0,96.476 -66.93,158.437 -144.04,158.437 -76.273,0 -149.769,-64.218 -149.769,-157.785 l 0,-1.402 c 0,-94.406 73.496,-157.688 149.769,-157.688 80.01,0 144.04,58.313 144.04,156.946 z m -291.61,-103.039 0,-79.219 -35.292,0 0,525.754 35.292,0 0,-240.469 c 31.641,48.277 78.516,90.652 151.17,90.652 88.6,0 178.69,-71.25 178.69,-190.781 l 0,-1.406 c 0,-119.617 -90.09,-192.371 -178.69,-192.371 -73.447,0 -120.935,41.719 -151.17,87.84"
         style="fill:#231f20;fill-opacity:1;fill-rule:nonzero;stroke:none"
         id="path16"
         inkscape:connector-curvature="0" /><path
         d="m 1606.92,297.473 0,1.492 c 0,96.476 -66.89,158.437 -143.95,158.437 -76.36,0 -149.82,-64.218 -149.82,-157.785 l 0,-1.402 c 0,-94.406 73.46,-157.688 149.82,-157.688 79.87,0 143.95,58.313 143.95,156.946 z m -291.56,-103.039 0,-79.219 -35.39,0 0,525.754 35.39,0 0,-240.469 c 31.64,48.277 78.42,90.652 151.17,90.652 88.6,0 178.6,-71.25 178.6,-190.781 l 0,-1.406 c 0,-119.617 -90,-192.371 -178.6,-192.371 -73.5,0 -121.03,41.719 -151.17,87.84"
         style="fill:#231f20;fill-opacity:1;fill-rule:nonzero;stroke:none"
         id="path18"
         inkscape:connector-curvature="0" /><path
         d="m 1715.34,115.215 35.2617,0 0,525.754 -35.2617,0 0,-525.754 z"
         style="fill:#231f20;fill-opacity:1;fill-rule:nonzero;stroke:none"
         id="path20"
         inkscape:connector-curvature="0" /><path
         d="m 731.25,363.098 c -16.824,53.804 -57.187,95.711 -123.145,95.711 -72.746,0 -128.906,-61.219 -135.417,-142.586 l 0,-22.5 258.562,69.375 z M 475.781,261.465 c 14.903,-77.344 75.188,-121.688 140.996,-121.688 56.868,0 95.774,25.125 126.004,57.567 l 24.465,-21.563 c -37.402,-40.41 -81.418,-69.187 -151.965,-69.187 -96.472,0 -180,77.058 -180,191.621 l 0,1.402 c 0,106.606 74.907,191.535 174.282,191.535 83.718,0 142.683,-55.214 161.816,-134.25 1.258,-5.054 2.242,-10.125 3.133,-15.371 L 475.781,261.465"
         style="fill:#231f20;fill-opacity:1;fill-rule:nonzero;stroke:none"
         id="path22"
         inkscape:connector-curvature="0" /><path
         d="m 2116.78,363.098 c -16.88,53.804 -57.28,95.711 -123.14,95.711 -72.8,0 -128.95,-61.219 -135.47,-142.586 l 0,-22.5 258.61,69.375 z M 1861.22,261.465 c 14.9,-77.344 75.24,-121.688 141,-121.688 56.9,0 95.81,25.125 126.09,57.567 l 24.38,-21.563 c -37.41,-40.41 -81.38,-69.187 -151.88,-69.187 -96.56,0 -180.05,77.058 -180.05,191.621 l 0,1.402 c 0,106.606 74.91,191.535 174.29,191.535 83.76,0 142.73,-55.214 161.85,-134.25 1.23,-5.054 2.21,-10.125 3.1,-15.371 l -298.78,-80.066"
         style="fill:#231f20;fill-opacity:1;fill-rule:nonzero;stroke:none"
         id="path24"
         inkscape:connector-curvature="0" /></g></g></svg>