<?xml version="1.0" encoding="utf-8"?>
<!-- Generator: Adobe Illustrator 18.1.1, SVG Export Plug-In . SVG Version: 6.00 Build 0)  -->
<svg version="1.1"
	 id="Layer_1" xmlns:dc="http://purl.org/dc/elements/1.1/" xmlns:svg="http://www.w3.org/2000/svg" xmlns:rdf="http://www.w3.org/1999/02/22-rdf-syntax-ns#" xmlns:cc="http://creativecommons.org/ns#"
	 xmlns="http://www.w3.org/2000/svg" xmlns:xlink="http://www.w3.org/1999/xlink" x="0px" y="0px" width="92px" height="29.5px"
	 viewBox="-432.7 346.2 92 29.5" enable-background="new -432.7 346.2 92 29.5" xml:space="preserve">
<g>
	<path fill="#FFFFFF" d="M-405.5,368.9c-0.6-0.1-1.2-0.2-1.8-0.2c-1,0-2,0.2-2.7,0.5c-0.1,0-0.1,0.1-0.1,0.2c0,0,0,0.1,0,0.1
		c0.1,0.2-0.1,0.5-0.7,0.6c-1,0.2-1.6,1.3-2,1.6c-0.4,0.4-1.6,0.7-1.5,0.4c0.1-0.2,0.7-0.8,1-1.4c0.3-0.6,0.6-0.7,0.9-1.3
		c0.1-0.2,0.5-0.7,0.6-1.2c0.1-0.4,0.1-1,0.1-1.2c0.1-0.3,0.4-1,0.4-1.4c0-0.2-0.9,0.3-1.4,0.3s-0.9-0.3-1.3-0.3
		c-0.5,0-0.8,0.4-1.3,0.3c-0.3,0-0.5-0.3-0.9-0.3c-0.6,0-1.4,0.4-2.9,0.3c-1.4,0-2.8-1.8-2.9-2.1c-0.2-0.3-0.5-0.3-0.8-0.1
		c-0.3,0.3-0.6,0.1-0.7-0.1c-0.2-0.3-0.7-1.3-1.5-1.5c-1.1-0.3-1.6,0.6-1.6,1.3c0.1,0.7,0.5,0.9,0.7,1.3c0.2,0.4,0.3,0.6,0.7,0.8
		c0.3,0.1,0.4,0.3,0.3,0.5c-0.1,0.2-0.4,0.2-0.6,0.3c-0.4,0-0.7-0.1-0.9-0.2c-0.2-0.2-0.4-0.4-0.7-0.7c-0.2-0.4-0.6-0.6-1.1-0.6
		c-0.2,0-0.4,0.1-0.6,0.1c-0.7,0.4-1.6,0.6-2.5,0.6l-1,0c2,5.8,7.5,10,14,10C-412.7,375.7-408.1,373-405.5,368.9"/>
	<path d="M-405.5,368.9c-0.6-0.1-1.2-0.2-1.8-0.2c-1,0-2,0.2-2.7,0.5c-0.1,0-0.1,0.1-0.1,0.2c0,0,0,0.1,0,0.1
		c0.1,0.2-0.1,0.5-0.7,0.7c-1,0.2-1.6,1.3-2,1.6c-0.4,0.4-1.6,0.7-1.5,0.4c0.1-0.2,0.7-0.8,1-1.4c0.3-0.6,0.6-0.7,0.9-1.3
		c0.1-0.2,0.5-0.7,0.6-1.2c0.1-0.4,0.1-1,0.1-1.2c0.1-0.3,0.4-1,0.4-1.4c0-0.2-0.9,0.3-1.4,0.3s-0.9-0.3-1.3-0.3
		c-0.5,0-0.8,0.4-1.3,0.3c-0.3,0-0.5-0.3-0.9-0.3c-0.6,0-1.4,0.4-2.9,0.3c-1.4,0-2.8-1.8-2.9-2.1c-0.2-0.3-0.5-0.3-0.8-0.1
		c-0.3,0.3-0.6,0.1-0.7-0.1c-0.2-0.3-0.7-1.3-1.5-1.5c-1.1-0.3-1.6,0.6-1.6,1.3c0.1,0.7,0.5,0.9,0.7,1.3c0.2,0.4,0.3,0.6,0.7,0.8
		c0.3,0.1,0.4,0.3,0.3,0.5c-0.1,0.2-0.4,0.2-0.6,0.3c-0.4,0-0.7-0.1-0.9-0.2c-0.2-0.2-0.4-0.4-0.7-0.7c-0.2-0.4-0.6-0.6-1.1-0.6
		c-0.2,0-0.4,0.1-0.6,0.1c-0.7,0.4-1.6,0.6-2.5,0.6h-1c-0.5-1.5-0.8-3.1-0.8-4.7c0-8.2,6.6-14.8,14.8-14.8c8.2,0,14.8,6.6,14.8,14.8
		C-403.1,363.9-404,366.6-405.5,368.9"/>
	<path d="M-414.7,367.6c0.1,0.1,0.2,0.3,0,0.6c-0.1,0.2-0.2,0.3-0.4,0.4c-0.2,0.2-0.6,0.4-1.2,0c-0.3-0.2-0.3-0.3-0.7-0.2
		c-0.3,0-0.4-0.3-0.3-0.5c0.1-0.2,0.5-0.4,1.1-0.1c0.2,0.1,0.6,0.4,1,0.2C-415,367.9-414.9,367.8-414.7,367.6
		C-414.7,367.6-414.7,367.6-414.7,367.6C-414.7,367.6-414.7,367.6-414.7,367.6"/>
	<path fill="#E93442" d="M-419.1,353.2c-1.7,0.1-1.9,0.3-2.2,0.6c-0.5,0.5-1-0.6-1-0.6c-0.4-0.1-0.8-0.6-0.6-1.2
		c0.2-0.5,0.7-0.4,0.8-0.2c0.2,0.2,0.5,0.5,1,0.5s1-0.1,1.7-0.1c0.7,0,1.2,0.3,1.2,0.5C-418.2,352.9-418.2,353.1-419.1,353.2
		 M-417.3,350.4L-417.3,350.4C-417.3,350.4-417.3,350.3-417.3,350.4C-417.3,350.3-417.3,350.3-417.3,350.4c0.3-0.3,0.8-0.4,1.4-0.5
		c0.2,0,0.3,0,0.5,0h0.1c0.9,0,1.7,0.4,1.7,0.8c0,0.4-0.8,0.8-1.7,0.8c-0.3,0-0.6-0.1-0.8-0.1c0,0-0.1,0-0.1-0.1c0,0,0-0.1,0.1-0.1
		c0.6-0.1,1-0.4,1-0.6c0-0.3-0.8-0.4-1.7-0.3C-417.1,350.3-417.2,350.4-417.3,350.4 M-409.6,357c-0.1,0.5-0.4,1.1-1.3,1.6
		c-0.1,0.1-0.2,0-0.1-0.1c0.4-0.6,0.4-0.7,0.5-1c0.1-0.3,0.2-0.8-0.1-1.8c-0.6-2-1.7-4.7-2.6-5.5c-0.8-0.8-2.3-1.1-3.6-0.7
		c-0.5,0.1-1.4,0.6-3.2,0.2c-3.1-0.7-3.5,0.8-3.7,1.5c-0.2,0.7-0.6,2.6-0.6,2.6c-0.1,0.8-0.3,2.1,4.5,3c2.2,0.4,2.3,1,2.4,1.4
		c0.2,0.7,0.5,1.2,0.8,1.4c0.3,0.2,0,0.4-0.4,0.4c-0.9,0.1-4.5-0.9-6.5-2.1c-1.7-1-1.7-2-1.3-2.8c-2.6-0.3-4.5,0.2-4.8,1.5
		c-0.6,2.1,4.6,5.6,10.5,7.4c6.2,1.9,12.5,0.6,13.3-3.3C-405.6,358.9-407.1,357.6-409.6,357"/>
	<g id="g3880">
		<path d="M-403.3,368.1h0.1l0.2,0.3h0.1l-0.2-0.3c0.1,0,0.2-0.1,0.2-0.2c0-0.2-0.1-0.2-0.3-0.2h-0.3v0.8h0.1
			C-403.3,368.5-403.3,368.1-403.3,368.1z M-403.3,368.1v-0.2h0.2c0.1,0,0.2,0,0.2,0.1c0,0.1-0.1,0.1-0.2,0.1H-403.3z"/>
		<path d="M-402.4,368.1c0,0.4-0.3,0.7-0.7,0.7c-0.4,0-0.7-0.3-0.7-0.7c0-0.4,0.3-0.7,0.7-0.7C-402.7,367.4-402.4,367.7-402.4,368.1
			 M-403.1,367.5c-0.3,0-0.6,0.3-0.6,0.6c0,0.3,0.3,0.6,0.6,0.6c0.3,0,0.6-0.3,0.6-0.6C-402.5,367.8-402.8,367.5-403.1,367.5"/>
	</g>
	<path d="M-395.6,361.8c0-1.4,0-2.3-0.1-3.2h2.2l0.1,1.9h0.1c0.5-1.4,1.7-2.1,2.8-2.1c0.2,0,0.4,0,0.6,0.1v2.4
		c-0.2,0-0.5-0.1-0.8-0.1c-1.2,0-2.1,0.8-2.3,1.9c0,0.2-0.1,0.5-0.1,0.8v5.2h-2.6C-395.6,368.7-395.6,361.8-395.6,361.8z"/>
	<path d="M-386.9,364.3c0.1,1.8,1.5,2.6,3.1,2.6c1.2,0,2-0.2,2.8-0.5l0.4,1.8c-0.9,0.4-2.1,0.6-3.5,0.6c-3.3,0-5.2-2-5.2-5.1
		c0-2.8,1.7-5.4,4.9-5.4c3.3,0,4.4,2.7,4.4,4.9c0,0.5,0,0.9-0.1,1.1L-386.9,364.3z M-382.4,362.6c0-0.9-0.4-2.5-2.1-2.5
		c-1.6,0-2.2,1.4-2.3,2.5C-386.9,362.6-382.4,362.6-382.4,362.6z"/>
	<path d="M-371.5,364.3c0,0.3,0,0.5-0.1,0.7c-0.3,1.1-1.2,1.8-2.2,1.8c-1.6,0-2.5-1.4-2.5-3.2c0-1.9,0.9-3.3,2.6-3.3
		c1.2,0,2,0.8,2.2,1.8c0,0.2,0.1,0.5,0.1,0.7C-371.5,362.8-371.5,364.3-371.5,364.3z M-369,354.7l-2.6-0.7v5.7h0
		c-0.5-0.7-1.5-1.3-2.8-1.3c-2.4,0-4.6,2-4.5,5.4c0,3.1,1.9,5.2,4.3,5.2c1.5,0,2.7-0.7,3.3-1.8h0l0.1,1.6h2.3c0-0.7-0.1-1.8-0.1-2.8
		V354.7z"/>
	<path d="M-362.2,358.4c-0.8,0-1.5,0.2-2,0.6c-0.6,0.4-1.1,0.9-1.4,1.5h0v-4.7l-1-0.3v13.3h1v-6.2c0-0.4,0-0.7,0.1-1
		c0.4-1.3,1.6-2.3,3.1-2.3c2.1,0,2.8,1.7,2.8,3.5v6h1v-6.1C-358.7,358.8-361.3,358.4-362.2,358.4"/>
	<path d="M-349.7,366.3c0,0.8,0,1.6,0.1,2.4h-0.9l-0.1-1.4h0c-0.5,0.8-1.6,1.7-3.2,1.7c-2,0-3-1.4-3-2.8c0-2.3,2.1-3.7,6.2-3.7v-0.3
		c0-1-0.2-3-2.6-3c-0.9,0-1.8,0.2-2.5,0.8l-0.3-0.7c0.9-0.6,2.1-0.9,3-0.9c2.9,0,3.5,2.2,3.5,4
		C-349.7,362.4-349.7,366.3-349.7,366.3z M-350.7,363.3c-2.2-0.1-5.1,0.3-5.1,2.7c0,1.5,1,2.1,2,2.1c1.7,0,2.6-1,3-2
		c0.1-0.2,0.1-0.4,0.1-0.6C-350.7,365.5-350.7,363.3-350.7,363.3z"/>
	<path d="M-345.7,356.4v2.2h2.9v0.8h-2.9v6.6c0,1.3,0.4,2.1,1.5,2.1c0.5,0,0.9-0.1,1.1-0.2l0.1,0.8c-0.3,0.1-0.8,0.2-1.4,0.2
		c-0.7,0-1.4-0.2-1.7-0.7c-0.5-0.5-0.6-1.4-0.6-2.4v-6.4h-1.7v-0.8h1.7v-1.9L-345.7,356.4z"/>
	<g id="use3884" transform="translate(61.7183,0.0205)">
		<g id="g3880_1_">
			<path d="M-341.6,368.2h0.1l0.2,0.3h0.1l-0.2-0.3c0.1,0,0.2-0.1,0.2-0.2c0-0.2-0.1-0.2-0.3-0.2h-0.3v0.8h0.1
				C-341.6,368.5-341.6,368.2-341.6,368.2z M-341.6,368.1v-0.2h0.2c0.1,0,0.2,0,0.2,0.1c0,0.1-0.1,0.1-0.2,0.1H-341.6z"/>
			<path d="M-340.7,368.1c0,0.4-0.3,0.7-0.7,0.7s-0.7-0.3-0.7-0.7c0-0.4,0.3-0.7,0.7-0.7S-340.7,367.7-340.7,368.1 M-341.4,367.5
				c-0.3,0-0.6,0.3-0.6,0.6c0,0.3,0.3,0.6,0.6,0.6c0.3,0,0.6-0.3,0.6-0.6C-340.8,367.8-341.1,367.5-341.4,367.5"/>
		</g>
	</g>
</g>
</svg>
