<?xml version="1.0" encoding="utf-8"?>
<!-- Generator: Adobe Illustrator 16.0.3, SVG Export Plug-In . SVG Version: 6.00 Build 0)  -->
<!DOCTYPE svg PUBLIC "-//W3C//DTD SVG 1.1//EN" "http://www.w3.org/Graphics/SVG/1.1/DTD/svg11.dtd">
<svg version="1.1" xmlns="http://www.w3.org/2000/svg" xmlns:xlink="http://www.w3.org/1999/xlink" x="0px" y="0px" width="157px"
	 height="100px" viewBox="0 0 157 100" enable-background="new 0 0 157 100" xml:space="preserve">
<g id="guides">
</g>
<g id="Layer_2">
	<g>
		<g>
			<g>
				<polygon fill="#250E0B" points="30.379,51.379 43.131,33.698 51.312,49.971 				"/>
			</g>
			<g>
				<polygon fill="#66130C" points="51.678,55.04 30.379,51.379 51.312,49.971 				"/>
			</g>
			<g>
				<polyline fill="#33120E" points="62.294,61.458 51.678,55.04 51.312,49.971 				"/>
			</g>
			<g>
				<polygon fill="#8D181B" points="62.294,61.458 48.416,76.248 51.678,55.04 				"/>
			</g>
			<g>
				<polygon fill="#700F12" points="67.393,69.565 48.416,76.248 62.294,61.458 				"/>
			</g>
			<g>
				<polygon fill="#3C160B" points="67.393,69.565 62.294,61.458 77.417,62.058 				"/>
			</g>
			<g>
				<polygon fill="#871719" points="78.02,77 67.393,69.565 77.417,62.058 				"/>
			</g>
			<g>
				<polygon fill="#49140F" points="98.481,77 78.02,77 77.417,62.058 				"/>
			</g>
			<g>
				<polygon fill="#250D0B" points="98.481,77 77.417,62.058 88.249,56.09 				"/>
			</g>
			<g>
				<polygon fill="#7F1917" points="98.481,77 88.249,56.09 97.053,49.971 				"/>
			</g>
			<g>
				<polygon fill="#9E1C20" points="122.781,43.514 113.075,40.571 136.998,40.571 				"/>
			</g>
			<g>
				<polygon fill="#991E1F" points="24.021,51.043 30.379,51.379 25.742,45.468 				"/>
			</g>
			<g>
				<polygon fill="#25130A" points="88.249,56.09 89.078,40.571 97.053,49.971 				"/>
			</g>
			<g>
				<polygon fill="#250D0B" points="30.376,51.379 24.021,51.043 28.65,56.743 				"/>
			</g>
			<g>
				<polygon fill="#53120C" points="78.846,48.995 89.078,40.571 88.249,56.09 				"/>
			</g>
			<g>
				<polygon fill="#831618" points="77.417,62.058 78.846,48.995 88.249,56.09 				"/>
			</g>
			<g>
				<polygon fill="#5D140B" points="62.294,61.458 78.846,48.995 77.417,62.058 				"/>
			</g>
			<g>
				<polygon fill="#991E1F" points="51.312,49.971 78.846,48.995 62.294,61.458 				"/>
			</g>
			<g>
				<polygon fill="#991E1F" points="43.131,33.698 55.355,35.556 51.312,49.971 				"/>
			</g>
			<g>
				<polygon fill="#30170D" points="55.355,35.556 54.695,47.036 51.312,49.971 				"/>
			</g>
			<g>
				<polygon fill="#4A170D" points="72.983,31.17 78.846,48.995 51.312,49.971 				"/>
			</g>
			<g>
				<polygon fill="#741112" points="72.983,31.17 79.41,30.751 78.846,48.995 				"/>
			</g>
			<g>
				<polygon fill="#9E1C20" points="79.41,30.751 89.078,40.571 78.846,48.995 				"/>
			</g>
			<g>
				<polygon fill="#6B0D0E" points="79.41,30.751 87.948,23.844 89.078,40.571 				"/>
			</g>
			<g>
				<polygon fill="#280F0D" points="87.948,23.844 99.76,25.646 89.078,40.571 				"/>
			</g>
			<g>
				<polygon fill="#53120C" points="99.76,25.646 102.796,34.955 89.078,40.571 				"/>
			</g>
			<g>
				<polygon fill="#961B1E" points="102.796,34.955 97.053,49.971 89.078,40.571 				"/>
			</g>
			<g>
				<polygon fill="#AC1E23" points="102.796,34.955 111.608,52.074 97.053,49.971 				"/>
			</g>
			<g>
				<polygon fill="#54130B" points="113.075,40.571 111.608,52.074 102.796,34.955 				"/>
			</g>
			<g>
				<polygon fill="#280F0D" points="122.781,43.514 111.608,52.074 113.075,40.571 				"/>
			</g>
			<g>
				<polygon fill="#3B140E" points="97.053,49.971 111.608,52.074 98.481,77 				"/>
			</g>
			<g>
				<polygon fill="#210D0C" points="111.608,52.074 122.027,58.531 98.481,77 				"/>
			</g>
			<g>
				<polygon fill="#6B160F" points="122.781,43.514 122.027,58.531 111.608,52.074 				"/>
			</g>
			<g>
				<polygon fill="#B01F24" points="122.781,43.514 136.998,40.571 122.027,58.531 				"/>
			</g>
			<g>
				<polygon fill="#210D0B" points="72.983,31.17 54.695,47.036 55.355,35.556 				"/>
			</g>
			<g>
				<polygon fill="#A22021" points="72.983,31.17 55.355,35.556 61.891,23 				"/>
			</g>
			<g>
				<polygon fill="#33120E" points="46.827,57.133 50.047,65.645 51.678,55.04 				"/>
			</g>
			<g>
				<polyline fill="#73191B" points="39.802,60.163 25.414,66.808 30.377,51.375 39.802,60.163 				"/>
			</g>
			<g>
				<polygon fill="#421211" points="39.802,60.163 30.379,51.379 51.678,55.04 				"/>
			</g>
			<g>
				<polygon fill="#73191B" points="43.131,33.698 30.379,51.379 19.998,38.148 				"/>
			</g>
		</g>
		<g>
			<path fill="#FFFFFF" d="M31.763,46.782c-1.487,0-2.229,0.536-2.229,1.606c0,0.492,0.162,0.838,0.492,1.039
				c0.327,0.202,1.067,0.4,2.22,0.596c1.152,0.196,1.966,0.462,2.438,0.803s0.71,0.993,0.71,1.955c0,0.966-0.309,1.672-0.927,2.119
				s-1.525,0.67-2.723,0.67c-0.693,0-1.587-0.087-2.684-0.266l-0.549-0.075l0.076-1c1.411,0.214,2.495,0.32,3.25,0.32
				c0.757,0,1.346-0.132,1.768-0.397c0.422-0.265,0.633-0.71,0.633-1.342c0-0.63-0.172-1.048-0.519-1.255
				c-0.347-0.208-1.091-0.4-2.231-0.577c-1.14-0.176-1.941-0.429-2.409-0.757c-0.466-0.327-0.698-0.944-0.698-1.853
				c0-0.907,0.32-1.568,0.964-1.984c0.641-0.415,1.436-0.622,2.38-0.622c0.757,0,1.702,0.082,2.836,0.244l0.511,0.077l-0.038,1.001
				C33.684,46.884,32.595,46.782,31.763,46.782z"/>
			<path fill="#FFFFFF" d="M42.461,46.934h-3.156v4.668c0,1.224,0.089,2.022,0.266,2.399c0.176,0.377,0.592,0.568,1.247,0.568
				l1.737-0.133l0.076,0.964c-0.832,0.126-1.467,0.189-1.907,0.189c-0.959,0-1.623-0.237-1.995-0.708
				c-0.373-0.474-0.558-1.378-0.558-2.715v-5.233h-1.398v-1.002h1.398v-2.967h1.134v2.967h3.156V46.934z"/>
			<path fill="#FFFFFF" d="M50.739,48.748v5.064c0.05,0.467,0.46,0.744,1.229,0.832l-0.057,0.907c-0.971,0-1.683-0.252-2.136-0.756
				c-1.186,0.517-2.369,0.774-3.553,0.774c-0.846,0-1.487-0.243-1.929-0.727c-0.44-0.486-0.661-1.179-0.661-2.08
				c0-0.899,0.223-1.568,0.67-2.003c0.447-0.436,1.149-0.7,2.108-0.803l3.213-0.32v-0.89c0-0.704-0.154-1.213-0.463-1.521
				s-0.722-0.463-1.238-0.463c-0.807,0-1.853,0.075-3.138,0.226L44.2,47.047l-0.057-0.907c1.386-0.265,2.599-0.396,3.637-0.396
				c1.041,0,1.793,0.245,2.259,0.737C50.506,46.971,50.739,47.728,50.739,48.748z M44.805,52.697c0,1.273,0.522,1.91,1.568,1.91
				c0.454,0,0.951-0.054,1.493-0.162c0.542-0.106,0.971-0.216,1.285-0.329l0.473-0.172v-3.42l-3.08,0.32
				c-0.618,0.051-1.063,0.229-1.333,0.529C44.939,51.677,44.805,52.118,44.805,52.697z"/>
			<path fill="#FFFFFF" d="M53.668,55.382v-9.45h1.116v1.361c0.465-0.329,1.036-0.643,1.709-0.946
				c0.674-0.302,1.295-0.502,1.863-0.604v1.134c-0.543,0.112-1.11,0.287-1.702,0.521c-0.593,0.232-1.053,0.437-1.38,0.613
				l-0.49,0.284v7.087H53.668z"/>
			<path fill="#FFFFFF" d="M64.858,46.934H61.7v4.668c0,1.224,0.088,2.022,0.265,2.399s0.592,0.568,1.247,0.568l1.74-0.133
				l0.076,0.964c-0.832,0.126-1.47,0.189-1.91,0.189c-0.957,0-1.623-0.237-1.994-0.708c-0.372-0.474-0.558-1.378-0.558-2.715v-5.233
				h-1.399v-1.002h1.399v-2.967H61.7v2.967h3.158V46.934z"/>
			<path fill="#FFFFFF" d="M72.606,45.932h1.114v9.45h-1.114v-0.7c-0.971,0.593-1.94,0.889-2.91,0.889
				c-1.285,0-2.134-0.327-2.543-0.982c-0.41-0.655-0.614-1.897-0.614-3.723v-4.934h1.115v4.913c0,1.462,0.135,2.446,0.406,2.949
				c0.271,0.505,0.859,0.756,1.768,0.756c0.44,0,0.895-0.064,1.361-0.198c0.467-0.133,0.817-0.269,1.057-0.407l0.36-0.188V45.932z"
				/>
			<path fill="#FFFFFF" d="M76.556,59.635V45.932h1.116v0.719c0.983-0.605,2.018-0.907,3.108-0.907c1.09,0,1.902,0.385,2.438,1.152
				c0.536,0.769,0.803,2.021,0.803,3.752c0,1.732-0.313,2.986-0.943,3.761c-0.631,0.774-1.676,1.162-3.138,1.162
				c-0.782,0-1.538-0.083-2.268-0.245v4.31H76.556z M80.544,46.764c-0.415,0-0.863,0.068-1.342,0.207
				c-0.479,0.14-0.851,0.284-1.114,0.437l-0.416,0.208v6.727c0.856,0.151,1.6,0.228,2.229,0.228c1.084,0,1.848-0.305,2.288-0.917
				c0.44-0.611,0.661-1.618,0.661-3.023c0-1.404-0.192-2.4-0.577-2.987C81.889,47.055,81.313,46.764,80.544,46.764z"/>
			<path fill="#FFFFFF" d="M93.453,46.782c-1.488,0-2.231,0.536-2.231,1.606c0,0.492,0.165,0.838,0.491,1.039
				c0.327,0.202,1.068,0.4,2.223,0.596c1.152,0.196,1.966,0.462,2.438,0.803c0.473,0.341,0.71,0.993,0.71,1.955
				c0,0.966-0.311,1.672-0.927,2.119c-0.619,0.447-1.524,0.67-2.722,0.67c-0.694,0-1.588-0.087-2.685-0.266l-0.549-0.075l0.076-1
				c1.409,0.214,2.494,0.32,3.251,0.32s1.346-0.132,1.768-0.397c0.422-0.265,0.633-0.71,0.633-1.342c0-0.63-0.172-1.048-0.52-1.255
				c-0.347-0.208-1.09-0.4-2.23-0.577c-1.142-0.176-1.944-0.429-2.411-0.757c-0.465-0.327-0.698-0.944-0.698-1.853
				c0-0.907,0.321-1.568,0.964-1.984c0.644-0.415,1.437-0.622,2.383-0.622c0.756,0,1.699,0.082,2.833,0.244l0.512,0.077
				l-0.038,1.001C95.374,46.884,94.285,46.782,93.453,46.782z"/>
			<path fill="#FFFFFF" d="M100.482,55.382h-1.114V41.736h1.114v4.744c1.059-0.492,2.081-0.737,3.063-0.737
				c1.261,0,2.102,0.333,2.523,1.002c0.422,0.667,0.633,1.889,0.633,3.666v4.971h-1.134v-4.915c0-1.446-0.136-2.427-0.406-2.938
				c-0.271-0.51-0.86-0.766-1.768-0.766c-0.441,0-0.904,0.053-1.389,0.16c-0.486,0.108-0.859,0.217-1.124,0.331l-0.398,0.152V55.382
				z"/>
			<path fill="#FFFFFF" d="M115.698,54.437l0.566-0.059l0.038,0.927c-1.424,0.179-2.627,0.266-3.609,0.266
				c-1.362-0.014-2.313-0.414-2.854-1.209c-0.542-0.794-0.812-2.016-0.812-3.668c0-3.3,1.296-4.95,3.893-4.95
				c1.247,0,2.18,0.354,2.796,1.067c0.617,0.714,0.928,1.85,0.928,3.411l-0.039,0.908h-6.426c0,1.157,0.199,2.019,0.597,2.579
				c0.396,0.562,1.077,0.841,2.04,0.841S114.739,54.512,115.698,54.437z M110.179,50.185h5.329c0-1.247-0.204-2.136-0.613-2.666
				c-0.409-0.529-1.064-0.793-1.967-0.793c-0.9,0-1.583,0.273-2.05,0.822C110.412,48.095,110.179,48.975,110.179,50.185z"/>
			<path fill="#FFFFFF" d="M119.081,55.382V41.736h1.113v13.646H119.081z"/>
			<path fill="#FFFFFF" d="M123.258,55.382V41.736h1.114v13.646H123.258z"/>
		</g>
	</g>
</g>
</svg>
