<?xml version="1.0" encoding="UTF-8" standalone="no"?>
<!-- Created with Inkscape (http://www.inkscape.org/) -->
<svg id="svg2" xmlns:rdf="http://www.w3.org/1999/02/22-rdf-syntax-ns#" xmlns="http://www.w3.org/2000/svg" xml:space="preserve" height="331.13" width="918.16" version="1.1" xmlns:cc="http://creativecommons.org/ns#" xmlns:dc="http://purl.org/dc/elements/1.1/"><metadata id="metadata8"><rdf:RDF><cc:Work rdf:about=""><dc:format>image/svg+xml</dc:format><dc:type rdf:resource="http://purl.org/dc/dcmitype/StillImage"/><dc:title/></cc:Work></rdf:RDF></metadata><defs id="defs6"><clipPath id="clipPath16" clipPathUnits="userSpaceOnUse"><path id="path18" d="m196.76,368.43-37.652-37.647c10.414,10.408,27.297,10.408,37.705,0l64.323-64.7c10.441-10.433,27.417-10.434,37.854,0,10.439,10.441,10.439,27.424,0,37.852l-64.531,64.495c-5.204,5.205-12.025,7.808-18.847,7.808s-13.645-2.603-18.852-7.808"/></clipPath><linearGradient id="linearGradient24" gradientUnits="userSpaceOnUse" gradientTransform="matrix(102.29195,-102.29195,-102.29195,-102.29195,178.22607,368.18359)"><stop id="stop26" stop-color="#53bae6" offset="0"/><stop id="stop28" stop-color="#6dc185" offset="1"/></linearGradient><clipPath id="clipPath36" clipPathUnits="userSpaceOnUse"><path id="path38" d="m159.11,330.78c-10.284-10.297-10.284-27.036,0-37.321l64.527-64.394c10.437-10.437,10.437-27.419,0-37.854l37.52,37.52c10.416,10.409,10.416,27.292,0,37.702l-64.342,64.347c-5.204,5.204-12.027,7.806-18.851,7.806-6.823,0-13.647-2.602-18.854-7.806"/></clipPath><linearGradient id="linearGradient44" gradientUnits="userSpaceOnUse" gradientTransform="matrix(97.095871,-97.095871,-97.095871,-97.095871,152.55225,318.66943)"><stop id="stop46" stop-color="#63ae7c" offset="0"/><stop id="stop48" stop-color="#47a8d2" offset="1"/></linearGradient><clipPath id="clipPath56" clipPathUnits="userSpaceOnUse"><path id="path58" d="m121.56,293.24c-10.435-10.433-10.435-27.416,0.007-37.853l64.295-64.248c10.408-10.4,27.292-10.4,37.7,0l0.073,0.081c10.437,10.435,10.437,27.417,0,37.854l-64.218,64.166c-5.217,5.218-12.071,7.828-18.926,7.828s-13.711-2.61-18.931-7.828"/></clipPath><linearGradient id="linearGradient64" gradientUnits="userSpaceOnUse" gradientTransform="matrix(102.05165,-102.05165,-102.05165,-102.05165,115.29199,299.53516)"><stop id="stop66" stop-color="#53bae6" offset="0"/><stop id="stop68" stop-color="#6dc185" offset="1"/></linearGradient><clipPath id="clipPath76" clipPathUnits="userSpaceOnUse"><path id="path78" d="m704.57,339.29c-0.948,0-1.626-0.713-1.952-1.402l-49.125-113.24c-0.359-1.133,0.158-2.16,1.299-2.555l1.403-0.452c0.225-0.082,0.45-0.124,0.667-0.124,1.095,0,1.541,0.911,1.725,1.285l14.003,32.533h63.48l13.881-32.59c0.148-0.302,0.597-1.228,1.697-1.228,0.212,0,0.437,0.039,0.636,0.112l1.456,0.474c1.135,0.396,1.635,1.444,1.228,2.66l-48.148,113.2c-0.334,0.639-1.017,1.321-1.928,1.321h-0.322zm0.153-10.24,28.997-68.464-58.752,0,29.755,68.464zm-316.68-20.66c0-20.007,16.192-26.095,34.234-31.027,20.997-5.622,33.153-11.969,33.153-27.76,0-12.951-14.227-23.894-31.068-23.894-11.124,0-21.785,4.075-30.835,11.783l-0.122,0.098c-0.542,0.551-1.127,0.828-1.738,0.828-0.382,0-0.955-0.116-1.514-0.676l-0.601-0.617c-0.49-0.475-0.75-1.037-0.75-1.62,0-0.596,0.256-1.145,0.77-1.646,2.438-2.267,15.571-13.565,34.79-13.565,19.774,0,36.481,13.42,36.481,29.309,0,19.033-13.603,26.544-37.104,33.09-19.183,5.079-30.288,10.912-30.288,25.697,0,16.394,15.363,23.734,30.583,23.734,13.441,0,24.147-6.838,25.412-7.671,1.11-0.553,2.219-0.25,2.9,0.75l0.639,0.963c0.692,1.049,0.421,2.291-0.65,3.015-0.122,0.085-12.219,8.36-28.301,8.36-24.862,0-35.991-14.641-35.991-29.151m389.34,27.552c-1.336,0-2.382-1.051-2.382-2.389v-109.28c0-1.337,1.046-2.386,2.382-2.386h0.637c1.34,0,2.389,1.049,2.389,2.386v36.638h30.272c20.729,0,37.595,16.941,37.595,37.761,0,20.554-16.936,37.272-37.754,37.272h-33.139zm3.026-5.411,30.113,0c17.836,0,32.346-14.291,32.346-31.861,0-17.838-14.439-32.353-32.187-32.353h-30.272v64.214zm-214.42,5.411c-1.342,0-2.395-1.051-2.395-2.389v-109.28c0-1.337,1.053-2.386,2.395-2.386h0.634c1.206,0,2.228,1.094,2.228,2.386v40.144h35.056c1.163,0,2.272,0,3.458,0.091l24.88-41.938c0.394-0.757,1.082-1.208,1.839-1.208,0.245,0,0.469,0.046,0.863,0.202l1.519,0.853c1.03,0.684,1.251,1.924,0.55,2.987l-23.937,40.053c16.687,3.879,28.265,18.197,28.265,35.119,0,19.833-16.518,35.368-37.6,35.368h-37.755zm2.862-5.411,34.893,0c18.434,0,32.337-12.878,32.337-29.957,0-17.323-14.132-30.895-32.174-30.895h-35.056v60.852zm-96.534,5.411c-1.334,0-2.381-1.051-2.381-2.389v-0.632c0-1.338,1.047-2.39,2.381-2.39h31.866v-106.26c0-1.337,1.047-2.386,2.384-2.386h0.633c1.344,0,2.398,1.049,2.398,2.386v106.26h32.176c1.337,0,2.385,1.052,2.385,2.39v0.632c0,1.338-1.048,2.389-2.385,2.389h-69.457z"/></clipPath><linearGradient id="linearGradient84" gradientUnits="userSpaceOnUse" gradientTransform="matrix(460.22754,0,0,-460.22754,388.03516,279.79297)"><stop id="stop86" stop-color="#47a8d2" offset="0"/><stop id="stop88" stop-color="#63ae7c" offset="1"/></linearGradient></defs><g id="g10" transform="matrix(1.25,0,0,-1.25,-142.16578,515.29875)"><g id="g12"><g id="g14" clip-path="url(#clipPath16)"><g id="g20"><g id="g22"><path id="path30" fill="url(#linearGradient24)" d="m196.76,368.43-37.652-37.647c10.414,10.408,27.297,10.408,37.705,0l64.323-64.7c10.441-10.433,27.417-10.434,37.854,0,10.439,10.441,10.439,27.424,0,37.852l-64.531,64.495c-5.204,5.205-12.025,7.808-18.847,7.808s-13.645-2.603-18.852-7.808"/></g></g></g></g><g id="g32"><g id="g34" clip-path="url(#clipPath36)"><g id="g40"><g id="g42"><path id="path50" fill="url(#linearGradient44)" d="m159.11,330.78c-10.284-10.297-10.284-27.036,0-37.321l64.527-64.394c10.437-10.437,10.437-27.419,0-37.854l37.52,37.52c10.416,10.409,10.416,27.292,0,37.702l-64.342,64.347c-5.204,5.204-12.027,7.806-18.851,7.806-6.823,0-13.647-2.602-18.854-7.806"/></g></g></g></g><g id="g52"><g id="g54" clip-path="url(#clipPath56)"><g id="g60"><g id="g62"><path id="path70" fill="url(#linearGradient64)" d="m121.56,293.24c-10.435-10.433-10.435-27.416,0.007-37.853l64.295-64.248c10.408-10.4,27.292-10.4,37.7,0l0.073,0.081c10.437,10.435,10.437,27.417,0,37.854l-64.218,64.166c-5.217,5.218-12.071,7.828-18.926,7.828s-13.711-2.61-18.931-7.828"/></g></g></g></g><g id="g72"><g id="g74" clip-path="url(#clipPath76)"><g id="g80"><g id="g82"><path id="path90" fill="url(#linearGradient84)" d="m704.57,339.29c-0.948,0-1.626-0.713-1.952-1.402l-49.125-113.24c-0.359-1.133,0.158-2.16,1.299-2.555l1.403-0.452c0.225-0.082,0.45-0.124,0.667-0.124,1.095,0,1.541,0.911,1.725,1.285l14.003,32.533h63.48l13.881-32.59c0.148-0.302,0.597-1.228,1.697-1.228,0.212,0,0.437,0.039,0.636,0.112l1.456,0.474c1.135,0.396,1.635,1.444,1.228,2.66l-48.148,113.2c-0.334,0.639-1.017,1.321-1.928,1.321h-0.322zm0.153-10.24,28.997-68.464-58.752,0,29.755,68.464zm-316.68-20.66c0-20.007,16.192-26.095,34.234-31.027,20.997-5.622,33.153-11.969,33.153-27.76,0-12.951-14.227-23.894-31.068-23.894-11.124,0-21.785,4.075-30.835,11.783l-0.122,0.098c-0.542,0.551-1.127,0.828-1.738,0.828-0.382,0-0.955-0.116-1.514-0.676l-0.601-0.617c-0.49-0.475-0.75-1.037-0.75-1.62,0-0.596,0.256-1.145,0.77-1.646,2.438-2.267,15.571-13.565,34.79-13.565,19.774,0,36.481,13.42,36.481,29.309,0,19.033-13.603,26.544-37.104,33.09-19.183,5.079-30.288,10.912-30.288,25.697,0,16.394,15.363,23.734,30.583,23.734,13.441,0,24.147-6.838,25.412-7.671,1.11-0.553,2.219-0.25,2.9,0.75l0.639,0.963c0.692,1.049,0.421,2.291-0.65,3.015-0.122,0.085-12.219,8.36-28.301,8.36-24.862,0-35.991-14.641-35.991-29.151m389.34,27.552c-1.336,0-2.382-1.051-2.382-2.389v-109.28c0-1.337,1.046-2.386,2.382-2.386h0.637c1.34,0,2.389,1.049,2.389,2.386v36.638h30.272c20.729,0,37.595,16.941,37.595,37.761,0,20.554-16.936,37.272-37.754,37.272h-33.139zm3.026-5.411,30.113,0c17.836,0,32.346-14.291,32.346-31.861,0-17.838-14.439-32.353-32.187-32.353h-30.272v64.214zm-214.42,5.411c-1.342,0-2.395-1.051-2.395-2.389v-109.28c0-1.337,1.053-2.386,2.395-2.386h0.634c1.206,0,2.228,1.094,2.228,2.386v40.144h35.056c1.163,0,2.272,0,3.458,0.091l24.88-41.938c0.394-0.757,1.082-1.208,1.839-1.208,0.245,0,0.469,0.046,0.863,0.202l1.519,0.853c1.03,0.684,1.251,1.924,0.55,2.987l-23.937,40.053c16.687,3.879,28.265,18.197,28.265,35.119,0,19.833-16.518,35.368-37.6,35.368h-37.755zm2.862-5.411,34.893,0c18.434,0,32.337-12.878,32.337-29.957,0-17.323-14.132-30.895-32.174-30.895h-35.056v60.852zm-96.534,5.411c-1.334,0-2.381-1.051-2.381-2.389v-0.632c0-1.338,1.047-2.39,2.381-2.39h31.866v-106.26c0-1.337,1.047-2.386,2.384-2.386h0.633c1.344,0,2.398,1.049,2.398,2.386v106.26h32.176c1.337,0,2.385,1.052,2.385,2.39v0.632c0,1.338-1.048,2.389-2.385,2.389h-69.457z"/></g></g></g></g></g></svg>
