<?xml version="1.0" encoding="UTF-8" standalone="no"?>
<!-- Created with Inkscape (http://www.inkscape.org/) -->

<svg
   xmlns:dc="http://purl.org/dc/elements/1.1/"
   xmlns:cc="http://creativecommons.org/ns#"
   xmlns:rdf="http://www.w3.org/1999/02/22-rdf-syntax-ns#"
   xmlns:svg="http://www.w3.org/2000/svg"
   xmlns="http://www.w3.org/2000/svg"
   xmlns:sodipodi="http://sodipodi.sourceforge.net/DTD/sodipodi-0.dtd"
   xmlns:inkscape="http://www.inkscape.org/namespaces/inkscape"
   id="svg2"
   xml:space="preserve"
   height="381.12375"
   width="918.1767"
   version="1.1"
   inkscape:version="0.48.5 r10040"
   sodipodi:docname="strap.svg"><sodipodi:namedview
     pagecolor="#ffffff"
     bordercolor="#666666"
     borderopacity="1"
     objecttolerance="10"
     gridtolerance="10"
     guidetolerance="10"
     inkscape:pageopacity="0"
     inkscape:pageshadow="2"
     inkscape:window-width="640"
     inkscape:window-height="480"
     id="namedview46"
     showgrid="false"
     fit-margin-top="70"
     fit-margin-bottom="70"
     fit-margin-left="0"
     fit-margin-right="0"
     inkscape:zoom="0.53258693"
     inkscape:cx="459.07748"
     inkscape:cy="190.56"
     inkscape:window-x="75"
     inkscape:window-y="34"
     inkscape:window-maximized="0"
     inkscape:current-layer="svg2" /><metadata
     id="metadata8"><rdf:RDF><cc:Work
         rdf:about=""><dc:format>image/svg+xml</dc:format><dc:type
           rdf:resource="http://purl.org/dc/dcmitype/StillImage" /><dc:title /></cc:Work></rdf:RDF></metadata><defs
     id="defs6"><clipPath
       id="clipPath16"
       clipPathUnits="userSpaceOnUse"><path
         id="path18"
         d="m 196.76,368.43 -37.652,-37.647 c 10.414,10.408 27.297,10.408 37.705,0 l 64.323,-64.7 c 10.441,-10.433 27.417,-10.434 37.854,0 10.439,10.441 10.439,27.424 0,37.852 l -64.531,64.495 c -5.204,5.205 -12.025,7.808 -18.847,7.808 -6.822,0 -13.645,-2.603 -18.852,-7.808"
         inkscape:connector-curvature="0" /></clipPath><linearGradient
       id="linearGradient24"
       gradientUnits="userSpaceOnUse"
       gradientTransform="matrix(102.29195,-102.29195,-102.29195,-102.29195,178.22607,368.18359)"><stop
         id="stop26"
         stop-color="#53bae6"
         offset="0" /><stop
         id="stop28"
         stop-color="#6dc185"
         offset="1" /></linearGradient><clipPath
       id="clipPath36"
       clipPathUnits="userSpaceOnUse"><path
         id="path38"
         d="m 159.11,330.78 c -10.284,-10.297 -10.284,-27.036 0,-37.321 l 64.527,-64.394 c 10.437,-10.437 10.437,-27.419 0,-37.854 l 37.52,37.52 c 10.416,10.409 10.416,27.292 0,37.702 l -64.342,64.347 c -5.204,5.204 -12.027,7.806 -18.851,7.806 -6.823,0 -13.647,-2.602 -18.854,-7.806"
         inkscape:connector-curvature="0" /></clipPath><linearGradient
       id="linearGradient44"
       gradientUnits="userSpaceOnUse"
       gradientTransform="matrix(97.095871,-97.095871,-97.095871,-97.095871,152.55225,318.66943)"><stop
         id="stop46"
         stop-color="#63ae7c"
         offset="0" /><stop
         id="stop48"
         stop-color="#47a8d2"
         offset="1" /></linearGradient><clipPath
       id="clipPath56"
       clipPathUnits="userSpaceOnUse"><path
         id="path58"
         d="m 121.56,293.24 c -10.435,-10.433 -10.435,-27.416 0.007,-37.853 l 64.295,-64.248 c 10.408,-10.4 27.292,-10.4 37.7,0 l 0.073,0.081 c 10.437,10.435 10.437,27.417 0,37.854 l -64.218,64.166 c -5.217,5.218 -12.071,7.828 -18.926,7.828 -6.855,0 -13.711,-2.61 -18.931,-7.828"
         inkscape:connector-curvature="0" /></clipPath><linearGradient
       id="linearGradient64"
       gradientUnits="userSpaceOnUse"
       gradientTransform="matrix(102.05165,-102.05165,-102.05165,-102.05165,115.29199,299.53516)"><stop
         id="stop66"
         stop-color="#53bae6"
         offset="0" /><stop
         id="stop68"
         stop-color="#6dc185"
         offset="1" /></linearGradient><clipPath
       id="clipPath76"
       clipPathUnits="userSpaceOnUse"><path
         id="path78"
         d="m 704.57,339.29 c -0.948,0 -1.626,-0.713 -1.952,-1.402 l -49.125,-113.24 c -0.359,-1.133 0.158,-2.16 1.299,-2.555 l 1.403,-0.452 c 0.225,-0.082 0.45,-0.124 0.667,-0.124 1.095,0 1.541,0.911 1.725,1.285 l 14.003,32.533 h 63.48 l 13.881,-32.59 c 0.148,-0.302 0.597,-1.228 1.697,-1.228 0.212,0 0.437,0.039 0.636,0.112 l 1.456,0.474 c 1.135,0.396 1.635,1.444 1.228,2.66 l -48.148,113.2 c -0.334,0.639 -1.017,1.321 -1.928,1.321 h -0.322 z m 0.153,-10.24 28.997,-68.464 -58.752,0 29.755,68.464 z m -316.68,-20.66 c 0,-20.007 16.192,-26.095 34.234,-31.027 20.997,-5.622 33.153,-11.969 33.153,-27.76 0,-12.951 -14.227,-23.894 -31.068,-23.894 -11.124,0 -21.785,4.075 -30.835,11.783 l -0.122,0.098 c -0.542,0.551 -1.127,0.828 -1.738,0.828 -0.382,0 -0.955,-0.116 -1.514,-0.676 l -0.601,-0.617 c -0.49,-0.475 -0.75,-1.037 -0.75,-1.62 0,-0.596 0.256,-1.145 0.77,-1.646 2.438,-2.267 15.571,-13.565 34.79,-13.565 19.774,0 36.481,13.42 36.481,29.309 0,19.033 -13.603,26.544 -37.104,33.09 -19.183,5.079 -30.288,10.912 -30.288,25.697 0,16.394 15.363,23.734 30.583,23.734 13.441,0 24.147,-6.838 25.412,-7.671 1.11,-0.553 2.219,-0.25 2.9,0.75 l 0.639,0.963 c 0.692,1.049 0.421,2.291 -0.65,3.015 -0.122,0.085 -12.219,8.36 -28.301,8.36 -24.862,0 -35.991,-14.641 -35.991,-29.151 m 389.34,27.552 c -1.336,0 -2.382,-1.051 -2.382,-2.389 v -109.28 c 0,-1.337 1.046,-2.386 2.382,-2.386 h 0.637 c 1.34,0 2.389,1.049 2.389,2.386 v 36.638 h 30.272 c 20.729,0 37.595,16.941 37.595,37.761 0,20.554 -16.936,37.272 -37.754,37.272 h -33.139 z m 3.026,-5.411 30.113,0 c 17.836,0 32.346,-14.291 32.346,-31.861 0,-17.838 -14.439,-32.353 -32.187,-32.353 h -30.272 v 64.214 z m -214.42,5.411 c -1.342,0 -2.395,-1.051 -2.395,-2.389 v -109.28 c 0,-1.337 1.053,-2.386 2.395,-2.386 h 0.634 c 1.206,0 2.228,1.094 2.228,2.386 v 40.144 h 35.056 c 1.163,0 2.272,0 3.458,0.091 l 24.88,-41.938 c 0.394,-0.757 1.082,-1.208 1.839,-1.208 0.245,0 0.469,0.046 0.863,0.202 l 1.519,0.853 c 1.03,0.684 1.251,1.924 0.55,2.987 l -23.937,40.053 c 16.687,3.879 28.265,18.197 28.265,35.119 0,19.833 -16.518,35.368 -37.6,35.368 h -37.755 z m 2.862,-5.411 34.893,0 c 18.434,0 32.337,-12.878 32.337,-29.957 0,-17.323 -14.132,-30.895 -32.174,-30.895 h -35.056 v 60.852 z m -96.534,5.411 c -1.334,0 -2.381,-1.051 -2.381,-2.389 v -0.632 c 0,-1.338 1.047,-2.39 2.381,-2.39 h 31.866 v -106.26 c 0,-1.337 1.047,-2.386 2.384,-2.386 h 0.633 c 1.344,0 2.398,1.049 2.398,2.386 v 106.26 h 32.176 c 1.337,0 2.385,1.052 2.385,2.39 v 0.632 c 0,1.338 -1.048,2.389 -2.385,2.389 h -69.457 z"
         inkscape:connector-curvature="0" /></clipPath><linearGradient
       id="linearGradient84"
       gradientUnits="userSpaceOnUse"
       gradientTransform="matrix(460.22754,0,0,-460.22754,388.03516,279.79297)"><stop
         id="stop86"
         stop-color="#47a8d2"
         offset="0" /><stop
         id="stop88"
         stop-color="#63ae7c"
         offset="1" /></linearGradient></defs><g
     id="g10"
     transform="matrix(1.25,0,0,-1.25,-142.16828,540.2975)"><g
       id="g12"><g
         id="g14"
         clip-path="url(#clipPath16)"><g
           id="g20"><g
             id="g22"><path
               id="path30"
               d="m 196.76,368.43 -37.652,-37.647 c 10.414,10.408 27.297,10.408 37.705,0 l 64.323,-64.7 c 10.441,-10.433 27.417,-10.434 37.854,0 10.439,10.441 10.439,27.424 0,37.852 l -64.531,64.495 c -5.204,5.205 -12.025,7.808 -18.847,7.808 -6.822,0 -13.645,-2.603 -18.852,-7.808"
               inkscape:connector-curvature="0"
               style="fill:url(#linearGradient24)" /></g></g></g></g><g
       id="g32"><g
         id="g34"
         clip-path="url(#clipPath36)"><g
           id="g40"><g
             id="g42"><path
               id="path50"
               d="m 159.11,330.78 c -10.284,-10.297 -10.284,-27.036 0,-37.321 l 64.527,-64.394 c 10.437,-10.437 10.437,-27.419 0,-37.854 l 37.52,37.52 c 10.416,10.409 10.416,27.292 0,37.702 l -64.342,64.347 c -5.204,5.204 -12.027,7.806 -18.851,7.806 -6.823,0 -13.647,-2.602 -18.854,-7.806"
               inkscape:connector-curvature="0"
               style="fill:url(#linearGradient44)" /></g></g></g></g><g
       id="g52"><g
         id="g54"
         clip-path="url(#clipPath56)"><g
           id="g60"><g
             id="g62"><path
               id="path70"
               d="m 121.56,293.24 c -10.435,-10.433 -10.435,-27.416 0.007,-37.853 l 64.295,-64.248 c 10.408,-10.4 27.292,-10.4 37.7,0 l 0.073,0.081 c 10.437,10.435 10.437,27.417 0,37.854 l -64.218,64.166 c -5.217,5.218 -12.071,7.828 -18.926,7.828 -6.855,0 -13.711,-2.61 -18.931,-7.828"
               inkscape:connector-curvature="0"
               style="fill:url(#linearGradient64)" /></g></g></g></g><g
       id="g72"><g
         id="g74"
         clip-path="url(#clipPath76)"><g
           id="g80"><g
             id="g82"><path
               id="path90"
               d="m 704.57,339.29 c -0.948,0 -1.626,-0.713 -1.952,-1.402 l -49.125,-113.24 c -0.359,-1.133 0.158,-2.16 1.299,-2.555 l 1.403,-0.452 c 0.225,-0.082 0.45,-0.124 0.667,-0.124 1.095,0 1.541,0.911 1.725,1.285 l 14.003,32.533 h 63.48 l 13.881,-32.59 c 0.148,-0.302 0.597,-1.228 1.697,-1.228 0.212,0 0.437,0.039 0.636,0.112 l 1.456,0.474 c 1.135,0.396 1.635,1.444 1.228,2.66 l -48.148,113.2 c -0.334,0.639 -1.017,1.321 -1.928,1.321 h -0.322 z m 0.153,-10.24 28.997,-68.464 -58.752,0 29.755,68.464 z m -316.68,-20.66 c 0,-20.007 16.192,-26.095 34.234,-31.027 20.997,-5.622 33.153,-11.969 33.153,-27.76 0,-12.951 -14.227,-23.894 -31.068,-23.894 -11.124,0 -21.785,4.075 -30.835,11.783 l -0.122,0.098 c -0.542,0.551 -1.127,0.828 -1.738,0.828 -0.382,0 -0.955,-0.116 -1.514,-0.676 l -0.601,-0.617 c -0.49,-0.475 -0.75,-1.037 -0.75,-1.62 0,-0.596 0.256,-1.145 0.77,-1.646 2.438,-2.267 15.571,-13.565 34.79,-13.565 19.774,0 36.481,13.42 36.481,29.309 0,19.033 -13.603,26.544 -37.104,33.09 -19.183,5.079 -30.288,10.912 -30.288,25.697 0,16.394 15.363,23.734 30.583,23.734 13.441,0 24.147,-6.838 25.412,-7.671 1.11,-0.553 2.219,-0.25 2.9,0.75 l 0.639,0.963 c 0.692,1.049 0.421,2.291 -0.65,3.015 -0.122,0.085 -12.219,8.36 -28.301,8.36 -24.862,0 -35.991,-14.641 -35.991,-29.151 m 389.34,27.552 c -1.336,0 -2.382,-1.051 -2.382,-2.389 v -109.28 c 0,-1.337 1.046,-2.386 2.382,-2.386 h 0.637 c 1.34,0 2.389,1.049 2.389,2.386 v 36.638 h 30.272 c 20.729,0 37.595,16.941 37.595,37.761 0,20.554 -16.936,37.272 -37.754,37.272 h -33.139 z m 3.026,-5.411 30.113,0 c 17.836,0 32.346,-14.291 32.346,-31.861 0,-17.838 -14.439,-32.353 -32.187,-32.353 h -30.272 v 64.214 z m -214.42,5.411 c -1.342,0 -2.395,-1.051 -2.395,-2.389 v -109.28 c 0,-1.337 1.053,-2.386 2.395,-2.386 h 0.634 c 1.206,0 2.228,1.094 2.228,2.386 v 40.144 h 35.056 c 1.163,0 2.272,0 3.458,0.091 l 24.88,-41.938 c 0.394,-0.757 1.082,-1.208 1.839,-1.208 0.245,0 0.469,0.046 0.863,0.202 l 1.519,0.853 c 1.03,0.684 1.251,1.924 0.55,2.987 l -23.937,40.053 c 16.687,3.879 28.265,18.197 28.265,35.119 0,19.833 -16.518,35.368 -37.6,35.368 h -37.755 z m 2.862,-5.411 34.893,0 c 18.434,0 32.337,-12.878 32.337,-29.957 0,-17.323 -14.132,-30.895 -32.174,-30.895 h -35.056 v 60.852 z m -96.534,5.411 c -1.334,0 -2.381,-1.051 -2.381,-2.389 v -0.632 c 0,-1.338 1.047,-2.39 2.381,-2.39 h 31.866 v -106.26 c 0,-1.337 1.047,-2.386 2.384,-2.386 h 0.633 c 1.344,0 2.398,1.049 2.398,2.386 v 106.26 h 32.176 c 1.337,0 2.385,1.052 2.385,2.39 v 0.632 c 0,1.338 -1.048,2.389 -2.385,2.389 h -69.457 z"
               inkscape:connector-curvature="0"
               style="fill:url(#linearGradient84)" /></g></g></g></g></g></svg>