<?xml version="1.0" encoding="UTF-8" ?>
<!DOCTYPE svg PUBLIC "-//W3C//DTD SVG 1.1//EN" "http://www.w3.org/Graphics/SVG/1.1/DTD/svg11.dtd">
<svg width="1000pt" height="1000pt" viewBox="0 0 1000 1000" version="1.1" xmlns="http://www.w3.org/2000/svg">
<path fill="#fffdfd" d=" M 0.00 0.00 L 1000.00 0.00 L 1000.00 1000.00 L 0.00 1000.00 L 0.00 0.00 Z" />
<path fill="#c90202" d=" M 25.08 123.28 C 318.06 123.44 611.03 123.30 904.01 123.35 C 927.63 123.28 951.26 123.48 974.88 123.25 C 975.16 275.83 974.92 428.43 975.00 581.02 C 975.00 679.01 975.00 777.01 975.00 875.00 C 658.33 875.00 341.67 875.00 25.00 875.00 C 25.05 624.43 24.90 373.85 25.08 123.28 Z" />
<path fill="#fffdfd" d=" M 406.01 189.02 C 420.36 189.02 434.71 189.02 449.07 189.02 C 449.07 203.38 449.07 217.74 449.07 232.10 C 434.71 232.09 420.36 232.10 406.00 232.09 C 406.00 217.73 405.99 203.38 406.01 189.02 Z" />
<path fill="#fffdfd" d=" M 549.60 189.01 C 563.97 189.09 578.34 188.89 592.72 189.11 C 592.60 203.39 592.61 217.67 592.71 231.95 C 578.34 232.28 563.96 232.00 549.58 232.10 C 549.58 217.73 549.55 203.37 549.60 189.01 Z" />
<path fill="#fffdfd" d=" M 417.48 239.30 C 424.18 239.25 430.90 239.27 437.61 239.30 C 437.52 268.02 437.74 296.76 437.50 325.49 C 430.85 325.37 424.21 325.40 417.56 325.47 C 417.38 296.75 417.56 268.02 417.48 239.30 Z" />
<path fill="#fffdfd" d=" M 561.12 239.23 C 567.77 239.31 574.41 239.30 581.06 239.23 C 581.28 267.95 581.09 296.68 581.16 325.41 C 574.45 325.43 567.75 325.43 561.05 325.41 C 561.10 296.68 560.96 267.95 561.12 239.23 Z" />
<path fill="#fffdfd" d=" M 212.22 335.45 C 403.65 335.53 595.07 335.40 786.50 335.51 C 786.43 440.67 786.49 545.84 786.47 651.01 C 786.56 681.19 786.28 711.38 786.61 741.56 C 752.08 742.06 717.51 741.63 682.97 741.78 C 526.05 741.78 369.12 741.77 212.20 741.78 C 212.19 606.34 212.14 470.89 212.22 335.45 Z" />
<path fill="#c90202" d=" M 319.78 404.53 C 343.73 404.17 367.70 404.48 391.66 404.38 C 391.55 428.34 391.87 452.31 391.50 476.26 C 367.63 476.04 343.75 476.23 319.87 476.16 C 319.81 452.28 319.99 428.41 319.78 404.53 Z" />
<path fill="#c90202" d=" M 607.14 404.27 C 631.01 404.51 654.89 404.33 678.77 404.36 C 678.86 428.27 678.73 452.18 678.83 476.09 C 654.89 476.26 630.94 476.12 607.00 476.16 C 607.09 452.20 606.81 428.23 607.14 404.27 Z" />
<path fill="#fffdfd" d=" M 118.88 418.75 C 142.76 418.68 166.64 418.86 190.52 418.66 C 190.78 454.60 190.72 490.55 190.55 526.49 C 166.66 526.32 142.77 526.48 118.88 526.41 C 118.88 490.52 118.88 454.64 118.88 418.75 Z" />
<path fill="#fffdfd" d=" M 808.00 418.75 C 831.94 418.77 855.87 418.69 879.81 418.79 C 879.60 454.71 880.11 490.66 879.56 526.57 C 855.71 526.22 831.85 526.52 808.00 526.42 C 808.00 490.53 808.00 454.64 808.00 418.75 Z" />
<path fill="#c90202" d=" M 481.47 569.54 C 481.34 557.54 481.27 545.52 481.50 533.52 C 493.42 533.69 505.34 533.55 517.26 533.59 C 517.29 545.55 517.26 557.51 517.27 569.48 C 505.34 569.53 493.40 569.40 481.47 569.54 Z" />
<path fill="#c90202" d=" M 375.57 616.47 C 387.53 616.32 399.50 616.69 411.46 616.67 C 410.98 630.20 410.49 643.73 409.99 657.26 C 469.38 657.77 528.78 658.23 588.17 658.89 C 588.94 646.98 589.10 635.04 589.60 623.11 C 589.82 621.57 589.28 619.71 590.16 618.38 C 601.77 618.30 613.39 618.62 625.00 618.61 C 624.79 640.39 624.61 662.17 624.36 683.96 C 541.27 683.34 458.18 682.13 375.10 681.81 C 375.03 660.03 375.53 638.25 375.57 616.47 Z" />
</svg>
