<?xml version="1.0" encoding="UTF-8" ?>
<!DOCTYPE svg PUBLIC "-//W3C//DTD SVG 1.1//EN" "http://www.w3.org/Graphics/SVG/1.1/DTD/svg11.dtd">
<svg width="605pt" height="72pt" viewBox="0 0 605 72" version="1.1" xmlns="http://www.w3.org/2000/svg">
<path fill="#ffffff" d=" M 0.00 0.00 L 11.55 0.00 C 9.84 0.57 8.06 1.34 7.10 2.97 C 2.68 9.75 0.52 17.80 0.00 25.82 L 0.00 0.00 Z" />
<path fill="#01bcdd" d=" M 11.55 0.00 L 12.71 0.00 C 14.19 0.88 16.09 1.63 16.65 3.42 C 17.63 6.03 15.88 8.52 14.87 10.82 C 9.00 21.60 9.35 35.62 16.05 45.94 C 16.69 47.72 19.74 47.25 19.44 45.22 C 18.26 41.08 15.86 37.34 15.22 33.04 C 13.91 25.42 15.16 17.04 19.68 10.66 C 22.41 7.02 28.93 9.41 28.73 13.93 C 27.98 18.05 25.38 21.70 25.27 25.98 C 25.08 30.35 25.78 35.26 29.07 38.45 C 32.35 38.23 30.70 34.79 30.23 32.85 C 28.80 28.51 28.70 23.38 31.37 19.50 C 32.83 17.34 36.59 16.39 38.39 18.61 C 39.58 20.84 39.53 23.48 39.61 25.94 C 39.52 41.30 39.60 56.65 39.56 72.00 L 39.28 72.00 C 27.99 70.51 17.31 64.74 10.24 55.75 C 3.85 47.96 0.37 38.04 0.00 28.00 L 0.00 25.82 C 0.52 17.80 2.68 9.75 7.10 2.97 C 8.06 1.34 9.84 0.57 11.55 0.00 Z" />
<path fill="#ffffff" d=" M 12.71 0.00 L 77.30 0.00 C 75.71 0.70 73.74 1.35 73.11 3.16 C 71.89 5.90 73.80 8.56 74.87 10.99 C 80.66 21.71 80.27 35.54 73.72 45.82 C 73.09 47.55 70.92 47.09 70.02 45.86 C 71.12 41.64 73.56 37.87 74.35 33.55 C 75.82 25.84 74.59 17.37 70.12 10.83 C 67.47 6.97 60.64 9.33 60.93 14.00 C 61.59 17.47 63.54 20.54 64.13 24.03 C 65.09 29.42 63.92 35.37 59.85 39.25 C 57.59 36.64 59.37 33.59 59.97 30.76 C 60.88 27.26 60.45 23.40 58.77 20.20 C 57.53 17.84 54.55 16.73 52.07 17.72 C 50.09 19.55 50.25 22.49 50.07 24.96 C 50.09 40.64 50.09 56.32 50.09 72.00 L 39.56 72.00 C 39.60 56.65 39.52 41.30 39.61 25.94 C 39.53 23.48 39.58 20.84 38.39 18.61 C 36.59 16.39 32.83 17.34 31.37 19.50 C 28.70 23.38 28.80 28.51 30.23 32.85 C 30.70 34.79 32.35 38.23 29.07 38.45 C 25.78 35.26 25.08 30.35 25.27 25.98 C 25.38 21.70 27.98 18.05 28.73 13.93 C 28.93 9.41 22.41 7.02 19.68 10.66 C 15.16 17.04 13.91 25.42 15.22 33.04 C 15.86 37.34 18.26 41.08 19.44 45.22 C 19.74 47.25 16.69 47.72 16.05 45.94 C 9.35 35.62 9.00 21.60 14.87 10.82 C 15.88 8.52 17.63 6.03 16.65 3.42 C 16.09 1.63 14.19 0.88 12.71 0.00 Z" />
<path fill="#01bcdd" d=" M 77.30 0.00 L 77.99 0.00 C 79.86 0.52 81.71 1.44 82.71 3.20 C 87.85 11.38 90.23 21.30 89.39 30.93 C 88.29 45.87 79.13 59.91 65.95 67.03 C 61.12 69.68 55.75 71.12 50.33 72.00 L 50.09 72.00 C 50.09 56.32 50.09 40.64 50.07 24.96 C 50.25 22.49 50.09 19.55 52.07 17.72 C 54.55 16.73 57.53 17.84 58.77 20.20 C 60.45 23.40 60.88 27.26 59.97 30.76 C 59.37 33.59 57.59 36.64 59.85 39.25 C 63.92 35.37 65.09 29.42 64.13 24.03 C 63.54 20.54 61.59 17.47 60.93 14.00 C 60.64 9.33 67.47 6.97 70.12 10.83 C 74.59 17.37 75.82 25.84 74.35 33.55 C 73.56 37.87 71.12 41.64 70.02 45.86 C 70.92 47.09 73.09 47.55 73.72 45.82 C 80.27 35.54 80.66 21.71 74.87 10.99 C 73.80 8.56 71.89 5.90 73.11 3.16 C 73.74 1.35 75.71 0.70 77.30 0.00 Z" />
<path fill="#ffffff" d=" M 77.99 0.00 L 605.00 0.00 L 605.00 10.02 C 604.33 10.03 602.98 10.03 602.31 10.04 C 601.29 12.85 600.27 15.65 599.25 18.46 C 598.28 15.69 597.31 12.91 596.36 10.14 C 592.37 10.30 588.39 10.01 584.41 9.97 C 584.39 10.38 584.33 11.18 584.30 11.58 C 585.10 11.60 586.70 11.64 587.50 11.66 C 587.49 14.75 587.50 17.83 587.50 20.92 C 587.97 20.92 588.91 20.91 589.37 20.90 C 589.37 17.87 589.38 14.84 589.38 11.81 C 590.43 11.65 592.54 11.34 593.59 11.19 C 593.52 14.43 593.52 17.67 593.52 20.91 C 593.97 20.91 594.87 20.91 595.32 20.90 C 595.31 18.01 595.31 15.12 595.28 12.23 C 596.37 15.48 597.51 18.71 598.94 21.82 C 600.71 18.83 602.06 15.63 603.15 12.34 C 603.09 15.17 603.08 18.00 603.06 20.82 C 603.54 20.86 604.51 20.95 605.00 20.99 L 605.00 72.00 L 50.33 72.00 C 55.75 71.12 61.12 69.68 65.95 67.03 C 79.13 59.91 88.29 45.87 89.39 30.93 C 90.23 21.30 87.85 11.38 82.71 3.20 C 81.71 1.44 79.86 0.52 77.99 0.00 Z" />
<path fill="#ffffff" d=" M 11.49 3.38 C 14.09 2.95 13.96 6.22 12.73 7.64 C 6.77 17.68 5.75 30.34 9.90 41.23 C 11.16 44.29 12.23 47.96 15.32 49.66 C 18.26 51.51 22.43 49.16 22.83 45.83 C 23.16 43.42 21.61 41.36 20.73 39.25 C 16.67 31.06 17.22 20.77 22.06 13.04 C 22.87 10.74 26.47 12.94 25.13 14.80 C 21.37 22.48 20.59 32.16 25.44 39.53 C 27.51 42.94 33.35 41.71 34.28 37.98 C 35.09 35.57 33.63 33.16 33.17 30.81 C 31.98 27.18 32.13 22.19 35.94 20.19 C 36.62 36.16 36.07 52.17 36.24 68.16 C 26.05 65.87 16.73 59.84 10.86 51.15 C 2.81 39.75 1.14 24.27 6.50 11.40 C 7.81 8.56 8.88 5.31 11.49 3.38 Z" />
<path fill="#ffffff" d=" M 75.87 5.03 C 76.37 2.49 79.07 3.26 79.90 5.07 C 87.45 16.91 88.36 32.67 82.19 45.29 C 76.81 56.86 65.86 65.46 53.41 68.16 C 53.40 57.10 53.41 46.05 53.41 35.00 C 53.44 29.99 53.15 24.95 53.92 19.98 C 57.40 22.52 57.76 27.32 56.41 31.12 C 55.84 33.54 54.37 36.17 55.62 38.62 C 57.05 41.99 62.53 42.70 64.37 39.32 C 68.88 32.13 68.40 22.80 64.70 15.37 C 63.55 13.75 64.86 11.70 66.83 12.08 C 72.48 19.67 73.03 30.51 69.05 38.99 C 67.74 41.77 65.49 45.27 67.83 48.16 C 70.16 51.63 75.43 50.44 77.12 46.97 C 82.31 37.70 83.76 26.32 80.64 16.11 C 79.62 12.18 77.18 8.84 75.87 5.03 Z" />
<path fill="#1e252b" d=" M 371.36 15.43 C 375.21 10.36 382.02 8.83 388.07 8.99 C 393.38 9.20 399.26 10.99 402.24 15.72 C 404.34 18.77 404.72 22.54 405.09 26.12 C 401.61 26.13 398.13 26.13 394.65 26.12 C 394.09 23.63 394.09 20.71 392.10 18.83 C 389.37 16.32 385.01 16.24 381.80 17.80 C 378.64 19.71 378.13 23.73 377.81 27.06 C 377.30 33.40 377.30 39.82 378.12 46.13 C 378.53 49.27 379.99 52.86 383.29 53.86 C 386.02 54.59 389.42 54.71 391.61 52.60 C 393.97 50.45 394.22 47.10 394.90 44.18 C 398.51 44.19 402.13 44.17 405.75 44.20 C 405.42 48.79 404.51 53.72 401.11 57.10 C 396.44 61.81 389.19 62.73 382.90 61.83 C 377.77 61.22 372.79 58.46 370.10 53.97 C 366.78 48.64 366.62 42.15 366.47 36.07 C 366.58 29.00 366.87 21.28 371.36 15.43 Z" />
<path fill="#1e252b" d=" M 103.81 10.12 C 116.89 10.13 129.97 10.10 143.05 10.14 C 143.06 13.12 143.06 16.11 143.06 19.09 C 138.30 19.09 133.54 19.09 128.78 19.09 C 128.78 33.29 128.78 47.49 128.78 61.69 C 125.22 61.69 121.66 61.69 118.09 61.69 C 118.09 47.49 118.09 33.29 118.09 19.09 C 113.33 19.09 108.57 19.09 103.81 19.09 C 103.81 16.10 103.81 13.11 103.81 10.12 Z" />
<path fill="#1e252b" d=" M 150.18 10.12 C 153.75 10.12 157.31 10.12 160.88 10.12 C 160.88 17.14 160.88 24.16 160.88 31.18 C 167.03 31.18 173.19 31.18 179.34 31.18 C 179.34 24.16 179.34 17.14 179.34 10.12 C 182.87 10.12 186.39 10.12 189.92 10.13 C 190.17 27.31 189.97 44.50 190.03 61.69 C 186.47 61.69 182.90 61.69 179.34 61.69 C 179.34 54.49 179.34 47.29 179.34 40.09 C 173.19 40.09 167.03 40.09 160.88 40.09 C 160.88 47.29 160.88 54.49 160.88 61.69 C 157.31 61.69 153.75 61.69 150.18 61.69 C 150.18 44.50 150.18 27.31 150.18 10.12 Z" />
<path fill="#1e252b" d=" M 215.13 10.12 C 217.90 10.12 220.67 10.10 223.45 10.11 C 230.15 27.28 236.76 44.49 243.40 61.69 C 239.70 61.69 235.99 61.69 232.28 61.69 C 231.21 58.65 230.13 55.61 229.06 52.56 C 222.59 52.57 216.12 52.56 209.66 52.57 C 208.55 55.61 207.45 58.64 206.35 61.68 C 202.64 61.69 198.93 61.69 195.22 61.69 C 201.85 44.50 208.49 27.31 215.13 10.12 Z" />
<path fill="#1e252b" d=" M 248.65 10.12 C 252.22 10.12 255.78 10.12 259.34 10.12 C 259.34 24.31 259.35 38.50 259.34 52.69 C 266.68 52.69 274.02 52.67 281.36 52.70 C 281.38 55.69 281.38 58.69 281.38 61.69 C 270.47 61.69 259.56 61.69 248.66 61.69 C 248.65 44.50 248.65 27.31 248.65 10.12 Z" />
<path fill="#1e252b" d=" M 287.00 10.12 C 290.51 10.12 294.03 10.12 297.54 10.13 C 302.27 19.43 307.03 28.71 311.78 38.00 C 316.51 28.71 321.24 19.41 325.97 10.12 C 329.45 10.12 332.93 10.12 336.41 10.13 C 336.61 27.31 336.45 44.50 336.50 61.69 C 332.94 61.69 329.37 61.69 325.81 61.69 C 325.81 51.67 325.81 41.66 325.81 31.64 C 322.33 38.15 318.88 44.68 315.40 51.19 C 312.99 51.19 310.59 51.19 308.19 51.19 C 304.69 44.68 301.20 38.15 297.69 31.65 C 297.68 41.66 297.69 51.67 297.69 61.69 C 294.12 61.69 290.56 61.69 287.00 61.69 C 287.00 44.50 287.00 27.31 287.00 10.12 Z" />
<path fill="#1e252b" d=" M 347.72 10.12 C 351.24 10.12 354.76 10.12 358.29 10.12 C 358.48 27.31 358.32 44.50 358.38 61.69 C 354.82 61.69 351.27 61.69 347.72 61.69 C 347.72 44.50 347.71 27.31 347.72 10.12 Z" />
<path fill="#1e252b" d=" M 416.81 10.12 C 418.76 10.12 420.71 10.12 422.66 10.12 C 422.66 25.67 422.66 41.21 422.66 56.75 C 431.12 56.75 439.58 56.75 448.05 56.75 C 454.15 41.23 460.16 25.66 466.22 10.12 C 467.86 10.12 469.50 10.12 471.15 10.12 C 477.82 27.31 484.49 44.50 491.18 61.69 C 489.11 61.69 487.04 61.69 484.97 61.69 C 483.51 57.80 482.05 53.90 480.60 50.01 C 472.64 49.99 464.68 50.00 456.72 50.00 C 455.25 53.90 453.79 57.80 452.35 61.71 C 440.51 61.81 428.66 61.60 416.81 61.69 C 416.81 44.50 416.81 27.31 416.81 10.12 Z" />
<path fill="#1e252b" d=" M 498.47 10.12 C 506.12 10.24 513.78 9.86 521.42 10.34 C 527.66 10.77 534.53 15.12 534.84 21.90 C 535.78 27.45 532.36 32.97 527.32 35.21 C 529.53 36.39 531.82 37.64 533.32 39.71 C 537.67 45.37 536.28 54.45 530.47 58.57 C 527.19 60.99 523.01 61.58 519.05 61.66 C 512.19 61.74 505.33 61.66 498.47 61.69 C 498.47 44.50 498.47 27.31 498.47 10.12 Z" />
<path fill="#1e252b" d=" M 550.18 12.32 C 558.70 7.80 569.75 9.33 577.23 15.26 C 575.99 16.45 574.75 17.65 573.52 18.84 C 568.11 14.70 560.35 12.95 554.05 16.08 C 548.75 18.56 547.35 27.11 552.51 30.45 C 559.36 34.43 568.32 32.35 574.80 37.22 C 581.45 42.15 581.05 53.63 574.09 58.11 C 564.46 64.65 550.58 62.81 541.96 55.33 C 543.27 54.08 544.59 52.83 545.92 51.58 C 549.88 54.86 554.77 57.14 560.00 57.11 C 564.40 57.27 569.64 56.32 572.27 52.40 C 574.86 48.36 573.93 41.84 569.06 40.02 C 562.17 37.51 553.98 38.74 547.92 34.02 C 540.96 28.56 542.51 16.40 550.18 12.32 Z" />
<path fill="#1e252b" d=" M 584.41 9.97 C 588.39 10.01 592.37 10.30 596.36 10.14 C 597.31 12.91 598.28 15.69 599.25 18.46 C 600.27 15.65 601.29 12.85 602.31 10.04 C 602.98 10.03 604.33 10.03 605.00 10.02 L 605.00 20.99 C 604.51 20.95 603.54 20.86 603.06 20.82 C 603.08 18.00 603.09 15.17 603.15 12.34 C 602.06 15.63 600.71 18.83 598.94 21.82 C 597.51 18.71 596.37 15.48 595.28 12.23 C 595.31 15.12 595.31 18.01 595.32 20.90 C 594.87 20.91 593.97 20.91 593.52 20.91 C 593.52 17.67 593.52 14.43 593.59 11.19 C 592.54 11.34 590.43 11.65 589.38 11.81 C 589.38 14.84 589.37 17.87 589.37 20.90 C 588.91 20.91 587.97 20.92 587.50 20.92 C 587.50 17.83 587.49 14.75 587.50 11.66 C 586.70 11.64 585.10 11.60 584.30 11.58 C 584.33 11.18 584.39 10.38 584.41 9.97 Z" />
<path fill="#ffffff" d=" M 504.31 15.03 C 510.51 15.26 516.80 14.46 522.93 15.65 C 528.25 16.79 530.96 23.51 528.21 28.11 C 526.38 31.29 522.65 32.72 519.13 32.84 C 514.20 33.09 509.25 32.87 504.31 32.94 C 504.31 26.97 504.31 21.00 504.31 15.03 Z" />
<path fill="#ffffff" d=" M 468.78 18.01 C 472.16 27.08 475.53 36.15 478.90 45.22 C 472.09 45.22 465.28 45.22 458.47 45.21 C 461.90 36.15 465.34 27.08 468.78 18.01 Z" />
<path fill="#ffffff" d=" M 212.66 44.06 C 214.95 37.82 217.24 31.59 219.53 25.35 C 221.77 31.59 224.01 37.82 226.24 44.06 C 221.71 44.06 217.19 44.06 212.66 44.06 Z" />
<path fill="#ffffff" d=" M 0.00 28.00 C 0.37 38.04 3.85 47.96 10.24 55.75 C 17.31 64.74 27.99 70.51 39.28 72.00 L 0.00 72.00 L 0.00 28.00 Z" />
<path fill="#ffffff" d=" M 504.31 37.85 C 509.21 37.88 514.10 37.79 519.00 37.86 C 521.72 37.90 524.61 38.44 526.76 40.24 C 530.57 43.16 531.29 49.46 527.95 53.00 C 525.82 55.71 522.22 56.57 518.94 56.71 C 514.06 56.84 509.19 56.71 504.31 56.75 C 504.31 50.45 504.31 44.15 504.31 37.85 Z" />
</svg>
