<?xml version="1.0" encoding="utf-8"?>
<!-- Generator: Adobe Illustrator 18.1.1, SVG Export Plug-In . SVG Version: 6.00 Build 0)  -->
<svg version="1.1" id="Layer_1" xmlns="http://www.w3.org/2000/svg" xmlns:xlink="http://www.w3.org/1999/xlink" x="0px" y="0px"
	 width="163.2px" height="48px" viewBox="-356.6 337 163.2 48" enable-background="new -356.6 337 163.2 48" xml:space="preserve">
<g id="guides">
</g>
<g id="Layer_2">
	<g>
		<g>
			<path fill="#ED1C24" d="M-206,350.1c-1.8-1-3.9-1.6-6.3-1.6c-2.4,0-4.5,0.5-6.4,1.6c-1.9,1-3.2,2.4-4.3,4.1
				c-1,1.7-1.6,3.6-1.6,5.7v0.1c0,2.1,0.5,3.9,1.6,5.6c1.1,1.7,2.5,3.1,4.3,4.1c1.8,1,3.9,1.6,6.3,1.6c2.4,0,4.5-0.6,6.4-1.6
				c1.9-1,3.2-2.4,4.3-4.1c1-1.7,1.6-3.6,1.6-5.7v-0.1c0-2.1-0.6-4-1.6-5.7C-202.7,352.5-204.1,351.1-206,350.1z M-214.9,357.2
				c0.7-0.7,1.5-1.1,2.5-1.1c1,0,1.8,0.4,2.5,1.1c0.7,0.7,1,1.6,1,2.8v0.1c0,1-0.3,1.9-1,2.7c-0.6,0.7-1.5,1.1-2.5,1.1
				c-1,0-1.9-0.4-2.6-1.2c-0.7-0.7-1-1.6-1.1-2.7v-0.1C-215.9,358.8-215.5,357.9-214.9,357.2z"/>
			<path fill="#ED1C24" d="M-225.1,347.5v-5.8h-9.4v5.8H-225.1z"/>
			<path fill="#ED1C24" d="M-235.7,341.7h-9.1v29.1h9.1V341.7z"/>
			<path fill="#ED1C24" d="M-246,347.5v-5.8h-9.4v5.8H-246z"/>
			<path fill="#ED1C24" d="M-246.1,370.8v-21.7h-9v21.7H-246.1z"/>
			<path fill="#ED1C24" d="M-225.2,349.1h-9.1v21.7h9.1V349.1z"/>
			<path fill="#ED1C24" d="M-268.8,349h-7.2l-2.7,8.8l-2.2-8.7h-12.9v-5.5h-9.1v5.5h-2.6v7h2.6v7.5c0,2.6,0.7,4.6,2.1,5.9
				c1.4,1.3,3.4,1.9,6.1,1.9c1.1,0,2.2-0.1,3.2-0.3c1-0.2,1.9-0.5,2.6-0.9v-7c-0.5,0.2-0.9,0.4-1.4,0.5c-0.5,0.1-0.9,0.2-1.3,0.2
				c-0.7,0-1.3-0.2-1.6-0.5c-0.3-0.4-0.5-0.9-0.5-1.7V356h5v-4.5l5.9,19.5h7.5l3-9.3l2.9,9.3h7.6l6.7-21.9h-8.5l-2.3,8.8L-268.8,349
				z"/>
		</g>
		<g>
			<path fill="#404040" d="M-221,379.8v-1.1h-4.5v1.1h1.6v5.2h1.2v-5.2H-221z"/>
			<path fill="#404040" d="M-218.9,378.7h-1.2v6.2h1.2V378.7z"/>
			<path fill="#404040" d="M-227.4,383.8l0.4,1.1h1.2l-2.3-6.2h-0.9l-2.2,6.2h1.3l0.3-1.1H-227.4z M-229.3,382.8l0.8-2.3l0.8,2.3
				H-229.3z"/>
			<path fill="#404040" d="M-217.6,381.9c0,0.7,0,1.2,0.1,1.5c0.1,0.3,0.2,0.6,0.5,0.9c0.3,0.2,0.5,0.4,0.8,0.5
				c0.3,0.1,0.6,0.2,0.9,0.2c0.3,0,0.6-0.1,0.9-0.2c0.3-0.1,0.5-0.2,0.7-0.5c0.3-0.3,0.5-0.6,0.5-0.9c0.1-0.3,0.1-0.9,0.1-1.5
				c0-0.7,0-1.2-0.1-1.5c-0.1-0.3-0.2-0.6-0.5-0.9c-0.2-0.2-0.5-0.4-0.8-0.5c-0.3-0.1-0.6-0.2-0.9-0.2c-0.4,0-0.7,0.1-0.9,0.2
				c-0.3,0.1-0.5,0.3-0.8,0.5c-0.2,0.3-0.4,0.6-0.5,0.9C-217.6,380.7-217.6,381.2-217.6,381.9z M-216.4,380.6
				c0.1-0.2,0.1-0.4,0.2-0.5c0.1-0.1,0.2-0.2,0.4-0.3c0.1,0,0.3-0.1,0.5-0.1c0.3,0,0.6,0.1,0.8,0.4c0.1,0.1,0.2,0.3,0.2,0.5
				c0,0.2,0.1,0.6,0.1,1.2c0,0.5,0,0.9-0.1,1.2c0,0.2-0.2,0.4-0.3,0.6c-0.1,0.2-0.4,0.3-0.7,0.3c-0.4,0-0.6-0.1-0.8-0.3
				c-0.2-0.2-0.2-0.4-0.3-0.6c0-0.2,0-0.6,0-1.2C-216.4,381.3-216.4,380.9-216.4,380.6z"/>
			<path fill="#404040" d="M-207.1,378.7h-1.2v3.8l-2.4-3.8h-1.1v6.2h1.2v-3.8l2.4,3.8h1.1L-207.1,378.7L-207.1,378.7z"/>
			<path fill="#404040" d="M-204,381.2c-0.2,0-0.4-0.1-0.5-0.2c-0.1-0.1-0.2-0.2-0.2-0.3c0-0.1-0.1-0.2-0.1-0.2
				c0-0.2,0.1-0.4,0.3-0.6c0.2-0.2,0.4-0.2,0.7-0.2c0.2,0,0.5,0.1,0.7,0.1c0.2,0.1,0.4,0.2,0.6,0.4l0.8-0.8
				c-0.3-0.3-0.6-0.4-0.9-0.5c-0.3-0.1-0.7-0.2-1.1-0.2c-0.7,0-1.2,0.2-1.6,0.5c-0.4,0.3-0.6,0.8-0.6,1.4c0,0.5,0.2,0.9,0.5,1.2
				c0.3,0.3,0.7,0.5,1.2,0.5l0.7,0.1c0.1,0,0.2,0.1,0.3,0.1c0.1,0,0.2,0.1,0.3,0.2c0.1,0.1,0.1,0.3,0.1,0.5c0,0.5-0.4,0.8-1.1,0.8
				c-0.3,0-0.6-0.1-0.9-0.1c-0.2-0.1-0.5-0.2-0.7-0.4l-0.8,0.8c0.3,0.3,0.6,0.5,1,0.6c0.4,0.1,0.8,0.2,1.3,0.2
				c0.7,0,1.2-0.2,1.7-0.5c0.4-0.3,0.6-0.8,0.6-1.4c0-0.3-0.1-0.5-0.1-0.8c-0.1-0.2-0.2-0.4-0.4-0.6c-0.2-0.2-0.6-0.3-1.1-0.4
				L-204,381.2z"/>
			<path fill="#404040" d="M-263.5,378.7h-1.2v6.2h1.2v-3.6l1.2,2.3h0.8l1.2-2.3v3.6h1.2v-6.2h-1.2l-1.6,3.4L-263.5,378.7z"/>
			<path fill="#404040" d="M-269.1,378.9c-0.3,0.1-0.5,0.3-0.8,0.5c-0.3,0.3-0.4,0.6-0.5,0.9c-0.1,0.4-0.1,0.9-0.1,1.5
				c0,0.7,0,1.2,0.1,1.5c0.1,0.3,0.2,0.6,0.5,0.9c0.2,0.2,0.5,0.4,0.8,0.5c0.3,0.1,0.6,0.2,0.9,0.2c0.3,0,0.7-0.1,0.9-0.2
				c0.3-0.1,0.5-0.2,0.8-0.5c0.3-0.3,0.5-0.6,0.5-0.9c0.1-0.3,0.1-0.9,0.1-1.5c0-0.7,0-1.2-0.1-1.5c-0.1-0.3-0.2-0.6-0.5-0.9
				c-0.2-0.2-0.5-0.4-0.8-0.5c-0.3-0.1-0.6-0.2-0.9-0.2S-268.8,378.8-269.1,378.9z M-269.2,380.6c0-0.2,0.1-0.4,0.2-0.5
				c0.1-0.1,0.2-0.2,0.4-0.3c0.1,0,0.3-0.1,0.4-0.1c0.3,0,0.6,0.1,0.8,0.4c0.1,0.1,0.2,0.3,0.2,0.5c0.1,0.2,0.1,0.6,0.1,1.2
				c0,0.5,0,0.9-0.1,1.2c-0.1,0.2-0.1,0.4-0.3,0.6c-0.1,0.2-0.4,0.3-0.7,0.3c-0.3,0-0.6-0.1-0.7-0.3c-0.1-0.2-0.2-0.4-0.3-0.6
				c-0.1-0.2-0.1-0.6-0.1-1.2C-269.2,381.3-269.2,380.9-269.2,380.6z"/>
			<path fill="#404040" d="M-252,378.7h-1.2l-1.6,3.4l-1.6-3.4h-1.2v6.2h1.2v-3.6l1.2,2.3h0.8l1.2-2.3v3.6h1.2L-252,378.7
				L-252,378.7z"/>
			<path fill="#404040" d="M-250.7,382.8c0,0.7,0.2,1.2,0.6,1.6c0.4,0.4,1,0.6,1.6,0.6c0.6,0,1.2-0.2,1.6-0.6
				c0.5-0.4,0.7-0.9,0.7-1.6v-4.1h-1.2v4.1c0,0.3-0.1,0.6-0.3,0.8c-0.2,0.2-0.4,0.3-0.8,0.3c-0.3,0-0.6-0.1-0.8-0.3
				c-0.2-0.2-0.3-0.5-0.3-0.8v-4.1h-1.2L-250.7,382.8L-250.7,382.8z"/>
			<path fill="#404040" d="M-240.1,378.7h-1.2v3.8l-2.4-3.8h-1.1v6.2h1.2v-3.8l2.4,3.8h1.1L-240.1,378.7L-240.1,378.7z"/>
			<path fill="#404040" d="M-233.2,380c0.2,0.2,0.3,0.4,0.3,0.6h1.2c-0.1-0.6-0.4-1.1-0.8-1.4c-0.4-0.3-0.9-0.5-1.5-0.5
				c-0.4,0-0.6,0.1-0.9,0.2c-0.3,0.1-0.5,0.3-0.8,0.5c-0.3,0.3-0.4,0.6-0.5,0.9c-0.1,0.4-0.1,0.9-0.1,1.5c0,0.7,0,1.2,0.1,1.5
				c0.1,0.3,0.2,0.6,0.5,0.9c0.2,0.2,0.5,0.4,0.8,0.5c0.3,0.1,0.6,0.2,0.9,0.2c0.6,0,1.1-0.2,1.5-0.5c0.4-0.3,0.7-0.8,0.8-1.4h-1.2
				c-0.1,0.3-0.2,0.5-0.3,0.6c-0.2,0.2-0.4,0.3-0.7,0.3c-0.3,0-0.6-0.1-0.7-0.3c-0.1-0.2-0.3-0.4-0.3-0.6c0-0.2-0.1-0.6-0.1-1.2
				c0-0.6,0-0.9,0.1-1.2c0-0.2,0.1-0.5,0.3-0.6c0.1-0.2,0.4-0.3,0.7-0.3C-233.6,379.8-233.4,379.9-233.2,380z"/>
			<path fill="#404040" d="M-237.4,378.7h-1.2v6.2h1.2V378.7z"/>
			<path fill="#404040" d="M-305.3,383.4c0.1,0.3,0.2,0.6,0.5,0.9c0.3,0.2,0.5,0.4,0.8,0.5c0.3,0.1,0.6,0.2,0.9,0.2
				c0.6,0,1.1-0.2,1.5-0.5c0.4-0.3,0.7-0.8,0.8-1.4h-1.2c-0.1,0.3-0.2,0.5-0.4,0.6c-0.2,0.2-0.4,0.3-0.7,0.3c-0.3,0-0.6-0.1-0.7-0.3
				c-0.2-0.2-0.2-0.4-0.3-0.6c0-0.2-0.1-0.6-0.1-1.2c0-0.6,0-0.9,0.1-1.2c0.1-0.2,0.1-0.5,0.3-0.6c0.2-0.2,0.4-0.3,0.7-0.3
				c0.3,0,0.5,0.1,0.7,0.2c0.2,0.2,0.3,0.4,0.4,0.6h1.2c-0.1-0.6-0.3-1.1-0.8-1.4c-0.4-0.3-0.9-0.5-1.5-0.5c-0.3,0-0.6,0.1-0.9,0.2
				c-0.3,0.1-0.5,0.3-0.8,0.5c-0.2,0.3-0.4,0.6-0.5,0.9c-0.1,0.4-0.1,0.9-0.1,1.5C-305.3,382.5-305.3,383.1-305.3,383.4z"/>
			<path fill="#404040" d="M-294.4,379.4c-0.2,0.3-0.4,0.6-0.5,0.9c-0.1,0.4-0.1,0.9-0.1,1.5c0,0.7,0,1.2,0.1,1.5
				c0.1,0.3,0.2,0.6,0.5,0.9c0.3,0.2,0.5,0.4,0.8,0.5c0.3,0.1,0.6,0.2,0.9,0.2c0.4,0,0.7-0.1,0.9-0.2c0.3-0.1,0.5-0.2,0.7-0.5
				c0.3-0.3,0.5-0.6,0.5-0.9c0.1-0.3,0.1-0.9,0.1-1.5c0-0.7,0-1.2-0.1-1.5c-0.1-0.3-0.2-0.6-0.5-0.9c-0.3-0.2-0.5-0.4-0.8-0.5
				c-0.3-0.1-0.6-0.2-0.9-0.2c-0.4,0-0.7,0.1-0.9,0.2C-293.9,379-294.2,379.2-294.4,379.4z M-293.7,380.6c0.1-0.2,0.1-0.4,0.2-0.5
				c0.1-0.1,0.2-0.2,0.4-0.3c0.1,0,0.3-0.1,0.4-0.1c0.3,0,0.6,0.1,0.8,0.4c0.1,0.1,0.2,0.3,0.2,0.5c0,0.2,0,0.6,0,1.2
				c0,0.5,0,0.9,0,1.2c-0.1,0.2-0.2,0.4-0.3,0.6c-0.1,0.2-0.4,0.3-0.7,0.3c-0.3,0-0.6-0.1-0.7-0.3c-0.2-0.2-0.2-0.4-0.3-0.6
				c-0.1-0.2-0.1-0.6-0.1-1.2C-293.8,381.3-293.8,380.9-293.7,380.6z"/>
			<path fill="#404040" d="M-295.7,383.8h-2.8v-5.1h-1.2v6.2h4V383.8z"/>
			<path fill="#404040" d="M-284.7,378.7h-1.2v4.1c0,0.3-0.1,0.6-0.3,0.8c-0.2,0.2-0.4,0.3-0.8,0.3c-0.4,0-0.6-0.1-0.8-0.3
				c-0.2-0.2-0.3-0.5-0.3-0.8v-4.1h-1.2v4.1c0,0.7,0.2,1.2,0.6,1.6c0.5,0.4,1,0.6,1.6,0.6c0.6,0,1.2-0.2,1.6-0.6
				c0.4-0.4,0.6-0.9,0.6-1.6L-284.7,378.7L-284.7,378.7z"/>
			<path fill="#404040" d="M-283.4,378.7v6.2h2.2c0.3,0,0.6-0.1,0.9-0.2c0.3-0.1,0.5-0.3,0.7-0.5c0.3-0.3,0.5-0.6,0.5-0.9
				c0.1-0.3,0.1-0.8,0.1-1.2v-0.8c0-0.5,0-0.9-0.1-1.2c-0.1-0.3-0.2-0.6-0.5-0.8c-0.2-0.2-0.5-0.4-0.8-0.5c-0.3-0.1-0.6-0.1-0.9-0.1
				L-283.4,378.7L-283.4,378.7z M-280.4,380.2c0.1,0.1,0.2,0.3,0.2,0.5c0,0.2,0,0.6,0,1.1c0,0.5,0,0.9,0,1.1c0,0.2-0.1,0.5-0.3,0.6
				c-0.1,0.2-0.4,0.3-0.8,0.3h-0.9v-4.1h0.9c0.2,0,0.4,0.1,0.5,0.1C-280.6,380-280.4,380.1-280.4,380.2z"/>
			<path fill="#404040" d="M-274.5,380.7c0.1-0.2,0.1-0.5,0.3-0.6c0.2-0.2,0.4-0.3,0.7-0.3c0.3,0,0.5,0.1,0.7,0.2
				c0.2,0.2,0.3,0.4,0.3,0.6h1.2c-0.1-0.6-0.4-1.1-0.8-1.4c-0.4-0.3-0.9-0.5-1.5-0.5c-0.3,0-0.7,0.1-0.9,0.2
				c-0.3,0.1-0.5,0.3-0.8,0.5c-0.3,0.3-0.4,0.6-0.5,0.9c-0.1,0.3-0.1,0.9-0.1,1.5c0,0.7,0,1.2,0.1,1.5c0.1,0.3,0.2,0.6,0.5,0.9
				c0.2,0.2,0.5,0.4,0.8,0.5c0.3,0.1,0.6,0.2,0.9,0.2c0.6,0,1.1-0.2,1.5-0.5c0.4-0.3,0.7-0.8,0.8-1.4h-1.2c-0.1,0.3-0.2,0.5-0.3,0.6
				c-0.2,0.2-0.4,0.3-0.7,0.3c-0.3,0-0.6-0.1-0.7-0.3c-0.1-0.2-0.2-0.4-0.3-0.6c-0.1-0.2-0.1-0.6-0.1-1.2
				C-274.6,381.3-274.6,380.9-274.5,380.7z"/>
		</g>
		<g>
			<g>
				<g>
					<g>
						<path fill="#A4A4A4" d="M-313.1,358.6c0-5.9-2.1-11-6.4-15.3c-4.2-4.2-9.4-6.3-15.4-6.3c-6,0-11.1,2.1-15.4,6.3
							c-4.2,4.2-6.4,9.3-6.4,15.3c0,6,2.1,11.1,6.4,15.3c4.3,4.2,9.4,6.3,15.4,6.3c6,0,11.1-2.1,15.4-6.3
							C-315.2,369.6-313.1,364.5-313.1,358.6z M-318.9,358.6c0,4.4-1.6,8.1-4.7,11.2c-3.1,3.1-6.9,4.6-11.3,4.6
							c-4.4,0-8.2-1.5-11.3-4.6c-3.1-3.1-4.7-6.8-4.7-11.2c0-4.4,1.6-8.1,4.7-11.2c3.1-3.1,6.9-4.6,11.3-4.6c4.4,0,8.2,1.6,11.3,4.6
							C-320.5,350.5-318.9,354.2-318.9,358.6z"/>
					</g>
					<g>
						<path fill="#ED1C24" d="M-340.3,349.2c-1.2,0-2.2,0.4-3.1,1.3c-0.8,0.9-1.3,1.9-1.3,3c0,1.2,0.4,2.2,1.3,3
							c0.8,0.9,1.9,1.3,3.1,1.3c1.2,0,2.2-0.4,3.1-1.3c0.8-0.8,1.3-1.9,1.3-3c0-1.2-0.4-2.2-1.3-3
							C-338.1,349.6-339.1,349.2-340.3,349.2z"/>
					</g>
					<g>
						<path fill="#D5D8DF" d="M-329.3,349.2c-1.2,0-2.2,0.4-3.1,1.3c-0.8,0.9-1.3,1.9-1.3,3c0,1.2,0.4,2.2,1.3,3
							c0.8,0.9,1.9,1.3,3.1,1.3c1.2,0,2.2-0.4,3.1-1.3c0.9-0.8,1.3-1.9,1.3-3c0-1.2-0.4-2.2-1.3-3
							C-327.1,349.6-328.1,349.2-329.3,349.2z"/>
					</g>
					<g>
						<path fill="#D5D8DF" d="M-340.3,359.3c-1.2,0-2.2,0.4-3.1,1.3c-0.8,0.8-1.3,1.9-1.3,3c0,1.2,0.4,2.2,1.3,3
							c0.8,0.8,1.9,1.3,3.1,1.3c1.2,0,2.2-0.4,3.1-1.3c0.8-0.8,1.3-1.9,1.3-3c0-1.2-0.4-2.2-1.3-3
							C-338.1,359.7-339.1,359.3-340.3,359.3z"/>
					</g>
					<g>
						<path fill="#ED1C24" d="M-329.3,359.3c-1.2,0-2.2,0.4-3.1,1.3c-0.9,0.9-1.3,1.9-1.3,3.1c0,1.2,0.4,2.2,1.3,3
							c0.9,0.8,1.9,1.3,3.1,1.3c1.2,0,2.2-0.4,3.1-1.3c0.9-0.8,1.3-1.9,1.3-3c0-1.2-0.4-2.2-1.3-3.1
							C-327.1,359.7-328.1,359.3-329.3,359.3z"/>
					</g>
				</g>
			</g>
		</g>
		<g>
			<path fill="#939598" d="M-199,349.5h-1.1v-0.4h2.7v0.4h-1.1v3.2h-0.5L-199,349.5L-199,349.5z"/>
			<path fill="#939598" d="M-194,351.1c0-0.5-0.1-1.1-0.1-1.6h0c-0.1,0.4-0.3,0.9-0.5,1.4l-0.6,1.8h-0.4l-0.6-1.7
				c-0.2-0.5-0.3-1-0.4-1.4h0c0,0.5,0,1.1-0.1,1.6l-0.1,1.6h-0.4l0.3-3.6h0.6l0.6,1.8c0.2,0.4,0.3,0.8,0.4,1.2h0
				c0.1-0.4,0.2-0.8,0.4-1.2l0.6-1.8h0.6l0.2,3.6h-0.5L-194,351.1z"/>
		</g>
	</g>
</g>
</svg>
