<?xml version="1.0" encoding="utf-8"?>
<!-- Generator: Adobe Illustrator 16.0.3, SVG Export Plug-In . SVG Version: 6.00 Build 0)  -->
<!DOCTYPE svg PUBLIC "-//W3C//DTD SVG 1.1//EN" "http://www.w3.org/Graphics/SVG/1.1/DTD/svg11.dtd">
<svg version="1.1" xmlns="http://www.w3.org/2000/svg" xmlns:xlink="http://www.w3.org/1999/xlink" x="0px" y="0px" width="204px"
	 height="100px" viewBox="0 0 204 100" enable-background="new 0 0 204 100" xml:space="preserve">
<g id="guides">
</g>
<g id="Layer_2">
	<g>
		<g>
			<path fill="#ED1C24" d="M171.023,39.117c-1.799-1.047-3.922-1.558-6.285-1.585c-2.441,0.027-4.537,0.538-6.391,1.585
				c-1.852,1.021-3.248,2.391-4.322,4.136c-1.021,1.691-1.584,3.625-1.584,5.692v0.082c0,2.067,0.51,3.945,1.557,5.638
				c1.074,1.691,2.471,3.089,4.297,4.082c1.826,1.021,3.947,1.558,6.338,1.585c2.416-0.027,4.51-0.563,6.363-1.612
				c1.854-1.021,3.248-2.391,4.297-4.107c1.047-1.691,1.584-3.625,1.611-5.667v-0.081c-0.027-2.067-0.564-4-1.611-5.692
				C174.299,41.454,172.877,40.11,171.023,39.117z M162.107,46.153c0.672-0.699,1.479-1.074,2.525-1.102
				c0.992,0.027,1.826,0.402,2.523,1.129c0.697,0.725,0.994,1.637,1.047,2.765v0.082c0,1.02-0.322,1.933-0.992,2.656
				c-0.645,0.726-1.479,1.102-2.473,1.129c-1.047-0.027-1.879-0.403-2.578-1.155c-0.697-0.725-1.02-1.637-1.074-2.712v-0.081
				C161.141,47.817,161.463,46.905,162.107,46.153z"/>
			<path fill="#ED1C24" d="M151.93,36.513v-5.802h-9.371v5.802H151.93z"/>
			<path fill="#ED1C24" d="M141.324,30.711h-9.051v29.083h9.051V30.711z"/>
			<path fill="#ED1C24" d="M130.984,36.513v-5.802h-9.371v5.802H130.984z"/>
			<path fill="#ED1C24" d="M130.85,59.794V38.07h-9.049v21.724H130.85z"/>
			<path fill="#ED1C24" d="M151.797,38.07h-9.051v21.724h9.051V38.07z"/>
			<path fill="#ED1C24" d="M108.24,37.962h-7.197l-2.658,8.835l-2.203-8.727H83.238v-5.479h-9.051v5.479h-2.576v6.954h2.576v7.492
				c0,2.632,0.701,4.592,2.096,5.881c1.396,1.262,3.412,1.88,6.098,1.88c1.1,0,2.174-0.108,3.168-0.321
				c1.045-0.215,1.879-0.511,2.631-0.913v-6.954c-0.484,0.213-0.939,0.4-1.422,0.509c-0.457,0.106-0.939,0.188-1.344,0.188
				c-0.725,0-1.262-0.188-1.639-0.509c-0.348-0.351-0.537-0.913-0.537-1.746v-5.506h4.996v-4.537l5.879,19.469h7.492l3.01-9.319
				l2.9,9.319h7.57l6.688-21.886h-8.512l-2.338,8.835L108.24,37.962z"/>
		</g>
		<g>
			<path fill="#404040" d="M155.957,68.79v-1.074h-4.482v1.074h1.637v5.155h1.236V68.79H155.957z"/>
			<path fill="#404040" d="M158.133,67.716h-1.209v6.229h1.209V67.716z"/>
			<path fill="#404040" d="M149.594,72.847l0.375,1.099h1.238l-2.285-6.229h-0.939l-2.229,6.229h1.262l0.348-1.099H149.594z
				 M147.715,71.825l0.777-2.256l0.752,2.256H147.715z"/>
			<path fill="#404040" d="M159.369,70.858c0,0.67,0.025,1.207,0.08,1.529c0.08,0.323,0.242,0.646,0.484,0.887
				c0.268,0.242,0.537,0.43,0.805,0.538c0.27,0.133,0.564,0.188,0.939,0.188c0.322,0,0.646-0.055,0.912-0.188
				c0.27-0.108,0.512-0.242,0.727-0.483c0.293-0.268,0.457-0.618,0.537-0.941c0.08-0.322,0.107-0.859,0.107-1.529
				c0-0.671-0.027-1.182-0.107-1.531c-0.08-0.322-0.244-0.644-0.482-0.912c-0.244-0.242-0.512-0.431-0.781-0.537
				c-0.266-0.108-0.59-0.162-0.912-0.162c-0.375,0-0.67,0.054-0.939,0.162c-0.268,0.106-0.537,0.295-0.805,0.537
				c-0.242,0.269-0.404,0.59-0.484,0.912C159.395,69.677,159.369,70.188,159.369,70.858z M160.631,69.649
				c0.053-0.215,0.135-0.376,0.24-0.51c0.109-0.108,0.215-0.188,0.352-0.269c0.105-0.027,0.268-0.081,0.455-0.081
				c0.295,0,0.564,0.136,0.752,0.35c0.109,0.134,0.215,0.321,0.242,0.537c0.027,0.215,0.055,0.617,0.055,1.182
				c0,0.536-0.027,0.941-0.055,1.182c-0.027,0.215-0.16,0.43-0.297,0.617c-0.133,0.189-0.402,0.269-0.697,0.269
				c-0.35,0-0.592-0.106-0.752-0.269c-0.16-0.188-0.242-0.402-0.295-0.592c-0.027-0.214-0.027-0.589-0.027-1.207
				C160.604,70.294,160.604,69.892,160.631,69.649z"/>
			<path fill="#404040" d="M169.922,67.716h-1.207v3.813l-2.445-3.813h-1.074v6.229h1.209v-3.813l2.443,3.813h1.074V67.716z"/>
			<path fill="#404040" d="M172.957,70.215c-0.242-0.027-0.402-0.108-0.512-0.19c-0.133-0.105-0.188-0.188-0.215-0.268
				c-0.027-0.053-0.055-0.16-0.055-0.242c0-0.241,0.109-0.401,0.27-0.563c0.162-0.162,0.404-0.217,0.699-0.217
				c0.242,0,0.484,0.055,0.699,0.108c0.213,0.082,0.4,0.188,0.59,0.351l0.779-0.779c-0.268-0.268-0.592-0.431-0.887-0.537
				c-0.322-0.108-0.697-0.162-1.129-0.162c-0.67,0-1.182,0.162-1.584,0.511c-0.375,0.349-0.59,0.805-0.59,1.37
				c0,0.51,0.16,0.887,0.457,1.182c0.268,0.295,0.672,0.456,1.209,0.535l0.725,0.081c0.133,0.027,0.242,0.082,0.348,0.108
				c0.107,0.025,0.162,0.106,0.27,0.161c0.107,0.108,0.135,0.269,0.135,0.511c0,0.482-0.377,0.751-1.076,0.751
				c-0.32,0-0.617-0.055-0.859-0.134c-0.242-0.081-0.455-0.217-0.67-0.404l-0.752,0.807c0.297,0.295,0.617,0.51,0.967,0.618
				c0.377,0.133,0.807,0.188,1.289,0.188c0.67,0,1.234-0.16,1.666-0.511c0.402-0.322,0.643-0.778,0.643-1.369
				c0-0.295-0.053-0.538-0.133-0.752c-0.082-0.242-0.217-0.43-0.432-0.645c-0.215-0.188-0.59-0.321-1.127-0.403L172.957,70.215z"/>
			<path fill="#404040" d="M113.529,67.716h-1.209v6.229h1.209V70.32l1.209,2.337h0.805l1.156-2.337v3.625h1.234v-6.229h-1.234
				l-1.559,3.357L113.529,67.716z"/>
			<path fill="#404040" d="M107.891,67.878c-0.27,0.106-0.537,0.295-0.779,0.537c-0.268,0.269-0.4,0.59-0.482,0.912
				c-0.055,0.35-0.082,0.86-0.082,1.531c0,0.67,0.027,1.207,0.082,1.529c0.082,0.323,0.215,0.646,0.482,0.887
				c0.242,0.242,0.51,0.43,0.779,0.538c0.295,0.133,0.617,0.188,0.939,0.188c0.35,0,0.672-0.055,0.939-0.188
				c0.27-0.108,0.512-0.242,0.754-0.483c0.268-0.268,0.455-0.618,0.51-0.941c0.08-0.322,0.08-0.859,0.08-1.529
				c0-0.671,0-1.182-0.08-1.531c-0.055-0.322-0.242-0.644-0.484-0.912c-0.24-0.242-0.51-0.431-0.779-0.537
				c-0.268-0.108-0.59-0.162-0.939-0.162S108.16,67.77,107.891,67.878z M107.836,69.649c0.027-0.215,0.082-0.376,0.189-0.51
				c0.135-0.108,0.242-0.188,0.375-0.269c0.107-0.027,0.268-0.081,0.43-0.081c0.35,0,0.592,0.136,0.779,0.35
				c0.107,0.134,0.188,0.321,0.242,0.537c0.053,0.215,0.053,0.617,0.053,1.182c0,0.536,0,0.941-0.053,1.182
				c-0.055,0.215-0.135,0.43-0.295,0.617c-0.135,0.189-0.377,0.269-0.727,0.269c-0.322,0-0.563-0.106-0.725-0.269
				c-0.133-0.188-0.242-0.402-0.27-0.592c-0.051-0.214-0.078-0.589-0.078-1.207C107.758,70.294,107.785,69.892,107.836,69.649z"/>
			<path fill="#404040" d="M124.969,67.716h-1.234l-1.559,3.357l-1.637-3.357h-1.182v6.229h1.234V70.32l1.182,2.337h0.805
				l1.156-2.337v3.625h1.234V67.716z"/>
			<path fill="#404040" d="M126.285,71.8c0,0.67,0.215,1.18,0.645,1.609c0.43,0.376,0.967,0.591,1.637,0.591
				c0.646,0,1.184-0.215,1.613-0.591c0.455-0.43,0.67-0.939,0.67-1.609v-4.084h-1.207v4.057c0,0.348-0.082,0.643-0.297,0.83
				c-0.188,0.217-0.428,0.323-0.779,0.323c-0.32,0-0.59-0.134-0.777-0.323c-0.188-0.215-0.297-0.482-0.297-0.83v-4.057h-1.207V71.8z
				"/>
			<path fill="#404040" d="M136.92,67.716h-1.209v3.813l-2.443-3.813h-1.074v6.229h1.207v-3.813l2.445,3.813h1.074V67.716z"/>
			<path fill="#404040" d="M143.82,69.031c0.16,0.163,0.27,0.378,0.322,0.618h1.236c-0.107-0.645-0.352-1.102-0.754-1.449
				c-0.428-0.322-0.938-0.484-1.529-0.484c-0.35,0-0.646,0.054-0.914,0.162c-0.268,0.106-0.535,0.295-0.779,0.537
				c-0.266,0.269-0.402,0.59-0.482,0.912c-0.053,0.35-0.08,0.86-0.08,1.531c0,0.67,0.027,1.207,0.08,1.529
				c0.08,0.323,0.217,0.646,0.482,0.887c0.244,0.242,0.512,0.43,0.779,0.538c0.295,0.133,0.592,0.188,0.914,0.188
				c0.592,0,1.102-0.188,1.529-0.511c0.402-0.322,0.674-0.832,0.754-1.449h-1.236c-0.053,0.269-0.162,0.483-0.322,0.617
				c-0.188,0.189-0.402,0.269-0.697,0.269c-0.322,0-0.592-0.079-0.725-0.269c-0.137-0.188-0.27-0.375-0.297-0.592
				c-0.027-0.24-0.053-0.644-0.053-1.207c0-0.564,0.025-0.939,0.08-1.182c0.027-0.242,0.133-0.455,0.27-0.618
				c0.133-0.188,0.402-0.269,0.725-0.269C143.418,68.79,143.633,68.871,143.82,69.031z"/>
			<path fill="#404040" d="M139.604,67.716h-1.234v6.229h1.234V67.716z"/>
			<path fill="#404040" d="M71.746,72.388c0.082,0.323,0.215,0.646,0.457,0.887c0.268,0.242,0.535,0.43,0.805,0.538
				C73.277,73.945,73.6,74,73.947,74c0.564,0,1.074-0.188,1.479-0.511c0.43-0.322,0.697-0.832,0.777-1.449h-1.209
				c-0.08,0.269-0.188,0.483-0.375,0.617c-0.162,0.189-0.377,0.269-0.672,0.269c-0.348,0-0.563-0.079-0.725-0.269
				c-0.16-0.188-0.242-0.375-0.297-0.592c-0.025-0.24-0.051-0.644-0.051-1.207c0-0.564,0.025-0.939,0.051-1.182
				c0.055-0.242,0.137-0.455,0.297-0.618c0.162-0.188,0.377-0.269,0.725-0.269c0.295,0,0.51,0.081,0.672,0.241
				c0.188,0.163,0.295,0.378,0.375,0.618h1.209c-0.107-0.645-0.348-1.102-0.777-1.449c-0.404-0.322-0.914-0.484-1.506-0.484
				c-0.348,0-0.643,0.054-0.912,0.162c-0.27,0.106-0.537,0.295-0.805,0.537c-0.242,0.269-0.375,0.59-0.457,0.912
				c-0.082,0.35-0.082,0.86-0.082,1.531C71.664,71.528,71.664,72.065,71.746,72.388z"/>
			<path fill="#404040" d="M82.568,68.415c-0.242,0.269-0.402,0.59-0.457,0.912c-0.08,0.35-0.08,0.86-0.08,1.531
				c0,0.67,0,1.207,0.08,1.529c0.055,0.323,0.215,0.646,0.457,0.887c0.268,0.242,0.537,0.43,0.805,0.538
				C83.643,73.945,83.965,74,84.313,74c0.35,0,0.672-0.055,0.941-0.188c0.27-0.108,0.51-0.242,0.725-0.483
				c0.295-0.268,0.455-0.618,0.51-0.941c0.082-0.322,0.105-0.859,0.105-1.529c0-0.671-0.023-1.182-0.105-1.531
				c-0.055-0.322-0.215-0.644-0.457-0.912c-0.268-0.242-0.508-0.431-0.777-0.537c-0.297-0.108-0.592-0.162-0.941-0.162
				c-0.375,0-0.67,0.054-0.939,0.162C83.105,67.984,82.836,68.173,82.568,68.415z M83.293,69.649
				c0.055-0.215,0.107-0.376,0.215-0.51c0.107-0.108,0.242-0.188,0.375-0.269c0.107-0.027,0.27-0.081,0.43-0.081
				c0.324,0,0.564,0.136,0.779,0.35c0.107,0.134,0.189,0.321,0.24,0.537c0.027,0.215,0.027,0.617,0.027,1.182
				c0,0.536,0,0.941-0.027,1.182c-0.051,0.215-0.16,0.43-0.32,0.617c-0.135,0.189-0.375,0.269-0.699,0.269
				c-0.322,0-0.563-0.106-0.725-0.269c-0.16-0.188-0.24-0.402-0.295-0.592c-0.055-0.214-0.055-0.589-0.055-1.207
				C83.238,70.294,83.238,69.892,83.293,69.649z"/>
			<path fill="#404040" d="M81.252,72.847h-2.818v-5.131h-1.209v6.229h4.027V72.847z"/>
			<path fill="#404040" d="M92.289,67.716h-1.182v4.057c0,0.348-0.107,0.643-0.322,0.83c-0.16,0.217-0.43,0.323-0.752,0.323
				c-0.35,0-0.59-0.134-0.807-0.323c-0.188-0.215-0.268-0.482-0.268-0.83v-4.057H87.75V71.8c0,0.67,0.188,1.18,0.619,1.609
				C88.824,73.785,89.363,74,90.006,74c0.646,0,1.182-0.215,1.639-0.591c0.43-0.43,0.645-0.939,0.645-1.609V67.716z"/>
			<path fill="#404040" d="M93.631,67.716v6.229h2.23c0.32,0,0.615-0.078,0.912-0.16c0.295-0.108,0.51-0.269,0.725-0.456
				c0.268-0.268,0.455-0.563,0.51-0.887c0.082-0.322,0.109-0.752,0.109-1.235v-0.805c0-0.483-0.027-0.914-0.109-1.208
				c-0.055-0.323-0.242-0.592-0.457-0.834c-0.24-0.24-0.482-0.403-0.777-0.509c-0.297-0.082-0.564-0.136-0.912-0.136H93.631z
				 M96.641,69.194c0.105,0.133,0.188,0.294,0.215,0.535c0.025,0.216,0.025,0.564,0.025,1.074s0,0.887-0.025,1.102
				c-0.027,0.242-0.137,0.457-0.297,0.646c-0.135,0.188-0.402,0.296-0.805,0.296h-0.887V68.79h0.887
				c0.188,0,0.375,0.054,0.535,0.108C96.424,68.952,96.559,69.059,96.641,69.194z"/>
			<path fill="#404040" d="M102.465,69.677c0.055-0.242,0.137-0.455,0.27-0.618c0.16-0.188,0.404-0.269,0.725-0.269
				c0.295,0,0.537,0.081,0.699,0.241c0.188,0.163,0.27,0.378,0.35,0.618h1.234c-0.133-0.645-0.375-1.102-0.777-1.449
				c-0.432-0.322-0.914-0.484-1.506-0.484c-0.348,0-0.67,0.054-0.939,0.162c-0.268,0.106-0.537,0.295-0.777,0.537
				c-0.27,0.269-0.402,0.59-0.484,0.912c-0.055,0.35-0.08,0.86-0.08,1.531c0,0.67,0.025,1.207,0.08,1.529
				c0.082,0.323,0.215,0.646,0.484,0.887c0.24,0.242,0.51,0.43,0.777,0.538c0.297,0.133,0.619,0.188,0.939,0.188
				c0.592,0,1.074-0.188,1.506-0.511c0.43-0.322,0.67-0.832,0.777-1.449h-1.234c-0.08,0.269-0.162,0.483-0.35,0.617
				c-0.162,0.189-0.404,0.269-0.699,0.269c-0.32,0-0.564-0.079-0.725-0.269c-0.133-0.188-0.242-0.375-0.27-0.592
				c-0.053-0.24-0.08-0.644-0.08-1.207C102.385,70.294,102.439,69.919,102.465,69.677z"/>
		</g>
		<g>
			<g>
				<g>
					<g>
						<path fill="#A4A4A4" d="M63.918,47.578c0-5.935-2.121-11.031-6.363-15.267C53.314,28.103,48.176,26,42.166,26
							c-5.98,0-11.119,2.103-15.389,6.312c-4.24,4.235-6.363,9.332-6.363,15.267c0,5.96,2.123,11.056,6.363,15.265
							c4.27,4.208,9.408,6.311,15.389,6.311c6.01,0,11.148-2.103,15.389-6.311C61.797,58.634,63.918,53.538,63.918,47.578z
							 M58.127,47.578c0,4.368-1.578,8.09-4.676,11.192c-3.127,3.102-6.879,4.64-11.285,4.64c-4.404,0-8.156-1.538-11.283-4.64
							c-3.1-3.103-4.676-6.824-4.676-11.192c0-4.371,1.576-8.093,4.676-11.194c3.127-3.074,6.879-4.639,11.283-4.639
							c4.406,0,8.158,1.564,11.285,4.639C56.549,39.485,58.127,43.207,58.127,47.578z"/>
					</g>
					<g>
						<path fill="#ED1C24" d="M36.674,38.218c-1.195,0-2.229,0.432-3.07,1.268c-0.844,0.863-1.279,1.859-1.279,3.049
							c0,1.188,0.436,2.211,1.279,3.047c0.842,0.863,1.875,1.267,3.07,1.267c1.197,0,2.23-0.403,3.072-1.267
							c0.844-0.836,1.277-1.859,1.277-3.047c0-1.189-0.434-2.186-1.277-3.049C38.904,38.649,37.871,38.218,36.674,38.218z"/>
					</g>
					<g>
						<path fill="#D5D8DF" d="M47.688,38.218c-1.197,0-2.23,0.432-3.074,1.268c-0.842,0.863-1.277,1.859-1.277,3.049
							c0,1.188,0.436,2.211,1.277,3.047c0.844,0.863,1.877,1.267,3.074,1.267c1.195,0,2.227-0.403,3.07-1.267
							c0.871-0.836,1.279-1.859,1.279-3.047c0-1.189-0.408-2.186-1.279-3.049C49.914,38.649,48.883,38.218,47.688,38.218z"/>
					</g>
					<g>
						<path fill="#D5D8DF" d="M36.674,48.306c-1.195,0-2.229,0.432-3.07,1.268c-0.844,0.836-1.279,1.86-1.279,3.047
							c0,1.188,0.436,2.212,1.279,3.048c0.842,0.836,1.875,1.269,3.07,1.269c1.197,0,2.23-0.433,3.072-1.269
							c0.844-0.836,1.277-1.86,1.277-3.048c0-1.187-0.434-2.211-1.277-3.047C38.904,48.737,37.871,48.306,36.674,48.306z"/>
					</g>
					<g>
						<path fill="#ED1C24" d="M47.688,48.306c-1.17,0-2.203,0.404-3.074,1.268c-0.869,0.863-1.277,1.86-1.277,3.074
							c0,1.16,0.408,2.185,1.277,3.021c0.871,0.836,1.904,1.269,3.074,1.269c1.223,0,2.227-0.433,3.07-1.269
							c0.871-0.836,1.279-1.86,1.279-3.021c0-1.214-0.408-2.211-1.279-3.074C49.914,48.71,48.91,48.306,47.688,48.306z"/>
					</g>
				</g>
			</g>
		</g>
		<g>
			<path fill="#939598" d="M177.98,38.497h-1.113v-0.396h2.703v0.396h-1.113v3.226h-0.477V38.497z"/>
			<path fill="#939598" d="M183.033,40.132c-0.027-0.504-0.061-1.117-0.061-1.565h-0.012c-0.129,0.421-0.277,0.878-0.461,1.378
				l-0.643,1.756h-0.359l-0.594-1.725c-0.174-0.515-0.314-0.979-0.418-1.409h-0.012c-0.01,0.453-0.037,1.055-0.07,1.602
				l-0.096,1.555h-0.449l0.252-3.622h0.602l0.623,1.752c0.152,0.445,0.271,0.844,0.369,1.218h0.012
				c0.096-0.364,0.227-0.762,0.389-1.218l0.65-1.752h0.602l0.229,3.622h-0.467L183.033,40.132z"/>
		</g>
	</g>
</g>
</svg>
