<?xml version="1.0" encoding="utf-8"?>
<!-- Generator: Adobe Illustrator 16.0.4, SVG Export Plug-In . SVG Version: 6.00 Build 0)  -->
<!DOCTYPE svg PUBLIC "-//W3C//DTD SVG 1.1//EN" "http://www.w3.org/Graphics/SVG/1.1/DTD/svg11.dtd">
<svg version="1.1" id="Layer_1" xmlns="http://www.w3.org/2000/svg" xmlns:xlink="http://www.w3.org/1999/xlink" x="0px" y="0px"
	 width="339px" height="56px" viewBox="0 0 339 56" enable-background="new 0 0 339 56" xml:space="preserve">
<path fill="#10111C" d="M47.741,4.761v26.537c0,9.081-4.381,14.448-17.538,14.448c-13.195,0-17.599-5.367-17.599-14.448V12.644
	c-0.169-4.422-3.794-7.975-8.24-7.975V9.82c1.611,0,2.893,1.252,3.045,2.824v20.468c0,10.521,8.252,17.998,22.793,17.998
	c14.519,0,22.738-7.478,22.738-17.998V4.761H47.741z"/>
<path fill="#10111C" d="M198.803,44.995V32.562c0-1.707,1.451-3.109,3.133-3.142h22.654v-5.239h-22.732
	c-1.1,0.032-2.114,0.252-3.055,0.658V9.864h36.972V4.651h-42.224v45.556h43.762v-5.212H198.803z"/>
<path fill="#10111C" d="M292.529,27.469c-1.1,0-2.139,0.225-3.1,0.616l-0.045-18.518l28.546-0.011c4.955,0,8.96,3.994,8.96,8.955
	c0,4.955-4.005,8.974-8.96,8.974L292.529,27.469z M332.445,45.312c-1.254,1.007-3.039,0.804-4.126-0.351l-9.965-12.653
	c7.441-0.229,13.397-6.326,13.397-13.808c0-7.658-6.203-13.849-13.85-13.849h-33.729v45.557h5.211l0.05-14.843
	c0.057-1.654,1.456-3.032,3.148-3.032l19.184,0.005l12.464,15.827c2.868,3.39,7.905,3.955,11.405,1.204L332.445,45.312z"/>
<path fill="#10111C" d="M133.661,45.312l-28.76-0.025V32.365c0.021-1.725,1.453-3.192,3.165-3.192l25.596-0.006
	c4.46,0,8.059,3.61,8.059,8.048C141.72,41.703,138.121,45.312,133.661,45.312 M104.901,9.567L133.793,9.6
	c4.048,0,7.323,3.285,7.323,7.34c0,4.032-3.275,7.312-7.323,7.312h-26.161c-0.954,0.065-1.893,0.285-2.731,0.647V9.567z
	 M141.171,26.667c2.934-2.234,4.856-5.756,4.856-9.749c0-6.752-5.483-12.251-12.251-12.251L99.693,4.651v45.556h33.968
	c7.164,0,12.964-5.812,12.964-12.992C146.625,32.864,144.466,29.024,141.171,26.667"/>
</svg>
