<?xml version="1.0" encoding="utf-8"?>
<!-- Generator: Adobe Illustrator 18.1.1, SVG Export Plug-In . SVG Version: 6.00 Build 0)  -->
<svg version="1.1" id="Layer_1" xmlns="http://www.w3.org/2000/svg" xmlns:xlink="http://www.w3.org/1999/xlink" x="0px" y="0px"
	 width="520px" height="320px" viewBox="220 200 520 320" enable-background="new 220 200 520 320" xml:space="preserve">
<g id="red_logo">
	<g>
		<rect x="220" y="200" fill="#D5192F" width="520" height="320"/>
		<g>
			<path fill="#FFFFFF" d="M349.8,403h-11.2v-3.2c-3.1,2.2-6.8,3.2-11.2,3.2h-2c-7.6,0-13.2-1.8-16.9-5.3c-3.7-3.5-5.5-9.2-5.5-17.1
				V333h11.9v50.4c0,2.8,0.8,5,2.5,6.7c1.6,1.6,3.8,2.4,6.6,2.4h4.8c3,0,5.2-0.7,6.6-2.2c1.4-1.5,2.3-3.2,2.5-5V333h11.9L349.8,403
				L349.8,403z"/>
			<path fill="#FFFFFF" d="M384.1,403h-11.9v-70h11.2v3.4c2.9-2.2,6.6-3.4,11.2-3.4h0.8c8.5,0,14.6,2.2,18.2,6.4
				c3.4-4.3,8.3-6.4,14.4-6.4h0.8c7.6,0,13.2,1.8,16.9,5.3c3.7,3.5,5.5,9.2,5.5,17.1V403h-11.9v-50.4c0-2.8-0.8-5-2.4-6.6
				c-1.6-1.6-3.9-2.5-6.7-2.5h-3.6c-2.9,0-5.1,0.9-6.5,2.6c-1.5,1.7-2.3,3.6-2.5,5.5V403h-11.9v-50.4c0-2.8-0.8-5-2.4-6.6
				c-1.6-1.6-3.8-2.5-6.6-2.5h-3.6c-3,0-5.3,0.8-6.8,2.3c-1.5,1.5-2.3,3.2-2.3,5L384.1,403L384.1,403z"/>
			<path fill="#FFFFFF" d="M520.7,403h-11.2v-3.2c-3.1,2.2-6.8,3.2-11.2,3.2h-2.9c-8.2,0-14.2-1.8-18.1-5.2
				c-3.8-3.5-5.7-9.2-5.7-17.2v-25.2c0-7.8,1.9-13.5,5.8-17.1c3.9-3.5,9.9-5.3,18-5.3h13.4v-28h11.9L520.7,403L520.7,403z
				 M499.7,392.6c3.1,0,5.4-0.8,6.9-2.4c1.5-1.6,2.2-3.4,2.2-5.3v-41.3H494c-7,0-10.5,3-10.5,9.1v30.8c0,6.1,3.5,9.1,10.5,9.1H499.7
				z"/>
			<path fill="#FFFFFF" d="M555,403h-14v-14h14V403z"/>
			<path fill="#FFFFFF" d="M587.9,317.6h-13.3V305h13.3V317.6z M587.2,403h-11.9v-70h11.9V403z"/>
			<path fill="#FFFFFF" d="M657.7,380.6c0,7.8-1.9,13.5-5.8,17.1c-3.9,3.5-9.9,5.3-18,5.3H632c-8.1,0-14.1-1.8-18-5.3
				c-3.9-3.5-5.8-9.2-5.8-17.1v-25.2c0-7.8,1.9-13.5,5.8-17.1c3.9-3.5,9.9-5.3,18-5.3h1.8c8.1,0,14.1,1.8,18,5.3
				c3.9,3.5,5.8,9.2,5.8,17.1V380.6z M645.8,383.4v-30.8c0-6.1-3.5-9.1-10.5-9.1h-4.6c-7,0-10.5,3-10.5,9.1v30.8
				c0,6.1,3.5,9.1,10.5,9.1h4.6C642.3,392.6,645.8,389.5,645.8,383.4z"/>
		</g>
	</g>
</g>
<g id="transparent_logo" display="none">
	<rect x="150" y="140" display="inline" fill="#B9529F" width="636.3" height="468.8"/>
	<g display="inline">
		<rect x="212.5" y="207.5" fill="none" stroke="#FFFFFF" stroke-width="3" stroke-miterlimit="10" width="520" height="320"/>
		<g>
			<path fill="#FFFFFF" d="M349.8,403h-11.2v-3.2c-3.1,2.2-6.8,3.2-11.2,3.2h-2c-7.6,0-13.2-1.8-16.9-5.3c-3.7-3.5-5.5-9.2-5.5-17.1
				V333h11.9v50.4c0,2.8,0.8,5,2.5,6.7c1.6,1.6,3.8,2.4,6.6,2.4h4.8c3,0,5.2-0.7,6.6-2.2c1.4-1.5,2.3-3.2,2.5-5V333h11.9L349.8,403
				L349.8,403z"/>
			<path fill="#FFFFFF" d="M384.1,403h-11.9v-70h11.2v3.4c2.9-2.2,6.6-3.4,11.2-3.4h0.8c8.5,0,14.6,2.2,18.2,6.4
				c3.4-4.3,8.3-6.4,14.4-6.4h0.8c7.6,0,13.2,1.8,16.9,5.3c3.7,3.5,5.5,9.2,5.5,17.1V403h-11.9v-50.4c0-2.8-0.8-5-2.4-6.6
				c-1.6-1.6-3.9-2.5-6.7-2.5h-3.6c-2.9,0-5.1,0.9-6.5,2.6c-1.5,1.7-2.3,3.6-2.5,5.5V403h-11.9v-50.4c0-2.8-0.8-5-2.4-6.6
				c-1.6-1.6-3.8-2.5-6.6-2.5h-3.6c-3,0-5.3,0.8-6.8,2.3c-1.5,1.5-2.3,3.2-2.3,5L384.1,403L384.1,403z"/>
			<path fill="#FFFFFF" d="M520.7,403h-11.2v-3.2c-3.1,2.2-6.8,3.2-11.2,3.2h-2.9c-8.2,0-14.2-1.8-18.1-5.2
				c-3.8-3.5-5.7-9.2-5.7-17.2v-25.2c0-7.8,1.9-13.5,5.8-17.1c3.9-3.5,9.9-5.3,18-5.3h13.4v-28h11.9L520.7,403L520.7,403z
				 M499.7,392.6c3.1,0,5.4-0.8,6.9-2.4c1.5-1.6,2.2-3.4,2.2-5.3v-41.3H494c-7,0-10.5,3-10.5,9.1v30.8c0,6.1,3.5,9.1,10.5,9.1
				L499.7,392.6L499.7,392.6z"/>
			<path fill="#FFFFFF" d="M555,403h-14v-14h14V403z"/>
			<path fill="#FFFFFF" d="M587.9,317.6h-13.3V305h13.3V317.6z M587.2,403h-11.9v-70h11.9V403z"/>
			<path fill="#FFFFFF" d="M657.7,380.6c0,7.8-1.9,13.5-5.8,17.1c-3.9,3.5-9.9,5.3-18,5.3H632c-8.1,0-14.1-1.8-18-5.3
				c-3.9-3.5-5.8-9.2-5.8-17.1v-25.2c0-7.8,1.9-13.5,5.8-17.1c3.9-3.5,9.9-5.3,18-5.3h1.8c8.1,0,14.1,1.8,18,5.3
				c3.9,3.5,5.8,9.2,5.8,17.1V380.6z M645.8,383.4v-30.8c0-6.1-3.5-9.1-10.5-9.1h-4.6c-7,0-10.5,3-10.5,9.1v30.8
				c0,6.1,3.5,9.1,10.5,9.1h4.6C642.3,392.6,645.8,389.5,645.8,383.4z"/>
		</g>
	</g>
</g>
</svg>
