<?xml version="1.0" encoding="iso-8859-1"?>
<!-- Generator: Adobe Illustrator 18.1.1, SVG Export Plug-In . SVG Version: 6.00 Build 0)  -->
<!DOCTYPE svg PUBLIC "-//W3C//DTD SVG 1.1//EN" "http://www.w3.org/Graphics/SVG/1.1/DTD/svg11.dtd">
<svg version="1.1" xmlns="http://www.w3.org/2000/svg" xmlns:xlink="http://www.w3.org/1999/xlink" x="0px" y="0px"
	 viewBox="0 0 144 144" style="enable-background:new 0 0 144 144;" xml:space="preserve">
<g id="red_logo">
	<g>
		<rect x="20" y="40" style="fill:#D5192F;" width="104" height="64"/>
		<g>
			<path style="fill:#FFFFFF;" d="M45.96,80.609h-2.24v-0.644c-0.616,0.43-1.363,0.644-2.24,0.644h-0.392
				c-1.512,0-2.637-0.354-3.374-1.063c-0.738-0.709-1.106-1.849-1.106-3.416v-9.52h2.38v10.08c0,0.561,0.163,1.004,0.49,1.33
				c0.326,0.327,0.77,0.49,1.33,0.49h0.952c0.597,0,1.041-0.149,1.33-0.447c0.289-0.299,0.452-0.635,0.49-1.009V66.61h2.38V80.609z"
				/>
			<path style="fill:#FFFFFF;" d="M52.82,80.609h-2.38V66.61h2.24v0.672c0.579-0.448,1.325-0.672,2.24-0.672h0.168
				c1.698,0,2.912,0.43,3.64,1.288c0.69-0.858,1.652-1.288,2.884-1.288h0.168c1.512,0,2.636,0.355,3.374,1.064
				c0.737,0.71,1.106,1.848,1.106,3.416v9.52h-2.38V70.53c0-0.56-0.164-1.003-0.49-1.33c-0.327-0.326-0.77-0.49-1.33-0.49h-0.728
				c-0.579,0-1.013,0.173-1.302,0.518c-0.29,0.346-0.453,0.714-0.49,1.106v10.275h-2.38V70.53c0-0.56-0.159-1.003-0.476-1.33
				c-0.317-0.326-0.756-0.49-1.316-0.49H54.64c-0.598,0-1.05,0.154-1.358,0.462c-0.308,0.308-0.462,0.64-0.462,0.994V80.609z"/>
			<path style="fill:#FFFFFF;" d="M80.148,80.609h-2.24v-0.644c-0.616,0.43-1.363,0.644-2.24,0.644H75.08
				c-1.643,0-2.847-0.35-3.612-1.049c-0.766-0.701-1.148-1.844-1.148-3.431v-5.04c0-1.568,0.387-2.706,1.162-3.416
				c0.774-0.709,1.974-1.064,3.598-1.064h2.688v-5.6h2.381V80.609z M75.947,78.51c0.617,0,1.074-0.163,1.373-0.49
				c0.298-0.326,0.447-0.676,0.447-1.05v-8.26H74.8c-1.399,0-2.1,0.607-2.1,1.82v6.16c0,1.214,0.701,1.82,2.1,1.82H75.947z"/>
			<path style="fill:#FFFFFF;" d="M87.008,80.609h-2.801v-2.799h2.801V80.609z"/>
			<path style="fill:#FFFFFF;" d="M93.588,63.53h-2.66v-2.52h2.66V63.53z M93.447,80.609h-2.379V66.61h2.379V80.609z"/>
			<path style="fill:#FFFFFF;" d="M107.531,76.13c0,1.567-0.387,2.707-1.162,3.416c-0.774,0.71-1.974,1.063-3.598,1.063h-0.363
				c-1.625,0-2.824-0.354-3.599-1.063c-0.774-0.709-1.162-1.849-1.162-3.416v-5.04c0-1.568,0.388-2.706,1.162-3.416
				c0.774-0.709,1.974-1.064,3.599-1.064h0.363c1.624,0,2.823,0.355,3.598,1.064c0.775,0.71,1.162,1.848,1.162,3.416V76.13z
				 M105.151,76.689v-6.16c0-1.213-0.7-1.82-2.101-1.82h-0.924c-1.399,0-2.1,0.607-2.1,1.82v6.16c0,1.214,0.7,1.82,2.1,1.82h0.924
				C104.451,78.51,105.151,77.903,105.151,76.689z"/>
		</g>
	</g>
</g>
<g id="transparent_logo" style="display:none;">
	<rect x="6" y="28" style="display:inline;fill:#B9529F;" width="127.25" height="93.75"/>
	<g style="display:inline;">
		<rect x="18.5" y="41.5" style="fill:none;stroke:#FFFFFF;stroke-width:3;stroke-miterlimit:10;" width="104" height="64"/>
		<g>
			<path style="fill:#FFFFFF;" d="M45.96,80.609h-2.24v-0.644c-0.616,0.43-1.363,0.644-2.24,0.644h-0.392
				c-1.512,0-2.637-0.354-3.374-1.063c-0.738-0.709-1.106-1.849-1.106-3.416v-9.52h2.38v10.08c0,0.561,0.163,1.004,0.49,1.33
				c0.326,0.327,0.77,0.49,1.33,0.49h0.952c0.597,0,1.041-0.149,1.33-0.447c0.289-0.299,0.452-0.635,0.49-1.009V66.61h2.38V80.609z"
				/>
			<path style="fill:#FFFFFF;" d="M52.82,80.609h-2.38V66.61h2.24v0.672c0.579-0.448,1.325-0.672,2.24-0.672h0.168
				c1.698,0,2.912,0.43,3.64,1.288c0.69-0.858,1.652-1.288,2.884-1.288h0.168c1.512,0,2.636,0.355,3.374,1.064
				c0.737,0.71,1.106,1.848,1.106,3.416v9.52h-2.38v-10.08c0-0.56-0.164-1.002-0.49-1.33c-0.327-0.326-0.77-0.49-1.33-0.49h-0.728
				c-0.579,0-1.013,0.173-1.302,0.518c-0.29,0.346-0.453,0.714-0.49,1.106v10.275h-2.38v-10.08c0-0.56-0.159-1.002-0.476-1.33
				c-0.317-0.326-0.756-0.49-1.316-0.49H54.64c-0.598,0-1.05,0.154-1.358,0.462c-0.308,0.308-0.462,0.64-0.462,0.994V80.609z"/>
			<path style="fill:#FFFFFF;" d="M80.148,80.609h-2.24v-0.644c-0.616,0.43-1.363,0.644-2.24,0.644H75.08
				c-1.643,0-2.847-0.35-3.612-1.049c-0.766-0.701-1.148-1.844-1.148-3.431v-5.04c0-1.568,0.387-2.706,1.162-3.416
				c0.774-0.709,1.974-1.064,3.598-1.064h2.688v-5.6h2.381V80.609z M75.947,78.51c0.617,0,1.074-0.163,1.373-0.49
				c0.298-0.326,0.447-0.676,0.447-1.05v-8.26H74.8c-1.399,0-2.1,0.607-2.1,1.819v6.16c0,1.214,0.701,1.82,2.1,1.82H75.947z"/>
			<path style="fill:#FFFFFF;" d="M87.008,80.609h-2.801v-2.799h2.801V80.609z"/>
			<path style="fill:#FFFFFF;" d="M93.588,63.53h-2.66v-2.52h2.66V63.53z M93.447,80.609h-2.379V66.61h2.379V80.609z"/>
			<path style="fill:#FFFFFF;" d="M107.531,76.13c0,1.567-0.387,2.707-1.162,3.416c-0.774,0.71-1.974,1.063-3.598,1.063h-0.363
				c-1.625,0-2.824-0.354-3.599-1.063c-0.774-0.709-1.162-1.849-1.162-3.416v-5.04c0-1.568,0.388-2.706,1.162-3.416
				c0.774-0.709,1.974-1.064,3.599-1.064h0.363c1.624,0,2.823,0.355,3.598,1.064c0.775,0.71,1.162,1.848,1.162,3.416V76.13z
				 M105.151,76.689v-6.16c0-1.212-0.7-1.819-2.101-1.819h-0.924c-1.399,0-2.1,0.607-2.1,1.819v6.16c0,1.214,0.7,1.82,2.1,1.82
				h0.924C104.451,78.51,105.151,77.903,105.151,76.689z"/>
		</g>
	</g>
</g>
</svg>
