<?xml version="1.0" encoding="utf-8"?>
<!-- Generator: Adobe Illustrator 18.1.1, SVG Export Plug-In . SVG Version: 6.00 Build 0)  -->
<svg version="1.1" id="Layer_1" xmlns="http://www.w3.org/2000/svg" xmlns:xlink="http://www.w3.org/1999/xlink" x="0px" y="0px"
	 width="80.5px" height="48px" viewBox="-399 339 80.5 48" enable-background="new -399 339 80.5 48" xml:space="preserve">
<g id="guides">
</g>
<g id="Layer_2">
	<g>
		<g>
			<path fill="#6E6F72" d="M-393.9,351.8c1.9,0,3.1-0.7,3.1-2.7v-9.9h2v9.9c0,3.4-1.8,4.7-5.2,4.7c-3.3,0-5.1-1.3-5.1-4.7v-9.9h2
				v9.9C-397,351.2-395.8,351.8-393.9,351.8z"/>
			<path fill="#6E6F72" d="M-385.4,339.2h3.4l3.7,11.5l3.7-11.5h3.3v14.4h-2v-11.9h-0.3l-3.7,11.4h-2.1l-3.7-11.4h-0.3v11.9h-2
				L-385.4,339.2L-385.4,339.2z"/>
			<path fill="#6E6F72" d="M-367.7,339.2h2v14.4h-2V339.2z"/>
			<path fill="#6E6F72" d="M-359.6,339.2h4.1l3.6,14.3h-2l-0.9-3.2h-5.6l-0.9,3.2h-2L-359.6,339.2z M-360,348.5h4.7l-1.8-7.3h-1
				L-360,348.5z"/>
			<path fill="#6E6F72" d="M-340.9,353.3c0,0-2.4,0.5-4,0.5c-4.3,0-5.3-2.6-5.3-7.4c0-5,1.1-7.4,5.3-7.4c1.8,0,4,0.5,4,0.5l-0.1,1.8
				c0,0-2.3-0.4-3.7-0.4c-2.9,0-3.5,1.6-3.5,5.5c0,3.8,0.5,5.4,3.5,5.4c1.2,0,3.6-0.4,3.6-0.4L-340.9,353.3z"/>
			<path fill="#6E6F72" d="M-330.2,341.3c0,0-2.9-0.4-4.1-0.4c-1.9,0-2.8,0.6-2.8,2c0,1.5,0.8,1.9,3.3,2.5c2.9,0.8,4.1,1.5,4.1,4.1
				c0,3-1.9,4.3-4.8,4.3c-1.6,0-4.4-0.5-4.4-0.5l0.2-1.8c0,0,2.7,0.4,4.1,0.4c1.9,0,2.8-0.6,2.8-2.3c0-1.4-0.7-1.8-3-2.3
				c-3-0.7-4.4-1.6-4.4-4.2c0-2.7,1.9-4,4.8-4c1.6,0,4.3,0.5,4.3,0.5L-330.2,341.3z"/>
		</g>
		<g>
			<path fill="#E21D38" d="M-396.8,364.7c0.7,0,1.1-0.2,1.1-1v-3.8h1v3.8c0,1.4-0.7,1.9-2.1,1.9c-1.3,0-2.1-0.5-2.1-1.9v-3.8h1v3.8
				C-397.9,364.5-397.4,364.7-396.8,364.7z"/>
			<path fill="#E21D38" d="M-393.5,365.6v-4.1h0.9v0.2c0,0,0.6-0.3,1.1-0.3c1.1,0,1.4,0.7,1.4,2.1v2.1h-0.9v-2.2
				c0-0.8-0.1-1.2-0.7-1.2c-0.5,0-0.9,0.2-0.9,0.2v3.1L-393.5,365.6L-393.5,365.6z"/>
			<path fill="#E21D38" d="M-388.8,359.8h0.9v1h-0.9V359.8z M-388.8,361.5h0.9v4.1h-0.9V361.5z"/>
			<path fill="#E21D38" d="M-386.2,361.5l0.8,3.3h0.2l0.8-3.3h1l-1,4.1h-1.7l-1-4.1H-386.2z"/>
			<path fill="#E21D38" d="M-379.6,364.7l0,0.7c0,0-0.9,0.2-1.7,0.2c-1.2,0-1.7-0.6-1.7-2.1c0-1.5,0.6-2.2,1.8-2.2
				c1.2,0,1.7,0.6,1.7,1.9l-0.1,0.7h-2.5c0,0.6,0.3,0.9,0.9,0.9C-380.5,364.8-379.6,364.7-379.6,364.7z M-380.4,363.2
				c0-0.7-0.2-1-0.8-1c-0.6,0-0.8,0.3-0.8,1H-380.4z"/>
			<path fill="#E21D38" d="M-378.5,361.5h0.9v0.4c0,0,0.5-0.4,1.2-0.5v1c-0.7,0.1-1.2,0.4-1.2,0.4v2.8h-0.9V361.5z"/>
			<path fill="#E21D38" d="M-372.6,362.4c0,0-1-0.1-1.5-0.1c-0.5,0-0.7,0.1-0.7,0.4c0,0.3,0.2,0.3,0.9,0.4c1.1,0.2,1.4,0.5,1.4,1.3
				c0,1-0.6,1.3-1.6,1.3c-0.6,0-1.5-0.2-1.5-0.2l0-0.8c0,0,1,0.1,1.4,0.1c0.6,0,0.8-0.1,0.8-0.4c0-0.3-0.1-0.3-0.8-0.4
				c-1.1-0.2-1.5-0.4-1.5-1.3c0-0.9,0.7-1.3,1.6-1.3c0.6,0,1.6,0.2,1.6,0.2L-372.6,362.4z"/>
			<path fill="#E21D38" d="M-371.5,359.8h0.9v1h-0.9V359.8z M-371.5,361.5h0.9v4.1h-0.9V361.5z"/>
			<path fill="#E21D38" d="M-368.3,362.3v1.7c0,0.6,0,0.8,0.4,0.8c0.2,0,0.7,0,0.7,0l0,0.8c0,0-0.6,0.1-0.8,0.1
				c-0.9,0-1.2-0.4-1.2-1.5v-1.8h-0.5v-0.8h0.5v-1.2h0.9v1.2h1.1v0.8H-368.3z"/>
			<path fill="#E21D38" d="M-365.9,361.5l0.8,3.2h0.2l0.8-3.2h0.9l-1.5,5.8h-0.9l0.5-1.8h-0.7l-1.1-4.1H-365.9z"/>
			<path fill="#E21D38" d="M-357,363.5c0,1.3-0.4,2.2-1.8,2.2s-1.8-0.8-1.8-2.2c0-1.3,0.5-2.1,1.8-2.1
				C-357.5,361.4-357,362.2-357,363.5z M-357.9,363.5c0-0.9-0.2-1.3-0.9-1.3c-0.7,0-0.9,0.4-0.9,1.3c0,0.9,0.2,1.3,0.9,1.3
				S-357.9,364.4-357.9,363.5z"/>
			<path fill="#E21D38" d="M-355.1,365.6h-0.9v-3.2h-0.5v-0.8h0.5v-0.3c0-1.2,0.3-1.5,1.2-1.5c0.3,0,0.9,0.1,0.9,0.1l0,0.8
				c0,0-0.4,0-0.6,0c-0.4,0-0.5,0.2-0.5,0.7v0.2h1.1v0.8h-1.1L-355.1,365.6L-355.1,365.6z"/>
			<path fill="#E21D38" d="M-351.2,359.9h1.6l1.3,4.3l1.3-4.3h1.6v5.7h-1v-4.5h-0.1l-1.3,4.2h-1l-1.3-4.2h-0.1v4.5h-1L-351.2,359.9
				L-351.2,359.9z"/>
			<path fill="#E21D38" d="M-341.2,364.6c0,0.2,0.1,0.3,0.3,0.4l0,0.7c-0.5,0-0.8-0.1-1.1-0.3c0,0-0.6,0.3-1.3,0.3
				c-0.8,0-1.2-0.5-1.2-1.3c0-0.9,0.5-1.2,1.4-1.2l1-0.1v-0.3c0-0.4-0.2-0.6-0.6-0.6c-0.6,0-1.5,0.1-1.5,0.1l0-0.7
				c0,0,1-0.2,1.7-0.2c0.9,0,1.4,0.4,1.4,1.4L-341.2,364.6L-341.2,364.6z M-343,363.8c-0.4,0-0.5,0.2-0.5,0.6c0,0.3,0.1,0.6,0.5,0.6
				c0.4,0,1-0.2,1-0.2v-1L-343,363.8z"/>
			<path fill="#E21D38" d="M-339.9,361.5h0.9v0.4c0,0,0.5-0.4,1.2-0.5v1c-0.7,0.1-1.2,0.4-1.2,0.4v2.8h-0.9V361.5z"/>
			<path fill="#E21D38" d="M-336.5,361.5l0.8,3.2h0.2l0.8-3.2h0.9l-1.5,5.8h-0.9l0.5-1.8h-0.7l-1.1-4.1H-336.5z"/>
			<path fill="#E21D38" d="M-332.9,359.8h0.9v5.8h-0.9V359.8z"/>
			<path fill="#E21D38" d="M-327.7,364.6c0,0.2,0.1,0.3,0.3,0.4l0,0.7c-0.5,0-0.8-0.1-1.1-0.3c0,0-0.6,0.3-1.3,0.3
				c-0.8,0-1.2-0.5-1.2-1.3c0-0.9,0.5-1.2,1.4-1.2l1-0.1v-0.3c0-0.4-0.2-0.6-0.6-0.6c-0.6,0-1.5,0.1-1.5,0.1l0-0.7
				c0,0,1-0.2,1.7-0.2c0.9,0,1.4,0.4,1.4,1.4L-327.7,364.6L-327.7,364.6z M-329.5,363.8c-0.4,0-0.5,0.2-0.5,0.6
				c0,0.3,0.1,0.6,0.5,0.6c0.4,0,1-0.2,1-0.2v-1L-329.5,363.8z"/>
			<path fill="#E21D38" d="M-326.4,365.6v-4.1h0.9v0.2c0,0,0.6-0.3,1.1-0.3c1.1,0,1.4,0.7,1.4,2.1v2.1h-0.9v-2.2
				c0-0.8-0.1-1.2-0.7-1.2c-0.5,0-0.9,0.2-0.9,0.2v3.1L-326.4,365.6L-326.4,365.6z"/>
			<path fill="#E21D38" d="M-318.5,365.6h-0.9v-0.2c0,0-0.6,0.3-1.1,0.3c-1.1,0-1.6-0.6-1.6-2.2c0-1.5,0.5-2.1,1.7-2.1
				c0.3,0,0.9,0.1,0.9,0.1v-1.7h0.9V365.6z M-319.4,364.6v-2.3c0,0-0.5-0.1-0.9-0.1c-0.6,0-0.8,0.4-0.8,1.3c0,1,0.3,1.3,0.8,1.3
				C-319.9,364.8-319.4,364.6-319.4,364.6z"/>
			<path fill="#E21D38" d="M-398.7,369.7h1v5.7h-1V369.7z"/>
			<path fill="#E21D38" d="M-396.5,375.4v-4.1h0.9v0.2c0,0,0.6-0.3,1.1-0.3c1.1,0,1.4,0.7,1.4,2v2.1h-0.9v-2.2
				c0-0.8-0.1-1.2-0.7-1.2c-0.5,0-0.9,0.2-0.9,0.2v3.2L-396.5,375.4L-396.5,375.4z"/>
			<path fill="#E21D38" d="M-389,372.2c0,0-1-0.1-1.5-0.1c-0.5,0-0.7,0.1-0.7,0.4c0,0.3,0.2,0.3,0.9,0.4c1.1,0.2,1.4,0.5,1.4,1.3
				c0,1-0.6,1.3-1.6,1.3c-0.6,0-1.5-0.2-1.5-0.2l0-0.8c0,0,1,0.1,1.4,0.1c0.6,0,0.8-0.1,0.8-0.4c0-0.3-0.1-0.3-0.8-0.4
				c-1-0.2-1.5-0.4-1.5-1.3c0-0.9,0.7-1.3,1.6-1.3c0.6,0,1.6,0.2,1.6,0.2L-389,372.2z"/>
			<path fill="#E21D38" d="M-386.8,372.2v1.7c0,0.6,0,0.8,0.4,0.8c0.2,0,0.7,0,0.7,0l0,0.8c0,0-0.5,0.1-0.8,0.1
				c-0.9,0-1.2-0.4-1.2-1.5v-1.8h-0.5v-0.8h0.5v-1.2h0.9v1.2h1.1v0.8H-386.8z"/>
			<path fill="#E21D38" d="M-384.9,369.7h0.9v1h-0.9V369.7z M-384.9,371.3h0.9v4.1h-0.9V371.3z"/>
			<path fill="#E21D38" d="M-381.7,372.2v1.7c0,0.6,0,0.8,0.4,0.8c0.2,0,0.7,0,0.7,0l0,0.8c0,0-0.5,0.1-0.8,0.1
				c-0.9,0-1.2-0.4-1.2-1.5v-1.8h-0.5v-0.8h0.5v-1.2h0.9v1.2h1.1v0.8H-381.7z"/>
			<path fill="#E21D38" d="M-376.4,371.3v4.1h-0.9v-0.2c0,0-0.6,0.3-1.1,0.3c-1.2,0-1.4-0.6-1.4-2v-2.1h0.9v2.1
				c0,0.9,0.1,1.2,0.7,1.2c0.4,0,0.9-0.2,0.9-0.2v-3.1L-376.4,371.3L-376.4,371.3z"/>
			<path fill="#E21D38" d="M-374.1,372.2v1.7c0,0.6,0,0.8,0.4,0.8c0.2,0,0.7,0,0.7,0l0,0.8c0,0-0.6,0.1-0.8,0.1
				c-0.9,0-1.2-0.4-1.2-1.5v-1.8h-0.5v-0.8h0.5v-1.2h0.9v1.2h1.1v0.8H-374.1z"/>
			<path fill="#E21D38" d="M-369.1,374.6l0,0.7c0,0-0.9,0.2-1.7,0.2c-1.2,0-1.7-0.6-1.7-2.1c0-1.5,0.6-2.2,1.8-2.2
				c1.2,0,1.7,0.6,1.7,1.9l-0.1,0.7h-2.5c0,0.6,0.3,0.9,0.9,0.9C-370,374.6-369.1,374.6-369.1,374.6z M-369.9,373c0-0.7-0.2-1-0.8-1
				s-0.8,0.3-0.8,1H-369.9z"/>
			<path fill="#E21D38" d="M-365.1,375.4h-0.9v-3.2h-0.5v-0.8h0.5v-0.3c0-1.2,0.3-1.5,1.2-1.5c0.3,0,0.9,0.1,0.9,0.1l0,0.8
				c0,0-0.4,0-0.6,0c-0.4,0-0.5,0.2-0.5,0.7v0.2h1.1v0.8h-1.1L-365.1,375.4L-365.1,375.4z"/>
			<path fill="#E21D38" d="M-359.8,373.3c0,1.3-0.4,2.2-1.8,2.2c-1.4,0-1.8-0.8-1.8-2.2c0-1.3,0.5-2.1,1.8-2.1
				C-360.3,371.2-359.8,372-359.8,373.3z M-360.8,373.3c0-0.9-0.2-1.3-0.9-1.3c-0.7,0-0.9,0.4-0.9,1.3c0,0.9,0.2,1.3,0.9,1.3
				C-360.9,374.6-360.8,374.2-360.8,373.3z"/>
			<path fill="#E21D38" d="M-358.9,371.3h0.9v0.4c0,0,0.5-0.4,1.2-0.5v1c-0.7,0.1-1.2,0.4-1.2,0.4v2.8h-0.9V371.3z"/>
			<path fill="#E21D38" d="M-353,369.7h1.9l1.3,5.7h-1l-0.3-1.1h-2.1l-0.3,1.1h-1L-353,369.7z M-352.9,373.4h1.7l-0.6-2.7h-0.4
				L-352.9,373.4z"/>
			<path fill="#E21D38" d="M-345.6,375.4h-0.9v-0.2c0,0-0.6,0.3-1.1,0.3c-1.1,0-1.6-0.6-1.6-2.2c0-1.5,0.5-2.1,1.7-2.1
				c0.3,0,0.9,0.1,0.9,0.1v-1.7h0.9V375.4z M-346.6,374.4v-2.3c0,0-0.5-0.1-0.9-0.1c-0.6,0-0.8,0.4-0.8,1.3c0,1,0.3,1.3,0.8,1.3
				C-347.1,374.6-346.6,374.4-346.6,374.4z"/>
			<path fill="#E21D38" d="M-343.9,371.3l0.8,3.3h0.2l0.8-3.3h1l-1,4.1h-1.7l-1-4.1C-344.9,371.3-343.9,371.3-343.9,371.3z"/>
			<path fill="#E21D38" d="M-337.3,374.4c0,0.2,0.1,0.3,0.3,0.4l0,0.7c-0.5,0-0.8-0.1-1.1-0.3c0,0-0.6,0.3-1.3,0.3
				c-0.8,0-1.2-0.5-1.2-1.3c0-0.9,0.5-1.2,1.4-1.2l1-0.1v-0.3c0-0.4-0.2-0.5-0.6-0.5c-0.6,0-1.5,0.1-1.5,0.1l0-0.7
				c0,0,1-0.2,1.7-0.2c0.9,0,1.4,0.4,1.4,1.4L-337.3,374.4L-337.3,374.4z M-339.2,373.6c-0.4,0-0.5,0.2-0.5,0.6
				c0,0.3,0.1,0.6,0.5,0.6c0.4,0,1-0.2,1-0.2v-1L-339.2,373.6z"/>
			<path fill="#E21D38" d="M-336.1,375.4v-4.1h0.9v0.2c0,0,0.6-0.3,1.1-0.3c1.1,0,1.4,0.7,1.4,2v2.1h-0.9v-2.2
				c0-0.8-0.1-1.2-0.7-1.2c-0.5,0-0.9,0.2-0.9,0.2v3.2L-336.1,375.4L-336.1,375.4z"/>
			<path fill="#E21D38" d="M-328.7,371.4l0,0.8c0,0-0.6-0.1-1-0.1c-0.8,0-1,0.3-1,1.2c0,1,0.2,1.3,1,1.3c0.3,0,1-0.1,1-0.1l0,0.8
				c0,0-0.8,0.1-1.3,0.1c-1.2,0-1.7-0.6-1.7-2.2c0-1.5,0.5-2.1,1.7-2.1C-329.5,371.2-328.7,371.4-328.7,371.4z"/>
			<path fill="#E21D38" d="M-324.7,374.6l0,0.7c0,0-0.9,0.2-1.7,0.2c-1.2,0-1.7-0.6-1.7-2.1c0-1.5,0.6-2.2,1.8-2.2
				c1.2,0,1.7,0.6,1.7,1.9l-0.1,0.7h-2.5c0,0.6,0.3,0.9,0.9,0.9C-325.6,374.6-324.7,374.6-324.7,374.6z M-325.5,373
				c0-0.7-0.2-1-0.8-1s-0.8,0.3-0.8,1H-325.5z"/>
			<path fill="#E21D38" d="M-320.3,375.4h-0.9v-0.2c0,0-0.6,0.3-1.1,0.3c-1.1,0-1.6-0.6-1.6-2.2c0-1.5,0.5-2.1,1.7-2.1
				c0.3,0,0.9,0.1,0.9,0.1v-1.7h0.9V375.4z M-321.3,374.4v-2.3c0,0-0.5-0.1-0.9-0.1c-0.6,0-0.8,0.4-0.8,1.3c0,1,0.3,1.3,0.8,1.3
				C-321.8,374.6-321.3,374.4-321.3,374.4z"/>
			<path fill="#E21D38" d="M-395.3,385.1c0,0-1,0.2-1.6,0.2c-1.7,0-2.1-1-2.1-2.9c0-2.1,0.5-2.9,2.1-2.9c0.7,0,1.6,0.2,1.6,0.2
				l0,0.8c0,0-1-0.1-1.5-0.1c-1,0-1.2,0.5-1.2,2c0,1.4,0.2,2,1.3,2c0.4,0,1.4-0.1,1.4-0.1L-395.3,385.1z"/>
			<path fill="#E21D38" d="M-390.9,383.2c0,1.3-0.4,2.2-1.8,2.2c-1.4,0-1.8-0.8-1.8-2.2c0-1.3,0.5-2.1,1.8-2.1
				C-391.4,381.1-390.9,381.9-390.9,383.2z M-391.9,383.2c0-0.9-0.2-1.3-0.9-1.3c-0.7,0-0.9,0.4-0.9,1.3c0,0.9,0.2,1.3,0.9,1.3
				C-392,384.5-391.9,384-391.9,383.2z"/>
			<path fill="#E21D38" d="M-390,385.2v-4.1h0.9v0.2c0,0,0.3-0.2,0.7-0.3c0.1,0,0.3-0.1,0.4-0.1c0.4,0,0.7,0.1,0.9,0.3
				c0.4-0.1,0.9-0.4,1.4-0.4c1.1,0,1.4,0.6,1.4,2.1v2.1h-0.9v-1.8c0-1.1,0-1.5-0.7-1.5c-0.4,0-0.9,0.2-0.9,0.2c0,0.1,0.1,0.6,0.1,1
				v2.1h-0.9v-2.1c0-0.9-0.1-1.2-0.7-1.2c-0.4,0-0.9,0.2-0.9,0.2v3.1C-389,385.2-390,385.2-390,385.2z"/>
			<path fill="#E21D38" d="M-382.9,381.2h0.9v0.2c0,0,0.6-0.3,1-0.3c1.1,0,1.6,0.6,1.6,2.1c0,1.7-0.6,2.2-1.8,2.2
				c-0.3,0-0.7-0.1-0.8-0.1v1.7h-0.9V381.2z M-382,382.1v2.3c0,0,0.4,0.1,0.7,0.1c0.7,0,1-0.4,1-1.3c0-0.9-0.3-1.2-0.8-1.2
				C-381.5,381.9-382,382.1-382,382.1z"/>
			<path fill="#E21D38" d="M-375,381.2v4.1h-0.9V385c0,0-0.6,0.3-1.1,0.3c-1.2,0-1.4-0.6-1.4-2v-2.1h0.9v2.1c0,0.9,0,1.2,0.7,1.2
				c0.4,0,0.9-0.2,0.9-0.2v-3.1L-375,381.2L-375,381.2z"/>
			<path fill="#E21D38" d="M-372.8,382v1.7c0,0.6,0,0.8,0.4,0.8c0.2,0,0.7,0,0.7,0l0,0.8c0,0-0.6,0.1-0.8,0.1
				c-0.9,0-1.2-0.4-1.2-1.5V382h-0.5v-0.8h0.5V380h0.9v1.2h1.1v0.8C-371.7,382-372.8,382-372.8,382z"/>
			<path fill="#E21D38" d="M-367.8,384.4l0,0.7c0,0-0.9,0.2-1.7,0.2c-1.2,0-1.7-0.6-1.7-2.1c0-1.5,0.6-2.2,1.8-2.2
				c1.2,0,1.7,0.6,1.7,1.9l-0.1,0.7h-2.5c0,0.6,0.3,0.9,0.9,0.9C-368.6,384.5-367.8,384.4-367.8,384.4z M-368.5,382.9
				c0-0.7-0.2-1-0.8-1s-0.8,0.3-0.8,1H-368.5z"/>
			<path fill="#E21D38" d="M-366.7,381.2h0.9v0.4c0,0,0.5-0.4,1.2-0.5v1c-0.7,0.1-1.2,0.4-1.2,0.4v2.8h-0.9V381.2z"/>
			<path fill="#E21D38" d="M-358.5,380.5c0,0-1.1-0.1-1.6-0.1c-0.7,0-1,0.2-1,0.7c0,0.5,0.3,0.6,1.2,0.9c1.2,0.3,1.6,0.7,1.6,1.7
				c0,1.2-0.8,1.7-1.9,1.7c-0.6,0-1.7-0.2-1.7-0.2l0.1-0.9c0,0,1,0.1,1.6,0.1c0.7,0,1-0.2,1-0.8c0-0.4-0.2-0.6-1.1-0.8
				c-1.2-0.3-1.7-0.7-1.7-1.7c0-1.1,0.7-1.6,2-1.6c0.6,0,1.7,0.2,1.7,0.2L-358.5,380.5z"/>
			<path fill="#E21D38" d="M-356.3,382v1.7c0,0.6,0,0.8,0.4,0.8c0.2,0,0.7,0,0.7,0l0,0.8c0,0-0.6,0.1-0.8,0.1
				c-0.9,0-1.2-0.4-1.2-1.5V382h-0.5v-0.8h0.5V380h0.9v1.2h1.1v0.8C-355.2,382-356.3,382-356.3,382z"/>
			<path fill="#E21D38" d="M-351,381.2v4.1h-0.9V385c0,0-0.6,0.3-1.1,0.3c-1.2,0-1.4-0.6-1.4-2v-2.1h0.9v2.1c0,0.9,0,1.2,0.7,1.2
				c0.4,0,0.9-0.2,0.9-0.2v-3.1L-351,381.2L-351,381.2z"/>
			<path fill="#E21D38" d="M-346.5,385.2h-0.9V385c0,0-0.6,0.3-1.1,0.3c-1.1,0-1.6-0.6-1.6-2.2c0-1.5,0.5-2.1,1.7-2.1
				c0.3,0,0.9,0.1,0.9,0.1v-1.7h0.9V385.2z M-347.4,384.3V382c0,0-0.5-0.1-0.9-0.1c-0.6,0-0.8,0.4-0.8,1.3c0,1,0.3,1.3,0.8,1.3
				C-348,384.5-347.4,384.3-347.4,384.3z"/>
			<path fill="#E21D38" d="M-345.3,379.5h0.9v1h-0.9V379.5z M-345.3,381.2h0.9v4.1h-0.9V381.2z"/>
			<path fill="#E21D38" d="M-340,384.4l0,0.7c0,0-0.9,0.2-1.7,0.2c-1.2,0-1.7-0.6-1.7-2.1c0-1.5,0.6-2.2,1.8-2.2
				c1.2,0,1.7,0.6,1.7,1.9l-0.1,0.7h-2.5c0,0.6,0.3,0.9,0.9,0.9C-340.9,384.5-340,384.4-340,384.4z M-340.8,382.9c0-0.7-0.2-1-0.8-1
				c-0.6,0-0.8,0.3-0.8,1H-340.8z"/>
			<path fill="#E21D38" d="M-336,382c0,0-1-0.1-1.5-0.1c-0.5,0-0.7,0.1-0.7,0.4c0,0.3,0.2,0.3,0.9,0.4c1.1,0.2,1.4,0.5,1.4,1.3
				c0,1-0.6,1.3-1.6,1.3c-0.6,0-1.5-0.2-1.5-0.2l0-0.8c0,0,1,0.1,1.4,0.1c0.6,0,0.8-0.1,0.8-0.4c0-0.3-0.1-0.3-0.8-0.4
				c-1.1-0.2-1.5-0.4-1.5-1.3c0-0.9,0.7-1.3,1.5-1.3c0.6,0,1.6,0.2,1.6,0.2L-336,382z"/>
		</g>
	</g>
</g>
</svg>
