<?xml version="1.0" encoding="utf-8"?>
<!-- Generator: Adobe Illustrator 16.0.3, SVG Export Plug-In . SVG Version: 6.00 Build 0)  -->
<!DOCTYPE svg PUBLIC "-//W3C//DTD SVG 1.1//EN" "http://www.w3.org/Graphics/SVG/1.1/DTD/svg11.dtd">
<svg version="1.1" xmlns="http://www.w3.org/2000/svg" xmlns:xlink="http://www.w3.org/1999/xlink" x="0px" y="0px" width="120px"
	 height="100px" viewBox="0 0 120 100" enable-background="new 0 0 120 100" xml:space="preserve">
<g id="guides">
</g>
<g id="Layer_2">
	<g>
		<g>
			<path fill="#6E6F72" d="M25.093,40.835c1.926,0,3.146-0.662,3.146-2.691v-9.895h2.029v9.895c0,3.354-1.821,4.658-5.176,4.658
				c-3.271,0-5.093-1.304-5.093-4.658v-9.895h2.009v9.895C22.009,40.193,23.229,40.835,25.093,40.835z"/>
			<path fill="#6E6F72" d="M33.645,28.249h3.374l3.706,11.51l3.726-11.51h3.333v14.367h-2.008V30.691h-0.311L41.78,42.077h-2.133
				l-3.685-11.386h-0.311v11.925h-2.008V28.249z"/>
			<path fill="#6E6F72" d="M51.326,28.249h2.008v14.367h-2.008V28.249z"/>
			<path fill="#6E6F72" d="M59.379,28.249h4.12l3.644,14.347h-2.029l-0.932-3.21h-5.59l-0.89,3.23h-2.008L59.379,28.249z
				 M59.027,37.461h4.74l-1.842-7.349h-1.015L59.027,37.461z"/>
			<path fill="#6E6F72" d="M78.115,42.347c0,0-2.36,0.497-3.995,0.497c-4.326,0-5.3-2.567-5.3-7.391c0-5.03,1.139-7.433,5.3-7.433
				c1.843,0,3.995,0.519,3.995,0.519l-0.062,1.801c0,0-2.34-0.352-3.686-0.352c-2.856,0-3.457,1.573-3.457,5.465
				c0,3.788,0.518,5.424,3.499,5.424c1.222,0,3.644-0.353,3.644-0.353L78.115,42.347z"/>
			<path fill="#6E6F72" d="M88.841,30.299c0,0-2.899-0.353-4.1-0.353c-1.863,0-2.815,0.621-2.815,2.008
				c0,1.532,0.849,1.863,3.292,2.464c2.918,0.766,4.078,1.532,4.078,4.058c0,3.043-1.863,4.347-4.762,4.347
				c-1.553,0-4.368-0.476-4.368-0.476l0.207-1.822c0,0,2.671,0.353,4.141,0.353c1.863,0,2.774-0.642,2.774-2.339
				c0-1.367-0.726-1.802-2.961-2.319c-3.043-0.703-4.43-1.553-4.43-4.223c0-2.712,1.863-3.996,4.844-3.996
				c1.595,0,4.265,0.477,4.265,0.477L88.841,30.299z"/>
		</g>
		<g>
			<path fill="#E21D38" d="M22.247,53.688c0.673,0,1.124-0.229,1.124-0.96v-3.847h0.968v3.847c0,1.362-0.729,1.902-2.092,1.902
				c-1.345,0-2.067-0.54-2.067-1.902v-3.847h0.969v3.847C21.148,53.466,21.591,53.688,22.247,53.688z"/>
			<path fill="#E21D38" d="M25.521,54.557v-4.093h0.936v0.246c0,0,0.582-0.345,1.099-0.345c1.141,0,1.427,0.673,1.427,2.051v2.141
				h-0.935v-2.165c0-0.779-0.099-1.182-0.705-1.182c-0.46,0-0.886,0.197-0.886,0.197v3.149H25.521z"/>
			<path fill="#E21D38" d="M30.155,48.808h0.936V49.8h-0.936V48.808z M30.155,50.464h0.936v4.093h-0.936V50.464z"/>
			<path fill="#E21D38" d="M32.789,50.464l0.779,3.313h0.245l0.796-3.313h0.951l-1.05,4.093h-1.656l-1.042-4.093H32.789z"/>
			<path fill="#E21D38" d="M39.4,53.72l0.017,0.73c0,0-0.936,0.197-1.666,0.197c-1.238,0-1.722-0.648-1.722-2.092
				c0-1.493,0.64-2.19,1.779-2.19c1.165,0,1.747,0.599,1.747,1.87l-0.065,0.673h-2.518c0.008,0.599,0.254,0.886,0.918,0.886
				C38.539,53.794,39.4,53.72,39.4,53.72z M38.629,52.178c0-0.713-0.237-0.976-0.82-0.976c-0.582,0-0.836,0.296-0.836,0.976H38.629z
				"/>
			<path fill="#E21D38" d="M40.5,50.464h0.935v0.435c0,0,0.541-0.402,1.239-0.533v1.001c-0.738,0.147-1.239,0.427-1.239,0.427v2.764
				H40.5V50.464z"/>
			<path fill="#E21D38" d="M46.373,51.35c0,0-0.984-0.131-1.477-0.131c-0.483,0-0.681,0.106-0.681,0.418
				c0,0.255,0.172,0.32,0.854,0.427c1.082,0.172,1.443,0.459,1.443,1.271c0,0.959-0.623,1.313-1.633,1.313
				c-0.582,0-1.533-0.181-1.533-0.181l0.032-0.796c0,0,0.993,0.131,1.411,0.131c0.574,0,0.787-0.114,0.787-0.442
				c0-0.263-0.131-0.337-0.787-0.443c-1.05-0.172-1.51-0.401-1.51-1.254c0-0.936,0.73-1.297,1.551-1.297
				c0.599,0,1.559,0.188,1.559,0.188L46.373,51.35z"/>
			<path fill="#E21D38" d="M47.547,48.808h0.935V49.8h-0.935V48.808z M47.547,50.464h0.935v4.093h-0.935V50.464z"/>
			<path fill="#E21D38" d="M50.704,51.309v1.674c0,0.565,0.017,0.779,0.427,0.779c0.229,0,0.665-0.025,0.665-0.025l0.041,0.804
				c0,0-0.55,0.115-0.837,0.115c-0.943,0-1.23-0.361-1.23-1.542v-1.805h-0.517v-0.845h0.517v-1.189h0.935v1.189h1.107v0.845H50.704z
				"/>
			<path fill="#E21D38" d="M53.067,50.464l0.845,3.183h0.213l0.845-3.183h0.927l-1.533,5.848h-0.919l0.451-1.755h-0.688
				l-1.066-4.093H53.067z"/>
			<path fill="#E21D38" d="M62.008,52.49c0,1.32-0.426,2.157-1.837,2.157s-1.845-0.82-1.845-2.157c0-1.313,0.459-2.125,1.845-2.125
				C61.532,50.365,62.008,51.186,62.008,52.49z M61.057,52.49c0-0.861-0.222-1.271-0.886-1.271c-0.697,0-0.894,0.394-0.894,1.271
				c0,0.886,0.164,1.312,0.894,1.312S61.057,53.359,61.057,52.49z"/>
			<path fill="#E21D38" d="M63.944,54.557H63.01v-3.248h-0.468v-0.845h0.468V50.21c0-1.182,0.295-1.525,1.164-1.525
				c0.271,0,0.895,0.09,0.895,0.09l-0.008,0.771c0,0-0.395-0.016-0.648-0.016c-0.361,0-0.468,0.164-0.468,0.688v0.246h1.059v0.845
				h-1.059V54.557z"/>
			<path fill="#E21D38" d="M67.784,48.881h1.566l1.288,4.314l1.287-4.314h1.559v5.676h-0.968v-4.479h-0.115l-1.271,4.249h-0.983
				l-1.28-4.249h-0.123v4.479h-0.959V48.881z"/>
			<path fill="#E21D38" d="M77.824,53.556c0.024,0.23,0.099,0.345,0.345,0.378l-0.032,0.714c-0.51,0-0.796-0.066-1.107-0.296
				c0,0-0.641,0.296-1.296,0.296c-0.82,0-1.23-0.46-1.23-1.313c0-0.878,0.492-1.173,1.378-1.239l1.009-0.09v-0.254
				c0-0.378-0.188-0.55-0.566-0.55c-0.558,0-1.542,0.074-1.542,0.074l-0.024-0.689c0,0,1.009-0.222,1.674-0.222
				c0.918,0,1.394,0.427,1.394,1.387V53.556z M75.987,52.752c-0.353,0.033-0.541,0.205-0.541,0.558c0,0.345,0.147,0.566,0.483,0.566
				c0.369,0,0.96-0.164,0.96-0.164V52.67L75.987,52.752z"/>
			<path fill="#E21D38" d="M79.104,50.464h0.936v0.435c0,0,0.541-0.402,1.238-0.533v1.001c-0.738,0.147-1.238,0.427-1.238,0.427
				v2.764h-0.936V50.464z"/>
			<path fill="#E21D38" d="M82.509,50.464l0.845,3.183h0.214l0.845-3.183h0.927l-1.534,5.848h-0.918l0.451-1.755h-0.689
				l-1.066-4.093H82.509z"/>
			<path fill="#E21D38" d="M86.077,48.767h0.936v5.79h-0.936V48.767z"/>
			<path fill="#E21D38" d="M91.311,53.556c0.024,0.23,0.099,0.345,0.345,0.378l-0.033,0.714c-0.509,0-0.795-0.066-1.107-0.296
				c0,0-0.64,0.296-1.295,0.296c-0.82,0-1.231-0.46-1.231-1.313c0-0.878,0.492-1.173,1.378-1.239l1.01-0.09v-0.254
				c0-0.378-0.189-0.55-0.566-0.55c-0.558,0-1.542,0.074-1.542,0.074l-0.024-0.689c0,0,1.009-0.222,1.673-0.222
				c0.919,0,1.395,0.427,1.395,1.387V53.556z M89.474,52.752c-0.353,0.033-0.542,0.205-0.542,0.558c0,0.345,0.148,0.566,0.484,0.566
				c0.369,0,0.96-0.164,0.96-0.164V52.67L89.474,52.752z"/>
			<path fill="#E21D38" d="M92.591,54.557v-4.093h0.936v0.246c0,0,0.582-0.345,1.099-0.345c1.14,0,1.427,0.673,1.427,2.051v2.141
				h-0.935v-2.165c0-0.779-0.099-1.182-0.705-1.182c-0.46,0-0.886,0.197-0.886,0.197v3.149H92.591z"/>
			<path fill="#E21D38" d="M100.531,54.557h-0.943V54.36c0,0-0.582,0.287-1.066,0.287c-1.09,0-1.558-0.615-1.558-2.166
				c0-1.468,0.541-2.116,1.706-2.116c0.319,0,0.877,0.099,0.918,0.106v-1.656h0.943V54.557z M99.588,53.598v-2.306
				c-0.041,0-0.509-0.073-0.853-0.073c-0.566,0-0.82,0.369-0.82,1.271c0,0.992,0.254,1.271,0.755,1.287
				C99.071,53.77,99.588,53.598,99.588,53.598z"/>
			<path fill="#E21D38" d="M20.254,58.726h0.968v5.676h-0.968V58.726z"/>
			<path fill="#E21D38" d="M22.478,64.401v-4.093h0.935v0.245c0,0,0.582-0.344,1.1-0.344c1.14,0,1.427,0.672,1.427,2.05v2.142
				h-0.935v-2.166c0-0.778-0.099-1.181-0.706-1.181c-0.459,0-0.886,0.196-0.886,0.196v3.15H22.478z"/>
			<path fill="#E21D38" d="M30.024,61.194c0,0-0.984-0.131-1.477-0.131c-0.484,0-0.681,0.106-0.681,0.418
				c0,0.254,0.172,0.319,0.853,0.426c1.083,0.173,1.443,0.46,1.443,1.271c0,0.96-0.623,1.313-1.632,1.313
				c-0.583,0-1.534-0.181-1.534-0.181l0.033-0.795c0,0,0.992,0.131,1.41,0.131c0.574,0,0.788-0.115,0.788-0.443
				c0-0.262-0.132-0.336-0.788-0.442c-1.05-0.173-1.509-0.402-1.509-1.255c0-0.935,0.73-1.296,1.551-1.296
				c0.599,0,1.558,0.188,1.558,0.188L30.024,61.194z"/>
			<path fill="#E21D38" d="M32.215,61.153v1.673c0,0.566,0.016,0.779,0.426,0.779c0.23,0,0.664-0.024,0.664-0.024l0.041,0.804
				c0,0-0.549,0.114-0.836,0.114c-0.943,0-1.23-0.36-1.23-1.542v-1.804h-0.517v-0.845h0.517v-1.189h0.936v1.189h1.106v0.845H32.215z
				"/>
			<path fill="#E21D38" d="M34.134,58.651h0.936v0.992h-0.936V58.651z M34.134,60.309h0.936v4.093h-0.936V60.309z"/>
			<path fill="#E21D38" d="M37.292,61.153v1.673c0,0.566,0.017,0.779,0.427,0.779c0.229,0,0.664-0.024,0.664-0.024l0.041,0.804
				c0,0-0.55,0.114-0.837,0.114c-0.942,0-1.229-0.36-1.229-1.542v-1.804H35.84v-0.845h0.518v-1.189h0.935v1.189h1.107v0.845H37.292z
				"/>
			<path fill="#E21D38" d="M42.607,60.309v4.093h-0.936v-0.206c0,0-0.639,0.296-1.082,0.296c-1.182,0-1.419-0.606-1.419-2.042
				v-2.141h0.935v2.133c0,0.868,0.05,1.205,0.673,1.205c0.361,0,0.894-0.188,0.894-0.188v-3.149H42.607z"/>
			<path fill="#E21D38" d="M44.855,61.153v1.673c0,0.566,0.017,0.779,0.427,0.779c0.229,0,0.664-0.024,0.664-0.024l0.041,0.804
				c0,0-0.55,0.114-0.837,0.114c-0.942,0-1.229-0.36-1.229-1.542v-1.804h-0.517v-0.845h0.517v-1.189h0.935v1.189h1.107v0.845H44.855
				z"/>
			<path fill="#E21D38" d="M49.884,63.564l0.017,0.729c0,0-0.936,0.197-1.665,0.197c-1.238,0-1.723-0.647-1.723-2.092
				c0-1.492,0.64-2.189,1.78-2.189c1.164,0,1.747,0.599,1.747,1.87l-0.065,0.672h-2.519c0.008,0.6,0.255,0.886,0.919,0.886
				C49.022,63.638,49.884,63.564,49.884,63.564z M49.113,62.022c0-0.714-0.238-0.977-0.82-0.977s-0.837,0.296-0.837,0.977H49.113z"
				/>
			<path fill="#E21D38" d="M53.912,64.401h-0.936v-3.248H52.51v-0.845h0.467v-0.255c0-1.181,0.296-1.525,1.165-1.525
				c0.271,0,0.895,0.09,0.895,0.09l-0.009,0.771c0,0-0.394-0.017-0.647-0.017c-0.361,0-0.468,0.164-0.468,0.688v0.247h1.058v0.845
				h-1.058V64.401z"/>
			<path fill="#E21D38" d="M59.17,62.334c0,1.321-0.427,2.157-1.837,2.157c-1.411,0-1.846-0.82-1.846-2.157
				c0-1.313,0.46-2.124,1.846-2.124C58.694,60.21,59.17,61.03,59.17,62.334z M58.219,62.334c0-0.861-0.222-1.271-0.886-1.271
				c-0.697,0-0.895,0.394-0.895,1.271c0,0.886,0.164,1.313,0.895,1.313C58.063,63.646,58.219,63.203,58.219,62.334z"/>
			<path fill="#E21D38" d="M60.139,60.309h0.935v0.435c0,0,0.542-0.402,1.239-0.533v1c-0.738,0.148-1.239,0.427-1.239,0.427v2.765
				h-0.935V60.309z"/>
			<path fill="#E21D38" d="M66.012,58.726h1.895l1.337,5.676h-0.968l-0.312-1.116h-2.059l-0.278,1.116h-0.969L66.012,58.726z
				 M66.11,62.358h1.665l-0.632-2.747h-0.386L66.11,62.358z"/>
			<path fill="#E21D38" d="M73.361,64.401h-0.942v-0.197c0,0-0.583,0.287-1.067,0.287c-1.09,0-1.558-0.615-1.558-2.165
				c0-1.469,0.541-2.116,1.706-2.116c0.319,0,0.877,0.099,0.919,0.106v-1.657h0.942V64.401z M72.419,63.441v-2.305
				c-0.042,0-0.509-0.073-0.854-0.073c-0.566,0-0.82,0.368-0.82,1.271c0,0.993,0.254,1.271,0.755,1.288
				C71.901,63.613,72.419,63.441,72.419,63.441z"/>
			<path fill="#E21D38" d="M75.077,60.309l0.778,3.313h0.246l0.796-3.313h0.951l-1.05,4.093h-1.656l-1.042-4.093H75.077z"/>
			<path fill="#E21D38" d="M81.664,63.4c0.023,0.229,0.098,0.345,0.344,0.377l-0.032,0.714c-0.509,0-0.796-0.065-1.107-0.296
				c0,0-0.64,0.296-1.296,0.296c-0.82,0-1.23-0.46-1.23-1.313c0-0.877,0.492-1.173,1.378-1.238l1.009-0.09v-0.255
				c0-0.377-0.188-0.55-0.565-0.55c-0.558,0-1.542,0.074-1.542,0.074l-0.025-0.688c0,0,1.01-0.222,1.674-0.222
				c0.918,0,1.395,0.427,1.395,1.386V63.4z M79.826,62.597c-0.353,0.032-0.541,0.205-0.541,0.558c0,0.345,0.147,0.566,0.484,0.566
				c0.368,0,0.959-0.164,0.959-0.164v-1.042L79.826,62.597z"/>
			<path fill="#E21D38" d="M82.943,64.401v-4.093h0.936v0.245c0,0,0.582-0.344,1.099-0.344c1.141,0,1.427,0.672,1.427,2.05v2.142
				H85.47v-2.166c0-0.778-0.098-1.181-0.705-1.181c-0.46,0-0.886,0.196-0.886,0.196v3.15H82.943z"/>
			<path fill="#E21D38" d="M90.285,60.365l-0.033,0.813c0,0-0.647-0.074-0.959-0.074c-0.837,0-1.025,0.312-1.025,1.198
				c0,0.983,0.172,1.304,1.033,1.304c0.312,0,0.96-0.074,0.96-0.074l0.024,0.813c0,0-0.837,0.147-1.271,0.147
				c-1.246,0-1.697-0.632-1.697-2.189c0-1.469,0.5-2.092,1.722-2.092C89.481,60.21,90.285,60.365,90.285,60.365z"/>
			<path fill="#E21D38" d="M94.297,63.564l0.016,0.729c0,0-0.935,0.197-1.664,0.197c-1.239,0-1.723-0.647-1.723-2.092
				c0-1.492,0.64-2.189,1.779-2.189c1.165,0,1.747,0.599,1.747,1.87l-0.065,0.672h-2.518c0.008,0.6,0.254,0.886,0.918,0.886
				C93.436,63.638,94.297,63.564,94.297,63.564z M93.525,62.022c0-0.714-0.238-0.977-0.82-0.977s-0.836,0.296-0.836,0.977H93.525z"
				/>
			<path fill="#E21D38" d="M98.686,64.401h-0.943v-0.197c0,0-0.583,0.287-1.066,0.287c-1.091,0-1.559-0.615-1.559-2.165
				c0-1.469,0.542-2.116,1.707-2.116c0.319,0,0.877,0.099,0.918,0.106v-1.657h0.943V64.401z M97.742,63.441v-2.305
				c-0.041,0-0.509-0.073-0.853-0.073c-0.566,0-0.82,0.368-0.82,1.271c0,0.993,0.254,1.271,0.755,1.288
				C97.226,63.613,97.742,63.441,97.742,63.441z"/>
			<path fill="#E21D38" d="M23.716,74.131c0,0-0.96,0.204-1.608,0.204c-1.714,0-2.107-0.984-2.107-2.92
				c0-2.066,0.5-2.936,2.107-2.936c0.714,0,1.616,0.221,1.616,0.221l-0.033,0.845c0,0-0.959-0.123-1.451-0.123
				c-0.992,0-1.247,0.477-1.247,1.993c0,1.444,0.197,1.977,1.279,1.977c0.443,0,1.419-0.131,1.419-0.131L23.716,74.131z"/>
			<path fill="#E21D38" d="M28.071,72.178c0,1.321-0.426,2.157-1.837,2.157s-1.846-0.82-1.846-2.157
				c0-1.313,0.459-2.124,1.846-2.124C27.596,70.054,28.071,70.874,28.071,72.178z M27.12,72.178c0-0.86-0.222-1.271-0.886-1.271
				c-0.697,0-0.895,0.394-0.895,1.271c0,0.886,0.164,1.313,0.895,1.313C26.964,73.49,27.12,73.048,27.12,72.178z"/>
			<path fill="#E21D38" d="M29.04,74.245v-4.093h0.927v0.222c0,0,0.345-0.188,0.713-0.255c0.148-0.032,0.304-0.057,0.427-0.057
				c0.419,0.016,0.714,0.131,0.919,0.344c0.36-0.139,0.943-0.353,1.428-0.353c1.115,0,1.427,0.615,1.427,2.051v2.141h-0.935v-1.771
				c0-1.107-0.018-1.542-0.673-1.542c-0.402,0-0.887,0.196-0.895,0.205c0.025,0.057,0.058,0.606,0.058,0.984v2.124H31.5v-2.108
				c0-0.869-0.081-1.205-0.672-1.205c-0.36,0-0.853,0.188-0.853,0.188v3.125H29.04z"/>
			<path fill="#E21D38" d="M36.07,70.152h0.935v0.222c0,0,0.558-0.32,1.025-0.32c1.066,0,1.575,0.566,1.575,2.1
				c0,1.706-0.583,2.182-1.837,2.182c-0.337,0-0.722-0.065-0.764-0.073V76H36.07V70.152z M37.005,71.128v2.305
				c0.033,0.009,0.427,0.058,0.697,0.058c0.738,0,0.952-0.36,0.952-1.337c0-0.927-0.304-1.238-0.796-1.238
				C37.497,70.915,37.005,71.128,37.005,71.128z"/>
			<path fill="#E21D38" d="M43.953,70.152v4.093h-0.935V74.04c0,0-0.64,0.295-1.083,0.295c-1.181,0-1.419-0.606-1.419-2.042v-2.141
				h0.936v2.133c0,0.869,0.049,1.205,0.672,1.205c0.361,0,0.895-0.188,0.895-0.188v-3.149H43.953z"/>
			<path fill="#E21D38" d="M46.201,70.997v1.673c0,0.566,0.017,0.779,0.427,0.779c0.229,0,0.664-0.024,0.664-0.024l0.041,0.804
				c0,0-0.55,0.115-0.836,0.115c-0.943,0-1.23-0.361-1.23-1.542v-1.805h-0.518v-0.845h0.518v-1.189h0.935v1.189h1.107v0.845H46.201z
				"/>
			<path fill="#E21D38" d="M51.229,73.408l0.017,0.73c0,0-0.935,0.196-1.665,0.196c-1.238,0-1.723-0.647-1.723-2.092
				c0-1.492,0.641-2.189,1.78-2.189c1.164,0,1.747,0.599,1.747,1.87l-0.065,0.673h-2.519c0.008,0.599,0.255,0.886,0.919,0.886
				C50.369,73.482,51.229,73.408,51.229,73.408z M50.459,71.867c0-0.714-0.238-0.977-0.82-0.977s-0.837,0.295-0.837,0.977H50.459z"
				/>
			<path fill="#E21D38" d="M52.329,70.152h0.936v0.435c0,0,0.541-0.401,1.238-0.533v1.001c-0.738,0.147-1.238,0.427-1.238,0.427
				v2.764h-0.936V70.152z"/>
			<path fill="#E21D38" d="M60.54,69.537c0,0-1.148-0.131-1.624-0.131c-0.672,0-1.009,0.213-1.009,0.672
				c0,0.484,0.279,0.607,1.23,0.878c1.181,0.345,1.6,0.664,1.6,1.657c0,1.181-0.787,1.722-1.936,1.722
				c-0.624,0-1.731-0.213-1.731-0.213l0.099-0.861c0,0,1.042,0.14,1.624,0.14c0.673,0,0.977-0.213,0.977-0.763
				c0-0.443-0.238-0.615-1.083-0.828c-1.23-0.32-1.738-0.697-1.738-1.715c0-1.082,0.746-1.624,1.968-1.624
				c0.632,0,1.698,0.205,1.698,0.205L60.54,69.537z"/>
			<path fill="#E21D38" d="M62.657,70.997v1.673c0,0.566,0.017,0.779,0.427,0.779c0.229,0,0.664-0.024,0.664-0.024l0.041,0.804
				c0,0-0.55,0.115-0.837,0.115c-0.942,0-1.23-0.361-1.23-1.542v-1.805h-0.517v-0.845h0.517v-1.189h0.936v1.189h1.107v0.845H62.657z
				"/>
			<path fill="#E21D38" d="M67.973,70.152v4.093h-0.936V74.04c0,0-0.64,0.295-1.082,0.295c-1.182,0-1.42-0.606-1.42-2.042v-2.141
				h0.936v2.133c0,0.869,0.049,1.205,0.673,1.205c0.36,0,0.894-0.188,0.894-0.188v-3.149H67.973z"/>
			<path fill="#E21D38" d="M72.509,74.245h-0.943v-0.197c0,0-0.582,0.287-1.065,0.287c-1.092,0-1.559-0.615-1.559-2.165
				c0-1.469,0.541-2.116,1.706-2.116c0.319,0,0.877,0.099,0.918,0.107v-1.657h0.943V74.245z M71.565,73.285V70.98
				c-0.041,0-0.508-0.073-0.853-0.073c-0.566,0-0.82,0.369-0.82,1.271c0,0.993,0.254,1.271,0.755,1.288
				C71.049,73.457,71.565,73.285,71.565,73.285z"/>
			<path fill="#E21D38" d="M73.731,68.495h0.936v0.992h-0.936V68.495z M73.731,70.152h0.936v4.093h-0.936V70.152z"/>
			<path fill="#E21D38" d="M78.981,73.408l0.017,0.73c0,0-0.936,0.196-1.665,0.196c-1.238,0-1.723-0.647-1.723-2.092
				c0-1.492,0.64-2.189,1.78-2.189c1.164,0,1.747,0.599,1.747,1.87l-0.066,0.673h-2.518c0.008,0.599,0.254,0.886,0.919,0.886
				C78.12,73.482,78.981,73.408,78.981,73.408z M78.21,71.867c0-0.714-0.237-0.977-0.819-0.977c-0.583,0-0.837,0.295-0.837,0.977
				H78.21z"/>
			<path fill="#E21D38" d="M82.977,71.038c0,0-0.984-0.131-1.477-0.131c-0.483,0-0.681,0.106-0.681,0.418
				c0,0.254,0.172,0.32,0.853,0.427c1.083,0.172,1.444,0.459,1.444,1.271c0,0.959-0.624,1.312-1.633,1.312
				c-0.582,0-1.533-0.18-1.533-0.18l0.032-0.796c0,0,0.993,0.131,1.411,0.131c0.574,0,0.787-0.114,0.787-0.442
				c0-0.263-0.131-0.337-0.787-0.443c-1.05-0.172-1.509-0.401-1.509-1.255c0-0.935,0.729-1.296,1.55-1.296
				c0.599,0,1.558,0.188,1.558,0.188L82.977,71.038z"/>
		</g>
	</g>
</g>
</svg>
