<?xml version="1.0" encoding="iso-8859-1"?>
<!-- Generator: Adobe Illustrator 18.1.1, SVG Export Plug-In . SVG Version: 6.00 Build 0)  -->
<!DOCTYPE svg PUBLIC "-//W3C//DTD SVG 1.1//EN" "http://www.w3.org/Graphics/SVG/1.1/DTD/svg11.dtd">
<svg version="1.1" xmlns="http://www.w3.org/2000/svg" xmlns:xlink="http://www.w3.org/1999/xlink" x="0px" y="0px"
	 viewBox="0 0 85 85" style="enable-background:new 0 0 85 85;" xml:space="preserve">
<g id="ventureboard">
	<g>
		<path d="M44.749,45.475h-4.316c-1.592,2.976-3.194,5.906-4.766,8.761c-1.675,3.041-3.356,6.083-4.995,9.134
			c-0.147,0.275-0.434,0.381-0.745,0.381c-0.001,0-0.003,0-0.004,0c-0.311,0-0.596-0.095-0.745-0.365
			c-1.658-3.016-3.351-6.044-5.031-9.15c-1.544-2.856-3.152-5.784-4.784-8.76h-4.323c-0.47,0-1.014-0.409-1.014-0.879V40.03
			c0-0.47,0.544-0.93,1.014-0.93h12.832c0.469,0,1.029,0.46,1.029,0.93v4.566c0,0.47-0.561,0.879-1.029,0.879h-1.553
			c0.742,1.275,1.465,2.555,2.154,3.818c0.545,1,1.028,1.999,1.447,3.008c0.412-1.006,0.888-2.006,1.421-3.005
			c0.677-1.268,1.391-2.546,2.13-3.821h-1.959c-0.47,0-0.912-0.409-0.912-0.879V40.03c0-0.47,0.442-0.93,0.912-0.93h13.237
			c0.469,0,0.726,0.46,0.726,0.93v4.566C45.475,45.065,45.218,45.475,44.749,45.475z M72.315,50.838c0,1.65-0.324,3.241-0.965,4.73
			c-0.639,1.48-1.521,2.795-2.632,3.905c-1.113,1.115-2.445,2.003-3.967,2.64c-1.525,0.639-3.158,0.962-4.881,0.962
			c-1.19,0-2.256-0.137-3.214-0.407c-0.937-0.265-1.709-0.578-2.393-0.93c-0.3-0.155-0.715-0.307-0.715-0.459v0.426
			c0,0.469-0.574,0.771-1.044,0.771h-8.613c-0.469,0-0.968-0.302-0.968-0.771v-4.565c0-0.47,0.499-1.038,0.968-1.038h3.708V23.8
			h-3.129c-0.47,0-0.697-0.41-0.697-0.879v-4.566c0-0.469,0.228-0.929,0.697-0.929h8.611c0.47,0,0.892,0.459,0.892,0.929v21.97
			c0-0.08,0.261-0.158,0.407-0.237c0.697-0.369,1.494-0.7,2.409-0.985c0.945-0.294,1.974-0.443,3.055-0.443
			c1.724,0,3.37,0.324,4.896,0.962c1.522,0.639,2.859,1.527,3.971,2.64c1.109,1.108,1.996,2.412,2.634,3.873
			C71.989,47.604,72.315,49.187,72.315,50.838z M64.179,46.671c-1.102-1.097-2.51-1.63-4.304-1.63c-1.795,0-3.203,0.533-4.305,1.63
			c-1.102,1.096-1.637,2.459-1.637,4.167c0,1.675,0.538,3.039,1.645,4.175c1.101,1.131,2.506,1.68,4.297,1.68
			c1.789,0,3.194-0.549,4.296-1.68c1.106-1.137,1.646-2.502,1.646-4.175C65.816,49.132,65.28,47.769,64.179,46.671z M85,14.713
			V69.65C85,78.124,78.644,85,70.286,85H16.109C7.752,85,0,78.124,0,69.65V14.713C0,6.239,7.752,0,16.109,0h54.123
			C78.589,0,85,6.239,85,14.713z M76.074,14.713c0-3.251-2.667-5.363-5.874-5.363H16.109c-3.206,0-6.334,2.112-6.334,5.363V69.65
			c0,3.251,3.128,5.999,6.334,5.999h5.565v-5.525h42.501v5.525h6.11c3.205,0,5.788-2.748,5.788-5.999V14.713z"/>
	</g>
</g>
<g id="Layer_1">
</g>
</svg>
