<?xml version="1.0" encoding="UTF-8" standalone="no"?>
<!DOCTYPE svg PUBLIC "-//W3C//DTD SVG 20010904//EN" "http://www.w3.org/TR/2001/REC-SVG-20010904/DTD/svg10.dtd">
<svg version="1.0" xmlns="http://www.w3.org/2000/svg" width="2907.000000pt" height="447.000000pt" viewBox="0 0 2907.000000 447.000000" preserveAspectRatio="xMidYMid meet">
<metadata>
Created by potrace 1.11, written by Peter Selinger 2001-2013
</metadata>
<g transform="translate(0.000000,447.000000) scale(0.100000,-0.100000)" fill="#000000" stroke="none">
<path d="M6345 4406 c-175 -72 -302 -154 -401 -258 -78 -83 -116 -147 -139 -233 -29 -113 -13 -189 61 -300 88 -131 84 -101 84 -531 l0 -381 -52 -6 c-102 -12 -191 -74 -237 -166 -31 -60 -54 -194 -47 -268 12 -120 26 -152 41 -100 13 40 57 89 99 108 28 13 65 19 119 19 l77 0 1 -417 0 -418 280 -240 c153 -132 291 -250 307 -262 l27 -22 224 250 c123 137 226 249 230 249 3 0 136 -112 295 -249 l289 -250 53 47 c28 26 226 207 438 402 l385 355 1 785 0 786 -234 233 c-129 128 -238 232 -244 230 -5 -2 -116 -116 -247 -252 -131 -136 -241 -246 -246 -245 -5 2 -124 115 -265 253 l-257 249 -248 -254 -248 -255 -1 131 c0 147 -22 256 -65 330 -14 23 -54 74 -89 113 -81 87 -107 138 -114 216 -9 122 52 242 165 325 96 70 83 78 -42 26z m-302 -233 c-82 -104 -128 -227 -121 -328 3 -52 11 -73 51 -137 26 -42 60 -102 75 -135 l27 -58 3 -407 3 -408 -45 0 -46 0 0 365 c0 223 -4 384 -11 414 -6 30 -31 82 -60 126 -86 133 -92 148 -87 241 6 113 44 189 149 297 79 82 117 100 62 30z m920 -919 l147 -143 0 -793 1 -793 260 -225 c143 -124 270 -233 282 -243 l22 -17 -35 -30 c-19 -16 -38 -30 -42 -30 -3 0 -136 111 -295 247 l-288 248 3 792 2 791 -172 170 -171 169 28 36 29 36 40 -36 c23 -20 107 -101 189 -179z m1107 -969 l0 -881 -45 -44 -45 -44 0 899 0 900 -142 142 -142 143 34 35 34 35 153 -152 153 -153 0 -880z m-1249 928 l159 -157 0 -802 0 -803 -48 -51 -47 -52 -197 168 -197 169 -1 763 0 762 76 80 c42 44 81 80 87 80 5 0 81 -71 168 -157z m987 24 l132 -132 -2 -888 -3 -887 -207 177 -207 178 0 763 -1 764 73 79 c39 43 74 79 77 79 3 0 65 -60 138 -133z m-1728 -1277 l0 -440 270 -231 c149 -128 270 -235 270 -238 -1 -3 -14 -21 -30 -40 l-29 -34 -63 54 c-35 30 -164 140 -286 244 l-222 190 0 428 0 427 -100 0 c-103 0 -154 -13 -192 -47 -17 -15 -18 -15 -18 4 0 30 41 84 80 104 29 16 58 19 177 19 l143 0 0 -440z"/>
<path d="M2392 3583 l-222 -237 0 -939 0 -939 -75 -81 c-42 -45 -74 -86 -73 -92 2 -6 90 -91 197 -189 156 -142 196 -175 206 -164 6 7 85 91 176 187 l164 174 -68 61 -67 61 0 611 0 611 38 42 37 42 123 -113 123 -113 -3 -815 c-4 -904 0 -849 -71 -985 -36 -67 -143 -180 -200 -210 -20 -11 -37 -23 -37 -27 0 -16 44 -7 148 27 313 105 522 301 598 560 16 54 18 136 23 862 l6 802 33 33 c23 24 29 37 21 45 -7 7 -21 0 -47 -28 l-37 -39 -190 174 c-104 97 -193 175 -196 176 -3 0 -86 -86 -185 -191 l-179 -191 -3 561 c-1 309 -6 561 -11 561 -4 0 -108 -107 -229 -237z m-148 -2229 c-26 -30 -45 -56 -43 -57 2 -2 66 -59 142 -126 l138 -124 -32 -33 c-18 -19 -37 -34 -42 -34 -4 0 -84 71 -177 157 l-169 157 48 55 c27 31 58 65 70 75 l21 19 0 946 0 945 43 44 42 43 3 -1006 2 -1007 -46 -54z m704 1326 l123 -115 -3 -815 -3 -815 -23 -58 c-22 -53 -134 -190 -116 -142 3 11 13 37 20 58 30 81 34 188 34 948 l0 776 -52 49 c-29 26 -86 79 -127 117 l-73 69 33 34 c38 40 20 50 187 -106z"/>
<path d="M12062 3583 l-222 -238 0 -940 0 -940 -80 -80 c-44 -44 -79 -82 -78 -86 2 -3 93 -88 202 -188 189 -172 201 -181 216 -164 9 10 88 94 176 187 l159 169 -68 62 -67 61 0 610 0 609 38 43 37 43 123 -113 122 -113 -3 -815 c-3 -904 1 -849 -70 -985 -36 -67 -143 -180 -200 -210 -63 -33 -46 -46 32 -24 359 99 595 303 678 584 16 55 18 133 21 856 l3 797 35 40 c45 53 26 67 -24 19 l-37 -36 -190 174 c-104 96 -192 174 -195 175 -3 0 -86 -86 -185 -191 l-180 -191 -3 561 c-1 308 -6 561 -10 561 -5 0 -108 -107 -230 -237z m-147 -2229 l-45 -53 135 -123 c74 -68 135 -126 135 -130 0 -11 -51 -68 -62 -68 -8 0 -157 135 -328 297 l-25 23 73 73 72 72 0 943 0 942 43 47 42 46 3 -1008 2 -1008 -45 -53z m697 1340 l126 -119 -1 -820 -2 -820 -23 -58 c-22 -53 -134 -190 -116 -142 3 11 13 36 20 57 31 84 34 174 34 944 l0 781 -52 48 c-29 27 -86 80 -126 118 l-73 70 33 34 c18 18 37 32 43 30 5 -2 67 -57 137 -123z"/>
<path d="M690 3770 c-246 -33 -434 -195 -529 -456 -49 -135 -82 -346 -67 -428 10 -53 22 -44 36 26 34 173 168 305 349 344 81 17 169 18 261 3 l69 -12 -57 -40 c-567 -397 -779 -764 -733 -1269 47 -516 327 -878 767 -993 233 -60 504 -29 702 81 279 156 502 492 566 855 33 187 27 204 -27 79 -72 -164 -218 -338 -356 -423 l-61 -37 0 788 0 789 50 11 c193 45 351 205 405 411 16 63 32 221 22 221 -3 0 -17 -20 -31 -44 -71 -121 -248 -197 -424 -182 -113 10 -231 50 -422 141 -96 46 -203 93 -238 105 -55 18 -187 41 -217 38 -5 0 -35 -4 -65 -8z m1331 -323 c-68 -195 -251 -330 -479 -353 -136 -13 -256 14 -590 135 -288 104 -509 93 -683 -35 -33 -25 -63 -43 -65 -41 -9 9 79 115 124 149 103 79 187 107 317 108 103 0 163 -15 386 -95 251 -91 328 -109 464 -108 226 0 386 80 497 249 24 36 44 61 46 55 2 -5 -6 -34 -17 -64z m-1033 -264 c70 -25 167 -58 216 -73 87 -27 89 -28 65 -42 -13 -9 -143 -80 -289 -158 -146 -79 -267 -145 -269 -147 -3 -2 0 -8 6 -14 9 -9 26 -3 67 20 l56 31 -2 -592 -3 -593 -53 -29 -54 -28 -30 28 c-97 93 -192 267 -234 429 -35 136 -43 318 -20 473 34 228 115 410 264 592 60 72 134 150 144 150 5 0 66 -21 136 -47z m494 -118 l98 0 0 -792 0 -792 -57 -21 c-110 -41 -183 -53 -323 -53 -174 -1 -272 24 -394 100 l-48 30 279 151 278 150 3 621 2 620 33 -6 c17 -4 76 -7 129 -8z m-1108 -241 c-170 -237 -231 -405 -241 -659 -9 -232 25 -403 117 -590 123 -248 329 -422 595 -501 122 -36 308 -44 419 -19 155 34 324 140 505 314 52 50 96 89 98 88 1 -2 -22 -39 -51 -83 -134 -194 -319 -335 -521 -395 -110 -33 -310 -37 -445 -9 -198 41 -340 112 -473 239 -224 214 -331 494 -330 866 0 140 3 172 26 258 31 117 105 275 174 372 54 75 173 209 180 202 2 -3 -22 -40 -53 -83z m586 -554 l0 -590 -40 -20 c-21 -11 -42 -20 -45 -20 -3 0 -5 265 -5 588 l0 588 43 21 c23 12 43 22 45 22 1 1 2 -264 2 -589z"/>
<path d="M13540 3612 c-85 -91 -155 -168 -155 -171 0 -4 76 -77 168 -163 l169 -156 156 165 c87 90 158 167 160 172 2 6 -265 257 -323 303 -20 16 -25 12 -175 -150z m203 -343 l41 -36 -27 -37 -28 -37 -30 26 c-17 14 -86 78 -155 142 l-124 118 32 32 31 32 110 -102 c60 -56 127 -118 150 -138z"/>
<path d="M24260 3472 l-285 -304 -3 221 c-2 187 -5 221 -17 221 -13 0 -15 -34 -15 -237 l0 -238 -50 -55 -49 -55 -1 192 0 192 -197 180 c-108 100 -200 181 -203 181 -4 0 -101 -101 -217 -224 -161 -170 -209 -226 -200 -235 9 -9 21 -1 52 34 l40 46 93 -86 92 -87 0 -227 0 -228 -61 -6 c-118 -10 -222 -87 -277 -205 -25 -53 -27 -67 -27 -194 0 -164 8 -180 53 -108 52 83 143 130 255 130 l57 0 0 -413 0 -414 -87 -43 c-156 -77 -278 -225 -338 -408 -18 -57 -46 -204 -40 -211 3 -2 25 14 51 35 124 104 210 155 328 195 l81 27 5 -576 5 -575 245 226 c135 125 248 226 252 224 4 -1 43 -35 87 -75 l81 -73 0 421 0 421 23 -6 c65 -19 153 -72 219 -134 l73 -68 367 276 367 276 0 930 0 930 -237 216 -238 215 -284 -304z m-936 -100 l96 -93 0 -259 0 -260 -45 0 -45 0 0 239 0 239 -37 32 c-21 18 -64 58 -96 88 l-58 55 32 33 c19 20 37 30 45 26 6 -4 55 -49 108 -100z m1158 -46 l128 -119 0 -991 0 -992 -45 -37 -45 -38 0 1005 0 1004 -135 123 c-74 67 -135 125 -135 128 0 3 14 20 32 38 37 39 14 53 200 -121z m-84 -101 l91 -80 1 -888 0 -888 -50 43 c-107 92 -247 156 -380 173 -30 3 -63 9 -72 11 -17 5 -18 50 -18 762 l1 757 125 132 126 133 42 -38 c24 -20 84 -73 134 -117z m-458 -1507 l0 -1352 -50 49 -50 49 0 1255 0 1255 47 48 c26 26 49 48 50 48 2 0 3 -608 3 -1352z m-520 -386 l0 -1178 -45 -44 -45 -44 0 1173 0 1174 -99 -6 c-112 -6 -168 -25 -219 -76 -35 -36 -40 -29 -17 26 34 81 88 128 165 144 19 4 86 7 148 8 l112 1 0 -1178z m703 -83 c74 -29 151 -84 202 -144 25 -29 45 -57 45 -62 0 -5 -20 -24 -43 -41 l-44 -31 -58 59 c-60 61 -138 109 -212 131 l-43 12 0 57 0 57 51 -9 c29 -5 74 -18 102 -29z m-823 -18 l0 -49 -84 -26 c-95 -29 -180 -71 -238 -117 -21 -17 -41 -29 -44 -27 -10 11 85 125 137 164 63 48 85 60 154 85 73 27 75 26 75 -30z"/>
<path d="M18053 3522 l-222 -237 -1 -142 0 -143 -54 0 -53 0 -72 -108 c-39 -59 -71 -111 -71 -115 0 -4 56 -7 125 -7 l125 0 0 -746 0 -746 -36 -43 c-47 -58 -35 -80 16 -30 l38 38 197 -157 197 -156 72 78 c40 42 131 140 203 217 104 112 129 143 120 154 -9 11 -20 4 -57 -37 l-45 -51 -122 95 -123 96 0 644 0 644 100 0 100 0 70 105 c38 57 70 109 70 115 0 6 -60 10 -170 10 l-170 0 0 380 c0 209 -3 380 -7 380 -5 0 -108 -107 -230 -238z m-103 -342 l0 -180 -45 0 -45 0 0 137 0 137 42 43 c23 24 43 43 45 43 2 0 3 -81 3 -180z m0 -1134 l0 -724 173 -138 c94 -75 174 -139 176 -141 3 -2 -10 -19 -28 -37 l-33 -34 -187 147 -186 147 -3 752 -2 752 45 0 45 0 0 -724z"/>
<path d="M28453 3522 l-222 -237 -1 -142 0 -143 -52 0 -53 -1 -73 -107 c-39 -59 -72 -110 -72 -114 0 -5 56 -8 125 -8 l125 0 0 -746 0 -747 -36 -43 c-46 -57 -34 -78 16 -29 l39 38 43 -34 c24 -18 112 -89 197 -156 l153 -123 82 87 c319 341 325 348 313 361 -8 11 -20 3 -56 -37 l-46 -50 -122 95 -123 95 0 645 0 644 100 0 100 0 70 105 c38 57 70 109 70 115 0 6 -60 10 -170 10 l-170 0 0 380 c0 209 -3 380 -7 379 -5 0 -108 -107 -230 -237z m-103 -342 l0 -180 -45 0 -45 0 0 137 0 137 42 43 c23 24 43 43 45 43 2 0 3 -81 3 -180z m0 -1133 l0 -723 167 -134 c91 -74 171 -138 177 -142 12 -8 -40 -68 -58 -67 -6 0 -92 64 -191 143 l-180 143 -3 751 -2 752 45 0 45 0 0 -723z"/>
<path d="M4028 2788 l-398 -291 0 -547 0 -546 -40 -39 c-35 -34 -38 -40 -23 -49 13 -7 24 -1 49 28 l32 37 280 -226 c154 -124 282 -225 284 -225 13 0 549 583 545 593 -2 7 -8 12 -14 12 -5 0 -61 -55 -124 -122 -62 -68 -116 -123 -119 -123 -3 1 -97 74 -210 163 l-205 162 -2 115 -3 115 385 284 385 283 -19 32 c-273 440 -393 631 -399 633 -4 1 -186 -129 -404 -289z m347 -247 c102 -166 185 -304 183 -305 -2 -2 -19 -14 -38 -28 l-35 -26 -185 300 c-102 165 -187 305 -189 311 -5 13 62 68 71 59 3 -4 90 -144 193 -311z m-88 -89 c96 -156 171 -287 167 -292 -14 -12 -318 -236 -348 -255 l-26 -17 0 443 c1 400 2 442 16 424 8 -11 94 -148 191 -303z m-282 -1202 c138 -114 250 -211 250 -216 0 -5 -10 -22 -22 -38 l-23 -29 -272 220 -273 220 -2 539 -2 539 42 31 42 31 5 -545 5 -546 250 -206z"/>
<path d="M9108 2793 l-398 -286 0 -581 -1 -581 -29 -35 c-41 -47 -22 -66 22 -23 l33 31 219 -194 219 -194 174 180 c96 99 179 180 185 180 9 0 181 -156 339 -308 l56 -53 192 206 c146 155 191 210 186 223 -6 14 -13 10 -44 -25 l-38 -42 -117 110 -116 111 0 590 0 590 40 46 c28 31 37 49 30 56 -7 7 -22 -1 -48 -26 l-37 -37 -220 174 c-121 96 -227 174 -235 174 -8 0 -194 -129 -412 -286z m368 -60 l184 -148 0 -615 0 -615 163 -150 c89 -82 162 -152 162 -155 0 -3 -13 -22 -30 -42 l-30 -36 -182 172 -183 171 0 612 0 612 -175 138 c-96 75 -175 140 -175 143 0 7 71 60 79 60 2 0 86 -66 187 -147z m-111 -80 l164 -128 0 -596 1 -595 -27 -26 -28 -27 -152 132 -152 132 0 624 c-1 559 1 623 15 617 8 -3 89 -63 179 -133z m-330 -1432 c107 -96 195 -177 195 -180 0 -12 -58 -63 -67 -60 -5 2 -102 87 -216 189 l-207 184 0 571 0 570 48 33 47 33 3 -584 2 -583 195 -173z"/>
<path d="M10748 2834 l-348 -245 0 -395 0 -394 180 0 c99 0 180 -3 180 -6 0 -3 -128 -193 -285 -421 -157 -229 -283 -418 -280 -421 3 -3 18 4 33 16 144 113 206 136 353 130 97 -4 113 -8 182 -41 42 -20 98 -56 125 -81 l48 -45 337 237 337 237 0 452 0 453 -220 2 -220 3 254 370 c226 330 282 420 227 371 -33 -30 -128 -65 -207 -76 -122 -18 -209 3 -303 74 -19 14 -37 26 -40 26 -3 0 -162 -111 -353 -246z m202 86 c0 -17 91 -79 148 -101 73 -27 179 -27 286 1 44 11 81 18 83 16 9 -9 -117 -81 -180 -103 -97 -34 -207 -30 -288 10 -56 27 -149 101 -149 117 0 9 79 69 93 70 4 0 7 -4 7 -10z m68 -220 c106 -40 281 -18 375 46 21 14 40 24 42 22 2 -1 -89 -137 -203 -300 l-205 -298 -84 0 -83 0 0 315 0 315 53 -40 c28 -22 76 -49 105 -60z m-328 -772 l169 -3 -35 -47 -34 -48 -180 0 -180 0 1 373 0 372 42 34 42 33 3 -356 2 -356 170 -2z m590 -286 l0 -428 -50 -37 -50 -37 0 415 0 415 -120 0 c-66 0 -120 3 -120 6 0 3 14 25 30 50 l31 44 139 0 140 0 0 -428z m-130 -67 l0 -365 -62 50 c-81 65 -151 92 -258 97 -127 7 -237 -27 -358 -109 -24 -17 -45 -28 -48 -26 -3 4 204 311 423 626 l64 92 119 0 120 0 0 -365z m-389 -385 c75 -14 150 -53 211 -109 l52 -48 -46 -31 -45 -31 -38 39 c-51 52 -163 106 -251 121 -59 11 -83 10 -145 -3 -41 -8 -83 -18 -94 -22 -16 -6 -15 -4 5 13 31 25 119 60 180 71 66 11 111 11 171 0z"/>
<path d="M13378 2880 c-104 -110 -188 -204 -188 -209 0 -24 21 -18 49 15 l32 36 94 -87 95 -87 0 -621 -1 -622 -39 -45 c-28 -31 -36 -48 -29 -56 7 -9 19 -2 47 27 l37 40 187 -170 187 -171 202 216 c158 168 199 218 190 227 -10 9 -22 1 -56 -38 l-44 -50 -48 45 c-26 25 -76 72 -110 105 l-63 59 0 625 0 625 41 42 c30 30 40 48 35 60 -6 15 -13 11 -50 -25 l-43 -42 -164 150 c-90 83 -166 150 -169 151 -3 0 -89 -90 -192 -200z m100 -172 l112 -102 0 -632 0 -631 160 -148 161 -148 -24 -31 c-14 -17 -29 -31 -35 -31 -6 0 -90 71 -186 158 l-176 159 0 628 0 628 -100 94 -99 94 32 32 c17 18 34 32 38 32 3 0 56 -46 117 -102z"/>
<path d="M14352 2873 c-151 -166 -188 -211 -179 -222 9 -11 19 -5 52 32 l41 45 102 -95 102 -95 0 -542 0 -542 -72 -79 -73 -78 77 -71 c42 -39 130 -122 196 -183 l120 -113 168 180 c93 99 170 187 172 194 2 7 -26 39 -63 71 l-65 57 0 587 0 587 59 58 60 59 115 -109 115 -109 1 -621 0 -621 143 -130 c78 -71 160 -146 183 -166 l41 -36 178 190 c231 248 231 247 216 262 -10 9 -23 0 -58 -40 l-46 -53 -98 91 -99 91 0 610 0 610 45 50 c25 28 45 54 45 59 0 19 -26 7 -65 -30 l-40 -39 -190 173 c-104 96 -193 174 -196 174 -4 1 -96 -95 -205 -213 l-199 -214 -5 47 c-5 47 -6 48 -192 214 -103 92 -189 167 -191 167 -2 0 -90 -93 -195 -207z m224 -256 l24 -19 0 -595 0 -596 -45 -52 -45 -53 118 -108 c64 -59 126 -116 136 -125 18 -17 18 -18 -14 -58 l-32 -41 -161 151 c-89 84 -169 158 -177 166 -12 11 -5 22 53 81 l67 68 0 557 0 557 -67 63 c-38 35 -86 80 -108 100 l-40 36 34 35 34 35 99 -92 c55 -51 110 -100 124 -110z m694 72 l130 -121 1 -622 0 -621 155 -134 c85 -73 154 -136 154 -140 0 -4 -15 -22 -33 -39 l-34 -33 -166 148 -167 148 0 622 0 621 -122 115 -123 116 29 30 c17 17 34 31 38 31 5 0 67 -54 138 -121z"/>
<path d="M16538 2793 l-398 -286 0 -611 0 -612 -40 -39 c-27 -26 -37 -42 -30 -49 7 -7 23 3 49 28 26 26 44 36 53 30 7 -4 102 -79 211 -166 l197 -159 -272 -315 c-299 -346 -313 -363 -305 -370 3 -3 33 9 67 26 34 17 110 47 168 67 97 33 118 37 217 37 105 1 113 -1 177 -32 40 -19 97 -61 142 -103 l75 -70 218 162 c141 106 255 200 324 269 123 122 151 171 150 263 0 53 -5 69 -51 147 -29 51 -54 110 -60 140 -6 32 -10 344 -10 799 l1 746 39 45 c28 31 36 48 29 56 -7 9 -19 2 -47 -27 l-37 -39 -222 175 c-123 96 -228 175 -235 174 -7 0 -192 -129 -410 -286z m367 -68 l184 -146 3 -742 3 -742 22 -41 c12 -23 61 -76 108 -119 48 -44 93 -92 101 -107 35 -67 26 -159 -18 -195 -10 -9 -12 -2 -10 37 6 84 -32 135 -187 253 -48 37 -69 61 -89 105 l-27 57 -3 727 -3 727 -174 137 c-96 76 -175 141 -175 145 0 8 60 49 73 49 4 0 91 -65 192 -145z m-81 -95 l135 -105 0 -580 0 -580 -42 -47 -43 -48 -137 107 -137 107 0 659 0 659 44 -34 c25 -18 106 -80 180 -138z m-364 -1440 c102 -78 189 -145 194 -150 5 -5 -5 -26 -23 -49 l-32 -40 -215 171 -214 172 0 596 0 596 48 35 47 36 5 -613 5 -613 185 -141z m514 -116 c16 -84 49 -124 169 -208 88 -62 127 -120 127 -190 -1 -66 -30 -129 -87 -187 l-45 -47 -65 49 c-35 27 -78 56 -95 65 -186 96 -415 82 -662 -43 l-89 -44 63 73 c35 40 199 230 364 421 l301 348 6 -99 c4 -55 10 -117 13 -138z m-250 -639 c32 -17 93 -61 134 -99 l74 -70 -33 -28 c-19 -15 -37 -28 -40 -28 -4 0 -36 29 -73 65 -94 90 -173 127 -281 133 -85 4 -202 -14 -274 -44 -47 -20 -49 -11 -4 16 103 61 223 91 348 87 76 -3 99 -8 149 -32z"/>
<path d="M19131 2814 l-371 -266 0 -597 0 -597 -35 -34 c-27 -26 -32 -37 -23 -47 8 -11 17 -6 43 24 l32 37 267 -202 c146 -111 269 -202 273 -202 3 0 165 118 359 262 l354 262 0 600 0 600 46 47 c37 38 43 48 31 57 -11 9 -20 4 -46 -28 -18 -22 -36 -40 -42 -40 -5 0 -121 88 -258 195 -137 107 -251 195 -254 195 -2 0 -171 -120 -376 -266z m568 -901 l1 -661 -42 -36 -43 -35 -5 669 -5 668 -197 158 -197 157 42 32 41 32 203 -161 202 -161 0 -662z m-292 726 l172 -134 1 -633 0 -632 -182 139 -183 138 -3 633 c-2 497 0 631 10 628 7 -3 90 -65 185 -139z m-276 -1424 l252 -198 -33 -27 -33 -27 -263 201 -264 200 0 583 0 583 43 31 42 30 3 -589 2 -589 251 -198z"/>
<path d="M20363 2873 c-150 -164 -189 -211 -180 -222 9 -10 19 -4 53 31 l42 44 101 -94 101 -94 0 -542 0 -542 -72 -79 -73 -78 77 -71 c42 -39 130 -122 196 -183 l119 -113 169 180 c93 99 170 186 172 194 2 8 -26 40 -62 72 l-66 58 0 586 0 586 59 58 60 59 115 -109 116 -109 0 -621 0 -622 143 -128 c78 -71 160 -146 183 -166 l41 -38 176 189 c231 247 233 249 218 264 -9 9 -22 0 -58 -41 l-45 -52 -99 91 -99 92 0 609 0 610 45 50 c25 28 45 54 45 59 0 19 -26 7 -65 -30 l-40 -39 -190 173 c-104 96 -193 174 -196 174 -4 1 -96 -95 -205 -213 l-199 -215 -5 48 c-5 47 -6 48 -192 214 -103 92 -189 167 -191 167 -2 0 -90 -93 -194 -207z m127 -168 l120 -110 0 -594 0 -594 -45 -52 -44 -53 117 -108 c64 -59 126 -115 136 -125 18 -17 18 -18 -14 -58 l-32 -41 -161 151 c-89 84 -169 158 -177 166 -12 11 -5 22 53 81 l67 68 0 559 -1 560 -104 95 c-58 52 -105 98 -105 102 0 12 52 69 61 66 5 -2 63 -53 129 -113z m838 -55 l82 -75 0 -622 0 -622 122 -108 c67 -59 138 -122 158 -140 l35 -32 -36 -36 -35 -36 -167 148 -167 148 0 622 0 621 -122 115 -123 116 34 35 34 35 52 -47 c28 -26 88 -81 133 -122z"/>
<path d="M25612 2814 l-372 -267 0 -597 0 -596 -35 -34 c-27 -26 -32 -37 -23 -47 8 -11 17 -6 43 24 l32 37 244 -184 c134 -100 254 -192 267 -204 21 -18 25 -19 46 -6 13 8 175 127 360 264 l336 249 0 599 0 599 45 48 c32 34 41 51 34 58 -8 8 -21 0 -46 -28 -19 -21 -39 -39 -44 -39 -5 0 -119 87 -254 193 -135 105 -249 193 -253 195 -5 1 -176 -118 -380 -264z m411 -114 l157 -125 0 -662 0 -661 -42 -36 -43 -35 -3 668 -2 667 -200 158 -199 158 42 33 42 33 46 -37 c25 -20 116 -92 202 -161z m-130 -65 l166 -130 1 -627 c0 -346 -2 -628 -5 -628 -3 0 -84 59 -180 131 l-175 131 0 635 c0 530 2 633 14 626 7 -4 88 -66 179 -138z m-282 -1419 c240 -190 250 -199 233 -217 -37 -41 -43 -38 -314 168 l-260 198 0 582 0 583 43 31 42 30 3 -588 2 -589 251 -198z"/>
<path d="M27063 2832 l-353 -247 0 -392 0 -393 185 0 c102 0 185 -2 185 -5 0 -2 -129 -192 -286 -420 -157 -229 -283 -419 -280 -422 3 -3 33 16 68 42 99 75 158 98 262 103 148 7 262 -32 365 -124 l47 -43 337 237 337 237 0 453 0 452 -220 0 c-121 0 -220 2 -220 4 0 2 114 170 253 372 140 203 252 372 250 376 -2 5 -21 -3 -41 -17 -97 -67 -298 -91 -394 -48 -26 12 -67 35 -92 52 -25 17 -46 31 -48 31 -2 0 -162 -111 -355 -248z m314 5 c26 -13 62 -27 78 -31 53 -13 168 -7 249 14 44 11 82 20 85 20 15 0 -95 -70 -151 -96 -56 -26 -74 -29 -163 -29 -87 0 -107 3 -155 26 -30 14 -79 47 -108 74 l-53 48 48 32 48 33 37 -34 c21 -18 59 -44 85 -57z m-145 -77 c76 -58 142 -80 239 -80 88 0 173 23 241 66 22 14 41 24 43 22 1 -2 -91 -137 -204 -300 l-206 -298 -87 0 -88 0 0 315 c0 173 2 315 5 315 2 0 28 -18 57 -40z m-392 -475 l0 -355 170 0 170 0 -36 -50 -36 -50 -184 0 -184 0 0 367 0 367 43 38 c23 20 45 37 50 38 4 0 7 -160 7 -355z m750 -647 l0 -433 -39 -27 c-22 -16 -42 -28 -45 -28 -3 0 -6 184 -6 410 l0 409 -124 3 -124 3 35 48 35 47 134 0 134 0 0 -432z m-120 -68 l0 -370 -42 42 c-24 22 -76 57 -117 76 -156 75 -343 50 -519 -69 -24 -16 -46 -28 -49 -26 -2 3 105 165 239 360 l243 356 123 1 122 0 0 -370z m-391 -380 c71 -13 151 -55 212 -109 l51 -46 -43 -31 -44 -32 -48 44 c-56 50 -128 87 -212 109 -76 19 -133 18 -219 -4 -80 -21 -71 -7 22 35 86 39 189 52 281 34z"/>
</g>
</svg>