<?xml version="1.0" encoding="utf-8"?>
<!-- Generator: Adobe Illustrator 16.0.3, SVG Export Plug-In . SVG Version: 6.00 Build 0)  -->
<!DOCTYPE svg PUBLIC "-//W3C//DTD SVG 1.1//EN" "http://www.w3.org/Graphics/SVG/1.1/DTD/svg11.dtd">
<svg version="1.1" xmlns="http://www.w3.org/2000/svg" xmlns:xlink="http://www.w3.org/1999/xlink" x="0px" y="0px" width="254px"
	 height="100px" viewBox="0 0 254 100" enable-background="new 0 0 254 100" xml:space="preserve">
<g id="guides">
</g>
<g id="Layer_2">
	<g>
		<path fill="#EC1B2E" d="M57.727,59.479l9.816-1.186l-0.297-0.352l0.145-0.018l-0.239-0.094l-6.509-7.725l6.639-7.814l-9.422-1.82
			l0.8-9.363l0.237-0.273l-0.221,0.086l0.037-0.428l-9.453,3.721l-4.713-8.57l-5.249,8.467l-8.972-3.771l-0.032-0.043l0.002,0.031
			l-0.399-0.168l0.042,0.434l-0.048-0.021l0.053,0.07l1.01,9.926l-9.608,1.725l6.968,7.186l-7.762,7.354l-0.111,0.047l0.052,0.01
			l-0.347,0.326l0.479,0.076l-0.061,0.059l0.14-0.047l10.322,1.641L29.31,69.887l9.672-5.045l4.747,8.994l-0.005,0.227l0.063-0.117
			l0.218,0.412l5.025-9.414l8.904,4.773L57.727,59.479z M44.646,70.504l0.09-6.113l3.768-5.465l-0.343,4.998L44.646,70.504z
			 M43.488,64.492l-0.092,6.043l-3.532-6.693l-0.069-4.781L43.488,64.492z M38.614,63.623l-7.693,4.018l1.364-8.695l6.242-1.281
			L38.614,63.623z M52.239,37.271l-6.275,2.615l3.402-4.375l6.604-2.598L52.239,37.271z M53.069,45.457l0.076-7.328l4.063-4.744
			l-0.627,7.359L53.069,45.457z M49.575,55.971l0.009-0.141l-0.115,0.168l-4.374-5.654l7.05-2.232l4.542,5.91L49.575,55.971z
			 M39.949,56.979l0.115-0.023l-0.17-0.057l-0.013-0.02l4.193-5.814l4.346,5.619l-0.036,0.01l0.055,0.016l0.02,0.023l-4.366,6.334
			L39.949,56.979z M44.594,41.809l4.224-1.76l3.024-1.254l-0.089,8.064l-0.03-0.012l0.03,0.041l-0.001,0.037l-7.078,2.244
			l-0.088-7.291l0.079,0.031L44.594,41.809z M36.705,46.258l-0.254-7.244l6.886,2.805l0.001,0.029l-0.087,0.111l0.087-0.035
			l0.084,7.166l-6.709-2.719l0.132-0.168L36.705,46.258z M38.889,56.127l-0.021,0.029l-7.411-2.506l4.816-6.111l6.816,2.76
			l-4.191,5.816l-0.009-0.014V56.127z M58.25,53.928l-4.011-5.225l5.218,1.928l4.738,5.629L58.25,53.928z M34.113,48.219
			l-4.101,5.197l-6.099,1.951l5.63-5.338L34.113,48.219z M30.337,54.621l6.358,2.145l-4.972,1.02l-7.548-1.193L30.337,54.621z
			 M52.14,56.563l5.548-1.52l6.197,2.436l-6.74,0.816l-5.548-1.584L52.14,56.563z M53.428,47.072l4.033-5.406l7.489,1.443
			l-5.311,6.26L53.428,47.072z M35.353,44.801l-3.115-3.965l-0.769-7.525l3.653,4.871L35.353,44.801z M29.357,48.762l-5.484-5.654
			l7.501-1.352l3.716,4.729L29.357,48.762z M49.852,57.508l6.624,1.895l0.173,8.209l-7.224-3.869L49.852,57.508z M44.484,28.115
			l3.746,6.82l-4.19,5.391l-3.75-5.453L44.484,28.115z M36.188,37.521l-3.687-4.914l6.633,2.789l3.178,4.621L36.188,37.521z"/>
		<g>
			<polygon fill="#EC1B2E" points="95.218,53.857 90.68,39.286 85.833,39.286 82.009,53.609 79.413,39.286 73.901,39.286 
				78.1,60.721 84.448,60.721 88.56,47.347 92.583,60.721 98.63,60.721 103.112,39.286 97.876,39.286 			"/>
			<polygon fill="#EC1B2E" points="229.657,39.286 223.313,39.286 219.193,52.667 215.173,39.286 209.127,39.286 204.644,60.721 
				209.882,60.721 212.557,46.147 217.077,60.721 221.927,60.721 225.755,46.343 228.344,60.721 233.855,60.721 			"/>
			<path fill="#EC1B2E" d="M114.661,38.914c-6.977,0-10.615,4.208-10.615,11.085c0,6.82,3.7,11.087,10.615,11.087
				c6.914,0,10.615-4.267,10.615-11.087C125.276,43.122,121.637,38.914,114.661,38.914z M114.661,56.849
				c-3.43,0-4.792-3.318-4.792-6.85c0-3.718,1.362-6.848,4.792-6.848c3.426,0,4.791,3.13,4.791,6.848
				C119.452,53.53,118.087,56.849,114.661,56.849z"/>
			<polygon fill="#EC1B2E" points="134.069,39.281 128.428,39.281 128.428,60.716 142.806,60.716 142.806,56.477 134.069,56.477 			
				"/>
			<polygon fill="#EC1B2E" points="145.142,60.716 150.779,60.716 150.779,52.086 158.938,52.086 158.938,48.036 150.779,48.036 
				150.779,43.335 159.303,43.335 159.303,39.281 145.142,39.281 			"/>
			<path fill="#EC1B2E" d="M175.079,50.153v-0.062c2.73-0.645,4.064-2.547,4.064-5.405c0-3.686-3.063-5.405-6.825-5.405h-10.066
				v21.435h5.639V52.24h1.184c2.095,0,2.819,0.923,3.975,4.608l1.211,3.867h5.882l-2.061-5.833
				C177.021,52.273,176.897,50.646,175.079,50.153z M169.379,48.19h-1.488v-4.855h1.488c2.154,0,4.123,0.371,4.123,2.365
				C173.502,48.126,171.197,48.19,169.379,48.19z"/>
			<path fill="#EC1B2E" d="M188.686,39.281l-8.032,21.435h5.73l1.667-4.576h7.946l1.574,4.576h6.191l-8.159-21.435H188.686z
				 M189.357,52.086l2.727-8.38h0.062l2.518,8.38H189.357z"/>
		</g>
	</g>
</g>
</svg>
