<?xml version="1.0" encoding="utf-8"?>
<!-- Generator: Adobe Illustrator 18.1.1, SVG Export Plug-In . SVG Version: 6.00 Build 0)  -->
<!DOCTYPE svg PUBLIC "-//W3C//DTD SVG 1.1//EN" "http://www.w3.org/Graphics/SVG/1.1/DTD/svg11.dtd">
<svg version="1.1" id="Layer_1" xmlns="http://www.w3.org/2000/svg" xmlns:xlink="http://www.w3.org/1999/xlink" x="0px" y="0px"
	 viewBox="-299 276 201 49" enable-background="new -299 276 201 49" xml:space="preserve">
<g>
	<path fill="#528CA5" d="M-269.3,302c0,2.1-0.3,4-0.8,5.7c-0.5,1.7-1.3,3.3-2.4,4.6c-1,1.3-2.3,2.3-3.7,3c-1.5,0.7-3.1,1.1-4.9,1.1
		c-4,0-8.4-0.5-13.4-1.5v-8.6v-24.9c-0.7-0.1-1.2-0.2-1.7-0.3c-0.4,0-0.7-0.1-0.9-0.1c-0.2,0-0.3-0.1-0.4-0.1
		c-0.9-0.2-1.3-0.7-1.3-1.7V276h4.3h6.6v15.7c1.1-1.1,2.3-2.1,3.7-2.8c1.4-0.7,3-1,4.8-1c1.5,0,2.9,0.3,4.1,0.9
		c1.2,0.6,2.3,1.5,3.2,2.7c0.9,1.2,1.6,2.7,2.1,4.4C-269.5,297.7-269.3,299.7-269.3,302z M-276.1,302c0-1.6-0.2-3-0.4-4.1
		c-0.3-1.1-0.6-2-1.1-2.7c-0.5-0.7-1.1-1.2-1.8-1.5c-0.7-0.3-1.5-0.5-2.3-0.5c-1.4,0-2.5,0.3-3.5,0.9c-1,0.6-1.9,1.4-2.7,2.4v14.4
		c1.8,0.3,3.6,0.5,5.3,0.5c1,0,1.9-0.2,2.7-0.6c0.8-0.4,1.5-0.9,2-1.7c0.5-0.8,1-1.7,1.3-2.9C-276.3,305-276.1,303.6-276.1,302z"/>
	<path fill="#528CA5" d="M-252.1,312.8v3.2h-4h-6.6h-4v-3.2c0-0.9,0.4-1.5,1.3-1.7c0.1,0,0.2,0,0.4,0c0.1,0,0.4-0.1,0.8-0.2
		c0.4,0,0.9-0.2,1.6-0.3v-16.9c-0.7-0.1-1.2-0.2-1.6-0.3c-0.4-0.1-0.7-0.1-0.8-0.1c-0.2,0-0.3-0.1-0.4-0.1c-0.9-0.2-1.3-0.8-1.3-1.7
		v-3.2h4h6.6v22.3c0.7,0.1,1.2,0.2,1.6,0.3c0.4,0.1,0.7,0.1,0.8,0.2c0.2,0,0.3,0,0.4,0C-252.6,311.3-252.1,311.9-252.1,312.8z
		 M-255.5,282c-0.2,0.5-0.6,1-0.9,1.3c-0.4,0.4-0.8,0.7-1.4,0.9c-0.5,0.2-1.1,0.3-1.7,0.3c-0.6,0-1.1-0.1-1.6-0.3
		c-0.5-0.2-0.9-0.5-1.3-0.9c-0.4-0.4-0.6-0.8-0.9-1.3c-0.2-0.5-0.4-1-0.4-1.6c0-0.6,0.1-1.2,0.4-1.7c0.2-0.5,0.5-1,0.9-1.4
		c0.4-0.4,0.8-0.7,1.3-0.9c0.5-0.2,1.1-0.3,1.6-0.3c0.6,0,1.2,0.1,1.7,0.3c0.5,0.2,1,0.5,1.4,0.9c0.4,0.4,0.7,0.8,0.9,1.4
		c0.2,0.5,0.3,1.1,0.3,1.7C-255.2,280.9-255.3,281.5-255.5,282z"/>
	<path fill="#528CA5" d="M-245.1,314.4c-1.3-1.4-1.9-3.2-1.9-5.6v-15.4h-2.8c-0.3,0-0.7-0.1-0.9-0.4c-0.3-0.2-0.4-0.6-0.4-1v-2.6
		l4.4-0.7l1.4-7.5c0.1-0.3,0.2-0.6,0.5-0.8c0.2-0.2,0.6-0.3,1-0.3h3.4v8.7h7.2v4.8h-7.2v15c0,0.9,0.2,1.5,0.6,2
		c0.4,0.5,1,0.7,1.7,0.7c0.4,0,0.8-0.1,1-0.2c0.3-0.1,0.5-0.2,0.7-0.3c0.2-0.1,0.4-0.2,0.5-0.3c0.2-0.1,0.3-0.1,0.5-0.1
		c0.2,0,0.3,0.1,0.5,0.1c0.1,0.1,0.3,0.3,0.4,0.4l2,3.2c-0.9,0.8-2.1,1.4-3.3,1.8c-1.2,0.4-2.5,0.6-3.9,0.6
		C-242,316.4-243.8,315.7-245.1,314.4z"/>
	<path fill="#528CA5" d="M-207.7,311.9c-0.7,0.9-1.5,1.6-2.4,2.1c-0.9,0.6-1.7,1.1-2.7,1.4c-0.9,0.3-1.9,0.6-2.8,0.7
		c-1,0.2-2,0.2-2.9,0.2c-1.7,0-3.3-0.3-4.8-0.9c-1.5-0.6-2.8-1.6-3.9-2.8c-1.1-1.2-2-2.7-2.6-4.5c-0.7-1.7-1-3.8-1-6
		c0-2,0.3-3.9,0.9-5.6c0.6-1.7,1.4-3.2,2.6-4.5c1.1-1.3,2.5-2.2,4.2-3c1.7-0.7,3.6-1.1,5.7-1.1c2.2,0,5.1,0.6,8.7,2v8.5h-0.2h-0.7
		h-2.2c-0.7,0-1.1-0.4-1.2-1c-0.1-0.4-0.2-1.7-0.4-3.9c-1.4-0.3-2.6-0.5-3.5-0.5c-1.2,0-2.2,0.2-3.1,0.6c-0.8,0.4-1.6,1-2.2,1.8
		c-0.6,0.8-1,1.7-1.3,2.8c-0.3,1.1-0.4,2.4-0.4,3.8c0,1.5,0.1,2.8,0.5,3.9c0.3,1.2,0.8,2.1,1.3,2.9c0.6,0.8,1.3,1.4,2.2,1.8
		c0.8,0.4,1.8,0.6,2.9,0.6c1.1,0,1.9-0.1,2.5-0.4c0.6-0.3,1.2-0.5,1.7-0.9c0.4-0.3,0.8-0.6,1.1-0.9c0.3-0.2,0.7-0.4,1.1-0.4
		c0.5,0,0.9,0.2,1.2,0.6L-207.7,311.9z"/>
	<path fill="#528CA5" d="M-178.7,312.8v3.2h-3.4h-0.7h-2.2c-0.6,0-1.1-0.1-1.5-0.3c-0.4-0.2-0.6-0.6-0.8-1.2l-0.6-1.9
		c-0.7,0.6-1.4,1.2-2,1.6c-0.7,0.5-1.4,0.9-2.1,1.2c-0.7,0.3-1.5,0.6-2.3,0.7c-0.8,0.2-1.7,0.2-2.7,0.2c-1.1,0-2.2-0.1-3.2-0.4
		c-1-0.3-1.8-0.8-2.5-1.4c-0.7-0.6-1.3-1.4-1.6-2.3c-0.4-0.9-0.6-2-0.6-3.3c0-1,0.3-2.1,0.8-3.1c0.5-1,1.5-1.9,2.7-2.8
		c1.3-0.8,3-1.5,5.1-2c2.1-0.6,4.7-0.8,7.8-0.8v-1.6c0-1.9-0.4-3.2-1.1-4.1c-0.8-0.9-1.9-1.4-3.4-1.4c-1.1,0-2,0.1-2.7,0.4
		c-0.7,0.3-1.3,0.5-1.9,0.8c-0.5,0.3-1,0.6-1.5,0.9c-0.4,0.3-0.9,0.4-1.5,0.4c-0.4,0-0.8-0.1-1.1-0.4c-0.3-0.2-0.6-0.5-0.8-0.9
		l-1.2-2.1c3.2-2.9,7-4.4,11.5-4.4c1.6,0,3,0.3,4.3,0.8c1.3,0.5,2.3,1.3,3.2,2.2c0.9,0.9,1.6,2.1,2,3.4c0.4,1.3,0.7,2.7,0.7,4.3
		v12.2c0.6,0.1,1.1,0.2,1.4,0.3c0.3,0.1,0.5,0.1,0.6,0.1C-179.1,311.3-178.7,311.8-178.7,312.8z M-188.5,304.2
		c-1.9,0-3.5,0.1-4.8,0.4c-1.3,0.2-2.3,0.6-3.1,1c-0.8,0.4-1.4,0.8-1.7,1.3c-0.3,0.5-0.5,1.1-0.5,1.6c0,1.2,0.4,2,1,2.5
		c0.7,0.5,1.6,0.7,2.7,0.7c0.7,0,1.3-0.1,1.9-0.2c0.6-0.1,1.1-0.3,1.6-0.5c0.5-0.3,1-0.6,1.5-0.9c0.5-0.4,0.9-0.8,1.4-1.3
		L-188.5,304.2L-188.5,304.2z"/>
	<path fill="#528CA5" d="M-128.7,312.8v3.2h-4h-6.6v-17.5c0-1.8-0.4-3.1-1.1-4c-0.8-0.9-1.9-1.3-3.4-1.3c-0.7,0-1.3,0.1-1.9,0.3
		c-0.6,0.2-1.1,0.6-1.5,1c-0.4,0.4-0.8,1-1,1.7c-0.3,0.6-0.4,1.4-0.4,2.3v12.2c0.7,0.1,1.2,0.2,1.6,0.3c0.4,0.1,0.7,0.1,0.8,0.2
		c0.2,0,0.3,0,0.4,0c0.9,0.2,1.3,0.8,1.3,1.7v3.2h-4h-6.7v-17.5c0-1.8-0.4-3.2-1.1-4c-0.8-0.8-1.9-1.3-3.3-1.3
		c-0.9,0-1.8,0.2-2.7,0.7c-0.8,0.4-1.6,1.1-2.3,1.9v14.9c0.7,0.1,1.2,0.2,1.6,0.3c0.4,0.1,0.6,0.1,0.8,0.2c0.1,0,0.2,0,0.3,0
		c0.9,0.2,1.4,0.8,1.4,1.7v3.2h-4.1h-6.6h-4v-3.2c0-0.9,0.5-1.5,1.3-1.7c0.1,0,0.2,0,0.4,0c0.1,0,0.4-0.1,0.8-0.2
		c0.4,0,0.9-0.2,1.6-0.3v-16.9c-0.6-0.1-1.2-0.2-1.6-0.3c-0.4-0.1-0.7-0.1-0.8-0.2c-0.2,0-0.3-0.1-0.4-0.1c-0.9-0.2-1.3-0.8-1.3-1.7
		v-3.2h4h4c0.9,0,1.4,0.4,1.7,1.2l0.4,2c0.5-0.5,1-1,1.5-1.5c0.5-0.5,1.1-0.8,1.7-1.1c0.6-0.3,1.2-0.6,1.9-0.8
		c0.7-0.2,1.4-0.3,2.3-0.3c1.7,0,3.2,0.4,4.3,1.4c1.1,0.9,1.9,2.2,2.5,3.7c0.4-0.9,0.9-1.7,1.6-2.4c0.6-0.7,1.4-1.2,2.1-1.6
		c0.8-0.4,1.6-0.7,2.4-0.9c0.9-0.2,1.7-0.3,2.6-0.3c1.5,0,2.9,0.2,4,0.7c1.2,0.5,2.2,1.2,3,2.1c0.8,0.9,1.4,2,1.9,3.3
		c0.4,1.3,0.6,2.8,0.6,4.4v12.2c0.6,0.1,1.2,0.2,1.6,0.3c0.4,0.1,0.7,0.1,0.8,0.2c0.2,0,0.3,0,0.4,0
		C-129.1,311.3-128.7,311.9-128.7,312.8z"/>
	<path fill="#528CA5" d="M-98.2,302c0,2.1-0.3,4-0.8,5.7c-0.5,1.7-1.4,3.3-2.4,4.6c-1,1.3-2.3,2.3-3.7,3c-1.5,0.7-3.1,1.1-4.9,1.1
		c-1.5,0-2.9-0.2-3.9-0.7c-1.1-0.5-2-1.1-2.9-2v6c0.7,0.1,1.2,0.2,1.6,0.3c0.4,0.1,0.6,0.1,0.8,0.2c0.1,0,0.2,0,0.3,0
		c0.9,0.2,1.4,0.8,1.4,1.7v3.2h-4.1h-6.6h-4.1v-3.2c0-0.9,0.4-1.5,1.3-1.7c0.1,0,0.2,0,0.3,0c0.1,0,0.4-0.1,0.8-0.2
		c0.4,0,0.9-0.2,1.6-0.3v-25.9c-0.7-0.1-1.2-0.2-1.6-0.3c-0.4-0.1-0.7-0.1-0.8-0.1c-0.1,0-0.3-0.1-0.3-0.1c-0.9-0.2-1.3-0.8-1.3-1.7
		v-3.2h4.1h4c0.4,0,0.8,0.1,1.1,0.3c0.3,0.2,0.5,0.5,0.6,0.9l0.6,2.6c1.1-1.3,2.4-2.3,3.8-3.1c1.5-0.8,3.1-1.2,5-1.2
		c1.5,0,2.9,0.3,4.1,0.9c1.2,0.6,2.3,1.5,3.2,2.7c0.9,1.2,1.6,2.7,2.1,4.4C-98.4,297.7-98.2,299.7-98.2,302z M-105,302
		c0-1.6-0.2-3-0.4-4.1c-0.2-1.1-0.6-2-1.1-2.7c-0.5-0.7-1.1-1.2-1.8-1.5c-0.7-0.3-1.5-0.5-2.4-0.5c-1.4,0-2.5,0.3-3.5,0.9
		c-1,0.6-1.9,1.4-2.7,2.5v12.4c0.7,0.9,1.6,1.6,2.4,2c0.9,0.4,1.9,0.5,2.9,0.5c1,0,1.9-0.2,2.7-0.6c0.8-0.4,1.5-0.9,2.1-1.7
		c0.6-0.8,1-1.7,1.3-2.9C-105.2,305-105,303.6-105,302z"/>
</g>
</svg>
