<?xml version="1.0" encoding="iso-8859-1"?>
<!-- Generator: Adobe Illustrator 18.1.1, SVG Export Plug-In . SVG Version: 6.00 Build 0)  -->
<!DOCTYPE svg PUBLIC "-//W3C//DTD SVG 1.1//EN" "http://www.w3.org/Graphics/SVG/1.1/DTD/svg11.dtd">
<svg version="1.1" id="Layer_1" xmlns="http://www.w3.org/2000/svg" xmlns:xlink="http://www.w3.org/1999/xlink" x="0px" y="0px"
	 viewBox="0 0 800 292.406" style="enable-background:new 0 0 800 292.406;" xml:space="preserve">
<polygon style="fill:#FFAF40;" points="77.975,0 77.975,19.494 0,19.494 0,136.456 77.975,136.456 77.975,116.963 155.95,116.963 
	155.95,0 "/>
<rect x="155.95" style="fill:#FF7040;" width="19.493" height="292.406"/>
<g>
	<path style="fill:#FFFFFF;" d="M310.535,134.385c-7.621,3.48-16.404,5.22-26.345,5.22c-9.06,0-17.427-1.493-25.103-4.474
		c-7.68-2.983-14.333-7.209-19.967-12.676c-5.634-5.468-10.053-12.013-13.255-19.635c-3.206-7.622-4.806-16.016-4.806-25.186
		c0-9.389,1.629-17.896,4.889-25.517c3.256-7.622,7.758-14.11,13.503-19.471c5.743-5.355,12.482-9.469,20.216-12.343
		c7.73-2.871,16.072-4.308,25.02-4.308c8.285,0,16.43,1.466,24.44,4.39c8.008,2.929,14.498,7.209,19.47,12.842l-19.221,19.221
		c-2.651-3.645-6.131-6.35-10.439-8.119c-4.308-1.766-8.728-2.652-13.257-2.652c-4.97,0-9.527,0.912-13.669,2.734
		c-4.142,1.824-7.705,4.337-10.687,7.541c-2.983,3.204-5.303,6.986-6.96,11.349c-1.657,4.366-2.485,9.142-2.485,14.333
		c0,5.302,0.828,10.164,2.485,14.581c1.657,4.42,3.948,8.203,6.877,11.351c2.925,3.147,6.433,5.607,10.522,7.373
		c4.085,1.769,8.559,2.65,13.421,2.65c5.634,0,10.547-1.102,14.747-3.312c4.196-2.209,7.565-5.081,10.107-8.616l19.718,18.557
		C324.563,126.184,318.157,130.905,310.535,134.385"/>
	<path style="fill:#FFFFFF;" d="M462.149,77.303c0,9.279-1.603,17.758-4.805,25.433c-3.206,7.68-7.653,14.251-13.337,19.719
		c-5.692,5.467-12.458,9.693-20.301,12.676c-7.843,2.981-16.349,4.474-25.516,4.474c-9.17,0-17.647-1.493-25.435-4.474
		c-7.788-2.983-14.527-7.209-20.216-12.676c-5.69-5.468-10.135-12.039-13.337-19.719c-3.206-7.675-4.805-16.154-4.805-25.433
		c0-9.389,1.599-17.868,4.805-25.435c3.202-7.565,7.647-14.002,13.337-19.304c5.689-5.301,12.428-9.387,20.216-12.261
		c7.788-2.871,16.265-4.308,25.435-4.308c9.167,0,17.673,1.437,25.516,4.308c7.843,2.874,14.609,6.96,20.301,12.261
		c5.684,5.302,10.131,11.739,13.337,19.304C460.546,59.435,462.149,67.914,462.149,77.303 M431.827,77.303
		c0-5.081-0.83-9.831-2.486-14.251c-1.656-4.417-3.952-8.201-6.876-11.35c-2.928-3.148-6.461-5.633-10.604-7.457
		c-4.142-1.821-8.7-2.733-13.671-2.733c-4.971,0-9.501,0.912-13.587,2.733c-4.089,1.824-7.622,4.309-10.605,7.457
		c-2.983,3.149-5.277,6.933-6.876,11.35c-1.603,4.42-2.403,9.17-2.403,14.251c0,5.302,0.828,10.19,2.486,14.664
		c1.657,4.474,3.949,8.313,6.877,11.515c2.924,3.206,6.432,5.717,10.521,7.539c4.086,1.824,8.616,2.736,13.587,2.736
		c4.971,0,9.498-0.912,13.587-2.736c4.086-1.822,7.623-4.333,10.604-7.539c2.985-3.202,5.304-7.041,6.96-11.515
		S431.827,82.605,431.827,77.303"/>
	<polygon style="fill:#FFFFFF;" points="480.874,136.456 480.874,19.143 509.372,19.143 509.372,111.767 554.775,111.767 
		554.775,136.456 	"/>
	<path style="fill:#FFFFFF;" d="M685.337,77.303c0,9.279-1.599,17.758-4.805,25.433c-3.202,7.68-7.649,14.251-13.337,19.719
		c-5.692,5.467-12.454,9.693-20.297,12.676c-7.847,2.981-16.349,4.474-25.517,4.474c-9.172,0-17.647-1.493-25.437-4.474
		c-7.786-2.983-14.525-7.209-20.214-12.676c-5.692-5.468-10.135-12.039-13.337-19.719c-3.206-7.675-4.805-16.154-4.805-25.433
		c0-9.389,1.599-17.868,4.805-25.435c3.202-7.565,7.645-14.002,13.337-19.304c5.689-5.301,12.428-9.387,20.214-12.261
		c7.79-2.871,16.265-4.308,25.437-4.308c9.168,0,17.67,1.437,25.517,4.308c7.843,2.874,14.605,6.96,20.297,12.261
		c5.688,5.302,10.135,11.739,13.337,19.304C683.738,59.435,685.337,67.914,685.337,77.303 M655.015,77.303
		c0-5.081-0.826-9.831-2.482-14.251c-1.66-4.417-3.952-8.201-6.88-11.35c-2.928-3.148-6.461-5.633-10.604-7.457
		c-4.142-1.821-8.7-2.733-13.668-2.733c-4.973,0-9.504,0.912-13.589,2.733c-4.089,1.824-7.622,4.309-10.603,7.457
		c-2.985,3.149-5.277,6.933-6.876,11.35c-1.603,4.42-2.403,9.17-2.403,14.251c0,5.302,0.826,10.19,2.486,14.664
		c1.657,4.474,3.949,8.313,6.876,11.515c2.924,3.206,6.431,5.717,10.52,7.539c4.085,1.824,8.616,2.736,13.589,2.736
		c4.968,0,9.499-0.912,13.584-2.736c4.086-1.822,7.623-4.333,10.608-7.539c2.981-3.202,5.3-7.041,6.96-11.515
		C654.189,87.493,655.015,82.605,655.015,77.303"/>
	<path style="fill:#FFFFFF;" d="M766.86,136.456l-25.471-46.561h-9.655v46.561h-27.672V19.143h44.74
		c5.631,0,11.125,0.579,16.486,1.74c5.357,1.159,10.162,3.122,14.415,5.882c4.253,2.763,7.649,6.408,10.192,10.935
		c2.54,4.531,3.811,10.166,3.811,16.901c0,7.954-2.155,14.639-6.465,20.05c-4.306,5.414-10.272,9.278-17.894,11.599L800,136.456
		H766.86z M765.703,55.098c0-2.758-0.586-4.995-1.751-6.71c-1.165-1.712-2.666-3.037-4.497-3.977
		c-1.831-0.937-3.883-1.575-6.16-1.906c-2.277-0.331-4.47-0.497-6.576-0.497H731.57v27.341h13.486c2.33,0,4.717-0.192,7.161-0.581
		c2.441-0.384,4.661-1.077,6.656-2.071c1.998-0.994,3.636-2.429,4.911-4.308C765.063,60.512,765.703,58.081,765.703,55.098"/>
	<polygon style="fill:#FFFFFF;" points="350.8,292.406 322.797,292.406 299.599,213.038 299.103,213.038 275.905,292.406 
		247.736,292.406 214.431,175.093 244.92,175.093 263.478,253.137 263.975,253.137 284.853,175.093 314.346,175.093 335.39,253.137 
		335.887,253.137 354.777,175.093 384.271,175.093 	"/>
	<path style="fill:#FFFFFF;" d="M473.914,292.406l-9.115-23.033H419.4l-8.616,23.033h-30.821l49.211-117.313h27.508l48.715,117.313
		H473.914z M442.431,206.409l-14.913,40.265h29.495L442.431,206.409z"/>
	<path style="fill:#FFFFFF;" d="M577.969,292.406l-25.471-46.561h-9.656v46.561H515.17V175.093h44.737
		c5.635,0,11.129,0.579,16.486,1.74c5.357,1.159,10.162,3.122,14.419,5.882c4.249,2.763,7.645,6.408,10.188,10.935
		c2.54,4.531,3.811,10.166,3.811,16.901c0,7.954-2.155,14.639-6.461,20.05c-4.31,5.414-10.272,9.278-17.895,11.599l30.654,50.206
		H577.969z M576.808,211.048c0-2.758-0.586-4.995-1.751-6.71c-1.165-1.712-2.662-3.037-4.493-3.977
		c-1.831-0.937-3.887-1.575-6.16-1.906c-2.277-0.331-4.47-0.497-6.58-0.497h-15.149v27.341h13.486c2.33,0,4.717-0.192,7.161-0.581
		c2.441-0.384,4.66-1.077,6.659-2.071c1.999-0.994,3.636-2.429,4.912-4.308C576.168,216.462,576.808,214.031,576.808,211.048"/>
</g>
</svg>
