<?xml version="1.0" encoding="iso-8859-1"?>
<!-- Generator: Adobe Illustrator 18.1.1, SVG Export Plug-In . SVG Version: 6.00 Build 0)  -->
<!DOCTYPE svg PUBLIC "-//W3C//DTD SVG 1.1//EN" "http://www.w3.org/Graphics/SVG/1.1/DTD/svg11.dtd">
<svg version="1.1" id="Layer_1" xmlns="http://www.w3.org/2000/svg" xmlns:xlink="http://www.w3.org/1999/xlink" x="0px" y="0px"
	 viewBox="0 0 140 105" style="enable-background:new 0 0 140 105;" xml:space="preserve">
<polygon style="fill:#FFFFFF;" points="13.646,26.914 13.646,30.326 0,30.326 0,50.794 13.646,50.794 13.646,47.383 29.041,47.383 
	29.041,26.914 "/>
<rect x="27.291" y="26.914" style="fill:#FFFFFF;" width="3.411" height="51.171"/>
<g>
	<path style="fill:#FFFFFF;" d="M54.344,50.432c-1.334,0.609-2.871,0.914-4.61,0.914c-1.585,0-3.05-0.261-4.393-0.783
		c-1.344-0.522-2.508-1.262-3.494-2.218c-0.986-0.957-1.759-2.102-2.32-3.436c-0.561-1.334-0.841-2.803-0.841-4.408
		c0-1.643,0.285-3.132,0.856-4.465c0.57-1.334,1.358-2.469,2.363-3.407c1.005-0.937,2.184-1.657,3.538-2.16
		c1.353-0.502,2.813-0.754,4.378-0.754c1.45,0,2.875,0.257,4.277,0.768c1.401,0.513,2.537,1.262,3.407,2.247l-3.364,3.364
		c-0.464-0.638-1.073-1.111-1.827-1.421c-0.754-0.309-1.527-0.464-2.32-0.464c-0.87,0-1.667,0.16-2.392,0.478
		c-0.725,0.319-1.348,0.759-1.87,1.32c-0.522,0.561-0.928,1.223-1.218,1.986c-0.29,0.764-0.435,1.6-0.435,2.508
		c0,0.928,0.145,1.779,0.435,2.552c0.29,0.773,0.691,1.436,1.203,1.986c0.512,0.551,1.126,0.981,1.841,1.29
		c0.715,0.31,1.498,0.464,2.349,0.464c0.986,0,1.846-0.193,2.581-0.58c0.734-0.387,1.324-0.889,1.769-1.508l3.451,3.247
		C56.799,48.997,55.677,49.823,54.344,50.432"/>
	<path style="fill:#FFFFFF;" d="M80.876,40.443c0,1.624-0.281,3.108-0.841,4.451c-0.561,1.344-1.339,2.494-2.334,3.451
		c-0.996,0.957-2.18,1.696-3.553,2.218c-1.373,0.522-2.861,0.783-4.465,0.783c-1.605,0-3.088-0.261-4.451-0.783
		c-1.363-0.522-2.542-1.262-3.538-2.218c-0.996-0.957-1.774-2.107-2.334-3.451c-0.561-1.343-0.841-2.827-0.841-4.451
		c0-1.643,0.28-3.127,0.841-4.451c0.56-1.324,1.338-2.45,2.334-3.378c0.996-0.928,2.175-1.643,3.538-2.146
		c1.363-0.502,2.846-0.754,4.451-0.754c1.604,0,3.093,0.251,4.465,0.754c1.373,0.503,2.557,1.218,3.553,2.146
		c0.995,0.928,1.773,2.054,2.334,3.378C80.596,37.316,80.876,38.799,80.876,40.443 M75.57,40.443c0-0.889-0.145-1.72-0.435-2.494
		c-0.29-0.773-0.692-1.435-1.203-1.986c-0.512-0.551-1.131-0.986-1.856-1.305c-0.725-0.319-1.523-0.478-2.392-0.478
		c-0.87,0-1.663,0.16-2.378,0.478c-0.716,0.319-1.334,0.754-1.856,1.305c-0.522,0.551-0.923,1.213-1.203,1.986
		c-0.281,0.773-0.421,1.605-0.421,2.494c0,0.928,0.145,1.783,0.435,2.566c0.29,0.783,0.691,1.455,1.203,2.015
		c0.512,0.561,1.126,1,1.841,1.319c0.715,0.319,1.508,0.479,2.378,0.479s1.662-0.16,2.378-0.479
		c0.715-0.319,1.334-0.758,1.856-1.319c0.522-0.56,0.928-1.232,1.218-2.015C75.424,42.226,75.57,41.37,75.57,40.443"/>
	<polygon style="fill:#FFFFFF;" points="84.153,50.794 84.153,30.264 89.14,30.264 89.14,46.474 97.086,46.474 97.086,50.794 	"/>
	<path style="fill:#FFFFFF;" d="M119.934,40.443c0,1.624-0.28,3.108-0.841,4.451c-0.56,1.344-1.339,2.494-2.334,3.451
		c-0.996,0.957-2.179,1.696-3.552,2.218c-1.373,0.522-2.861,0.783-4.465,0.783c-1.605,0-3.088-0.261-4.451-0.783
		c-1.363-0.522-2.542-1.262-3.537-2.218c-0.996-0.957-1.774-2.107-2.334-3.451c-0.561-1.343-0.841-2.827-0.841-4.451
		c0-1.643,0.28-3.127,0.841-4.451c0.56-1.324,1.338-2.45,2.334-3.378c0.996-0.928,2.175-1.643,3.537-2.146
		c1.363-0.502,2.846-0.754,4.451-0.754c1.604,0,3.092,0.251,4.465,0.754c1.373,0.503,2.556,1.218,3.552,2.146
		c0.995,0.928,1.774,2.054,2.334,3.378C119.654,37.316,119.934,38.799,119.934,40.443 M114.628,40.443
		c0-0.889-0.145-1.72-0.434-2.494c-0.29-0.773-0.692-1.435-1.204-1.986c-0.512-0.551-1.131-0.986-1.856-1.305
		c-0.725-0.319-1.522-0.478-2.392-0.478c-0.87,0-1.663,0.16-2.378,0.478c-0.716,0.319-1.334,0.754-1.856,1.305
		c-0.522,0.551-0.923,1.213-1.203,1.986c-0.281,0.773-0.421,1.605-0.421,2.494c0,0.928,0.145,1.783,0.435,2.566
		c0.29,0.783,0.691,1.455,1.203,2.015c0.512,0.561,1.125,1,1.841,1.319c0.715,0.319,1.508,0.479,2.378,0.479
		c0.869,0,1.662-0.16,2.377-0.479c0.715-0.319,1.334-0.758,1.856-1.319c0.522-0.56,0.927-1.232,1.218-2.015
		C114.483,42.226,114.628,41.37,114.628,40.443"/>
	<path style="fill:#FFFFFF;" d="M134.201,50.794l-4.457-8.148h-1.69v8.148h-4.843v-20.53h7.83c0.985,0,1.947,0.101,2.885,0.305
		c0.937,0.203,1.778,0.546,2.523,1.029c0.744,0.484,1.339,1.121,1.784,1.914c0.445,0.793,0.667,1.779,0.667,2.958
		c0,1.392-0.377,2.562-1.131,3.509c-0.754,0.947-1.798,1.624-3.131,2.03L140,50.794H134.201z M133.998,36.557
		c0-0.483-0.103-0.874-0.306-1.174c-0.204-0.3-0.467-0.531-0.787-0.696c-0.32-0.164-0.68-0.276-1.078-0.334
		c-0.398-0.058-0.782-0.087-1.151-0.087h-2.651v4.785h2.36c0.408,0,0.825-0.034,1.253-0.102c0.427-0.067,0.816-0.188,1.165-0.362
		c0.35-0.174,0.636-0.425,0.859-0.754C133.886,37.504,133.998,37.079,133.998,36.557"/>
	<polygon style="fill:#FFFFFF;" points="61.39,78.086 56.489,78.086 52.43,64.196 52.343,64.196 48.283,78.086 43.354,78.086 
		37.525,57.556 42.861,57.556 46.109,71.213 46.196,71.213 49.849,57.556 55.011,57.556 58.693,71.213 58.78,71.213 62.086,57.556 
		67.247,57.556 	"/>
	<path style="fill:#FFFFFF;" d="M82.935,78.086l-1.595-4.031h-7.945l-1.508,4.031h-5.394l8.612-20.53h4.814l8.525,20.53H82.935z
		 M77.425,63.036l-2.61,7.046h5.162L77.425,63.036z"/>
	<path style="fill:#FFFFFF;" d="M101.145,78.086l-4.457-8.148h-1.69v8.148h-4.843v-20.53h7.829c0.986,0,1.948,0.101,2.885,0.305
		c0.937,0.203,1.778,0.546,2.523,1.029c0.744,0.484,1.338,1.121,1.783,1.914c0.444,0.793,0.667,1.779,0.667,2.958
		c0,1.392-0.377,2.562-1.131,3.509c-0.754,0.947-1.798,1.624-3.132,2.03l5.364,8.786H101.145z M100.941,63.848
		c0-0.483-0.103-0.874-0.306-1.174c-0.204-0.3-0.466-0.531-0.786-0.696c-0.32-0.164-0.68-0.276-1.078-0.334
		c-0.398-0.058-0.782-0.087-1.152-0.087h-2.651v4.785h2.36c0.408,0,0.825-0.034,1.253-0.102c0.427-0.067,0.815-0.188,1.165-0.362
		s0.636-0.425,0.86-0.754C100.829,64.795,100.941,64.37,100.941,63.848"/>
</g>
</svg>
