<?xml version="1.0" encoding="utf-8"?>
<!-- Generator: Adobe Illustrator 19.1.1, SVG Export Plug-In . SVG Version: 6.00 Build 0)  -->
<svg version="1.1" baseProfile="basic" xmlns="http://www.w3.org/2000/svg" xmlns:xlink="http://www.w3.org/1999/xlink" x="0px"
	 y="0px" viewBox="0 0 200.6 89" xml:space="preserve">
<g id="Layer_1">
</g>
<g id="Layer_2">
	<g>
		<path fill="#806D60" d="M3,89L3,89c0.2,0,0.3-0.1,0.5-0.1L3,89z"/>
		<path fill="#806D60" d="M16.7,86.3L16.7,86.3l104,0.3c0.4,0.1,0.7,0,1.1,0l0-0.1c6.7-0.4,13.5-5.2,15.2-12.4
			c2-8.7-3-17.3-11.7-19.3c-1.4-0.3-2.8-0.4-4.2-0.4l0,0L16.8,54c1,0,2,0.2,3,0.4c8.7,2,14.1,10.8,12,19.5
			C30.2,81.2,23.8,86.1,16.7,86.3z"/>
		<path fill="#806D60" d="M48.3,86.3L48.3,86.3l104,0.3c0.4,0.1,0.7,0,1.1,0l0-0.1c6.7-0.4,13.5-5.2,15.2-12.4
			c2-8.7-3-17.3-11.7-19.3c-1.4-0.3-2.8-0.4-4.2-0.4l0,0L48.5,54c1,0,2,0.2,3,0.4c8.7,2,14.1,10.8,12,19.5
			C61.8,81.2,55.4,86.1,48.3,86.3z"/>
		<path fill="#806D60" d="M79.9,86.3L79.9,86.3l104,0.3c0.4,0.1,0.7,0,1.1,0l0-0.1c6.7-0.4,13.5-5.2,15.2-12.4
			c2-8.7-3-17.3-11.7-19.3c-1.4-0.3-2.8-0.4-4.2-0.4l0,0L80.1,54c1,0,2,0.2,3,0.4c8.7,2,14.1,10.8,12,19.5
			C93.4,81.2,87,86.1,79.9,86.3z"/>
		<path fill="#806D60" d="M48.6,32.3L48.6,32.3l104,0.3c0.4,0.1,0.7,0,1.1,0l0-0.1c6.7-0.4,13.5-5.2,15.2-12.4
			c2-8.7-3-17.3-11.7-19.3c-1.4-0.3-2.8-0.4-4.2-0.4l0,0L48.8,0c1,0,2,0.2,3,0.4c8.7,2,14.1,10.8,12,19.5
			C62.1,27.2,55.8,32.1,48.6,32.3z"/>
		<path fill="#A68E7C" d="M17.2,39.2c2-8.7,10.7-14.1,19.4-12.1l0,0c8.7,2,14.1,10.8,12,19.5l0,0c-2,8.7-10.7,14.1-19.4,12.1l0,0
			C20.6,56.6,15.2,47.9,17.2,39.2L17.2,39.2z"/>
		<path fill="#806D60" d="M33.5,59L33.5,59l104,0.3c0.4,0.1,0.7,0,1.1,0l0-0.1c6.7-0.4,13.5-5.2,15.2-12.4c2-8.7-3-17.3-11.7-19.3
			c-1.4-0.3-2.8-0.4-4.2-0.4l0,0L33.6,26.7c1,0,2,0.2,3,0.4c8.7,2,14.1,10.8,12,19.5C47,53.9,40.6,58.8,33.5,59z"/>
		<path fill="#A68E7C" d="M48.6,39.2c2-8.7,10.7-14.1,19.4-12.1l0,0c8.7,2,14.1,10.8,12,19.5l0,0c-2,8.7-10.7,14.1-19.4,12.1l0,0
			C51.9,56.6,46.5,47.9,48.6,39.2L48.6,39.2z"/>
		<path fill="#806D60" d="M64.8,59L64.8,59l104,0.3c0.4,0.1,0.7,0,1.1,0l0-0.1c6.7-0.4,13.5-5.2,15.2-12.4c2-8.7-3-17.3-11.7-19.3
			c-1.4-0.3-2.8-0.4-4.2-0.4l0,0L65,26.7c1,0,2,0.2,3,0.4c8.7,2,14.1,10.8,12,19.5C78.3,53.9,71.9,58.8,64.8,59z"/>
		<path fill="#A68E7C" d="M0.4,66.5c2-8.7,10.7-14.1,19.4-12.1l0,0c8.7,2,14.1,10.8,12,19.5l0,0c-2,8.7-10.7,14.1-19.4,12.1l0,0
			C3.8,83.9-1.6,75.2,0.4,66.5L0.4,66.5z"/>
		<path fill="#A68E7C" d="M32,66.5c2-8.7,10.7-14.1,19.4-12.1l0,0c8.7,2,14.1,10.8,12,19.5l0,0c-2,8.7-10.7,14.1-19.4,12.1l0,0
			C35.4,83.9,30,75.2,32,66.5L32,66.5z"/>
		<path fill="#A68E7C" d="M63.7,66.5c2-8.7,10.7-14.1,19.4-12.1l0,0c8.7,2,14.1,10.8,12,19.5l0,0c-2,8.7-10.7,14.1-19.4,12.1l0,0
			C67,83.9,61.6,75.2,63.7,66.5L63.7,66.5z"/>
		<path fill="#A68E7C" d="M32.4,12.5c2-8.7,10.7-14.1,19.4-12.1l0,0c8.7,2,14.1,10.8,12,19.5l0,0c-2,8.7-10.7,14.1-19.4,12.1l0,0
			C35.8,29.9,30.4,21.2,32.4,12.5L32.4,12.5z"/>
	</g>
</g>
<g id="Layer_3">
</g>
</svg>
