<?xml version="1.0" encoding="utf-8"?>
<!-- Generator: Adobe Illustrator 18.1.1, SVG Export Plug-In . SVG Version: 6.00 Build 0)  -->
<svg version="1.1" id="Layer_1" xmlns="http://www.w3.org/2000/svg" xmlns:xlink="http://www.w3.org/1999/xlink" x="0px" y="0px"
	 width="960px" height="720px" viewBox="0 0 960 720" enable-background="new 0 0 960 720" xml:space="preserve">
<g>
	<rect x="782.3" fill="#1A2F34" width="77.9" height="720"/>
	<rect x="99.8" fill="#1A2F34" width="80.8" height="720"/>
	<polygon fill="#EF444A" points="704.6,0 704.6,77.8 626.7,77.8 626.7,175.1 550.4,175.1 336.4,175.1 336.4,77.9 258.5,77.9 
		258.5,0 180.6,0 180.6,77.9 180.6,175.3 258.5,175.3 258.5,253 336.2,253 336.2,331.9 550.4,331.9 550.4,331.7 628.3,331.7 
		628.3,253 704.6,253 704.6,175.1 782.5,175.1 782.5,77.9 782.5,77.8 782.5,0 	"/>
</g>
</svg>
