<?xml version="1.0" encoding="utf-8"?>
<!-- Generator: Adobe Illustrator 18.1.1, SVG Export Plug-In . SVG Version: 6.00 Build 0)  -->
<svg version="1.1" id="Layer_1" xmlns="http://www.w3.org/2000/svg" xmlns:xlink="http://www.w3.org/1999/xlink" x="0px" y="0px"
	 viewBox="0 0 600 600" enable-background="new 0 0 600 600" xml:space="preserve">
<g>
	<defs>
		<polygon id="SVGID_1_" points="49.8,434 181.8,268.6 199.4,261.3 295.9,140.6 437,306 456.8,312.5 546,434 		"/>
	</defs>
	<clipPath id="SVGID_2_">
		<use xlink:href="#SVGID_1_"  overflow="visible"/>
	</clipPath>
	<polygon clip-path="url(#SVGID_2_)" fill="#7F6C5F" points="49.8,434 181.8,268.6 199.4,261.3 295.9,140.6 437,306 456.8,312.5 
		546,434 	"/>
	<path clip-path="url(#SVGID_2_)" fill="#FFFFFF" d="M200.7,219.4c0,0,39.3,36.9,82,12.5c30.7-17.6,49.4,3.7,64.4,10.2
		c11.4,5,24.9-1.5,33.6-36.6c8.8-35.1-82.8-86.3-82.8-86.3l-82.4,21.2L200.7,219.4z"/>
	<polygon clip-path="url(#SVGID_2_)" fill="none" points="49.8,433.8 181.8,268.5 199.4,261.2 295.9,140.6 437,306 456.8,312.4 
		546,433.8 	"/>
	<polygon clip-path="url(#SVGID_2_)" fill="none" points="49.8,433.8 181.8,268.5 199.4,261.2 295.9,140.6 437,306 456.8,312.4 
		546,433.8 	"/>
	<g clip-path="url(#SVGID_2_)">
		<path fill="#E5D8CE" d="M311.3,433.5c0,0,0-0.2,0.1-0.6c0-0.3,0.1-0.6,0.1-0.9c0-0.2,0.1-0.4,0.1-0.6c0-0.2,0.1-0.4,0.1-0.6
			c0.2-0.8,0.4-1.8,0.7-3c0.2-0.6,0.3-1.2,0.5-1.8c0.2-0.6,0.4-1.3,0.7-2c0.4-1.4,1.2-2.9,1.9-4.5c0.7-1.6,1.7-3.2,2.6-5
			c1.1-1.7,2.2-3.5,3.5-5.3c0.7-0.9,1.4-1.8,2.1-2.7c0.7-0.9,1.4-1.9,2.2-2.8c0.8-0.9,1.6-1.8,2.5-2.7c0.4-0.5,0.8-0.9,1.3-1.4
			c0.4-0.5,0.9-0.9,1.4-1.3c0.9-0.9,1.9-1.8,2.9-2.7c0.5-0.5,1-0.9,1.5-1.4c0.5-0.4,1-0.8,1.6-1.3c1.1-0.8,2.1-1.7,3.2-2.6
			c1.1-0.9,2.2-1.8,3.4-2.5c2.4-1.6,4.7-3.2,7.2-4.8c2.5-1.5,5.1-2.9,7.7-4.4c2.6-1.4,5.4-2.7,8.1-4c2.7-1.4,5.6-2.5,8.4-3.7
			c2.9-1.1,5.7-2.4,8.5-3.4c5.7-2.1,11.3-4.4,16.8-6.7c5.5-2.3,10.9-4.7,15.9-7.2c5.1-2.5,9.8-5.2,14-8.3c2-1.5,4-3.1,5.6-4.9
			c1.6-1.8,3-3.6,4-5.6c1-2,1.6-4,1.8-6c0.2-2,0.3-4,0-5.8c-0.4-3.6-1.2-6.8-2-9.3c-0.8-2.5-1.4-4.5-1.9-5.9
			c-0.5-1.3-0.7-2.1-0.7-2.1s0.3,0.7,0.8,2c0.5,1.3,1.3,3.3,2.2,5.8c0.9,2.5,1.9,5.6,2.5,9.3c0.3,1.9,0.4,3.9,0.3,6
			c-0.1,2.1-0.6,4.4-1.6,6.6c-0.9,2.2-2.3,4.3-3.9,6.2c-1.6,2-3.6,3.7-5.6,5.4c-4.1,3.4-8.9,6.4-13.9,9.2c-5,2.9-10.3,5.5-15.8,8.2
			c-5.4,2.6-11,5.2-16.6,7.6c-2.8,1.2-5.5,2.6-8.2,3.8c-2.7,1.3-5.4,2.5-8,4c-2.6,1.4-5.2,2.8-7.6,4.3c-2.4,1.6-4.8,3.1-7.1,4.6
			c-2.3,1.6-4.4,3.3-6.5,4.9c-1.1,0.8-2,1.7-3,2.5c-1,0.9-1.9,1.7-2.9,2.5c-0.5,0.4-1,0.8-1.4,1.3c-0.4,0.4-0.9,0.9-1.3,1.3
			c-0.8,0.9-1.7,1.7-2.5,2.6c-0.4,0.4-0.8,0.8-1.2,1.3c-0.4,0.4-0.7,0.9-1.1,1.3c-0.7,0.9-1.4,1.7-2.1,2.6c-0.7,0.8-1.3,1.7-1.9,2.6
			c-0.6,0.8-1.2,1.7-1.7,2.5c-1,1.7-1.9,3.3-2.8,4.8c-0.7,1.6-1.5,3-2,4.3c-0.5,1.4-1,2.6-1.3,3.8c-0.2,0.6-0.3,1.1-0.5,1.6
			c-0.1,0.5-0.2,1-0.3,1.4c-0.2,0.9-0.3,1.6-0.4,2.2c0,0.1,0,0.3-0.1,0.4c0,0.1,0,0.2,0,0.3c0,0.2,0,0.3,0,0.4c0,0.3,0,0.5,0,0.5
			L311.3,433.5z"/>
	</g>
	<g clip-path="url(#SVGID_2_)">
		<path fill="#E5D8CE" d="M197.8,253.3c0,0,0.1,0.1,0.2,0.3c0.1,0.2,0.4,0.5,0.6,1c0.6,0.9,1.5,2.1,2.7,3.7
			c2.4,3.1,6.2,7.4,11.4,11.7c2.6,2.1,5.6,4.2,9,5.9c3.4,1.8,7.1,3.2,11.2,3.9c4,0.7,8.3,0.8,12.6,0c4.3-0.8,8.5-2.4,12.5-4.6
			c2-1.1,3.9-2.3,5.8-3.7l1.4-1l1.4-1.1c0.9-0.7,1.9-1.4,2.8-2.2c3.6-2.9,7-6,10.2-9.1c6.3-6.2,11.4-12.9,14.5-19.3
			c1.6-3.2,2.7-6.2,3.5-9c0.7-2.8,1-5.3,1.1-7.4c0-2.1-0.1-3.7-0.3-4.8c-0.2-1.1-0.4-1.7-0.4-1.7s0.2,0.5,0.5,1.6
			c0.3,1.1,0.6,2.7,0.7,4.9c0.1,2.1,0,4.7-0.6,7.6c-0.5,2.9-1.5,6.1-2.9,9.5c-2.8,6.8-7.6,14-13.6,20.9c-3,3.4-6.3,6.8-9.9,10.1
			c-0.9,0.8-1.8,1.6-2.7,2.4l-1.3,1.2l-1.5,1.2c-1.9,1.6-3.9,3.1-6.1,4.4c-4.3,2.7-8.9,4.9-13.9,6.1c-4.9,1.3-10.1,1.6-15,1
			c-4.9-0.6-9.5-2-13.5-3.8c-4.1-1.8-7.7-4-10.8-6.2c-6.3-4.5-10.7-9-13.7-12.3c-1.5-1.7-2.6-3-3.3-4c-0.4-0.5-0.7-0.9-0.9-1.1
			c-0.2-0.3-0.3-0.4-0.3-0.4L197.8,253.3z"/>
	</g>
	<g clip-path="url(#SVGID_2_)">
		<rect x="315" y="194" fill="#1A2E33" width="4" height="37"/>
		<rect x="278" y="194" fill="#1A2E33" width="5" height="37"/>
		<rect x="283" y="194" fill="#FF3F46" width="4" height="4"/>
		<rect x="287" y="198" fill="#FF3F46" width="4" height="5"/>
		<rect x="306" y="198" fill="#FF3F46" width="5" height="5"/>
		<rect x="311" y="194" fill="#FF3F46" width="4" height="4"/>
		<rect x="291" y="203" fill="#FF3F46" width="11" height="4"/>
		<rect x="283" y="198" fill="#FF3F46" width="4" height="5"/>
		<rect x="287" y="203" fill="#FF3F46" width="4" height="4"/>
		<rect x="291" y="207" fill="#FF3F46" width="11" height="5"/>
		<rect x="306" y="203" fill="#FF3F46" width="5" height="4"/>
		<rect x="311" y="198" fill="#FF3F46" width="4" height="5"/>
		<rect x="302" y="203" fill="#FF3F46" width="4" height="9"/>
	</g>
</g>
</svg>
