<?xml version="1.0" encoding="utf-8"?>
<!-- Generator: Adobe Illustrator 18.1.1, SVG Export Plug-In . SVG Version: 6.00 Build 0)  -->
<svg version="1.1" id="Layer_1" xmlns="http://www.w3.org/2000/svg" xmlns:xlink="http://www.w3.org/1999/xlink" x="0px" y="0px"
	 width="595.4px" height="377.8px" viewBox="179.8 143 595.4 377.8" enable-background="new 179.8 143 595.4 377.8"
	 xml:space="preserve">
<g>
	<g>
		<defs>
			<polygon id="SVGID_1_" points="179.8,520.8 338.2,322.3 359.3,313.6 475.1,168.7 644.4,367.2 668.2,375 775.2,520.8 			"/>
		</defs>
		<clipPath id="SVGID_2_">
			<use xlink:href="#SVGID_1_"  overflow="visible"/>
		</clipPath>
		<polygon clip-path="url(#SVGID_2_)" fill="#7F6C5F" points="179.8,520.8 338.2,322.3 359.3,313.6 475.1,168.7 644.4,367.2 
			668.2,375 775.2,520.8 		"/>
	</g>
	<g>
		<defs>
			<polygon id="SVGID_3_" points="179.8,520.8 338.2,322.3 359.3,313.6 475.1,168.7 644.4,367.2 668.2,375 775.2,520.8 			"/>
		</defs>
		<clipPath id="SVGID_4_">
			<use xlink:href="#SVGID_3_"  overflow="visible"/>
		</clipPath>
		<path clip-path="url(#SVGID_4_)" fill="#FFFFFF" d="M360.8,263.3c0,0,47.2,44.3,98.4,15c36.8-21.1,59.3,4.4,77.3,12.2
			c13.7,6,29.9-1.8,40.3-43.9c10.6-42.1-99.4-103.6-99.4-103.6l-98.9,25.4L360.8,263.3z"/>
	</g>
	<g>
		<defs>
			<polygon id="SVGID_5_" points="179.8,520.8 338.2,322.3 359.3,313.6 475.1,168.7 644.4,367.2 668.2,375 775.2,520.8 			"/>
		</defs>
		<clipPath id="SVGID_6_">
			<use xlink:href="#SVGID_5_"  overflow="visible"/>
		</clipPath>
		<polygon clip-path="url(#SVGID_6_)" fill="none" points="179.8,520.6 338.2,322.2 359.3,313.4 475.1,168.7 644.4,367.2 
			668.2,374.9 775.2,520.6 		"/>
	</g>
	<g>
		<defs>
			<polygon id="SVGID_7_" points="179.8,520.8 338.2,322.3 359.3,313.6 475.1,168.7 644.4,367.2 668.2,375 775.2,520.8 			"/>
		</defs>
		<clipPath id="SVGID_8_">
			<use xlink:href="#SVGID_7_"  overflow="visible"/>
		</clipPath>
		<polygon clip-path="url(#SVGID_8_)" fill="none" points="179.8,520.6 338.2,322.2 359.3,313.4 475.1,168.7 644.4,367.2 
			668.2,374.9 775.2,520.6 		"/>
	</g>
	<g>
		<defs>
			<polygon id="SVGID_9_" points="179.8,520.8 338.2,322.3 359.3,313.6 475.1,168.7 644.4,367.2 668.2,375 775.2,520.8 			"/>
		</defs>
		<clipPath id="SVGID_10_">
			<use xlink:href="#SVGID_9_"  overflow="visible"/>
		</clipPath>
		<g clip-path="url(#SVGID_10_)">
			<path fill="#E5D8CE" d="M493.6,520.2c0,0,0-0.2,0.1-0.7c0-0.4,0.1-0.7,0.1-1.1c0-0.2,0.1-0.5,0.1-0.7c0-0.2,0.1-0.5,0.1-0.7
				c0.2-1,0.5-2.2,0.8-3.6c0.2-0.7,0.4-1.4,0.6-2.2c0.2-0.7,0.5-1.6,0.8-2.4c0.5-1.7,1.4-3.5,2.3-5.4c0.8-1.9,2-3.8,3.1-6
				c1.3-2,2.6-4.2,4.2-6.4c0.8-1.1,1.7-2.2,2.5-3.2c0.8-1.1,1.7-2.3,2.6-3.4c1-1.1,1.9-2.2,3-3.2c0.5-0.6,1-1.1,1.6-1.7
				c0.5-0.6,1.1-1.1,1.7-1.6c1.1-1.1,2.3-2.2,3.5-3.2c0.6-0.6,1.2-1.1,1.8-1.7c0.6-0.5,1.2-1,1.9-1.6c1.3-1,2.5-2,3.8-3.1
				s2.6-2.2,4.1-3c2.9-1.9,5.6-3.8,8.6-5.8c3-1.8,6.1-3.5,9.2-5.3c3.1-1.7,6.5-3.2,9.7-4.8c3.2-1.7,6.7-3,10.1-4.4
				c3.5-1.3,6.8-2.9,10.2-4.1c6.8-2.5,13.6-5.3,20.2-8c6.6-2.8,13.1-5.6,19.1-8.6c6.1-3,11.8-6.2,16.8-10c2.4-1.8,4.8-3.7,6.7-5.9
				c1.9-2.2,3.6-4.3,4.8-6.7s1.9-4.8,2.2-7.2c0.2-2.4,0.4-4.8,0-7c-0.5-4.3-1.4-8.2-2.4-11.2c-1-3-1.7-5.4-2.3-7.1
				c-0.6-1.6-0.8-2.5-0.8-2.5s0.4,0.8,1,2.4c0.6,1.6,1.6,4,2.6,7c1.1,3,2.3,6.7,3,11.2c0.4,2.3,0.5,4.7,0.4,7.2
				c-0.1,2.5-0.7,5.3-1.9,7.9c-1.1,2.6-2.8,5.2-4.7,7.4c-1.9,2.4-4.3,4.4-6.7,6.5c-4.9,4.1-10.7,7.7-16.7,11c-6,3.5-12.4,6.6-19,9.8
				c-6.5,3.1-13.2,6.2-19.9,9.1c-3.4,1.4-6.6,3.1-9.8,4.6c-3.2,1.6-6.5,3-9.6,4.8c-3.1,1.7-6.2,3.4-9.1,5.2
				c-2.9,1.9-5.8,3.7-8.5,5.5c-2.8,1.9-5.3,4-7.8,5.9c-1.3,1-2.4,2-3.6,3c-1.2,1.1-2.3,2-3.5,3c-0.6,0.5-1.2,1-1.7,1.6
				c-0.5,0.5-1.1,1.1-1.6,1.6c-1,1.1-2,2-3,3.1c-0.5,0.5-1,1-1.4,1.6c-0.5,0.5-0.8,1.1-1.3,1.6c-0.8,1.1-1.7,2-2.5,3.1
				c-0.8,1-1.6,2-2.3,3.1c-0.7,1-1.4,2-2,3c-1.2,2-2.3,4-3.4,5.8c-0.8,1.9-1.8,3.6-2.4,5.2c-0.6,1.7-1.2,3.1-1.6,4.6
				c-0.2,0.7-0.4,1.3-0.6,1.9c-0.1,0.6-0.2,1.2-0.4,1.7c-0.2,1.1-0.4,1.9-0.5,2.6c0,0.1,0,0.4-0.1,0.5c0,0.1,0,0.2,0,0.4
				c0,0.2,0,0.4,0,0.5c0,0.4,0,0.6,0,0.6L493.6,520.2z"/>
		</g>
	</g>
	<g>
		<defs>
			<polygon id="SVGID_11_" points="179.8,520.8 338.2,322.3 359.3,313.6 475.1,168.7 644.4,367.2 668.2,375 775.2,520.8 			"/>
		</defs>
		<clipPath id="SVGID_12_">
			<use xlink:href="#SVGID_11_"  overflow="visible"/>
		</clipPath>
		<g clip-path="url(#SVGID_12_)">
			<path fill="#E5D8CE" d="M357.4,304c0,0,0.1,0.1,0.2,0.4c0.1,0.2,0.5,0.6,0.7,1.2c0.7,1.1,1.8,2.5,3.2,4.4
				c2.9,3.7,7.4,8.9,13.7,14c3.1,2.5,6.7,5,10.8,7.1c4.1,2.2,8.5,3.8,13.4,4.7c4.8,0.8,10,1,15.1,0s10.2-2.9,15-5.5
				c2.4-1.3,4.7-2.8,7-4.4l1.7-1.2l1.7-1.3c1.1-0.8,2.3-1.7,3.4-2.6c4.3-3.5,8.4-7.2,12.2-10.9c7.6-7.4,13.7-15.5,17.4-23.2
				c1.9-3.8,3.2-7.4,4.2-10.8c0.8-3.4,1.2-6.4,1.3-8.9c0-2.5-0.1-4.4-0.4-5.8s-0.5-2-0.5-2s0.2,0.6,0.6,1.9s0.7,3.2,0.8,5.9
				c0.1,2.5,0,5.6-0.7,9.1c-0.6,3.5-1.8,7.3-3.5,11.4c-3.4,8.2-9.1,16.8-16.3,25.1c-3.6,4.1-7.6,8.2-11.9,12.1
				c-1.1,1-2.2,1.9-3.2,2.9l-1.6,1.4l-1.8,1.4c-2.3,1.9-4.7,3.7-7.3,5.3c-5.2,3.2-10.7,5.9-16.7,7.3c-5.9,1.6-12.1,1.9-18,1.2
				c-5.9-0.7-11.4-2.4-16.2-4.6c-4.9-2.2-9.2-4.8-13-7.4c-7.6-5.4-12.8-10.8-16.4-14.8c-1.8-2-3.1-3.6-4-4.8
				c-0.5-0.6-0.8-1.1-1.1-1.3c-0.2-0.4-0.4-0.5-0.4-0.5L357.4,304z"/>
		</g>
	</g>
	<g>
		<defs>
			<polygon id="SVGID_13_" points="179.8,520.8 338.2,322.3 359.3,313.6 475.1,168.7 644.4,367.2 668.2,375 775.2,520.8 			"/>
		</defs>
		<clipPath id="SVGID_14_">
			<use xlink:href="#SVGID_13_"  overflow="visible"/>
		</clipPath>
		<g clip-path="url(#SVGID_14_)">
			<rect x="498" y="232.8" fill="#1A2E33" width="4.8" height="44.4"/>
			<rect x="453.6" y="232.8" fill="#1A2E33" width="6" height="44.4"/>
			<polygon fill="#FF3F46" points="493.2,232.8 493.2,237.6 487.2,237.6 487.2,243.6 482.4,243.6 469.2,243.6 469.2,237.6 
				464.4,237.6 464.4,232.8 459.6,232.8 459.6,237.6 459.6,243.6 464.4,243.6 464.4,248.4 469.2,248.4 469.2,254.4 482.4,254.4 
				487.2,254.4 487.2,248.4 493.2,248.4 493.2,243.6 498,243.6 498,237.6 498,232.8 			"/>
		</g>
	</g>
</g>
</svg>
